%TF.GenerationSoftware,KiCad,Pcbnew,8.0.5*%
%TF.CreationDate,2024-11-08T11:27:06-05:00*%
%TF.ProjectId,psocpcb,70736f63-7063-4622-9e6b-696361645f70,rev?*%
%TF.SameCoordinates,Original*%
%TF.FileFunction,Legend,Top*%
%TF.FilePolarity,Positive*%
%FSLAX46Y46*%
G04 Gerber Fmt 4.6, Leading zero omitted, Abs format (unit mm)*
G04 Created by KiCad (PCBNEW 8.0.5) date 2024-11-08 11:27:06*
%MOMM*%
%LPD*%
G01*
G04 APERTURE LIST*
G04 Aperture macros list*
%AMRoundRect*
0 Rectangle with rounded corners*
0 $1 Rounding radius*
0 $2 $3 $4 $5 $6 $7 $8 $9 X,Y pos of 4 corners*
0 Add a 4 corners polygon primitive as box body*
4,1,4,$2,$3,$4,$5,$6,$7,$8,$9,$2,$3,0*
0 Add four circle primitives for the rounded corners*
1,1,$1+$1,$2,$3*
1,1,$1+$1,$4,$5*
1,1,$1+$1,$6,$7*
1,1,$1+$1,$8,$9*
0 Add four rect primitives between the rounded corners*
20,1,$1+$1,$2,$3,$4,$5,0*
20,1,$1+$1,$4,$5,$6,$7,0*
20,1,$1+$1,$6,$7,$8,$9,0*
20,1,$1+$1,$8,$9,$2,$3,0*%
G04 Aperture macros list end*
%ADD10C,0.200000*%
%ADD11C,0.100000*%
%ADD12C,0.125000*%
%ADD13C,0.150000*%
%ADD14C,0.120000*%
%ADD15C,0.127000*%
%ADD16RoundRect,0.200000X-0.200000X-0.275000X0.200000X-0.275000X0.200000X0.275000X-0.200000X0.275000X0*%
%ADD17RoundRect,0.237500X-0.287500X-0.237500X0.287500X-0.237500X0.287500X0.237500X-0.287500X0.237500X0*%
%ADD18C,3.100000*%
%ADD19C,5.400000*%
%ADD20R,1.700000X1.700000*%
%ADD21O,1.700000X1.700000*%
%ADD22RoundRect,0.250000X-0.350000X-0.625000X0.350000X-0.625000X0.350000X0.625000X-0.350000X0.625000X0*%
%ADD23O,1.200000X1.750000*%
%ADD24RoundRect,0.102000X-0.635000X-0.305000X0.635000X-0.305000X0.635000X0.305000X-0.635000X0.305000X0*%
%ADD25RoundRect,0.102000X-0.305000X-0.635000X0.305000X-0.635000X0.305000X0.635000X-0.305000X0.635000X0*%
%ADD26RoundRect,0.102000X-0.325000X0.525000X-0.325000X-0.525000X0.325000X-0.525000X0.325000X0.525000X0*%
%ADD27RoundRect,0.200000X-0.275000X0.200000X-0.275000X-0.200000X0.275000X-0.200000X0.275000X0.200000X0*%
%ADD28RoundRect,0.250000X0.350000X0.625000X-0.350000X0.625000X-0.350000X-0.625000X0.350000X-0.625000X0*%
G04 APERTURE END LIST*
D10*
X160867219Y-61630326D02*
X159867219Y-61630326D01*
X159867219Y-61630326D02*
X159867219Y-61249374D01*
X159867219Y-61249374D02*
X159914838Y-61154136D01*
X159914838Y-61154136D02*
X159962457Y-61106517D01*
X159962457Y-61106517D02*
X160057695Y-61058898D01*
X160057695Y-61058898D02*
X160200552Y-61058898D01*
X160200552Y-61058898D02*
X160295790Y-61106517D01*
X160295790Y-61106517D02*
X160343409Y-61154136D01*
X160343409Y-61154136D02*
X160391028Y-61249374D01*
X160391028Y-61249374D02*
X160391028Y-61630326D01*
X160581504Y-60677945D02*
X160581504Y-60201755D01*
X160867219Y-60773183D02*
X159867219Y-60439850D01*
X159867219Y-60439850D02*
X160867219Y-60106517D01*
X160819600Y-59820802D02*
X160867219Y-59677945D01*
X160867219Y-59677945D02*
X160867219Y-59439850D01*
X160867219Y-59439850D02*
X160819600Y-59344612D01*
X160819600Y-59344612D02*
X160771980Y-59296993D01*
X160771980Y-59296993D02*
X160676742Y-59249374D01*
X160676742Y-59249374D02*
X160581504Y-59249374D01*
X160581504Y-59249374D02*
X160486266Y-59296993D01*
X160486266Y-59296993D02*
X160438647Y-59344612D01*
X160438647Y-59344612D02*
X160391028Y-59439850D01*
X160391028Y-59439850D02*
X160343409Y-59630326D01*
X160343409Y-59630326D02*
X160295790Y-59725564D01*
X160295790Y-59725564D02*
X160248171Y-59773183D01*
X160248171Y-59773183D02*
X160152933Y-59820802D01*
X160152933Y-59820802D02*
X160057695Y-59820802D01*
X160057695Y-59820802D02*
X159962457Y-59773183D01*
X159962457Y-59773183D02*
X159914838Y-59725564D01*
X159914838Y-59725564D02*
X159867219Y-59630326D01*
X159867219Y-59630326D02*
X159867219Y-59392231D01*
X159867219Y-59392231D02*
X159914838Y-59249374D01*
X160867219Y-57487469D02*
X160391028Y-57820802D01*
X160867219Y-58058897D02*
X159867219Y-58058897D01*
X159867219Y-58058897D02*
X159867219Y-57677945D01*
X159867219Y-57677945D02*
X159914838Y-57582707D01*
X159914838Y-57582707D02*
X159962457Y-57535088D01*
X159962457Y-57535088D02*
X160057695Y-57487469D01*
X160057695Y-57487469D02*
X160200552Y-57487469D01*
X160200552Y-57487469D02*
X160295790Y-57535088D01*
X160295790Y-57535088D02*
X160343409Y-57582707D01*
X160343409Y-57582707D02*
X160391028Y-57677945D01*
X160391028Y-57677945D02*
X160391028Y-58058897D01*
X160819600Y-56677945D02*
X160867219Y-56773183D01*
X160867219Y-56773183D02*
X160867219Y-56963659D01*
X160867219Y-56963659D02*
X160819600Y-57058897D01*
X160819600Y-57058897D02*
X160724361Y-57106516D01*
X160724361Y-57106516D02*
X160343409Y-57106516D01*
X160343409Y-57106516D02*
X160248171Y-57058897D01*
X160248171Y-57058897D02*
X160200552Y-56963659D01*
X160200552Y-56963659D02*
X160200552Y-56773183D01*
X160200552Y-56773183D02*
X160248171Y-56677945D01*
X160248171Y-56677945D02*
X160343409Y-56630326D01*
X160343409Y-56630326D02*
X160438647Y-56630326D01*
X160438647Y-56630326D02*
X160533885Y-57106516D01*
X160867219Y-56201754D02*
X160200552Y-56201754D01*
X160295790Y-56201754D02*
X160248171Y-56154135D01*
X160248171Y-56154135D02*
X160200552Y-56058897D01*
X160200552Y-56058897D02*
X160200552Y-55916040D01*
X160200552Y-55916040D02*
X160248171Y-55820802D01*
X160248171Y-55820802D02*
X160343409Y-55773183D01*
X160343409Y-55773183D02*
X160867219Y-55773183D01*
X160343409Y-55773183D02*
X160248171Y-55725564D01*
X160248171Y-55725564D02*
X160200552Y-55630326D01*
X160200552Y-55630326D02*
X160200552Y-55487469D01*
X160200552Y-55487469D02*
X160248171Y-55392230D01*
X160248171Y-55392230D02*
X160343409Y-55344611D01*
X160343409Y-55344611D02*
X160867219Y-55344611D01*
X160867219Y-54725564D02*
X160819600Y-54820802D01*
X160819600Y-54820802D02*
X160771980Y-54868421D01*
X160771980Y-54868421D02*
X160676742Y-54916040D01*
X160676742Y-54916040D02*
X160391028Y-54916040D01*
X160391028Y-54916040D02*
X160295790Y-54868421D01*
X160295790Y-54868421D02*
X160248171Y-54820802D01*
X160248171Y-54820802D02*
X160200552Y-54725564D01*
X160200552Y-54725564D02*
X160200552Y-54582707D01*
X160200552Y-54582707D02*
X160248171Y-54487469D01*
X160248171Y-54487469D02*
X160295790Y-54439850D01*
X160295790Y-54439850D02*
X160391028Y-54392231D01*
X160391028Y-54392231D02*
X160676742Y-54392231D01*
X160676742Y-54392231D02*
X160771980Y-54439850D01*
X160771980Y-54439850D02*
X160819600Y-54487469D01*
X160819600Y-54487469D02*
X160867219Y-54582707D01*
X160867219Y-54582707D02*
X160867219Y-54725564D01*
X160200552Y-54106516D02*
X160200552Y-53725564D01*
X159867219Y-53963659D02*
X160724361Y-53963659D01*
X160724361Y-53963659D02*
X160819600Y-53916040D01*
X160819600Y-53916040D02*
X160867219Y-53820802D01*
X160867219Y-53820802D02*
X160867219Y-53725564D01*
X160819600Y-53011278D02*
X160867219Y-53106516D01*
X160867219Y-53106516D02*
X160867219Y-53296992D01*
X160867219Y-53296992D02*
X160819600Y-53392230D01*
X160819600Y-53392230D02*
X160724361Y-53439849D01*
X160724361Y-53439849D02*
X160343409Y-53439849D01*
X160343409Y-53439849D02*
X160248171Y-53392230D01*
X160248171Y-53392230D02*
X160200552Y-53296992D01*
X160200552Y-53296992D02*
X160200552Y-53106516D01*
X160200552Y-53106516D02*
X160248171Y-53011278D01*
X160248171Y-53011278D02*
X160343409Y-52963659D01*
X160343409Y-52963659D02*
X160438647Y-52963659D01*
X160438647Y-52963659D02*
X160533885Y-53439849D01*
X160867219Y-51773182D02*
X159867219Y-51773182D01*
X159867219Y-51773182D02*
X160581504Y-51439849D01*
X160581504Y-51439849D02*
X159867219Y-51106516D01*
X159867219Y-51106516D02*
X160867219Y-51106516D01*
X160867219Y-50487468D02*
X160819600Y-50582706D01*
X160819600Y-50582706D02*
X160771980Y-50630325D01*
X160771980Y-50630325D02*
X160676742Y-50677944D01*
X160676742Y-50677944D02*
X160391028Y-50677944D01*
X160391028Y-50677944D02*
X160295790Y-50630325D01*
X160295790Y-50630325D02*
X160248171Y-50582706D01*
X160248171Y-50582706D02*
X160200552Y-50487468D01*
X160200552Y-50487468D02*
X160200552Y-50344611D01*
X160200552Y-50344611D02*
X160248171Y-50249373D01*
X160248171Y-50249373D02*
X160295790Y-50201754D01*
X160295790Y-50201754D02*
X160391028Y-50154135D01*
X160391028Y-50154135D02*
X160676742Y-50154135D01*
X160676742Y-50154135D02*
X160771980Y-50201754D01*
X160771980Y-50201754D02*
X160819600Y-50249373D01*
X160819600Y-50249373D02*
X160867219Y-50344611D01*
X160867219Y-50344611D02*
X160867219Y-50487468D01*
X160200552Y-49725563D02*
X160867219Y-49725563D01*
X160295790Y-49725563D02*
X160248171Y-49677944D01*
X160248171Y-49677944D02*
X160200552Y-49582706D01*
X160200552Y-49582706D02*
X160200552Y-49439849D01*
X160200552Y-49439849D02*
X160248171Y-49344611D01*
X160248171Y-49344611D02*
X160343409Y-49296992D01*
X160343409Y-49296992D02*
X160867219Y-49296992D01*
X160867219Y-48820801D02*
X160200552Y-48820801D01*
X159867219Y-48820801D02*
X159914838Y-48868420D01*
X159914838Y-48868420D02*
X159962457Y-48820801D01*
X159962457Y-48820801D02*
X159914838Y-48773182D01*
X159914838Y-48773182D02*
X159867219Y-48820801D01*
X159867219Y-48820801D02*
X159962457Y-48820801D01*
X160200552Y-48487468D02*
X160200552Y-48106516D01*
X159867219Y-48344611D02*
X160724361Y-48344611D01*
X160724361Y-48344611D02*
X160819600Y-48296992D01*
X160819600Y-48296992D02*
X160867219Y-48201754D01*
X160867219Y-48201754D02*
X160867219Y-48106516D01*
X160867219Y-47630325D02*
X160819600Y-47725563D01*
X160819600Y-47725563D02*
X160771980Y-47773182D01*
X160771980Y-47773182D02*
X160676742Y-47820801D01*
X160676742Y-47820801D02*
X160391028Y-47820801D01*
X160391028Y-47820801D02*
X160295790Y-47773182D01*
X160295790Y-47773182D02*
X160248171Y-47725563D01*
X160248171Y-47725563D02*
X160200552Y-47630325D01*
X160200552Y-47630325D02*
X160200552Y-47487468D01*
X160200552Y-47487468D02*
X160248171Y-47392230D01*
X160248171Y-47392230D02*
X160295790Y-47344611D01*
X160295790Y-47344611D02*
X160391028Y-47296992D01*
X160391028Y-47296992D02*
X160676742Y-47296992D01*
X160676742Y-47296992D02*
X160771980Y-47344611D01*
X160771980Y-47344611D02*
X160819600Y-47392230D01*
X160819600Y-47392230D02*
X160867219Y-47487468D01*
X160867219Y-47487468D02*
X160867219Y-47630325D01*
X160867219Y-46868420D02*
X160200552Y-46868420D01*
X160391028Y-46868420D02*
X160295790Y-46820801D01*
X160295790Y-46820801D02*
X160248171Y-46773182D01*
X160248171Y-46773182D02*
X160200552Y-46677944D01*
X160200552Y-46677944D02*
X160200552Y-46582706D01*
X160867219Y-46249372D02*
X160200552Y-46249372D01*
X159867219Y-46249372D02*
X159914838Y-46296991D01*
X159914838Y-46296991D02*
X159962457Y-46249372D01*
X159962457Y-46249372D02*
X159914838Y-46201753D01*
X159914838Y-46201753D02*
X159867219Y-46249372D01*
X159867219Y-46249372D02*
X159962457Y-46249372D01*
X160200552Y-45773182D02*
X160867219Y-45773182D01*
X160295790Y-45773182D02*
X160248171Y-45725563D01*
X160248171Y-45725563D02*
X160200552Y-45630325D01*
X160200552Y-45630325D02*
X160200552Y-45487468D01*
X160200552Y-45487468D02*
X160248171Y-45392230D01*
X160248171Y-45392230D02*
X160343409Y-45344611D01*
X160343409Y-45344611D02*
X160867219Y-45344611D01*
X160200552Y-44439849D02*
X161010076Y-44439849D01*
X161010076Y-44439849D02*
X161105314Y-44487468D01*
X161105314Y-44487468D02*
X161152933Y-44535087D01*
X161152933Y-44535087D02*
X161200552Y-44630325D01*
X161200552Y-44630325D02*
X161200552Y-44773182D01*
X161200552Y-44773182D02*
X161152933Y-44868420D01*
X160819600Y-44439849D02*
X160867219Y-44535087D01*
X160867219Y-44535087D02*
X160867219Y-44725563D01*
X160867219Y-44725563D02*
X160819600Y-44820801D01*
X160819600Y-44820801D02*
X160771980Y-44868420D01*
X160771980Y-44868420D02*
X160676742Y-44916039D01*
X160676742Y-44916039D02*
X160391028Y-44916039D01*
X160391028Y-44916039D02*
X160295790Y-44868420D01*
X160295790Y-44868420D02*
X160248171Y-44820801D01*
X160248171Y-44820801D02*
X160200552Y-44725563D01*
X160200552Y-44725563D02*
X160200552Y-44535087D01*
X160200552Y-44535087D02*
X160248171Y-44439849D01*
X160819600Y-43249372D02*
X160867219Y-43106515D01*
X160867219Y-43106515D02*
X160867219Y-42868420D01*
X160867219Y-42868420D02*
X160819600Y-42773182D01*
X160819600Y-42773182D02*
X160771980Y-42725563D01*
X160771980Y-42725563D02*
X160676742Y-42677944D01*
X160676742Y-42677944D02*
X160581504Y-42677944D01*
X160581504Y-42677944D02*
X160486266Y-42725563D01*
X160486266Y-42725563D02*
X160438647Y-42773182D01*
X160438647Y-42773182D02*
X160391028Y-42868420D01*
X160391028Y-42868420D02*
X160343409Y-43058896D01*
X160343409Y-43058896D02*
X160295790Y-43154134D01*
X160295790Y-43154134D02*
X160248171Y-43201753D01*
X160248171Y-43201753D02*
X160152933Y-43249372D01*
X160152933Y-43249372D02*
X160057695Y-43249372D01*
X160057695Y-43249372D02*
X159962457Y-43201753D01*
X159962457Y-43201753D02*
X159914838Y-43154134D01*
X159914838Y-43154134D02*
X159867219Y-43058896D01*
X159867219Y-43058896D02*
X159867219Y-42820801D01*
X159867219Y-42820801D02*
X159914838Y-42677944D01*
X160200552Y-42344610D02*
X160867219Y-42106515D01*
X160200552Y-41868420D02*
X160867219Y-42106515D01*
X160867219Y-42106515D02*
X161105314Y-42201753D01*
X161105314Y-42201753D02*
X161152933Y-42249372D01*
X161152933Y-42249372D02*
X161200552Y-42344610D01*
X160819600Y-41535086D02*
X160867219Y-41439848D01*
X160867219Y-41439848D02*
X160867219Y-41249372D01*
X160867219Y-41249372D02*
X160819600Y-41154134D01*
X160819600Y-41154134D02*
X160724361Y-41106515D01*
X160724361Y-41106515D02*
X160676742Y-41106515D01*
X160676742Y-41106515D02*
X160581504Y-41154134D01*
X160581504Y-41154134D02*
X160533885Y-41249372D01*
X160533885Y-41249372D02*
X160533885Y-41392229D01*
X160533885Y-41392229D02*
X160486266Y-41487467D01*
X160486266Y-41487467D02*
X160391028Y-41535086D01*
X160391028Y-41535086D02*
X160343409Y-41535086D01*
X160343409Y-41535086D02*
X160248171Y-41487467D01*
X160248171Y-41487467D02*
X160200552Y-41392229D01*
X160200552Y-41392229D02*
X160200552Y-41249372D01*
X160200552Y-41249372D02*
X160248171Y-41154134D01*
X160200552Y-40820800D02*
X160200552Y-40439848D01*
X159867219Y-40677943D02*
X160724361Y-40677943D01*
X160724361Y-40677943D02*
X160819600Y-40630324D01*
X160819600Y-40630324D02*
X160867219Y-40535086D01*
X160867219Y-40535086D02*
X160867219Y-40439848D01*
X160819600Y-39725562D02*
X160867219Y-39820800D01*
X160867219Y-39820800D02*
X160867219Y-40011276D01*
X160867219Y-40011276D02*
X160819600Y-40106514D01*
X160819600Y-40106514D02*
X160724361Y-40154133D01*
X160724361Y-40154133D02*
X160343409Y-40154133D01*
X160343409Y-40154133D02*
X160248171Y-40106514D01*
X160248171Y-40106514D02*
X160200552Y-40011276D01*
X160200552Y-40011276D02*
X160200552Y-39820800D01*
X160200552Y-39820800D02*
X160248171Y-39725562D01*
X160248171Y-39725562D02*
X160343409Y-39677943D01*
X160343409Y-39677943D02*
X160438647Y-39677943D01*
X160438647Y-39677943D02*
X160533885Y-40154133D01*
X160867219Y-39249371D02*
X160200552Y-39249371D01*
X160295790Y-39249371D02*
X160248171Y-39201752D01*
X160248171Y-39201752D02*
X160200552Y-39106514D01*
X160200552Y-39106514D02*
X160200552Y-38963657D01*
X160200552Y-38963657D02*
X160248171Y-38868419D01*
X160248171Y-38868419D02*
X160343409Y-38820800D01*
X160343409Y-38820800D02*
X160867219Y-38820800D01*
X160343409Y-38820800D02*
X160248171Y-38773181D01*
X160248171Y-38773181D02*
X160200552Y-38677943D01*
X160200552Y-38677943D02*
X160200552Y-38535086D01*
X160200552Y-38535086D02*
X160248171Y-38439847D01*
X160248171Y-38439847D02*
X160343409Y-38392228D01*
X160343409Y-38392228D02*
X160867219Y-38392228D01*
X148914838Y-36856517D02*
X148867219Y-36951755D01*
X148867219Y-36951755D02*
X148867219Y-37094612D01*
X148867219Y-37094612D02*
X148914838Y-37237469D01*
X148914838Y-37237469D02*
X149010076Y-37332707D01*
X149010076Y-37332707D02*
X149105314Y-37380326D01*
X149105314Y-37380326D02*
X149295790Y-37427945D01*
X149295790Y-37427945D02*
X149438647Y-37427945D01*
X149438647Y-37427945D02*
X149629123Y-37380326D01*
X149629123Y-37380326D02*
X149724361Y-37332707D01*
X149724361Y-37332707D02*
X149819600Y-37237469D01*
X149819600Y-37237469D02*
X149867219Y-37094612D01*
X149867219Y-37094612D02*
X149867219Y-36999374D01*
X149867219Y-36999374D02*
X149819600Y-36856517D01*
X149819600Y-36856517D02*
X149771980Y-36808898D01*
X149771980Y-36808898D02*
X149438647Y-36808898D01*
X149438647Y-36808898D02*
X149438647Y-36999374D01*
X149867219Y-36380326D02*
X148867219Y-36380326D01*
X148867219Y-36380326D02*
X149867219Y-35808898D01*
X149867219Y-35808898D02*
X148867219Y-35808898D01*
X149867219Y-35332707D02*
X148867219Y-35332707D01*
X148867219Y-35332707D02*
X148867219Y-35094612D01*
X148867219Y-35094612D02*
X148914838Y-34951755D01*
X148914838Y-34951755D02*
X149010076Y-34856517D01*
X149010076Y-34856517D02*
X149105314Y-34808898D01*
X149105314Y-34808898D02*
X149295790Y-34761279D01*
X149295790Y-34761279D02*
X149438647Y-34761279D01*
X149438647Y-34761279D02*
X149629123Y-34808898D01*
X149629123Y-34808898D02*
X149724361Y-34856517D01*
X149724361Y-34856517D02*
X149819600Y-34951755D01*
X149819600Y-34951755D02*
X149867219Y-35094612D01*
X149867219Y-35094612D02*
X149867219Y-35332707D01*
D11*
X168872419Y-47678258D02*
X168872419Y-48249687D01*
X168872419Y-47963972D02*
X167872419Y-47838972D01*
X167872419Y-47838972D02*
X168015276Y-47952068D01*
X168015276Y-47952068D02*
X168110514Y-48059211D01*
X168110514Y-48059211D02*
X168158133Y-48160401D01*
X168872419Y-46725877D02*
X168872419Y-47297306D01*
X168872419Y-47011591D02*
X167872419Y-46886591D01*
X167872419Y-46886591D02*
X168015276Y-46999687D01*
X168015276Y-46999687D02*
X168110514Y-47106830D01*
X168110514Y-47106830D02*
X168158133Y-47208020D01*
X167824800Y-45452068D02*
X169110514Y-46469925D01*
X167872419Y-45219925D02*
X167872419Y-44553258D01*
X167872419Y-44553258D02*
X168872419Y-45106830D01*
X167824800Y-43452068D02*
X169110514Y-44469925D01*
X167967657Y-43184210D02*
X167920038Y-43130639D01*
X167920038Y-43130639D02*
X167872419Y-43029449D01*
X167872419Y-43029449D02*
X167872419Y-42791353D01*
X167872419Y-42791353D02*
X167920038Y-42702068D01*
X167920038Y-42702068D02*
X167967657Y-42660401D01*
X167967657Y-42660401D02*
X168062895Y-42624687D01*
X168062895Y-42624687D02*
X168158133Y-42636591D01*
X168158133Y-42636591D02*
X168300990Y-42702068D01*
X168300990Y-42702068D02*
X168872419Y-43344925D01*
X168872419Y-43344925D02*
X168872419Y-42725877D01*
X167872419Y-41981829D02*
X167872419Y-41886591D01*
X167872419Y-41886591D02*
X167920038Y-41797306D01*
X167920038Y-41797306D02*
X167967657Y-41755639D01*
X167967657Y-41755639D02*
X168062895Y-41719925D01*
X168062895Y-41719925D02*
X168253371Y-41696115D01*
X168253371Y-41696115D02*
X168491466Y-41725877D01*
X168491466Y-41725877D02*
X168681942Y-41797306D01*
X168681942Y-41797306D02*
X168777180Y-41856829D01*
X168777180Y-41856829D02*
X168824800Y-41910401D01*
X168824800Y-41910401D02*
X168872419Y-42011591D01*
X168872419Y-42011591D02*
X168872419Y-42106829D01*
X168872419Y-42106829D02*
X168824800Y-42196115D01*
X168824800Y-42196115D02*
X168777180Y-42237782D01*
X168777180Y-42237782D02*
X168681942Y-42273496D01*
X168681942Y-42273496D02*
X168491466Y-42297306D01*
X168491466Y-42297306D02*
X168253371Y-42267544D01*
X168253371Y-42267544D02*
X168062895Y-42196115D01*
X168062895Y-42196115D02*
X167967657Y-42136591D01*
X167967657Y-42136591D02*
X167920038Y-42083020D01*
X167920038Y-42083020D02*
X167872419Y-41981829D01*
X167967657Y-41279448D02*
X167920038Y-41225877D01*
X167920038Y-41225877D02*
X167872419Y-41124687D01*
X167872419Y-41124687D02*
X167872419Y-40886591D01*
X167872419Y-40886591D02*
X167920038Y-40797306D01*
X167920038Y-40797306D02*
X167967657Y-40755639D01*
X167967657Y-40755639D02*
X168062895Y-40719925D01*
X168062895Y-40719925D02*
X168158133Y-40731829D01*
X168158133Y-40731829D02*
X168300990Y-40797306D01*
X168300990Y-40797306D02*
X168872419Y-41440163D01*
X168872419Y-41440163D02*
X168872419Y-40821115D01*
X168205752Y-39880639D02*
X168872419Y-39963972D01*
X167824800Y-40071115D02*
X168539085Y-40398496D01*
X168539085Y-40398496D02*
X168539085Y-39779448D01*
X164777180Y-61118734D02*
X164824800Y-61172306D01*
X164824800Y-61172306D02*
X164872419Y-61321115D01*
X164872419Y-61321115D02*
X164872419Y-61416353D01*
X164872419Y-61416353D02*
X164824800Y-61553258D01*
X164824800Y-61553258D02*
X164729561Y-61636591D01*
X164729561Y-61636591D02*
X164634323Y-61672306D01*
X164634323Y-61672306D02*
X164443847Y-61696115D01*
X164443847Y-61696115D02*
X164300990Y-61678258D01*
X164300990Y-61678258D02*
X164110514Y-61606830D01*
X164110514Y-61606830D02*
X164015276Y-61547306D01*
X164015276Y-61547306D02*
X163920038Y-61440163D01*
X163920038Y-61440163D02*
X163872419Y-61291353D01*
X163872419Y-61291353D02*
X163872419Y-61196115D01*
X163872419Y-61196115D02*
X163920038Y-61059211D01*
X163920038Y-61059211D02*
X163967657Y-61017544D01*
X164872419Y-60702068D02*
X163872419Y-60577068D01*
X163872419Y-60577068D02*
X164586704Y-60333020D01*
X164586704Y-60333020D02*
X163872419Y-59910401D01*
X163872419Y-59910401D02*
X164872419Y-60035401D01*
X163872419Y-59434211D02*
X164681942Y-59535401D01*
X164681942Y-59535401D02*
X164777180Y-59499687D01*
X164777180Y-59499687D02*
X164824800Y-59458020D01*
X164824800Y-59458020D02*
X164872419Y-59368734D01*
X164872419Y-59368734D02*
X164872419Y-59178258D01*
X164872419Y-59178258D02*
X164824800Y-59077068D01*
X164824800Y-59077068D02*
X164777180Y-59023496D01*
X164777180Y-59023496D02*
X164681942Y-58963973D01*
X164681942Y-58963973D02*
X163872419Y-58862782D01*
X164348609Y-57350877D02*
X164396228Y-57213972D01*
X164396228Y-57213972D02*
X164443847Y-57172306D01*
X164443847Y-57172306D02*
X164539085Y-57136591D01*
X164539085Y-57136591D02*
X164681942Y-57154449D01*
X164681942Y-57154449D02*
X164777180Y-57213972D01*
X164777180Y-57213972D02*
X164824800Y-57267544D01*
X164824800Y-57267544D02*
X164872419Y-57368734D01*
X164872419Y-57368734D02*
X164872419Y-57749687D01*
X164872419Y-57749687D02*
X163872419Y-57624687D01*
X163872419Y-57624687D02*
X163872419Y-57291353D01*
X163872419Y-57291353D02*
X163920038Y-57202068D01*
X163920038Y-57202068D02*
X163967657Y-57160401D01*
X163967657Y-57160401D02*
X164062895Y-57124687D01*
X164062895Y-57124687D02*
X164158133Y-57136591D01*
X164158133Y-57136591D02*
X164253371Y-57196115D01*
X164253371Y-57196115D02*
X164300990Y-57249687D01*
X164300990Y-57249687D02*
X164348609Y-57350877D01*
X164348609Y-57350877D02*
X164348609Y-57684210D01*
X164872419Y-56749687D02*
X164205752Y-56666353D01*
X163872419Y-56624687D02*
X163920038Y-56678258D01*
X163920038Y-56678258D02*
X163967657Y-56636591D01*
X163967657Y-56636591D02*
X163920038Y-56583020D01*
X163920038Y-56583020D02*
X163872419Y-56624687D01*
X163872419Y-56624687D02*
X163967657Y-56636591D01*
X164872419Y-56130640D02*
X164824800Y-56219925D01*
X164824800Y-56219925D02*
X164777180Y-56261592D01*
X164777180Y-56261592D02*
X164681942Y-56297306D01*
X164681942Y-56297306D02*
X164396228Y-56261592D01*
X164396228Y-56261592D02*
X164300990Y-56202068D01*
X164300990Y-56202068D02*
X164253371Y-56148497D01*
X164253371Y-56148497D02*
X164205752Y-56047306D01*
X164205752Y-56047306D02*
X164205752Y-55904449D01*
X164205752Y-55904449D02*
X164253371Y-55815163D01*
X164253371Y-55815163D02*
X164300990Y-55773497D01*
X164300990Y-55773497D02*
X164396228Y-55737782D01*
X164396228Y-55737782D02*
X164681942Y-55773497D01*
X164681942Y-55773497D02*
X164777180Y-55833020D01*
X164777180Y-55833020D02*
X164824800Y-55886592D01*
X164824800Y-55886592D02*
X164872419Y-55987782D01*
X164872419Y-55987782D02*
X164872419Y-56130640D01*
X164872419Y-55368735D02*
X164205752Y-55285401D01*
X164396228Y-55309211D02*
X164300990Y-55249687D01*
X164300990Y-55249687D02*
X164253371Y-55196116D01*
X164253371Y-55196116D02*
X164205752Y-55094925D01*
X164205752Y-55094925D02*
X164205752Y-54999687D01*
X164872419Y-54606830D02*
X164824800Y-54696115D01*
X164824800Y-54696115D02*
X164777180Y-54737782D01*
X164777180Y-54737782D02*
X164681942Y-54773496D01*
X164681942Y-54773496D02*
X164396228Y-54737782D01*
X164396228Y-54737782D02*
X164300990Y-54678258D01*
X164300990Y-54678258D02*
X164253371Y-54624687D01*
X164253371Y-54624687D02*
X164205752Y-54523496D01*
X164205752Y-54523496D02*
X164205752Y-54380639D01*
X164205752Y-54380639D02*
X164253371Y-54291353D01*
X164253371Y-54291353D02*
X164300990Y-54249687D01*
X164300990Y-54249687D02*
X164396228Y-54213972D01*
X164396228Y-54213972D02*
X164681942Y-54249687D01*
X164681942Y-54249687D02*
X164777180Y-54309210D01*
X164777180Y-54309210D02*
X164824800Y-54362782D01*
X164824800Y-54362782D02*
X164872419Y-54463972D01*
X164872419Y-54463972D02*
X164872419Y-54606830D01*
X164872419Y-53844925D02*
X163872419Y-53719925D01*
X164253371Y-53767544D02*
X164205752Y-53666353D01*
X164205752Y-53666353D02*
X164205752Y-53475877D01*
X164205752Y-53475877D02*
X164253371Y-53386591D01*
X164253371Y-53386591D02*
X164300990Y-53344925D01*
X164300990Y-53344925D02*
X164396228Y-53309210D01*
X164396228Y-53309210D02*
X164681942Y-53344925D01*
X164681942Y-53344925D02*
X164777180Y-53404448D01*
X164777180Y-53404448D02*
X164824800Y-53458020D01*
X164824800Y-53458020D02*
X164872419Y-53559210D01*
X164872419Y-53559210D02*
X164872419Y-53749687D01*
X164872419Y-53749687D02*
X164824800Y-53838972D01*
X164872419Y-52797306D02*
X164824800Y-52886591D01*
X164824800Y-52886591D02*
X164777180Y-52928258D01*
X164777180Y-52928258D02*
X164681942Y-52963972D01*
X164681942Y-52963972D02*
X164396228Y-52928258D01*
X164396228Y-52928258D02*
X164300990Y-52868734D01*
X164300990Y-52868734D02*
X164253371Y-52815163D01*
X164253371Y-52815163D02*
X164205752Y-52713972D01*
X164205752Y-52713972D02*
X164205752Y-52571115D01*
X164205752Y-52571115D02*
X164253371Y-52481829D01*
X164253371Y-52481829D02*
X164300990Y-52440163D01*
X164300990Y-52440163D02*
X164396228Y-52404448D01*
X164396228Y-52404448D02*
X164681942Y-52440163D01*
X164681942Y-52440163D02*
X164777180Y-52499686D01*
X164777180Y-52499686D02*
X164824800Y-52553258D01*
X164824800Y-52553258D02*
X164872419Y-52654448D01*
X164872419Y-52654448D02*
X164872419Y-52797306D01*
X164205752Y-52094924D02*
X164205752Y-51713972D01*
X163872419Y-51910401D02*
X164729561Y-52017544D01*
X164729561Y-52017544D02*
X164824800Y-51981829D01*
X164824800Y-51981829D02*
X164872419Y-51892544D01*
X164872419Y-51892544D02*
X164872419Y-51797305D01*
X164872419Y-51463972D02*
X164205752Y-51380638D01*
X163872419Y-51338972D02*
X163920038Y-51392543D01*
X163920038Y-51392543D02*
X163967657Y-51350876D01*
X163967657Y-51350876D02*
X163920038Y-51297305D01*
X163920038Y-51297305D02*
X163872419Y-51338972D01*
X163872419Y-51338972D02*
X163967657Y-51350876D01*
X164824800Y-50553258D02*
X164872419Y-50654448D01*
X164872419Y-50654448D02*
X164872419Y-50844925D01*
X164872419Y-50844925D02*
X164824800Y-50934210D01*
X164824800Y-50934210D02*
X164777180Y-50975877D01*
X164777180Y-50975877D02*
X164681942Y-51011591D01*
X164681942Y-51011591D02*
X164396228Y-50975877D01*
X164396228Y-50975877D02*
X164300990Y-50916353D01*
X164300990Y-50916353D02*
X164253371Y-50862782D01*
X164253371Y-50862782D02*
X164205752Y-50761591D01*
X164205752Y-50761591D02*
X164205752Y-50571115D01*
X164205752Y-50571115D02*
X164253371Y-50481829D01*
X164824800Y-50172305D02*
X164872419Y-50083020D01*
X164872419Y-50083020D02*
X164872419Y-49892543D01*
X164872419Y-49892543D02*
X164824800Y-49791353D01*
X164824800Y-49791353D02*
X164729561Y-49731829D01*
X164729561Y-49731829D02*
X164681942Y-49725877D01*
X164681942Y-49725877D02*
X164586704Y-49761591D01*
X164586704Y-49761591D02*
X164539085Y-49850877D01*
X164539085Y-49850877D02*
X164539085Y-49993734D01*
X164539085Y-49993734D02*
X164491466Y-50083020D01*
X164491466Y-50083020D02*
X164396228Y-50118734D01*
X164396228Y-50118734D02*
X164348609Y-50112782D01*
X164348609Y-50112782D02*
X164253371Y-50053258D01*
X164253371Y-50053258D02*
X164205752Y-49952067D01*
X164205752Y-49952067D02*
X164205752Y-49809210D01*
X164205752Y-49809210D02*
X164253371Y-49719924D01*
X164872419Y-48083019D02*
X164872419Y-48559210D01*
X164872419Y-48559210D02*
X163872419Y-48434210D01*
X164872419Y-47321114D02*
X164348609Y-47255638D01*
X164348609Y-47255638D02*
X164253371Y-47291352D01*
X164253371Y-47291352D02*
X164205752Y-47380638D01*
X164205752Y-47380638D02*
X164205752Y-47571114D01*
X164205752Y-47571114D02*
X164253371Y-47672305D01*
X164824800Y-47315162D02*
X164872419Y-47416352D01*
X164872419Y-47416352D02*
X164872419Y-47654448D01*
X164872419Y-47654448D02*
X164824800Y-47743733D01*
X164824800Y-47743733D02*
X164729561Y-47779448D01*
X164729561Y-47779448D02*
X164634323Y-47767543D01*
X164634323Y-47767543D02*
X164539085Y-47708019D01*
X164539085Y-47708019D02*
X164491466Y-47606829D01*
X164491466Y-47606829D02*
X164491466Y-47368733D01*
X164491466Y-47368733D02*
X164443847Y-47267543D01*
X164872419Y-46844924D02*
X163872419Y-46719924D01*
X164253371Y-46767543D02*
X164205752Y-46666352D01*
X164205752Y-46666352D02*
X164205752Y-46475876D01*
X164205752Y-46475876D02*
X164253371Y-46386590D01*
X164253371Y-46386590D02*
X164300990Y-46344924D01*
X164300990Y-46344924D02*
X164396228Y-46309209D01*
X164396228Y-46309209D02*
X164681942Y-46344924D01*
X164681942Y-46344924D02*
X164777180Y-46404447D01*
X164777180Y-46404447D02*
X164824800Y-46458019D01*
X164824800Y-46458019D02*
X164872419Y-46559209D01*
X164872419Y-46559209D02*
X164872419Y-46749686D01*
X164872419Y-46749686D02*
X164824800Y-46838971D01*
D10*
X146367219Y-37475564D02*
X147367219Y-36808898D01*
X146367219Y-36808898D02*
X147367219Y-37475564D01*
X147367219Y-35856517D02*
X146891028Y-36189850D01*
X147367219Y-36427945D02*
X146367219Y-36427945D01*
X146367219Y-36427945D02*
X146367219Y-36046993D01*
X146367219Y-36046993D02*
X146414838Y-35951755D01*
X146414838Y-35951755D02*
X146462457Y-35904136D01*
X146462457Y-35904136D02*
X146557695Y-35856517D01*
X146557695Y-35856517D02*
X146700552Y-35856517D01*
X146700552Y-35856517D02*
X146795790Y-35904136D01*
X146795790Y-35904136D02*
X146843409Y-35951755D01*
X146843409Y-35951755D02*
X146891028Y-36046993D01*
X146891028Y-36046993D02*
X146891028Y-36427945D01*
X146843409Y-35427945D02*
X146843409Y-35094612D01*
X147367219Y-34951755D02*
X147367219Y-35427945D01*
X147367219Y-35427945D02*
X146367219Y-35427945D01*
X146367219Y-35427945D02*
X146367219Y-34951755D01*
X147319600Y-34570802D02*
X147367219Y-34427945D01*
X147367219Y-34427945D02*
X147367219Y-34189850D01*
X147367219Y-34189850D02*
X147319600Y-34094612D01*
X147319600Y-34094612D02*
X147271980Y-34046993D01*
X147271980Y-34046993D02*
X147176742Y-33999374D01*
X147176742Y-33999374D02*
X147081504Y-33999374D01*
X147081504Y-33999374D02*
X146986266Y-34046993D01*
X146986266Y-34046993D02*
X146938647Y-34094612D01*
X146938647Y-34094612D02*
X146891028Y-34189850D01*
X146891028Y-34189850D02*
X146843409Y-34380326D01*
X146843409Y-34380326D02*
X146795790Y-34475564D01*
X146795790Y-34475564D02*
X146748171Y-34523183D01*
X146748171Y-34523183D02*
X146652933Y-34570802D01*
X146652933Y-34570802D02*
X146557695Y-34570802D01*
X146557695Y-34570802D02*
X146462457Y-34523183D01*
X146462457Y-34523183D02*
X146414838Y-34475564D01*
X146414838Y-34475564D02*
X146367219Y-34380326D01*
X146367219Y-34380326D02*
X146367219Y-34142231D01*
X146367219Y-34142231D02*
X146414838Y-33999374D01*
X137117219Y-36951755D02*
X136117219Y-36951755D01*
X137069600Y-36951755D02*
X137117219Y-37046993D01*
X137117219Y-37046993D02*
X137117219Y-37237469D01*
X137117219Y-37237469D02*
X137069600Y-37332707D01*
X137069600Y-37332707D02*
X137021980Y-37380326D01*
X137021980Y-37380326D02*
X136926742Y-37427945D01*
X136926742Y-37427945D02*
X136641028Y-37427945D01*
X136641028Y-37427945D02*
X136545790Y-37380326D01*
X136545790Y-37380326D02*
X136498171Y-37332707D01*
X136498171Y-37332707D02*
X136450552Y-37237469D01*
X136450552Y-37237469D02*
X136450552Y-37046993D01*
X136450552Y-37046993D02*
X136498171Y-36951755D01*
X137117219Y-36475564D02*
X136117219Y-36475564D01*
X136498171Y-36475564D02*
X136450552Y-36380326D01*
X136450552Y-36380326D02*
X136450552Y-36189850D01*
X136450552Y-36189850D02*
X136498171Y-36094612D01*
X136498171Y-36094612D02*
X136545790Y-36046993D01*
X136545790Y-36046993D02*
X136641028Y-35999374D01*
X136641028Y-35999374D02*
X136926742Y-35999374D01*
X136926742Y-35999374D02*
X137021980Y-36046993D01*
X137021980Y-36046993D02*
X137069600Y-36094612D01*
X137069600Y-36094612D02*
X137117219Y-36189850D01*
X137117219Y-36189850D02*
X137117219Y-36380326D01*
X137117219Y-36380326D02*
X137069600Y-36475564D01*
X136450552Y-35142231D02*
X137260076Y-35142231D01*
X137260076Y-35142231D02*
X137355314Y-35189850D01*
X137355314Y-35189850D02*
X137402933Y-35237469D01*
X137402933Y-35237469D02*
X137450552Y-35332707D01*
X137450552Y-35332707D02*
X137450552Y-35475564D01*
X137450552Y-35475564D02*
X137402933Y-35570802D01*
X137069600Y-35142231D02*
X137117219Y-35237469D01*
X137117219Y-35237469D02*
X137117219Y-35427945D01*
X137117219Y-35427945D02*
X137069600Y-35523183D01*
X137069600Y-35523183D02*
X137021980Y-35570802D01*
X137021980Y-35570802D02*
X136926742Y-35618421D01*
X136926742Y-35618421D02*
X136641028Y-35618421D01*
X136641028Y-35618421D02*
X136545790Y-35570802D01*
X136545790Y-35570802D02*
X136498171Y-35523183D01*
X136498171Y-35523183D02*
X136450552Y-35427945D01*
X136450552Y-35427945D02*
X136450552Y-35237469D01*
X136450552Y-35237469D02*
X136498171Y-35142231D01*
X137117219Y-34094612D02*
X136641028Y-34427945D01*
X137117219Y-34666040D02*
X136117219Y-34666040D01*
X136117219Y-34666040D02*
X136117219Y-34285088D01*
X136117219Y-34285088D02*
X136164838Y-34189850D01*
X136164838Y-34189850D02*
X136212457Y-34142231D01*
X136212457Y-34142231D02*
X136307695Y-34094612D01*
X136307695Y-34094612D02*
X136450552Y-34094612D01*
X136450552Y-34094612D02*
X136545790Y-34142231D01*
X136545790Y-34142231D02*
X136593409Y-34189850D01*
X136593409Y-34189850D02*
X136641028Y-34285088D01*
X136641028Y-34285088D02*
X136641028Y-34666040D01*
X136117219Y-33761278D02*
X137117219Y-33094612D01*
X136117219Y-33094612D02*
X137117219Y-33761278D01*
X142069600Y-37427945D02*
X142117219Y-37285088D01*
X142117219Y-37285088D02*
X142117219Y-37046993D01*
X142117219Y-37046993D02*
X142069600Y-36951755D01*
X142069600Y-36951755D02*
X142021980Y-36904136D01*
X142021980Y-36904136D02*
X141926742Y-36856517D01*
X141926742Y-36856517D02*
X141831504Y-36856517D01*
X141831504Y-36856517D02*
X141736266Y-36904136D01*
X141736266Y-36904136D02*
X141688647Y-36951755D01*
X141688647Y-36951755D02*
X141641028Y-37046993D01*
X141641028Y-37046993D02*
X141593409Y-37237469D01*
X141593409Y-37237469D02*
X141545790Y-37332707D01*
X141545790Y-37332707D02*
X141498171Y-37380326D01*
X141498171Y-37380326D02*
X141402933Y-37427945D01*
X141402933Y-37427945D02*
X141307695Y-37427945D01*
X141307695Y-37427945D02*
X141212457Y-37380326D01*
X141212457Y-37380326D02*
X141164838Y-37332707D01*
X141164838Y-37332707D02*
X141117219Y-37237469D01*
X141117219Y-37237469D02*
X141117219Y-36999374D01*
X141117219Y-36999374D02*
X141164838Y-36856517D01*
X141117219Y-36523183D02*
X142117219Y-36285088D01*
X142117219Y-36285088D02*
X141402933Y-36094612D01*
X141402933Y-36094612D02*
X142117219Y-35904136D01*
X142117219Y-35904136D02*
X141117219Y-35666041D01*
X142117219Y-35285088D02*
X141117219Y-35285088D01*
X141117219Y-35285088D02*
X141117219Y-35046993D01*
X141117219Y-35046993D02*
X141164838Y-34904136D01*
X141164838Y-34904136D02*
X141260076Y-34808898D01*
X141260076Y-34808898D02*
X141355314Y-34761279D01*
X141355314Y-34761279D02*
X141545790Y-34713660D01*
X141545790Y-34713660D02*
X141688647Y-34713660D01*
X141688647Y-34713660D02*
X141879123Y-34761279D01*
X141879123Y-34761279D02*
X141974361Y-34808898D01*
X141974361Y-34808898D02*
X142069600Y-34904136D01*
X142069600Y-34904136D02*
X142117219Y-35046993D01*
X142117219Y-35046993D02*
X142117219Y-35285088D01*
X142117219Y-34285088D02*
X141117219Y-34285088D01*
X141117219Y-33618422D02*
X141117219Y-33427946D01*
X141117219Y-33427946D02*
X141164838Y-33332708D01*
X141164838Y-33332708D02*
X141260076Y-33237470D01*
X141260076Y-33237470D02*
X141450552Y-33189851D01*
X141450552Y-33189851D02*
X141783885Y-33189851D01*
X141783885Y-33189851D02*
X141974361Y-33237470D01*
X141974361Y-33237470D02*
X142069600Y-33332708D01*
X142069600Y-33332708D02*
X142117219Y-33427946D01*
X142117219Y-33427946D02*
X142117219Y-33618422D01*
X142117219Y-33618422D02*
X142069600Y-33713660D01*
X142069600Y-33713660D02*
X141974361Y-33808898D01*
X141974361Y-33808898D02*
X141783885Y-33856517D01*
X141783885Y-33856517D02*
X141450552Y-33856517D01*
X141450552Y-33856517D02*
X141260076Y-33808898D01*
X141260076Y-33808898D02*
X141164838Y-33713660D01*
X141164838Y-33713660D02*
X141117219Y-33618422D01*
D11*
X166396228Y-61023496D02*
X166348609Y-61065163D01*
X166348609Y-61065163D02*
X166300990Y-61154449D01*
X166300990Y-61154449D02*
X166300990Y-61249687D01*
X166300990Y-61249687D02*
X166348609Y-61350877D01*
X166348609Y-61350877D02*
X166396228Y-61404449D01*
X166396228Y-61404449D02*
X166491466Y-61463972D01*
X166491466Y-61463972D02*
X166586704Y-61475877D01*
X166586704Y-61475877D02*
X166681942Y-61440163D01*
X166681942Y-61440163D02*
X166729561Y-61398496D01*
X166729561Y-61398496D02*
X166777180Y-61309211D01*
X166777180Y-61309211D02*
X166777180Y-61213972D01*
X166777180Y-61213972D02*
X166729561Y-61112782D01*
X166729561Y-61112782D02*
X166681942Y-61059211D01*
X166300990Y-61011591D02*
X166681942Y-61059211D01*
X166681942Y-61059211D02*
X166729561Y-61017544D01*
X166729561Y-61017544D02*
X166729561Y-60969925D01*
X166729561Y-60969925D02*
X166681942Y-60868734D01*
X166681942Y-60868734D02*
X166586704Y-60809211D01*
X166586704Y-60809211D02*
X166348609Y-60779449D01*
X166348609Y-60779449D02*
X166205752Y-60856830D01*
X166205752Y-60856830D02*
X166110514Y-60987782D01*
X166110514Y-60987782D02*
X166062895Y-61172306D01*
X166062895Y-61172306D02*
X166110514Y-61368734D01*
X166110514Y-61368734D02*
X166205752Y-61523496D01*
X166205752Y-61523496D02*
X166348609Y-61636591D01*
X166348609Y-61636591D02*
X166539085Y-61708020D01*
X166539085Y-61708020D02*
X166729561Y-61684211D01*
X166729561Y-61684211D02*
X166872419Y-61606830D01*
X166872419Y-61606830D02*
X166967657Y-61475877D01*
X166967657Y-61475877D02*
X167015276Y-61291353D01*
X167015276Y-61291353D02*
X166967657Y-61094925D01*
X166967657Y-61094925D02*
X166872419Y-60940163D01*
X166348609Y-60017544D02*
X166348609Y-60350877D01*
X166872419Y-60416354D02*
X165872419Y-60291354D01*
X165872419Y-60291354D02*
X165872419Y-59815163D01*
X166872419Y-59130639D02*
X166348609Y-59065163D01*
X166348609Y-59065163D02*
X166253371Y-59100877D01*
X166253371Y-59100877D02*
X166205752Y-59190163D01*
X166205752Y-59190163D02*
X166205752Y-59380639D01*
X166205752Y-59380639D02*
X166253371Y-59481830D01*
X166824800Y-59124687D02*
X166872419Y-59225877D01*
X166872419Y-59225877D02*
X166872419Y-59463973D01*
X166872419Y-59463973D02*
X166824800Y-59553258D01*
X166824800Y-59553258D02*
X166729561Y-59588973D01*
X166729561Y-59588973D02*
X166634323Y-59577068D01*
X166634323Y-59577068D02*
X166539085Y-59517544D01*
X166539085Y-59517544D02*
X166491466Y-59416354D01*
X166491466Y-59416354D02*
X166491466Y-59178258D01*
X166491466Y-59178258D02*
X166443847Y-59077068D01*
X166872419Y-58511592D02*
X166824800Y-58600877D01*
X166824800Y-58600877D02*
X166729561Y-58636592D01*
X166729561Y-58636592D02*
X165872419Y-58529449D01*
X166872419Y-57987782D02*
X166824800Y-58077067D01*
X166824800Y-58077067D02*
X166729561Y-58112782D01*
X166729561Y-58112782D02*
X165872419Y-58005639D01*
X166348609Y-56779447D02*
X166348609Y-56446114D01*
X166872419Y-56368733D02*
X166872419Y-56844924D01*
X166872419Y-56844924D02*
X165872419Y-56719924D01*
X165872419Y-56719924D02*
X165872419Y-56243733D01*
X166872419Y-55940162D02*
X166205752Y-55856828D01*
X166300990Y-55868733D02*
X166253371Y-55815162D01*
X166253371Y-55815162D02*
X166205752Y-55713971D01*
X166205752Y-55713971D02*
X166205752Y-55571114D01*
X166205752Y-55571114D02*
X166253371Y-55481828D01*
X166253371Y-55481828D02*
X166348609Y-55446114D01*
X166348609Y-55446114D02*
X166872419Y-55511590D01*
X166348609Y-55446114D02*
X166253371Y-55386590D01*
X166253371Y-55386590D02*
X166205752Y-55285400D01*
X166205752Y-55285400D02*
X166205752Y-55142543D01*
X166205752Y-55142543D02*
X166253371Y-55053257D01*
X166253371Y-55053257D02*
X166348609Y-55017543D01*
X166348609Y-55017543D02*
X166872419Y-55083019D01*
X166872419Y-54606829D02*
X165872419Y-54481829D01*
X166253371Y-54529448D02*
X166205752Y-54428257D01*
X166205752Y-54428257D02*
X166205752Y-54237781D01*
X166205752Y-54237781D02*
X166253371Y-54148495D01*
X166253371Y-54148495D02*
X166300990Y-54106829D01*
X166300990Y-54106829D02*
X166396228Y-54071114D01*
X166396228Y-54071114D02*
X166681942Y-54106829D01*
X166681942Y-54106829D02*
X166777180Y-54166352D01*
X166777180Y-54166352D02*
X166824800Y-54219924D01*
X166824800Y-54219924D02*
X166872419Y-54321114D01*
X166872419Y-54321114D02*
X166872419Y-54511591D01*
X166872419Y-54511591D02*
X166824800Y-54600876D01*
X166824800Y-53315162D02*
X166872419Y-53416352D01*
X166872419Y-53416352D02*
X166872419Y-53606829D01*
X166872419Y-53606829D02*
X166824800Y-53696114D01*
X166824800Y-53696114D02*
X166729561Y-53731829D01*
X166729561Y-53731829D02*
X166348609Y-53684210D01*
X166348609Y-53684210D02*
X166253371Y-53624686D01*
X166253371Y-53624686D02*
X166205752Y-53523495D01*
X166205752Y-53523495D02*
X166205752Y-53333019D01*
X166205752Y-53333019D02*
X166253371Y-53243733D01*
X166253371Y-53243733D02*
X166348609Y-53208019D01*
X166348609Y-53208019D02*
X166443847Y-53219924D01*
X166443847Y-53219924D02*
X166539085Y-53708019D01*
X166872419Y-52416352D02*
X165872419Y-52291352D01*
X166824800Y-52410400D02*
X166872419Y-52511590D01*
X166872419Y-52511590D02*
X166872419Y-52702067D01*
X166872419Y-52702067D02*
X166824800Y-52791352D01*
X166824800Y-52791352D02*
X166777180Y-52833019D01*
X166777180Y-52833019D02*
X166681942Y-52868733D01*
X166681942Y-52868733D02*
X166396228Y-52833019D01*
X166396228Y-52833019D02*
X166300990Y-52773495D01*
X166300990Y-52773495D02*
X166253371Y-52719924D01*
X166253371Y-52719924D02*
X166205752Y-52618733D01*
X166205752Y-52618733D02*
X166205752Y-52428257D01*
X166205752Y-52428257D02*
X166253371Y-52338971D01*
X166872419Y-51511590D02*
X165872419Y-51386590D01*
X166824800Y-51505638D02*
X166872419Y-51606828D01*
X166872419Y-51606828D02*
X166872419Y-51797305D01*
X166872419Y-51797305D02*
X166824800Y-51886590D01*
X166824800Y-51886590D02*
X166777180Y-51928257D01*
X166777180Y-51928257D02*
X166681942Y-51963971D01*
X166681942Y-51963971D02*
X166396228Y-51928257D01*
X166396228Y-51928257D02*
X166300990Y-51868733D01*
X166300990Y-51868733D02*
X166253371Y-51815162D01*
X166253371Y-51815162D02*
X166205752Y-51713971D01*
X166205752Y-51713971D02*
X166205752Y-51523495D01*
X166205752Y-51523495D02*
X166253371Y-51434209D01*
X166824800Y-50648495D02*
X166872419Y-50749685D01*
X166872419Y-50749685D02*
X166872419Y-50940162D01*
X166872419Y-50940162D02*
X166824800Y-51029447D01*
X166824800Y-51029447D02*
X166729561Y-51065162D01*
X166729561Y-51065162D02*
X166348609Y-51017543D01*
X166348609Y-51017543D02*
X166253371Y-50958019D01*
X166253371Y-50958019D02*
X166205752Y-50856828D01*
X166205752Y-50856828D02*
X166205752Y-50666352D01*
X166205752Y-50666352D02*
X166253371Y-50577066D01*
X166253371Y-50577066D02*
X166348609Y-50541352D01*
X166348609Y-50541352D02*
X166443847Y-50553257D01*
X166443847Y-50553257D02*
X166539085Y-51041352D01*
X166872419Y-49749685D02*
X165872419Y-49624685D01*
X166824800Y-49743733D02*
X166872419Y-49844923D01*
X166872419Y-49844923D02*
X166872419Y-50035400D01*
X166872419Y-50035400D02*
X166824800Y-50124685D01*
X166824800Y-50124685D02*
X166777180Y-50166352D01*
X166777180Y-50166352D02*
X166681942Y-50202066D01*
X166681942Y-50202066D02*
X166396228Y-50166352D01*
X166396228Y-50166352D02*
X166300990Y-50106828D01*
X166300990Y-50106828D02*
X166253371Y-50053257D01*
X166253371Y-50053257D02*
X166205752Y-49952066D01*
X166205752Y-49952066D02*
X166205752Y-49761590D01*
X166205752Y-49761590D02*
X166253371Y-49672304D01*
X165872419Y-48529447D02*
X165872419Y-47958018D01*
X166872419Y-48368733D02*
X165872419Y-48243733D01*
X166824800Y-47362780D02*
X166872419Y-47463970D01*
X166872419Y-47463970D02*
X166872419Y-47654447D01*
X166872419Y-47654447D02*
X166824800Y-47743732D01*
X166824800Y-47743732D02*
X166729561Y-47779447D01*
X166729561Y-47779447D02*
X166348609Y-47731828D01*
X166348609Y-47731828D02*
X166253371Y-47672304D01*
X166253371Y-47672304D02*
X166205752Y-47571113D01*
X166205752Y-47571113D02*
X166205752Y-47380637D01*
X166205752Y-47380637D02*
X166253371Y-47291351D01*
X166253371Y-47291351D02*
X166348609Y-47255637D01*
X166348609Y-47255637D02*
X166443847Y-47267542D01*
X166443847Y-47267542D02*
X166539085Y-47755637D01*
X166872419Y-46463970D02*
X166348609Y-46398494D01*
X166348609Y-46398494D02*
X166253371Y-46434208D01*
X166253371Y-46434208D02*
X166205752Y-46523494D01*
X166205752Y-46523494D02*
X166205752Y-46713970D01*
X166205752Y-46713970D02*
X166253371Y-46815161D01*
X166824800Y-46458018D02*
X166872419Y-46559208D01*
X166872419Y-46559208D02*
X166872419Y-46797304D01*
X166872419Y-46797304D02*
X166824800Y-46886589D01*
X166824800Y-46886589D02*
X166729561Y-46922304D01*
X166729561Y-46922304D02*
X166634323Y-46910399D01*
X166634323Y-46910399D02*
X166539085Y-46850875D01*
X166539085Y-46850875D02*
X166491466Y-46749685D01*
X166491466Y-46749685D02*
X166491466Y-46511589D01*
X166491466Y-46511589D02*
X166443847Y-46410399D01*
X166872419Y-45987780D02*
X166205752Y-45904446D01*
X166300990Y-45916351D02*
X166253371Y-45862780D01*
X166253371Y-45862780D02*
X166205752Y-45761589D01*
X166205752Y-45761589D02*
X166205752Y-45618732D01*
X166205752Y-45618732D02*
X166253371Y-45529446D01*
X166253371Y-45529446D02*
X166348609Y-45493732D01*
X166348609Y-45493732D02*
X166872419Y-45559208D01*
X166348609Y-45493732D02*
X166253371Y-45434208D01*
X166253371Y-45434208D02*
X166205752Y-45333018D01*
X166205752Y-45333018D02*
X166205752Y-45190161D01*
X166205752Y-45190161D02*
X166253371Y-45100875D01*
X166253371Y-45100875D02*
X166348609Y-45065161D01*
X166348609Y-45065161D02*
X166872419Y-45130637D01*
D10*
X151367219Y-37523183D02*
X152367219Y-37189850D01*
X152367219Y-37189850D02*
X151367219Y-36856517D01*
X152367219Y-36523183D02*
X151367219Y-36523183D01*
X151367219Y-36523183D02*
X151367219Y-36285088D01*
X151367219Y-36285088D02*
X151414838Y-36142231D01*
X151414838Y-36142231D02*
X151510076Y-36046993D01*
X151510076Y-36046993D02*
X151605314Y-35999374D01*
X151605314Y-35999374D02*
X151795790Y-35951755D01*
X151795790Y-35951755D02*
X151938647Y-35951755D01*
X151938647Y-35951755D02*
X152129123Y-35999374D01*
X152129123Y-35999374D02*
X152224361Y-36046993D01*
X152224361Y-36046993D02*
X152319600Y-36142231D01*
X152319600Y-36142231D02*
X152367219Y-36285088D01*
X152367219Y-36285088D02*
X152367219Y-36523183D01*
X152367219Y-35523183D02*
X151367219Y-35523183D01*
X151367219Y-35523183D02*
X151367219Y-35285088D01*
X151367219Y-35285088D02*
X151414838Y-35142231D01*
X151414838Y-35142231D02*
X151510076Y-35046993D01*
X151510076Y-35046993D02*
X151605314Y-34999374D01*
X151605314Y-34999374D02*
X151795790Y-34951755D01*
X151795790Y-34951755D02*
X151938647Y-34951755D01*
X151938647Y-34951755D02*
X152129123Y-34999374D01*
X152129123Y-34999374D02*
X152224361Y-35046993D01*
X152224361Y-35046993D02*
X152319600Y-35142231D01*
X152319600Y-35142231D02*
X152367219Y-35285088D01*
X152367219Y-35285088D02*
X152367219Y-35523183D01*
D12*
X162871119Y-61679668D02*
X161871119Y-61679668D01*
X161871119Y-61679668D02*
X161871119Y-61298716D01*
X161871119Y-61298716D02*
X161918738Y-61203478D01*
X161918738Y-61203478D02*
X161966357Y-61155859D01*
X161966357Y-61155859D02*
X162061595Y-61108240D01*
X162061595Y-61108240D02*
X162204452Y-61108240D01*
X162204452Y-61108240D02*
X162299690Y-61155859D01*
X162299690Y-61155859D02*
X162347309Y-61203478D01*
X162347309Y-61203478D02*
X162394928Y-61298716D01*
X162394928Y-61298716D02*
X162394928Y-61679668D01*
X162823500Y-60727287D02*
X162871119Y-60584430D01*
X162871119Y-60584430D02*
X162871119Y-60346335D01*
X162871119Y-60346335D02*
X162823500Y-60251097D01*
X162823500Y-60251097D02*
X162775880Y-60203478D01*
X162775880Y-60203478D02*
X162680642Y-60155859D01*
X162680642Y-60155859D02*
X162585404Y-60155859D01*
X162585404Y-60155859D02*
X162490166Y-60203478D01*
X162490166Y-60203478D02*
X162442547Y-60251097D01*
X162442547Y-60251097D02*
X162394928Y-60346335D01*
X162394928Y-60346335D02*
X162347309Y-60536811D01*
X162347309Y-60536811D02*
X162299690Y-60632049D01*
X162299690Y-60632049D02*
X162252071Y-60679668D01*
X162252071Y-60679668D02*
X162156833Y-60727287D01*
X162156833Y-60727287D02*
X162061595Y-60727287D01*
X162061595Y-60727287D02*
X161966357Y-60679668D01*
X161966357Y-60679668D02*
X161918738Y-60632049D01*
X161918738Y-60632049D02*
X161871119Y-60536811D01*
X161871119Y-60536811D02*
X161871119Y-60298716D01*
X161871119Y-60298716D02*
X161918738Y-60155859D01*
X162871119Y-59584430D02*
X162823500Y-59679668D01*
X162823500Y-59679668D02*
X162775880Y-59727287D01*
X162775880Y-59727287D02*
X162680642Y-59774906D01*
X162680642Y-59774906D02*
X162394928Y-59774906D01*
X162394928Y-59774906D02*
X162299690Y-59727287D01*
X162299690Y-59727287D02*
X162252071Y-59679668D01*
X162252071Y-59679668D02*
X162204452Y-59584430D01*
X162204452Y-59584430D02*
X162204452Y-59441573D01*
X162204452Y-59441573D02*
X162252071Y-59346335D01*
X162252071Y-59346335D02*
X162299690Y-59298716D01*
X162299690Y-59298716D02*
X162394928Y-59251097D01*
X162394928Y-59251097D02*
X162680642Y-59251097D01*
X162680642Y-59251097D02*
X162775880Y-59298716D01*
X162775880Y-59298716D02*
X162823500Y-59346335D01*
X162823500Y-59346335D02*
X162871119Y-59441573D01*
X162871119Y-59441573D02*
X162871119Y-59584430D01*
X162775880Y-58251097D02*
X162823500Y-58298716D01*
X162823500Y-58298716D02*
X162871119Y-58441573D01*
X162871119Y-58441573D02*
X162871119Y-58536811D01*
X162871119Y-58536811D02*
X162823500Y-58679668D01*
X162823500Y-58679668D02*
X162728261Y-58774906D01*
X162728261Y-58774906D02*
X162633023Y-58822525D01*
X162633023Y-58822525D02*
X162442547Y-58870144D01*
X162442547Y-58870144D02*
X162299690Y-58870144D01*
X162299690Y-58870144D02*
X162109214Y-58822525D01*
X162109214Y-58822525D02*
X162013976Y-58774906D01*
X162013976Y-58774906D02*
X161918738Y-58679668D01*
X161918738Y-58679668D02*
X161871119Y-58536811D01*
X161871119Y-58536811D02*
X161871119Y-58441573D01*
X161871119Y-58441573D02*
X161918738Y-58298716D01*
X161918738Y-58298716D02*
X161966357Y-58251097D01*
X162871119Y-56489192D02*
X162394928Y-56822525D01*
X162871119Y-57060620D02*
X161871119Y-57060620D01*
X161871119Y-57060620D02*
X161871119Y-56679668D01*
X161871119Y-56679668D02*
X161918738Y-56584430D01*
X161918738Y-56584430D02*
X161966357Y-56536811D01*
X161966357Y-56536811D02*
X162061595Y-56489192D01*
X162061595Y-56489192D02*
X162204452Y-56489192D01*
X162204452Y-56489192D02*
X162299690Y-56536811D01*
X162299690Y-56536811D02*
X162347309Y-56584430D01*
X162347309Y-56584430D02*
X162394928Y-56679668D01*
X162394928Y-56679668D02*
X162394928Y-57060620D01*
X162871119Y-56060620D02*
X161871119Y-56060620D01*
X161871119Y-56060620D02*
X161871119Y-55679668D01*
X161871119Y-55679668D02*
X161918738Y-55584430D01*
X161918738Y-55584430D02*
X161966357Y-55536811D01*
X161966357Y-55536811D02*
X162061595Y-55489192D01*
X162061595Y-55489192D02*
X162204452Y-55489192D01*
X162204452Y-55489192D02*
X162299690Y-55536811D01*
X162299690Y-55536811D02*
X162347309Y-55584430D01*
X162347309Y-55584430D02*
X162394928Y-55679668D01*
X162394928Y-55679668D02*
X162394928Y-56060620D01*
X162871119Y-55060620D02*
X161871119Y-55060620D01*
X162347309Y-53489192D02*
X162394928Y-53346335D01*
X162394928Y-53346335D02*
X162442547Y-53298716D01*
X162442547Y-53298716D02*
X162537785Y-53251097D01*
X162537785Y-53251097D02*
X162680642Y-53251097D01*
X162680642Y-53251097D02*
X162775880Y-53298716D01*
X162775880Y-53298716D02*
X162823500Y-53346335D01*
X162823500Y-53346335D02*
X162871119Y-53441573D01*
X162871119Y-53441573D02*
X162871119Y-53822525D01*
X162871119Y-53822525D02*
X161871119Y-53822525D01*
X161871119Y-53822525D02*
X161871119Y-53489192D01*
X161871119Y-53489192D02*
X161918738Y-53393954D01*
X161918738Y-53393954D02*
X161966357Y-53346335D01*
X161966357Y-53346335D02*
X162061595Y-53298716D01*
X162061595Y-53298716D02*
X162156833Y-53298716D01*
X162156833Y-53298716D02*
X162252071Y-53346335D01*
X162252071Y-53346335D02*
X162299690Y-53393954D01*
X162299690Y-53393954D02*
X162347309Y-53489192D01*
X162347309Y-53489192D02*
X162347309Y-53822525D01*
X162871119Y-52679668D02*
X162823500Y-52774906D01*
X162823500Y-52774906D02*
X162775880Y-52822525D01*
X162775880Y-52822525D02*
X162680642Y-52870144D01*
X162680642Y-52870144D02*
X162394928Y-52870144D01*
X162394928Y-52870144D02*
X162299690Y-52822525D01*
X162299690Y-52822525D02*
X162252071Y-52774906D01*
X162252071Y-52774906D02*
X162204452Y-52679668D01*
X162204452Y-52679668D02*
X162204452Y-52536811D01*
X162204452Y-52536811D02*
X162252071Y-52441573D01*
X162252071Y-52441573D02*
X162299690Y-52393954D01*
X162299690Y-52393954D02*
X162394928Y-52346335D01*
X162394928Y-52346335D02*
X162680642Y-52346335D01*
X162680642Y-52346335D02*
X162775880Y-52393954D01*
X162775880Y-52393954D02*
X162823500Y-52441573D01*
X162823500Y-52441573D02*
X162871119Y-52536811D01*
X162871119Y-52536811D02*
X162871119Y-52679668D01*
X162204452Y-52060620D02*
X162204452Y-51679668D01*
X161871119Y-51917763D02*
X162728261Y-51917763D01*
X162728261Y-51917763D02*
X162823500Y-51870144D01*
X162823500Y-51870144D02*
X162871119Y-51774906D01*
X162871119Y-51774906D02*
X162871119Y-51679668D01*
X162204452Y-51489191D02*
X162204452Y-51108239D01*
X161871119Y-51346334D02*
X162728261Y-51346334D01*
X162728261Y-51346334D02*
X162823500Y-51298715D01*
X162823500Y-51298715D02*
X162871119Y-51203477D01*
X162871119Y-51203477D02*
X162871119Y-51108239D01*
X162871119Y-50632048D02*
X162823500Y-50727286D01*
X162823500Y-50727286D02*
X162775880Y-50774905D01*
X162775880Y-50774905D02*
X162680642Y-50822524D01*
X162680642Y-50822524D02*
X162394928Y-50822524D01*
X162394928Y-50822524D02*
X162299690Y-50774905D01*
X162299690Y-50774905D02*
X162252071Y-50727286D01*
X162252071Y-50727286D02*
X162204452Y-50632048D01*
X162204452Y-50632048D02*
X162204452Y-50489191D01*
X162204452Y-50489191D02*
X162252071Y-50393953D01*
X162252071Y-50393953D02*
X162299690Y-50346334D01*
X162299690Y-50346334D02*
X162394928Y-50298715D01*
X162394928Y-50298715D02*
X162680642Y-50298715D01*
X162680642Y-50298715D02*
X162775880Y-50346334D01*
X162775880Y-50346334D02*
X162823500Y-50393953D01*
X162823500Y-50393953D02*
X162871119Y-50489191D01*
X162871119Y-50489191D02*
X162871119Y-50632048D01*
X162871119Y-49870143D02*
X162204452Y-49870143D01*
X162299690Y-49870143D02*
X162252071Y-49822524D01*
X162252071Y-49822524D02*
X162204452Y-49727286D01*
X162204452Y-49727286D02*
X162204452Y-49584429D01*
X162204452Y-49584429D02*
X162252071Y-49489191D01*
X162252071Y-49489191D02*
X162347309Y-49441572D01*
X162347309Y-49441572D02*
X162871119Y-49441572D01*
X162347309Y-49441572D02*
X162252071Y-49393953D01*
X162252071Y-49393953D02*
X162204452Y-49298715D01*
X162204452Y-49298715D02*
X162204452Y-49155858D01*
X162204452Y-49155858D02*
X162252071Y-49060619D01*
X162252071Y-49060619D02*
X162347309Y-49013000D01*
X162347309Y-49013000D02*
X162871119Y-49013000D01*
X162871119Y-47774905D02*
X161871119Y-47774905D01*
X162347309Y-47774905D02*
X162347309Y-47203477D01*
X162871119Y-47203477D02*
X161871119Y-47203477D01*
X162585404Y-46774905D02*
X162585404Y-46298715D01*
X162871119Y-46870143D02*
X161871119Y-46536810D01*
X161871119Y-46536810D02*
X162871119Y-46203477D01*
X161871119Y-46013000D02*
X161871119Y-45441572D01*
X162871119Y-45727286D02*
X161871119Y-45727286D01*
X162490166Y-44346333D02*
X162490166Y-43584429D01*
X162490166Y-43108238D02*
X162490166Y-42346334D01*
X161871119Y-41251095D02*
X162871119Y-40917762D01*
X162871119Y-40917762D02*
X161871119Y-40584429D01*
X162871119Y-39727286D02*
X162871119Y-40298714D01*
X162871119Y-40013000D02*
X161871119Y-40013000D01*
X161871119Y-40013000D02*
X162013976Y-40108238D01*
X162013976Y-40108238D02*
X162109214Y-40203476D01*
X162109214Y-40203476D02*
X162156833Y-40298714D01*
D10*
X139617219Y-36951755D02*
X138617219Y-36951755D01*
X139569600Y-36951755D02*
X139617219Y-37046993D01*
X139617219Y-37046993D02*
X139617219Y-37237469D01*
X139617219Y-37237469D02*
X139569600Y-37332707D01*
X139569600Y-37332707D02*
X139521980Y-37380326D01*
X139521980Y-37380326D02*
X139426742Y-37427945D01*
X139426742Y-37427945D02*
X139141028Y-37427945D01*
X139141028Y-37427945D02*
X139045790Y-37380326D01*
X139045790Y-37380326D02*
X138998171Y-37332707D01*
X138998171Y-37332707D02*
X138950552Y-37237469D01*
X138950552Y-37237469D02*
X138950552Y-37046993D01*
X138950552Y-37046993D02*
X138998171Y-36951755D01*
X139617219Y-36475564D02*
X138617219Y-36475564D01*
X138998171Y-36475564D02*
X138950552Y-36380326D01*
X138950552Y-36380326D02*
X138950552Y-36189850D01*
X138950552Y-36189850D02*
X138998171Y-36094612D01*
X138998171Y-36094612D02*
X139045790Y-36046993D01*
X139045790Y-36046993D02*
X139141028Y-35999374D01*
X139141028Y-35999374D02*
X139426742Y-35999374D01*
X139426742Y-35999374D02*
X139521980Y-36046993D01*
X139521980Y-36046993D02*
X139569600Y-36094612D01*
X139569600Y-36094612D02*
X139617219Y-36189850D01*
X139617219Y-36189850D02*
X139617219Y-36380326D01*
X139617219Y-36380326D02*
X139569600Y-36475564D01*
X138950552Y-35142231D02*
X139760076Y-35142231D01*
X139760076Y-35142231D02*
X139855314Y-35189850D01*
X139855314Y-35189850D02*
X139902933Y-35237469D01*
X139902933Y-35237469D02*
X139950552Y-35332707D01*
X139950552Y-35332707D02*
X139950552Y-35475564D01*
X139950552Y-35475564D02*
X139902933Y-35570802D01*
X139569600Y-35142231D02*
X139617219Y-35237469D01*
X139617219Y-35237469D02*
X139617219Y-35427945D01*
X139617219Y-35427945D02*
X139569600Y-35523183D01*
X139569600Y-35523183D02*
X139521980Y-35570802D01*
X139521980Y-35570802D02*
X139426742Y-35618421D01*
X139426742Y-35618421D02*
X139141028Y-35618421D01*
X139141028Y-35618421D02*
X139045790Y-35570802D01*
X139045790Y-35570802D02*
X138998171Y-35523183D01*
X138998171Y-35523183D02*
X138950552Y-35427945D01*
X138950552Y-35427945D02*
X138950552Y-35237469D01*
X138950552Y-35237469D02*
X138998171Y-35142231D01*
X138617219Y-34808897D02*
X138617219Y-34237469D01*
X139617219Y-34523183D02*
X138617219Y-34523183D01*
X138617219Y-33999373D02*
X139617219Y-33332707D01*
X138617219Y-33332707D02*
X139617219Y-33999373D01*
X144603600Y-37466041D02*
X144641695Y-37351755D01*
X144641695Y-37351755D02*
X144641695Y-37161279D01*
X144641695Y-37161279D02*
X144603600Y-37085088D01*
X144603600Y-37085088D02*
X144565504Y-37046993D01*
X144565504Y-37046993D02*
X144489314Y-37008898D01*
X144489314Y-37008898D02*
X144413123Y-37008898D01*
X144413123Y-37008898D02*
X144336933Y-37046993D01*
X144336933Y-37046993D02*
X144298838Y-37085088D01*
X144298838Y-37085088D02*
X144260742Y-37161279D01*
X144260742Y-37161279D02*
X144222647Y-37313660D01*
X144222647Y-37313660D02*
X144184552Y-37389850D01*
X144184552Y-37389850D02*
X144146457Y-37427945D01*
X144146457Y-37427945D02*
X144070266Y-37466041D01*
X144070266Y-37466041D02*
X143994076Y-37466041D01*
X143994076Y-37466041D02*
X143917885Y-37427945D01*
X143917885Y-37427945D02*
X143879790Y-37389850D01*
X143879790Y-37389850D02*
X143841695Y-37313660D01*
X143841695Y-37313660D02*
X143841695Y-37123183D01*
X143841695Y-37123183D02*
X143879790Y-37008898D01*
X143841695Y-36742231D02*
X144641695Y-36551755D01*
X144641695Y-36551755D02*
X144070266Y-36399374D01*
X144070266Y-36399374D02*
X144641695Y-36246993D01*
X144641695Y-36246993D02*
X143841695Y-36056517D01*
X144641695Y-35751754D02*
X143841695Y-35751754D01*
X143841695Y-35751754D02*
X143841695Y-35561278D01*
X143841695Y-35561278D02*
X143879790Y-35446992D01*
X143879790Y-35446992D02*
X143955980Y-35370802D01*
X143955980Y-35370802D02*
X144032171Y-35332707D01*
X144032171Y-35332707D02*
X144184552Y-35294611D01*
X144184552Y-35294611D02*
X144298838Y-35294611D01*
X144298838Y-35294611D02*
X144451219Y-35332707D01*
X144451219Y-35332707D02*
X144527409Y-35370802D01*
X144527409Y-35370802D02*
X144603600Y-35446992D01*
X144603600Y-35446992D02*
X144641695Y-35561278D01*
X144641695Y-35561278D02*
X144641695Y-35751754D01*
X144565504Y-34494611D02*
X144603600Y-34532707D01*
X144603600Y-34532707D02*
X144641695Y-34646992D01*
X144641695Y-34646992D02*
X144641695Y-34723183D01*
X144641695Y-34723183D02*
X144603600Y-34837469D01*
X144603600Y-34837469D02*
X144527409Y-34913659D01*
X144527409Y-34913659D02*
X144451219Y-34951754D01*
X144451219Y-34951754D02*
X144298838Y-34989850D01*
X144298838Y-34989850D02*
X144184552Y-34989850D01*
X144184552Y-34989850D02*
X144032171Y-34951754D01*
X144032171Y-34951754D02*
X143955980Y-34913659D01*
X143955980Y-34913659D02*
X143879790Y-34837469D01*
X143879790Y-34837469D02*
X143841695Y-34723183D01*
X143841695Y-34723183D02*
X143841695Y-34646992D01*
X143841695Y-34646992D02*
X143879790Y-34532707D01*
X143879790Y-34532707D02*
X143917885Y-34494611D01*
X144641695Y-33770802D02*
X144641695Y-34151754D01*
X144641695Y-34151754D02*
X143841695Y-34151754D01*
X144641695Y-33504135D02*
X143841695Y-33504135D01*
X144641695Y-33046992D02*
X144184552Y-33389850D01*
X143841695Y-33046992D02*
X144298838Y-33504135D01*
D13*
X105357142Y-73024819D02*
X105023809Y-72548628D01*
X104785714Y-73024819D02*
X104785714Y-72024819D01*
X104785714Y-72024819D02*
X105166666Y-72024819D01*
X105166666Y-72024819D02*
X105261904Y-72072438D01*
X105261904Y-72072438D02*
X105309523Y-72120057D01*
X105309523Y-72120057D02*
X105357142Y-72215295D01*
X105357142Y-72215295D02*
X105357142Y-72358152D01*
X105357142Y-72358152D02*
X105309523Y-72453390D01*
X105309523Y-72453390D02*
X105261904Y-72501009D01*
X105261904Y-72501009D02*
X105166666Y-72548628D01*
X105166666Y-72548628D02*
X104785714Y-72548628D01*
X106309523Y-73024819D02*
X105738095Y-73024819D01*
X106023809Y-73024819D02*
X106023809Y-72024819D01*
X106023809Y-72024819D02*
X105928571Y-72167676D01*
X105928571Y-72167676D02*
X105833333Y-72262914D01*
X105833333Y-72262914D02*
X105738095Y-72310533D01*
X106690476Y-72120057D02*
X106738095Y-72072438D01*
X106738095Y-72072438D02*
X106833333Y-72024819D01*
X106833333Y-72024819D02*
X107071428Y-72024819D01*
X107071428Y-72024819D02*
X107166666Y-72072438D01*
X107166666Y-72072438D02*
X107214285Y-72120057D01*
X107214285Y-72120057D02*
X107261904Y-72215295D01*
X107261904Y-72215295D02*
X107261904Y-72310533D01*
X107261904Y-72310533D02*
X107214285Y-72453390D01*
X107214285Y-72453390D02*
X106642857Y-73024819D01*
X106642857Y-73024819D02*
X107261904Y-73024819D01*
X105261905Y-69724819D02*
X105261905Y-68724819D01*
X105261905Y-68724819D02*
X105500000Y-68724819D01*
X105500000Y-68724819D02*
X105642857Y-68772438D01*
X105642857Y-68772438D02*
X105738095Y-68867676D01*
X105738095Y-68867676D02*
X105785714Y-68962914D01*
X105785714Y-68962914D02*
X105833333Y-69153390D01*
X105833333Y-69153390D02*
X105833333Y-69296247D01*
X105833333Y-69296247D02*
X105785714Y-69486723D01*
X105785714Y-69486723D02*
X105738095Y-69581961D01*
X105738095Y-69581961D02*
X105642857Y-69677200D01*
X105642857Y-69677200D02*
X105500000Y-69724819D01*
X105500000Y-69724819D02*
X105261905Y-69724819D01*
X106214286Y-68820057D02*
X106261905Y-68772438D01*
X106261905Y-68772438D02*
X106357143Y-68724819D01*
X106357143Y-68724819D02*
X106595238Y-68724819D01*
X106595238Y-68724819D02*
X106690476Y-68772438D01*
X106690476Y-68772438D02*
X106738095Y-68820057D01*
X106738095Y-68820057D02*
X106785714Y-68915295D01*
X106785714Y-68915295D02*
X106785714Y-69010533D01*
X106785714Y-69010533D02*
X106738095Y-69153390D01*
X106738095Y-69153390D02*
X106166667Y-69724819D01*
X106166667Y-69724819D02*
X106785714Y-69724819D01*
X133874819Y-39583333D02*
X134589104Y-39583333D01*
X134589104Y-39583333D02*
X134731961Y-39630952D01*
X134731961Y-39630952D02*
X134827200Y-39726190D01*
X134827200Y-39726190D02*
X134874819Y-39869047D01*
X134874819Y-39869047D02*
X134874819Y-39964285D01*
X134208152Y-38678571D02*
X134874819Y-38678571D01*
X133827200Y-38916666D02*
X134541485Y-39154761D01*
X134541485Y-39154761D02*
X134541485Y-38535714D01*
X114916666Y-80954819D02*
X114916666Y-81669104D01*
X114916666Y-81669104D02*
X114869047Y-81811961D01*
X114869047Y-81811961D02*
X114773809Y-81907200D01*
X114773809Y-81907200D02*
X114630952Y-81954819D01*
X114630952Y-81954819D02*
X114535714Y-81954819D01*
X115297619Y-80954819D02*
X115964285Y-80954819D01*
X115964285Y-80954819D02*
X115535714Y-81954819D01*
X119367009Y-54524053D02*
X119367009Y-55334731D01*
X119367009Y-55334731D02*
X119414696Y-55430105D01*
X119414696Y-55430105D02*
X119462383Y-55477792D01*
X119462383Y-55477792D02*
X119557757Y-55525478D01*
X119557757Y-55525478D02*
X119748504Y-55525478D01*
X119748504Y-55525478D02*
X119843878Y-55477792D01*
X119843878Y-55477792D02*
X119891565Y-55430105D01*
X119891565Y-55430105D02*
X119939252Y-55334731D01*
X119939252Y-55334731D02*
X119939252Y-54524053D01*
X120940677Y-55525478D02*
X120368434Y-55525478D01*
X120654556Y-55525478D02*
X120654556Y-54524053D01*
X120654556Y-54524053D02*
X120559182Y-54667114D01*
X120559182Y-54667114D02*
X120463808Y-54762488D01*
X120463808Y-54762488D02*
X120368434Y-54810175D01*
X109246981Y-49988866D02*
X109294675Y-49845782D01*
X109294675Y-49845782D02*
X109294675Y-49607308D01*
X109294675Y-49607308D02*
X109246981Y-49511918D01*
X109246981Y-49511918D02*
X109199286Y-49464223D01*
X109199286Y-49464223D02*
X109103896Y-49416529D01*
X109103896Y-49416529D02*
X109008506Y-49416529D01*
X109008506Y-49416529D02*
X108913117Y-49464223D01*
X108913117Y-49464223D02*
X108865422Y-49511918D01*
X108865422Y-49511918D02*
X108817727Y-49607308D01*
X108817727Y-49607308D02*
X108770032Y-49798087D01*
X108770032Y-49798087D02*
X108722338Y-49893477D01*
X108722338Y-49893477D02*
X108674643Y-49941171D01*
X108674643Y-49941171D02*
X108579253Y-49988866D01*
X108579253Y-49988866D02*
X108483864Y-49988866D01*
X108483864Y-49988866D02*
X108388474Y-49941171D01*
X108388474Y-49941171D02*
X108340779Y-49893477D01*
X108340779Y-49893477D02*
X108293084Y-49798087D01*
X108293084Y-49798087D02*
X108293084Y-49559613D01*
X108293084Y-49559613D02*
X108340779Y-49416529D01*
X109294675Y-48462633D02*
X109294675Y-49034970D01*
X109294675Y-48748801D02*
X108293084Y-48748801D01*
X108293084Y-48748801D02*
X108436169Y-48844191D01*
X108436169Y-48844191D02*
X108531558Y-48939581D01*
X108531558Y-48939581D02*
X108579253Y-49034970D01*
X119704819Y-77241666D02*
X119228628Y-77574999D01*
X119704819Y-77813094D02*
X118704819Y-77813094D01*
X118704819Y-77813094D02*
X118704819Y-77432142D01*
X118704819Y-77432142D02*
X118752438Y-77336904D01*
X118752438Y-77336904D02*
X118800057Y-77289285D01*
X118800057Y-77289285D02*
X118895295Y-77241666D01*
X118895295Y-77241666D02*
X119038152Y-77241666D01*
X119038152Y-77241666D02*
X119133390Y-77289285D01*
X119133390Y-77289285D02*
X119181009Y-77336904D01*
X119181009Y-77336904D02*
X119228628Y-77432142D01*
X119228628Y-77432142D02*
X119228628Y-77813094D01*
X118704819Y-76908332D02*
X118704819Y-76241666D01*
X118704819Y-76241666D02*
X119704819Y-76670237D01*
X125954819Y-77241666D02*
X125478628Y-77574999D01*
X125954819Y-77813094D02*
X124954819Y-77813094D01*
X124954819Y-77813094D02*
X124954819Y-77432142D01*
X124954819Y-77432142D02*
X125002438Y-77336904D01*
X125002438Y-77336904D02*
X125050057Y-77289285D01*
X125050057Y-77289285D02*
X125145295Y-77241666D01*
X125145295Y-77241666D02*
X125288152Y-77241666D01*
X125288152Y-77241666D02*
X125383390Y-77289285D01*
X125383390Y-77289285D02*
X125431009Y-77336904D01*
X125431009Y-77336904D02*
X125478628Y-77432142D01*
X125478628Y-77432142D02*
X125478628Y-77813094D01*
X125954819Y-76765475D02*
X125954819Y-76574999D01*
X125954819Y-76574999D02*
X125907200Y-76479761D01*
X125907200Y-76479761D02*
X125859580Y-76432142D01*
X125859580Y-76432142D02*
X125716723Y-76336904D01*
X125716723Y-76336904D02*
X125526247Y-76289285D01*
X125526247Y-76289285D02*
X125145295Y-76289285D01*
X125145295Y-76289285D02*
X125050057Y-76336904D01*
X125050057Y-76336904D02*
X125002438Y-76384523D01*
X125002438Y-76384523D02*
X124954819Y-76479761D01*
X124954819Y-76479761D02*
X124954819Y-76670237D01*
X124954819Y-76670237D02*
X125002438Y-76765475D01*
X125002438Y-76765475D02*
X125050057Y-76813094D01*
X125050057Y-76813094D02*
X125145295Y-76860713D01*
X125145295Y-76860713D02*
X125383390Y-76860713D01*
X125383390Y-76860713D02*
X125478628Y-76813094D01*
X125478628Y-76813094D02*
X125526247Y-76765475D01*
X125526247Y-76765475D02*
X125573866Y-76670237D01*
X125573866Y-76670237D02*
X125573866Y-76479761D01*
X125573866Y-76479761D02*
X125526247Y-76384523D01*
X125526247Y-76384523D02*
X125478628Y-76336904D01*
X125478628Y-76336904D02*
X125383390Y-76289285D01*
X105261905Y-65524819D02*
X105261905Y-64524819D01*
X105261905Y-64524819D02*
X105500000Y-64524819D01*
X105500000Y-64524819D02*
X105642857Y-64572438D01*
X105642857Y-64572438D02*
X105738095Y-64667676D01*
X105738095Y-64667676D02*
X105785714Y-64762914D01*
X105785714Y-64762914D02*
X105833333Y-64953390D01*
X105833333Y-64953390D02*
X105833333Y-65096247D01*
X105833333Y-65096247D02*
X105785714Y-65286723D01*
X105785714Y-65286723D02*
X105738095Y-65381961D01*
X105738095Y-65381961D02*
X105642857Y-65477200D01*
X105642857Y-65477200D02*
X105500000Y-65524819D01*
X105500000Y-65524819D02*
X105261905Y-65524819D01*
X106785714Y-65524819D02*
X106214286Y-65524819D01*
X106500000Y-65524819D02*
X106500000Y-64524819D01*
X106500000Y-64524819D02*
X106404762Y-64667676D01*
X106404762Y-64667676D02*
X106309524Y-64762914D01*
X106309524Y-64762914D02*
X106214286Y-64810533D01*
X119704819Y-73416666D02*
X119228628Y-73749999D01*
X119704819Y-73988094D02*
X118704819Y-73988094D01*
X118704819Y-73988094D02*
X118704819Y-73607142D01*
X118704819Y-73607142D02*
X118752438Y-73511904D01*
X118752438Y-73511904D02*
X118800057Y-73464285D01*
X118800057Y-73464285D02*
X118895295Y-73416666D01*
X118895295Y-73416666D02*
X119038152Y-73416666D01*
X119038152Y-73416666D02*
X119133390Y-73464285D01*
X119133390Y-73464285D02*
X119181009Y-73511904D01*
X119181009Y-73511904D02*
X119228628Y-73607142D01*
X119228628Y-73607142D02*
X119228628Y-73988094D01*
X118704819Y-73083332D02*
X118704819Y-72464285D01*
X118704819Y-72464285D02*
X119085771Y-72797618D01*
X119085771Y-72797618D02*
X119085771Y-72654761D01*
X119085771Y-72654761D02*
X119133390Y-72559523D01*
X119133390Y-72559523D02*
X119181009Y-72511904D01*
X119181009Y-72511904D02*
X119276247Y-72464285D01*
X119276247Y-72464285D02*
X119514342Y-72464285D01*
X119514342Y-72464285D02*
X119609580Y-72511904D01*
X119609580Y-72511904D02*
X119657200Y-72559523D01*
X119657200Y-72559523D02*
X119704819Y-72654761D01*
X119704819Y-72654761D02*
X119704819Y-72940475D01*
X119704819Y-72940475D02*
X119657200Y-73035713D01*
X119657200Y-73035713D02*
X119609580Y-73083332D01*
X134666666Y-80704819D02*
X134666666Y-81419104D01*
X134666666Y-81419104D02*
X134619047Y-81561961D01*
X134619047Y-81561961D02*
X134523809Y-81657200D01*
X134523809Y-81657200D02*
X134380952Y-81704819D01*
X134380952Y-81704819D02*
X134285714Y-81704819D01*
X135619047Y-80704819D02*
X135142857Y-80704819D01*
X135142857Y-80704819D02*
X135095238Y-81181009D01*
X135095238Y-81181009D02*
X135142857Y-81133390D01*
X135142857Y-81133390D02*
X135238095Y-81085771D01*
X135238095Y-81085771D02*
X135476190Y-81085771D01*
X135476190Y-81085771D02*
X135571428Y-81133390D01*
X135571428Y-81133390D02*
X135619047Y-81181009D01*
X135619047Y-81181009D02*
X135666666Y-81276247D01*
X135666666Y-81276247D02*
X135666666Y-81514342D01*
X135666666Y-81514342D02*
X135619047Y-81609580D01*
X135619047Y-81609580D02*
X135571428Y-81657200D01*
X135571428Y-81657200D02*
X135476190Y-81704819D01*
X135476190Y-81704819D02*
X135238095Y-81704819D01*
X135238095Y-81704819D02*
X135142857Y-81657200D01*
X135142857Y-81657200D02*
X135095238Y-81609580D01*
X115916666Y-32704819D02*
X115916666Y-33419104D01*
X115916666Y-33419104D02*
X115869047Y-33561961D01*
X115869047Y-33561961D02*
X115773809Y-33657200D01*
X115773809Y-33657200D02*
X115630952Y-33704819D01*
X115630952Y-33704819D02*
X115535714Y-33704819D01*
X116821428Y-32704819D02*
X116630952Y-32704819D01*
X116630952Y-32704819D02*
X116535714Y-32752438D01*
X116535714Y-32752438D02*
X116488095Y-32800057D01*
X116488095Y-32800057D02*
X116392857Y-32942914D01*
X116392857Y-32942914D02*
X116345238Y-33133390D01*
X116345238Y-33133390D02*
X116345238Y-33514342D01*
X116345238Y-33514342D02*
X116392857Y-33609580D01*
X116392857Y-33609580D02*
X116440476Y-33657200D01*
X116440476Y-33657200D02*
X116535714Y-33704819D01*
X116535714Y-33704819D02*
X116726190Y-33704819D01*
X116726190Y-33704819D02*
X116821428Y-33657200D01*
X116821428Y-33657200D02*
X116869047Y-33609580D01*
X116869047Y-33609580D02*
X116916666Y-33514342D01*
X116916666Y-33514342D02*
X116916666Y-33276247D01*
X116916666Y-33276247D02*
X116869047Y-33181009D01*
X116869047Y-33181009D02*
X116821428Y-33133390D01*
X116821428Y-33133390D02*
X116726190Y-33085771D01*
X116726190Y-33085771D02*
X116535714Y-33085771D01*
X116535714Y-33085771D02*
X116440476Y-33133390D01*
X116440476Y-33133390D02*
X116392857Y-33181009D01*
X116392857Y-33181009D02*
X116345238Y-33276247D01*
X125954819Y-73416666D02*
X125478628Y-73749999D01*
X125954819Y-73988094D02*
X124954819Y-73988094D01*
X124954819Y-73988094D02*
X124954819Y-73607142D01*
X124954819Y-73607142D02*
X125002438Y-73511904D01*
X125002438Y-73511904D02*
X125050057Y-73464285D01*
X125050057Y-73464285D02*
X125145295Y-73416666D01*
X125145295Y-73416666D02*
X125288152Y-73416666D01*
X125288152Y-73416666D02*
X125383390Y-73464285D01*
X125383390Y-73464285D02*
X125431009Y-73511904D01*
X125431009Y-73511904D02*
X125478628Y-73607142D01*
X125478628Y-73607142D02*
X125478628Y-73988094D01*
X124954819Y-72511904D02*
X124954819Y-72988094D01*
X124954819Y-72988094D02*
X125431009Y-73035713D01*
X125431009Y-73035713D02*
X125383390Y-72988094D01*
X125383390Y-72988094D02*
X125335771Y-72892856D01*
X125335771Y-72892856D02*
X125335771Y-72654761D01*
X125335771Y-72654761D02*
X125383390Y-72559523D01*
X125383390Y-72559523D02*
X125431009Y-72511904D01*
X125431009Y-72511904D02*
X125526247Y-72464285D01*
X125526247Y-72464285D02*
X125764342Y-72464285D01*
X125764342Y-72464285D02*
X125859580Y-72511904D01*
X125859580Y-72511904D02*
X125907200Y-72559523D01*
X125907200Y-72559523D02*
X125954819Y-72654761D01*
X125954819Y-72654761D02*
X125954819Y-72892856D01*
X125954819Y-72892856D02*
X125907200Y-72988094D01*
X125907200Y-72988094D02*
X125859580Y-73035713D01*
D14*
%TO.C,R12*%
X105762742Y-73477500D02*
X106237258Y-73477500D01*
X105762742Y-74522500D02*
X106237258Y-74522500D01*
%TO.C,D2*%
X106800000Y-69965000D02*
X104340000Y-69965000D01*
X104340000Y-71435000D02*
X106800000Y-71435000D01*
X104340000Y-69965000D02*
X104340000Y-71435000D01*
%TO.C,J4*%
X135420000Y-40580000D02*
X135420000Y-39250000D01*
X136750000Y-40580000D02*
X135420000Y-40580000D01*
X138020000Y-37920000D02*
X153320000Y-37920000D01*
X138020000Y-40580000D02*
X138020000Y-37920000D01*
X138020000Y-40580000D02*
X153320000Y-40580000D01*
X153320000Y-40580000D02*
X153320000Y-37920000D01*
%TO.C,J7*%
X116690000Y-80590000D02*
X116690000Y-88410000D01*
X116690000Y-82190000D02*
X117610000Y-82190000D01*
X116690000Y-88410000D02*
X130810000Y-88410000D01*
X117450000Y-84550000D02*
X117450000Y-86150000D01*
X117450000Y-86150000D02*
X118450000Y-86150000D01*
X117610000Y-80590000D02*
X116690000Y-80590000D01*
X117610000Y-82190000D02*
X117610000Y-80590000D01*
X117890000Y-82190000D02*
X117610000Y-82190000D01*
X117890000Y-82190000D02*
X117890000Y-80975000D01*
X117950000Y-86150000D02*
X117950000Y-88410000D01*
X118450000Y-84550000D02*
X117450000Y-84550000D01*
X118450000Y-86150000D02*
X118450000Y-84550000D01*
X118450000Y-86150000D02*
X118450000Y-88410000D01*
X119250000Y-84050000D02*
X128250000Y-84050000D01*
X119250000Y-88410000D02*
X119250000Y-84050000D01*
X128250000Y-84050000D02*
X128250000Y-88410000D01*
X129050000Y-84550000D02*
X130050000Y-84550000D01*
X129050000Y-86150000D02*
X129050000Y-84550000D01*
X129890000Y-80590000D02*
X129890000Y-82190000D01*
X129890000Y-82190000D02*
X129610000Y-82190000D01*
X130050000Y-84550000D02*
X130050000Y-86150000D01*
X130050000Y-86150000D02*
X129050000Y-86150000D01*
X130810000Y-80590000D02*
X129890000Y-80590000D01*
X130810000Y-82190000D02*
X129890000Y-82190000D01*
X130810000Y-88410000D02*
X130810000Y-80590000D01*
D15*
%TO.C,U1*%
X113130000Y-45820000D02*
X113130000Y-49870000D01*
X127130000Y-45820000D02*
X113130000Y-45820000D01*
X127130000Y-49870000D02*
X127130000Y-45820000D01*
D10*
X128446000Y-50660000D02*
G75*
G02*
X128246000Y-50660000I-100000J0D01*
G01*
X128246000Y-50660000D02*
G75*
G02*
X128446000Y-50660000I100000J0D01*
G01*
D15*
%TO.C,S1*%
X104650000Y-47500000D02*
X104650000Y-50000000D01*
X106750000Y-46650000D02*
X105750000Y-46650000D01*
X106750000Y-50850000D02*
X105750000Y-50850000D01*
X107850000Y-47500000D02*
X107850000Y-50000000D01*
X107511803Y-45850000D02*
G75*
G02*
X107288197Y-45850000I-111803J0D01*
G01*
X107288197Y-45850000D02*
G75*
G02*
X107511803Y-45850000I111803J0D01*
G01*
X107450000Y-45900000D02*
G75*
G02*
X107350000Y-45900000I-50000J0D01*
G01*
X107350000Y-45900000D02*
G75*
G02*
X107450000Y-45900000I50000J0D01*
G01*
D14*
%TO.C,R7*%
X120227500Y-76837742D02*
X120227500Y-77312258D01*
X121272500Y-76837742D02*
X121272500Y-77312258D01*
%TO.C,R9*%
X126227500Y-76837742D02*
X126227500Y-77312258D01*
X127272500Y-76837742D02*
X127272500Y-77312258D01*
%TO.C,D1*%
X104340000Y-65765000D02*
X104340000Y-67235000D01*
X104340000Y-67235000D02*
X106800000Y-67235000D01*
X106800000Y-65765000D02*
X104340000Y-65765000D01*
%TO.C,R3*%
X120227500Y-73012742D02*
X120227500Y-73487258D01*
X121272500Y-73012742D02*
X121272500Y-73487258D01*
%TO.C,J5*%
X136440000Y-80590000D02*
X136440000Y-88410000D01*
X136440000Y-82190000D02*
X137360000Y-82190000D01*
X136440000Y-88410000D02*
X146560000Y-88410000D01*
X137200000Y-84550000D02*
X137200000Y-86150000D01*
X137200000Y-86150000D02*
X138200000Y-86150000D01*
X137360000Y-80590000D02*
X136440000Y-80590000D01*
X137360000Y-82190000D02*
X137360000Y-80590000D01*
X137640000Y-82190000D02*
X137360000Y-82190000D01*
X137640000Y-82190000D02*
X137640000Y-80975000D01*
X137700000Y-86150000D02*
X137700000Y-88410000D01*
X138200000Y-84550000D02*
X137200000Y-84550000D01*
X138200000Y-86150000D02*
X138200000Y-84550000D01*
X138200000Y-86150000D02*
X138200000Y-88410000D01*
X139000000Y-84050000D02*
X144000000Y-84050000D01*
X139000000Y-88410000D02*
X139000000Y-84050000D01*
X144000000Y-84050000D02*
X144000000Y-88410000D01*
X144800000Y-84550000D02*
X145800000Y-84550000D01*
X144800000Y-86150000D02*
X144800000Y-84550000D01*
X145640000Y-80590000D02*
X145640000Y-82190000D01*
X145640000Y-82190000D02*
X145360000Y-82190000D01*
X145800000Y-84550000D02*
X145800000Y-86150000D01*
X145800000Y-86150000D02*
X144800000Y-86150000D01*
X146560000Y-80590000D02*
X145640000Y-80590000D01*
X146560000Y-82190000D02*
X145640000Y-82190000D01*
X146560000Y-88410000D02*
X146560000Y-80590000D01*
%TO.C,J6*%
X117940000Y-33090000D02*
X117940000Y-40910000D01*
X117940000Y-39310000D02*
X118860000Y-39310000D01*
X117940000Y-40910000D02*
X118860000Y-40910000D01*
X118700000Y-35350000D02*
X119700000Y-35350000D01*
X118700000Y-36950000D02*
X118700000Y-35350000D01*
X118860000Y-39310000D02*
X119140000Y-39310000D01*
X118860000Y-40910000D02*
X118860000Y-39310000D01*
X119700000Y-35350000D02*
X119700000Y-36950000D01*
X119700000Y-36950000D02*
X118700000Y-36950000D01*
X120500000Y-37450000D02*
X120500000Y-33090000D01*
X125500000Y-33090000D02*
X125500000Y-37450000D01*
X125500000Y-37450000D02*
X120500000Y-37450000D01*
X126300000Y-35350000D02*
X126300000Y-33090000D01*
X126300000Y-35350000D02*
X126300000Y-36950000D01*
X126300000Y-36950000D02*
X127300000Y-36950000D01*
X126800000Y-35350000D02*
X126800000Y-33090000D01*
X126860000Y-39310000D02*
X126860000Y-40525000D01*
X126860000Y-39310000D02*
X127140000Y-39310000D01*
X127140000Y-39310000D02*
X127140000Y-40910000D01*
X127140000Y-40910000D02*
X128060000Y-40910000D01*
X127300000Y-35350000D02*
X126300000Y-35350000D01*
X127300000Y-36950000D02*
X127300000Y-35350000D01*
X128060000Y-33090000D02*
X117940000Y-33090000D01*
X128060000Y-39310000D02*
X127140000Y-39310000D01*
X128060000Y-40910000D02*
X128060000Y-33090000D01*
%TO.C,R5*%
X126227500Y-73012742D02*
X126227500Y-73487258D01*
X127272500Y-73012742D02*
X127272500Y-73487258D01*
%TD*%
%LPC*%
D16*
%TO.C,R12*%
X105175000Y-74000000D03*
X106825000Y-74000000D03*
%TD*%
D17*
%TO.C,D2*%
X106875000Y-70700000D03*
X105125000Y-70700000D03*
%TD*%
D18*
%TO.C,H3*%
X107500000Y-85250000D03*
D19*
X107500000Y-85250000D03*
%TD*%
D20*
%TO.C,J4*%
X136750000Y-39250000D03*
D21*
X139290000Y-39250000D03*
X141830000Y-39250000D03*
X144370000Y-39250000D03*
X146910000Y-39250000D03*
X149450000Y-39250000D03*
X151990000Y-39250000D03*
%TD*%
D22*
%TO.C,J7*%
X118750000Y-82050000D03*
D23*
X120750000Y-82050000D03*
X122750000Y-82050000D03*
X124750000Y-82050000D03*
X126750000Y-82050000D03*
X128750000Y-82050000D03*
%TD*%
D24*
%TO.C,U1*%
X126750000Y-50750000D03*
X126750000Y-51650000D03*
X126750000Y-52550000D03*
X126750000Y-53450000D03*
X126750000Y-54360000D03*
X126750000Y-55260000D03*
X126750000Y-56160000D03*
X126750000Y-57060000D03*
X126750000Y-57960000D03*
X126750000Y-58860000D03*
X126750000Y-59770000D03*
X126750000Y-60670000D03*
X126750000Y-61570000D03*
X126750000Y-62470000D03*
D25*
X126440000Y-63940000D03*
X125540000Y-63940000D03*
X124640000Y-63940000D03*
X123740000Y-63940000D03*
X122840000Y-63940000D03*
X121930000Y-63940000D03*
X121030000Y-63940000D03*
X120130000Y-63940000D03*
X119230000Y-63940000D03*
X118330000Y-63940000D03*
X117430000Y-63940000D03*
X116520000Y-63940000D03*
X115620000Y-63940000D03*
X114720000Y-63940000D03*
X113820000Y-63940000D03*
D24*
X113510000Y-62470000D03*
X113510000Y-61570000D03*
X113510000Y-60670000D03*
X113510000Y-59770000D03*
X113510000Y-58860000D03*
X113510000Y-57960000D03*
X113510000Y-57060000D03*
X113510000Y-56160000D03*
X113510000Y-55260000D03*
X113510000Y-54360000D03*
X113510000Y-53450000D03*
X113510000Y-52550000D03*
X113510000Y-51650000D03*
X113510000Y-50750000D03*
%TD*%
D26*
%TO.C,S1*%
X107325000Y-46675000D03*
X107325000Y-50825000D03*
X105175000Y-46675000D03*
X105175000Y-50825000D03*
%TD*%
D27*
%TO.C,R7*%
X120750000Y-76250000D03*
X120750000Y-77900000D03*
%TD*%
D18*
%TO.C,H2*%
X165500000Y-36250000D03*
D19*
X165500000Y-36250000D03*
%TD*%
D27*
%TO.C,R9*%
X126750000Y-76250000D03*
X126750000Y-77900000D03*
%TD*%
D17*
%TO.C,D1*%
X105125000Y-66500000D03*
X106875000Y-66500000D03*
%TD*%
D27*
%TO.C,R3*%
X120750000Y-72425000D03*
X120750000Y-74075000D03*
%TD*%
D22*
%TO.C,J5*%
X138500000Y-82050000D03*
D23*
X140500000Y-82050000D03*
X142500000Y-82050000D03*
X144500000Y-82050000D03*
%TD*%
D18*
%TO.C,H4*%
X165500000Y-85250000D03*
D19*
X165500000Y-85250000D03*
%TD*%
D18*
%TO.C,H1*%
X107500000Y-36250000D03*
D19*
X107500000Y-36250000D03*
%TD*%
D28*
%TO.C,J6*%
X126000000Y-39450000D03*
D23*
X124000000Y-39450000D03*
X122000000Y-39450000D03*
X120000000Y-39450000D03*
%TD*%
D27*
%TO.C,R5*%
X126750000Y-72425000D03*
X126750000Y-74075000D03*
%TD*%
%LPD*%
M02*
