M48
; DRILL file {KiCad 8.0.5} date 2024-11-08T11:27:01-0500
; FORMAT={-:-/ absolute / metric / decimal}
; #@! TF.CreationDate,2024-11-08T11:27:01-05:00
; #@! TF.GenerationSoftware,Kicad,Pcbnew,8.0.5
; #@! TF.FileFunction,Plated,1,2,PTH
FMAT,2
METRIC
; #@! TA.AperFunction,Plated,PTH,ViaDrill
T1C0.300
; #@! TA.AperFunction,Plated,PTH,ComponentDrill
T2C0.750
; #@! TA.AperFunction,Plated,PTH,ComponentDrill
T3C1.000
; #@! TA.AperFunction,Plated,PTH,ComponentDrill
T4C2.700
%
G90
G05
T1
X104.5Y-44.5
X104.5Y-48.5
X105.25Y-68.5
X106.25Y-53.25
X107.5Y-44.0
X107.5Y-52.5
X109.25Y-65.25
X109.25Y-68.75
X109.25Y-72.25
X109.25Y-75.75
X110.5Y-44.0
X110.5Y-58.5
X111.0Y-45.0
X111.5Y-33.5
X111.5Y-39.5
X111.5Y-50.5
X114.25Y-66.5
X114.25Y-68.75
X114.25Y-72.25
X114.25Y-75.75
X115.0Y-36.0
X115.5Y-51.0
X115.5Y-52.5
X115.5Y-53.5
X115.62Y-60.0
X116.5Y-60.0
X119.25Y-66.75
X119.5Y-60.873
X120.0Y-51.0
X122.873Y-61.5
X123.5Y-68.5
X124.0Y-37.5
X124.0Y-42.0
X124.5Y-51.0
X124.5Y-52.5
X124.5Y-53.5
X124.5Y-57.521
X124.5Y-58.75
X124.5Y-68.5
X124.5Y-72.5
X125.127Y-59.627
X126.5Y-67.0
X128.5Y-61.5
X128.5Y-64.0
X129.0Y-52.5
X129.0Y-53.5
X129.5Y-56.0
X129.5Y-57.0
X129.5Y-60.5
X130.0Y-68.5
X130.066Y-59.934
X131.0Y-47.0
X131.0Y-68.5
X131.0Y-72.0
X131.5Y-33.0
X132.0Y-36.0
X132.0Y-64.0
X132.5Y-38.0
X132.5Y-40.5
X133.5Y-70.0
X134.0Y-47.0
X136.0Y-55.75
X137.0Y-35.5
X138.0Y-74.5
X141.0Y-66.0
X141.0Y-74.0
X142.5Y-49.0
X143.0Y-41.5
X143.0Y-59.5
X143.0Y-67.5
X144.5Y-74.0
X149.5Y-36.5
X149.5Y-41.5
T2
X118.75Y-82.05
X120.0Y-39.45
X120.75Y-82.05
X122.0Y-39.45
X122.75Y-82.05
X124.0Y-39.45
X124.75Y-82.05
X126.0Y-39.45
X126.75Y-82.05
X128.75Y-82.05
X138.5Y-82.05
X140.5Y-82.05
X142.5Y-82.05
X144.5Y-82.05
T3
X136.75Y-39.25
X139.29Y-39.25
X141.83Y-39.25
X144.37Y-39.25
X146.91Y-39.25
X149.45Y-39.25
X151.99Y-39.25
T4
X107.5Y-36.25
X107.5Y-85.25
X165.5Y-36.25
X165.5Y-85.25
M30
