%TF.GenerationSoftware,KiCad,Pcbnew,8.0.5*%
%TF.CreationDate,2024-11-08T11:27:06-05:00*%
%TF.ProjectId,psocpcb,70736f63-7063-4622-9e6b-696361645f70,rev?*%
%TF.SameCoordinates,Original*%
%TF.FileFunction,Copper,L1,Top*%
%TF.FilePolarity,Positive*%
%FSLAX46Y46*%
G04 Gerber Fmt 4.6, Leading zero omitted, Abs format (unit mm)*
G04 Created by KiCad (PCBNEW 8.0.5) date 2024-11-08 11:27:06*
%MOMM*%
%LPD*%
G01*
G04 APERTURE LIST*
G04 Aperture macros list*
%AMRoundRect*
0 Rectangle with rounded corners*
0 $1 Rounding radius*
0 $2 $3 $4 $5 $6 $7 $8 $9 X,Y pos of 4 corners*
0 Add a 4 corners polygon primitive as box body*
4,1,4,$2,$3,$4,$5,$6,$7,$8,$9,$2,$3,0*
0 Add four circle primitives for the rounded corners*
1,1,$1+$1,$2,$3*
1,1,$1+$1,$4,$5*
1,1,$1+$1,$6,$7*
1,1,$1+$1,$8,$9*
0 Add four rect primitives between the rounded corners*
20,1,$1+$1,$2,$3,$4,$5,0*
20,1,$1+$1,$4,$5,$6,$7,0*
20,1,$1+$1,$6,$7,$8,$9,0*
20,1,$1+$1,$8,$9,$2,$3,0*%
G04 Aperture macros list end*
%TA.AperFunction,SMDPad,CuDef*%
%ADD10RoundRect,0.200000X-0.200000X-0.275000X0.200000X-0.275000X0.200000X0.275000X-0.200000X0.275000X0*%
%TD*%
%TA.AperFunction,SMDPad,CuDef*%
%ADD11RoundRect,0.237500X-0.287500X-0.237500X0.287500X-0.237500X0.287500X0.237500X-0.287500X0.237500X0*%
%TD*%
%TA.AperFunction,ComponentPad*%
%ADD12C,3.100000*%
%TD*%
%TA.AperFunction,ConnectorPad*%
%ADD13C,5.400000*%
%TD*%
%TA.AperFunction,ComponentPad*%
%ADD14R,1.700000X1.700000*%
%TD*%
%TA.AperFunction,ComponentPad*%
%ADD15O,1.700000X1.700000*%
%TD*%
%TA.AperFunction,ComponentPad*%
%ADD16RoundRect,0.250000X-0.350000X-0.625000X0.350000X-0.625000X0.350000X0.625000X-0.350000X0.625000X0*%
%TD*%
%TA.AperFunction,ComponentPad*%
%ADD17O,1.200000X1.750000*%
%TD*%
%TA.AperFunction,SMDPad,CuDef*%
%ADD18R,1.270000X0.610000*%
%TD*%
%TA.AperFunction,SMDPad,CuDef*%
%ADD19R,0.610000X1.270000*%
%TD*%
%TA.AperFunction,SMDPad,CuDef*%
%ADD20R,0.650000X1.050000*%
%TD*%
%TA.AperFunction,SMDPad,CuDef*%
%ADD21RoundRect,0.200000X-0.275000X0.200000X-0.275000X-0.200000X0.275000X-0.200000X0.275000X0.200000X0*%
%TD*%
%TA.AperFunction,ComponentPad*%
%ADD22RoundRect,0.250000X0.350000X0.625000X-0.350000X0.625000X-0.350000X-0.625000X0.350000X-0.625000X0*%
%TD*%
%TA.AperFunction,ViaPad*%
%ADD23C,0.600000*%
%TD*%
%TA.AperFunction,Conductor*%
%ADD24C,0.254000*%
%TD*%
%TA.AperFunction,Conductor*%
%ADD25C,0.504000*%
%TD*%
%TA.AperFunction,Conductor*%
%ADD26C,0.508000*%
%TD*%
%TA.AperFunction,Conductor*%
%ADD27C,0.200000*%
%TD*%
G04 APERTURE END LIST*
D10*
%TO.P,R12,1*%
%TO.N,Net-(D2-K)*%
X105175000Y-74000000D03*
%TO.P,R12,2*%
%TO.N,/LED2*%
X106825000Y-74000000D03*
%TD*%
D11*
%TO.P,D2,2,A*%
%TO.N,/Vdd*%
X106875000Y-70700000D03*
%TO.P,D2,1,K*%
%TO.N,Net-(D2-K)*%
X105125000Y-70700000D03*
%TD*%
D12*
%TO.P,H3,1*%
%TO.N,N/C*%
X107500000Y-85250000D03*
D13*
X107500000Y-85250000D03*
%TD*%
D14*
%TO.P,J4,1,Pin_1*%
%TO.N,/usbrx*%
X136750000Y-39250000D03*
D15*
%TO.P,J4,2,Pin_2*%
%TO.N,/usbtx*%
X139290000Y-39250000D03*
%TO.P,J4,3,Pin_3*%
%TO.N,/SWDIO*%
X141830000Y-39250000D03*
%TO.P,J4,4,Pin_4*%
%TO.N,/SWDCLK*%
X144370000Y-39250000D03*
%TO.P,J4,5,Pin_5*%
%TO.N,/XRES*%
X146910000Y-39250000D03*
%TO.P,J4,6,Pin_6*%
%TO.N,GND*%
X149450000Y-39250000D03*
%TO.P,J4,7,Pin_7*%
%TO.N,/Vdd*%
X151990000Y-39250000D03*
%TD*%
D16*
%TO.P,J7,1,Pin_1*%
%TO.N,GND*%
X118750000Y-82050000D03*
D17*
%TO.P,J7,2,Pin_2*%
%TO.N,/ADC0_raw*%
X120750000Y-82050000D03*
%TO.P,J7,3,Pin_3*%
%TO.N,/ADC1_raw*%
X122750000Y-82050000D03*
%TO.P,J7,4,Pin_4*%
%TO.N,GND*%
X124750000Y-82050000D03*
%TO.P,J7,5,Pin_5*%
%TO.N,/ADC2_raw*%
X126750000Y-82050000D03*
%TO.P,J7,6,Pin_6*%
%TO.N,/ADC3_raw*%
X128750000Y-82050000D03*
%TD*%
D18*
%TO.P,U1,1,GND*%
%TO.N,GND*%
X126750000Y-50750000D03*
%TO.P,U1,2,P0.5*%
%TO.N,unconnected-(U1-P0.5-Pad2)*%
X126750000Y-51650000D03*
%TO.P,U1,3,VBACKUP*%
%TO.N,/Vdd*%
X126750000Y-52550000D03*
%TO.P,U1,4,VDD*%
X126750000Y-53450000D03*
%TO.P,U1,5,P0.0*%
%TO.N,unconnected-(U1-P0.0-Pad5)*%
X126750000Y-54360000D03*
%TO.P,U1,6,P0.1*%
%TO.N,unconnected-(U1-P0.1-Pad6)*%
X126750000Y-55260000D03*
%TO.P,U1,7,P10.3*%
%TO.N,/ADC0*%
X126750000Y-56160000D03*
%TO.P,U1,8,P10.4*%
%TO.N,/ADC1*%
X126750000Y-57060000D03*
%TO.P,U1,9,P9.3*%
%TO.N,unconnected-(U1-P9.3-Pad9)*%
X126750000Y-57960000D03*
%TO.P,U1,10,P10.6*%
%TO.N,/ADC3*%
X126750000Y-58860000D03*
%TO.P,U1,11,P10.5*%
%TO.N,/ADC2*%
X126750000Y-59770000D03*
%TO.P,U1,12,P10.1*%
%TO.N,/SCL*%
X126750000Y-60670000D03*
%TO.P,U1,13,P10.0*%
%TO.N,unconnected-(U1-P10.0-Pad13)*%
X126750000Y-61570000D03*
%TO.P,U1,14,P9.4*%
%TO.N,unconnected-(U1-P9.4-Pad14)*%
X126750000Y-62470000D03*
D19*
%TO.P,U1,15,GND*%
%TO.N,GND*%
X126440000Y-63940000D03*
%TO.P,U1,16,VREF*%
%TO.N,unconnected-(U1-VREF-Pad16)*%
X125540000Y-63940000D03*
%TO.P,U1,17,P9.0*%
%TO.N,/rx*%
X124640000Y-63940000D03*
%TO.P,U1,18,P9.1*%
%TO.N,/tx*%
X123740000Y-63940000D03*
%TO.P,U1,19,P9.5*%
%TO.N,unconnected-(U1-P9.5-Pad19)*%
X122840000Y-63940000D03*
%TO.P,U1,20,P9.6*%
%TO.N,unconnected-(U1-P9.6-Pad20)*%
X121930000Y-63940000D03*
%TO.P,U1,21,P9.2*%
%TO.N,unconnected-(U1-P9.2-Pad21)*%
X121030000Y-63940000D03*
%TO.P,U1,22,P7.2*%
%TO.N,unconnected-(U1-P7.2-Pad22)*%
X120130000Y-63940000D03*
%TO.P,U1,23,P7.1*%
%TO.N,/LED1*%
X119230000Y-63940000D03*
%TO.P,U1,24,P6.4*%
%TO.N,unconnected-(U1-P6.4-Pad24)*%
X118330000Y-63940000D03*
%TO.P,U1,25,P5.4*%
%TO.N,unconnected-(U1-P5.4-Pad25)*%
X117430000Y-63940000D03*
%TO.P,U1,26,P6.7*%
%TO.N,/SWDCLK*%
X116520000Y-63940000D03*
%TO.P,U1,27,P6.6*%
%TO.N,/SWDIO*%
X115620000Y-63940000D03*
%TO.P,U1,28,P6.2*%
%TO.N,unconnected-(U1-P6.2-Pad28)*%
X114720000Y-63940000D03*
%TO.P,U1,29,P6.5*%
%TO.N,unconnected-(U1-P6.5-Pad29)*%
X113820000Y-63940000D03*
D18*
%TO.P,U1,30,P6.3*%
%TO.N,/LED2*%
X113510000Y-62470000D03*
%TO.P,U1,31,P7.7*%
%TO.N,unconnected-(U1-P7.7-Pad31)*%
X113510000Y-61570000D03*
%TO.P,U1,32,P5.6*%
%TO.N,unconnected-(U1-P5.6-Pad32)*%
X113510000Y-60670000D03*
%TO.P,U1,33,P10.2*%
%TO.N,/SDA*%
X113510000Y-59770000D03*
%TO.P,U1,34,P12.6*%
%TO.N,unconnected-(U1-P12.6-Pad34)*%
X113510000Y-58860000D03*
%TO.P,U1,35,P12.7*%
%TO.N,unconnected-(U1-P12.7-Pad35)*%
X113510000Y-57960000D03*
%TO.P,U1,36,P5.5*%
%TO.N,unconnected-(U1-P5.5-Pad36)*%
X113510000Y-57060000D03*
%TO.P,U1,37,P5.3*%
%TO.N,unconnected-(U1-P5.3-Pad37)*%
X113510000Y-56160000D03*
%TO.P,U1,38,P5.2*%
%TO.N,unconnected-(U1-P5.2-Pad38)*%
X113510000Y-55260000D03*
%TO.P,U1,39,P5.0*%
%TO.N,/usbrx*%
X113510000Y-54360000D03*
%TO.P,U1,40,P5.1*%
%TO.N,/usbtx*%
X113510000Y-53450000D03*
%TO.P,U1,41,P0.4*%
%TO.N,unconnected-(U1-P0.4-Pad41)*%
X113510000Y-52550000D03*
%TO.P,U1,42,XRES*%
%TO.N,/XRES*%
X113510000Y-51650000D03*
%TO.P,U1,43,GND*%
%TO.N,GND*%
X113510000Y-50750000D03*
%TD*%
D20*
%TO.P,S1,1*%
%TO.N,/XRES*%
X107325000Y-46675000D03*
%TO.P,S1,2*%
X107325000Y-50825000D03*
%TO.P,S1,3*%
%TO.N,GND*%
X105175000Y-46675000D03*
%TO.P,S1,4*%
X105175000Y-50825000D03*
%TD*%
D21*
%TO.P,R7,1*%
%TO.N,/ADC0*%
X120750000Y-76250000D03*
%TO.P,R7,2*%
%TO.N,/ADC0_raw*%
X120750000Y-77900000D03*
%TD*%
D12*
%TO.P,H2,1*%
%TO.N,N/C*%
X165500000Y-36250000D03*
D13*
X165500000Y-36250000D03*
%TD*%
D21*
%TO.P,R9,1*%
%TO.N,/ADC2*%
X126750000Y-76250000D03*
%TO.P,R9,2*%
%TO.N,/ADC2_raw*%
X126750000Y-77900000D03*
%TD*%
D11*
%TO.P,D1,1,K*%
%TO.N,Net-(D1-K)*%
X105125000Y-66500000D03*
%TO.P,D1,2,A*%
%TO.N,/Vdd*%
X106875000Y-66500000D03*
%TD*%
D21*
%TO.P,R3,1*%
%TO.N,GND*%
X120750000Y-72425000D03*
%TO.P,R3,2*%
%TO.N,/ADC0*%
X120750000Y-74075000D03*
%TD*%
D16*
%TO.P,J5,1,Pin_1*%
%TO.N,GND*%
X138500000Y-82050000D03*
D17*
%TO.P,J5,2,Pin_2*%
%TO.N,/Vdd*%
X140500000Y-82050000D03*
%TO.P,J5,3,Pin_3*%
%TO.N,/SCL*%
X142500000Y-82050000D03*
%TO.P,J5,4,Pin_4*%
%TO.N,/SDA*%
X144500000Y-82050000D03*
%TD*%
D12*
%TO.P,H4,1*%
%TO.N,N/C*%
X165500000Y-85250000D03*
D13*
X165500000Y-85250000D03*
%TD*%
D12*
%TO.P,H1,1*%
%TO.N,N/C*%
X107500000Y-36250000D03*
D13*
X107500000Y-36250000D03*
%TD*%
D22*
%TO.P,J6,1,Pin_1*%
%TO.N,/Vdd*%
X126000000Y-39450000D03*
D17*
%TO.P,J6,2,Pin_2*%
%TO.N,GND*%
X124000000Y-39450000D03*
%TO.P,J6,3,Pin_3*%
%TO.N,/tx*%
X122000000Y-39450000D03*
%TO.P,J6,4,Pin_4*%
%TO.N,/rx*%
X120000000Y-39450000D03*
%TD*%
D21*
%TO.P,R5,1*%
%TO.N,GND*%
X126750000Y-72425000D03*
%TO.P,R5,2*%
%TO.N,/ADC2*%
X126750000Y-74075000D03*
%TD*%
D23*
%TO.N,GND*%
X114250000Y-66500000D03*
X109250000Y-65250000D03*
X114250000Y-75750000D03*
X114250000Y-72250000D03*
X114250000Y-68750000D03*
X109250000Y-75750000D03*
X109250000Y-72250000D03*
X109250000Y-68750000D03*
X136000000Y-55750000D03*
X142500000Y-49000000D03*
X143000000Y-41500000D03*
X149500000Y-41500000D03*
X131000000Y-47000000D03*
X133500000Y-70000000D03*
X104500000Y-48500000D03*
X149500000Y-36500000D03*
X115500000Y-51000000D03*
X124000000Y-37500000D03*
X111500000Y-33500000D03*
X111500000Y-39500000D03*
X124500000Y-51000000D03*
X132500000Y-40500000D03*
X104500000Y-44500000D03*
X132500000Y-38000000D03*
X126500000Y-67000000D03*
X124000000Y-42000000D03*
X111500000Y-50500000D03*
X141000000Y-66000000D03*
X128500000Y-64000000D03*
X120000000Y-51000000D03*
X134000000Y-47000000D03*
X141000000Y-74000000D03*
%TO.N,/Vdd*%
X129000000Y-53500000D03*
X124500000Y-52500000D03*
X143000000Y-59500000D03*
X115500000Y-53500000D03*
X110500000Y-58500000D03*
X143000000Y-67500000D03*
X115500000Y-52500000D03*
X124500000Y-53500000D03*
X129000000Y-52500000D03*
%TO.N,Net-(D1-K)*%
X105250000Y-68500000D03*
%TO.N,/SDA*%
X125127000Y-59627000D03*
X128500000Y-61500000D03*
X144500000Y-74000000D03*
%TO.N,/SCL*%
X132000000Y-64000000D03*
X138000000Y-74500000D03*
%TO.N,/rx*%
X122873000Y-61500000D03*
X110500000Y-44000000D03*
%TO.N,/tx*%
X119500000Y-60873000D03*
X111000000Y-45000000D03*
%TO.N,/ADC0*%
X124500000Y-57521000D03*
X123500000Y-68500000D03*
%TO.N,/ADC1*%
X124500000Y-68500000D03*
X124500000Y-72500000D03*
X124500000Y-58750000D03*
%TO.N,/ADC2*%
X129500000Y-60500000D03*
X130000000Y-68500000D03*
%TO.N,/ADC3*%
X131000000Y-68500000D03*
X130065687Y-59934313D03*
X131000000Y-72000000D03*
%TO.N,/XRES*%
X107500000Y-44000000D03*
X131500000Y-33000000D03*
%TO.N,/SWDCLK*%
X129500000Y-57000000D03*
X116500000Y-60000000D03*
%TO.N,/LED1*%
X119250000Y-66750000D03*
%TO.N,/SWDIO*%
X115620000Y-60000000D03*
X129500000Y-56000000D03*
%TO.N,/usbtx*%
X107500000Y-52500000D03*
X137000000Y-35500000D03*
%TO.N,/usbrx*%
X106250000Y-53250000D03*
X115000000Y-36000000D03*
X132000000Y-36000000D03*
%TD*%
D24*
%TO.N,/LED2*%
X112030000Y-62470000D02*
X113510000Y-62470000D01*
X111250000Y-72000000D02*
X111250000Y-63250000D01*
X111250000Y-63250000D02*
X112030000Y-62470000D01*
X109250000Y-74000000D02*
X111250000Y-72000000D01*
X106825000Y-74000000D02*
X109250000Y-74000000D01*
%TO.N,Net-(D2-K)*%
X105125000Y-73950000D02*
X105175000Y-74000000D01*
X105125000Y-70700000D02*
X105125000Y-73950000D01*
D25*
%TO.N,/Vdd*%
X106875000Y-66500000D02*
X106875000Y-70700000D01*
D24*
%TO.N,/ADC0*%
X123500000Y-72500000D02*
X123500000Y-68500000D01*
X121925000Y-74075000D02*
X123500000Y-72500000D01*
X120925000Y-74075000D02*
X121925000Y-74075000D01*
%TO.N,/ADC1*%
X124500000Y-72500000D02*
X124500000Y-68500000D01*
%TO.N,/ADC3*%
X131000000Y-72000000D02*
X131000000Y-68500000D01*
%TO.N,/ADC1*%
X124500000Y-58421000D02*
X125861000Y-57060000D01*
X124500000Y-58750000D02*
X124500000Y-58421000D01*
X125861000Y-57060000D02*
X126750000Y-57060000D01*
%TO.N,/SDA*%
X114855000Y-59770000D02*
X113510000Y-59770000D01*
X124240288Y-59627000D02*
X122613288Y-58000000D01*
X116625000Y-58000000D02*
X114855000Y-59770000D01*
X125127000Y-59627000D02*
X124240288Y-59627000D01*
X122613288Y-58000000D02*
X116625000Y-58000000D01*
%TO.N,/SWDCLK*%
X144370000Y-49130000D02*
X144370000Y-39250000D01*
X136500000Y-57000000D02*
X144370000Y-49130000D01*
X129500000Y-57000000D02*
X136500000Y-57000000D01*
D25*
%TO.N,/Vdd*%
X110500000Y-58500000D02*
X106875000Y-62125000D01*
X106875000Y-62125000D02*
X106875000Y-66500000D01*
D26*
X143000000Y-67500000D02*
X143000000Y-59500000D01*
D24*
%TO.N,Net-(D1-K)*%
X105125000Y-66500000D02*
X105125000Y-68375000D01*
X105125000Y-68375000D02*
X105250000Y-68500000D01*
%TO.N,/SDA*%
X135127000Y-64627000D02*
X131627000Y-64627000D01*
X131627000Y-64627000D02*
X128500000Y-61500000D01*
X144500000Y-74000000D02*
X135127000Y-64627000D01*
%TO.N,/SCL*%
X142500000Y-79000000D02*
X142500000Y-82050000D01*
X138000000Y-74500000D02*
X142500000Y-79000000D01*
X128670000Y-60670000D02*
X132000000Y-64000000D01*
X126750000Y-60670000D02*
X128670000Y-60670000D01*
D26*
%TO.N,/ADC2_raw*%
X126750000Y-77900000D02*
X126750000Y-82050000D01*
%TO.N,/ADC0_raw*%
X120750000Y-77900000D02*
X120750000Y-82050000D01*
D24*
%TO.N,/rx*%
X120000000Y-39450000D02*
X115050000Y-39450000D01*
X122873000Y-61500000D02*
X123000000Y-61500000D01*
X115050000Y-39450000D02*
X110500000Y-44000000D01*
X124640000Y-63140000D02*
X124640000Y-63940000D01*
X123000000Y-61500000D02*
X124640000Y-63140000D01*
%TO.N,/tx*%
X119500000Y-60873000D02*
X121373000Y-60873000D01*
X114500000Y-41500000D02*
X119950000Y-41500000D01*
X121373000Y-60873000D02*
X122246000Y-61746000D01*
X119950000Y-41500000D02*
X122000000Y-39450000D01*
X122246000Y-61759712D02*
X123740000Y-63253712D01*
X111000000Y-45000000D02*
X114500000Y-41500000D01*
X123740000Y-63253712D02*
X123740000Y-63940000D01*
X122246000Y-61746000D02*
X122246000Y-61759712D01*
%TO.N,/ADC0*%
X125861000Y-56160000D02*
X126750000Y-56160000D01*
X124500000Y-57521000D02*
X125861000Y-56160000D01*
D26*
X120750000Y-74075000D02*
X120750000Y-76250000D01*
X120750000Y-74075000D02*
X120925000Y-74075000D01*
D24*
%TO.N,/ADC2*%
X127925000Y-74075000D02*
X130000000Y-72000000D01*
X128770000Y-59770000D02*
X126750000Y-59770000D01*
X130000000Y-72000000D02*
X130000000Y-68500000D01*
X126750000Y-74075000D02*
X127925000Y-74075000D01*
X129500000Y-60500000D02*
X128770000Y-59770000D01*
D26*
X126750000Y-74075000D02*
X126750000Y-76250000D01*
D24*
%TO.N,/ADC3*%
X130065687Y-59934313D02*
X128991374Y-58860000D01*
X128991374Y-58860000D02*
X126750000Y-58860000D01*
D27*
%TO.N,/XRES*%
X107325000Y-50825000D02*
X108150000Y-51650000D01*
X107325000Y-46675000D02*
X107325000Y-50825000D01*
D24*
X146910000Y-34910000D02*
X145000000Y-33000000D01*
X107500000Y-46500000D02*
X107325000Y-46675000D01*
D27*
X108150000Y-51650000D02*
X113510000Y-51650000D01*
D24*
X146910000Y-39250000D02*
X146910000Y-34910000D01*
X107500000Y-44000000D02*
X107500000Y-46500000D01*
X145000000Y-33000000D02*
X131500000Y-33000000D01*
%TO.N,/SWDCLK*%
X116500000Y-60000000D02*
X116520000Y-60020000D01*
X116520000Y-60020000D02*
X116520000Y-63940000D01*
%TO.N,/LED1*%
X119250000Y-66750000D02*
X119230000Y-66730000D01*
X119230000Y-66730000D02*
X119230000Y-63940000D01*
%TO.N,/SWDIO*%
X141830000Y-47670000D02*
X141830000Y-39250000D01*
X129500000Y-56000000D02*
X133500000Y-56000000D01*
X133500000Y-56000000D02*
X141830000Y-47670000D01*
X115620000Y-60000000D02*
X115620000Y-63940000D01*
%TO.N,/usbtx*%
X139290000Y-39250000D02*
X139290000Y-37790000D01*
X108450000Y-53450000D02*
X113510000Y-53450000D01*
X139290000Y-37790000D02*
X137000000Y-35500000D01*
X107500000Y-52500000D02*
X108450000Y-53450000D01*
%TO.N,/usbrx*%
X132000000Y-36000000D02*
X115000000Y-36000000D01*
X107360000Y-54360000D02*
X113510000Y-54360000D01*
X106250000Y-53250000D02*
X107360000Y-54360000D01*
%TD*%
%TA.AperFunction,Conductor*%
%TO.N,/Vdd*%
G36*
X125565191Y-52019685D02*
G01*
X125610946Y-52072489D01*
X125621441Y-52137255D01*
X125615001Y-52197153D01*
X125615000Y-52197172D01*
X125615000Y-52300000D01*
X125699423Y-52300000D01*
X125766462Y-52319685D01*
X125773734Y-52324733D01*
X125872669Y-52398796D01*
X125872671Y-52398797D01*
X126007517Y-52449091D01*
X126007516Y-52449091D01*
X126014444Y-52449835D01*
X126067127Y-52455500D01*
X127432872Y-52455499D01*
X127492483Y-52449091D01*
X127627331Y-52398796D01*
X127726266Y-52324732D01*
X127791730Y-52300316D01*
X127800577Y-52300000D01*
X127885000Y-52300000D01*
X127885000Y-52197172D01*
X127884998Y-52197153D01*
X127878559Y-52137255D01*
X127890964Y-52068496D01*
X127938574Y-52017358D01*
X128001848Y-52000000D01*
X129876000Y-52000000D01*
X129943039Y-52019685D01*
X129988794Y-52072489D01*
X130000000Y-52124000D01*
X130000000Y-53876000D01*
X129980315Y-53943039D01*
X129927511Y-53988794D01*
X129876000Y-54000000D01*
X128001848Y-54000000D01*
X127934809Y-53980315D01*
X127889054Y-53927511D01*
X127878559Y-53862745D01*
X127884998Y-53802846D01*
X127885000Y-53802827D01*
X127885000Y-53700000D01*
X127787218Y-53700000D01*
X127720179Y-53680315D01*
X127712915Y-53675272D01*
X127627331Y-53611204D01*
X127627328Y-53611202D01*
X127492482Y-53560908D01*
X127492483Y-53560908D01*
X127432883Y-53554501D01*
X127432881Y-53554500D01*
X127432873Y-53554500D01*
X127432864Y-53554500D01*
X126067129Y-53554500D01*
X126067123Y-53554501D01*
X126007516Y-53560908D01*
X125872671Y-53611202D01*
X125872668Y-53611204D01*
X125822055Y-53649092D01*
X125787092Y-53675266D01*
X125721629Y-53699684D01*
X125712782Y-53700000D01*
X125615000Y-53700000D01*
X125615000Y-53802827D01*
X125615001Y-53802846D01*
X125621441Y-53862745D01*
X125609036Y-53931504D01*
X125561426Y-53982642D01*
X125498152Y-54000000D01*
X114762352Y-54000000D01*
X114695313Y-53980315D01*
X114649558Y-53927511D01*
X114639063Y-53862745D01*
X114639968Y-53854321D01*
X114645500Y-53802873D01*
X114645499Y-53097128D01*
X114639091Y-53037517D01*
X114639090Y-53037515D01*
X114639090Y-53037512D01*
X114637308Y-53029969D01*
X114640260Y-53029271D01*
X114636269Y-52973674D01*
X114637334Y-52970044D01*
X114637306Y-52970038D01*
X114639089Y-52962488D01*
X114639088Y-52962488D01*
X114639091Y-52962483D01*
X114645500Y-52902873D01*
X114645500Y-52902844D01*
X125615000Y-52902844D01*
X125621401Y-52962373D01*
X125623186Y-52969925D01*
X125620272Y-52970613D01*
X125624254Y-53026373D01*
X125623168Y-53030070D01*
X125623186Y-53030075D01*
X125621401Y-53037626D01*
X125615000Y-53097155D01*
X125615000Y-53200000D01*
X126500000Y-53200000D01*
X127000000Y-53200000D01*
X127885000Y-53200000D01*
X127885000Y-53097172D01*
X127884999Y-53097155D01*
X127878597Y-53037622D01*
X127876813Y-53030067D01*
X127879739Y-53029375D01*
X127875729Y-52973703D01*
X127876834Y-52969938D01*
X127876813Y-52969933D01*
X127878597Y-52962377D01*
X127884999Y-52902844D01*
X127885000Y-52902827D01*
X127885000Y-52800000D01*
X127000000Y-52800000D01*
X127000000Y-53200000D01*
X126500000Y-53200000D01*
X126500000Y-52800000D01*
X125615000Y-52800000D01*
X125615000Y-52902844D01*
X114645500Y-52902844D01*
X114645499Y-52197128D01*
X114639091Y-52137517D01*
X114639063Y-52137253D01*
X114651470Y-52068494D01*
X114699081Y-52017357D01*
X114762353Y-52000000D01*
X125498152Y-52000000D01*
X125565191Y-52019685D01*
G37*
%TD.AperFunction*%
%TD*%
%TA.AperFunction,Conductor*%
%TO.N,GND*%
G36*
X130718967Y-32520185D02*
G01*
X130764722Y-32572989D01*
X130774666Y-32642147D01*
X130768970Y-32665454D01*
X130714632Y-32820742D01*
X130714630Y-32820750D01*
X130694435Y-32999996D01*
X130694435Y-33000003D01*
X130714630Y-33179249D01*
X130714631Y-33179254D01*
X130774211Y-33349523D01*
X130781992Y-33361906D01*
X130870184Y-33502262D01*
X130997738Y-33629816D01*
X131150478Y-33725789D01*
X131245953Y-33759197D01*
X131320745Y-33785368D01*
X131320750Y-33785369D01*
X131499996Y-33805565D01*
X131500000Y-33805565D01*
X131500004Y-33805565D01*
X131679248Y-33785369D01*
X131679248Y-33785368D01*
X131679255Y-33785368D01*
X131738547Y-33764620D01*
X131760052Y-33759199D01*
X131774415Y-33756921D01*
X132174678Y-33633043D01*
X132211339Y-33627500D01*
X144688719Y-33627500D01*
X144755758Y-33647185D01*
X144776400Y-33663819D01*
X146246181Y-35133600D01*
X146279666Y-35194923D01*
X146282500Y-35221281D01*
X146282500Y-37976173D01*
X146262815Y-38043212D01*
X146229624Y-38077748D01*
X146038594Y-38211508D01*
X145871505Y-38378597D01*
X145741575Y-38564158D01*
X145686998Y-38607783D01*
X145617500Y-38614977D01*
X145555145Y-38583454D01*
X145538425Y-38564158D01*
X145408494Y-38378597D01*
X145241402Y-38211506D01*
X145241395Y-38211501D01*
X145047834Y-38075967D01*
X145047830Y-38075965D01*
X145037249Y-38071031D01*
X144833663Y-37976097D01*
X144833659Y-37976096D01*
X144833655Y-37976094D01*
X144605413Y-37914938D01*
X144605403Y-37914936D01*
X144370001Y-37894341D01*
X144369999Y-37894341D01*
X144134596Y-37914936D01*
X144134586Y-37914938D01*
X143906344Y-37976094D01*
X143906335Y-37976098D01*
X143692171Y-38075964D01*
X143692169Y-38075965D01*
X143498597Y-38211505D01*
X143331505Y-38378597D01*
X143201575Y-38564158D01*
X143146998Y-38607783D01*
X143077500Y-38614977D01*
X143015145Y-38583454D01*
X142998425Y-38564158D01*
X142868494Y-38378597D01*
X142701402Y-38211506D01*
X142701395Y-38211501D01*
X142507834Y-38075967D01*
X142507830Y-38075965D01*
X142497249Y-38071031D01*
X142293663Y-37976097D01*
X142293659Y-37976096D01*
X142293655Y-37976094D01*
X142065413Y-37914938D01*
X142065403Y-37914936D01*
X141830001Y-37894341D01*
X141829999Y-37894341D01*
X141594596Y-37914936D01*
X141594586Y-37914938D01*
X141366344Y-37976094D01*
X141366335Y-37976098D01*
X141152171Y-38075964D01*
X141152169Y-38075965D01*
X140958597Y-38211505D01*
X140791505Y-38378597D01*
X140661575Y-38564158D01*
X140606998Y-38607783D01*
X140537500Y-38614977D01*
X140475145Y-38583454D01*
X140458425Y-38564158D01*
X140328494Y-38378597D01*
X140161402Y-38211506D01*
X140161401Y-38211505D01*
X140084508Y-38157664D01*
X139970375Y-38077747D01*
X139926752Y-38023171D01*
X139917500Y-37976173D01*
X139917500Y-37728194D01*
X139893386Y-37606970D01*
X139893385Y-37606969D01*
X139893385Y-37606965D01*
X139893383Y-37606960D01*
X139846086Y-37492773D01*
X139846079Y-37492760D01*
X139777412Y-37389993D01*
X139777411Y-37389992D01*
X139690008Y-37302589D01*
X137946703Y-35559284D01*
X137924699Y-35529441D01*
X137909176Y-35500003D01*
X137731909Y-35163830D01*
X137728822Y-35156744D01*
X137728810Y-35156751D01*
X137725789Y-35150477D01*
X137629815Y-34997737D01*
X137502262Y-34870184D01*
X137349523Y-34774211D01*
X137179254Y-34714631D01*
X137179249Y-34714630D01*
X137000004Y-34694435D01*
X136999996Y-34694435D01*
X136820750Y-34714630D01*
X136820745Y-34714631D01*
X136650476Y-34774211D01*
X136497737Y-34870184D01*
X136370184Y-34997737D01*
X136274211Y-35150476D01*
X136214631Y-35320745D01*
X136214630Y-35320750D01*
X136194435Y-35499996D01*
X136194435Y-35500003D01*
X136214630Y-35679249D01*
X136214631Y-35679254D01*
X136274211Y-35849523D01*
X136300334Y-35891097D01*
X136370184Y-36002262D01*
X136497738Y-36129816D01*
X136650478Y-36225789D01*
X136650482Y-36225790D01*
X136656746Y-36228807D01*
X136656739Y-36228819D01*
X136663824Y-36231905D01*
X137029441Y-36424699D01*
X137059284Y-36446703D01*
X138552597Y-37940016D01*
X138586082Y-38001339D01*
X138581098Y-38071031D01*
X138539226Y-38126964D01*
X138536040Y-38129272D01*
X138418597Y-38211505D01*
X138296673Y-38333430D01*
X138235350Y-38366914D01*
X138165658Y-38361930D01*
X138109725Y-38320058D01*
X138092810Y-38289081D01*
X138043797Y-38157671D01*
X138043793Y-38157664D01*
X137957547Y-38042455D01*
X137957544Y-38042452D01*
X137842335Y-37956206D01*
X137842328Y-37956202D01*
X137707482Y-37905908D01*
X137707483Y-37905908D01*
X137647883Y-37899501D01*
X137647881Y-37899500D01*
X137647873Y-37899500D01*
X137647864Y-37899500D01*
X135852129Y-37899500D01*
X135852123Y-37899501D01*
X135792516Y-37905908D01*
X135657671Y-37956202D01*
X135657664Y-37956206D01*
X135542455Y-38042452D01*
X135542452Y-38042455D01*
X135456206Y-38157664D01*
X135456202Y-38157671D01*
X135405908Y-38292517D01*
X135399501Y-38352116D01*
X135399500Y-38352135D01*
X135399500Y-40147870D01*
X135399501Y-40147876D01*
X135405908Y-40207483D01*
X135456202Y-40342328D01*
X135456206Y-40342335D01*
X135542452Y-40457544D01*
X135542455Y-40457547D01*
X135657664Y-40543793D01*
X135657671Y-40543797D01*
X135792517Y-40594091D01*
X135792516Y-40594091D01*
X135799444Y-40594835D01*
X135852127Y-40600500D01*
X137647872Y-40600499D01*
X137707483Y-40594091D01*
X137842331Y-40543796D01*
X137957546Y-40457546D01*
X138043796Y-40342331D01*
X138092810Y-40210916D01*
X138134681Y-40154984D01*
X138200145Y-40130566D01*
X138268418Y-40145417D01*
X138296673Y-40166569D01*
X138418599Y-40288495D01*
X138495743Y-40342512D01*
X138612165Y-40424032D01*
X138612167Y-40424033D01*
X138612170Y-40424035D01*
X138826337Y-40523903D01*
X139054592Y-40585063D01*
X139231034Y-40600500D01*
X139289999Y-40605659D01*
X139290000Y-40605659D01*
X139290001Y-40605659D01*
X139348966Y-40600500D01*
X139525408Y-40585063D01*
X139753663Y-40523903D01*
X139967830Y-40424035D01*
X140161401Y-40288495D01*
X140328495Y-40121401D01*
X140458425Y-39935842D01*
X140513002Y-39892217D01*
X140582500Y-39885023D01*
X140644855Y-39916546D01*
X140661575Y-39935842D01*
X140791500Y-40121395D01*
X140791505Y-40121401D01*
X140958599Y-40288495D01*
X141149624Y-40422252D01*
X141193248Y-40476828D01*
X141202500Y-40523826D01*
X141202500Y-47358719D01*
X141182815Y-47425758D01*
X141166181Y-47446400D01*
X133276400Y-55336181D01*
X133215077Y-55369666D01*
X133188719Y-55372500D01*
X130211345Y-55372500D01*
X130174684Y-55366957D01*
X129774400Y-55243072D01*
X129745525Y-55235067D01*
X129740273Y-55234089D01*
X129740388Y-55233467D01*
X129720560Y-55229084D01*
X129679254Y-55214631D01*
X129500004Y-55194435D01*
X129499996Y-55194435D01*
X129320750Y-55214630D01*
X129320745Y-55214631D01*
X129150476Y-55274211D01*
X128997737Y-55370184D01*
X128870184Y-55497737D01*
X128774211Y-55650476D01*
X128714631Y-55820745D01*
X128714630Y-55820750D01*
X128694435Y-55999996D01*
X128694435Y-56000003D01*
X128714630Y-56179249D01*
X128714633Y-56179262D01*
X128774209Y-56349520D01*
X128827309Y-56434029D01*
X128846309Y-56501266D01*
X128827309Y-56565971D01*
X128774209Y-56650479D01*
X128714633Y-56820737D01*
X128714630Y-56820750D01*
X128694435Y-56999996D01*
X128694435Y-57000003D01*
X128714630Y-57179249D01*
X128714631Y-57179254D01*
X128774211Y-57349523D01*
X128851473Y-57472484D01*
X128870184Y-57502262D01*
X128997738Y-57629816D01*
X129002874Y-57633043D01*
X129132721Y-57714632D01*
X129150478Y-57725789D01*
X129245953Y-57759197D01*
X129320745Y-57785368D01*
X129320750Y-57785369D01*
X129499996Y-57805565D01*
X129500000Y-57805565D01*
X129500004Y-57805565D01*
X129679248Y-57785369D01*
X129679248Y-57785368D01*
X129679255Y-57785368D01*
X129738547Y-57764620D01*
X129760052Y-57759199D01*
X129774415Y-57756921D01*
X130174678Y-57633043D01*
X130211339Y-57627500D01*
X136561804Y-57627500D01*
X136561805Y-57627499D01*
X136683035Y-57603386D01*
X136763784Y-57569937D01*
X136797233Y-57556083D01*
X136900008Y-57487411D01*
X136987411Y-57400008D01*
X144857411Y-49530008D01*
X144857498Y-49529877D01*
X144869840Y-49511408D01*
X144926076Y-49427243D01*
X144926083Y-49427233D01*
X144945676Y-49379930D01*
X144973386Y-49313034D01*
X144997500Y-49191803D01*
X144997500Y-49068197D01*
X144997500Y-40523826D01*
X145017185Y-40456787D01*
X145050375Y-40422252D01*
X145241401Y-40288495D01*
X145408495Y-40121401D01*
X145538425Y-39935842D01*
X145593002Y-39892217D01*
X145662500Y-39885023D01*
X145724855Y-39916546D01*
X145741575Y-39935842D01*
X145871500Y-40121395D01*
X145871505Y-40121401D01*
X146038599Y-40288495D01*
X146115743Y-40342512D01*
X146232165Y-40424032D01*
X146232167Y-40424033D01*
X146232170Y-40424035D01*
X146446337Y-40523903D01*
X146674592Y-40585063D01*
X146851034Y-40600500D01*
X146909999Y-40605659D01*
X146910000Y-40605659D01*
X146910001Y-40605659D01*
X146968966Y-40600500D01*
X147145408Y-40585063D01*
X147373663Y-40523903D01*
X147587830Y-40424035D01*
X147781401Y-40288495D01*
X147948495Y-40121401D01*
X148078730Y-39935405D01*
X148133307Y-39891781D01*
X148202805Y-39884587D01*
X148265160Y-39916110D01*
X148281879Y-39935405D01*
X148411890Y-40121078D01*
X148578917Y-40288105D01*
X148772421Y-40423600D01*
X148986507Y-40523429D01*
X148986516Y-40523433D01*
X149200000Y-40580634D01*
X149200000Y-39683012D01*
X149257007Y-39715925D01*
X149384174Y-39750000D01*
X149515826Y-39750000D01*
X149642993Y-39715925D01*
X149700000Y-39683012D01*
X149700000Y-40580633D01*
X149913483Y-40523433D01*
X149913492Y-40523429D01*
X150127578Y-40423600D01*
X150321082Y-40288105D01*
X150488105Y-40121082D01*
X150618119Y-39935405D01*
X150672696Y-39891781D01*
X150742195Y-39884588D01*
X150804549Y-39916110D01*
X150821269Y-39935405D01*
X150951505Y-40121401D01*
X151118599Y-40288495D01*
X151195743Y-40342512D01*
X151312165Y-40424032D01*
X151312167Y-40424033D01*
X151312170Y-40424035D01*
X151526337Y-40523903D01*
X151754592Y-40585063D01*
X151931034Y-40600500D01*
X151989999Y-40605659D01*
X151990000Y-40605659D01*
X151990001Y-40605659D01*
X152048966Y-40600500D01*
X152225408Y-40585063D01*
X152453663Y-40523903D01*
X152667830Y-40424035D01*
X152861401Y-40288495D01*
X153028495Y-40121401D01*
X153164035Y-39927830D01*
X153263903Y-39713663D01*
X153325063Y-39485408D01*
X153345659Y-39250000D01*
X153325063Y-39014592D01*
X153263903Y-38786337D01*
X153164035Y-38572171D01*
X153158731Y-38564595D01*
X153028494Y-38378597D01*
X152861402Y-38211506D01*
X152861395Y-38211501D01*
X152667834Y-38075967D01*
X152667830Y-38075965D01*
X152657249Y-38071031D01*
X152453663Y-37976097D01*
X152453659Y-37976096D01*
X152453655Y-37976094D01*
X152225413Y-37914938D01*
X152225403Y-37914936D01*
X151990001Y-37894341D01*
X151989999Y-37894341D01*
X151754596Y-37914936D01*
X151754586Y-37914938D01*
X151526344Y-37976094D01*
X151526335Y-37976098D01*
X151312171Y-38075964D01*
X151312169Y-38075965D01*
X151118597Y-38211505D01*
X150951508Y-38378594D01*
X150821269Y-38564595D01*
X150766692Y-38608219D01*
X150697193Y-38615412D01*
X150634839Y-38583890D01*
X150618119Y-38564594D01*
X150488113Y-38378926D01*
X150488108Y-38378920D01*
X150321082Y-38211894D01*
X150127578Y-38076399D01*
X149913492Y-37976570D01*
X149913486Y-37976567D01*
X149700000Y-37919364D01*
X149700000Y-38816988D01*
X149642993Y-38784075D01*
X149515826Y-38750000D01*
X149384174Y-38750000D01*
X149257007Y-38784075D01*
X149200000Y-38816988D01*
X149200000Y-37919364D01*
X149199999Y-37919364D01*
X148986513Y-37976567D01*
X148986507Y-37976570D01*
X148772422Y-38076399D01*
X148772420Y-38076400D01*
X148578926Y-38211886D01*
X148578920Y-38211891D01*
X148411891Y-38378920D01*
X148411890Y-38378922D01*
X148281880Y-38564595D01*
X148227303Y-38608219D01*
X148157804Y-38615412D01*
X148095450Y-38583890D01*
X148078730Y-38564594D01*
X147948494Y-38378597D01*
X147781402Y-38211506D01*
X147781401Y-38211505D01*
X147704508Y-38157664D01*
X147590375Y-38077747D01*
X147546752Y-38023171D01*
X147537500Y-37976173D01*
X147537500Y-36250000D01*
X162294457Y-36250000D01*
X162314612Y-36608902D01*
X162314614Y-36608914D01*
X162374826Y-36963296D01*
X162374828Y-36963305D01*
X162474339Y-37308718D01*
X162611905Y-37640831D01*
X162785790Y-37955454D01*
X162993805Y-38248622D01*
X162993806Y-38248623D01*
X163233339Y-38516661D01*
X163501377Y-38756194D01*
X163794548Y-38964211D01*
X164109167Y-39138094D01*
X164441276Y-39275659D01*
X164786700Y-39375173D01*
X165141093Y-39435387D01*
X165500000Y-39455543D01*
X165858907Y-39435387D01*
X166213300Y-39375173D01*
X166558724Y-39275659D01*
X166890833Y-39138094D01*
X167205452Y-38964211D01*
X167498623Y-38756194D01*
X167766661Y-38516661D01*
X168006194Y-38248623D01*
X168214211Y-37955452D01*
X168388094Y-37640833D01*
X168525659Y-37308724D01*
X168625173Y-36963300D01*
X168685387Y-36608907D01*
X168705543Y-36250000D01*
X168685387Y-35891093D01*
X168625173Y-35536700D01*
X168525659Y-35191276D01*
X168388094Y-34859167D01*
X168214211Y-34544548D01*
X168006194Y-34251377D01*
X167766661Y-33983339D01*
X167513299Y-33756921D01*
X167498622Y-33743805D01*
X167205454Y-33535790D01*
X166890831Y-33361905D01*
X166804086Y-33325974D01*
X166558724Y-33224341D01*
X166558720Y-33224339D01*
X166558718Y-33224339D01*
X166213305Y-33124828D01*
X166213296Y-33124826D01*
X165858914Y-33064614D01*
X165858902Y-33064612D01*
X165500000Y-33044457D01*
X165141097Y-33064612D01*
X165141085Y-33064614D01*
X164786703Y-33124826D01*
X164786694Y-33124828D01*
X164441281Y-33224339D01*
X164109168Y-33361905D01*
X163794545Y-33535790D01*
X163501377Y-33743805D01*
X163233339Y-33983339D01*
X162993805Y-34251377D01*
X162785790Y-34544545D01*
X162611905Y-34859168D01*
X162474339Y-35191281D01*
X162374828Y-35536694D01*
X162374826Y-35536703D01*
X162314614Y-35891085D01*
X162314612Y-35891097D01*
X162294457Y-36250000D01*
X147537500Y-36250000D01*
X147537500Y-34848196D01*
X147537499Y-34848192D01*
X147513386Y-34726965D01*
X147468412Y-34618392D01*
X147466764Y-34613786D01*
X147397414Y-34509996D01*
X147397413Y-34509994D01*
X147397411Y-34509992D01*
X147310008Y-34422589D01*
X145599600Y-32712181D01*
X145566115Y-32650858D01*
X145571099Y-32581166D01*
X145612971Y-32525233D01*
X145678435Y-32500816D01*
X145687281Y-32500500D01*
X169125500Y-32500500D01*
X169192539Y-32520185D01*
X169238294Y-32572989D01*
X169249500Y-32624500D01*
X169249500Y-88875500D01*
X169229815Y-88942539D01*
X169177011Y-88988294D01*
X169125500Y-88999500D01*
X103874500Y-88999500D01*
X103807461Y-88979815D01*
X103761706Y-88927011D01*
X103750500Y-88875500D01*
X103750500Y-85250000D01*
X104294457Y-85250000D01*
X104314612Y-85608902D01*
X104314613Y-85608907D01*
X104374827Y-85963300D01*
X104474341Y-86308724D01*
X104611906Y-86640833D01*
X104785789Y-86955452D01*
X104993806Y-87248623D01*
X105233339Y-87516661D01*
X105501377Y-87756194D01*
X105794548Y-87964211D01*
X106109167Y-88138094D01*
X106441276Y-88275659D01*
X106786700Y-88375173D01*
X107141093Y-88435387D01*
X107500000Y-88455543D01*
X107858907Y-88435387D01*
X108213300Y-88375173D01*
X108558724Y-88275659D01*
X108890833Y-88138094D01*
X109205452Y-87964211D01*
X109498623Y-87756194D01*
X109766661Y-87516661D01*
X110006194Y-87248623D01*
X110214211Y-86955452D01*
X110388094Y-86640833D01*
X110525659Y-86308724D01*
X110625173Y-85963300D01*
X110685387Y-85608907D01*
X110705543Y-85250000D01*
X162294457Y-85250000D01*
X162314612Y-85608902D01*
X162314613Y-85608907D01*
X162374827Y-85963300D01*
X162474341Y-86308724D01*
X162611906Y-86640833D01*
X162785789Y-86955452D01*
X162993806Y-87248623D01*
X163233339Y-87516661D01*
X163501377Y-87756194D01*
X163794548Y-87964211D01*
X164109167Y-88138094D01*
X164441276Y-88275659D01*
X164786700Y-88375173D01*
X165141093Y-88435387D01*
X165500000Y-88455543D01*
X165858907Y-88435387D01*
X166213300Y-88375173D01*
X166558724Y-88275659D01*
X166890833Y-88138094D01*
X167205452Y-87964211D01*
X167498623Y-87756194D01*
X167766661Y-87516661D01*
X168006194Y-87248623D01*
X168214211Y-86955452D01*
X168388094Y-86640833D01*
X168525659Y-86308724D01*
X168625173Y-85963300D01*
X168685387Y-85608907D01*
X168705543Y-85250000D01*
X168685387Y-84891093D01*
X168625173Y-84536700D01*
X168525659Y-84191276D01*
X168388094Y-83859167D01*
X168214211Y-83544548D01*
X168129741Y-83425500D01*
X168006194Y-83251377D01*
X167928479Y-83164414D01*
X167766661Y-82983339D01*
X167498623Y-82743806D01*
X167271568Y-82582701D01*
X167205454Y-82535790D01*
X167048142Y-82448847D01*
X166890833Y-82361906D01*
X166558724Y-82224341D01*
X166558720Y-82224339D01*
X166558718Y-82224339D01*
X166213305Y-82124828D01*
X166213296Y-82124826D01*
X165858914Y-82064614D01*
X165858902Y-82064612D01*
X165500000Y-82044457D01*
X165141097Y-82064612D01*
X165141085Y-82064614D01*
X164786703Y-82124826D01*
X164786694Y-82124828D01*
X164441281Y-82224339D01*
X164109168Y-82361905D01*
X163794545Y-82535790D01*
X163501377Y-82743805D01*
X163233339Y-82983339D01*
X162993805Y-83251377D01*
X162785790Y-83544545D01*
X162611905Y-83859168D01*
X162474339Y-84191281D01*
X162374828Y-84536694D01*
X162374826Y-84536703D01*
X162314614Y-84891085D01*
X162314612Y-84891097D01*
X162294457Y-85250000D01*
X110705543Y-85250000D01*
X110685387Y-84891093D01*
X110625173Y-84536700D01*
X110525659Y-84191276D01*
X110388094Y-83859167D01*
X110214211Y-83544548D01*
X110129741Y-83425500D01*
X110006194Y-83251377D01*
X109928479Y-83164414D01*
X109766661Y-82983339D01*
X109498623Y-82743806D01*
X109271568Y-82582701D01*
X109205454Y-82535790D01*
X109048142Y-82448847D01*
X108890833Y-82361906D01*
X108558724Y-82224341D01*
X108558720Y-82224339D01*
X108558718Y-82224339D01*
X108213305Y-82124828D01*
X108213296Y-82124826D01*
X107858914Y-82064614D01*
X107858902Y-82064612D01*
X107500000Y-82044457D01*
X107141097Y-82064612D01*
X107141085Y-82064614D01*
X106786703Y-82124826D01*
X106786694Y-82124828D01*
X106441281Y-82224339D01*
X106109168Y-82361905D01*
X105794545Y-82535790D01*
X105501377Y-82743805D01*
X105233339Y-82983339D01*
X104993805Y-83251377D01*
X104785790Y-83544545D01*
X104611905Y-83859168D01*
X104474339Y-84191281D01*
X104374828Y-84536694D01*
X104374826Y-84536703D01*
X104314614Y-84891085D01*
X104314612Y-84891097D01*
X104294457Y-85250000D01*
X103750500Y-85250000D01*
X103750500Y-81375013D01*
X117650000Y-81375013D01*
X117650000Y-81800000D01*
X118469670Y-81800000D01*
X118449925Y-81819745D01*
X118400556Y-81905255D01*
X118375000Y-82000630D01*
X118375000Y-82099370D01*
X118400556Y-82194745D01*
X118449925Y-82280255D01*
X118469670Y-82300000D01*
X117650001Y-82300000D01*
X117650001Y-82724986D01*
X117660494Y-82827697D01*
X117715641Y-82994119D01*
X117715643Y-82994124D01*
X117807684Y-83143345D01*
X117931654Y-83267315D01*
X118080875Y-83359356D01*
X118080880Y-83359358D01*
X118247302Y-83414505D01*
X118247309Y-83414506D01*
X118350019Y-83424999D01*
X118499999Y-83424999D01*
X118500000Y-83424998D01*
X118500000Y-82330330D01*
X118519745Y-82350075D01*
X118605255Y-82399444D01*
X118700630Y-82425000D01*
X118799370Y-82425000D01*
X118894745Y-82399444D01*
X118980255Y-82350075D01*
X119000000Y-82330330D01*
X119000000Y-83424999D01*
X119149972Y-83424999D01*
X119149986Y-83424998D01*
X119252697Y-83414505D01*
X119419119Y-83359358D01*
X119419124Y-83359356D01*
X119568345Y-83267315D01*
X119692315Y-83143345D01*
X119731945Y-83079094D01*
X119783893Y-83032368D01*
X119852855Y-83021145D01*
X119916937Y-83048988D01*
X119925166Y-83056508D01*
X120033072Y-83164414D01*
X120173212Y-83266232D01*
X120327555Y-83344873D01*
X120492299Y-83398402D01*
X120663389Y-83425500D01*
X120663390Y-83425500D01*
X120836610Y-83425500D01*
X120836611Y-83425500D01*
X121007701Y-83398402D01*
X121172445Y-83344873D01*
X121326788Y-83266232D01*
X121466928Y-83164414D01*
X121589414Y-83041928D01*
X121649682Y-82958975D01*
X121705012Y-82916311D01*
X121774626Y-82910332D01*
X121836421Y-82942938D01*
X121850315Y-82958973D01*
X121910586Y-83041928D01*
X122033072Y-83164414D01*
X122173212Y-83266232D01*
X122327555Y-83344873D01*
X122492299Y-83398402D01*
X122663389Y-83425500D01*
X122663390Y-83425500D01*
X122836610Y-83425500D01*
X122836611Y-83425500D01*
X123007701Y-83398402D01*
X123172445Y-83344873D01*
X123326788Y-83266232D01*
X123466928Y-83164414D01*
X123589414Y-83041928D01*
X123649991Y-82958550D01*
X123705321Y-82915885D01*
X123774934Y-82909906D01*
X123836729Y-82942512D01*
X123850628Y-82958551D01*
X123910967Y-83041602D01*
X124033397Y-83164032D01*
X124173475Y-83265804D01*
X124327744Y-83344408D01*
X124492415Y-83397914D01*
X124492414Y-83397914D01*
X124499999Y-83399115D01*
X124500000Y-83399114D01*
X124500000Y-82330330D01*
X124519745Y-82350075D01*
X124605255Y-82399444D01*
X124700630Y-82425000D01*
X124799370Y-82425000D01*
X124894745Y-82399444D01*
X124980255Y-82350075D01*
X125000000Y-82330330D01*
X125000000Y-83399115D01*
X125007584Y-83397914D01*
X125172255Y-83344408D01*
X125326524Y-83265804D01*
X125466602Y-83164032D01*
X125589036Y-83041598D01*
X125649371Y-82958552D01*
X125704700Y-82915886D01*
X125774313Y-82909905D01*
X125836109Y-82942510D01*
X125850008Y-82958550D01*
X125850318Y-82958976D01*
X125910586Y-83041928D01*
X126033072Y-83164414D01*
X126173212Y-83266232D01*
X126327555Y-83344873D01*
X126492299Y-83398402D01*
X126663389Y-83425500D01*
X126663390Y-83425500D01*
X126836610Y-83425500D01*
X126836611Y-83425500D01*
X127007701Y-83398402D01*
X127172445Y-83344873D01*
X127326788Y-83266232D01*
X127466928Y-83164414D01*
X127589414Y-83041928D01*
X127649682Y-82958975D01*
X127705012Y-82916311D01*
X127774626Y-82910332D01*
X127836421Y-82942938D01*
X127850315Y-82958973D01*
X127910586Y-83041928D01*
X128033072Y-83164414D01*
X128173212Y-83266232D01*
X128327555Y-83344873D01*
X128492299Y-83398402D01*
X128663389Y-83425500D01*
X128663390Y-83425500D01*
X128836610Y-83425500D01*
X128836611Y-83425500D01*
X129007701Y-83398402D01*
X129172445Y-83344873D01*
X129326788Y-83266232D01*
X129466928Y-83164414D01*
X129589414Y-83041928D01*
X129691232Y-82901788D01*
X129769873Y-82747445D01*
X129823402Y-82582701D01*
X129850500Y-82411611D01*
X129850500Y-81688389D01*
X129823402Y-81517299D01*
X129769873Y-81352555D01*
X129691232Y-81198212D01*
X129589414Y-81058072D01*
X129466928Y-80935586D01*
X129326788Y-80833768D01*
X129172445Y-80755127D01*
X129007701Y-80701598D01*
X129007699Y-80701597D01*
X129007698Y-80701597D01*
X128876271Y-80680781D01*
X128836611Y-80674500D01*
X128663389Y-80674500D01*
X128623728Y-80680781D01*
X128492302Y-80701597D01*
X128327552Y-80755128D01*
X128173211Y-80833768D01*
X128093256Y-80891859D01*
X128033072Y-80935586D01*
X128033070Y-80935588D01*
X128033069Y-80935588D01*
X127910588Y-81058069D01*
X127910581Y-81058078D01*
X127850317Y-81141023D01*
X127794987Y-81183689D01*
X127725374Y-81189667D01*
X127663579Y-81157061D01*
X127649683Y-81141023D01*
X127601899Y-81075257D01*
X127589414Y-81058072D01*
X127540819Y-81009477D01*
X127507334Y-80948154D01*
X127504500Y-80921796D01*
X127504500Y-78815397D01*
X127510610Y-78776952D01*
X127595607Y-78516367D01*
X127607369Y-78490691D01*
X127668478Y-78389606D01*
X127719086Y-78227196D01*
X127725500Y-78156616D01*
X127725500Y-77643384D01*
X127719086Y-77572804D01*
X127668478Y-77410394D01*
X127580472Y-77264815D01*
X127580470Y-77264813D01*
X127580469Y-77264811D01*
X127478339Y-77162681D01*
X127444854Y-77101358D01*
X127449838Y-77031666D01*
X127478339Y-76987319D01*
X127580468Y-76885189D01*
X127580469Y-76885188D01*
X127580472Y-76885185D01*
X127668478Y-76739606D01*
X127719086Y-76577196D01*
X127725500Y-76506616D01*
X127725500Y-75993384D01*
X127719086Y-75922804D01*
X127668478Y-75760394D01*
X127607369Y-75659309D01*
X127595604Y-75633622D01*
X127510613Y-75373053D01*
X127504500Y-75334601D01*
X127504500Y-74990397D01*
X127510611Y-74951951D01*
X127544979Y-74846584D01*
X127584479Y-74788958D01*
X127608073Y-74773802D01*
X127726965Y-74715255D01*
X127781743Y-74702500D01*
X127986804Y-74702500D01*
X127986805Y-74702499D01*
X128108035Y-74678386D01*
X128188784Y-74644937D01*
X128222233Y-74631083D01*
X128325008Y-74562411D01*
X128387423Y-74499996D01*
X137194435Y-74499996D01*
X137194435Y-74500003D01*
X137214630Y-74679249D01*
X137214631Y-74679254D01*
X137274211Y-74849523D01*
X137317538Y-74918477D01*
X137370184Y-75002262D01*
X137497738Y-75129816D01*
X137650478Y-75225789D01*
X137650482Y-75225790D01*
X137656746Y-75228807D01*
X137656739Y-75228819D01*
X137663824Y-75231905D01*
X138029441Y-75424699D01*
X138059284Y-75446703D01*
X141836181Y-79223600D01*
X141869666Y-79284923D01*
X141872500Y-79311281D01*
X141872500Y-80807431D01*
X141852815Y-80874470D01*
X141821387Y-80907748D01*
X141783072Y-80935585D01*
X141660588Y-81058069D01*
X141660581Y-81058078D01*
X141600317Y-81141023D01*
X141544987Y-81183689D01*
X141475374Y-81189667D01*
X141413579Y-81157061D01*
X141399683Y-81141023D01*
X141351899Y-81075257D01*
X141339414Y-81058072D01*
X141216928Y-80935586D01*
X141076788Y-80833768D01*
X140922445Y-80755127D01*
X140757701Y-80701598D01*
X140757699Y-80701597D01*
X140757698Y-80701597D01*
X140626271Y-80680781D01*
X140586611Y-80674500D01*
X140413389Y-80674500D01*
X140373728Y-80680781D01*
X140242302Y-80701597D01*
X140077552Y-80755128D01*
X139923211Y-80833768D01*
X139783073Y-80935585D01*
X139675166Y-81043492D01*
X139613843Y-81076976D01*
X139544151Y-81071992D01*
X139488218Y-81030120D01*
X139481946Y-81020906D01*
X139442317Y-80956656D01*
X139318345Y-80832684D01*
X139169124Y-80740643D01*
X139169119Y-80740641D01*
X139002697Y-80685494D01*
X139002690Y-80685493D01*
X138899986Y-80675000D01*
X138750000Y-80675000D01*
X138750000Y-81769670D01*
X138730255Y-81749925D01*
X138644745Y-81700556D01*
X138549370Y-81675000D01*
X138450630Y-81675000D01*
X138355255Y-81700556D01*
X138269745Y-81749925D01*
X138250000Y-81769670D01*
X138250000Y-80675000D01*
X138100027Y-80675000D01*
X138100012Y-80675001D01*
X137997302Y-80685494D01*
X137830880Y-80740641D01*
X137830875Y-80740643D01*
X137681654Y-80832684D01*
X137557684Y-80956654D01*
X137465643Y-81105875D01*
X137465641Y-81105880D01*
X137410494Y-81272302D01*
X137410493Y-81272309D01*
X137400000Y-81375013D01*
X137400000Y-81800000D01*
X138219670Y-81800000D01*
X138199925Y-81819745D01*
X138150556Y-81905255D01*
X138125000Y-82000630D01*
X138125000Y-82099370D01*
X138150556Y-82194745D01*
X138199925Y-82280255D01*
X138219670Y-82300000D01*
X137400001Y-82300000D01*
X137400001Y-82724986D01*
X137410494Y-82827697D01*
X137465641Y-82994119D01*
X137465643Y-82994124D01*
X137557684Y-83143345D01*
X137681654Y-83267315D01*
X137830875Y-83359356D01*
X137830880Y-83359358D01*
X137997302Y-83414505D01*
X137997309Y-83414506D01*
X138100019Y-83424999D01*
X138249999Y-83424999D01*
X138250000Y-83424998D01*
X138250000Y-82330330D01*
X138269745Y-82350075D01*
X138355255Y-82399444D01*
X138450630Y-82425000D01*
X138549370Y-82425000D01*
X138644745Y-82399444D01*
X138730255Y-82350075D01*
X138750000Y-82330330D01*
X138750000Y-83424999D01*
X138899972Y-83424999D01*
X138899986Y-83424998D01*
X139002697Y-83414505D01*
X139169119Y-83359358D01*
X139169124Y-83359356D01*
X139318345Y-83267315D01*
X139442315Y-83143345D01*
X139481945Y-83079094D01*
X139533893Y-83032368D01*
X139602855Y-83021145D01*
X139666937Y-83048988D01*
X139675166Y-83056508D01*
X139783072Y-83164414D01*
X139923212Y-83266232D01*
X140077555Y-83344873D01*
X140242299Y-83398402D01*
X140413389Y-83425500D01*
X140413390Y-83425500D01*
X140586610Y-83425500D01*
X140586611Y-83425500D01*
X140757701Y-83398402D01*
X140922445Y-83344873D01*
X141076788Y-83266232D01*
X141216928Y-83164414D01*
X141339414Y-83041928D01*
X141399682Y-82958975D01*
X141455012Y-82916311D01*
X141524626Y-82910332D01*
X141586421Y-82942938D01*
X141600315Y-82958973D01*
X141660586Y-83041928D01*
X141783072Y-83164414D01*
X141923212Y-83266232D01*
X142077555Y-83344873D01*
X142242299Y-83398402D01*
X142413389Y-83425500D01*
X142413390Y-83425500D01*
X142586610Y-83425500D01*
X142586611Y-83425500D01*
X142757701Y-83398402D01*
X142922445Y-83344873D01*
X143076788Y-83266232D01*
X143216928Y-83164414D01*
X143339414Y-83041928D01*
X143399682Y-82958975D01*
X143455012Y-82916311D01*
X143524626Y-82910332D01*
X143586421Y-82942938D01*
X143600315Y-82958973D01*
X143660586Y-83041928D01*
X143783072Y-83164414D01*
X143923212Y-83266232D01*
X144077555Y-83344873D01*
X144242299Y-83398402D01*
X144413389Y-83425500D01*
X144413390Y-83425500D01*
X144586610Y-83425500D01*
X144586611Y-83425500D01*
X144757701Y-83398402D01*
X144922445Y-83344873D01*
X145076788Y-83266232D01*
X145216928Y-83164414D01*
X145339414Y-83041928D01*
X145441232Y-82901788D01*
X145519873Y-82747445D01*
X145573402Y-82582701D01*
X145600500Y-82411611D01*
X145600500Y-81688389D01*
X145573402Y-81517299D01*
X145519873Y-81352555D01*
X145441232Y-81198212D01*
X145339414Y-81058072D01*
X145216928Y-80935586D01*
X145076788Y-80833768D01*
X144922445Y-80755127D01*
X144757701Y-80701598D01*
X144757699Y-80701597D01*
X144757698Y-80701597D01*
X144626271Y-80680781D01*
X144586611Y-80674500D01*
X144413389Y-80674500D01*
X144373728Y-80680781D01*
X144242302Y-80701597D01*
X144077552Y-80755128D01*
X143923211Y-80833768D01*
X143843256Y-80891859D01*
X143783072Y-80935586D01*
X143783070Y-80935588D01*
X143783069Y-80935588D01*
X143660588Y-81058069D01*
X143660581Y-81058078D01*
X143600317Y-81141023D01*
X143544987Y-81183689D01*
X143475374Y-81189667D01*
X143413579Y-81157061D01*
X143399683Y-81141023D01*
X143351899Y-81075257D01*
X143339414Y-81058072D01*
X143216928Y-80935586D01*
X143178613Y-80907748D01*
X143135948Y-80852417D01*
X143127500Y-80807431D01*
X143127500Y-78938196D01*
X143127499Y-78938192D01*
X143103387Y-78816972D01*
X143103386Y-78816965D01*
X143058412Y-78708392D01*
X143056764Y-78703786D01*
X142987414Y-78599996D01*
X142987413Y-78599994D01*
X142987411Y-78599992D01*
X142900008Y-78512589D01*
X138946703Y-74559284D01*
X138924699Y-74529441D01*
X138909176Y-74500003D01*
X138731909Y-74163830D01*
X138728822Y-74156744D01*
X138728810Y-74156751D01*
X138725789Y-74150477D01*
X138631237Y-74000000D01*
X138629816Y-73997738D01*
X138502262Y-73870184D01*
X138349523Y-73774211D01*
X138179254Y-73714631D01*
X138179249Y-73714630D01*
X138000004Y-73694435D01*
X137999996Y-73694435D01*
X137820750Y-73714630D01*
X137820745Y-73714631D01*
X137650476Y-73774211D01*
X137497737Y-73870184D01*
X137370184Y-73997737D01*
X137274211Y-74150476D01*
X137214631Y-74320745D01*
X137214630Y-74320750D01*
X137194435Y-74499996D01*
X128387423Y-74499996D01*
X128412411Y-74475008D01*
X130289989Y-72597428D01*
X130351312Y-72563944D01*
X130421004Y-72568928D01*
X130465351Y-72597429D01*
X130497738Y-72629816D01*
X130650478Y-72725789D01*
X130725688Y-72752106D01*
X130820745Y-72785368D01*
X130820750Y-72785369D01*
X130999996Y-72805565D01*
X131000000Y-72805565D01*
X131000004Y-72805565D01*
X131179249Y-72785369D01*
X131179252Y-72785368D01*
X131179255Y-72785368D01*
X131349522Y-72725789D01*
X131502262Y-72629816D01*
X131629816Y-72502262D01*
X131725789Y-72349522D01*
X131785368Y-72179255D01*
X131785369Y-72179249D01*
X131805565Y-72000003D01*
X131805565Y-71999996D01*
X131785369Y-71820748D01*
X131764628Y-71761475D01*
X131759200Y-71739946D01*
X131756922Y-71725588D01*
X131756922Y-71725585D01*
X131633043Y-71325316D01*
X131627500Y-71288655D01*
X131627500Y-69211343D01*
X131633043Y-69174682D01*
X131633044Y-69174680D01*
X131756922Y-68774414D01*
X131764931Y-68745530D01*
X131764932Y-68745514D01*
X131765912Y-68740264D01*
X131766541Y-68740381D01*
X131770915Y-68720556D01*
X131785368Y-68679255D01*
X131802615Y-68526182D01*
X131805565Y-68500003D01*
X131805565Y-68499996D01*
X131785369Y-68320750D01*
X131785368Y-68320745D01*
X131759212Y-68245995D01*
X131725789Y-68150478D01*
X131629816Y-67997738D01*
X131502262Y-67870184D01*
X131406668Y-67810118D01*
X131349523Y-67774211D01*
X131179254Y-67714631D01*
X131179249Y-67714630D01*
X131000004Y-67694435D01*
X130999996Y-67694435D01*
X130820750Y-67714630D01*
X130820737Y-67714633D01*
X130650479Y-67774209D01*
X130565971Y-67827309D01*
X130498734Y-67846309D01*
X130434029Y-67827309D01*
X130349520Y-67774209D01*
X130179262Y-67714633D01*
X130179249Y-67714630D01*
X130000004Y-67694435D01*
X129999996Y-67694435D01*
X129820750Y-67714630D01*
X129820745Y-67714631D01*
X129650476Y-67774211D01*
X129497737Y-67870184D01*
X129370184Y-67997737D01*
X129274211Y-68150476D01*
X129214631Y-68320745D01*
X129214630Y-68320750D01*
X129194435Y-68499996D01*
X129194435Y-68500003D01*
X129214631Y-68679253D01*
X129214631Y-68679254D01*
X129235373Y-68738533D01*
X129240797Y-68760047D01*
X129243078Y-68774415D01*
X129353072Y-69129816D01*
X129366957Y-69174680D01*
X129372500Y-69211341D01*
X129372500Y-71688718D01*
X129352815Y-71755757D01*
X129336181Y-71776399D01*
X127756840Y-73355739D01*
X127695517Y-73389224D01*
X127625825Y-73384240D01*
X127614385Y-73379304D01*
X127532695Y-73339076D01*
X127481250Y-73291801D01*
X127463530Y-73224215D01*
X127485162Y-73157779D01*
X127499796Y-73140152D01*
X127580073Y-73059875D01*
X127668019Y-72914395D01*
X127718590Y-72752106D01*
X127725000Y-72681572D01*
X127725000Y-72675000D01*
X125775001Y-72675000D01*
X125775001Y-72681582D01*
X125781408Y-72752102D01*
X125781409Y-72752107D01*
X125831981Y-72914396D01*
X125919927Y-73059877D01*
X126022015Y-73161965D01*
X126055500Y-73223288D01*
X126050516Y-73292980D01*
X126022015Y-73337327D01*
X125919531Y-73439810D01*
X125919530Y-73439811D01*
X125831522Y-73585393D01*
X125780913Y-73747807D01*
X125778514Y-73774211D01*
X125774500Y-73818384D01*
X125774500Y-74331616D01*
X125775557Y-74343248D01*
X125780913Y-74402192D01*
X125780913Y-74402194D01*
X125780914Y-74402196D01*
X125829864Y-74559284D01*
X125831522Y-74564606D01*
X125892624Y-74665681D01*
X125904394Y-74691378D01*
X125989387Y-74951946D01*
X125995500Y-74990399D01*
X125995500Y-75334598D01*
X125989387Y-75373051D01*
X125904393Y-75633622D01*
X125892623Y-75659318D01*
X125831523Y-75760391D01*
X125780913Y-75922807D01*
X125774500Y-75993386D01*
X125774500Y-76506613D01*
X125780913Y-76577192D01*
X125831522Y-76739606D01*
X125919530Y-76885188D01*
X126021661Y-76987319D01*
X126055146Y-77048642D01*
X126050162Y-77118334D01*
X126021661Y-77162681D01*
X125919531Y-77264810D01*
X125919530Y-77264811D01*
X125831522Y-77410393D01*
X125780913Y-77572807D01*
X125774500Y-77643386D01*
X125774500Y-78156613D01*
X125780913Y-78227192D01*
X125831522Y-78389606D01*
X125892624Y-78490681D01*
X125904394Y-78516378D01*
X125989386Y-78776945D01*
X125989387Y-78776946D01*
X125995500Y-78815399D01*
X125995500Y-80921796D01*
X125975815Y-80988835D01*
X125959181Y-81009477D01*
X125910588Y-81058069D01*
X125910585Y-81058072D01*
X125850007Y-81141450D01*
X125794677Y-81184115D01*
X125725063Y-81190093D01*
X125663269Y-81157486D01*
X125649371Y-81141447D01*
X125589036Y-81058401D01*
X125466602Y-80935967D01*
X125326524Y-80834195D01*
X125172257Y-80755591D01*
X125007589Y-80702087D01*
X125007581Y-80702085D01*
X125000000Y-80700884D01*
X125000000Y-81769670D01*
X124980255Y-81749925D01*
X124894745Y-81700556D01*
X124799370Y-81675000D01*
X124700630Y-81675000D01*
X124605255Y-81700556D01*
X124519745Y-81749925D01*
X124500000Y-81769670D01*
X124500000Y-80700884D01*
X124499999Y-80700884D01*
X124492418Y-80702085D01*
X124492410Y-80702087D01*
X124327742Y-80755591D01*
X124173475Y-80834195D01*
X124033397Y-80935967D01*
X123910965Y-81058399D01*
X123910961Y-81058404D01*
X123850627Y-81141448D01*
X123795297Y-81184114D01*
X123725684Y-81190093D01*
X123663889Y-81157488D01*
X123649991Y-81141449D01*
X123649990Y-81141447D01*
X123589414Y-81058072D01*
X123466928Y-80935586D01*
X123326788Y-80833768D01*
X123172445Y-80755127D01*
X123007701Y-80701598D01*
X123007699Y-80701597D01*
X123007698Y-80701597D01*
X122876271Y-80680781D01*
X122836611Y-80674500D01*
X122663389Y-80674500D01*
X122623728Y-80680781D01*
X122492302Y-80701597D01*
X122327552Y-80755128D01*
X122173211Y-80833768D01*
X122093256Y-80891859D01*
X122033072Y-80935586D01*
X122033070Y-80935588D01*
X122033069Y-80935588D01*
X121910588Y-81058069D01*
X121910581Y-81058078D01*
X121850317Y-81141023D01*
X121794987Y-81183689D01*
X121725374Y-81189667D01*
X121663579Y-81157061D01*
X121649683Y-81141023D01*
X121601899Y-81075257D01*
X121589414Y-81058072D01*
X121540819Y-81009477D01*
X121507334Y-80948154D01*
X121504500Y-80921796D01*
X121504500Y-78815397D01*
X121510610Y-78776952D01*
X121595607Y-78516367D01*
X121607369Y-78490691D01*
X121668478Y-78389606D01*
X121719086Y-78227196D01*
X121725500Y-78156616D01*
X121725500Y-77643384D01*
X121719086Y-77572804D01*
X121668478Y-77410394D01*
X121580472Y-77264815D01*
X121580470Y-77264813D01*
X121580469Y-77264811D01*
X121478339Y-77162681D01*
X121444854Y-77101358D01*
X121449838Y-77031666D01*
X121478339Y-76987319D01*
X121580468Y-76885189D01*
X121580469Y-76885188D01*
X121580472Y-76885185D01*
X121668478Y-76739606D01*
X121719086Y-76577196D01*
X121725500Y-76506616D01*
X121725500Y-75993384D01*
X121719086Y-75922804D01*
X121668478Y-75760394D01*
X121607369Y-75659309D01*
X121595604Y-75633622D01*
X121510613Y-75373053D01*
X121504500Y-75334601D01*
X121504500Y-74990397D01*
X121510611Y-74951951D01*
X121544979Y-74846584D01*
X121584479Y-74788958D01*
X121608073Y-74773802D01*
X121726965Y-74715255D01*
X121781743Y-74702500D01*
X121986804Y-74702500D01*
X121986805Y-74702499D01*
X122108035Y-74678386D01*
X122188784Y-74644937D01*
X122222233Y-74631083D01*
X122325008Y-74562411D01*
X122412411Y-74475008D01*
X123789989Y-73097428D01*
X123851312Y-73063944D01*
X123921004Y-73068928D01*
X123965351Y-73097429D01*
X123997738Y-73129816D01*
X124068852Y-73174500D01*
X124146497Y-73223288D01*
X124150478Y-73225789D01*
X124280184Y-73271175D01*
X124320745Y-73285368D01*
X124320750Y-73285369D01*
X124499996Y-73305565D01*
X124500000Y-73305565D01*
X124500004Y-73305565D01*
X124679249Y-73285369D01*
X124679252Y-73285368D01*
X124679255Y-73285368D01*
X124849522Y-73225789D01*
X125002262Y-73129816D01*
X125129816Y-73002262D01*
X125225789Y-72849522D01*
X125285368Y-72679255D01*
X125285369Y-72679249D01*
X125305565Y-72500003D01*
X125305565Y-72499996D01*
X125285369Y-72320748D01*
X125264628Y-72261475D01*
X125259200Y-72239946D01*
X125256922Y-72225588D01*
X125256922Y-72225585D01*
X125239232Y-72168427D01*
X125775000Y-72168427D01*
X125775000Y-72175000D01*
X126500000Y-72175000D01*
X127000000Y-72175000D01*
X127724999Y-72175000D01*
X127724999Y-72168417D01*
X127718591Y-72097897D01*
X127718590Y-72097892D01*
X127668018Y-71935603D01*
X127580072Y-71790122D01*
X127459877Y-71669927D01*
X127314395Y-71581980D01*
X127314396Y-71581980D01*
X127152105Y-71531409D01*
X127152106Y-71531409D01*
X127081572Y-71525000D01*
X127000000Y-71525000D01*
X127000000Y-72175000D01*
X126500000Y-72175000D01*
X126500000Y-71525000D01*
X126499999Y-71524999D01*
X126418417Y-71525000D01*
X126347897Y-71531408D01*
X126347892Y-71531409D01*
X126185603Y-71581981D01*
X126040122Y-71669927D01*
X125919927Y-71790122D01*
X125831980Y-71935604D01*
X125781409Y-72097893D01*
X125775000Y-72168427D01*
X125239232Y-72168427D01*
X125133043Y-71825316D01*
X125127500Y-71788655D01*
X125127500Y-69211343D01*
X125133043Y-69174682D01*
X125133044Y-69174680D01*
X125256922Y-68774414D01*
X125264931Y-68745530D01*
X125264932Y-68745514D01*
X125265912Y-68740264D01*
X125266541Y-68740381D01*
X125270915Y-68720556D01*
X125285368Y-68679255D01*
X125302615Y-68526182D01*
X125305565Y-68500003D01*
X125305565Y-68499996D01*
X125285369Y-68320750D01*
X125285368Y-68320745D01*
X125259212Y-68245995D01*
X125225789Y-68150478D01*
X125129816Y-67997738D01*
X125002262Y-67870184D01*
X124906668Y-67810118D01*
X124849523Y-67774211D01*
X124679254Y-67714631D01*
X124679249Y-67714630D01*
X124500004Y-67694435D01*
X124499996Y-67694435D01*
X124320750Y-67714630D01*
X124320737Y-67714633D01*
X124150479Y-67774209D01*
X124065971Y-67827309D01*
X123998734Y-67846309D01*
X123934029Y-67827309D01*
X123849520Y-67774209D01*
X123679262Y-67714633D01*
X123679249Y-67714630D01*
X123500004Y-67694435D01*
X123499996Y-67694435D01*
X123320750Y-67714630D01*
X123320745Y-67714631D01*
X123150476Y-67774211D01*
X122997737Y-67870184D01*
X122870184Y-67997737D01*
X122774211Y-68150476D01*
X122714631Y-68320745D01*
X122714630Y-68320750D01*
X122694435Y-68499996D01*
X122694435Y-68500003D01*
X122714631Y-68679253D01*
X122714631Y-68679254D01*
X122735373Y-68738533D01*
X122740797Y-68760047D01*
X122743078Y-68774415D01*
X122853072Y-69129816D01*
X122866957Y-69174680D01*
X122872500Y-69211341D01*
X122872500Y-72188718D01*
X122852815Y-72255757D01*
X122836181Y-72276399D01*
X121756840Y-73355739D01*
X121695517Y-73389224D01*
X121625825Y-73384240D01*
X121614385Y-73379304D01*
X121532695Y-73339076D01*
X121481250Y-73291801D01*
X121463530Y-73224215D01*
X121485162Y-73157779D01*
X121499796Y-73140152D01*
X121580073Y-73059875D01*
X121668019Y-72914395D01*
X121718590Y-72752106D01*
X121725000Y-72681572D01*
X121725000Y-72675000D01*
X119775001Y-72675000D01*
X119775001Y-72681582D01*
X119781408Y-72752102D01*
X119781409Y-72752107D01*
X119831981Y-72914396D01*
X119919927Y-73059877D01*
X120022015Y-73161965D01*
X120055500Y-73223288D01*
X120050516Y-73292980D01*
X120022015Y-73337327D01*
X119919531Y-73439810D01*
X119919530Y-73439811D01*
X119831522Y-73585393D01*
X119780913Y-73747807D01*
X119778514Y-73774211D01*
X119774500Y-73818384D01*
X119774500Y-74331616D01*
X119775557Y-74343248D01*
X119780913Y-74402192D01*
X119780913Y-74402194D01*
X119780914Y-74402196D01*
X119829864Y-74559284D01*
X119831522Y-74564606D01*
X119892624Y-74665681D01*
X119904394Y-74691378D01*
X119989387Y-74951946D01*
X119995500Y-74990399D01*
X119995500Y-75334598D01*
X119989387Y-75373051D01*
X119904393Y-75633622D01*
X119892623Y-75659318D01*
X119831523Y-75760391D01*
X119780913Y-75922807D01*
X119774500Y-75993386D01*
X119774500Y-76506613D01*
X119780913Y-76577192D01*
X119831522Y-76739606D01*
X119919530Y-76885188D01*
X120021661Y-76987319D01*
X120055146Y-77048642D01*
X120050162Y-77118334D01*
X120021661Y-77162681D01*
X119919531Y-77264810D01*
X119919530Y-77264811D01*
X119831522Y-77410393D01*
X119780913Y-77572807D01*
X119774500Y-77643386D01*
X119774500Y-78156613D01*
X119780913Y-78227192D01*
X119831522Y-78389606D01*
X119892624Y-78490681D01*
X119904394Y-78516378D01*
X119989386Y-78776945D01*
X119989387Y-78776946D01*
X119995500Y-78815399D01*
X119995500Y-80921796D01*
X119975815Y-80988835D01*
X119959184Y-81009473D01*
X119938539Y-81030119D01*
X119925165Y-81043493D01*
X119863841Y-81076977D01*
X119794150Y-81071991D01*
X119738217Y-81030119D01*
X119731946Y-81020906D01*
X119692317Y-80956656D01*
X119568345Y-80832684D01*
X119419124Y-80740643D01*
X119419119Y-80740641D01*
X119252697Y-80685494D01*
X119252690Y-80685493D01*
X119149986Y-80675000D01*
X119000000Y-80675000D01*
X119000000Y-81769670D01*
X118980255Y-81749925D01*
X118894745Y-81700556D01*
X118799370Y-81675000D01*
X118700630Y-81675000D01*
X118605255Y-81700556D01*
X118519745Y-81749925D01*
X118500000Y-81769670D01*
X118500000Y-80675000D01*
X118350027Y-80675000D01*
X118350012Y-80675001D01*
X118247302Y-80685494D01*
X118080880Y-80740641D01*
X118080875Y-80740643D01*
X117931654Y-80832684D01*
X117807684Y-80956654D01*
X117715643Y-81105875D01*
X117715641Y-81105880D01*
X117660494Y-81272302D01*
X117660493Y-81272309D01*
X117650000Y-81375013D01*
X103750500Y-81375013D01*
X103750500Y-66213315D01*
X104099500Y-66213315D01*
X104099500Y-66786669D01*
X104099501Y-66786687D01*
X104109825Y-66887752D01*
X104164092Y-67051515D01*
X104164095Y-67051522D01*
X104226905Y-67153353D01*
X104227352Y-67154083D01*
X104472083Y-67557635D01*
X104479527Y-67569910D01*
X104497500Y-67634209D01*
X104497500Y-67865994D01*
X104494327Y-67893865D01*
X104493379Y-67897974D01*
X104493377Y-67897981D01*
X104447342Y-68444993D01*
X104446032Y-68465559D01*
X104445993Y-68466475D01*
X104446195Y-68473170D01*
X104445473Y-68490780D01*
X104444435Y-68500000D01*
X104444435Y-68500006D01*
X104447384Y-68526182D01*
X104448107Y-68536302D01*
X104448238Y-68540633D01*
X104448825Y-68544848D01*
X104450575Y-68554504D01*
X104464630Y-68679249D01*
X104524210Y-68849521D01*
X104524211Y-68849522D01*
X104620184Y-69002262D01*
X104747738Y-69129816D01*
X104900478Y-69225789D01*
X105070745Y-69285368D01*
X105070750Y-69285369D01*
X105249996Y-69305565D01*
X105250000Y-69305565D01*
X105250004Y-69305565D01*
X105429249Y-69285369D01*
X105429252Y-69285368D01*
X105429255Y-69285368D01*
X105599522Y-69225789D01*
X105752262Y-69129816D01*
X105879816Y-69002262D01*
X105893506Y-68980473D01*
X105945841Y-68934183D01*
X106014894Y-68923535D01*
X106078743Y-68951910D01*
X106117115Y-69010299D01*
X106122500Y-69046446D01*
X106122500Y-69619114D01*
X106114079Y-69664030D01*
X106053877Y-69818945D01*
X106011246Y-69874301D01*
X105945455Y-69897822D01*
X105877391Y-69882040D01*
X105873201Y-69879568D01*
X105726518Y-69789093D01*
X105726513Y-69789091D01*
X105725069Y-69788612D01*
X105562753Y-69734826D01*
X105562751Y-69734825D01*
X105461678Y-69724500D01*
X104788330Y-69724500D01*
X104788312Y-69724501D01*
X104687247Y-69734825D01*
X104523484Y-69789092D01*
X104523481Y-69789093D01*
X104376648Y-69879661D01*
X104254661Y-70001648D01*
X104164093Y-70148481D01*
X104164092Y-70148484D01*
X104109826Y-70312247D01*
X104109826Y-70312248D01*
X104109825Y-70312248D01*
X104099500Y-70413315D01*
X104099500Y-70986669D01*
X104099501Y-70986687D01*
X104109825Y-71087752D01*
X104164092Y-71251515D01*
X104164095Y-71251522D01*
X104226905Y-71353353D01*
X104227352Y-71354083D01*
X104461437Y-71740081D01*
X104479527Y-71769910D01*
X104497500Y-71834209D01*
X104497500Y-72992037D01*
X104488753Y-73037784D01*
X104323355Y-73454482D01*
X104304603Y-73521595D01*
X104303564Y-73525113D01*
X104284781Y-73585393D01*
X104280914Y-73597804D01*
X104274500Y-73668384D01*
X104274500Y-74331616D01*
X104275557Y-74343248D01*
X104280913Y-74402192D01*
X104280913Y-74402194D01*
X104280914Y-74402196D01*
X104331522Y-74564606D01*
X104400829Y-74679254D01*
X104419530Y-74710188D01*
X104539811Y-74830469D01*
X104539813Y-74830470D01*
X104539815Y-74830472D01*
X104685394Y-74918478D01*
X104847804Y-74969086D01*
X104918384Y-74975500D01*
X104918387Y-74975500D01*
X105431613Y-74975500D01*
X105431616Y-74975500D01*
X105502196Y-74969086D01*
X105664606Y-74918478D01*
X105810185Y-74830472D01*
X105855289Y-74785368D01*
X105912319Y-74728339D01*
X105973642Y-74694854D01*
X106043334Y-74699838D01*
X106087681Y-74728339D01*
X106189811Y-74830469D01*
X106189813Y-74830470D01*
X106189815Y-74830472D01*
X106335394Y-74918478D01*
X106497804Y-74969086D01*
X106568384Y-74975500D01*
X106568387Y-74975500D01*
X107081613Y-74975500D01*
X107081616Y-74975500D01*
X107152196Y-74969086D01*
X107314606Y-74918478D01*
X107460185Y-74830472D01*
X107477519Y-74813136D01*
X107500630Y-74794955D01*
X107745453Y-74645635D01*
X107810020Y-74627500D01*
X109311804Y-74627500D01*
X109311805Y-74627499D01*
X109433035Y-74603386D01*
X109513784Y-74569937D01*
X109547233Y-74556083D01*
X109650008Y-74487411D01*
X109737411Y-74400008D01*
X111737411Y-72400008D01*
X111738979Y-72397662D01*
X111806083Y-72297233D01*
X111853385Y-72183035D01*
X111856290Y-72168427D01*
X119775000Y-72168427D01*
X119775000Y-72175000D01*
X120500000Y-72175000D01*
X121000000Y-72175000D01*
X121724999Y-72175000D01*
X121724999Y-72168417D01*
X121718591Y-72097897D01*
X121718590Y-72097892D01*
X121668018Y-71935603D01*
X121580072Y-71790122D01*
X121459877Y-71669927D01*
X121314395Y-71581980D01*
X121314396Y-71581980D01*
X121152105Y-71531409D01*
X121152106Y-71531409D01*
X121081572Y-71525000D01*
X121000000Y-71525000D01*
X121000000Y-72175000D01*
X120500000Y-72175000D01*
X120500000Y-71525000D01*
X120499999Y-71524999D01*
X120418417Y-71525000D01*
X120347897Y-71531408D01*
X120347892Y-71531409D01*
X120185603Y-71581981D01*
X120040122Y-71669927D01*
X119919927Y-71790122D01*
X119831980Y-71935604D01*
X119781409Y-72097893D01*
X119775000Y-72168427D01*
X111856290Y-72168427D01*
X111861276Y-72143361D01*
X111877500Y-72061805D01*
X111877500Y-63561281D01*
X111897185Y-63494242D01*
X111913819Y-63473600D01*
X112253600Y-63133819D01*
X112314923Y-63100334D01*
X112341281Y-63097500D01*
X112391180Y-63097500D01*
X112453681Y-63114403D01*
X112614843Y-63208459D01*
X112619173Y-63210717D01*
X112627693Y-63216079D01*
X112632804Y-63218870D01*
X112646474Y-63224957D01*
X112657402Y-63230657D01*
X112657413Y-63230662D01*
X112657430Y-63230671D01*
X112659445Y-63231603D01*
X112755828Y-63264854D01*
X112755829Y-63264854D01*
X112758757Y-63265864D01*
X112761632Y-63266896D01*
X112767517Y-63269091D01*
X112827127Y-63275500D01*
X112870465Y-63275499D01*
X112881416Y-63275983D01*
X112899147Y-63277555D01*
X112899148Y-63277554D01*
X112901450Y-63277759D01*
X112966489Y-63303287D01*
X113007402Y-63359925D01*
X113014500Y-63401275D01*
X113014500Y-64622870D01*
X113014501Y-64622876D01*
X113020908Y-64682483D01*
X113071202Y-64817328D01*
X113071206Y-64817335D01*
X113157452Y-64932544D01*
X113157455Y-64932547D01*
X113272664Y-65018793D01*
X113272671Y-65018797D01*
X113317618Y-65035561D01*
X113407517Y-65069091D01*
X113467127Y-65075500D01*
X114172872Y-65075499D01*
X114232483Y-65069091D01*
X114232485Y-65069090D01*
X114232487Y-65069090D01*
X114240031Y-65067308D01*
X114240729Y-65070264D01*
X114296298Y-65066263D01*
X114299954Y-65067336D01*
X114299962Y-65067306D01*
X114307511Y-65069089D01*
X114307517Y-65069091D01*
X114367127Y-65075500D01*
X115072872Y-65075499D01*
X115132483Y-65069091D01*
X115132485Y-65069090D01*
X115132487Y-65069090D01*
X115140031Y-65067308D01*
X115140729Y-65070264D01*
X115196298Y-65066263D01*
X115199954Y-65067336D01*
X115199962Y-65067306D01*
X115207511Y-65069089D01*
X115207517Y-65069091D01*
X115267127Y-65075500D01*
X115972872Y-65075499D01*
X116032483Y-65069091D01*
X116032485Y-65069090D01*
X116032487Y-65069090D01*
X116040031Y-65067308D01*
X116040729Y-65070264D01*
X116096298Y-65066263D01*
X116099954Y-65067336D01*
X116099962Y-65067306D01*
X116107511Y-65069089D01*
X116107517Y-65069091D01*
X116167127Y-65075500D01*
X116872872Y-65075499D01*
X116932483Y-65069091D01*
X116932485Y-65069090D01*
X116932487Y-65069090D01*
X116940031Y-65067308D01*
X116940377Y-65068775D01*
X117001342Y-65064408D01*
X117016378Y-65068822D01*
X117017511Y-65069089D01*
X117017517Y-65069091D01*
X117077127Y-65075500D01*
X117782872Y-65075499D01*
X117842483Y-65069091D01*
X117842485Y-65069090D01*
X117842487Y-65069090D01*
X117850031Y-65067308D01*
X117850729Y-65070264D01*
X117906298Y-65066263D01*
X117909954Y-65067336D01*
X117909962Y-65067306D01*
X117917511Y-65069089D01*
X117917517Y-65069091D01*
X117977127Y-65075500D01*
X118478500Y-65075499D01*
X118545539Y-65095183D01*
X118591294Y-65147987D01*
X118602500Y-65199499D01*
X118602500Y-66051861D01*
X118598198Y-66084238D01*
X118487549Y-66493302D01*
X118482515Y-66513566D01*
X118482408Y-66514222D01*
X118477070Y-66535198D01*
X118464631Y-66570747D01*
X118444435Y-66749996D01*
X118444435Y-66750003D01*
X118464630Y-66929249D01*
X118464631Y-66929254D01*
X118524211Y-67099523D01*
X118558536Y-67154150D01*
X118620184Y-67252262D01*
X118747738Y-67379816D01*
X118771867Y-67394977D01*
X118888452Y-67468233D01*
X118900478Y-67475789D01*
X119055024Y-67529867D01*
X119070745Y-67535368D01*
X119070750Y-67535369D01*
X119249996Y-67555565D01*
X119250000Y-67555565D01*
X119250004Y-67555565D01*
X119429249Y-67535369D01*
X119429252Y-67535368D01*
X119429255Y-67535368D01*
X119599522Y-67475789D01*
X119752262Y-67379816D01*
X119879816Y-67252262D01*
X119975789Y-67099522D01*
X120035368Y-66929255D01*
X120040044Y-66887753D01*
X120055565Y-66750003D01*
X120055565Y-66749996D01*
X120035369Y-66570748D01*
X120022929Y-66535198D01*
X120009238Y-66496073D01*
X120004680Y-66479397D01*
X120000056Y-66456237D01*
X119864594Y-66073156D01*
X119857500Y-66031817D01*
X119857500Y-65199499D01*
X119877185Y-65132460D01*
X119929989Y-65086705D01*
X119981500Y-65075499D01*
X120482871Y-65075499D01*
X120482872Y-65075499D01*
X120542483Y-65069091D01*
X120542485Y-65069090D01*
X120542487Y-65069090D01*
X120550031Y-65067308D01*
X120550729Y-65070264D01*
X120606298Y-65066263D01*
X120609954Y-65067336D01*
X120609962Y-65067306D01*
X120617511Y-65069089D01*
X120617517Y-65069091D01*
X120677127Y-65075500D01*
X121382872Y-65075499D01*
X121442483Y-65069091D01*
X121442485Y-65069090D01*
X121442487Y-65069090D01*
X121450031Y-65067308D01*
X121450729Y-65070264D01*
X121506298Y-65066263D01*
X121509954Y-65067336D01*
X121509962Y-65067306D01*
X121517511Y-65069089D01*
X121517517Y-65069091D01*
X121577127Y-65075500D01*
X122282872Y-65075499D01*
X122342483Y-65069091D01*
X122342485Y-65069090D01*
X122342487Y-65069090D01*
X122350031Y-65067308D01*
X122350377Y-65068775D01*
X122411342Y-65064408D01*
X122426378Y-65068822D01*
X122427511Y-65069089D01*
X122427517Y-65069091D01*
X122487127Y-65075500D01*
X123192872Y-65075499D01*
X123252483Y-65069091D01*
X123252485Y-65069090D01*
X123252487Y-65069090D01*
X123260031Y-65067308D01*
X123260729Y-65070264D01*
X123316298Y-65066263D01*
X123319954Y-65067336D01*
X123319962Y-65067306D01*
X123327511Y-65069089D01*
X123327517Y-65069091D01*
X123387127Y-65075500D01*
X124092872Y-65075499D01*
X124152483Y-65069091D01*
X124152485Y-65069090D01*
X124152487Y-65069090D01*
X124160031Y-65067308D01*
X124160729Y-65070264D01*
X124216298Y-65066263D01*
X124219954Y-65067336D01*
X124219962Y-65067306D01*
X124227511Y-65069089D01*
X124227517Y-65069091D01*
X124287127Y-65075500D01*
X124992872Y-65075499D01*
X125052483Y-65069091D01*
X125052485Y-65069090D01*
X125052487Y-65069090D01*
X125060031Y-65067308D01*
X125060729Y-65070264D01*
X125116298Y-65066263D01*
X125119954Y-65067336D01*
X125119962Y-65067306D01*
X125127511Y-65069089D01*
X125127517Y-65069091D01*
X125187127Y-65075500D01*
X125892872Y-65075499D01*
X125952483Y-65069091D01*
X125952489Y-65069088D01*
X125960025Y-65067308D01*
X125960672Y-65070046D01*
X126017048Y-65066003D01*
X126020058Y-65066887D01*
X126020076Y-65066814D01*
X126027627Y-65068598D01*
X126087155Y-65074999D01*
X126087172Y-65075000D01*
X126190000Y-65075000D01*
X126690000Y-65075000D01*
X126792828Y-65075000D01*
X126792844Y-65074999D01*
X126852372Y-65068598D01*
X126852379Y-65068596D01*
X126987086Y-65018354D01*
X126987093Y-65018350D01*
X127102187Y-64932190D01*
X127102190Y-64932187D01*
X127188350Y-64817093D01*
X127188354Y-64817086D01*
X127238596Y-64682379D01*
X127238598Y-64682372D01*
X127244999Y-64622844D01*
X127245000Y-64622827D01*
X127245000Y-64190000D01*
X126690000Y-64190000D01*
X126690000Y-65075000D01*
X126190000Y-65075000D01*
X126190000Y-64990577D01*
X126209685Y-64923538D01*
X126214733Y-64916266D01*
X126288796Y-64817331D01*
X126339091Y-64682483D01*
X126345500Y-64622873D01*
X126345499Y-63813998D01*
X126365183Y-63746961D01*
X126417987Y-63701206D01*
X126469499Y-63690000D01*
X127245000Y-63690000D01*
X127245000Y-63399499D01*
X127264685Y-63332460D01*
X127317489Y-63286705D01*
X127369000Y-63275499D01*
X127432871Y-63275499D01*
X127432872Y-63275499D01*
X127492483Y-63269091D01*
X127627331Y-63218796D01*
X127742546Y-63132546D01*
X127828796Y-63017331D01*
X127879091Y-62882483D01*
X127885500Y-62822873D01*
X127885499Y-62283652D01*
X127905183Y-62216614D01*
X127957987Y-62170859D01*
X128027146Y-62160915D01*
X128075471Y-62178659D01*
X128150478Y-62225789D01*
X128150482Y-62225790D01*
X128156746Y-62228807D01*
X128156739Y-62228819D01*
X128163824Y-62231905D01*
X128522460Y-62421018D01*
X128529441Y-62424699D01*
X128559284Y-62446703D01*
X131139589Y-65027008D01*
X131187580Y-65074999D01*
X131226994Y-65114413D01*
X131226996Y-65114414D01*
X131329756Y-65183076D01*
X131329760Y-65183078D01*
X131329767Y-65183083D01*
X131374259Y-65201512D01*
X131443966Y-65230386D01*
X131565192Y-65254499D01*
X131565196Y-65254500D01*
X131565197Y-65254500D01*
X131688803Y-65254500D01*
X134815719Y-65254500D01*
X134882758Y-65274185D01*
X134903400Y-65290819D01*
X143553294Y-73940713D01*
X143575298Y-73970556D01*
X143768088Y-74336165D01*
X143771177Y-74343253D01*
X143771189Y-74343248D01*
X143774209Y-74349519D01*
X143774211Y-74349522D01*
X143870184Y-74502262D01*
X143997738Y-74629816D01*
X144150478Y-74725789D01*
X144287674Y-74773796D01*
X144320745Y-74785368D01*
X144320750Y-74785369D01*
X144499996Y-74805565D01*
X144500000Y-74805565D01*
X144500004Y-74805565D01*
X144679249Y-74785369D01*
X144679252Y-74785368D01*
X144679255Y-74785368D01*
X144849522Y-74725789D01*
X145002262Y-74629816D01*
X145129816Y-74502262D01*
X145225789Y-74349522D01*
X145285368Y-74179255D01*
X145285369Y-74179249D01*
X145305565Y-74000003D01*
X145305565Y-73999996D01*
X145285369Y-73820750D01*
X145285368Y-73820745D01*
X145232055Y-73668386D01*
X145225789Y-73650478D01*
X145129816Y-73497738D01*
X145002262Y-73370184D01*
X144952756Y-73339077D01*
X144849521Y-73274210D01*
X144843246Y-73271189D01*
X144843252Y-73271175D01*
X144836168Y-73268089D01*
X144633163Y-73161043D01*
X144470556Y-73075298D01*
X144440713Y-73053294D01*
X135527011Y-64139591D01*
X135527006Y-64139587D01*
X135454483Y-64091130D01*
X135454482Y-64091129D01*
X135424230Y-64070915D01*
X135424228Y-64070914D01*
X135369412Y-64048209D01*
X135310035Y-64023614D01*
X135310027Y-64023612D01*
X135188807Y-63999500D01*
X135188803Y-63999500D01*
X132916322Y-63999500D01*
X132849283Y-63979815D01*
X132803528Y-63927011D01*
X132793102Y-63889383D01*
X132785369Y-63820750D01*
X132785368Y-63820748D01*
X132785368Y-63820745D01*
X132725789Y-63650478D01*
X132629816Y-63497738D01*
X132502262Y-63370184D01*
X132442225Y-63332460D01*
X132349521Y-63274210D01*
X132343246Y-63271189D01*
X132343252Y-63271175D01*
X132336168Y-63268089D01*
X132133163Y-63161043D01*
X131970556Y-63075298D01*
X131940713Y-63053294D01*
X130097429Y-61210010D01*
X130063944Y-61148687D01*
X130068928Y-61078995D01*
X130097428Y-61034649D01*
X130129816Y-61002262D01*
X130225789Y-60849522D01*
X130255166Y-60765566D01*
X130295888Y-60708790D01*
X130331254Y-60689479D01*
X130415209Y-60660102D01*
X130567949Y-60564129D01*
X130695503Y-60436575D01*
X130791476Y-60283835D01*
X130851055Y-60113568D01*
X130852349Y-60102084D01*
X130871252Y-59934316D01*
X130871252Y-59934309D01*
X130851056Y-59755063D01*
X130851055Y-59755058D01*
X130791475Y-59584789D01*
X130743068Y-59507750D01*
X130738196Y-59499996D01*
X142194435Y-59499996D01*
X142194435Y-59500000D01*
X142195308Y-59507750D01*
X142196908Y-59521950D01*
X142197415Y-59544033D01*
X142196940Y-59551191D01*
X142196940Y-59551193D01*
X142241151Y-60127842D01*
X142244737Y-60160025D01*
X142245500Y-60173756D01*
X142245500Y-66839000D01*
X142242531Y-66865973D01*
X142241149Y-66872169D01*
X142196940Y-67448814D01*
X142195862Y-67467327D01*
X142195827Y-67468219D01*
X142195827Y-67468233D01*
X142196024Y-67474411D01*
X142195309Y-67492234D01*
X142194435Y-67499997D01*
X142194435Y-67500003D01*
X142197243Y-67524926D01*
X142197959Y-67534837D01*
X142198144Y-67540638D01*
X142198583Y-67543765D01*
X142200651Y-67555177D01*
X142214630Y-67679249D01*
X142274210Y-67849521D01*
X142367341Y-67997737D01*
X142370184Y-68002262D01*
X142497738Y-68129816D01*
X142650478Y-68225789D01*
X142820745Y-68285368D01*
X142820750Y-68285369D01*
X142999996Y-68305565D01*
X143000000Y-68305565D01*
X143000004Y-68305565D01*
X143179249Y-68285369D01*
X143179252Y-68285368D01*
X143179255Y-68285368D01*
X143349522Y-68225789D01*
X143502262Y-68129816D01*
X143629816Y-68002262D01*
X143725789Y-67849522D01*
X143785368Y-67679255D01*
X143790444Y-67634209D01*
X143805565Y-67500002D01*
X143805565Y-67499999D01*
X143803091Y-67478048D01*
X143802584Y-67455938D01*
X143803058Y-67448803D01*
X143758850Y-66872180D01*
X143758849Y-66872169D01*
X143758849Y-66872165D01*
X143755261Y-66839963D01*
X143754500Y-66826241D01*
X143754500Y-60160998D01*
X143757470Y-60134021D01*
X143758849Y-60127835D01*
X143759230Y-60122874D01*
X143795446Y-59650476D01*
X143803058Y-59551193D01*
X143803699Y-59540171D01*
X143804137Y-59532662D01*
X143804172Y-59531786D01*
X143804172Y-59531783D01*
X143803974Y-59525622D01*
X143804691Y-59507750D01*
X143805565Y-59499999D01*
X143802756Y-59475071D01*
X143802039Y-59465150D01*
X143801854Y-59459360D01*
X143801853Y-59459356D01*
X143801413Y-59456214D01*
X143799348Y-59444826D01*
X143785368Y-59320745D01*
X143725789Y-59150478D01*
X143629816Y-58997738D01*
X143502262Y-58870184D01*
X143469379Y-58849522D01*
X143349523Y-58774211D01*
X143179254Y-58714631D01*
X143179249Y-58714630D01*
X143000004Y-58694435D01*
X142999996Y-58694435D01*
X142820750Y-58714630D01*
X142820745Y-58714631D01*
X142650476Y-58774211D01*
X142497737Y-58870184D01*
X142370184Y-58997737D01*
X142274211Y-59150476D01*
X142214631Y-59320745D01*
X142214630Y-59320750D01*
X142194435Y-59499996D01*
X130738196Y-59499996D01*
X130695503Y-59432051D01*
X130567949Y-59304497D01*
X130424930Y-59214632D01*
X130415208Y-59208523D01*
X130408933Y-59205502D01*
X130408939Y-59205488D01*
X130401855Y-59202402D01*
X130198850Y-59095356D01*
X130036243Y-59009611D01*
X130006400Y-58987607D01*
X129391387Y-58372593D01*
X129391383Y-58372590D01*
X129391382Y-58372589D01*
X129371339Y-58359197D01*
X129371337Y-58359195D01*
X129288613Y-58303920D01*
X129288600Y-58303913D01*
X129232084Y-58280504D01*
X129174409Y-58256614D01*
X129174401Y-58256612D01*
X129053181Y-58232500D01*
X129053177Y-58232500D01*
X128009500Y-58232500D01*
X127942461Y-58212815D01*
X127896706Y-58160011D01*
X127885500Y-58108500D01*
X127885499Y-57607129D01*
X127885498Y-57607123D01*
X127885498Y-57607117D01*
X127879091Y-57547517D01*
X127879090Y-57547515D01*
X127879090Y-57547512D01*
X127877308Y-57539969D01*
X127880260Y-57539271D01*
X127876269Y-57483674D01*
X127877334Y-57480044D01*
X127877306Y-57480038D01*
X127879089Y-57472488D01*
X127879088Y-57472488D01*
X127879091Y-57472483D01*
X127885500Y-57412873D01*
X127885499Y-56707128D01*
X127879091Y-56647517D01*
X127879090Y-56647515D01*
X127879090Y-56647512D01*
X127877308Y-56639969D01*
X127880260Y-56639271D01*
X127876269Y-56583674D01*
X127877334Y-56580044D01*
X127877306Y-56580038D01*
X127879089Y-56572488D01*
X127879088Y-56572488D01*
X127879091Y-56572483D01*
X127885500Y-56512873D01*
X127885499Y-55807128D01*
X127879091Y-55747517D01*
X127879090Y-55747515D01*
X127879090Y-55747512D01*
X127877308Y-55739969D01*
X127880260Y-55739271D01*
X127876269Y-55683674D01*
X127877334Y-55680044D01*
X127877306Y-55680038D01*
X127879089Y-55672488D01*
X127879088Y-55672488D01*
X127879091Y-55672483D01*
X127885500Y-55612873D01*
X127885499Y-54907128D01*
X127879091Y-54847517D01*
X127879090Y-54847515D01*
X127879090Y-54847512D01*
X127877308Y-54839969D01*
X127880260Y-54839271D01*
X127876269Y-54783674D01*
X127877334Y-54780044D01*
X127877306Y-54780038D01*
X127879089Y-54772488D01*
X127879088Y-54772488D01*
X127879091Y-54772483D01*
X127885500Y-54712873D01*
X127885500Y-54629500D01*
X127905185Y-54562461D01*
X127957989Y-54516706D01*
X128009500Y-54505500D01*
X129875990Y-54505500D01*
X129876000Y-54505500D01*
X129983456Y-54493947D01*
X130034967Y-54482741D01*
X130069197Y-54471347D01*
X130137497Y-54448616D01*
X130137501Y-54448613D01*
X130137504Y-54448613D01*
X130258543Y-54370825D01*
X130311347Y-54325070D01*
X130405567Y-54216336D01*
X130465338Y-54085459D01*
X130485023Y-54018420D01*
X130485024Y-54018416D01*
X130505500Y-53876000D01*
X130505500Y-52124000D01*
X130493947Y-52016544D01*
X130482741Y-51965033D01*
X130482637Y-51964722D01*
X130448616Y-51862502D01*
X130448613Y-51862496D01*
X130404460Y-51793793D01*
X130370825Y-51741457D01*
X130341441Y-51707546D01*
X130325076Y-51688659D01*
X130325072Y-51688656D01*
X130325070Y-51688653D01*
X130216336Y-51594433D01*
X130216333Y-51594431D01*
X130216331Y-51594430D01*
X130085465Y-51534664D01*
X130085460Y-51534662D01*
X130085459Y-51534662D01*
X130018420Y-51514977D01*
X130018422Y-51514977D01*
X130018417Y-51514976D01*
X129970944Y-51508150D01*
X129876000Y-51494500D01*
X128009499Y-51494500D01*
X127942460Y-51474815D01*
X127896705Y-51422011D01*
X127885499Y-51370500D01*
X127885499Y-51297129D01*
X127885498Y-51297123D01*
X127885497Y-51297116D01*
X127879091Y-51237517D01*
X127879091Y-51237516D01*
X127877307Y-51229966D01*
X127880040Y-51229319D01*
X127876012Y-51172914D01*
X127876885Y-51169942D01*
X127876814Y-51169926D01*
X127878598Y-51162375D01*
X127884999Y-51102844D01*
X127885000Y-51102827D01*
X127885000Y-51000000D01*
X127800577Y-51000000D01*
X127733538Y-50980315D01*
X127726266Y-50975267D01*
X127627330Y-50901203D01*
X127627328Y-50901202D01*
X127492482Y-50850908D01*
X127492483Y-50850908D01*
X127432883Y-50844501D01*
X127432881Y-50844500D01*
X127432873Y-50844500D01*
X127432864Y-50844500D01*
X126067129Y-50844500D01*
X126067123Y-50844501D01*
X126007516Y-50850908D01*
X125872671Y-50901202D01*
X125872669Y-50901203D01*
X125773734Y-50975267D01*
X125708270Y-50999684D01*
X125699423Y-51000000D01*
X125615000Y-51000000D01*
X125615000Y-51102844D01*
X125621401Y-51162372D01*
X125623187Y-51169930D01*
X125620061Y-51170668D01*
X125623986Y-51225665D01*
X125622570Y-51230485D01*
X125620908Y-51237517D01*
X125614501Y-51297116D01*
X125614501Y-51297123D01*
X125614500Y-51297135D01*
X125614500Y-51370500D01*
X125594815Y-51437539D01*
X125542011Y-51483294D01*
X125490500Y-51494500D01*
X114769499Y-51494500D01*
X114702460Y-51474815D01*
X114656705Y-51422011D01*
X114645499Y-51370500D01*
X114645499Y-51297129D01*
X114645498Y-51297123D01*
X114645497Y-51297116D01*
X114639091Y-51237517D01*
X114639091Y-51237516D01*
X114637307Y-51229966D01*
X114640040Y-51229319D01*
X114636012Y-51172914D01*
X114636885Y-51169942D01*
X114636814Y-51169926D01*
X114638598Y-51162375D01*
X114644999Y-51102844D01*
X114645000Y-51102827D01*
X114645000Y-51000000D01*
X114560577Y-51000000D01*
X114493538Y-50980315D01*
X114486266Y-50975267D01*
X114387330Y-50901203D01*
X114387328Y-50901202D01*
X114252482Y-50850908D01*
X114252483Y-50850908D01*
X114192883Y-50844501D01*
X114192881Y-50844500D01*
X114192873Y-50844500D01*
X114192865Y-50844500D01*
X112940135Y-50844500D01*
X112930004Y-50843467D01*
X112929969Y-50843946D01*
X112921938Y-50843354D01*
X112905057Y-50844304D01*
X112898098Y-50844500D01*
X112827131Y-50844500D01*
X112827122Y-50844501D01*
X112767520Y-50850908D01*
X112767513Y-50850910D01*
X112749078Y-50857785D01*
X112736744Y-50861665D01*
X112717084Y-50866739D01*
X112717082Y-50866740D01*
X112694845Y-50877453D01*
X112684366Y-50881920D01*
X112632669Y-50901203D01*
X112632668Y-50901204D01*
X112619042Y-50911404D01*
X112598563Y-50923841D01*
X112587467Y-50929187D01*
X112587458Y-50929192D01*
X112513482Y-50978914D01*
X112446862Y-50999974D01*
X112444311Y-51000000D01*
X112375000Y-51000000D01*
X112361819Y-51013181D01*
X112300496Y-51046666D01*
X112274138Y-51049500D01*
X108464027Y-51049500D01*
X108396988Y-51029815D01*
X108352488Y-50979676D01*
X108162960Y-50589471D01*
X108150499Y-50535295D01*
X108150499Y-50397155D01*
X112375000Y-50397155D01*
X112375000Y-50500000D01*
X114645000Y-50500000D01*
X114663290Y-50481709D01*
X114664685Y-50476961D01*
X114717489Y-50431206D01*
X114769000Y-50420000D01*
X125491000Y-50420000D01*
X125558039Y-50439685D01*
X125579809Y-50464809D01*
X125615000Y-50500000D01*
X127885000Y-50500000D01*
X127885000Y-50397172D01*
X127884999Y-50397155D01*
X127878598Y-50337627D01*
X127878596Y-50337620D01*
X127828354Y-50202913D01*
X127828350Y-50202906D01*
X127742190Y-50087812D01*
X127742187Y-50087809D01*
X127627093Y-50001649D01*
X127627086Y-50001645D01*
X127492379Y-49951403D01*
X127492372Y-49951401D01*
X127432844Y-49945000D01*
X127254000Y-49945000D01*
X127186961Y-49925315D01*
X127141206Y-49872511D01*
X127130000Y-49821000D01*
X127130000Y-45820000D01*
X113130000Y-45820000D01*
X113130000Y-49821000D01*
X113110315Y-49888039D01*
X113057511Y-49933794D01*
X113006000Y-49945000D01*
X112827155Y-49945000D01*
X112767627Y-49951401D01*
X112767620Y-49951403D01*
X112632913Y-50001645D01*
X112632906Y-50001649D01*
X112517812Y-50087809D01*
X112517809Y-50087812D01*
X112431649Y-50202906D01*
X112431645Y-50202913D01*
X112381403Y-50337620D01*
X112381401Y-50337627D01*
X112375000Y-50397155D01*
X108150499Y-50397155D01*
X108150499Y-50358109D01*
X108151580Y-50348124D01*
X108151047Y-50348086D01*
X108151692Y-50339243D01*
X108150802Y-50326541D01*
X108150499Y-50317872D01*
X108150499Y-50252129D01*
X108150498Y-50252123D01*
X108149756Y-50245222D01*
X108144091Y-50192517D01*
X108135508Y-50169506D01*
X108132061Y-50158809D01*
X108132016Y-50158645D01*
X108125488Y-50134717D01*
X108116701Y-50117104D01*
X108111490Y-50105110D01*
X108093796Y-50057669D01*
X108080277Y-50039610D01*
X108068583Y-50020650D01*
X108061258Y-50005966D01*
X108061257Y-50005965D01*
X107947548Y-49841718D01*
X107925573Y-49775394D01*
X107925500Y-49771136D01*
X107925500Y-47728862D01*
X107945185Y-47661823D01*
X107947532Y-47658303D01*
X108061260Y-47494030D01*
X108075884Y-47468014D01*
X108084699Y-47454482D01*
X108093796Y-47442331D01*
X108097279Y-47432991D01*
X108105377Y-47415547D01*
X108107480Y-47411806D01*
X108107482Y-47411803D01*
X108109249Y-47407832D01*
X108110939Y-47403990D01*
X108117357Y-47380576D01*
X108120765Y-47370020D01*
X108124980Y-47358719D01*
X108144091Y-47307483D01*
X108147344Y-47277216D01*
X108147946Y-47274051D01*
X108147873Y-47274042D01*
X108148977Y-47265232D01*
X108148979Y-47265229D01*
X108148978Y-47265225D01*
X108149468Y-47261326D01*
X108149760Y-47254750D01*
X108150500Y-47247873D01*
X108150499Y-46163072D01*
X108150822Y-46154132D01*
X108153971Y-46110560D01*
X108153972Y-46110552D01*
X108132009Y-45800191D01*
X108128202Y-45764607D01*
X108127500Y-45751427D01*
X108127500Y-44711343D01*
X108133043Y-44674682D01*
X108133044Y-44674680D01*
X108256922Y-44274414D01*
X108264931Y-44245530D01*
X108264932Y-44245514D01*
X108265912Y-44240264D01*
X108266541Y-44240381D01*
X108270915Y-44220556D01*
X108285368Y-44179255D01*
X108305565Y-44000000D01*
X108305565Y-43999996D01*
X109694435Y-43999996D01*
X109694435Y-44000003D01*
X109714630Y-44179249D01*
X109714631Y-44179254D01*
X109774211Y-44349523D01*
X109870184Y-44502262D01*
X109997738Y-44629816D01*
X110069139Y-44674680D01*
X110154409Y-44728259D01*
X110200700Y-44780594D01*
X110211657Y-44847136D01*
X110194435Y-44999995D01*
X110194435Y-45000003D01*
X110214630Y-45179249D01*
X110214631Y-45179254D01*
X110274211Y-45349523D01*
X110274212Y-45349524D01*
X110370184Y-45502262D01*
X110497738Y-45629816D01*
X110506918Y-45635584D01*
X110620010Y-45706645D01*
X110650478Y-45725789D01*
X110820745Y-45785368D01*
X110820750Y-45785369D01*
X110999996Y-45805565D01*
X111000000Y-45805565D01*
X111000004Y-45805565D01*
X111179249Y-45785369D01*
X111179252Y-45785368D01*
X111179255Y-45785368D01*
X111349522Y-45725789D01*
X111502262Y-45629816D01*
X111629816Y-45502262D01*
X111725789Y-45349522D01*
X111725791Y-45349514D01*
X111728809Y-45343248D01*
X111728822Y-45343254D01*
X111731909Y-45336167D01*
X111924700Y-44970554D01*
X111946699Y-44940718D01*
X114723600Y-42163819D01*
X114784923Y-42130334D01*
X114811281Y-42127500D01*
X120011804Y-42127500D01*
X120011805Y-42127499D01*
X120133035Y-42103386D01*
X120213784Y-42069937D01*
X120247233Y-42056083D01*
X120350008Y-41987411D01*
X120437411Y-41900008D01*
X121535139Y-40802278D01*
X121596460Y-40768795D01*
X121661135Y-40772029D01*
X121742299Y-40798402D01*
X121913389Y-40825500D01*
X121913390Y-40825500D01*
X122086610Y-40825500D01*
X122086611Y-40825500D01*
X122257701Y-40798402D01*
X122422445Y-40744873D01*
X122576788Y-40666232D01*
X122716928Y-40564414D01*
X122839414Y-40441928D01*
X122899991Y-40358550D01*
X122955321Y-40315885D01*
X123024934Y-40309906D01*
X123086729Y-40342512D01*
X123100628Y-40358551D01*
X123160967Y-40441602D01*
X123283397Y-40564032D01*
X123423475Y-40665804D01*
X123577744Y-40744408D01*
X123742415Y-40797914D01*
X123742414Y-40797914D01*
X123749999Y-40799115D01*
X123750000Y-40799114D01*
X123750000Y-39730330D01*
X123769745Y-39750075D01*
X123855255Y-39799444D01*
X123950630Y-39825000D01*
X124049370Y-39825000D01*
X124144745Y-39799444D01*
X124230255Y-39750075D01*
X124250000Y-39730330D01*
X124250000Y-40799115D01*
X124257584Y-40797914D01*
X124422255Y-40744408D01*
X124576524Y-40665804D01*
X124716598Y-40564035D01*
X124824199Y-40456434D01*
X124885522Y-40422949D01*
X124955214Y-40427933D01*
X125011148Y-40469804D01*
X125017420Y-40479019D01*
X125045105Y-40523905D01*
X125057288Y-40543656D01*
X125181344Y-40667712D01*
X125330666Y-40759814D01*
X125497203Y-40814999D01*
X125599991Y-40825500D01*
X126400008Y-40825499D01*
X126400016Y-40825498D01*
X126400019Y-40825498D01*
X126456302Y-40819748D01*
X126502797Y-40814999D01*
X126669334Y-40759814D01*
X126818656Y-40667712D01*
X126942712Y-40543656D01*
X127034814Y-40394334D01*
X127089999Y-40227797D01*
X127100500Y-40125009D01*
X127100499Y-38774992D01*
X127089999Y-38672203D01*
X127034814Y-38505666D01*
X126942712Y-38356344D01*
X126818656Y-38232288D01*
X126693559Y-38155128D01*
X126669336Y-38140187D01*
X126669331Y-38140185D01*
X126667862Y-38139698D01*
X126502797Y-38085001D01*
X126502795Y-38085000D01*
X126400010Y-38074500D01*
X125599998Y-38074500D01*
X125599980Y-38074501D01*
X125497203Y-38085000D01*
X125497200Y-38085001D01*
X125330668Y-38140185D01*
X125330663Y-38140187D01*
X125181342Y-38232289D01*
X125057289Y-38356342D01*
X125017420Y-38420981D01*
X124965472Y-38467705D01*
X124896509Y-38478928D01*
X124832427Y-38451084D01*
X124824200Y-38443565D01*
X124716602Y-38335967D01*
X124576524Y-38234195D01*
X124422257Y-38155591D01*
X124257589Y-38102087D01*
X124257581Y-38102085D01*
X124250000Y-38100884D01*
X124250000Y-39169670D01*
X124230255Y-39149925D01*
X124144745Y-39100556D01*
X124049370Y-39075000D01*
X123950630Y-39075000D01*
X123855255Y-39100556D01*
X123769745Y-39149925D01*
X123750000Y-39169670D01*
X123750000Y-38100884D01*
X123749999Y-38100884D01*
X123742418Y-38102085D01*
X123742410Y-38102087D01*
X123577742Y-38155591D01*
X123423475Y-38234195D01*
X123283397Y-38335967D01*
X123160965Y-38458399D01*
X123160961Y-38458404D01*
X123100627Y-38541448D01*
X123045297Y-38584114D01*
X122975684Y-38590093D01*
X122913889Y-38557488D01*
X122899991Y-38541449D01*
X122899990Y-38541448D01*
X122839414Y-38458072D01*
X122716928Y-38335586D01*
X122576788Y-38233768D01*
X122422445Y-38155127D01*
X122257701Y-38101598D01*
X122257699Y-38101597D01*
X122257698Y-38101597D01*
X122107118Y-38077748D01*
X122086611Y-38074500D01*
X121913389Y-38074500D01*
X121892882Y-38077748D01*
X121742302Y-38101597D01*
X121577552Y-38155128D01*
X121423211Y-38233768D01*
X121347080Y-38289081D01*
X121283072Y-38335586D01*
X121283070Y-38335588D01*
X121283069Y-38335588D01*
X121160588Y-38458069D01*
X121160581Y-38458078D01*
X121100317Y-38541023D01*
X121044987Y-38583689D01*
X120975374Y-38589667D01*
X120913579Y-38557061D01*
X120899683Y-38541023D01*
X120839655Y-38458404D01*
X120839414Y-38458072D01*
X120716928Y-38335586D01*
X120576788Y-38233768D01*
X120422445Y-38155127D01*
X120257701Y-38101598D01*
X120257699Y-38101597D01*
X120257698Y-38101597D01*
X120107118Y-38077748D01*
X120086611Y-38074500D01*
X119913389Y-38074500D01*
X119892882Y-38077748D01*
X119742302Y-38101597D01*
X119577552Y-38155128D01*
X119423211Y-38233768D01*
X119347080Y-38289081D01*
X119283072Y-38335586D01*
X119283070Y-38335588D01*
X119283069Y-38335588D01*
X119160588Y-38458069D01*
X119160588Y-38458070D01*
X119160586Y-38458072D01*
X119145433Y-38478928D01*
X119058766Y-38598213D01*
X118978986Y-38754794D01*
X118931012Y-38805591D01*
X118868501Y-38822500D01*
X114988192Y-38822500D01*
X114866973Y-38846611D01*
X114866973Y-38846612D01*
X114866970Y-38846613D01*
X114866966Y-38846614D01*
X114800070Y-38874323D01*
X114800068Y-38874323D01*
X114752768Y-38893916D01*
X114752764Y-38893918D01*
X114664693Y-38952764D01*
X114664694Y-38952765D01*
X114649995Y-38962586D01*
X114649989Y-38962591D01*
X110559286Y-43053293D01*
X110529443Y-43075297D01*
X110163829Y-43268090D01*
X110156741Y-43271179D01*
X110156748Y-43271192D01*
X110150474Y-43274213D01*
X109997737Y-43370184D01*
X109870184Y-43497737D01*
X109774211Y-43650476D01*
X109714631Y-43820745D01*
X109714630Y-43820750D01*
X109694435Y-43999996D01*
X108305565Y-43999996D01*
X108285368Y-43820745D01*
X108225789Y-43650478D01*
X108129816Y-43497738D01*
X108002262Y-43370184D01*
X107849523Y-43274211D01*
X107679254Y-43214631D01*
X107679249Y-43214630D01*
X107500004Y-43194435D01*
X107499996Y-43194435D01*
X107320750Y-43214630D01*
X107320745Y-43214631D01*
X107150476Y-43274211D01*
X106997737Y-43370184D01*
X106870184Y-43497737D01*
X106774211Y-43650476D01*
X106714631Y-43820745D01*
X106714630Y-43820750D01*
X106694435Y-43999996D01*
X106694435Y-44000003D01*
X106714631Y-44179253D01*
X106714631Y-44179254D01*
X106735373Y-44238533D01*
X106740797Y-44260047D01*
X106743078Y-44274415D01*
X106853072Y-44629816D01*
X106866957Y-44674680D01*
X106872500Y-44711341D01*
X106872500Y-45577279D01*
X106852815Y-45644318D01*
X106800011Y-45690073D01*
X106791835Y-45693460D01*
X106757672Y-45706202D01*
X106757669Y-45706203D01*
X106757669Y-45706204D01*
X106642454Y-45792454D01*
X106642453Y-45792455D01*
X106642452Y-45792456D01*
X106556206Y-45907664D01*
X106556202Y-45907671D01*
X106505908Y-46042517D01*
X106499501Y-46102116D01*
X106499500Y-46102135D01*
X106499500Y-47141899D01*
X106498420Y-47151884D01*
X106498952Y-47151923D01*
X106498307Y-47160764D01*
X106499197Y-47173469D01*
X106499500Y-47182129D01*
X106499500Y-47247868D01*
X106499501Y-47247877D01*
X106505908Y-47307481D01*
X106514489Y-47330488D01*
X106517932Y-47341174D01*
X106522720Y-47358719D01*
X106524511Y-47365282D01*
X106532140Y-47380576D01*
X106533291Y-47382882D01*
X106538512Y-47394899D01*
X106556202Y-47442326D01*
X106556205Y-47442333D01*
X106569719Y-47460384D01*
X106581414Y-47479345D01*
X106588740Y-47494032D01*
X106588741Y-47494033D01*
X106702452Y-47658281D01*
X106724427Y-47724605D01*
X106724500Y-47728863D01*
X106724500Y-49771136D01*
X106704815Y-49838175D01*
X106702452Y-49841718D01*
X106588734Y-50005976D01*
X106574130Y-50031960D01*
X106565305Y-50045509D01*
X106556208Y-50057662D01*
X106556200Y-50057676D01*
X106552701Y-50067056D01*
X106544632Y-50084445D01*
X106542495Y-50088248D01*
X106542483Y-50088271D01*
X106540717Y-50092242D01*
X106539059Y-50096010D01*
X106539057Y-50096017D01*
X106532636Y-50119437D01*
X106529232Y-50129981D01*
X106505909Y-50192513D01*
X106505909Y-50192516D01*
X106502652Y-50222800D01*
X106502050Y-50225981D01*
X106502121Y-50225990D01*
X106500535Y-50238627D01*
X106500241Y-50245222D01*
X106499501Y-50252111D01*
X106499500Y-50252133D01*
X106499500Y-51397870D01*
X106499501Y-51397876D01*
X106505908Y-51457483D01*
X106556202Y-51592328D01*
X106556206Y-51592335D01*
X106642452Y-51707544D01*
X106642455Y-51707547D01*
X106757664Y-51793793D01*
X106757671Y-51793797D01*
X106809958Y-51813299D01*
X106865892Y-51855170D01*
X106890309Y-51920634D01*
X106875457Y-51988907D01*
X106871619Y-51995453D01*
X106774211Y-52150476D01*
X106714631Y-52320745D01*
X106714630Y-52320749D01*
X106705619Y-52400730D01*
X106678552Y-52465144D01*
X106620957Y-52504699D01*
X106551120Y-52506836D01*
X106541445Y-52503888D01*
X106429257Y-52464632D01*
X106429249Y-52464630D01*
X106250004Y-52444435D01*
X106249996Y-52444435D01*
X106070750Y-52464630D01*
X106070745Y-52464631D01*
X105900476Y-52524211D01*
X105747737Y-52620184D01*
X105620184Y-52747737D01*
X105524211Y-52900476D01*
X105464631Y-53070745D01*
X105464630Y-53070750D01*
X105444435Y-53249996D01*
X105444435Y-53250003D01*
X105464630Y-53429249D01*
X105464631Y-53429254D01*
X105524211Y-53599523D01*
X105607767Y-53732500D01*
X105620184Y-53752262D01*
X105747738Y-53879816D01*
X105900478Y-53975789D01*
X105900482Y-53975790D01*
X105906746Y-53978807D01*
X105906739Y-53978819D01*
X105913824Y-53981905D01*
X106279441Y-54174699D01*
X106309284Y-54196703D01*
X106872589Y-54760008D01*
X106922581Y-54810000D01*
X106959993Y-54847412D01*
X107062760Y-54916079D01*
X107062773Y-54916086D01*
X107176960Y-54963383D01*
X107176965Y-54963385D01*
X107176969Y-54963385D01*
X107176970Y-54963386D01*
X107298194Y-54987500D01*
X107298197Y-54987500D01*
X107421803Y-54987500D01*
X112250500Y-54987500D01*
X112317539Y-55007185D01*
X112363294Y-55059989D01*
X112374500Y-55111500D01*
X112374500Y-55612870D01*
X112374501Y-55612874D01*
X112380909Y-55672484D01*
X112382692Y-55680028D01*
X112379749Y-55680723D01*
X112383719Y-55736381D01*
X112382667Y-55739961D01*
X112382693Y-55739968D01*
X112380908Y-55747520D01*
X112374501Y-55807117D01*
X112374501Y-55807123D01*
X112374500Y-55807136D01*
X112374500Y-56512870D01*
X112374501Y-56512874D01*
X112380909Y-56572484D01*
X112382692Y-56580028D01*
X112379749Y-56580723D01*
X112383719Y-56636381D01*
X112382667Y-56639961D01*
X112382693Y-56639968D01*
X112380908Y-56647520D01*
X112374501Y-56707117D01*
X112374500Y-56707127D01*
X112374501Y-57412872D01*
X112379307Y-57457580D01*
X112380909Y-57472484D01*
X112382692Y-57480028D01*
X112379749Y-57480723D01*
X112383719Y-57536381D01*
X112382667Y-57539961D01*
X112382693Y-57539968D01*
X112380908Y-57547520D01*
X112374902Y-57603384D01*
X112374501Y-57607123D01*
X112374500Y-57607136D01*
X112374500Y-58312870D01*
X112374501Y-58312874D01*
X112380909Y-58372484D01*
X112382692Y-58380028D01*
X112379749Y-58380723D01*
X112383719Y-58436381D01*
X112382667Y-58439961D01*
X112382693Y-58439968D01*
X112380908Y-58447520D01*
X112378048Y-58474127D01*
X112374501Y-58507123D01*
X112374500Y-58507136D01*
X112374500Y-59212870D01*
X112374501Y-59212876D01*
X112380908Y-59272479D01*
X112382692Y-59280026D01*
X112381229Y-59280371D01*
X112385585Y-59341371D01*
X112381173Y-59356396D01*
X112380908Y-59357517D01*
X112374501Y-59417117D01*
X112374500Y-59417136D01*
X112374500Y-60122870D01*
X112374501Y-60122874D01*
X112380909Y-60182484D01*
X112382692Y-60190028D01*
X112379749Y-60190723D01*
X112383719Y-60246381D01*
X112382667Y-60249961D01*
X112382693Y-60249968D01*
X112380908Y-60257520D01*
X112374501Y-60317117D01*
X112374500Y-60317136D01*
X112374500Y-61022870D01*
X112374501Y-61022874D01*
X112380909Y-61082484D01*
X112382692Y-61090028D01*
X112379749Y-61090723D01*
X112383719Y-61146381D01*
X112382667Y-61149961D01*
X112382693Y-61149968D01*
X112380908Y-61157520D01*
X112375265Y-61210010D01*
X112374500Y-61217127D01*
X112374500Y-61520185D01*
X112374501Y-61718500D01*
X112354817Y-61785539D01*
X112302013Y-61831294D01*
X112250501Y-61842500D01*
X111968192Y-61842500D01*
X111846973Y-61866611D01*
X111846973Y-61866612D01*
X111846970Y-61866613D01*
X111846966Y-61866614D01*
X111780070Y-61894323D01*
X111780069Y-61894323D01*
X111732773Y-61913913D01*
X111732765Y-61913917D01*
X111689619Y-61942747D01*
X111689619Y-61942748D01*
X111629989Y-61982590D01*
X111629988Y-61982591D01*
X111032107Y-62580474D01*
X110849992Y-62762589D01*
X110827766Y-62784815D01*
X110762586Y-62849994D01*
X110762585Y-62849996D01*
X110693923Y-62952756D01*
X110693914Y-62952773D01*
X110684791Y-62974795D01*
X110684792Y-62974796D01*
X110646614Y-63066964D01*
X110646612Y-63066972D01*
X110633162Y-63134589D01*
X110633163Y-63134590D01*
X110622500Y-63188198D01*
X110622500Y-71688719D01*
X110602815Y-71755758D01*
X110586181Y-71776400D01*
X109026400Y-73336181D01*
X108965077Y-73369666D01*
X108938719Y-73372500D01*
X107810019Y-73372500D01*
X107745452Y-73354363D01*
X107534644Y-73225788D01*
X107500634Y-73205045D01*
X107477521Y-73186863D01*
X107460188Y-73169530D01*
X107394493Y-73129816D01*
X107314606Y-73081522D01*
X107152196Y-73030914D01*
X107152194Y-73030913D01*
X107152192Y-73030913D01*
X107102778Y-73026423D01*
X107081616Y-73024500D01*
X106568384Y-73024500D01*
X106549145Y-73026248D01*
X106497807Y-73030913D01*
X106335393Y-73081522D01*
X106189813Y-73169529D01*
X106098089Y-73261253D01*
X106036765Y-73294737D01*
X105967074Y-73289753D01*
X105911141Y-73247881D01*
X105903465Y-73236334D01*
X105769557Y-73008164D01*
X105752500Y-72945401D01*
X105752500Y-71834206D01*
X105770473Y-71769908D01*
X105819709Y-71688719D01*
X105917193Y-71527970D01*
X105968785Y-71480856D01*
X106037661Y-71469114D01*
X106101951Y-71496473D01*
X106110899Y-71504589D01*
X106126650Y-71520340D01*
X106273484Y-71610908D01*
X106437247Y-71665174D01*
X106538323Y-71675500D01*
X107211676Y-71675499D01*
X107211684Y-71675498D01*
X107211687Y-71675498D01*
X107267030Y-71669844D01*
X107312753Y-71665174D01*
X107476516Y-71610908D01*
X107623350Y-71520340D01*
X107745340Y-71398350D01*
X107835908Y-71251516D01*
X107890174Y-71087753D01*
X107900500Y-70986677D01*
X107900499Y-70413324D01*
X107890174Y-70312247D01*
X107835908Y-70148484D01*
X107810153Y-70106729D01*
X107800122Y-70086566D01*
X107635919Y-69664027D01*
X107627500Y-69619116D01*
X107627500Y-67580880D01*
X107635921Y-67535965D01*
X107636153Y-67535368D01*
X107800115Y-67113446D01*
X107810152Y-67093271D01*
X107835908Y-67051516D01*
X107890174Y-66887753D01*
X107900500Y-66786677D01*
X107900499Y-66213324D01*
X107890174Y-66112247D01*
X107835908Y-65948484D01*
X107810153Y-65906729D01*
X107800122Y-65886566D01*
X107635919Y-65464027D01*
X107627500Y-65419116D01*
X107627500Y-62488057D01*
X107647185Y-62421018D01*
X107663814Y-62400381D01*
X110563868Y-59500326D01*
X110585393Y-59483131D01*
X110589949Y-59480258D01*
X110991908Y-59137847D01*
X110996855Y-59134217D01*
X110996812Y-59134162D01*
X111002257Y-59129818D01*
X111002262Y-59129816D01*
X111004072Y-59128005D01*
X111011338Y-59121295D01*
X111030315Y-59105131D01*
X111044681Y-59092415D01*
X111045340Y-59091809D01*
X111095736Y-59038191D01*
X111095745Y-59038175D01*
X111096223Y-59037544D01*
X111107516Y-59024560D01*
X111129816Y-59002262D01*
X111225789Y-58849522D01*
X111285368Y-58679255D01*
X111285369Y-58679249D01*
X111305565Y-58500003D01*
X111305565Y-58499996D01*
X111285369Y-58320750D01*
X111285368Y-58320745D01*
X111271287Y-58280504D01*
X111225789Y-58150478D01*
X111199412Y-58108500D01*
X111136314Y-58008080D01*
X111129816Y-57997738D01*
X111002262Y-57870184D01*
X110899422Y-57805565D01*
X110849523Y-57774211D01*
X110679254Y-57714631D01*
X110679249Y-57714630D01*
X110500004Y-57694435D01*
X110499996Y-57694435D01*
X110320750Y-57714630D01*
X110320745Y-57714631D01*
X110150476Y-57774211D01*
X109997734Y-57870186D01*
X109997733Y-57870187D01*
X109926031Y-57941888D01*
X109920344Y-57947228D01*
X109894873Y-57969678D01*
X109878701Y-57988662D01*
X109872004Y-57995916D01*
X109870187Y-57997732D01*
X109865848Y-58003174D01*
X109865793Y-58003130D01*
X109862158Y-58008080D01*
X109519731Y-58410060D01*
X109500758Y-58433916D01*
X109491393Y-58444409D01*
X106290497Y-61645305D01*
X106290494Y-61645309D01*
X106208146Y-61768550D01*
X106208141Y-61768559D01*
X106151418Y-61905502D01*
X106151418Y-61905503D01*
X106136106Y-61982483D01*
X106136106Y-61982484D01*
X106122500Y-62050882D01*
X106122500Y-65419114D01*
X106114079Y-65464030D01*
X106053877Y-65618945D01*
X106011246Y-65674301D01*
X105945455Y-65697822D01*
X105877391Y-65682040D01*
X105873201Y-65679568D01*
X105726518Y-65589093D01*
X105726513Y-65589091D01*
X105725069Y-65588612D01*
X105562753Y-65534826D01*
X105562751Y-65534825D01*
X105461678Y-65524500D01*
X104788330Y-65524500D01*
X104788312Y-65524501D01*
X104687247Y-65534825D01*
X104523484Y-65589092D01*
X104523481Y-65589093D01*
X104376648Y-65679661D01*
X104254661Y-65801648D01*
X104164093Y-65948481D01*
X104164092Y-65948484D01*
X104109826Y-66112247D01*
X104109826Y-66112248D01*
X104109825Y-66112248D01*
X104099500Y-66213315D01*
X103750500Y-66213315D01*
X103750500Y-51397844D01*
X104350000Y-51397844D01*
X104356401Y-51457372D01*
X104356403Y-51457379D01*
X104406645Y-51592086D01*
X104406649Y-51592093D01*
X104492809Y-51707187D01*
X104492812Y-51707190D01*
X104607906Y-51793350D01*
X104607913Y-51793354D01*
X104742620Y-51843596D01*
X104742627Y-51843598D01*
X104802155Y-51849999D01*
X104802172Y-51850000D01*
X104925000Y-51850000D01*
X105425000Y-51850000D01*
X105547828Y-51850000D01*
X105547844Y-51849999D01*
X105607372Y-51843598D01*
X105607379Y-51843596D01*
X105742086Y-51793354D01*
X105742093Y-51793350D01*
X105857187Y-51707190D01*
X105857190Y-51707187D01*
X105943350Y-51592093D01*
X105943354Y-51592086D01*
X105993596Y-51457379D01*
X105993598Y-51457372D01*
X105999999Y-51397844D01*
X106000000Y-51397827D01*
X106000000Y-51075000D01*
X105425000Y-51075000D01*
X105425000Y-51850000D01*
X104925000Y-51850000D01*
X104925000Y-51075000D01*
X104350000Y-51075000D01*
X104350000Y-51397844D01*
X103750500Y-51397844D01*
X103750500Y-50252155D01*
X104350000Y-50252155D01*
X104350000Y-50575000D01*
X104925000Y-50575000D01*
X105425000Y-50575000D01*
X106000000Y-50575000D01*
X106000000Y-50252172D01*
X105999999Y-50252155D01*
X105993598Y-50192627D01*
X105993596Y-50192620D01*
X105943354Y-50057913D01*
X105943350Y-50057906D01*
X105857190Y-49942812D01*
X105857187Y-49942809D01*
X105742093Y-49856649D01*
X105742086Y-49856645D01*
X105607379Y-49806403D01*
X105607372Y-49806401D01*
X105547844Y-49800000D01*
X105425000Y-49800000D01*
X105425000Y-50575000D01*
X104925000Y-50575000D01*
X104925000Y-49800000D01*
X104802155Y-49800000D01*
X104742627Y-49806401D01*
X104742620Y-49806403D01*
X104607913Y-49856645D01*
X104607906Y-49856649D01*
X104492812Y-49942809D01*
X104492809Y-49942812D01*
X104406649Y-50057906D01*
X104406645Y-50057913D01*
X104356403Y-50192620D01*
X104356401Y-50192627D01*
X104350000Y-50252155D01*
X103750500Y-50252155D01*
X103750500Y-47247844D01*
X104350000Y-47247844D01*
X104356401Y-47307372D01*
X104356403Y-47307379D01*
X104406645Y-47442086D01*
X104406649Y-47442093D01*
X104492809Y-47557187D01*
X104492812Y-47557190D01*
X104607906Y-47643350D01*
X104607913Y-47643354D01*
X104742620Y-47693596D01*
X104742627Y-47693598D01*
X104802155Y-47699999D01*
X104802172Y-47700000D01*
X104925000Y-47700000D01*
X105425000Y-47700000D01*
X105547828Y-47700000D01*
X105547844Y-47699999D01*
X105607372Y-47693598D01*
X105607379Y-47693596D01*
X105742086Y-47643354D01*
X105742093Y-47643350D01*
X105857187Y-47557190D01*
X105857190Y-47557187D01*
X105943350Y-47442093D01*
X105943354Y-47442086D01*
X105993596Y-47307379D01*
X105993598Y-47307372D01*
X105999999Y-47247844D01*
X106000000Y-47247827D01*
X106000000Y-46925000D01*
X105425000Y-46925000D01*
X105425000Y-47700000D01*
X104925000Y-47700000D01*
X104925000Y-46925000D01*
X104350000Y-46925000D01*
X104350000Y-47247844D01*
X103750500Y-47247844D01*
X103750500Y-46102155D01*
X104350000Y-46102155D01*
X104350000Y-46425000D01*
X104925000Y-46425000D01*
X105425000Y-46425000D01*
X106000000Y-46425000D01*
X106000000Y-46102172D01*
X105999999Y-46102155D01*
X105993598Y-46042627D01*
X105993596Y-46042620D01*
X105943354Y-45907913D01*
X105943350Y-45907906D01*
X105857190Y-45792812D01*
X105857187Y-45792809D01*
X105742093Y-45706649D01*
X105742086Y-45706645D01*
X105607379Y-45656403D01*
X105607372Y-45656401D01*
X105547844Y-45650000D01*
X105425000Y-45650000D01*
X105425000Y-46425000D01*
X104925000Y-46425000D01*
X104925000Y-45650000D01*
X104802155Y-45650000D01*
X104742627Y-45656401D01*
X104742620Y-45656403D01*
X104607913Y-45706645D01*
X104607906Y-45706649D01*
X104492812Y-45792809D01*
X104492809Y-45792812D01*
X104406649Y-45907906D01*
X104406645Y-45907913D01*
X104356403Y-46042620D01*
X104356401Y-46042627D01*
X104350000Y-46102155D01*
X103750500Y-46102155D01*
X103750500Y-36250000D01*
X104294457Y-36250000D01*
X104314612Y-36608902D01*
X104314614Y-36608914D01*
X104374826Y-36963296D01*
X104374828Y-36963305D01*
X104474339Y-37308718D01*
X104611905Y-37640831D01*
X104785790Y-37955454D01*
X104993805Y-38248622D01*
X104993806Y-38248623D01*
X105233339Y-38516661D01*
X105501377Y-38756194D01*
X105794548Y-38964211D01*
X106109167Y-39138094D01*
X106441276Y-39275659D01*
X106786700Y-39375173D01*
X107141093Y-39435387D01*
X107500000Y-39455543D01*
X107858907Y-39435387D01*
X108213300Y-39375173D01*
X108558724Y-39275659D01*
X108890833Y-39138094D01*
X109205452Y-38964211D01*
X109498623Y-38756194D01*
X109766661Y-38516661D01*
X110006194Y-38248623D01*
X110214211Y-37955452D01*
X110388094Y-37640833D01*
X110525659Y-37308724D01*
X110625173Y-36963300D01*
X110685387Y-36608907D01*
X110705543Y-36250000D01*
X110691503Y-35999996D01*
X114194435Y-35999996D01*
X114194435Y-36000003D01*
X114214630Y-36179249D01*
X114214631Y-36179254D01*
X114274211Y-36349523D01*
X114335274Y-36446703D01*
X114370184Y-36502262D01*
X114497738Y-36629816D01*
X114650478Y-36725789D01*
X114820745Y-36785368D01*
X114820750Y-36785369D01*
X114999996Y-36805565D01*
X115000000Y-36805565D01*
X115000004Y-36805565D01*
X115179248Y-36785369D01*
X115179248Y-36785368D01*
X115179255Y-36785368D01*
X115238547Y-36764620D01*
X115260052Y-36759199D01*
X115274415Y-36756921D01*
X115674678Y-36633043D01*
X115711339Y-36627500D01*
X131288661Y-36627500D01*
X131325321Y-36633042D01*
X131725584Y-36756921D01*
X131754469Y-36764931D01*
X131754471Y-36764931D01*
X131759732Y-36765912D01*
X131759614Y-36766541D01*
X131779445Y-36770916D01*
X131820745Y-36785368D01*
X131820749Y-36785368D01*
X131820751Y-36785369D01*
X131820748Y-36785369D01*
X131999996Y-36805565D01*
X132000000Y-36805565D01*
X132000004Y-36805565D01*
X132179249Y-36785369D01*
X132179252Y-36785368D01*
X132179255Y-36785368D01*
X132349522Y-36725789D01*
X132502262Y-36629816D01*
X132629816Y-36502262D01*
X132725789Y-36349522D01*
X132785368Y-36179255D01*
X132785369Y-36179249D01*
X132805565Y-36000003D01*
X132805565Y-35999996D01*
X132785369Y-35820750D01*
X132785368Y-35820745D01*
X132725789Y-35650478D01*
X132629816Y-35497738D01*
X132502262Y-35370184D01*
X132497126Y-35366957D01*
X132349523Y-35274211D01*
X132179254Y-35214631D01*
X132179249Y-35214630D01*
X132000004Y-35194435D01*
X131999996Y-35194435D01*
X131820746Y-35214631D01*
X131820742Y-35214632D01*
X131761473Y-35235370D01*
X131739961Y-35240795D01*
X131725591Y-35243075D01*
X131725584Y-35243077D01*
X131325315Y-35366957D01*
X131288654Y-35372500D01*
X115711345Y-35372500D01*
X115674684Y-35366957D01*
X115274400Y-35243072D01*
X115245525Y-35235067D01*
X115240273Y-35234089D01*
X115240388Y-35233467D01*
X115220560Y-35229084D01*
X115179254Y-35214631D01*
X115000004Y-35194435D01*
X114999996Y-35194435D01*
X114820750Y-35214630D01*
X114820745Y-35214631D01*
X114650476Y-35274211D01*
X114497737Y-35370184D01*
X114370184Y-35497737D01*
X114274211Y-35650476D01*
X114214631Y-35820745D01*
X114214630Y-35820750D01*
X114194435Y-35999996D01*
X110691503Y-35999996D01*
X110685387Y-35891093D01*
X110625173Y-35536700D01*
X110525659Y-35191276D01*
X110388094Y-34859167D01*
X110214211Y-34544548D01*
X110006194Y-34251377D01*
X109766661Y-33983339D01*
X109513299Y-33756921D01*
X109498622Y-33743805D01*
X109205454Y-33535790D01*
X108890831Y-33361905D01*
X108804086Y-33325974D01*
X108558724Y-33224341D01*
X108558720Y-33224339D01*
X108558718Y-33224339D01*
X108213305Y-33124828D01*
X108213296Y-33124826D01*
X107858914Y-33064614D01*
X107858902Y-33064612D01*
X107500000Y-33044457D01*
X107141097Y-33064612D01*
X107141085Y-33064614D01*
X106786703Y-33124826D01*
X106786694Y-33124828D01*
X106441281Y-33224339D01*
X106109168Y-33361905D01*
X105794545Y-33535790D01*
X105501377Y-33743805D01*
X105233339Y-33983339D01*
X104993805Y-34251377D01*
X104785790Y-34544545D01*
X104611905Y-34859168D01*
X104474339Y-35191281D01*
X104374828Y-35536694D01*
X104374826Y-35536703D01*
X104314614Y-35891085D01*
X104314612Y-35891097D01*
X104294457Y-36250000D01*
X103750500Y-36250000D01*
X103750500Y-32624500D01*
X103770185Y-32557461D01*
X103822989Y-32511706D01*
X103874500Y-32500500D01*
X130651928Y-32500500D01*
X130718967Y-32520185D01*
G37*
%TD.AperFunction*%
%TA.AperFunction,Conductor*%
G36*
X143184855Y-39916546D02*
G01*
X143201575Y-39935842D01*
X143331500Y-40121395D01*
X143331505Y-40121401D01*
X143498599Y-40288495D01*
X143689624Y-40422252D01*
X143733248Y-40476828D01*
X143742500Y-40523826D01*
X143742500Y-48818719D01*
X143722815Y-48885758D01*
X143706181Y-48906400D01*
X136276400Y-56336181D01*
X136215077Y-56369666D01*
X136188719Y-56372500D01*
X134314281Y-56372500D01*
X134247242Y-56352815D01*
X134201487Y-56300011D01*
X134191543Y-56230853D01*
X134220568Y-56167297D01*
X134226600Y-56160819D01*
X142317410Y-48070009D01*
X142317411Y-48070008D01*
X142357740Y-48009651D01*
X142386083Y-47967233D01*
X142399937Y-47933784D01*
X142433386Y-47853035D01*
X142457500Y-47731803D01*
X142457500Y-47608197D01*
X142457500Y-40523826D01*
X142477185Y-40456787D01*
X142510375Y-40422252D01*
X142701401Y-40288495D01*
X142868495Y-40121401D01*
X142998425Y-39935842D01*
X143053002Y-39892217D01*
X143122500Y-39885023D01*
X143184855Y-39916546D01*
G37*
%TD.AperFunction*%
%TD*%
%TA.AperFunction,Conductor*%
%TO.N,/LED2*%
G36*
X112880595Y-62167683D02*
G01*
X113489000Y-62459450D01*
X113494978Y-62466118D01*
X113494491Y-62475059D01*
X113489000Y-62480550D01*
X112880595Y-62772316D01*
X112871654Y-62772803D01*
X112869639Y-62771871D01*
X112575803Y-62600386D01*
X112570385Y-62593256D01*
X112570000Y-62590281D01*
X112570000Y-62349718D01*
X112573427Y-62341445D01*
X112575801Y-62339614D01*
X112869640Y-62168127D01*
X112878511Y-62166918D01*
X112880595Y-62167683D01*
G37*
%TD.AperFunction*%
%TD*%
%TA.AperFunction,Conductor*%
%TO.N,/LED2*%
G36*
X107185761Y-73605103D02*
G01*
X107619392Y-73869580D01*
X107624671Y-73876813D01*
X107625000Y-73879568D01*
X107625000Y-74120431D01*
X107621573Y-74128704D01*
X107619392Y-74130420D01*
X107185762Y-74394895D01*
X107176915Y-74396277D01*
X107170902Y-74392653D01*
X106939224Y-74130420D01*
X106830843Y-74007746D01*
X106827934Y-73999278D01*
X106830844Y-73992253D01*
X107170903Y-73607345D01*
X107178948Y-73603415D01*
X107185761Y-73605103D01*
G37*
%TD.AperFunction*%
%TD*%
%TA.AperFunction,Conductor*%
%TO.N,Net-(D2-K)*%
G36*
X105253573Y-73128427D02*
G01*
X105255391Y-73130778D01*
X105550420Y-73633485D01*
X105551652Y-73642355D01*
X105548368Y-73647908D01*
X105182912Y-73993516D01*
X105174547Y-73996710D01*
X105166969Y-73993642D01*
X105166831Y-73993516D01*
X105121966Y-73952409D01*
X104796170Y-73653910D01*
X104792385Y-73645794D01*
X104793199Y-73640967D01*
X104995069Y-73132384D01*
X105001307Y-73125958D01*
X105005944Y-73125000D01*
X105245300Y-73125000D01*
X105253573Y-73128427D01*
G37*
%TD.AperFunction*%
%TD*%
%TA.AperFunction,Conductor*%
%TO.N,Net-(D2-K)*%
G36*
X105132273Y-70704775D02*
G01*
X105417377Y-70931154D01*
X105591923Y-71069747D01*
X105596272Y-71077575D01*
X105594652Y-71084977D01*
X105255416Y-71644367D01*
X105248196Y-71649664D01*
X105245412Y-71650000D01*
X105004588Y-71650000D01*
X104996315Y-71646573D01*
X104994584Y-71644367D01*
X104655347Y-71084977D01*
X104653987Y-71076126D01*
X104658075Y-71069747D01*
X105117725Y-70704775D01*
X105126335Y-70702315D01*
X105132273Y-70704775D01*
G37*
%TD.AperFunction*%
%TD*%
%TA.AperFunction,Conductor*%
%TO.N,/Vdd*%
G36*
X107127268Y-69753427D02*
G01*
X107129900Y-69757462D01*
X107346876Y-70315800D01*
X107346679Y-70324753D01*
X107343246Y-70329201D01*
X106882275Y-70695223D01*
X106873665Y-70697684D01*
X106867725Y-70695223D01*
X106406753Y-70329201D01*
X106402404Y-70321373D01*
X106403122Y-70315804D01*
X106620100Y-69757461D01*
X106626290Y-69750992D01*
X106631005Y-69750000D01*
X107118995Y-69750000D01*
X107127268Y-69753427D01*
G37*
%TD.AperFunction*%
%TD*%
%TA.AperFunction,Conductor*%
%TO.N,/Vdd*%
G36*
X106882273Y-66504775D02*
G01*
X107343246Y-66870797D01*
X107347595Y-66878625D01*
X107346876Y-66884198D01*
X107129900Y-67442538D01*
X107123710Y-67449008D01*
X107118995Y-67450000D01*
X106631005Y-67450000D01*
X106622732Y-67446573D01*
X106620100Y-67442538D01*
X106403123Y-66884196D01*
X106403320Y-66875245D01*
X106406751Y-66870799D01*
X106867725Y-66504775D01*
X106876335Y-66502315D01*
X106882273Y-66504775D01*
G37*
%TD.AperFunction*%
%TD*%
%TA.AperFunction,Conductor*%
%TO.N,/ADC0*%
G36*
X123767354Y-68610706D02*
G01*
X123773666Y-68617058D01*
X123774020Y-68624961D01*
X123629551Y-69091759D01*
X123623831Y-69098649D01*
X123618374Y-69100000D01*
X123381626Y-69100000D01*
X123373353Y-69096573D01*
X123370449Y-69091759D01*
X123225979Y-68624961D01*
X123226807Y-68616045D01*
X123232643Y-68610707D01*
X123495490Y-68500883D01*
X123504444Y-68500857D01*
X123767354Y-68610706D01*
G37*
%TD.AperFunction*%
%TD*%
%TA.AperFunction,Conductor*%
%TO.N,/ADC0*%
G36*
X121109405Y-73694098D02*
G01*
X121618470Y-73944784D01*
X121624377Y-73951512D01*
X121625000Y-73955279D01*
X121625000Y-74194720D01*
X121621573Y-74202993D01*
X121618469Y-74205216D01*
X121109407Y-74455900D01*
X121100471Y-74456481D01*
X121095611Y-74453308D01*
X121066909Y-74421981D01*
X120756240Y-74082902D01*
X120753179Y-74074489D01*
X120756240Y-74067097D01*
X121095612Y-73696690D01*
X121103727Y-73692906D01*
X121109405Y-73694098D01*
G37*
%TD.AperFunction*%
%TD*%
%TA.AperFunction,Conductor*%
%TO.N,/ADC1*%
G36*
X124767354Y-68610706D02*
G01*
X124773666Y-68617058D01*
X124774020Y-68624961D01*
X124629551Y-69091759D01*
X124623831Y-69098649D01*
X124618374Y-69100000D01*
X124381626Y-69100000D01*
X124373353Y-69096573D01*
X124370449Y-69091759D01*
X124225979Y-68624961D01*
X124226807Y-68616045D01*
X124232643Y-68610707D01*
X124495490Y-68500883D01*
X124504444Y-68500857D01*
X124767354Y-68610706D01*
G37*
%TD.AperFunction*%
%TD*%
%TA.AperFunction,Conductor*%
%TO.N,/ADC1*%
G36*
X124626647Y-71903427D02*
G01*
X124629551Y-71908241D01*
X124774020Y-72375038D01*
X124773192Y-72383954D01*
X124767354Y-72389293D01*
X124504511Y-72499115D01*
X124495556Y-72499142D01*
X124495489Y-72499115D01*
X124232645Y-72389293D01*
X124226333Y-72382941D01*
X124225979Y-72375039D01*
X124370449Y-71908240D01*
X124376169Y-71901351D01*
X124381626Y-71900000D01*
X124618374Y-71900000D01*
X124626647Y-71903427D01*
G37*
%TD.AperFunction*%
%TD*%
%TA.AperFunction,Conductor*%
%TO.N,/ADC3*%
G36*
X131267354Y-68610706D02*
G01*
X131273666Y-68617058D01*
X131274020Y-68624961D01*
X131129551Y-69091759D01*
X131123831Y-69098649D01*
X131118374Y-69100000D01*
X130881626Y-69100000D01*
X130873353Y-69096573D01*
X130870449Y-69091759D01*
X130725979Y-68624961D01*
X130726807Y-68616045D01*
X130732643Y-68610707D01*
X130995490Y-68500883D01*
X131004444Y-68500857D01*
X131267354Y-68610706D01*
G37*
%TD.AperFunction*%
%TD*%
%TA.AperFunction,Conductor*%
%TO.N,/ADC3*%
G36*
X131126647Y-71403427D02*
G01*
X131129551Y-71408241D01*
X131274020Y-71875038D01*
X131273192Y-71883954D01*
X131267354Y-71889293D01*
X131004511Y-71999115D01*
X130995556Y-71999142D01*
X130995489Y-71999115D01*
X130732645Y-71889293D01*
X130726333Y-71882941D01*
X130725979Y-71875039D01*
X130870449Y-71408240D01*
X130876169Y-71401351D01*
X130881626Y-71400000D01*
X131118374Y-71400000D01*
X131126647Y-71403427D01*
G37*
%TD.AperFunction*%
%TD*%
%TA.AperFunction,Conductor*%
%TO.N,/ADC1*%
G36*
X124610103Y-58147966D02*
G01*
X124611133Y-58148882D01*
X124778208Y-58315957D01*
X124781624Y-58323726D01*
X124799475Y-58737824D01*
X124796408Y-58746237D01*
X124788290Y-58750017D01*
X124787814Y-58750028D01*
X124504179Y-58750695D01*
X124495897Y-58747288D01*
X124495850Y-58747241D01*
X124295170Y-58545219D01*
X124291771Y-58536934D01*
X124294281Y-58529731D01*
X124593673Y-58149910D01*
X124601484Y-58145536D01*
X124610103Y-58147966D01*
G37*
%TD.AperFunction*%
%TD*%
%TA.AperFunction,Conductor*%
%TO.N,/ADC1*%
G36*
X126120523Y-56781733D02*
G01*
X126727456Y-57049052D01*
X126733646Y-57055522D01*
X126733447Y-57064475D01*
X126727811Y-57070303D01*
X126122044Y-57361612D01*
X126113103Y-57362109D01*
X126109173Y-57359788D01*
X125914986Y-57186085D01*
X125914513Y-57185638D01*
X125745751Y-57016876D01*
X125742324Y-57008603D01*
X125745751Y-57000330D01*
X125748018Y-56998562D01*
X126109815Y-56782398D01*
X126118673Y-56781098D01*
X126120523Y-56781733D01*
G37*
%TD.AperFunction*%
%TD*%
%TA.AperFunction,Conductor*%
%TO.N,/SDA*%
G36*
X114150358Y-59468127D02*
G01*
X114444197Y-59639613D01*
X114449615Y-59646743D01*
X114450000Y-59649718D01*
X114450000Y-59890281D01*
X114446573Y-59898554D01*
X114444197Y-59900386D01*
X114150360Y-60071871D01*
X114141488Y-60073081D01*
X114139404Y-60072316D01*
X113530999Y-59780550D01*
X113525021Y-59773882D01*
X113525508Y-59764941D01*
X113530999Y-59759450D01*
X114139405Y-59467682D01*
X114148345Y-59467196D01*
X114150358Y-59468127D01*
G37*
%TD.AperFunction*%
%TD*%
%TA.AperFunction,Conductor*%
%TO.N,/SDA*%
G36*
X125010954Y-59353807D02*
G01*
X125016293Y-59359645D01*
X125126115Y-59622489D01*
X125126142Y-59631444D01*
X125126115Y-59631511D01*
X125016293Y-59894354D01*
X125009941Y-59900666D01*
X125002038Y-59901020D01*
X124535241Y-59756550D01*
X124528351Y-59750830D01*
X124527000Y-59745373D01*
X124527000Y-59508626D01*
X124530427Y-59500353D01*
X124535239Y-59497449D01*
X125002039Y-59352979D01*
X125010954Y-59353807D01*
G37*
%TD.AperFunction*%
%TD*%
%TA.AperFunction,Conductor*%
%TO.N,/SWDCLK*%
G36*
X130091759Y-56870449D02*
G01*
X130098649Y-56876169D01*
X130100000Y-56881626D01*
X130100000Y-57118373D01*
X130096573Y-57126646D01*
X130091759Y-57129550D01*
X129624961Y-57274020D01*
X129616045Y-57273192D01*
X129610706Y-57267354D01*
X129500883Y-57004509D01*
X129500857Y-56995556D01*
X129500862Y-56995542D01*
X129610707Y-56732643D01*
X129617058Y-56726333D01*
X129624960Y-56725979D01*
X130091759Y-56870449D01*
G37*
%TD.AperFunction*%
%TD*%
%TA.AperFunction,Conductor*%
%TO.N,/Vdd*%
G36*
X110296170Y-58296164D02*
G01*
X110296829Y-58296770D01*
X110500707Y-58499293D01*
X110500762Y-58499348D01*
X110703229Y-58703170D01*
X110706628Y-58711455D01*
X110703174Y-58719717D01*
X110702515Y-58720323D01*
X110262149Y-59095450D01*
X110253629Y-59098206D01*
X110246289Y-59094816D01*
X109905183Y-58753710D01*
X109901756Y-58745437D01*
X109904547Y-58737853D01*
X110279677Y-58297483D01*
X110287650Y-58293408D01*
X110296170Y-58296164D01*
G37*
%TD.AperFunction*%
%TD*%
%TA.AperFunction,Conductor*%
%TO.N,/Vdd*%
G36*
X107127268Y-65553427D02*
G01*
X107129900Y-65557462D01*
X107346876Y-66115800D01*
X107346679Y-66124753D01*
X107343246Y-66129201D01*
X106882275Y-66495223D01*
X106873665Y-66497684D01*
X106867725Y-66495223D01*
X106406753Y-66129201D01*
X106402404Y-66121373D01*
X106403122Y-66115804D01*
X106620100Y-65557461D01*
X106626290Y-65550992D01*
X106631005Y-65550000D01*
X107118995Y-65550000D01*
X107127268Y-65553427D01*
G37*
%TD.AperFunction*%
%TD*%
%TA.AperFunction,Conductor*%
%TO.N,/Vdd*%
G36*
X143287410Y-59499958D02*
G01*
X143295672Y-59503412D01*
X143299071Y-59511697D01*
X143299037Y-59512552D01*
X143254828Y-60089194D01*
X143250779Y-60097181D01*
X143243162Y-60100000D01*
X142756838Y-60100000D01*
X142748565Y-60096573D01*
X142745172Y-60089194D01*
X142700962Y-59512552D01*
X142703747Y-59504041D01*
X142711734Y-59499992D01*
X142712587Y-59499958D01*
X143000000Y-59499000D01*
X143287410Y-59499958D01*
G37*
%TD.AperFunction*%
%TD*%
%TA.AperFunction,Conductor*%
%TO.N,/Vdd*%
G36*
X143251435Y-66903427D02*
G01*
X143254828Y-66910806D01*
X143299037Y-67487447D01*
X143296252Y-67495958D01*
X143288265Y-67500007D01*
X143287410Y-67500041D01*
X143000039Y-67500999D01*
X142999961Y-67500999D01*
X142712589Y-67500041D01*
X142704327Y-67496587D01*
X142700928Y-67488302D01*
X142700962Y-67487447D01*
X142745172Y-66910806D01*
X142749221Y-66902819D01*
X142756838Y-66900000D01*
X143243162Y-66900000D01*
X143251435Y-66903427D01*
G37*
%TD.AperFunction*%
%TD*%
%TA.AperFunction,Conductor*%
%TO.N,Net-(D1-K)*%
G36*
X105132273Y-66504775D02*
G01*
X105417377Y-66731154D01*
X105591923Y-66869747D01*
X105596272Y-66877575D01*
X105594652Y-66884977D01*
X105255416Y-67444367D01*
X105248196Y-67449664D01*
X105245412Y-67450000D01*
X105004588Y-67450000D01*
X104996315Y-67446573D01*
X104994584Y-67444367D01*
X104655347Y-66884977D01*
X104653987Y-66876126D01*
X104658075Y-66869747D01*
X105117725Y-66504775D01*
X105126335Y-66502315D01*
X105132273Y-66504775D01*
G37*
%TD.AperFunction*%
%TD*%
%TA.AperFunction,Conductor*%
%TO.N,Net-(D1-K)*%
G36*
X105253671Y-67933075D02*
G01*
X105255413Y-67935299D01*
X105520148Y-68373580D01*
X105521492Y-68382433D01*
X105516182Y-68389644D01*
X105514644Y-68390425D01*
X105252182Y-68500088D01*
X105247632Y-68500992D01*
X104962683Y-68500042D01*
X104954421Y-68496588D01*
X104951022Y-68488303D01*
X104951062Y-68487377D01*
X104997098Y-67940367D01*
X105001207Y-67932410D01*
X105008757Y-67929648D01*
X105245398Y-67929648D01*
X105253671Y-67933075D01*
G37*
%TD.AperFunction*%
%TD*%
%TA.AperFunction,Conductor*%
%TO.N,/SDA*%
G36*
X128776284Y-61389260D02*
G01*
X128782122Y-61394599D01*
X129010042Y-61826830D01*
X129010870Y-61835746D01*
X129007966Y-61840560D01*
X128840560Y-62007966D01*
X128832287Y-62011393D01*
X128826830Y-62010042D01*
X128394599Y-61782122D01*
X128388879Y-61775232D01*
X128389233Y-61767329D01*
X128497436Y-61503815D01*
X128503746Y-61497464D01*
X128767329Y-61389233D01*
X128776284Y-61389260D01*
G37*
%TD.AperFunction*%
%TD*%
%TA.AperFunction,Conductor*%
%TO.N,/SDA*%
G36*
X144173167Y-73489956D02*
G01*
X144397380Y-73608186D01*
X144605400Y-73717877D01*
X144611120Y-73724767D01*
X144610766Y-73732670D01*
X144502563Y-73996184D01*
X144496251Y-74002536D01*
X144496184Y-74002563D01*
X144232670Y-74110766D01*
X144223715Y-74110739D01*
X144217877Y-74105400D01*
X143989957Y-73673169D01*
X143989129Y-73664253D01*
X143992031Y-73659441D01*
X144159440Y-73492032D01*
X144167712Y-73488606D01*
X144173167Y-73489956D01*
G37*
%TD.AperFunction*%
%TD*%
%TA.AperFunction,Conductor*%
%TO.N,/SCL*%
G36*
X138276284Y-74389260D02*
G01*
X138282122Y-74394599D01*
X138510042Y-74826830D01*
X138510870Y-74835746D01*
X138507966Y-74840560D01*
X138340560Y-75007966D01*
X138332287Y-75011393D01*
X138326830Y-75010042D01*
X137894599Y-74782122D01*
X137888879Y-74775232D01*
X137889233Y-74767329D01*
X137997436Y-74503815D01*
X138003746Y-74497464D01*
X138267329Y-74389233D01*
X138276284Y-74389260D01*
G37*
%TD.AperFunction*%
%TD*%
%TA.AperFunction,Conductor*%
%TO.N,/SCL*%
G36*
X131673167Y-63489956D02*
G01*
X131897380Y-63608186D01*
X132105400Y-63717877D01*
X132111120Y-63724767D01*
X132110766Y-63732670D01*
X132002563Y-63996184D01*
X131996251Y-64002536D01*
X131996184Y-64002563D01*
X131732670Y-64110766D01*
X131723715Y-64110739D01*
X131717877Y-64105400D01*
X131489957Y-63673169D01*
X131489129Y-63664253D01*
X131492031Y-63659441D01*
X131659440Y-63492032D01*
X131667712Y-63488606D01*
X131673167Y-63489956D01*
G37*
%TD.AperFunction*%
%TD*%
%TA.AperFunction,Conductor*%
%TO.N,/SCL*%
G36*
X127390358Y-60368127D02*
G01*
X127684197Y-60539613D01*
X127689615Y-60546743D01*
X127690000Y-60549718D01*
X127690000Y-60790281D01*
X127686573Y-60798554D01*
X127684197Y-60800386D01*
X127390360Y-60971871D01*
X127381488Y-60973081D01*
X127379404Y-60972316D01*
X126770999Y-60680550D01*
X126765021Y-60673882D01*
X126765508Y-60664941D01*
X126770999Y-60659450D01*
X127379405Y-60367682D01*
X127388345Y-60367196D01*
X127390358Y-60368127D01*
G37*
%TD.AperFunction*%
%TD*%
%TA.AperFunction,Conductor*%
%TO.N,/ADC2_raw*%
G36*
X126757747Y-77905844D02*
G01*
X127144240Y-78247304D01*
X127148171Y-78255350D01*
X127147616Y-78259700D01*
X127006633Y-78691928D01*
X127000810Y-78698731D01*
X126995510Y-78700000D01*
X126504490Y-78700000D01*
X126496217Y-78696573D01*
X126493367Y-78691928D01*
X126352383Y-78259700D01*
X126353075Y-78250772D01*
X126355756Y-78247307D01*
X126742253Y-77905843D01*
X126750722Y-77902934D01*
X126757747Y-77905844D01*
G37*
%TD.AperFunction*%
%TD*%
%TA.AperFunction,Conductor*%
%TO.N,/ADC0_raw*%
G36*
X120757747Y-77905844D02*
G01*
X121144240Y-78247304D01*
X121148171Y-78255350D01*
X121147616Y-78259700D01*
X121006633Y-78691928D01*
X121000810Y-78698731D01*
X120995510Y-78700000D01*
X120504490Y-78700000D01*
X120496217Y-78696573D01*
X120493367Y-78691928D01*
X120352383Y-78259700D01*
X120353075Y-78250772D01*
X120355756Y-78247307D01*
X120742253Y-77905843D01*
X120750722Y-77902934D01*
X120757747Y-77905844D01*
G37*
%TD.AperFunction*%
%TD*%
%TA.AperFunction,Conductor*%
%TO.N,/rx*%
G36*
X110840560Y-43492033D02*
G01*
X111007966Y-43659439D01*
X111011393Y-43667712D01*
X111010042Y-43673169D01*
X110782122Y-44105400D01*
X110775232Y-44111120D01*
X110767329Y-44110766D01*
X110503815Y-44002563D01*
X110497463Y-43996251D01*
X110497436Y-43996184D01*
X110389233Y-43732670D01*
X110389260Y-43723715D01*
X110394599Y-43717877D01*
X110826832Y-43489956D01*
X110835746Y-43489129D01*
X110840560Y-43492033D01*
G37*
%TD.AperFunction*%
%TD*%
%TA.AperFunction,Conductor*%
%TO.N,/rx*%
G36*
X124637467Y-62961089D02*
G01*
X124638796Y-62962677D01*
X124873628Y-63299975D01*
X124875543Y-63308723D01*
X124874992Y-63310738D01*
X124650295Y-63914924D01*
X124644199Y-63921484D01*
X124635251Y-63921812D01*
X124628786Y-63915918D01*
X124337890Y-63311011D01*
X124337394Y-63302072D01*
X124338698Y-63299455D01*
X124450565Y-63131762D01*
X124452016Y-63129994D01*
X124620922Y-62961088D01*
X124629194Y-62957662D01*
X124637467Y-62961089D01*
G37*
%TD.AperFunction*%
%TD*%
%TA.AperFunction,Conductor*%
%TO.N,/rx*%
G36*
X123092140Y-61297398D02*
G01*
X123093197Y-61298622D01*
X123260474Y-61521686D01*
X123431847Y-61750212D01*
X123434069Y-61758886D01*
X123430760Y-61765504D01*
X123263382Y-61932882D01*
X123255109Y-61936309D01*
X123251528Y-61935748D01*
X122770245Y-61781037D01*
X122763418Y-61775242D01*
X122762687Y-61766317D01*
X122763003Y-61765454D01*
X122765700Y-61758886D01*
X122871394Y-61501480D01*
X122873967Y-61497629D01*
X123075594Y-61297342D01*
X123083878Y-61293944D01*
X123092140Y-61297398D01*
G37*
%TD.AperFunction*%
%TD*%
%TA.AperFunction,Conductor*%
%TO.N,/tx*%
G36*
X120091759Y-60743449D02*
G01*
X120098649Y-60749169D01*
X120100000Y-60754626D01*
X120100000Y-60991373D01*
X120096573Y-60999646D01*
X120091759Y-61002550D01*
X119624961Y-61147020D01*
X119616045Y-61146192D01*
X119610706Y-61140354D01*
X119500883Y-60877509D01*
X119500857Y-60868556D01*
X119500862Y-60868542D01*
X119610707Y-60605643D01*
X119617058Y-60599333D01*
X119624960Y-60598979D01*
X120091759Y-60743449D01*
G37*
%TD.AperFunction*%
%TD*%
%TA.AperFunction,Conductor*%
%TO.N,/tx*%
G36*
X111340560Y-44492033D02*
G01*
X111507966Y-44659439D01*
X111511393Y-44667712D01*
X111510042Y-44673169D01*
X111282122Y-45105400D01*
X111275232Y-45111120D01*
X111267329Y-45110766D01*
X111003815Y-45002563D01*
X110997463Y-44996251D01*
X110997436Y-44996184D01*
X110889233Y-44732670D01*
X110889260Y-44723715D01*
X110894599Y-44717877D01*
X111326832Y-44489956D01*
X111335746Y-44489129D01*
X111340560Y-44492033D01*
G37*
%TD.AperFunction*%
%TD*%
%TA.AperFunction,Conductor*%
%TO.N,/tx*%
G36*
X123657932Y-62993523D02*
G01*
X123658601Y-62994252D01*
X123799614Y-63161838D01*
X123916084Y-63300256D01*
X123918789Y-63308793D01*
X123918392Y-63310966D01*
X123749106Y-63910938D01*
X123743562Y-63917970D01*
X123734669Y-63919021D01*
X123727637Y-63913477D01*
X123727302Y-63912832D01*
X123726391Y-63910938D01*
X123436841Y-63308829D01*
X123436046Y-63300882D01*
X123470004Y-63167229D01*
X123473069Y-63161840D01*
X123641387Y-62993522D01*
X123649659Y-62990096D01*
X123657932Y-62993523D01*
G37*
%TD.AperFunction*%
%TD*%
%TA.AperFunction,Conductor*%
%TO.N,/ADC0*%
G36*
X126120523Y-55881733D02*
G01*
X126727456Y-56149052D01*
X126733646Y-56155522D01*
X126733447Y-56164475D01*
X126727811Y-56170303D01*
X126122044Y-56461612D01*
X126113103Y-56462109D01*
X126109173Y-56459788D01*
X125914986Y-56286085D01*
X125914513Y-56285638D01*
X125745751Y-56116876D01*
X125742324Y-56108603D01*
X125745751Y-56100330D01*
X125748018Y-56098562D01*
X126109815Y-55882398D01*
X126118673Y-55881098D01*
X126120523Y-55881733D01*
G37*
%TD.AperFunction*%
%TD*%
%TA.AperFunction,Conductor*%
%TO.N,/ADC0*%
G36*
X124840560Y-57013033D02*
G01*
X125007966Y-57180439D01*
X125011393Y-57188712D01*
X125010042Y-57194169D01*
X124782122Y-57626400D01*
X124775232Y-57632120D01*
X124767329Y-57631766D01*
X124503815Y-57523563D01*
X124497463Y-57517251D01*
X124497436Y-57517184D01*
X124389233Y-57253670D01*
X124389260Y-57244715D01*
X124394599Y-57238877D01*
X124826832Y-57010956D01*
X124835746Y-57010129D01*
X124840560Y-57013033D01*
G37*
%TD.AperFunction*%
%TD*%
%TA.AperFunction,Conductor*%
%TO.N,/ADC0*%
G36*
X120757747Y-74080844D02*
G01*
X121144240Y-74422304D01*
X121148171Y-74430350D01*
X121147616Y-74434700D01*
X121006633Y-74866928D01*
X121000810Y-74873731D01*
X120995510Y-74875000D01*
X120504490Y-74875000D01*
X120496217Y-74871573D01*
X120493367Y-74866928D01*
X120352383Y-74434700D01*
X120353075Y-74425772D01*
X120355756Y-74422307D01*
X120742253Y-74080843D01*
X120750722Y-74077934D01*
X120757747Y-74080844D01*
G37*
%TD.AperFunction*%
%TD*%
%TA.AperFunction,Conductor*%
%TO.N,/ADC0*%
G36*
X121003783Y-75453427D02*
G01*
X121006633Y-75458072D01*
X121147616Y-75890298D01*
X121146924Y-75899226D01*
X121144240Y-75902694D01*
X120757747Y-76244155D01*
X120749278Y-76247065D01*
X120742253Y-76244155D01*
X120355759Y-75902694D01*
X120351828Y-75894648D01*
X120352382Y-75890301D01*
X120493367Y-75458071D01*
X120499190Y-75451269D01*
X120504490Y-75450000D01*
X120995510Y-75450000D01*
X121003783Y-75453427D01*
G37*
%TD.AperFunction*%
%TD*%
%TA.AperFunction,Conductor*%
%TO.N,/ADC2*%
G36*
X127390358Y-59468127D02*
G01*
X127684197Y-59639613D01*
X127689615Y-59646743D01*
X127690000Y-59649718D01*
X127690000Y-59890281D01*
X127686573Y-59898554D01*
X127684197Y-59900386D01*
X127390360Y-60071871D01*
X127381488Y-60073081D01*
X127379404Y-60072316D01*
X126770999Y-59780550D01*
X126765021Y-59773882D01*
X126765508Y-59764941D01*
X126770999Y-59759450D01*
X127379405Y-59467682D01*
X127388345Y-59467196D01*
X127390358Y-59468127D01*
G37*
%TD.AperFunction*%
%TD*%
%TA.AperFunction,Conductor*%
%TO.N,/ADC2*%
G36*
X130267354Y-68610706D02*
G01*
X130273666Y-68617058D01*
X130274020Y-68624961D01*
X130129551Y-69091759D01*
X130123831Y-69098649D01*
X130118374Y-69100000D01*
X129881626Y-69100000D01*
X129873353Y-69096573D01*
X129870449Y-69091759D01*
X129725979Y-68624961D01*
X129726807Y-68616045D01*
X129732643Y-68610707D01*
X129995490Y-68500883D01*
X130004444Y-68500857D01*
X130267354Y-68610706D01*
G37*
%TD.AperFunction*%
%TD*%
%TA.AperFunction,Conductor*%
%TO.N,/ADC2*%
G36*
X127109405Y-73694098D02*
G01*
X127618470Y-73944784D01*
X127624377Y-73951512D01*
X127625000Y-73955279D01*
X127625000Y-74194720D01*
X127621573Y-74202993D01*
X127618469Y-74205216D01*
X127109407Y-74455900D01*
X127100471Y-74456481D01*
X127095611Y-74453308D01*
X127066909Y-74421981D01*
X126756240Y-74082902D01*
X126753179Y-74074489D01*
X126756240Y-74067097D01*
X127095612Y-73696690D01*
X127103727Y-73692906D01*
X127109405Y-73694098D01*
G37*
%TD.AperFunction*%
%TD*%
%TA.AperFunction,Conductor*%
%TO.N,/ADC2*%
G36*
X129173167Y-59989956D02*
G01*
X129397380Y-60108186D01*
X129605400Y-60217877D01*
X129611120Y-60224767D01*
X129610766Y-60232670D01*
X129502563Y-60496184D01*
X129496251Y-60502536D01*
X129496184Y-60502563D01*
X129232670Y-60610766D01*
X129223715Y-60610739D01*
X129217877Y-60605400D01*
X128989957Y-60173169D01*
X128989129Y-60164253D01*
X128992031Y-60159441D01*
X129159440Y-59992032D01*
X129167712Y-59988606D01*
X129173167Y-59989956D01*
G37*
%TD.AperFunction*%
%TD*%
%TA.AperFunction,Conductor*%
%TO.N,/ADC2*%
G36*
X127003783Y-75453427D02*
G01*
X127006633Y-75458072D01*
X127147616Y-75890298D01*
X127146924Y-75899226D01*
X127144240Y-75902694D01*
X126757747Y-76244155D01*
X126749278Y-76247065D01*
X126742253Y-76244155D01*
X126355759Y-75902694D01*
X126351828Y-75894648D01*
X126352382Y-75890301D01*
X126493367Y-75458071D01*
X126499190Y-75451269D01*
X126504490Y-75450000D01*
X126995510Y-75450000D01*
X127003783Y-75453427D01*
G37*
%TD.AperFunction*%
%TD*%
%TA.AperFunction,Conductor*%
%TO.N,/ADC2*%
G36*
X126757747Y-74080844D02*
G01*
X127144240Y-74422304D01*
X127148171Y-74430350D01*
X127147616Y-74434700D01*
X127006633Y-74866928D01*
X127000810Y-74873731D01*
X126995510Y-74875000D01*
X126504490Y-74875000D01*
X126496217Y-74871573D01*
X126493367Y-74866928D01*
X126352383Y-74434700D01*
X126353075Y-74425772D01*
X126355756Y-74422307D01*
X126742253Y-74080843D01*
X126750722Y-74077934D01*
X126757747Y-74080844D01*
G37*
%TD.AperFunction*%
%TD*%
%TA.AperFunction,Conductor*%
%TO.N,/ADC3*%
G36*
X129738854Y-59424269D02*
G01*
X129963067Y-59542499D01*
X130171087Y-59652190D01*
X130176807Y-59659080D01*
X130176453Y-59666983D01*
X130068250Y-59930497D01*
X130061938Y-59936849D01*
X130061871Y-59936876D01*
X129798357Y-60045079D01*
X129789402Y-60045052D01*
X129783564Y-60039713D01*
X129555644Y-59607482D01*
X129554816Y-59598566D01*
X129557718Y-59593754D01*
X129725127Y-59426345D01*
X129733399Y-59422919D01*
X129738854Y-59424269D01*
G37*
%TD.AperFunction*%
%TD*%
%TA.AperFunction,Conductor*%
%TO.N,/ADC3*%
G36*
X127390358Y-58558127D02*
G01*
X127684197Y-58729613D01*
X127689615Y-58736743D01*
X127690000Y-58739718D01*
X127690000Y-58980281D01*
X127686573Y-58988554D01*
X127684197Y-58990386D01*
X127390360Y-59161871D01*
X127381488Y-59163081D01*
X127379404Y-59162316D01*
X126770999Y-58870550D01*
X126765021Y-58863882D01*
X126765508Y-58854941D01*
X126770999Y-58849450D01*
X127379405Y-58557682D01*
X127388345Y-58557196D01*
X127390358Y-58558127D01*
G37*
%TD.AperFunction*%
%TD*%
%TA.AperFunction,Conductor*%
%TO.N,/XRES*%
G36*
X107648785Y-50694584D02*
G01*
X107654803Y-50700270D01*
X107946880Y-51301604D01*
X107947412Y-51310543D01*
X107944629Y-51314989D01*
X107813732Y-51445886D01*
X107805459Y-51449313D01*
X107802728Y-51448990D01*
X107398248Y-51351888D01*
X107391003Y-51346624D01*
X107389370Y-51341972D01*
X107325408Y-50833167D01*
X107327777Y-50824534D01*
X107332565Y-50820891D01*
X107639830Y-50694561D01*
X107648785Y-50694584D01*
G37*
%TD.AperFunction*%
%TD*%
%TA.AperFunction,Conductor*%
%TO.N,/XRES*%
G36*
X107331150Y-46686305D02*
G01*
X107334953Y-46690108D01*
X107645974Y-47193485D01*
X107647408Y-47202324D01*
X107645641Y-47206295D01*
X107428489Y-47519960D01*
X107420962Y-47524811D01*
X107418869Y-47525000D01*
X107231131Y-47525000D01*
X107222858Y-47521573D01*
X107221511Y-47519960D01*
X107004358Y-47206295D01*
X107002467Y-47197542D01*
X107004025Y-47193485D01*
X107315047Y-46690108D01*
X107322311Y-46684871D01*
X107331150Y-46686305D01*
G37*
%TD.AperFunction*%
%TD*%
%TA.AperFunction,Conductor*%
%TO.N,/XRES*%
G36*
X107427142Y-49978427D02*
G01*
X107428489Y-49980040D01*
X107645641Y-50293704D01*
X107647532Y-50302457D01*
X107645974Y-50306514D01*
X107334953Y-50809891D01*
X107327689Y-50815128D01*
X107318850Y-50813694D01*
X107315047Y-50809891D01*
X107004025Y-50306514D01*
X107002591Y-50297675D01*
X107004356Y-50293707D01*
X107221511Y-49980040D01*
X107229038Y-49975189D01*
X107231131Y-49975000D01*
X107418869Y-49975000D01*
X107427142Y-49978427D01*
G37*
%TD.AperFunction*%
%TD*%
%TA.AperFunction,Conductor*%
%TO.N,/XRES*%
G36*
X112881027Y-51347890D02*
G01*
X113295225Y-51546523D01*
X113489000Y-51639450D01*
X113494978Y-51646118D01*
X113494491Y-51655059D01*
X113489000Y-51660550D01*
X112881032Y-51952107D01*
X112872091Y-51952594D01*
X112869446Y-51951267D01*
X112575173Y-51753476D01*
X112570219Y-51746017D01*
X112570000Y-51743766D01*
X112570000Y-51556233D01*
X112573427Y-51547960D01*
X112575173Y-51546523D01*
X112869448Y-51348731D01*
X112878224Y-51346961D01*
X112881027Y-51347890D01*
G37*
%TD.AperFunction*%
%TD*%
%TA.AperFunction,Conductor*%
%TO.N,/XRES*%
G36*
X107624372Y-45828427D02*
G01*
X107627770Y-45835874D01*
X107649733Y-46146235D01*
X107648015Y-46153211D01*
X107336878Y-46656775D01*
X107329614Y-46662012D01*
X107320775Y-46660578D01*
X107316158Y-46655203D01*
X107306348Y-46632130D01*
X107104165Y-46156585D01*
X107104082Y-46147633D01*
X107105953Y-46144511D01*
X107369492Y-45829196D01*
X107377427Y-45825047D01*
X107378469Y-45825000D01*
X107616099Y-45825000D01*
X107624372Y-45828427D01*
G37*
%TD.AperFunction*%
%TD*%
%TA.AperFunction,Conductor*%
%TO.N,/XRES*%
G36*
X107767354Y-44110706D02*
G01*
X107773666Y-44117058D01*
X107774020Y-44124961D01*
X107629551Y-44591759D01*
X107623831Y-44598649D01*
X107618374Y-44600000D01*
X107381626Y-44600000D01*
X107373353Y-44596573D01*
X107370449Y-44591759D01*
X107225979Y-44124961D01*
X107226807Y-44116045D01*
X107232643Y-44110707D01*
X107495490Y-44000883D01*
X107504444Y-44000857D01*
X107767354Y-44110706D01*
G37*
%TD.AperFunction*%
%TD*%
%TA.AperFunction,Conductor*%
%TO.N,/XRES*%
G36*
X132091759Y-32870449D02*
G01*
X132098649Y-32876169D01*
X132100000Y-32881626D01*
X132100000Y-33118373D01*
X132096573Y-33126646D01*
X132091759Y-33129550D01*
X131624961Y-33274020D01*
X131616045Y-33273192D01*
X131610706Y-33267354D01*
X131500883Y-33004509D01*
X131500857Y-32995556D01*
X131500862Y-32995542D01*
X131610707Y-32732643D01*
X131617058Y-32726333D01*
X131624960Y-32725979D01*
X132091759Y-32870449D01*
G37*
%TD.AperFunction*%
%TD*%
%TA.AperFunction,Conductor*%
%TO.N,/SWDCLK*%
G36*
X116648555Y-63003427D02*
G01*
X116650387Y-63005803D01*
X116821871Y-63299639D01*
X116823081Y-63308511D01*
X116822316Y-63310595D01*
X116530550Y-63919000D01*
X116523882Y-63924978D01*
X116514941Y-63924491D01*
X116509450Y-63919000D01*
X116217683Y-63310595D01*
X116217196Y-63301654D01*
X116218125Y-63299644D01*
X116389613Y-63005802D01*
X116396743Y-63000385D01*
X116399718Y-63000000D01*
X116640282Y-63000000D01*
X116648555Y-63003427D01*
G37*
%TD.AperFunction*%
%TD*%
%TA.AperFunction,Conductor*%
%TO.N,/SWDCLK*%
G36*
X116765545Y-60109950D02*
G01*
X116767703Y-60110852D01*
X116774015Y-60117204D01*
X116774486Y-60124703D01*
X116649338Y-60587377D01*
X116643870Y-60594468D01*
X116638044Y-60596022D01*
X116401273Y-60596022D01*
X116393000Y-60592595D01*
X116390242Y-60588223D01*
X116389943Y-60587377D01*
X116226524Y-60125234D01*
X116226997Y-60116293D01*
X116233042Y-60110540D01*
X116495490Y-60000883D01*
X116504444Y-60000857D01*
X116765545Y-60109950D01*
G37*
%TD.AperFunction*%
%TD*%
%TA.AperFunction,Conductor*%
%TO.N,/LED1*%
G36*
X119235059Y-63955508D02*
G01*
X119240550Y-63960999D01*
X119532316Y-64569404D01*
X119532803Y-64578345D01*
X119531871Y-64580360D01*
X119360387Y-64874197D01*
X119353257Y-64879615D01*
X119350282Y-64880000D01*
X119109718Y-64880000D01*
X119101445Y-64876573D01*
X119099613Y-64874197D01*
X118928128Y-64580360D01*
X118926918Y-64571488D01*
X118927680Y-64569409D01*
X119219450Y-63960998D01*
X119226118Y-63955021D01*
X119235059Y-63955508D01*
G37*
%TD.AperFunction*%
%TD*%
%TA.AperFunction,Conductor*%
%TO.N,/LED1*%
G36*
X119357000Y-66157405D02*
G01*
X119359758Y-66161777D01*
X119523475Y-66624763D01*
X119523002Y-66633706D01*
X119516955Y-66639460D01*
X119254511Y-66749115D01*
X119245556Y-66749142D01*
X119245489Y-66749115D01*
X118982296Y-66639147D01*
X118975984Y-66632795D01*
X118975513Y-66625297D01*
X119100662Y-66162623D01*
X119106130Y-66155532D01*
X119111956Y-66153978D01*
X119348727Y-66153978D01*
X119357000Y-66157405D01*
G37*
%TD.AperFunction*%
%TD*%
%TA.AperFunction,Conductor*%
%TO.N,/SWDIO*%
G36*
X130091759Y-55870449D02*
G01*
X130098649Y-55876169D01*
X130100000Y-55881626D01*
X130100000Y-56118373D01*
X130096573Y-56126646D01*
X130091759Y-56129550D01*
X129624961Y-56274020D01*
X129616045Y-56273192D01*
X129610706Y-56267354D01*
X129500883Y-56004509D01*
X129500857Y-55995556D01*
X129500862Y-55995542D01*
X129610707Y-55732643D01*
X129617058Y-55726333D01*
X129624960Y-55725979D01*
X130091759Y-55870449D01*
G37*
%TD.AperFunction*%
%TD*%
%TA.AperFunction,Conductor*%
%TO.N,/SWDIO*%
G36*
X115748555Y-63003427D02*
G01*
X115750387Y-63005803D01*
X115921871Y-63299639D01*
X115923081Y-63308511D01*
X115922316Y-63310595D01*
X115630550Y-63919000D01*
X115623882Y-63924978D01*
X115614941Y-63924491D01*
X115609450Y-63919000D01*
X115317683Y-63310595D01*
X115317196Y-63301654D01*
X115318125Y-63299644D01*
X115489613Y-63005802D01*
X115496743Y-63000385D01*
X115499718Y-63000000D01*
X115740282Y-63000000D01*
X115748555Y-63003427D01*
G37*
%TD.AperFunction*%
%TD*%
%TA.AperFunction,Conductor*%
%TO.N,/SWDIO*%
G36*
X115887354Y-60110706D02*
G01*
X115893666Y-60117058D01*
X115894020Y-60124961D01*
X115749551Y-60591759D01*
X115743831Y-60598649D01*
X115738374Y-60600000D01*
X115501626Y-60600000D01*
X115493353Y-60596573D01*
X115490449Y-60591759D01*
X115345979Y-60124961D01*
X115346807Y-60116045D01*
X115352643Y-60110707D01*
X115615490Y-60000883D01*
X115624444Y-60000857D01*
X115887354Y-60110706D01*
G37*
%TD.AperFunction*%
%TD*%
%TA.AperFunction,Conductor*%
%TO.N,/usbtx*%
G36*
X112880595Y-53147683D02*
G01*
X113489000Y-53439450D01*
X113494978Y-53446118D01*
X113494491Y-53455059D01*
X113489000Y-53460550D01*
X112880595Y-53752316D01*
X112871654Y-53752803D01*
X112869639Y-53751871D01*
X112575803Y-53580386D01*
X112570385Y-53573256D01*
X112570000Y-53570281D01*
X112570000Y-53329718D01*
X112573427Y-53321445D01*
X112575801Y-53319614D01*
X112869640Y-53148127D01*
X112878511Y-53146918D01*
X112880595Y-53147683D01*
G37*
%TD.AperFunction*%
%TD*%
%TA.AperFunction,Conductor*%
%TO.N,/usbtx*%
G36*
X137276284Y-35389260D02*
G01*
X137282122Y-35394599D01*
X137510042Y-35826830D01*
X137510870Y-35835746D01*
X137507966Y-35840560D01*
X137340560Y-36007966D01*
X137332287Y-36011393D01*
X137326830Y-36010042D01*
X136894599Y-35782122D01*
X136888879Y-35775232D01*
X136889233Y-35767329D01*
X136997436Y-35503815D01*
X137003746Y-35497464D01*
X137267329Y-35389233D01*
X137276284Y-35389260D01*
G37*
%TD.AperFunction*%
%TD*%
%TA.AperFunction,Conductor*%
%TO.N,/usbtx*%
G36*
X107776284Y-52389260D02*
G01*
X107782122Y-52394599D01*
X108010042Y-52826830D01*
X108010870Y-52835746D01*
X108007966Y-52840560D01*
X107840560Y-53007966D01*
X107832287Y-53011393D01*
X107826830Y-53010042D01*
X107394599Y-52782122D01*
X107388879Y-52775232D01*
X107389233Y-52767329D01*
X107497436Y-52503815D01*
X107503746Y-52497464D01*
X107767329Y-52389233D01*
X107776284Y-52389260D01*
G37*
%TD.AperFunction*%
%TD*%
%TA.AperFunction,Conductor*%
%TO.N,/usbrx*%
G36*
X115591759Y-35870449D02*
G01*
X115598649Y-35876169D01*
X115600000Y-35881626D01*
X115600000Y-36118373D01*
X115596573Y-36126646D01*
X115591759Y-36129550D01*
X115124961Y-36274020D01*
X115116045Y-36273192D01*
X115110706Y-36267354D01*
X115000883Y-36004509D01*
X115000857Y-35995556D01*
X115000862Y-35995542D01*
X115110707Y-35732643D01*
X115117058Y-35726333D01*
X115124960Y-35725979D01*
X115591759Y-35870449D01*
G37*
%TD.AperFunction*%
%TD*%
%TA.AperFunction,Conductor*%
%TO.N,/usbrx*%
G36*
X131883954Y-35726807D02*
G01*
X131889293Y-35732645D01*
X131999115Y-35995489D01*
X131999142Y-36004444D01*
X131999115Y-36004511D01*
X131889293Y-36267354D01*
X131882941Y-36273666D01*
X131875038Y-36274020D01*
X131408241Y-36129550D01*
X131401351Y-36123830D01*
X131400000Y-36118373D01*
X131400000Y-35881626D01*
X131403427Y-35873353D01*
X131408239Y-35870449D01*
X131875039Y-35725979D01*
X131883954Y-35726807D01*
G37*
%TD.AperFunction*%
%TD*%
%TA.AperFunction,Conductor*%
%TO.N,/usbrx*%
G36*
X112880595Y-54057683D02*
G01*
X113489000Y-54349450D01*
X113494978Y-54356118D01*
X113494491Y-54365059D01*
X113489000Y-54370550D01*
X112880595Y-54662316D01*
X112871654Y-54662803D01*
X112869639Y-54661871D01*
X112575803Y-54490386D01*
X112570385Y-54483256D01*
X112570000Y-54480281D01*
X112570000Y-54239718D01*
X112573427Y-54231445D01*
X112575801Y-54229614D01*
X112869640Y-54058127D01*
X112878511Y-54056918D01*
X112880595Y-54057683D01*
G37*
%TD.AperFunction*%
%TD*%
%TA.AperFunction,Conductor*%
%TO.N,/usbrx*%
G36*
X106526284Y-53139260D02*
G01*
X106532122Y-53144599D01*
X106760042Y-53576830D01*
X106760870Y-53585746D01*
X106757966Y-53590560D01*
X106590560Y-53757966D01*
X106582287Y-53761393D01*
X106576830Y-53760042D01*
X106144599Y-53532122D01*
X106138879Y-53525232D01*
X106139233Y-53517329D01*
X106247436Y-53253815D01*
X106253746Y-53247464D01*
X106517329Y-53139233D01*
X106526284Y-53139260D01*
G37*
%TD.AperFunction*%
%TD*%
M02*
