%TF.GenerationSoftware,KiCad,Pcbnew,8.0.5*%
%TF.CreationDate,2024-11-08T11:27:06-05:00*%
%TF.ProjectId,psocpcb,70736f63-7063-4622-9e6b-696361645f70,rev?*%
%TF.SameCoordinates,Original*%
%TF.FileFunction,Legend,Bot*%
%TF.FilePolarity,Positive*%
%FSLAX46Y46*%
G04 Gerber Fmt 4.6, Leading zero omitted, Abs format (unit mm)*
G04 Created by KiCad (PCBNEW 8.0.5) date 2024-11-08 11:27:06*
%MOMM*%
%LPD*%
G01*
G04 APERTURE LIST*
G04 Aperture macros list*
%AMRoundRect*
0 Rectangle with rounded corners*
0 $1 Rounding radius*
0 $2 $3 $4 $5 $6 $7 $8 $9 X,Y pos of 4 corners*
0 Add a 4 corners polygon primitive as box body*
4,1,4,$2,$3,$4,$5,$6,$7,$8,$9,$2,$3,0*
0 Add four circle primitives for the rounded corners*
1,1,$1+$1,$2,$3*
1,1,$1+$1,$4,$5*
1,1,$1+$1,$6,$7*
1,1,$1+$1,$8,$9*
0 Add four rect primitives between the rounded corners*
20,1,$1+$1,$2,$3,$4,$5,0*
20,1,$1+$1,$4,$5,$6,$7,0*
20,1,$1+$1,$6,$7,$8,$9,0*
20,1,$1+$1,$8,$9,$2,$3,0*%
G04 Aperture macros list end*
%ADD10C,0.100000*%
%ADD11C,0.200000*%
%ADD12C,0.150000*%
%ADD13C,0.120000*%
%ADD14C,3.100000*%
%ADD15C,5.400000*%
%ADD16R,1.700000X1.700000*%
%ADD17O,1.700000X1.700000*%
%ADD18RoundRect,0.250000X-0.350000X-0.625000X0.350000X-0.625000X0.350000X0.625000X-0.350000X0.625000X0*%
%ADD19O,1.200000X1.750000*%
%ADD20RoundRect,0.250000X0.350000X0.625000X-0.350000X0.625000X-0.350000X-0.625000X0.350000X-0.625000X0*%
%ADD21RoundRect,0.225000X0.250000X-0.225000X0.250000X0.225000X-0.250000X0.225000X-0.250000X-0.225000X0*%
%ADD22RoundRect,0.225000X-0.225000X-0.250000X0.225000X-0.250000X0.225000X0.250000X-0.225000X0.250000X0*%
%ADD23RoundRect,0.200000X0.275000X-0.200000X0.275000X0.200000X-0.275000X0.200000X-0.275000X-0.200000X0*%
%ADD24RoundRect,0.225000X-0.250000X0.225000X-0.250000X-0.225000X0.250000X-0.225000X0.250000X0.225000X0*%
%ADD25RoundRect,0.200000X-0.200000X-0.275000X0.200000X-0.275000X0.200000X0.275000X-0.200000X0.275000X0*%
%ADD26RoundRect,0.200000X-0.275000X0.200000X-0.275000X-0.200000X0.275000X-0.200000X0.275000X0.200000X0*%
G04 APERTURE END LIST*
D10*
X119372419Y-35161027D02*
X120372419Y-35494360D01*
X120372419Y-35494360D02*
X119372419Y-35827693D01*
X120372419Y-36161027D02*
X119372419Y-36161027D01*
X119372419Y-36161027D02*
X119372419Y-36399122D01*
X119372419Y-36399122D02*
X119420038Y-36541979D01*
X119420038Y-36541979D02*
X119515276Y-36637217D01*
X119515276Y-36637217D02*
X119610514Y-36684836D01*
X119610514Y-36684836D02*
X119800990Y-36732455D01*
X119800990Y-36732455D02*
X119943847Y-36732455D01*
X119943847Y-36732455D02*
X120134323Y-36684836D01*
X120134323Y-36684836D02*
X120229561Y-36637217D01*
X120229561Y-36637217D02*
X120324800Y-36541979D01*
X120324800Y-36541979D02*
X120372419Y-36399122D01*
X120372419Y-36399122D02*
X120372419Y-36161027D01*
X120372419Y-37161027D02*
X119372419Y-37161027D01*
X119372419Y-37161027D02*
X119372419Y-37399122D01*
X119372419Y-37399122D02*
X119420038Y-37541979D01*
X119420038Y-37541979D02*
X119515276Y-37637217D01*
X119515276Y-37637217D02*
X119610514Y-37684836D01*
X119610514Y-37684836D02*
X119800990Y-37732455D01*
X119800990Y-37732455D02*
X119943847Y-37732455D01*
X119943847Y-37732455D02*
X120134323Y-37684836D01*
X120134323Y-37684836D02*
X120229561Y-37637217D01*
X120229561Y-37637217D02*
X120324800Y-37541979D01*
X120324800Y-37541979D02*
X120372419Y-37399122D01*
X120372419Y-37399122D02*
X120372419Y-37161027D01*
D11*
X148914838Y-33893482D02*
X148867219Y-33798244D01*
X148867219Y-33798244D02*
X148867219Y-33655387D01*
X148867219Y-33655387D02*
X148914838Y-33512530D01*
X148914838Y-33512530D02*
X149010076Y-33417292D01*
X149010076Y-33417292D02*
X149105314Y-33369673D01*
X149105314Y-33369673D02*
X149295790Y-33322054D01*
X149295790Y-33322054D02*
X149438647Y-33322054D01*
X149438647Y-33322054D02*
X149629123Y-33369673D01*
X149629123Y-33369673D02*
X149724361Y-33417292D01*
X149724361Y-33417292D02*
X149819600Y-33512530D01*
X149819600Y-33512530D02*
X149867219Y-33655387D01*
X149867219Y-33655387D02*
X149867219Y-33750625D01*
X149867219Y-33750625D02*
X149819600Y-33893482D01*
X149819600Y-33893482D02*
X149771980Y-33941101D01*
X149771980Y-33941101D02*
X149438647Y-33941101D01*
X149438647Y-33941101D02*
X149438647Y-33750625D01*
X149867219Y-34369673D02*
X148867219Y-34369673D01*
X148867219Y-34369673D02*
X149867219Y-34941101D01*
X149867219Y-34941101D02*
X148867219Y-34941101D01*
X149867219Y-35417292D02*
X148867219Y-35417292D01*
X148867219Y-35417292D02*
X148867219Y-35655387D01*
X148867219Y-35655387D02*
X148914838Y-35798244D01*
X148914838Y-35798244D02*
X149010076Y-35893482D01*
X149010076Y-35893482D02*
X149105314Y-35941101D01*
X149105314Y-35941101D02*
X149295790Y-35988720D01*
X149295790Y-35988720D02*
X149438647Y-35988720D01*
X149438647Y-35988720D02*
X149629123Y-35941101D01*
X149629123Y-35941101D02*
X149724361Y-35893482D01*
X149724361Y-35893482D02*
X149819600Y-35798244D01*
X149819600Y-35798244D02*
X149867219Y-35655387D01*
X149867219Y-35655387D02*
X149867219Y-35417292D01*
D10*
X118170038Y-84577693D02*
X118122419Y-84482455D01*
X118122419Y-84482455D02*
X118122419Y-84339598D01*
X118122419Y-84339598D02*
X118170038Y-84196741D01*
X118170038Y-84196741D02*
X118265276Y-84101503D01*
X118265276Y-84101503D02*
X118360514Y-84053884D01*
X118360514Y-84053884D02*
X118550990Y-84006265D01*
X118550990Y-84006265D02*
X118693847Y-84006265D01*
X118693847Y-84006265D02*
X118884323Y-84053884D01*
X118884323Y-84053884D02*
X118979561Y-84101503D01*
X118979561Y-84101503D02*
X119074800Y-84196741D01*
X119074800Y-84196741D02*
X119122419Y-84339598D01*
X119122419Y-84339598D02*
X119122419Y-84434836D01*
X119122419Y-84434836D02*
X119074800Y-84577693D01*
X119074800Y-84577693D02*
X119027180Y-84625312D01*
X119027180Y-84625312D02*
X118693847Y-84625312D01*
X118693847Y-84625312D02*
X118693847Y-84434836D01*
X119122419Y-85053884D02*
X118122419Y-85053884D01*
X118122419Y-85053884D02*
X119122419Y-85625312D01*
X119122419Y-85625312D02*
X118122419Y-85625312D01*
X119122419Y-86101503D02*
X118122419Y-86101503D01*
X118122419Y-86101503D02*
X118122419Y-86339598D01*
X118122419Y-86339598D02*
X118170038Y-86482455D01*
X118170038Y-86482455D02*
X118265276Y-86577693D01*
X118265276Y-86577693D02*
X118360514Y-86625312D01*
X118360514Y-86625312D02*
X118550990Y-86672931D01*
X118550990Y-86672931D02*
X118693847Y-86672931D01*
X118693847Y-86672931D02*
X118884323Y-86625312D01*
X118884323Y-86625312D02*
X118979561Y-86577693D01*
X118979561Y-86577693D02*
X119074800Y-86482455D01*
X119074800Y-86482455D02*
X119122419Y-86339598D01*
X119122419Y-86339598D02*
X119122419Y-86101503D01*
X142824800Y-84006265D02*
X142872419Y-84149122D01*
X142872419Y-84149122D02*
X142872419Y-84387217D01*
X142872419Y-84387217D02*
X142824800Y-84482455D01*
X142824800Y-84482455D02*
X142777180Y-84530074D01*
X142777180Y-84530074D02*
X142681942Y-84577693D01*
X142681942Y-84577693D02*
X142586704Y-84577693D01*
X142586704Y-84577693D02*
X142491466Y-84530074D01*
X142491466Y-84530074D02*
X142443847Y-84482455D01*
X142443847Y-84482455D02*
X142396228Y-84387217D01*
X142396228Y-84387217D02*
X142348609Y-84196741D01*
X142348609Y-84196741D02*
X142300990Y-84101503D01*
X142300990Y-84101503D02*
X142253371Y-84053884D01*
X142253371Y-84053884D02*
X142158133Y-84006265D01*
X142158133Y-84006265D02*
X142062895Y-84006265D01*
X142062895Y-84006265D02*
X141967657Y-84053884D01*
X141967657Y-84053884D02*
X141920038Y-84101503D01*
X141920038Y-84101503D02*
X141872419Y-84196741D01*
X141872419Y-84196741D02*
X141872419Y-84434836D01*
X141872419Y-84434836D02*
X141920038Y-84577693D01*
X142777180Y-85577693D02*
X142824800Y-85530074D01*
X142824800Y-85530074D02*
X142872419Y-85387217D01*
X142872419Y-85387217D02*
X142872419Y-85291979D01*
X142872419Y-85291979D02*
X142824800Y-85149122D01*
X142824800Y-85149122D02*
X142729561Y-85053884D01*
X142729561Y-85053884D02*
X142634323Y-85006265D01*
X142634323Y-85006265D02*
X142443847Y-84958646D01*
X142443847Y-84958646D02*
X142300990Y-84958646D01*
X142300990Y-84958646D02*
X142110514Y-85006265D01*
X142110514Y-85006265D02*
X142015276Y-85053884D01*
X142015276Y-85053884D02*
X141920038Y-85149122D01*
X141920038Y-85149122D02*
X141872419Y-85291979D01*
X141872419Y-85291979D02*
X141872419Y-85387217D01*
X141872419Y-85387217D02*
X141920038Y-85530074D01*
X141920038Y-85530074D02*
X141967657Y-85577693D01*
X142872419Y-86482455D02*
X142872419Y-86006265D01*
X142872419Y-86006265D02*
X141872419Y-86006265D01*
D11*
X151367219Y-33226816D02*
X152367219Y-33560149D01*
X152367219Y-33560149D02*
X151367219Y-33893482D01*
X152367219Y-34226816D02*
X151367219Y-34226816D01*
X151367219Y-34226816D02*
X151367219Y-34464911D01*
X151367219Y-34464911D02*
X151414838Y-34607768D01*
X151414838Y-34607768D02*
X151510076Y-34703006D01*
X151510076Y-34703006D02*
X151605314Y-34750625D01*
X151605314Y-34750625D02*
X151795790Y-34798244D01*
X151795790Y-34798244D02*
X151938647Y-34798244D01*
X151938647Y-34798244D02*
X152129123Y-34750625D01*
X152129123Y-34750625D02*
X152224361Y-34703006D01*
X152224361Y-34703006D02*
X152319600Y-34607768D01*
X152319600Y-34607768D02*
X152367219Y-34464911D01*
X152367219Y-34464911D02*
X152367219Y-34226816D01*
X152367219Y-35226816D02*
X151367219Y-35226816D01*
X151367219Y-35226816D02*
X151367219Y-35464911D01*
X151367219Y-35464911D02*
X151414838Y-35607768D01*
X151414838Y-35607768D02*
X151510076Y-35703006D01*
X151510076Y-35703006D02*
X151605314Y-35750625D01*
X151605314Y-35750625D02*
X151795790Y-35798244D01*
X151795790Y-35798244D02*
X151938647Y-35798244D01*
X151938647Y-35798244D02*
X152129123Y-35750625D01*
X152129123Y-35750625D02*
X152224361Y-35703006D01*
X152224361Y-35703006D02*
X152319600Y-35607768D01*
X152319600Y-35607768D02*
X152367219Y-35464911D01*
X152367219Y-35464911D02*
X152367219Y-35226816D01*
X139617219Y-33798244D02*
X138617219Y-33798244D01*
X139569600Y-33798244D02*
X139617219Y-33703006D01*
X139617219Y-33703006D02*
X139617219Y-33512530D01*
X139617219Y-33512530D02*
X139569600Y-33417292D01*
X139569600Y-33417292D02*
X139521980Y-33369673D01*
X139521980Y-33369673D02*
X139426742Y-33322054D01*
X139426742Y-33322054D02*
X139141028Y-33322054D01*
X139141028Y-33322054D02*
X139045790Y-33369673D01*
X139045790Y-33369673D02*
X138998171Y-33417292D01*
X138998171Y-33417292D02*
X138950552Y-33512530D01*
X138950552Y-33512530D02*
X138950552Y-33703006D01*
X138950552Y-33703006D02*
X138998171Y-33798244D01*
X139617219Y-34274435D02*
X138617219Y-34274435D01*
X138998171Y-34274435D02*
X138950552Y-34369673D01*
X138950552Y-34369673D02*
X138950552Y-34560149D01*
X138950552Y-34560149D02*
X138998171Y-34655387D01*
X138998171Y-34655387D02*
X139045790Y-34703006D01*
X139045790Y-34703006D02*
X139141028Y-34750625D01*
X139141028Y-34750625D02*
X139426742Y-34750625D01*
X139426742Y-34750625D02*
X139521980Y-34703006D01*
X139521980Y-34703006D02*
X139569600Y-34655387D01*
X139569600Y-34655387D02*
X139617219Y-34560149D01*
X139617219Y-34560149D02*
X139617219Y-34369673D01*
X139617219Y-34369673D02*
X139569600Y-34274435D01*
X138950552Y-35607768D02*
X139760076Y-35607768D01*
X139760076Y-35607768D02*
X139855314Y-35560149D01*
X139855314Y-35560149D02*
X139902933Y-35512530D01*
X139902933Y-35512530D02*
X139950552Y-35417292D01*
X139950552Y-35417292D02*
X139950552Y-35274435D01*
X139950552Y-35274435D02*
X139902933Y-35179197D01*
X139569600Y-35607768D02*
X139617219Y-35512530D01*
X139617219Y-35512530D02*
X139617219Y-35322054D01*
X139617219Y-35322054D02*
X139569600Y-35226816D01*
X139569600Y-35226816D02*
X139521980Y-35179197D01*
X139521980Y-35179197D02*
X139426742Y-35131578D01*
X139426742Y-35131578D02*
X139141028Y-35131578D01*
X139141028Y-35131578D02*
X139045790Y-35179197D01*
X139045790Y-35179197D02*
X138998171Y-35226816D01*
X138998171Y-35226816D02*
X138950552Y-35322054D01*
X138950552Y-35322054D02*
X138950552Y-35512530D01*
X138950552Y-35512530D02*
X138998171Y-35607768D01*
X138617219Y-35941102D02*
X138617219Y-36512530D01*
X139617219Y-36226816D02*
X138617219Y-36226816D01*
X138617219Y-36750626D02*
X139617219Y-37417292D01*
X138617219Y-37417292D02*
X139617219Y-36750626D01*
X142069600Y-33322054D02*
X142117219Y-33464911D01*
X142117219Y-33464911D02*
X142117219Y-33703006D01*
X142117219Y-33703006D02*
X142069600Y-33798244D01*
X142069600Y-33798244D02*
X142021980Y-33845863D01*
X142021980Y-33845863D02*
X141926742Y-33893482D01*
X141926742Y-33893482D02*
X141831504Y-33893482D01*
X141831504Y-33893482D02*
X141736266Y-33845863D01*
X141736266Y-33845863D02*
X141688647Y-33798244D01*
X141688647Y-33798244D02*
X141641028Y-33703006D01*
X141641028Y-33703006D02*
X141593409Y-33512530D01*
X141593409Y-33512530D02*
X141545790Y-33417292D01*
X141545790Y-33417292D02*
X141498171Y-33369673D01*
X141498171Y-33369673D02*
X141402933Y-33322054D01*
X141402933Y-33322054D02*
X141307695Y-33322054D01*
X141307695Y-33322054D02*
X141212457Y-33369673D01*
X141212457Y-33369673D02*
X141164838Y-33417292D01*
X141164838Y-33417292D02*
X141117219Y-33512530D01*
X141117219Y-33512530D02*
X141117219Y-33750625D01*
X141117219Y-33750625D02*
X141164838Y-33893482D01*
X141117219Y-34226816D02*
X142117219Y-34464911D01*
X142117219Y-34464911D02*
X141402933Y-34655387D01*
X141402933Y-34655387D02*
X142117219Y-34845863D01*
X142117219Y-34845863D02*
X141117219Y-35083959D01*
X142117219Y-35464911D02*
X141117219Y-35464911D01*
X141117219Y-35464911D02*
X141117219Y-35703006D01*
X141117219Y-35703006D02*
X141164838Y-35845863D01*
X141164838Y-35845863D02*
X141260076Y-35941101D01*
X141260076Y-35941101D02*
X141355314Y-35988720D01*
X141355314Y-35988720D02*
X141545790Y-36036339D01*
X141545790Y-36036339D02*
X141688647Y-36036339D01*
X141688647Y-36036339D02*
X141879123Y-35988720D01*
X141879123Y-35988720D02*
X141974361Y-35941101D01*
X141974361Y-35941101D02*
X142069600Y-35845863D01*
X142069600Y-35845863D02*
X142117219Y-35703006D01*
X142117219Y-35703006D02*
X142117219Y-35464911D01*
X142117219Y-36464911D02*
X141117219Y-36464911D01*
X141117219Y-37131577D02*
X141117219Y-37322053D01*
X141117219Y-37322053D02*
X141164838Y-37417291D01*
X141164838Y-37417291D02*
X141260076Y-37512529D01*
X141260076Y-37512529D02*
X141450552Y-37560148D01*
X141450552Y-37560148D02*
X141783885Y-37560148D01*
X141783885Y-37560148D02*
X141974361Y-37512529D01*
X141974361Y-37512529D02*
X142069600Y-37417291D01*
X142069600Y-37417291D02*
X142117219Y-37322053D01*
X142117219Y-37322053D02*
X142117219Y-37131577D01*
X142117219Y-37131577D02*
X142069600Y-37036339D01*
X142069600Y-37036339D02*
X141974361Y-36941101D01*
X141974361Y-36941101D02*
X141783885Y-36893482D01*
X141783885Y-36893482D02*
X141450552Y-36893482D01*
X141450552Y-36893482D02*
X141260076Y-36941101D01*
X141260076Y-36941101D02*
X141164838Y-37036339D01*
X141164838Y-37036339D02*
X141117219Y-37131577D01*
D10*
X123622419Y-35661027D02*
X123622419Y-36232455D01*
X124622419Y-35946741D02*
X123622419Y-35946741D01*
X123622419Y-36470551D02*
X124622419Y-37137217D01*
X123622419Y-37137217D02*
X124622419Y-36470551D01*
X138170038Y-84327693D02*
X138122419Y-84232455D01*
X138122419Y-84232455D02*
X138122419Y-84089598D01*
X138122419Y-84089598D02*
X138170038Y-83946741D01*
X138170038Y-83946741D02*
X138265276Y-83851503D01*
X138265276Y-83851503D02*
X138360514Y-83803884D01*
X138360514Y-83803884D02*
X138550990Y-83756265D01*
X138550990Y-83756265D02*
X138693847Y-83756265D01*
X138693847Y-83756265D02*
X138884323Y-83803884D01*
X138884323Y-83803884D02*
X138979561Y-83851503D01*
X138979561Y-83851503D02*
X139074800Y-83946741D01*
X139074800Y-83946741D02*
X139122419Y-84089598D01*
X139122419Y-84089598D02*
X139122419Y-84184836D01*
X139122419Y-84184836D02*
X139074800Y-84327693D01*
X139074800Y-84327693D02*
X139027180Y-84375312D01*
X139027180Y-84375312D02*
X138693847Y-84375312D01*
X138693847Y-84375312D02*
X138693847Y-84184836D01*
X139122419Y-84803884D02*
X138122419Y-84803884D01*
X138122419Y-84803884D02*
X139122419Y-85375312D01*
X139122419Y-85375312D02*
X138122419Y-85375312D01*
X139122419Y-85851503D02*
X138122419Y-85851503D01*
X138122419Y-85851503D02*
X138122419Y-86089598D01*
X138122419Y-86089598D02*
X138170038Y-86232455D01*
X138170038Y-86232455D02*
X138265276Y-86327693D01*
X138265276Y-86327693D02*
X138360514Y-86375312D01*
X138360514Y-86375312D02*
X138550990Y-86422931D01*
X138550990Y-86422931D02*
X138693847Y-86422931D01*
X138693847Y-86422931D02*
X138884323Y-86375312D01*
X138884323Y-86375312D02*
X138979561Y-86327693D01*
X138979561Y-86327693D02*
X139074800Y-86232455D01*
X139074800Y-86232455D02*
X139122419Y-86089598D01*
X139122419Y-86089598D02*
X139122419Y-85851503D01*
X126836704Y-83756265D02*
X126836704Y-84232455D01*
X127122419Y-83661027D02*
X126122419Y-83994360D01*
X126122419Y-83994360D02*
X127122419Y-84327693D01*
X127122419Y-84661027D02*
X126122419Y-84661027D01*
X126122419Y-84661027D02*
X126122419Y-84899122D01*
X126122419Y-84899122D02*
X126170038Y-85041979D01*
X126170038Y-85041979D02*
X126265276Y-85137217D01*
X126265276Y-85137217D02*
X126360514Y-85184836D01*
X126360514Y-85184836D02*
X126550990Y-85232455D01*
X126550990Y-85232455D02*
X126693847Y-85232455D01*
X126693847Y-85232455D02*
X126884323Y-85184836D01*
X126884323Y-85184836D02*
X126979561Y-85137217D01*
X126979561Y-85137217D02*
X127074800Y-85041979D01*
X127074800Y-85041979D02*
X127122419Y-84899122D01*
X127122419Y-84899122D02*
X127122419Y-84661027D01*
X127027180Y-86232455D02*
X127074800Y-86184836D01*
X127074800Y-86184836D02*
X127122419Y-86041979D01*
X127122419Y-86041979D02*
X127122419Y-85946741D01*
X127122419Y-85946741D02*
X127074800Y-85803884D01*
X127074800Y-85803884D02*
X126979561Y-85708646D01*
X126979561Y-85708646D02*
X126884323Y-85661027D01*
X126884323Y-85661027D02*
X126693847Y-85613408D01*
X126693847Y-85613408D02*
X126550990Y-85613408D01*
X126550990Y-85613408D02*
X126360514Y-85661027D01*
X126360514Y-85661027D02*
X126265276Y-85708646D01*
X126265276Y-85708646D02*
X126170038Y-85803884D01*
X126170038Y-85803884D02*
X126122419Y-85946741D01*
X126122419Y-85946741D02*
X126122419Y-86041979D01*
X126122419Y-86041979D02*
X126170038Y-86184836D01*
X126170038Y-86184836D02*
X126217657Y-86232455D01*
X126217657Y-86613408D02*
X126170038Y-86661027D01*
X126170038Y-86661027D02*
X126122419Y-86756265D01*
X126122419Y-86756265D02*
X126122419Y-86994360D01*
X126122419Y-86994360D02*
X126170038Y-87089598D01*
X126170038Y-87089598D02*
X126217657Y-87137217D01*
X126217657Y-87137217D02*
X126312895Y-87184836D01*
X126312895Y-87184836D02*
X126408133Y-87184836D01*
X126408133Y-87184836D02*
X126550990Y-87137217D01*
X126550990Y-87137217D02*
X127122419Y-86565789D01*
X127122419Y-86565789D02*
X127122419Y-87184836D01*
X144824800Y-84006265D02*
X144872419Y-84149122D01*
X144872419Y-84149122D02*
X144872419Y-84387217D01*
X144872419Y-84387217D02*
X144824800Y-84482455D01*
X144824800Y-84482455D02*
X144777180Y-84530074D01*
X144777180Y-84530074D02*
X144681942Y-84577693D01*
X144681942Y-84577693D02*
X144586704Y-84577693D01*
X144586704Y-84577693D02*
X144491466Y-84530074D01*
X144491466Y-84530074D02*
X144443847Y-84482455D01*
X144443847Y-84482455D02*
X144396228Y-84387217D01*
X144396228Y-84387217D02*
X144348609Y-84196741D01*
X144348609Y-84196741D02*
X144300990Y-84101503D01*
X144300990Y-84101503D02*
X144253371Y-84053884D01*
X144253371Y-84053884D02*
X144158133Y-84006265D01*
X144158133Y-84006265D02*
X144062895Y-84006265D01*
X144062895Y-84006265D02*
X143967657Y-84053884D01*
X143967657Y-84053884D02*
X143920038Y-84101503D01*
X143920038Y-84101503D02*
X143872419Y-84196741D01*
X143872419Y-84196741D02*
X143872419Y-84434836D01*
X143872419Y-84434836D02*
X143920038Y-84577693D01*
X144872419Y-85006265D02*
X143872419Y-85006265D01*
X143872419Y-85006265D02*
X143872419Y-85244360D01*
X143872419Y-85244360D02*
X143920038Y-85387217D01*
X143920038Y-85387217D02*
X144015276Y-85482455D01*
X144015276Y-85482455D02*
X144110514Y-85530074D01*
X144110514Y-85530074D02*
X144300990Y-85577693D01*
X144300990Y-85577693D02*
X144443847Y-85577693D01*
X144443847Y-85577693D02*
X144634323Y-85530074D01*
X144634323Y-85530074D02*
X144729561Y-85482455D01*
X144729561Y-85482455D02*
X144824800Y-85387217D01*
X144824800Y-85387217D02*
X144872419Y-85244360D01*
X144872419Y-85244360D02*
X144872419Y-85006265D01*
X144586704Y-85958646D02*
X144586704Y-86434836D01*
X144872419Y-85863408D02*
X143872419Y-86196741D01*
X143872419Y-86196741D02*
X144872419Y-86530074D01*
X120836704Y-83756265D02*
X120836704Y-84232455D01*
X121122419Y-83661027D02*
X120122419Y-83994360D01*
X120122419Y-83994360D02*
X121122419Y-84327693D01*
X121122419Y-84661027D02*
X120122419Y-84661027D01*
X120122419Y-84661027D02*
X120122419Y-84899122D01*
X120122419Y-84899122D02*
X120170038Y-85041979D01*
X120170038Y-85041979D02*
X120265276Y-85137217D01*
X120265276Y-85137217D02*
X120360514Y-85184836D01*
X120360514Y-85184836D02*
X120550990Y-85232455D01*
X120550990Y-85232455D02*
X120693847Y-85232455D01*
X120693847Y-85232455D02*
X120884323Y-85184836D01*
X120884323Y-85184836D02*
X120979561Y-85137217D01*
X120979561Y-85137217D02*
X121074800Y-85041979D01*
X121074800Y-85041979D02*
X121122419Y-84899122D01*
X121122419Y-84899122D02*
X121122419Y-84661027D01*
X121027180Y-86232455D02*
X121074800Y-86184836D01*
X121074800Y-86184836D02*
X121122419Y-86041979D01*
X121122419Y-86041979D02*
X121122419Y-85946741D01*
X121122419Y-85946741D02*
X121074800Y-85803884D01*
X121074800Y-85803884D02*
X120979561Y-85708646D01*
X120979561Y-85708646D02*
X120884323Y-85661027D01*
X120884323Y-85661027D02*
X120693847Y-85613408D01*
X120693847Y-85613408D02*
X120550990Y-85613408D01*
X120550990Y-85613408D02*
X120360514Y-85661027D01*
X120360514Y-85661027D02*
X120265276Y-85708646D01*
X120265276Y-85708646D02*
X120170038Y-85803884D01*
X120170038Y-85803884D02*
X120122419Y-85946741D01*
X120122419Y-85946741D02*
X120122419Y-86041979D01*
X120122419Y-86041979D02*
X120170038Y-86184836D01*
X120170038Y-86184836D02*
X120217657Y-86232455D01*
X120122419Y-86851503D02*
X120122419Y-86946741D01*
X120122419Y-86946741D02*
X120170038Y-87041979D01*
X120170038Y-87041979D02*
X120217657Y-87089598D01*
X120217657Y-87089598D02*
X120312895Y-87137217D01*
X120312895Y-87137217D02*
X120503371Y-87184836D01*
X120503371Y-87184836D02*
X120741466Y-87184836D01*
X120741466Y-87184836D02*
X120931942Y-87137217D01*
X120931942Y-87137217D02*
X121027180Y-87089598D01*
X121027180Y-87089598D02*
X121074800Y-87041979D01*
X121074800Y-87041979D02*
X121122419Y-86946741D01*
X121122419Y-86946741D02*
X121122419Y-86851503D01*
X121122419Y-86851503D02*
X121074800Y-86756265D01*
X121074800Y-86756265D02*
X121027180Y-86708646D01*
X121027180Y-86708646D02*
X120931942Y-86661027D01*
X120931942Y-86661027D02*
X120741466Y-86613408D01*
X120741466Y-86613408D02*
X120503371Y-86613408D01*
X120503371Y-86613408D02*
X120312895Y-86661027D01*
X120312895Y-86661027D02*
X120217657Y-86708646D01*
X120217657Y-86708646D02*
X120170038Y-86756265D01*
X120170038Y-86756265D02*
X120122419Y-86851503D01*
D11*
X146367219Y-33274435D02*
X147367219Y-33941101D01*
X146367219Y-33941101D02*
X147367219Y-33274435D01*
X147367219Y-34893482D02*
X146891028Y-34560149D01*
X147367219Y-34322054D02*
X146367219Y-34322054D01*
X146367219Y-34322054D02*
X146367219Y-34703006D01*
X146367219Y-34703006D02*
X146414838Y-34798244D01*
X146414838Y-34798244D02*
X146462457Y-34845863D01*
X146462457Y-34845863D02*
X146557695Y-34893482D01*
X146557695Y-34893482D02*
X146700552Y-34893482D01*
X146700552Y-34893482D02*
X146795790Y-34845863D01*
X146795790Y-34845863D02*
X146843409Y-34798244D01*
X146843409Y-34798244D02*
X146891028Y-34703006D01*
X146891028Y-34703006D02*
X146891028Y-34322054D01*
X146843409Y-35322054D02*
X146843409Y-35655387D01*
X147367219Y-35798244D02*
X147367219Y-35322054D01*
X147367219Y-35322054D02*
X146367219Y-35322054D01*
X146367219Y-35322054D02*
X146367219Y-35798244D01*
X147319600Y-36179197D02*
X147367219Y-36322054D01*
X147367219Y-36322054D02*
X147367219Y-36560149D01*
X147367219Y-36560149D02*
X147319600Y-36655387D01*
X147319600Y-36655387D02*
X147271980Y-36703006D01*
X147271980Y-36703006D02*
X147176742Y-36750625D01*
X147176742Y-36750625D02*
X147081504Y-36750625D01*
X147081504Y-36750625D02*
X146986266Y-36703006D01*
X146986266Y-36703006D02*
X146938647Y-36655387D01*
X146938647Y-36655387D02*
X146891028Y-36560149D01*
X146891028Y-36560149D02*
X146843409Y-36369673D01*
X146843409Y-36369673D02*
X146795790Y-36274435D01*
X146795790Y-36274435D02*
X146748171Y-36226816D01*
X146748171Y-36226816D02*
X146652933Y-36179197D01*
X146652933Y-36179197D02*
X146557695Y-36179197D01*
X146557695Y-36179197D02*
X146462457Y-36226816D01*
X146462457Y-36226816D02*
X146414838Y-36274435D01*
X146414838Y-36274435D02*
X146367219Y-36369673D01*
X146367219Y-36369673D02*
X146367219Y-36607768D01*
X146367219Y-36607768D02*
X146414838Y-36750625D01*
X144603600Y-33283958D02*
X144641695Y-33398244D01*
X144641695Y-33398244D02*
X144641695Y-33588720D01*
X144641695Y-33588720D02*
X144603600Y-33664911D01*
X144603600Y-33664911D02*
X144565504Y-33703006D01*
X144565504Y-33703006D02*
X144489314Y-33741101D01*
X144489314Y-33741101D02*
X144413123Y-33741101D01*
X144413123Y-33741101D02*
X144336933Y-33703006D01*
X144336933Y-33703006D02*
X144298838Y-33664911D01*
X144298838Y-33664911D02*
X144260742Y-33588720D01*
X144260742Y-33588720D02*
X144222647Y-33436339D01*
X144222647Y-33436339D02*
X144184552Y-33360149D01*
X144184552Y-33360149D02*
X144146457Y-33322054D01*
X144146457Y-33322054D02*
X144070266Y-33283958D01*
X144070266Y-33283958D02*
X143994076Y-33283958D01*
X143994076Y-33283958D02*
X143917885Y-33322054D01*
X143917885Y-33322054D02*
X143879790Y-33360149D01*
X143879790Y-33360149D02*
X143841695Y-33436339D01*
X143841695Y-33436339D02*
X143841695Y-33626816D01*
X143841695Y-33626816D02*
X143879790Y-33741101D01*
X143841695Y-34007768D02*
X144641695Y-34198244D01*
X144641695Y-34198244D02*
X144070266Y-34350625D01*
X144070266Y-34350625D02*
X144641695Y-34503006D01*
X144641695Y-34503006D02*
X143841695Y-34693483D01*
X144641695Y-34998245D02*
X143841695Y-34998245D01*
X143841695Y-34998245D02*
X143841695Y-35188721D01*
X143841695Y-35188721D02*
X143879790Y-35303007D01*
X143879790Y-35303007D02*
X143955980Y-35379197D01*
X143955980Y-35379197D02*
X144032171Y-35417292D01*
X144032171Y-35417292D02*
X144184552Y-35455388D01*
X144184552Y-35455388D02*
X144298838Y-35455388D01*
X144298838Y-35455388D02*
X144451219Y-35417292D01*
X144451219Y-35417292D02*
X144527409Y-35379197D01*
X144527409Y-35379197D02*
X144603600Y-35303007D01*
X144603600Y-35303007D02*
X144641695Y-35188721D01*
X144641695Y-35188721D02*
X144641695Y-34998245D01*
X144565504Y-36255388D02*
X144603600Y-36217292D01*
X144603600Y-36217292D02*
X144641695Y-36103007D01*
X144641695Y-36103007D02*
X144641695Y-36026816D01*
X144641695Y-36026816D02*
X144603600Y-35912530D01*
X144603600Y-35912530D02*
X144527409Y-35836340D01*
X144527409Y-35836340D02*
X144451219Y-35798245D01*
X144451219Y-35798245D02*
X144298838Y-35760149D01*
X144298838Y-35760149D02*
X144184552Y-35760149D01*
X144184552Y-35760149D02*
X144032171Y-35798245D01*
X144032171Y-35798245D02*
X143955980Y-35836340D01*
X143955980Y-35836340D02*
X143879790Y-35912530D01*
X143879790Y-35912530D02*
X143841695Y-36026816D01*
X143841695Y-36026816D02*
X143841695Y-36103007D01*
X143841695Y-36103007D02*
X143879790Y-36217292D01*
X143879790Y-36217292D02*
X143917885Y-36255388D01*
X144641695Y-36979197D02*
X144641695Y-36598245D01*
X144641695Y-36598245D02*
X143841695Y-36598245D01*
X144641695Y-37245864D02*
X143841695Y-37245864D01*
X144641695Y-37703007D02*
X144184552Y-37360149D01*
X143841695Y-37703007D02*
X144298838Y-37245864D01*
D10*
X128836704Y-83756265D02*
X128836704Y-84232455D01*
X129122419Y-83661027D02*
X128122419Y-83994360D01*
X128122419Y-83994360D02*
X129122419Y-84327693D01*
X129122419Y-84661027D02*
X128122419Y-84661027D01*
X128122419Y-84661027D02*
X128122419Y-84899122D01*
X128122419Y-84899122D02*
X128170038Y-85041979D01*
X128170038Y-85041979D02*
X128265276Y-85137217D01*
X128265276Y-85137217D02*
X128360514Y-85184836D01*
X128360514Y-85184836D02*
X128550990Y-85232455D01*
X128550990Y-85232455D02*
X128693847Y-85232455D01*
X128693847Y-85232455D02*
X128884323Y-85184836D01*
X128884323Y-85184836D02*
X128979561Y-85137217D01*
X128979561Y-85137217D02*
X129074800Y-85041979D01*
X129074800Y-85041979D02*
X129122419Y-84899122D01*
X129122419Y-84899122D02*
X129122419Y-84661027D01*
X129027180Y-86232455D02*
X129074800Y-86184836D01*
X129074800Y-86184836D02*
X129122419Y-86041979D01*
X129122419Y-86041979D02*
X129122419Y-85946741D01*
X129122419Y-85946741D02*
X129074800Y-85803884D01*
X129074800Y-85803884D02*
X128979561Y-85708646D01*
X128979561Y-85708646D02*
X128884323Y-85661027D01*
X128884323Y-85661027D02*
X128693847Y-85613408D01*
X128693847Y-85613408D02*
X128550990Y-85613408D01*
X128550990Y-85613408D02*
X128360514Y-85661027D01*
X128360514Y-85661027D02*
X128265276Y-85708646D01*
X128265276Y-85708646D02*
X128170038Y-85803884D01*
X128170038Y-85803884D02*
X128122419Y-85946741D01*
X128122419Y-85946741D02*
X128122419Y-86041979D01*
X128122419Y-86041979D02*
X128170038Y-86184836D01*
X128170038Y-86184836D02*
X128217657Y-86232455D01*
X128122419Y-86565789D02*
X128122419Y-87184836D01*
X128122419Y-87184836D02*
X128503371Y-86851503D01*
X128503371Y-86851503D02*
X128503371Y-86994360D01*
X128503371Y-86994360D02*
X128550990Y-87089598D01*
X128550990Y-87089598D02*
X128598609Y-87137217D01*
X128598609Y-87137217D02*
X128693847Y-87184836D01*
X128693847Y-87184836D02*
X128931942Y-87184836D01*
X128931942Y-87184836D02*
X129027180Y-87137217D01*
X129027180Y-87137217D02*
X129074800Y-87089598D01*
X129074800Y-87089598D02*
X129122419Y-86994360D01*
X129122419Y-86994360D02*
X129122419Y-86708646D01*
X129122419Y-86708646D02*
X129074800Y-86613408D01*
X129074800Y-86613408D02*
X129027180Y-86565789D01*
X126622419Y-36125312D02*
X126146228Y-35791979D01*
X126622419Y-35553884D02*
X125622419Y-35553884D01*
X125622419Y-35553884D02*
X125622419Y-35934836D01*
X125622419Y-35934836D02*
X125670038Y-36030074D01*
X125670038Y-36030074D02*
X125717657Y-36077693D01*
X125717657Y-36077693D02*
X125812895Y-36125312D01*
X125812895Y-36125312D02*
X125955752Y-36125312D01*
X125955752Y-36125312D02*
X126050990Y-36077693D01*
X126050990Y-36077693D02*
X126098609Y-36030074D01*
X126098609Y-36030074D02*
X126146228Y-35934836D01*
X126146228Y-35934836D02*
X126146228Y-35553884D01*
X125622419Y-36458646D02*
X126622419Y-37125312D01*
X125622419Y-37125312D02*
X126622419Y-36458646D01*
D11*
X137117219Y-33798244D02*
X136117219Y-33798244D01*
X137069600Y-33798244D02*
X137117219Y-33703006D01*
X137117219Y-33703006D02*
X137117219Y-33512530D01*
X137117219Y-33512530D02*
X137069600Y-33417292D01*
X137069600Y-33417292D02*
X137021980Y-33369673D01*
X137021980Y-33369673D02*
X136926742Y-33322054D01*
X136926742Y-33322054D02*
X136641028Y-33322054D01*
X136641028Y-33322054D02*
X136545790Y-33369673D01*
X136545790Y-33369673D02*
X136498171Y-33417292D01*
X136498171Y-33417292D02*
X136450552Y-33512530D01*
X136450552Y-33512530D02*
X136450552Y-33703006D01*
X136450552Y-33703006D02*
X136498171Y-33798244D01*
X137117219Y-34274435D02*
X136117219Y-34274435D01*
X136498171Y-34274435D02*
X136450552Y-34369673D01*
X136450552Y-34369673D02*
X136450552Y-34560149D01*
X136450552Y-34560149D02*
X136498171Y-34655387D01*
X136498171Y-34655387D02*
X136545790Y-34703006D01*
X136545790Y-34703006D02*
X136641028Y-34750625D01*
X136641028Y-34750625D02*
X136926742Y-34750625D01*
X136926742Y-34750625D02*
X137021980Y-34703006D01*
X137021980Y-34703006D02*
X137069600Y-34655387D01*
X137069600Y-34655387D02*
X137117219Y-34560149D01*
X137117219Y-34560149D02*
X137117219Y-34369673D01*
X137117219Y-34369673D02*
X137069600Y-34274435D01*
X136450552Y-35607768D02*
X137260076Y-35607768D01*
X137260076Y-35607768D02*
X137355314Y-35560149D01*
X137355314Y-35560149D02*
X137402933Y-35512530D01*
X137402933Y-35512530D02*
X137450552Y-35417292D01*
X137450552Y-35417292D02*
X137450552Y-35274435D01*
X137450552Y-35274435D02*
X137402933Y-35179197D01*
X137069600Y-35607768D02*
X137117219Y-35512530D01*
X137117219Y-35512530D02*
X137117219Y-35322054D01*
X137117219Y-35322054D02*
X137069600Y-35226816D01*
X137069600Y-35226816D02*
X137021980Y-35179197D01*
X137021980Y-35179197D02*
X136926742Y-35131578D01*
X136926742Y-35131578D02*
X136641028Y-35131578D01*
X136641028Y-35131578D02*
X136545790Y-35179197D01*
X136545790Y-35179197D02*
X136498171Y-35226816D01*
X136498171Y-35226816D02*
X136450552Y-35322054D01*
X136450552Y-35322054D02*
X136450552Y-35512530D01*
X136450552Y-35512530D02*
X136498171Y-35607768D01*
X137117219Y-36655387D02*
X136641028Y-36322054D01*
X137117219Y-36083959D02*
X136117219Y-36083959D01*
X136117219Y-36083959D02*
X136117219Y-36464911D01*
X136117219Y-36464911D02*
X136164838Y-36560149D01*
X136164838Y-36560149D02*
X136212457Y-36607768D01*
X136212457Y-36607768D02*
X136307695Y-36655387D01*
X136307695Y-36655387D02*
X136450552Y-36655387D01*
X136450552Y-36655387D02*
X136545790Y-36607768D01*
X136545790Y-36607768D02*
X136593409Y-36560149D01*
X136593409Y-36560149D02*
X136641028Y-36464911D01*
X136641028Y-36464911D02*
X136641028Y-36083959D01*
X136117219Y-36988721D02*
X137117219Y-37655387D01*
X136117219Y-37655387D02*
X137117219Y-36988721D01*
D10*
X139872419Y-83911027D02*
X140872419Y-84244360D01*
X140872419Y-84244360D02*
X139872419Y-84577693D01*
X140872419Y-84911027D02*
X139872419Y-84911027D01*
X139872419Y-84911027D02*
X139872419Y-85149122D01*
X139872419Y-85149122D02*
X139920038Y-85291979D01*
X139920038Y-85291979D02*
X140015276Y-85387217D01*
X140015276Y-85387217D02*
X140110514Y-85434836D01*
X140110514Y-85434836D02*
X140300990Y-85482455D01*
X140300990Y-85482455D02*
X140443847Y-85482455D01*
X140443847Y-85482455D02*
X140634323Y-85434836D01*
X140634323Y-85434836D02*
X140729561Y-85387217D01*
X140729561Y-85387217D02*
X140824800Y-85291979D01*
X140824800Y-85291979D02*
X140872419Y-85149122D01*
X140872419Y-85149122D02*
X140872419Y-84911027D01*
X140872419Y-85911027D02*
X139872419Y-85911027D01*
X139872419Y-85911027D02*
X139872419Y-86149122D01*
X139872419Y-86149122D02*
X139920038Y-86291979D01*
X139920038Y-86291979D02*
X140015276Y-86387217D01*
X140015276Y-86387217D02*
X140110514Y-86434836D01*
X140110514Y-86434836D02*
X140300990Y-86482455D01*
X140300990Y-86482455D02*
X140443847Y-86482455D01*
X140443847Y-86482455D02*
X140634323Y-86434836D01*
X140634323Y-86434836D02*
X140729561Y-86387217D01*
X140729561Y-86387217D02*
X140824800Y-86291979D01*
X140824800Y-86291979D02*
X140872419Y-86149122D01*
X140872419Y-86149122D02*
X140872419Y-85911027D01*
X122836704Y-83756265D02*
X122836704Y-84232455D01*
X123122419Y-83661027D02*
X122122419Y-83994360D01*
X122122419Y-83994360D02*
X123122419Y-84327693D01*
X123122419Y-84661027D02*
X122122419Y-84661027D01*
X122122419Y-84661027D02*
X122122419Y-84899122D01*
X122122419Y-84899122D02*
X122170038Y-85041979D01*
X122170038Y-85041979D02*
X122265276Y-85137217D01*
X122265276Y-85137217D02*
X122360514Y-85184836D01*
X122360514Y-85184836D02*
X122550990Y-85232455D01*
X122550990Y-85232455D02*
X122693847Y-85232455D01*
X122693847Y-85232455D02*
X122884323Y-85184836D01*
X122884323Y-85184836D02*
X122979561Y-85137217D01*
X122979561Y-85137217D02*
X123074800Y-85041979D01*
X123074800Y-85041979D02*
X123122419Y-84899122D01*
X123122419Y-84899122D02*
X123122419Y-84661027D01*
X123027180Y-86232455D02*
X123074800Y-86184836D01*
X123074800Y-86184836D02*
X123122419Y-86041979D01*
X123122419Y-86041979D02*
X123122419Y-85946741D01*
X123122419Y-85946741D02*
X123074800Y-85803884D01*
X123074800Y-85803884D02*
X122979561Y-85708646D01*
X122979561Y-85708646D02*
X122884323Y-85661027D01*
X122884323Y-85661027D02*
X122693847Y-85613408D01*
X122693847Y-85613408D02*
X122550990Y-85613408D01*
X122550990Y-85613408D02*
X122360514Y-85661027D01*
X122360514Y-85661027D02*
X122265276Y-85708646D01*
X122265276Y-85708646D02*
X122170038Y-85803884D01*
X122170038Y-85803884D02*
X122122419Y-85946741D01*
X122122419Y-85946741D02*
X122122419Y-86041979D01*
X122122419Y-86041979D02*
X122170038Y-86184836D01*
X122170038Y-86184836D02*
X122217657Y-86232455D01*
X123122419Y-87184836D02*
X123122419Y-86613408D01*
X123122419Y-86899122D02*
X122122419Y-86899122D01*
X122122419Y-86899122D02*
X122265276Y-86803884D01*
X122265276Y-86803884D02*
X122360514Y-86708646D01*
X122360514Y-86708646D02*
X122408133Y-86613408D01*
X121420038Y-35827693D02*
X121372419Y-35732455D01*
X121372419Y-35732455D02*
X121372419Y-35589598D01*
X121372419Y-35589598D02*
X121420038Y-35446741D01*
X121420038Y-35446741D02*
X121515276Y-35351503D01*
X121515276Y-35351503D02*
X121610514Y-35303884D01*
X121610514Y-35303884D02*
X121800990Y-35256265D01*
X121800990Y-35256265D02*
X121943847Y-35256265D01*
X121943847Y-35256265D02*
X122134323Y-35303884D01*
X122134323Y-35303884D02*
X122229561Y-35351503D01*
X122229561Y-35351503D02*
X122324800Y-35446741D01*
X122324800Y-35446741D02*
X122372419Y-35589598D01*
X122372419Y-35589598D02*
X122372419Y-35684836D01*
X122372419Y-35684836D02*
X122324800Y-35827693D01*
X122324800Y-35827693D02*
X122277180Y-35875312D01*
X122277180Y-35875312D02*
X121943847Y-35875312D01*
X121943847Y-35875312D02*
X121943847Y-35684836D01*
X122372419Y-36303884D02*
X121372419Y-36303884D01*
X121372419Y-36303884D02*
X122372419Y-36875312D01*
X122372419Y-36875312D02*
X121372419Y-36875312D01*
X122372419Y-37351503D02*
X121372419Y-37351503D01*
X121372419Y-37351503D02*
X121372419Y-37589598D01*
X121372419Y-37589598D02*
X121420038Y-37732455D01*
X121420038Y-37732455D02*
X121515276Y-37827693D01*
X121515276Y-37827693D02*
X121610514Y-37875312D01*
X121610514Y-37875312D02*
X121800990Y-37922931D01*
X121800990Y-37922931D02*
X121943847Y-37922931D01*
X121943847Y-37922931D02*
X122134323Y-37875312D01*
X122134323Y-37875312D02*
X122229561Y-37827693D01*
X122229561Y-37827693D02*
X122324800Y-37732455D01*
X122324800Y-37732455D02*
X122372419Y-37589598D01*
X122372419Y-37589598D02*
X122372419Y-37351503D01*
X124170038Y-84577693D02*
X124122419Y-84482455D01*
X124122419Y-84482455D02*
X124122419Y-84339598D01*
X124122419Y-84339598D02*
X124170038Y-84196741D01*
X124170038Y-84196741D02*
X124265276Y-84101503D01*
X124265276Y-84101503D02*
X124360514Y-84053884D01*
X124360514Y-84053884D02*
X124550990Y-84006265D01*
X124550990Y-84006265D02*
X124693847Y-84006265D01*
X124693847Y-84006265D02*
X124884323Y-84053884D01*
X124884323Y-84053884D02*
X124979561Y-84101503D01*
X124979561Y-84101503D02*
X125074800Y-84196741D01*
X125074800Y-84196741D02*
X125122419Y-84339598D01*
X125122419Y-84339598D02*
X125122419Y-84434836D01*
X125122419Y-84434836D02*
X125074800Y-84577693D01*
X125074800Y-84577693D02*
X125027180Y-84625312D01*
X125027180Y-84625312D02*
X124693847Y-84625312D01*
X124693847Y-84625312D02*
X124693847Y-84434836D01*
X125122419Y-85053884D02*
X124122419Y-85053884D01*
X124122419Y-85053884D02*
X125122419Y-85625312D01*
X125122419Y-85625312D02*
X124122419Y-85625312D01*
X125122419Y-86101503D02*
X124122419Y-86101503D01*
X124122419Y-86101503D02*
X124122419Y-86339598D01*
X124122419Y-86339598D02*
X124170038Y-86482455D01*
X124170038Y-86482455D02*
X124265276Y-86577693D01*
X124265276Y-86577693D02*
X124360514Y-86625312D01*
X124360514Y-86625312D02*
X124550990Y-86672931D01*
X124550990Y-86672931D02*
X124693847Y-86672931D01*
X124693847Y-86672931D02*
X124884323Y-86625312D01*
X124884323Y-86625312D02*
X124979561Y-86577693D01*
X124979561Y-86577693D02*
X125074800Y-86482455D01*
X125074800Y-86482455D02*
X125122419Y-86339598D01*
X125122419Y-86339598D02*
X125122419Y-86101503D01*
D12*
X135789580Y-49833333D02*
X135837200Y-49785714D01*
X135837200Y-49785714D02*
X135884819Y-49642857D01*
X135884819Y-49642857D02*
X135884819Y-49547619D01*
X135884819Y-49547619D02*
X135837200Y-49404762D01*
X135837200Y-49404762D02*
X135741961Y-49309524D01*
X135741961Y-49309524D02*
X135646723Y-49261905D01*
X135646723Y-49261905D02*
X135456247Y-49214286D01*
X135456247Y-49214286D02*
X135313390Y-49214286D01*
X135313390Y-49214286D02*
X135122914Y-49261905D01*
X135122914Y-49261905D02*
X135027676Y-49309524D01*
X135027676Y-49309524D02*
X134932438Y-49404762D01*
X134932438Y-49404762D02*
X134884819Y-49547619D01*
X134884819Y-49547619D02*
X134884819Y-49642857D01*
X134884819Y-49642857D02*
X134932438Y-49785714D01*
X134932438Y-49785714D02*
X134980057Y-49833333D01*
X134884819Y-50166667D02*
X134884819Y-50785714D01*
X134884819Y-50785714D02*
X135265771Y-50452381D01*
X135265771Y-50452381D02*
X135265771Y-50595238D01*
X135265771Y-50595238D02*
X135313390Y-50690476D01*
X135313390Y-50690476D02*
X135361009Y-50738095D01*
X135361009Y-50738095D02*
X135456247Y-50785714D01*
X135456247Y-50785714D02*
X135694342Y-50785714D01*
X135694342Y-50785714D02*
X135789580Y-50738095D01*
X135789580Y-50738095D02*
X135837200Y-50690476D01*
X135837200Y-50690476D02*
X135884819Y-50595238D01*
X135884819Y-50595238D02*
X135884819Y-50309524D01*
X135884819Y-50309524D02*
X135837200Y-50214286D01*
X135837200Y-50214286D02*
X135789580Y-50166667D01*
X129666666Y-42289580D02*
X129714285Y-42337200D01*
X129714285Y-42337200D02*
X129857142Y-42384819D01*
X129857142Y-42384819D02*
X129952380Y-42384819D01*
X129952380Y-42384819D02*
X130095237Y-42337200D01*
X130095237Y-42337200D02*
X130190475Y-42241961D01*
X130190475Y-42241961D02*
X130238094Y-42146723D01*
X130238094Y-42146723D02*
X130285713Y-41956247D01*
X130285713Y-41956247D02*
X130285713Y-41813390D01*
X130285713Y-41813390D02*
X130238094Y-41622914D01*
X130238094Y-41622914D02*
X130190475Y-41527676D01*
X130190475Y-41527676D02*
X130095237Y-41432438D01*
X130095237Y-41432438D02*
X129952380Y-41384819D01*
X129952380Y-41384819D02*
X129857142Y-41384819D01*
X129857142Y-41384819D02*
X129714285Y-41432438D01*
X129714285Y-41432438D02*
X129666666Y-41480057D01*
X129333332Y-41384819D02*
X128666666Y-41384819D01*
X128666666Y-41384819D02*
X129095237Y-42384819D01*
X132884819Y-53833333D02*
X132408628Y-53500000D01*
X132884819Y-53261905D02*
X131884819Y-53261905D01*
X131884819Y-53261905D02*
X131884819Y-53642857D01*
X131884819Y-53642857D02*
X131932438Y-53738095D01*
X131932438Y-53738095D02*
X131980057Y-53785714D01*
X131980057Y-53785714D02*
X132075295Y-53833333D01*
X132075295Y-53833333D02*
X132218152Y-53833333D01*
X132218152Y-53833333D02*
X132313390Y-53785714D01*
X132313390Y-53785714D02*
X132361009Y-53738095D01*
X132361009Y-53738095D02*
X132408628Y-53642857D01*
X132408628Y-53642857D02*
X132408628Y-53261905D01*
X131980057Y-54214286D02*
X131932438Y-54261905D01*
X131932438Y-54261905D02*
X131884819Y-54357143D01*
X131884819Y-54357143D02*
X131884819Y-54595238D01*
X131884819Y-54595238D02*
X131932438Y-54690476D01*
X131932438Y-54690476D02*
X131980057Y-54738095D01*
X131980057Y-54738095D02*
X132075295Y-54785714D01*
X132075295Y-54785714D02*
X132170533Y-54785714D01*
X132170533Y-54785714D02*
X132313390Y-54738095D01*
X132313390Y-54738095D02*
X132884819Y-54166667D01*
X132884819Y-54166667D02*
X132884819Y-54785714D01*
X129666666Y-39789580D02*
X129714285Y-39837200D01*
X129714285Y-39837200D02*
X129857142Y-39884819D01*
X129857142Y-39884819D02*
X129952380Y-39884819D01*
X129952380Y-39884819D02*
X130095237Y-39837200D01*
X130095237Y-39837200D02*
X130190475Y-39741961D01*
X130190475Y-39741961D02*
X130238094Y-39646723D01*
X130238094Y-39646723D02*
X130285713Y-39456247D01*
X130285713Y-39456247D02*
X130285713Y-39313390D01*
X130285713Y-39313390D02*
X130238094Y-39122914D01*
X130238094Y-39122914D02*
X130190475Y-39027676D01*
X130190475Y-39027676D02*
X130095237Y-38932438D01*
X130095237Y-38932438D02*
X129952380Y-38884819D01*
X129952380Y-38884819D02*
X129857142Y-38884819D01*
X129857142Y-38884819D02*
X129714285Y-38932438D01*
X129714285Y-38932438D02*
X129666666Y-38980057D01*
X129095237Y-39313390D02*
X129190475Y-39265771D01*
X129190475Y-39265771D02*
X129238094Y-39218152D01*
X129238094Y-39218152D02*
X129285713Y-39122914D01*
X129285713Y-39122914D02*
X129285713Y-39075295D01*
X129285713Y-39075295D02*
X129238094Y-38980057D01*
X129238094Y-38980057D02*
X129190475Y-38932438D01*
X129190475Y-38932438D02*
X129095237Y-38884819D01*
X129095237Y-38884819D02*
X128904761Y-38884819D01*
X128904761Y-38884819D02*
X128809523Y-38932438D01*
X128809523Y-38932438D02*
X128761904Y-38980057D01*
X128761904Y-38980057D02*
X128714285Y-39075295D01*
X128714285Y-39075295D02*
X128714285Y-39122914D01*
X128714285Y-39122914D02*
X128761904Y-39218152D01*
X128761904Y-39218152D02*
X128809523Y-39265771D01*
X128809523Y-39265771D02*
X128904761Y-39313390D01*
X128904761Y-39313390D02*
X129095237Y-39313390D01*
X129095237Y-39313390D02*
X129190475Y-39361009D01*
X129190475Y-39361009D02*
X129238094Y-39408628D01*
X129238094Y-39408628D02*
X129285713Y-39503866D01*
X129285713Y-39503866D02*
X129285713Y-39694342D01*
X129285713Y-39694342D02*
X129238094Y-39789580D01*
X129238094Y-39789580D02*
X129190475Y-39837200D01*
X129190475Y-39837200D02*
X129095237Y-39884819D01*
X129095237Y-39884819D02*
X128904761Y-39884819D01*
X128904761Y-39884819D02*
X128809523Y-39837200D01*
X128809523Y-39837200D02*
X128761904Y-39789580D01*
X128761904Y-39789580D02*
X128714285Y-39694342D01*
X128714285Y-39694342D02*
X128714285Y-39503866D01*
X128714285Y-39503866D02*
X128761904Y-39408628D01*
X128761904Y-39408628D02*
X128809523Y-39361009D01*
X128809523Y-39361009D02*
X128904761Y-39313390D01*
X148429580Y-53833333D02*
X148477200Y-53785714D01*
X148477200Y-53785714D02*
X148524819Y-53642857D01*
X148524819Y-53642857D02*
X148524819Y-53547619D01*
X148524819Y-53547619D02*
X148477200Y-53404762D01*
X148477200Y-53404762D02*
X148381961Y-53309524D01*
X148381961Y-53309524D02*
X148286723Y-53261905D01*
X148286723Y-53261905D02*
X148096247Y-53214286D01*
X148096247Y-53214286D02*
X147953390Y-53214286D01*
X147953390Y-53214286D02*
X147762914Y-53261905D01*
X147762914Y-53261905D02*
X147667676Y-53309524D01*
X147667676Y-53309524D02*
X147572438Y-53404762D01*
X147572438Y-53404762D02*
X147524819Y-53547619D01*
X147524819Y-53547619D02*
X147524819Y-53642857D01*
X147524819Y-53642857D02*
X147572438Y-53785714D01*
X147572438Y-53785714D02*
X147620057Y-53833333D01*
X147524819Y-54738095D02*
X147524819Y-54261905D01*
X147524819Y-54261905D02*
X148001009Y-54214286D01*
X148001009Y-54214286D02*
X147953390Y-54261905D01*
X147953390Y-54261905D02*
X147905771Y-54357143D01*
X147905771Y-54357143D02*
X147905771Y-54595238D01*
X147905771Y-54595238D02*
X147953390Y-54690476D01*
X147953390Y-54690476D02*
X148001009Y-54738095D01*
X148001009Y-54738095D02*
X148096247Y-54785714D01*
X148096247Y-54785714D02*
X148334342Y-54785714D01*
X148334342Y-54785714D02*
X148429580Y-54738095D01*
X148429580Y-54738095D02*
X148477200Y-54690476D01*
X148477200Y-54690476D02*
X148524819Y-54595238D01*
X148524819Y-54595238D02*
X148524819Y-54357143D01*
X148524819Y-54357143D02*
X148477200Y-54261905D01*
X148477200Y-54261905D02*
X148429580Y-54214286D01*
X106892857Y-72634819D02*
X107226190Y-72158628D01*
X107464285Y-72634819D02*
X107464285Y-71634819D01*
X107464285Y-71634819D02*
X107083333Y-71634819D01*
X107083333Y-71634819D02*
X106988095Y-71682438D01*
X106988095Y-71682438D02*
X106940476Y-71730057D01*
X106940476Y-71730057D02*
X106892857Y-71825295D01*
X106892857Y-71825295D02*
X106892857Y-71968152D01*
X106892857Y-71968152D02*
X106940476Y-72063390D01*
X106940476Y-72063390D02*
X106988095Y-72111009D01*
X106988095Y-72111009D02*
X107083333Y-72158628D01*
X107083333Y-72158628D02*
X107464285Y-72158628D01*
X105940476Y-72634819D02*
X106511904Y-72634819D01*
X106226190Y-72634819D02*
X106226190Y-71634819D01*
X106226190Y-71634819D02*
X106321428Y-71777676D01*
X106321428Y-71777676D02*
X106416666Y-71872914D01*
X106416666Y-71872914D02*
X106511904Y-71920533D01*
X104988095Y-72634819D02*
X105559523Y-72634819D01*
X105273809Y-72634819D02*
X105273809Y-71634819D01*
X105273809Y-71634819D02*
X105369047Y-71777676D01*
X105369047Y-71777676D02*
X105464285Y-71872914D01*
X105464285Y-71872914D02*
X105559523Y-71920533D01*
X127774819Y-76357142D02*
X127298628Y-76023809D01*
X127774819Y-75785714D02*
X126774819Y-75785714D01*
X126774819Y-75785714D02*
X126774819Y-76166666D01*
X126774819Y-76166666D02*
X126822438Y-76261904D01*
X126822438Y-76261904D02*
X126870057Y-76309523D01*
X126870057Y-76309523D02*
X126965295Y-76357142D01*
X126965295Y-76357142D02*
X127108152Y-76357142D01*
X127108152Y-76357142D02*
X127203390Y-76309523D01*
X127203390Y-76309523D02*
X127251009Y-76261904D01*
X127251009Y-76261904D02*
X127298628Y-76166666D01*
X127298628Y-76166666D02*
X127298628Y-75785714D01*
X127774819Y-77309523D02*
X127774819Y-76738095D01*
X127774819Y-77023809D02*
X126774819Y-77023809D01*
X126774819Y-77023809D02*
X126917676Y-76928571D01*
X126917676Y-76928571D02*
X127012914Y-76833333D01*
X127012914Y-76833333D02*
X127060533Y-76738095D01*
X126774819Y-77928571D02*
X126774819Y-78023809D01*
X126774819Y-78023809D02*
X126822438Y-78119047D01*
X126822438Y-78119047D02*
X126870057Y-78166666D01*
X126870057Y-78166666D02*
X126965295Y-78214285D01*
X126965295Y-78214285D02*
X127155771Y-78261904D01*
X127155771Y-78261904D02*
X127393866Y-78261904D01*
X127393866Y-78261904D02*
X127584342Y-78214285D01*
X127584342Y-78214285D02*
X127679580Y-78166666D01*
X127679580Y-78166666D02*
X127727200Y-78119047D01*
X127727200Y-78119047D02*
X127774819Y-78023809D01*
X127774819Y-78023809D02*
X127774819Y-77928571D01*
X127774819Y-77928571D02*
X127727200Y-77833333D01*
X127727200Y-77833333D02*
X127679580Y-77785714D01*
X127679580Y-77785714D02*
X127584342Y-77738095D01*
X127584342Y-77738095D02*
X127393866Y-77690476D01*
X127393866Y-77690476D02*
X127155771Y-77690476D01*
X127155771Y-77690476D02*
X126965295Y-77738095D01*
X126965295Y-77738095D02*
X126870057Y-77785714D01*
X126870057Y-77785714D02*
X126822438Y-77833333D01*
X126822438Y-77833333D02*
X126774819Y-77928571D01*
X121774819Y-76908333D02*
X121298628Y-76575000D01*
X121774819Y-76336905D02*
X120774819Y-76336905D01*
X120774819Y-76336905D02*
X120774819Y-76717857D01*
X120774819Y-76717857D02*
X120822438Y-76813095D01*
X120822438Y-76813095D02*
X120870057Y-76860714D01*
X120870057Y-76860714D02*
X120965295Y-76908333D01*
X120965295Y-76908333D02*
X121108152Y-76908333D01*
X121108152Y-76908333D02*
X121203390Y-76860714D01*
X121203390Y-76860714D02*
X121251009Y-76813095D01*
X121251009Y-76813095D02*
X121298628Y-76717857D01*
X121298628Y-76717857D02*
X121298628Y-76336905D01*
X121203390Y-77479762D02*
X121155771Y-77384524D01*
X121155771Y-77384524D02*
X121108152Y-77336905D01*
X121108152Y-77336905D02*
X121012914Y-77289286D01*
X121012914Y-77289286D02*
X120965295Y-77289286D01*
X120965295Y-77289286D02*
X120870057Y-77336905D01*
X120870057Y-77336905D02*
X120822438Y-77384524D01*
X120822438Y-77384524D02*
X120774819Y-77479762D01*
X120774819Y-77479762D02*
X120774819Y-77670238D01*
X120774819Y-77670238D02*
X120822438Y-77765476D01*
X120822438Y-77765476D02*
X120870057Y-77813095D01*
X120870057Y-77813095D02*
X120965295Y-77860714D01*
X120965295Y-77860714D02*
X121012914Y-77860714D01*
X121012914Y-77860714D02*
X121108152Y-77813095D01*
X121108152Y-77813095D02*
X121155771Y-77765476D01*
X121155771Y-77765476D02*
X121203390Y-77670238D01*
X121203390Y-77670238D02*
X121203390Y-77479762D01*
X121203390Y-77479762D02*
X121251009Y-77384524D01*
X121251009Y-77384524D02*
X121298628Y-77336905D01*
X121298628Y-77336905D02*
X121393866Y-77289286D01*
X121393866Y-77289286D02*
X121584342Y-77289286D01*
X121584342Y-77289286D02*
X121679580Y-77336905D01*
X121679580Y-77336905D02*
X121727200Y-77384524D01*
X121727200Y-77384524D02*
X121774819Y-77479762D01*
X121774819Y-77479762D02*
X121774819Y-77670238D01*
X121774819Y-77670238D02*
X121727200Y-77765476D01*
X121727200Y-77765476D02*
X121679580Y-77813095D01*
X121679580Y-77813095D02*
X121584342Y-77860714D01*
X121584342Y-77860714D02*
X121393866Y-77860714D01*
X121393866Y-77860714D02*
X121298628Y-77813095D01*
X121298628Y-77813095D02*
X121251009Y-77765476D01*
X121251009Y-77765476D02*
X121203390Y-77670238D01*
X132789580Y-49833333D02*
X132837200Y-49785714D01*
X132837200Y-49785714D02*
X132884819Y-49642857D01*
X132884819Y-49642857D02*
X132884819Y-49547619D01*
X132884819Y-49547619D02*
X132837200Y-49404762D01*
X132837200Y-49404762D02*
X132741961Y-49309524D01*
X132741961Y-49309524D02*
X132646723Y-49261905D01*
X132646723Y-49261905D02*
X132456247Y-49214286D01*
X132456247Y-49214286D02*
X132313390Y-49214286D01*
X132313390Y-49214286D02*
X132122914Y-49261905D01*
X132122914Y-49261905D02*
X132027676Y-49309524D01*
X132027676Y-49309524D02*
X131932438Y-49404762D01*
X131932438Y-49404762D02*
X131884819Y-49547619D01*
X131884819Y-49547619D02*
X131884819Y-49642857D01*
X131884819Y-49642857D02*
X131932438Y-49785714D01*
X131932438Y-49785714D02*
X131980057Y-49833333D01*
X131884819Y-50690476D02*
X131884819Y-50500000D01*
X131884819Y-50500000D02*
X131932438Y-50404762D01*
X131932438Y-50404762D02*
X131980057Y-50357143D01*
X131980057Y-50357143D02*
X132122914Y-50261905D01*
X132122914Y-50261905D02*
X132313390Y-50214286D01*
X132313390Y-50214286D02*
X132694342Y-50214286D01*
X132694342Y-50214286D02*
X132789580Y-50261905D01*
X132789580Y-50261905D02*
X132837200Y-50309524D01*
X132837200Y-50309524D02*
X132884819Y-50404762D01*
X132884819Y-50404762D02*
X132884819Y-50595238D01*
X132884819Y-50595238D02*
X132837200Y-50690476D01*
X132837200Y-50690476D02*
X132789580Y-50738095D01*
X132789580Y-50738095D02*
X132694342Y-50785714D01*
X132694342Y-50785714D02*
X132456247Y-50785714D01*
X132456247Y-50785714D02*
X132361009Y-50738095D01*
X132361009Y-50738095D02*
X132313390Y-50690476D01*
X132313390Y-50690476D02*
X132265771Y-50595238D01*
X132265771Y-50595238D02*
X132265771Y-50404762D01*
X132265771Y-50404762D02*
X132313390Y-50309524D01*
X132313390Y-50309524D02*
X132361009Y-50261905D01*
X132361009Y-50261905D02*
X132456247Y-50214286D01*
X135884819Y-53833333D02*
X135408628Y-53500000D01*
X135884819Y-53261905D02*
X134884819Y-53261905D01*
X134884819Y-53261905D02*
X134884819Y-53642857D01*
X134884819Y-53642857D02*
X134932438Y-53738095D01*
X134932438Y-53738095D02*
X134980057Y-53785714D01*
X134980057Y-53785714D02*
X135075295Y-53833333D01*
X135075295Y-53833333D02*
X135218152Y-53833333D01*
X135218152Y-53833333D02*
X135313390Y-53785714D01*
X135313390Y-53785714D02*
X135361009Y-53738095D01*
X135361009Y-53738095D02*
X135408628Y-53642857D01*
X135408628Y-53642857D02*
X135408628Y-53261905D01*
X135884819Y-54785714D02*
X135884819Y-54214286D01*
X135884819Y-54500000D02*
X134884819Y-54500000D01*
X134884819Y-54500000D02*
X135027676Y-54404762D01*
X135027676Y-54404762D02*
X135122914Y-54309524D01*
X135122914Y-54309524D02*
X135170533Y-54214286D01*
X121774819Y-73108333D02*
X121298628Y-72775000D01*
X121774819Y-72536905D02*
X120774819Y-72536905D01*
X120774819Y-72536905D02*
X120774819Y-72917857D01*
X120774819Y-72917857D02*
X120822438Y-73013095D01*
X120822438Y-73013095D02*
X120870057Y-73060714D01*
X120870057Y-73060714D02*
X120965295Y-73108333D01*
X120965295Y-73108333D02*
X121108152Y-73108333D01*
X121108152Y-73108333D02*
X121203390Y-73060714D01*
X121203390Y-73060714D02*
X121251009Y-73013095D01*
X121251009Y-73013095D02*
X121298628Y-72917857D01*
X121298628Y-72917857D02*
X121298628Y-72536905D01*
X121108152Y-73965476D02*
X121774819Y-73965476D01*
X120727200Y-73727381D02*
X121441485Y-73489286D01*
X121441485Y-73489286D02*
X121441485Y-74108333D01*
X127774819Y-73008333D02*
X127298628Y-72675000D01*
X127774819Y-72436905D02*
X126774819Y-72436905D01*
X126774819Y-72436905D02*
X126774819Y-72817857D01*
X126774819Y-72817857D02*
X126822438Y-72913095D01*
X126822438Y-72913095D02*
X126870057Y-72960714D01*
X126870057Y-72960714D02*
X126965295Y-73008333D01*
X126965295Y-73008333D02*
X127108152Y-73008333D01*
X127108152Y-73008333D02*
X127203390Y-72960714D01*
X127203390Y-72960714D02*
X127251009Y-72913095D01*
X127251009Y-72913095D02*
X127298628Y-72817857D01*
X127298628Y-72817857D02*
X127298628Y-72436905D01*
X126774819Y-73865476D02*
X126774819Y-73675000D01*
X126774819Y-73675000D02*
X126822438Y-73579762D01*
X126822438Y-73579762D02*
X126870057Y-73532143D01*
X126870057Y-73532143D02*
X127012914Y-73436905D01*
X127012914Y-73436905D02*
X127203390Y-73389286D01*
X127203390Y-73389286D02*
X127584342Y-73389286D01*
X127584342Y-73389286D02*
X127679580Y-73436905D01*
X127679580Y-73436905D02*
X127727200Y-73484524D01*
X127727200Y-73484524D02*
X127774819Y-73579762D01*
X127774819Y-73579762D02*
X127774819Y-73770238D01*
X127774819Y-73770238D02*
X127727200Y-73865476D01*
X127727200Y-73865476D02*
X127679580Y-73913095D01*
X127679580Y-73913095D02*
X127584342Y-73960714D01*
X127584342Y-73960714D02*
X127346247Y-73960714D01*
X127346247Y-73960714D02*
X127251009Y-73913095D01*
X127251009Y-73913095D02*
X127203390Y-73865476D01*
X127203390Y-73865476D02*
X127155771Y-73770238D01*
X127155771Y-73770238D02*
X127155771Y-73579762D01*
X127155771Y-73579762D02*
X127203390Y-73484524D01*
X127203390Y-73484524D02*
X127251009Y-73436905D01*
X127251009Y-73436905D02*
X127346247Y-73389286D01*
X151429580Y-53833333D02*
X151477200Y-53785714D01*
X151477200Y-53785714D02*
X151524819Y-53642857D01*
X151524819Y-53642857D02*
X151524819Y-53547619D01*
X151524819Y-53547619D02*
X151477200Y-53404762D01*
X151477200Y-53404762D02*
X151381961Y-53309524D01*
X151381961Y-53309524D02*
X151286723Y-53261905D01*
X151286723Y-53261905D02*
X151096247Y-53214286D01*
X151096247Y-53214286D02*
X150953390Y-53214286D01*
X150953390Y-53214286D02*
X150762914Y-53261905D01*
X150762914Y-53261905D02*
X150667676Y-53309524D01*
X150667676Y-53309524D02*
X150572438Y-53404762D01*
X150572438Y-53404762D02*
X150524819Y-53547619D01*
X150524819Y-53547619D02*
X150524819Y-53642857D01*
X150524819Y-53642857D02*
X150572438Y-53785714D01*
X150572438Y-53785714D02*
X150620057Y-53833333D01*
X150858152Y-54690476D02*
X151524819Y-54690476D01*
X150477200Y-54452381D02*
X151191485Y-54214286D01*
X151191485Y-54214286D02*
X151191485Y-54833333D01*
D13*
%TO.C,C3*%
X133490000Y-49859420D02*
X133490000Y-50140580D01*
X134510000Y-49859420D02*
X134510000Y-50140580D01*
%TO.C,C7*%
X129640580Y-39990000D02*
X129359420Y-39990000D01*
X129640580Y-41010000D02*
X129359420Y-41010000D01*
%TO.C,R2*%
X130477500Y-53762742D02*
X130477500Y-54237258D01*
X131522500Y-53762742D02*
X131522500Y-54237258D01*
%TO.C,C8*%
X129640580Y-37490000D02*
X129359420Y-37490000D01*
X129640580Y-38510000D02*
X129359420Y-38510000D01*
%TO.C,C5*%
X148990000Y-54140580D02*
X148990000Y-53859420D01*
X150010000Y-54140580D02*
X150010000Y-53859420D01*
%TO.C,R11*%
X106487258Y-70227500D02*
X106012742Y-70227500D01*
X106487258Y-71272500D02*
X106012742Y-71272500D01*
%TO.C,R10*%
X128227500Y-77237258D02*
X128227500Y-76762742D01*
X129272500Y-77237258D02*
X129272500Y-76762742D01*
%TO.C,R8*%
X122227500Y-77312258D02*
X122227500Y-76837742D01*
X123272500Y-77312258D02*
X123272500Y-76837742D01*
%TO.C,C6*%
X130490000Y-49859420D02*
X130490000Y-50140580D01*
X131510000Y-49859420D02*
X131510000Y-50140580D01*
%TO.C,R1*%
X133477500Y-53762742D02*
X133477500Y-54237258D01*
X134522500Y-53762742D02*
X134522500Y-54237258D01*
%TO.C,R4*%
X122227500Y-73512258D02*
X122227500Y-73037742D01*
X123272500Y-73512258D02*
X123272500Y-73037742D01*
%TO.C,R6*%
X128227500Y-73412258D02*
X128227500Y-72937742D01*
X129272500Y-73412258D02*
X129272500Y-72937742D01*
%TO.C,C4*%
X151990000Y-54140580D02*
X151990000Y-53859420D01*
X153010000Y-54140580D02*
X153010000Y-53859420D01*
%TD*%
%LPC*%
D14*
%TO.C,H3*%
X107500000Y-85250000D03*
D15*
X107500000Y-85250000D03*
%TD*%
D16*
%TO.C,J4*%
X136750000Y-39250000D03*
D17*
X139290000Y-39250000D03*
X141830000Y-39250000D03*
X144370000Y-39250000D03*
X146910000Y-39250000D03*
X149450000Y-39250000D03*
X151990000Y-39250000D03*
%TD*%
D18*
%TO.C,J7*%
X118750000Y-82050000D03*
D19*
X120750000Y-82050000D03*
X122750000Y-82050000D03*
X124750000Y-82050000D03*
X126750000Y-82050000D03*
X128750000Y-82050000D03*
%TD*%
D14*
%TO.C,H2*%
X165500000Y-36250000D03*
D15*
X165500000Y-36250000D03*
%TD*%
D18*
%TO.C,J5*%
X138500000Y-82050000D03*
D19*
X140500000Y-82050000D03*
X142500000Y-82050000D03*
X144500000Y-82050000D03*
%TD*%
D14*
%TO.C,H4*%
X165500000Y-85250000D03*
D15*
X165500000Y-85250000D03*
%TD*%
D14*
%TO.C,H1*%
X107500000Y-36250000D03*
D15*
X107500000Y-36250000D03*
%TD*%
D20*
%TO.C,J6*%
X126000000Y-39450000D03*
D19*
X124000000Y-39450000D03*
X122000000Y-39450000D03*
X120000000Y-39450000D03*
%TD*%
D21*
%TO.C,C3*%
X134000000Y-50775000D03*
X134000000Y-49225000D03*
%TD*%
D22*
%TO.C,C7*%
X128725000Y-40500000D03*
X130275000Y-40500000D03*
%TD*%
D23*
%TO.C,R2*%
X131000000Y-54825000D03*
X131000000Y-53175000D03*
%TD*%
D22*
%TO.C,C8*%
X128725000Y-38000000D03*
X130275000Y-38000000D03*
%TD*%
D24*
%TO.C,C5*%
X149500000Y-53225000D03*
X149500000Y-54775000D03*
%TD*%
D25*
%TO.C,R11*%
X105425000Y-70750000D03*
X107075000Y-70750000D03*
%TD*%
D26*
%TO.C,R10*%
X128750000Y-76175000D03*
X128750000Y-77825000D03*
%TD*%
%TO.C,R8*%
X122750000Y-76250000D03*
X122750000Y-77900000D03*
%TD*%
D21*
%TO.C,C6*%
X131000000Y-50775000D03*
X131000000Y-49225000D03*
%TD*%
D23*
%TO.C,R1*%
X134000000Y-54825000D03*
X134000000Y-53175000D03*
%TD*%
D26*
%TO.C,R4*%
X122750000Y-72450000D03*
X122750000Y-74100000D03*
%TD*%
%TO.C,R6*%
X128750000Y-72350000D03*
X128750000Y-74000000D03*
%TD*%
D24*
%TO.C,C4*%
X152500000Y-53225000D03*
X152500000Y-54775000D03*
%TD*%
%LPD*%
M02*
