%TF.GenerationSoftware,KiCad,Pcbnew,8.0.5*%
%TF.CreationDate,2024-11-08T11:27:06-05:00*%
%TF.ProjectId,psocpcb,70736f63-7063-4622-9e6b-696361645f70,rev?*%
%TF.SameCoordinates,Original*%
%TF.FileFunction,Soldermask,Bot*%
%TF.FilePolarity,Negative*%
%FSLAX46Y46*%
G04 Gerber Fmt 4.6, Leading zero omitted, Abs format (unit mm)*
G04 Created by KiCad (PCBNEW 8.0.5) date 2024-11-08 11:27:06*
%MOMM*%
%LPD*%
G01*
G04 APERTURE LIST*
G04 Aperture macros list*
%AMRoundRect*
0 Rectangle with rounded corners*
0 $1 Rounding radius*
0 $2 $3 $4 $5 $6 $7 $8 $9 X,Y pos of 4 corners*
0 Add a 4 corners polygon primitive as box body*
4,1,4,$2,$3,$4,$5,$6,$7,$8,$9,$2,$3,0*
0 Add four circle primitives for the rounded corners*
1,1,$1+$1,$2,$3*
1,1,$1+$1,$4,$5*
1,1,$1+$1,$6,$7*
1,1,$1+$1,$8,$9*
0 Add four rect primitives between the rounded corners*
20,1,$1+$1,$2,$3,$4,$5,0*
20,1,$1+$1,$4,$5,$6,$7,0*
20,1,$1+$1,$6,$7,$8,$9,0*
20,1,$1+$1,$8,$9,$2,$3,0*%
G04 Aperture macros list end*
%ADD10C,3.100000*%
%ADD11C,5.400000*%
%ADD12R,1.700000X1.700000*%
%ADD13O,1.700000X1.700000*%
%ADD14RoundRect,0.250000X-0.350000X-0.625000X0.350000X-0.625000X0.350000X0.625000X-0.350000X0.625000X0*%
%ADD15O,1.200000X1.750000*%
%ADD16RoundRect,0.250000X0.350000X0.625000X-0.350000X0.625000X-0.350000X-0.625000X0.350000X-0.625000X0*%
%ADD17RoundRect,0.225000X0.250000X-0.225000X0.250000X0.225000X-0.250000X0.225000X-0.250000X-0.225000X0*%
%ADD18RoundRect,0.225000X-0.225000X-0.250000X0.225000X-0.250000X0.225000X0.250000X-0.225000X0.250000X0*%
%ADD19RoundRect,0.200000X0.275000X-0.200000X0.275000X0.200000X-0.275000X0.200000X-0.275000X-0.200000X0*%
%ADD20RoundRect,0.225000X-0.250000X0.225000X-0.250000X-0.225000X0.250000X-0.225000X0.250000X0.225000X0*%
%ADD21RoundRect,0.200000X-0.200000X-0.275000X0.200000X-0.275000X0.200000X0.275000X-0.200000X0.275000X0*%
%ADD22RoundRect,0.200000X-0.275000X0.200000X-0.275000X-0.200000X0.275000X-0.200000X0.275000X0.200000X0*%
G04 APERTURE END LIST*
D10*
%TO.C,H3*%
X107500000Y-85250000D03*
D11*
X107500000Y-85250000D03*
%TD*%
D12*
%TO.C,J4*%
X136750000Y-39250000D03*
D13*
X139290000Y-39250000D03*
X141830000Y-39250000D03*
X144370000Y-39250000D03*
X146910000Y-39250000D03*
X149450000Y-39250000D03*
X151990000Y-39250000D03*
%TD*%
D14*
%TO.C,J7*%
X118750000Y-82050000D03*
D15*
X120750000Y-82050000D03*
X122750000Y-82050000D03*
X124750000Y-82050000D03*
X126750000Y-82050000D03*
X128750000Y-82050000D03*
%TD*%
D10*
%TO.C,H2*%
X165500000Y-36250000D03*
D11*
X165500000Y-36250000D03*
%TD*%
D14*
%TO.C,J5*%
X138500000Y-82050000D03*
D15*
X140500000Y-82050000D03*
X142500000Y-82050000D03*
X144500000Y-82050000D03*
%TD*%
D10*
%TO.C,H4*%
X165500000Y-85250000D03*
D11*
X165500000Y-85250000D03*
%TD*%
D10*
%TO.C,H1*%
X107500000Y-36250000D03*
D11*
X107500000Y-36250000D03*
%TD*%
D16*
%TO.C,J6*%
X126000000Y-39450000D03*
D15*
X124000000Y-39450000D03*
X122000000Y-39450000D03*
X120000000Y-39450000D03*
%TD*%
D17*
%TO.C,C3*%
X134000000Y-50775000D03*
X134000000Y-49225000D03*
%TD*%
D18*
%TO.C,C7*%
X128725000Y-40500000D03*
X130275000Y-40500000D03*
%TD*%
D19*
%TO.C,R2*%
X131000000Y-54825000D03*
X131000000Y-53175000D03*
%TD*%
D18*
%TO.C,C8*%
X128725000Y-38000000D03*
X130275000Y-38000000D03*
%TD*%
D20*
%TO.C,C5*%
X149500000Y-53225000D03*
X149500000Y-54775000D03*
%TD*%
D21*
%TO.C,R11*%
X105425000Y-70750000D03*
X107075000Y-70750000D03*
%TD*%
D22*
%TO.C,R10*%
X128750000Y-76175000D03*
X128750000Y-77825000D03*
%TD*%
%TO.C,R8*%
X122750000Y-76250000D03*
X122750000Y-77900000D03*
%TD*%
D17*
%TO.C,C6*%
X131000000Y-50775000D03*
X131000000Y-49225000D03*
%TD*%
D19*
%TO.C,R1*%
X134000000Y-54825000D03*
X134000000Y-53175000D03*
%TD*%
D22*
%TO.C,R4*%
X122750000Y-72450000D03*
X122750000Y-74100000D03*
%TD*%
%TO.C,R6*%
X128750000Y-72350000D03*
X128750000Y-74000000D03*
%TD*%
D20*
%TO.C,C4*%
X152500000Y-53225000D03*
X152500000Y-54775000D03*
%TD*%
M02*
