%TF.GenerationSoftware,KiCad,Pcbnew,9.0.1*%
%TF.CreationDate,2025-04-15T21:25:17-04:00*%
%TF.ProjectId,psocpcb,70736f63-7063-4622-9e6b-696361645f70,rev?*%
%TF.SameCoordinates,Original*%
%TF.FileFunction,Copper,L4,Bot*%
%TF.FilePolarity,Positive*%
%FSLAX46Y46*%
G04 Gerber Fmt 4.6, Leading zero omitted, Abs format (unit mm)*
G04 Created by KiCad (PCBNEW 9.0.1) date 2025-04-15 21:25:17*
%MOMM*%
%LPD*%
G01*
G04 APERTURE LIST*
G04 Aperture macros list*
%AMRoundRect*
0 Rectangle with rounded corners*
0 $1 Rounding radius*
0 $2 $3 $4 $5 $6 $7 $8 $9 X,Y pos of 4 corners*
0 Add a 4 corners polygon primitive as box body*
4,1,4,$2,$3,$4,$5,$6,$7,$8,$9,$2,$3,0*
0 Add four circle primitives for the rounded corners*
1,1,$1+$1,$2,$3*
1,1,$1+$1,$4,$5*
1,1,$1+$1,$6,$7*
1,1,$1+$1,$8,$9*
0 Add four rect primitives between the rounded corners*
20,1,$1+$1,$2,$3,$4,$5,0*
20,1,$1+$1,$4,$5,$6,$7,0*
20,1,$1+$1,$6,$7,$8,$9,0*
20,1,$1+$1,$8,$9,$2,$3,0*%
G04 Aperture macros list end*
%TA.AperFunction,ComponentPad*%
%ADD10RoundRect,0.250000X-0.350000X-0.625000X0.350000X-0.625000X0.350000X0.625000X-0.350000X0.625000X0*%
%TD*%
%TA.AperFunction,ComponentPad*%
%ADD11O,1.200000X1.750000*%
%TD*%
%TA.AperFunction,ComponentPad*%
%ADD12R,1.700000X1.700000*%
%TD*%
%TA.AperFunction,ComponentPad*%
%ADD13C,1.700000*%
%TD*%
%TA.AperFunction,ComponentPad*%
%ADD14R,1.508000X1.508000*%
%TD*%
%TA.AperFunction,ComponentPad*%
%ADD15C,1.508000*%
%TD*%
%TA.AperFunction,SMDPad,CuDef*%
%ADD16RoundRect,0.200000X-0.275000X0.200000X-0.275000X-0.200000X0.275000X-0.200000X0.275000X0.200000X0*%
%TD*%
%TA.AperFunction,SMDPad,CuDef*%
%ADD17R,1.900000X1.100000*%
%TD*%
%TA.AperFunction,SMDPad,CuDef*%
%ADD18RoundRect,0.200000X0.275000X-0.200000X0.275000X0.200000X-0.275000X0.200000X-0.275000X-0.200000X0*%
%TD*%
%TA.AperFunction,SMDPad,CuDef*%
%ADD19RoundRect,0.225000X-0.250000X0.225000X-0.250000X-0.225000X0.250000X-0.225000X0.250000X0.225000X0*%
%TD*%
%TA.AperFunction,SMDPad,CuDef*%
%ADD20RoundRect,0.200000X-0.200000X-0.275000X0.200000X-0.275000X0.200000X0.275000X-0.200000X0.275000X0*%
%TD*%
%TA.AperFunction,SMDPad,CuDef*%
%ADD21RoundRect,0.218750X-0.218750X-0.256250X0.218750X-0.256250X0.218750X0.256250X-0.218750X0.256250X0*%
%TD*%
%TA.AperFunction,SMDPad,CuDef*%
%ADD22RoundRect,0.225000X0.225000X0.250000X-0.225000X0.250000X-0.225000X-0.250000X0.225000X-0.250000X0*%
%TD*%
%TA.AperFunction,SMDPad,CuDef*%
%ADD23RoundRect,0.200000X0.200000X0.275000X-0.200000X0.275000X-0.200000X-0.275000X0.200000X-0.275000X0*%
%TD*%
%TA.AperFunction,ViaPad*%
%ADD24C,0.600000*%
%TD*%
%TA.AperFunction,Conductor*%
%ADD25C,0.254000*%
%TD*%
%TA.AperFunction,Conductor*%
%ADD26C,0.508000*%
%TD*%
G04 APERTURE END LIST*
D10*
%TO.P,J5,1,Pin_1*%
%TO.N,GND*%
X99450000Y-73900000D03*
D11*
%TO.P,J5,2,Pin_2*%
%TO.N,/5V*%
X101450000Y-73900000D03*
%TO.P,J5,3,Pin_3*%
%TO.N,/SCL1.8*%
X103450000Y-73900000D03*
%TO.P,J5,4,Pin_4*%
%TO.N,/SDA1.8*%
X105450000Y-73900000D03*
%TD*%
D12*
%TO.P,J2,1,Pin_1*%
%TO.N,/usbtx*%
X132225000Y-69500000D03*
D13*
%TO.P,J2,2,Pin_2*%
%TO.N,/usbrx*%
X134765000Y-69500000D03*
%TD*%
D12*
%TO.P,J1,1,Pin_1*%
%TO.N,/SWDIO*%
X134550000Y-66340000D03*
D13*
%TO.P,J1,2,Pin_2*%
%TO.N,/SWDCLK*%
X134550000Y-63800000D03*
%TO.P,J1,3,Pin_3*%
%TO.N,/XRES*%
X134550000Y-61260000D03*
%TO.P,J1,4,Pin_4*%
%TO.N,GND*%
X134550000Y-58720000D03*
%TO.P,J1,5,Pin_5*%
%TO.N,/VTAG*%
X134550000Y-56180000D03*
%TD*%
D14*
%TO.P,A1,1,3V3[1]*%
%TO.N,unconnected-(A1-3V3[1]-Pad1)*%
X80485000Y-51670000D03*
D15*
%TO.P,A1,2,5V[1]*%
%TO.N,Net-(A1-5V[1])*%
X80485000Y-49130000D03*
%TO.P,A1,3,GPIO2/SDA*%
%TO.N,unconnected-(A1-GPIO2{slash}SDA-Pad3)*%
X83025000Y-51670000D03*
%TO.P,A1,4,5V[2]*%
%TO.N,Net-(A1-5V[1])*%
X83025000Y-49130000D03*
%TO.P,A1,5,GPIO3/SCL*%
%TO.N,unconnected-(A1-GPIO3{slash}SCL-Pad5)*%
X85565000Y-51670000D03*
%TO.P,A1,6,GND[8]*%
%TO.N,GND*%
X85565000Y-49130000D03*
%TO.P,A1,7,GPIO4/GPCKL0*%
%TO.N,/reset*%
X88105000Y-51670000D03*
%TO.P,A1,8,TXD0/GPIO14*%
%TO.N,/MCURX*%
X88105000Y-49130000D03*
%TO.P,A1,9,GND[1]*%
%TO.N,GND*%
X90645000Y-51670000D03*
%TO.P,A1,10,RXD0/GPIO15*%
%TO.N,/MCUTX*%
X90645000Y-49130000D03*
%TO.P,A1,11,GPIO17/GEN0*%
%TO.N,unconnected-(A1-GPIO17{slash}GEN0-Pad11)*%
X93185000Y-51670000D03*
%TO.P,A1,12,GPIO18*%
%TO.N,unconnected-(A1-GPIO18-Pad12)*%
X93185000Y-49130000D03*
%TO.P,A1,13,GPIO27/GEN2*%
%TO.N,unconnected-(A1-GPIO27{slash}GEN2-Pad13)*%
X95725000Y-51670000D03*
%TO.P,A1,14,GND[4]*%
%TO.N,GND*%
X95725000Y-49130000D03*
%TO.P,A1,15,GPIO22/GEN3*%
%TO.N,unconnected-(A1-GPIO22{slash}GEN3-Pad15)*%
X98265000Y-51670000D03*
%TO.P,A1,16,GEN4/GPIO23*%
%TO.N,unconnected-(A1-GEN4{slash}GPIO23-Pad16)*%
X98265000Y-49130000D03*
%TO.P,A1,17,3V3[2]*%
%TO.N,unconnected-(A1-3V3[2]-Pad17)*%
X100805000Y-51670000D03*
%TO.P,A1,18,GEN5/GPIO24*%
%TO.N,unconnected-(A1-GEN5{slash}GPIO24-Pad18)*%
X100805000Y-49130000D03*
%TO.P,A1,19,GPIO10/MOSI*%
%TO.N,unconnected-(A1-GPIO10{slash}MOSI-Pad19)*%
X103345000Y-51670000D03*
%TO.P,A1,20,GND[5]*%
%TO.N,GND*%
X103345000Y-49130000D03*
%TO.P,A1,21,GPIO9/MISO*%
%TO.N,unconnected-(A1-GPIO9{slash}MISO-Pad21)*%
X105885000Y-51670000D03*
%TO.P,A1,22,GEN/6GPIO25*%
%TO.N,unconnected-(A1-GEN{slash}6GPIO25-Pad22)*%
X105885000Y-49130000D03*
%TO.P,A1,23,GPIO11/SCLK*%
%TO.N,unconnected-(A1-GPIO11{slash}SCLK-Pad23)*%
X108425000Y-51670000D03*
%TO.P,A1,24,~{CE0}/GPIO8*%
%TO.N,unconnected-(A1-~{CE0}{slash}GPIO8-Pad24)*%
X108425000Y-49130000D03*
%TO.P,A1,25,GND[2]*%
%TO.N,GND*%
X110965000Y-51670000D03*
%TO.P,A1,26,~{CE1}/~{GPIO7}*%
%TO.N,unconnected-(A1-~{CE1}{slash}~{GPIO7}-Pad26)*%
X110965000Y-49130000D03*
%TO.P,A1,27,ID_SD*%
%TO.N,unconnected-(A1-ID_SD-Pad27)*%
X113505000Y-51670000D03*
%TO.P,A1,28,ID_SC*%
%TO.N,unconnected-(A1-ID_SC-Pad28)*%
X113505000Y-49130000D03*
%TO.P,A1,29,GPIO5*%
%TO.N,unconnected-(A1-GPIO5-Pad29)*%
X116045000Y-51670000D03*
%TO.P,A1,30,GND[6]*%
%TO.N,GND*%
X116045000Y-49130000D03*
%TO.P,A1,31,GPIO6*%
%TO.N,unconnected-(A1-GPIO6-Pad31)*%
X118585000Y-51670000D03*
%TO.P,A1,32,GPIO12*%
%TO.N,unconnected-(A1-GPIO12-Pad32)*%
X118585000Y-49130000D03*
%TO.P,A1,33,GPIO13*%
%TO.N,unconnected-(A1-GPIO13-Pad33)*%
X121125000Y-51670000D03*
%TO.P,A1,34,GND[7]*%
%TO.N,GND*%
X121125000Y-49130000D03*
%TO.P,A1,35,GPIO19*%
%TO.N,unconnected-(A1-GPIO19-Pad35)*%
X123665000Y-51670000D03*
%TO.P,A1,36,GPIO16*%
%TO.N,unconnected-(A1-GPIO16-Pad36)*%
X123665000Y-49130000D03*
%TO.P,A1,37,GPIO26*%
%TO.N,unconnected-(A1-GPIO26-Pad37)*%
X126205000Y-51670000D03*
%TO.P,A1,38,GPIO20*%
%TO.N,unconnected-(A1-GPIO20-Pad38)*%
X126205000Y-49130000D03*
%TO.P,A1,39,GND[3]*%
%TO.N,GND*%
X128745000Y-51670000D03*
%TO.P,A1,40,GPIO21*%
%TO.N,unconnected-(A1-GPIO21-Pad40)*%
X128745000Y-49130000D03*
%TD*%
D10*
%TO.P,J7,1,Pin_1*%
%TO.N,GNDA*%
X83000000Y-74050000D03*
D11*
%TO.P,J7,2,Pin_2*%
%TO.N,/ADC2_raw*%
X85000000Y-74050000D03*
%TO.P,J7,3,Pin_3*%
%TO.N,/ADC3_raw*%
X87000000Y-74050000D03*
%TO.P,J7,4,Pin_4*%
%TO.N,GNDA*%
X89000000Y-74050000D03*
%TO.P,J7,5,Pin_5*%
%TO.N,/ADC1_raw*%
X91000000Y-74050000D03*
%TO.P,J7,6,Pin_6*%
%TO.N,/ADC0_raw*%
X93000000Y-74050000D03*
%TD*%
D16*
%TO.P,R10,1*%
%TO.N,/ADC3*%
X87000000Y-65175000D03*
%TO.P,R10,2*%
%TO.N,/ADC3_raw*%
X87000000Y-66825000D03*
%TD*%
D17*
%TO.P,Y1,1*%
%TO.N,Net-(U7-P0.1)*%
X110500000Y-65750000D03*
%TO.P,Y1,2*%
%TO.N,Net-(U7-P0.0)*%
X110500000Y-68250000D03*
%TD*%
D18*
%TO.P,R5,1*%
%TO.N,GNDA*%
X84500000Y-66825000D03*
%TO.P,R5,2*%
%TO.N,/ADC2*%
X84500000Y-65175000D03*
%TD*%
D19*
%TO.P,C8,1*%
%TO.N,GND*%
X106500000Y-59475000D03*
%TO.P,C8,2*%
%TO.N,/ADC1*%
X106500000Y-61025000D03*
%TD*%
D18*
%TO.P,R6,1*%
%TO.N,GNDA*%
X89000000Y-66825000D03*
%TO.P,R6,2*%
%TO.N,/ADC3*%
X89000000Y-65175000D03*
%TD*%
D16*
%TO.P,R8,1*%
%TO.N,/ADC1*%
X91500000Y-65175000D03*
%TO.P,R8,2*%
%TO.N,/ADC1_raw*%
X91500000Y-66825000D03*
%TD*%
D19*
%TO.P,C14,1*%
%TO.N,GND*%
X110750000Y-57225000D03*
%TO.P,C14,2*%
%TO.N,/ADC3*%
X110750000Y-58775000D03*
%TD*%
D20*
%TO.P,R3,1*%
%TO.N,GNDA*%
X95175000Y-69000000D03*
%TO.P,R3,2*%
%TO.N,/ADC0*%
X96825000Y-69000000D03*
%TD*%
D19*
%TO.P,C13,1*%
%TO.N,GND*%
X106500000Y-55725000D03*
%TO.P,C13,2*%
%TO.N,/ADC2*%
X106500000Y-57275000D03*
%TD*%
D18*
%TO.P,R4,1*%
%TO.N,GNDA*%
X93500000Y-66825000D03*
%TO.P,R4,2*%
%TO.N,/ADC1*%
X93500000Y-65175000D03*
%TD*%
D21*
%TO.P,FB1,1*%
%TO.N,GND*%
X79712500Y-70500000D03*
%TO.P,FB1,2*%
%TO.N,GNDA*%
X81287500Y-70500000D03*
%TD*%
D22*
%TO.P,C2,1*%
%TO.N,Net-(U7-P0.0)*%
X106775000Y-68500000D03*
%TO.P,C2,2*%
%TO.N,GND*%
X105225000Y-68500000D03*
%TD*%
%TO.P,C1,1*%
%TO.N,Net-(U7-P0.1)*%
X106775000Y-65750000D03*
%TO.P,C1,2*%
%TO.N,GND*%
X105225000Y-65750000D03*
%TD*%
D16*
%TO.P,R9,1*%
%TO.N,/ADC2*%
X82500000Y-65175000D03*
%TO.P,R9,2*%
%TO.N,/ADC2_raw*%
X82500000Y-66825000D03*
%TD*%
D19*
%TO.P,C7,1*%
%TO.N,GND*%
X110750000Y-61225000D03*
%TO.P,C7,2*%
%TO.N,/ADC0*%
X110750000Y-62775000D03*
%TD*%
D23*
%TO.P,R7,1*%
%TO.N,/ADC0*%
X96825000Y-71000000D03*
%TO.P,R7,2*%
%TO.N,/ADC0_raw*%
X95175000Y-71000000D03*
%TD*%
D24*
%TO.N,GND*%
X75250000Y-53100000D03*
X99275000Y-64975000D03*
X112175000Y-57525000D03*
X109325000Y-57375000D03*
X111800000Y-60075000D03*
X78250000Y-53050000D03*
X113875000Y-71900000D03*
X130000000Y-71350000D03*
X117325000Y-70125000D03*
X109675000Y-60350000D03*
X76250000Y-69025000D03*
X101350000Y-65000000D03*
X126800000Y-70200000D03*
X76225000Y-66225000D03*
%TO.N,/SDA*%
X125800000Y-61550000D03*
X113000000Y-65075000D03*
%TO.N,/ADC0*%
X112950000Y-64075000D03*
%TO.N,/ADC1*%
X109450000Y-62025000D03*
%TO.N,/ADC2*%
X113850000Y-61025000D03*
%TO.N,/ADC3*%
X113200000Y-61650000D03*
%TO.N,/SWDCLK*%
X131550000Y-63275000D03*
X128675000Y-54800000D03*
%TO.N,/SWDIO*%
X128675000Y-55625000D03*
X131200000Y-65725000D03*
%TO.N,/5V*%
X78625000Y-59725000D03*
X78575000Y-57450000D03*
X74475000Y-58450000D03*
X76500000Y-59825000D03*
X77750000Y-66850000D03*
X76500000Y-56800000D03*
X78600000Y-62100000D03*
X74525000Y-61375000D03*
X76500000Y-62750000D03*
%TO.N,GNDA*%
X89325000Y-70200000D03*
X81875000Y-71925000D03*
X85500000Y-70150000D03*
X89325000Y-72150000D03*
X93450000Y-70150000D03*
%TO.N,/VTAG*%
X91025000Y-61950000D03*
X108550000Y-70975000D03*
X101525000Y-61025000D03*
X98800000Y-61025000D03*
X112275000Y-70975000D03*
X93450000Y-61975000D03*
X104000000Y-61025000D03*
X110425000Y-70975000D03*
%TO.N,Net-(U7-P0.1)*%
X112975000Y-66050000D03*
%TO.N,Net-(U7-P0.0)*%
X113425000Y-66975000D03*
%TO.N,/XRES*%
X130200000Y-69200000D03*
%TD*%
D25*
%TO.N,/SDA*%
X120175000Y-65075000D02*
X113000000Y-65075000D01*
X125800000Y-61550000D02*
X123700000Y-61550000D01*
X123700000Y-61550000D02*
X120175000Y-65075000D01*
D26*
%TO.N,/ADC2_raw*%
X82500000Y-69250000D02*
X82500000Y-66825000D01*
X85000000Y-71750000D02*
X82500000Y-69250000D01*
X85000000Y-74050000D02*
X85000000Y-71750000D01*
%TO.N,/ADC3_raw*%
X87000000Y-74050000D02*
X87000000Y-66825000D01*
%TO.N,/ADC1_raw*%
X91000000Y-72525000D02*
X91500000Y-72025000D01*
X91000000Y-74050000D02*
X91000000Y-72525000D01*
X91500000Y-72025000D02*
X91500000Y-66825000D01*
%TO.N,/ADC0_raw*%
X93000000Y-73175000D02*
X95175000Y-71000000D01*
X93000000Y-74050000D02*
X93000000Y-73175000D01*
D25*
%TO.N,/ADC0*%
X111650000Y-62775000D02*
X110750000Y-62775000D01*
X96825000Y-69000000D02*
X96825000Y-71000000D01*
X98575000Y-62775000D02*
X96825000Y-64525000D01*
X96825000Y-64525000D02*
X96825000Y-69000000D01*
X112950000Y-64075000D02*
X111650000Y-62775000D01*
X110750000Y-62775000D02*
X98575000Y-62775000D01*
%TO.N,/ADC1*%
X91500000Y-65175000D02*
X93500000Y-65175000D01*
X96400000Y-62275000D02*
X93500000Y-65175000D01*
X108550000Y-62025000D02*
X107550000Y-61025000D01*
X107550000Y-61025000D02*
X106500000Y-61025000D01*
X105250000Y-62275000D02*
X96400000Y-62275000D01*
X109450000Y-62025000D02*
X108550000Y-62025000D01*
X106500000Y-61025000D02*
X105250000Y-62275000D01*
%TO.N,/ADC2*%
X113850000Y-57550000D02*
X113850000Y-61025000D01*
X92400000Y-57275000D02*
X84500000Y-65175000D01*
X82500000Y-65175000D02*
X84500000Y-65175000D01*
X106500000Y-57275000D02*
X107550000Y-57275000D01*
X107550000Y-57275000D02*
X109350000Y-55475000D01*
X106500000Y-57275000D02*
X92400000Y-57275000D01*
X109350000Y-55475000D02*
X111775000Y-55475000D01*
X111775000Y-55475000D02*
X113850000Y-57550000D01*
%TO.N,/ADC3*%
X113200000Y-59400000D02*
X112575000Y-58775000D01*
X90375000Y-63800000D02*
X89000000Y-65175000D01*
X87000000Y-65175000D02*
X89000000Y-65175000D01*
X110750000Y-58775000D02*
X110672000Y-58697000D01*
X112575000Y-58775000D02*
X110750000Y-58775000D01*
X98953000Y-58697000D02*
X93850000Y-63800000D01*
X93850000Y-63800000D02*
X90375000Y-63800000D01*
X110672000Y-58697000D02*
X98953000Y-58697000D01*
X113200000Y-61650000D02*
X113200000Y-59400000D01*
%TO.N,/SWDCLK*%
X131100000Y-57161873D02*
X128738127Y-54800000D01*
X131100000Y-62825000D02*
X131100000Y-57161873D01*
X131550000Y-63275000D02*
X131100000Y-62825000D01*
X128738127Y-54800000D02*
X128675000Y-54800000D01*
%TO.N,/SWDIO*%
X130450000Y-57375000D02*
X130425000Y-57375000D01*
X130425000Y-57375000D02*
X128675000Y-55625000D01*
X131200000Y-65725000D02*
X130450000Y-64975000D01*
X130450000Y-64975000D02*
X130450000Y-57375000D01*
%TO.N,Net-(U7-P0.1)*%
X106775000Y-65750000D02*
X110500000Y-65750000D01*
X112675000Y-65750000D02*
X110500000Y-65750000D01*
X112975000Y-66050000D02*
X112675000Y-65750000D01*
%TO.N,Net-(U7-P0.0)*%
X106775000Y-68500000D02*
X110250000Y-68500000D01*
X113425000Y-66975000D02*
X112150000Y-68250000D01*
X110250000Y-68500000D02*
X110500000Y-68250000D01*
X112150000Y-68250000D02*
X110500000Y-68250000D01*
%TO.N,/XRES*%
X132200000Y-63610000D02*
X134550000Y-61260000D01*
X130200000Y-69200000D02*
X132200000Y-67200000D01*
X132200000Y-67200000D02*
X132200000Y-63610000D01*
%TD*%
%TA.AperFunction,Conductor*%
%TO.N,GND*%
G36*
X135505387Y-47500971D02*
G01*
X135661021Y-47514587D01*
X135682297Y-47518338D01*
X135827951Y-47557366D01*
X135848261Y-47564759D01*
X135984915Y-47628482D01*
X136003633Y-47639289D01*
X136127154Y-47725779D01*
X136143712Y-47739673D01*
X136250326Y-47846287D01*
X136264220Y-47862845D01*
X136350710Y-47986366D01*
X136361517Y-48005084D01*
X136425240Y-48141738D01*
X136432633Y-48162049D01*
X136471659Y-48307696D01*
X136475412Y-48328982D01*
X136486838Y-48459584D01*
X136487968Y-48472495D01*
X136489028Y-48484604D01*
X136489500Y-48495412D01*
X136489500Y-48563459D01*
X136489555Y-48564300D01*
X136509494Y-75244546D01*
X136509022Y-75255446D01*
X136495412Y-75411016D01*
X136491659Y-75432303D01*
X136452633Y-75577950D01*
X136445240Y-75598261D01*
X136381517Y-75734915D01*
X136370710Y-75753633D01*
X136284220Y-75877154D01*
X136270326Y-75893712D01*
X136163712Y-76000326D01*
X136147154Y-76014220D01*
X136023633Y-76100710D01*
X136004915Y-76111517D01*
X135868261Y-76175240D01*
X135847950Y-76182633D01*
X135702303Y-76221659D01*
X135681016Y-76225412D01*
X135525387Y-76239028D01*
X135514600Y-76239500D01*
X135454108Y-76239500D01*
X135454070Y-76239509D01*
X135446247Y-76239511D01*
X96624020Y-76245794D01*
X96556977Y-76226120D01*
X96511214Y-76173324D01*
X96500000Y-76121794D01*
X96500000Y-75500000D01*
X115000000Y-75500000D01*
X129000000Y-75500000D01*
X129000000Y-73272070D01*
X131989500Y-73272070D01*
X131989500Y-73527929D01*
X132029526Y-73780640D01*
X132108588Y-74023972D01*
X132108589Y-74023975D01*
X132224750Y-74251950D01*
X132375132Y-74458935D01*
X132375136Y-74458940D01*
X132556059Y-74639863D01*
X132556064Y-74639867D01*
X132721871Y-74760332D01*
X132763053Y-74790252D01*
X132912080Y-74866185D01*
X132991024Y-74906410D01*
X132991027Y-74906411D01*
X133112693Y-74945942D01*
X133234361Y-74985474D01*
X133487070Y-75025500D01*
X133487071Y-75025500D01*
X133742929Y-75025500D01*
X133742930Y-75025500D01*
X133995639Y-74985474D01*
X134238975Y-74906410D01*
X134466947Y-74790252D01*
X134673942Y-74639862D01*
X134854862Y-74458942D01*
X135005252Y-74251947D01*
X135121410Y-74023975D01*
X135200474Y-73780639D01*
X135240500Y-73527930D01*
X135240500Y-73272070D01*
X135200474Y-73019361D01*
X135160942Y-72897693D01*
X135121411Y-72776027D01*
X135121410Y-72776024D01*
X135081185Y-72697080D01*
X135005252Y-72548053D01*
X134986038Y-72521607D01*
X134854867Y-72341064D01*
X134854863Y-72341059D01*
X134673940Y-72160136D01*
X134673935Y-72160132D01*
X134466950Y-72009750D01*
X134466949Y-72009749D01*
X134466947Y-72009748D01*
X134387144Y-71969086D01*
X134238975Y-71893589D01*
X134238972Y-71893588D01*
X133995640Y-71814526D01*
X133869284Y-71794513D01*
X133742930Y-71774500D01*
X133487070Y-71774500D01*
X133402833Y-71787842D01*
X133234359Y-71814526D01*
X132991027Y-71893588D01*
X132991024Y-71893589D01*
X132763049Y-72009750D01*
X132556064Y-72160132D01*
X132556059Y-72160136D01*
X132375136Y-72341059D01*
X132375132Y-72341064D01*
X132224750Y-72548049D01*
X132108589Y-72776024D01*
X132108588Y-72776027D01*
X132029526Y-73019359D01*
X131989500Y-73272070D01*
X129000000Y-73272070D01*
X129000000Y-70900000D01*
X115000000Y-70900000D01*
X115000000Y-75500000D01*
X96500000Y-75500000D01*
X96500000Y-73538389D01*
X100349500Y-73538389D01*
X100349500Y-74261611D01*
X100376598Y-74432701D01*
X100430127Y-74597445D01*
X100508768Y-74751788D01*
X100610586Y-74891928D01*
X100733072Y-75014414D01*
X100873212Y-75116232D01*
X101027555Y-75194873D01*
X101192299Y-75248402D01*
X101363389Y-75275500D01*
X101363390Y-75275500D01*
X101536610Y-75275500D01*
X101536611Y-75275500D01*
X101707701Y-75248402D01*
X101872445Y-75194873D01*
X102026788Y-75116232D01*
X102166928Y-75014414D01*
X102289414Y-74891928D01*
X102349682Y-74808975D01*
X102405012Y-74766311D01*
X102474626Y-74760332D01*
X102536421Y-74792938D01*
X102550315Y-74808973D01*
X102610586Y-74891928D01*
X102733072Y-75014414D01*
X102873212Y-75116232D01*
X103027555Y-75194873D01*
X103192299Y-75248402D01*
X103363389Y-75275500D01*
X103363390Y-75275500D01*
X103536610Y-75275500D01*
X103536611Y-75275500D01*
X103707701Y-75248402D01*
X103872445Y-75194873D01*
X104026788Y-75116232D01*
X104166928Y-75014414D01*
X104289414Y-74891928D01*
X104349682Y-74808975D01*
X104405012Y-74766311D01*
X104474626Y-74760332D01*
X104536421Y-74792938D01*
X104550315Y-74808973D01*
X104610586Y-74891928D01*
X104733072Y-75014414D01*
X104873212Y-75116232D01*
X105027555Y-75194873D01*
X105192299Y-75248402D01*
X105363389Y-75275500D01*
X105363390Y-75275500D01*
X105536610Y-75275500D01*
X105536611Y-75275500D01*
X105707701Y-75248402D01*
X105872445Y-75194873D01*
X106026788Y-75116232D01*
X106166928Y-75014414D01*
X106289414Y-74891928D01*
X106391232Y-74751788D01*
X106469873Y-74597445D01*
X106523402Y-74432701D01*
X106550500Y-74261611D01*
X106550500Y-73538389D01*
X106523402Y-73367299D01*
X106469873Y-73202555D01*
X106391232Y-73048212D01*
X106289414Y-72908072D01*
X106166928Y-72785586D01*
X106026788Y-72683768D01*
X105872445Y-72605127D01*
X105707701Y-72551598D01*
X105707699Y-72551597D01*
X105707698Y-72551597D01*
X105576271Y-72530781D01*
X105536611Y-72524500D01*
X105363389Y-72524500D01*
X105323728Y-72530781D01*
X105192302Y-72551597D01*
X105027552Y-72605128D01*
X104873211Y-72683768D01*
X104793256Y-72741859D01*
X104733072Y-72785586D01*
X104733070Y-72785588D01*
X104733069Y-72785588D01*
X104610588Y-72908069D01*
X104610581Y-72908078D01*
X104550317Y-72991023D01*
X104494987Y-73033689D01*
X104425374Y-73039667D01*
X104363579Y-73007061D01*
X104349683Y-72991023D01*
X104289418Y-72908078D01*
X104289414Y-72908072D01*
X104166928Y-72785586D01*
X104026788Y-72683768D01*
X103872445Y-72605127D01*
X103707701Y-72551598D01*
X103707699Y-72551597D01*
X103707698Y-72551597D01*
X103576271Y-72530781D01*
X103536611Y-72524500D01*
X103363389Y-72524500D01*
X103323728Y-72530781D01*
X103192302Y-72551597D01*
X103027552Y-72605128D01*
X102873211Y-72683768D01*
X102793256Y-72741859D01*
X102733072Y-72785586D01*
X102733070Y-72785588D01*
X102733069Y-72785588D01*
X102610588Y-72908069D01*
X102610581Y-72908078D01*
X102550317Y-72991023D01*
X102494987Y-73033689D01*
X102425374Y-73039667D01*
X102363579Y-73007061D01*
X102349683Y-72991023D01*
X102289418Y-72908078D01*
X102289414Y-72908072D01*
X102166928Y-72785586D01*
X102026788Y-72683768D01*
X101872445Y-72605127D01*
X101707701Y-72551598D01*
X101707699Y-72551597D01*
X101707698Y-72551597D01*
X101576271Y-72530781D01*
X101536611Y-72524500D01*
X101363389Y-72524500D01*
X101323728Y-72530781D01*
X101192302Y-72551597D01*
X101027552Y-72605128D01*
X100873211Y-72683768D01*
X100793256Y-72741859D01*
X100733072Y-72785586D01*
X100733070Y-72785588D01*
X100733069Y-72785588D01*
X100610588Y-72908069D01*
X100610588Y-72908070D01*
X100610586Y-72908072D01*
X100610582Y-72908078D01*
X100508768Y-73048211D01*
X100430128Y-73202552D01*
X100376597Y-73367302D01*
X100351157Y-73527929D01*
X100349500Y-73538389D01*
X96500000Y-73538389D01*
X96500000Y-72099500D01*
X96519685Y-72032461D01*
X96572489Y-71986706D01*
X96624000Y-71975500D01*
X97081613Y-71975500D01*
X97081616Y-71975500D01*
X97152196Y-71969086D01*
X97314606Y-71918478D01*
X97460185Y-71830472D01*
X97580472Y-71710185D01*
X97668478Y-71564606D01*
X97719086Y-71402196D01*
X97725500Y-71331616D01*
X97725500Y-70896153D01*
X107749500Y-70896153D01*
X107749500Y-71053846D01*
X107780261Y-71208489D01*
X107780264Y-71208501D01*
X107840602Y-71354172D01*
X107840609Y-71354185D01*
X107928210Y-71485288D01*
X107928213Y-71485292D01*
X108039707Y-71596786D01*
X108039711Y-71596789D01*
X108170814Y-71684390D01*
X108170827Y-71684397D01*
X108316498Y-71744735D01*
X108316503Y-71744737D01*
X108466131Y-71774500D01*
X108471153Y-71775499D01*
X108471156Y-71775500D01*
X108471158Y-71775500D01*
X108628844Y-71775500D01*
X108628845Y-71775499D01*
X108783497Y-71744737D01*
X108929179Y-71684394D01*
X109060289Y-71596789D01*
X109171789Y-71485289D01*
X109259394Y-71354179D01*
X109319737Y-71208497D01*
X109350500Y-71053842D01*
X109350500Y-70896158D01*
X109350500Y-70896155D01*
X109350499Y-70896153D01*
X109624500Y-70896153D01*
X109624500Y-71053846D01*
X109655261Y-71208489D01*
X109655264Y-71208501D01*
X109715602Y-71354172D01*
X109715609Y-71354185D01*
X109803210Y-71485288D01*
X109803213Y-71485292D01*
X109914707Y-71596786D01*
X109914711Y-71596789D01*
X110045814Y-71684390D01*
X110045827Y-71684397D01*
X110191498Y-71744735D01*
X110191503Y-71744737D01*
X110341131Y-71774500D01*
X110346153Y-71775499D01*
X110346156Y-71775500D01*
X110346158Y-71775500D01*
X110503844Y-71775500D01*
X110503845Y-71775499D01*
X110658497Y-71744737D01*
X110804179Y-71684394D01*
X110935289Y-71596789D01*
X111046789Y-71485289D01*
X111134394Y-71354179D01*
X111194737Y-71208497D01*
X111225500Y-71053842D01*
X111225500Y-70896158D01*
X111225500Y-70896155D01*
X111225499Y-70896153D01*
X111474500Y-70896153D01*
X111474500Y-71053846D01*
X111505261Y-71208489D01*
X111505264Y-71208501D01*
X111565602Y-71354172D01*
X111565609Y-71354185D01*
X111653210Y-71485288D01*
X111653213Y-71485292D01*
X111764707Y-71596786D01*
X111764711Y-71596789D01*
X111895814Y-71684390D01*
X111895827Y-71684397D01*
X112041498Y-71744735D01*
X112041503Y-71744737D01*
X112191131Y-71774500D01*
X112196153Y-71775499D01*
X112196156Y-71775500D01*
X112196158Y-71775500D01*
X112353844Y-71775500D01*
X112353845Y-71775499D01*
X112508497Y-71744737D01*
X112654179Y-71684394D01*
X112785289Y-71596789D01*
X112896789Y-71485289D01*
X112984394Y-71354179D01*
X113044737Y-71208497D01*
X113075500Y-71053842D01*
X113075500Y-70896158D01*
X113075500Y-70896155D01*
X113070860Y-70872830D01*
X113070860Y-70872829D01*
X113044738Y-70741510D01*
X113044737Y-70741503D01*
X113014451Y-70668386D01*
X112984397Y-70595827D01*
X112984390Y-70595814D01*
X112896789Y-70464711D01*
X112896786Y-70464707D01*
X112785292Y-70353213D01*
X112785288Y-70353210D01*
X112654185Y-70265609D01*
X112654172Y-70265602D01*
X112508501Y-70205264D01*
X112508489Y-70205261D01*
X112353845Y-70174500D01*
X112353842Y-70174500D01*
X112196158Y-70174500D01*
X112196155Y-70174500D01*
X112041510Y-70205261D01*
X112041498Y-70205264D01*
X111895827Y-70265602D01*
X111895814Y-70265609D01*
X111764711Y-70353210D01*
X111764707Y-70353213D01*
X111653213Y-70464707D01*
X111653210Y-70464711D01*
X111565609Y-70595814D01*
X111565602Y-70595827D01*
X111505264Y-70741498D01*
X111505261Y-70741510D01*
X111474500Y-70896153D01*
X111225499Y-70896153D01*
X111220860Y-70872830D01*
X111194737Y-70741503D01*
X111164451Y-70668386D01*
X111134397Y-70595827D01*
X111134390Y-70595814D01*
X111046789Y-70464711D01*
X111046786Y-70464707D01*
X110935292Y-70353213D01*
X110935288Y-70353210D01*
X110804185Y-70265609D01*
X110804172Y-70265602D01*
X110658501Y-70205264D01*
X110658489Y-70205261D01*
X110503845Y-70174500D01*
X110503842Y-70174500D01*
X110346158Y-70174500D01*
X110346155Y-70174500D01*
X110191510Y-70205261D01*
X110191498Y-70205264D01*
X110045827Y-70265602D01*
X110045814Y-70265609D01*
X109914711Y-70353210D01*
X109914707Y-70353213D01*
X109803213Y-70464707D01*
X109803210Y-70464711D01*
X109715609Y-70595814D01*
X109715602Y-70595827D01*
X109655264Y-70741498D01*
X109655261Y-70741510D01*
X109624500Y-70896153D01*
X109350499Y-70896153D01*
X109345860Y-70872830D01*
X109319737Y-70741503D01*
X109289451Y-70668386D01*
X109259397Y-70595827D01*
X109259390Y-70595814D01*
X109171789Y-70464711D01*
X109171786Y-70464707D01*
X109060292Y-70353213D01*
X109060288Y-70353210D01*
X108929185Y-70265609D01*
X108929172Y-70265602D01*
X108783501Y-70205264D01*
X108783489Y-70205261D01*
X108628845Y-70174500D01*
X108628842Y-70174500D01*
X108471158Y-70174500D01*
X108471155Y-70174500D01*
X108316510Y-70205261D01*
X108316498Y-70205264D01*
X108170827Y-70265602D01*
X108170814Y-70265609D01*
X108039711Y-70353210D01*
X108039707Y-70353213D01*
X107928213Y-70464707D01*
X107928210Y-70464711D01*
X107840609Y-70595814D01*
X107840602Y-70595827D01*
X107780264Y-70741498D01*
X107780261Y-70741510D01*
X107749500Y-70896153D01*
X97725500Y-70896153D01*
X97725500Y-70668384D01*
X97719086Y-70597804D01*
X97668478Y-70435394D01*
X97580472Y-70289815D01*
X97580470Y-70289813D01*
X97580469Y-70289811D01*
X97488819Y-70198161D01*
X97474115Y-70171233D01*
X97457523Y-70145415D01*
X97456631Y-70139214D01*
X97455334Y-70136838D01*
X97452500Y-70110480D01*
X97452500Y-69889520D01*
X97472185Y-69822481D01*
X97488819Y-69801839D01*
X97580468Y-69710189D01*
X97580469Y-69710188D01*
X97580472Y-69710185D01*
X97668478Y-69564606D01*
X97719086Y-69402196D01*
X97725500Y-69331616D01*
X97725500Y-68668384D01*
X97719086Y-68597804D01*
X97668478Y-68435394D01*
X97580472Y-68289815D01*
X97580470Y-68289813D01*
X97580469Y-68289811D01*
X97488819Y-68198161D01*
X97455334Y-68136838D01*
X97452500Y-68110480D01*
X97452500Y-64836281D01*
X97472185Y-64769242D01*
X97488819Y-64748600D01*
X98798600Y-63438819D01*
X98859923Y-63405334D01*
X98886281Y-63402500D01*
X109827034Y-63402500D01*
X109894073Y-63422185D01*
X109924299Y-63449588D01*
X109927031Y-63453043D01*
X110046955Y-63572967D01*
X110046959Y-63572970D01*
X110191294Y-63661998D01*
X110191297Y-63661999D01*
X110191303Y-63662003D01*
X110352292Y-63715349D01*
X110451655Y-63725500D01*
X111048344Y-63725499D01*
X111048352Y-63725498D01*
X111048355Y-63725498D01*
X111102760Y-63719940D01*
X111147708Y-63715349D01*
X111308697Y-63662003D01*
X111436088Y-63583426D01*
X111503478Y-63564986D01*
X111570142Y-63585908D01*
X111588865Y-63601284D01*
X112124907Y-64137326D01*
X112158392Y-64198649D01*
X112158843Y-64200815D01*
X112180261Y-64308491D01*
X112180264Y-64308501D01*
X112240602Y-64454172D01*
X112240609Y-64454185D01*
X112300304Y-64543524D01*
X112321182Y-64610201D01*
X112302698Y-64677582D01*
X112300306Y-64681304D01*
X112290607Y-64695819D01*
X112290602Y-64695828D01*
X112230264Y-64841498D01*
X112230261Y-64841510D01*
X112199500Y-64996153D01*
X112199500Y-64998500D01*
X112199152Y-64999682D01*
X112198903Y-65002218D01*
X112198422Y-65002170D01*
X112196949Y-65007185D01*
X112198238Y-65016147D01*
X112187259Y-65040187D01*
X112179815Y-65065539D01*
X112172974Y-65071466D01*
X112169213Y-65079703D01*
X112146978Y-65093992D01*
X112127011Y-65111294D01*
X112116496Y-65113581D01*
X112110435Y-65117477D01*
X112075500Y-65122500D01*
X112041369Y-65122500D01*
X111974330Y-65102815D01*
X111928575Y-65050011D01*
X111925187Y-65041832D01*
X111893798Y-64957673D01*
X111893793Y-64957664D01*
X111807547Y-64842455D01*
X111807544Y-64842452D01*
X111692335Y-64756206D01*
X111692328Y-64756202D01*
X111557482Y-64705908D01*
X111557483Y-64705908D01*
X111497883Y-64699501D01*
X111497881Y-64699500D01*
X111497873Y-64699500D01*
X111497864Y-64699500D01*
X109502129Y-64699500D01*
X109502123Y-64699501D01*
X109442516Y-64705908D01*
X109307671Y-64756202D01*
X109307664Y-64756206D01*
X109192455Y-64842452D01*
X109192452Y-64842455D01*
X109106206Y-64957664D01*
X109106201Y-64957673D01*
X109074813Y-65041832D01*
X109032942Y-65097766D01*
X108967478Y-65122184D01*
X108958631Y-65122500D01*
X107688771Y-65122500D01*
X107621732Y-65102815D01*
X107583233Y-65063598D01*
X107572968Y-65046956D01*
X107453044Y-64927032D01*
X107453040Y-64927029D01*
X107308705Y-64838001D01*
X107308699Y-64837998D01*
X107308697Y-64837997D01*
X107284877Y-64830104D01*
X107147709Y-64784651D01*
X107048346Y-64774500D01*
X106501662Y-64774500D01*
X106501644Y-64774501D01*
X106402292Y-64784650D01*
X106402289Y-64784651D01*
X106241305Y-64837996D01*
X106241294Y-64838001D01*
X106096959Y-64927029D01*
X106096955Y-64927032D01*
X105977032Y-65046955D01*
X105977029Y-65046959D01*
X105888001Y-65191294D01*
X105887996Y-65191305D01*
X105834651Y-65352290D01*
X105824500Y-65451647D01*
X105824500Y-66048337D01*
X105824501Y-66048355D01*
X105834650Y-66147707D01*
X105834651Y-66147710D01*
X105887996Y-66308694D01*
X105888001Y-66308705D01*
X105977029Y-66453040D01*
X105977032Y-66453044D01*
X106096955Y-66572967D01*
X106096959Y-66572970D01*
X106241294Y-66661998D01*
X106241297Y-66661999D01*
X106241303Y-66662003D01*
X106402292Y-66715349D01*
X106501655Y-66725500D01*
X107048344Y-66725499D01*
X107048352Y-66725498D01*
X107048355Y-66725498D01*
X107108481Y-66719356D01*
X107147708Y-66715349D01*
X107308697Y-66662003D01*
X107453044Y-66572968D01*
X107572968Y-66453044D01*
X107583233Y-66436402D01*
X107635181Y-66389678D01*
X107688771Y-66377500D01*
X108958631Y-66377500D01*
X109025670Y-66397185D01*
X109071425Y-66449989D01*
X109074813Y-66458168D01*
X109106201Y-66542326D01*
X109106203Y-66542329D01*
X109106204Y-66542331D01*
X109192454Y-66657546D01*
X109200308Y-66663425D01*
X109242180Y-66719356D01*
X109250000Y-66762694D01*
X109250000Y-67237305D01*
X109230315Y-67304344D01*
X109200315Y-67336569D01*
X109192453Y-67342454D01*
X109192452Y-67342455D01*
X109106206Y-67457664D01*
X109106202Y-67457671D01*
X109055908Y-67592517D01*
X109049501Y-67652116D01*
X109049500Y-67652135D01*
X109049500Y-67748500D01*
X109029815Y-67815539D01*
X108977011Y-67861294D01*
X108925500Y-67872500D01*
X107688771Y-67872500D01*
X107621732Y-67852815D01*
X107583233Y-67813598D01*
X107572968Y-67796956D01*
X107453044Y-67677032D01*
X107453040Y-67677029D01*
X107308705Y-67588001D01*
X107308699Y-67587998D01*
X107308697Y-67587997D01*
X107308694Y-67587996D01*
X107147709Y-67534651D01*
X107048346Y-67524500D01*
X106501662Y-67524500D01*
X106501644Y-67524501D01*
X106402292Y-67534650D01*
X106402289Y-67534651D01*
X106241305Y-67587996D01*
X106241294Y-67588001D01*
X106096959Y-67677029D01*
X106096955Y-67677032D01*
X105977032Y-67796955D01*
X105977029Y-67796959D01*
X105888001Y-67941294D01*
X105887996Y-67941305D01*
X105834651Y-68102290D01*
X105824500Y-68201647D01*
X105824500Y-68798337D01*
X105824501Y-68798355D01*
X105834650Y-68897707D01*
X105834651Y-68897710D01*
X105887996Y-69058694D01*
X105888001Y-69058705D01*
X105977029Y-69203040D01*
X105977032Y-69203044D01*
X106096955Y-69322967D01*
X106096959Y-69322970D01*
X106241294Y-69411998D01*
X106241297Y-69411999D01*
X106241303Y-69412003D01*
X106402292Y-69465349D01*
X106501655Y-69475500D01*
X107048344Y-69475499D01*
X107048352Y-69475498D01*
X107048355Y-69475498D01*
X107102760Y-69469940D01*
X107147708Y-69465349D01*
X107308697Y-69412003D01*
X107453044Y-69322968D01*
X107572968Y-69203044D01*
X107583233Y-69186402D01*
X107635181Y-69139678D01*
X107688771Y-69127500D01*
X109111046Y-69127500D01*
X109178085Y-69147185D01*
X109185357Y-69152233D01*
X109192453Y-69157545D01*
X109192454Y-69157546D01*
X109307665Y-69243793D01*
X109307669Y-69243796D01*
X109307671Y-69243797D01*
X109442517Y-69294091D01*
X109442516Y-69294091D01*
X109449444Y-69294835D01*
X109502127Y-69300500D01*
X111497872Y-69300499D01*
X111557483Y-69294091D01*
X111692331Y-69243796D01*
X111807546Y-69157546D01*
X111893796Y-69042331D01*
X111916453Y-68981585D01*
X111925187Y-68958168D01*
X111967058Y-68902234D01*
X112032522Y-68877816D01*
X112041369Y-68877500D01*
X112211804Y-68877500D01*
X112211805Y-68877499D01*
X112333035Y-68853386D01*
X112420961Y-68816965D01*
X112447233Y-68806083D01*
X112550008Y-68737411D01*
X112637411Y-68650008D01*
X113487328Y-67800089D01*
X113548649Y-67766606D01*
X113550648Y-67766189D01*
X113658497Y-67744737D01*
X113804179Y-67684394D01*
X113935289Y-67596789D01*
X114046789Y-67485289D01*
X114134394Y-67354179D01*
X114194737Y-67208497D01*
X114225500Y-67053842D01*
X114225500Y-66896158D01*
X114225500Y-66896155D01*
X114225499Y-66896153D01*
X114204800Y-66792094D01*
X114194737Y-66741503D01*
X114193486Y-66738482D01*
X114134397Y-66595827D01*
X114134390Y-66595814D01*
X114046789Y-66464711D01*
X114046786Y-66464707D01*
X113935292Y-66353213D01*
X113935288Y-66353210D01*
X113823742Y-66278677D01*
X113778937Y-66225065D01*
X113770230Y-66155740D01*
X113771008Y-66151419D01*
X113775500Y-66128842D01*
X113775500Y-65971158D01*
X113775500Y-65971155D01*
X113775499Y-65971153D01*
X113751538Y-65850691D01*
X113757765Y-65781100D01*
X113800628Y-65725923D01*
X113866518Y-65702678D01*
X113873155Y-65702500D01*
X120236804Y-65702500D01*
X120236805Y-65702499D01*
X120358035Y-65678386D01*
X120431533Y-65647941D01*
X120461978Y-65635331D01*
X120461980Y-65635329D01*
X120472233Y-65631083D01*
X120575008Y-65562411D01*
X120662411Y-65475008D01*
X123923600Y-62213819D01*
X123984923Y-62180334D01*
X124011281Y-62177500D01*
X125260643Y-62177500D01*
X125327682Y-62197185D01*
X125329534Y-62198398D01*
X125420814Y-62259390D01*
X125420827Y-62259397D01*
X125566498Y-62319735D01*
X125566503Y-62319737D01*
X125721153Y-62350499D01*
X125721156Y-62350500D01*
X125721158Y-62350500D01*
X125878844Y-62350500D01*
X125878845Y-62350499D01*
X126033497Y-62319737D01*
X126149262Y-62271786D01*
X126179172Y-62259397D01*
X126179172Y-62259396D01*
X126179179Y-62259394D01*
X126310289Y-62171789D01*
X126421789Y-62060289D01*
X126509394Y-61929179D01*
X126516509Y-61912003D01*
X126550326Y-61830360D01*
X126569737Y-61783497D01*
X126600500Y-61628842D01*
X126600500Y-61471158D01*
X126600500Y-61471155D01*
X126600499Y-61471153D01*
X126594244Y-61439707D01*
X126569737Y-61316503D01*
X126569367Y-61315609D01*
X126509397Y-61170827D01*
X126509390Y-61170814D01*
X126421789Y-61039711D01*
X126421786Y-61039707D01*
X126310292Y-60928213D01*
X126310288Y-60928210D01*
X126179185Y-60840609D01*
X126179172Y-60840602D01*
X126033501Y-60780264D01*
X126033489Y-60780261D01*
X125878845Y-60749500D01*
X125878842Y-60749500D01*
X125721158Y-60749500D01*
X125721155Y-60749500D01*
X125566510Y-60780261D01*
X125566498Y-60780264D01*
X125420827Y-60840602D01*
X125420814Y-60840609D01*
X125329534Y-60901602D01*
X125262857Y-60922480D01*
X125260643Y-60922500D01*
X123638192Y-60922500D01*
X123516973Y-60946612D01*
X123516961Y-60946615D01*
X123476930Y-60963196D01*
X123476931Y-60963197D01*
X123402770Y-60993915D01*
X123402761Y-60993920D01*
X123326729Y-61044724D01*
X123326728Y-61044725D01*
X123299989Y-61062590D01*
X123299988Y-61062591D01*
X119951400Y-64411181D01*
X119890077Y-64444666D01*
X119863719Y-64447500D01*
X113843182Y-64447500D01*
X113776143Y-64427815D01*
X113730388Y-64375011D01*
X113720444Y-64305853D01*
X113721565Y-64299308D01*
X113750500Y-64153844D01*
X113750500Y-63996155D01*
X113750499Y-63996153D01*
X113748160Y-63984394D01*
X113719737Y-63841503D01*
X113716463Y-63833599D01*
X113659397Y-63695827D01*
X113659390Y-63695814D01*
X113571789Y-63564711D01*
X113571786Y-63564707D01*
X113460292Y-63453213D01*
X113460288Y-63453210D01*
X113329185Y-63365609D01*
X113329172Y-63365602D01*
X113183501Y-63305264D01*
X113183491Y-63305261D01*
X113075815Y-63283843D01*
X113013904Y-63251458D01*
X113012326Y-63249907D01*
X112050011Y-62287591D01*
X112050010Y-62287590D01*
X112035412Y-62277836D01*
X112035409Y-62277834D01*
X112031917Y-62275501D01*
X111947233Y-62218917D01*
X111902770Y-62200500D01*
X111895402Y-62197448D01*
X111895397Y-62197445D01*
X111833035Y-62171614D01*
X111833027Y-62171612D01*
X111711807Y-62147500D01*
X111711803Y-62147500D01*
X111672966Y-62147500D01*
X111605927Y-62127815D01*
X111575701Y-62100412D01*
X111572968Y-62096956D01*
X111453044Y-61977032D01*
X111453040Y-61977029D01*
X111308705Y-61888001D01*
X111308699Y-61887998D01*
X111308697Y-61887997D01*
X111279726Y-61878397D01*
X111147709Y-61834651D01*
X111048346Y-61824500D01*
X110451662Y-61824500D01*
X110451644Y-61824501D01*
X110352286Y-61834651D01*
X110347928Y-61835584D01*
X110278254Y-61830360D01*
X110222465Y-61788298D01*
X110207429Y-61761789D01*
X110159394Y-61645821D01*
X110159392Y-61645818D01*
X110159390Y-61645814D01*
X110071789Y-61514711D01*
X110071786Y-61514707D01*
X109960292Y-61403213D01*
X109960288Y-61403210D01*
X109829185Y-61315609D01*
X109829172Y-61315602D01*
X109683501Y-61255264D01*
X109683489Y-61255261D01*
X109528845Y-61224500D01*
X109528842Y-61224500D01*
X109371158Y-61224500D01*
X109371155Y-61224500D01*
X109216510Y-61255261D01*
X109216498Y-61255264D01*
X109070827Y-61315602D01*
X109070814Y-61315609D01*
X108979534Y-61376602D01*
X108961487Y-61382252D01*
X108945578Y-61392477D01*
X108914618Y-61396928D01*
X108912857Y-61397480D01*
X108910643Y-61397500D01*
X108861281Y-61397500D01*
X108794242Y-61377815D01*
X108773600Y-61361181D01*
X107950007Y-60537588D01*
X107950004Y-60537586D01*
X107948428Y-60536532D01*
X107948412Y-60536522D01*
X107945226Y-60534394D01*
X107847233Y-60468917D01*
X107802773Y-60450501D01*
X107795078Y-60447313D01*
X107795072Y-60447310D01*
X107733035Y-60421614D01*
X107733027Y-60421612D01*
X107611807Y-60397500D01*
X107611803Y-60397500D01*
X107422966Y-60397500D01*
X107355927Y-60377815D01*
X107325701Y-60350412D01*
X107322968Y-60346956D01*
X107203044Y-60227032D01*
X107203040Y-60227029D01*
X107058705Y-60138001D01*
X107058699Y-60137998D01*
X107058697Y-60137997D01*
X107037995Y-60131137D01*
X106897709Y-60084651D01*
X106798346Y-60074500D01*
X106201662Y-60074500D01*
X106201644Y-60074501D01*
X106102292Y-60084650D01*
X106102289Y-60084651D01*
X105941305Y-60137996D01*
X105941294Y-60138001D01*
X105796959Y-60227029D01*
X105796955Y-60227032D01*
X105677032Y-60346955D01*
X105677029Y-60346959D01*
X105588001Y-60491294D01*
X105587996Y-60491305D01*
X105534651Y-60652290D01*
X105524500Y-60751647D01*
X105524500Y-61061718D01*
X105504815Y-61128757D01*
X105488181Y-61149399D01*
X105026400Y-61611181D01*
X104999472Y-61625884D01*
X104973654Y-61642477D01*
X104967453Y-61643368D01*
X104965077Y-61644666D01*
X104938719Y-61647500D01*
X104778800Y-61647500D01*
X104711761Y-61627815D01*
X104666006Y-61575011D01*
X104656062Y-61505853D01*
X104675698Y-61454609D01*
X104688253Y-61435819D01*
X104709394Y-61404179D01*
X104712398Y-61396928D01*
X104740011Y-61330263D01*
X104769737Y-61258497D01*
X104800500Y-61103842D01*
X104800500Y-60946158D01*
X104800500Y-60946155D01*
X104800499Y-60946153D01*
X104769738Y-60791510D01*
X104769737Y-60791503D01*
X104765081Y-60780263D01*
X104709397Y-60645827D01*
X104709390Y-60645814D01*
X104621789Y-60514711D01*
X104621786Y-60514707D01*
X104510292Y-60403213D01*
X104510288Y-60403210D01*
X104379185Y-60315609D01*
X104379172Y-60315602D01*
X104233501Y-60255264D01*
X104233489Y-60255261D01*
X104078845Y-60224500D01*
X104078842Y-60224500D01*
X103921158Y-60224500D01*
X103921155Y-60224500D01*
X103766510Y-60255261D01*
X103766498Y-60255264D01*
X103620827Y-60315602D01*
X103620814Y-60315609D01*
X103489711Y-60403210D01*
X103489707Y-60403213D01*
X103378213Y-60514707D01*
X103378210Y-60514711D01*
X103290609Y-60645814D01*
X103290602Y-60645827D01*
X103230264Y-60791498D01*
X103230261Y-60791510D01*
X103199500Y-60946153D01*
X103199500Y-61103846D01*
X103230261Y-61258489D01*
X103230264Y-61258501D01*
X103290602Y-61404172D01*
X103290609Y-61404184D01*
X103324302Y-61454609D01*
X103345180Y-61521286D01*
X103326696Y-61588666D01*
X103274717Y-61635357D01*
X103221200Y-61647500D01*
X102303800Y-61647500D01*
X102236761Y-61627815D01*
X102191006Y-61575011D01*
X102181062Y-61505853D01*
X102200698Y-61454609D01*
X102213253Y-61435819D01*
X102234394Y-61404179D01*
X102237398Y-61396928D01*
X102265011Y-61330263D01*
X102294737Y-61258497D01*
X102325500Y-61103842D01*
X102325500Y-60946158D01*
X102325500Y-60946155D01*
X102325499Y-60946153D01*
X102294738Y-60791510D01*
X102294737Y-60791503D01*
X102290081Y-60780263D01*
X102234397Y-60645827D01*
X102234390Y-60645814D01*
X102146789Y-60514711D01*
X102146786Y-60514707D01*
X102035292Y-60403213D01*
X102035288Y-60403210D01*
X101904185Y-60315609D01*
X101904172Y-60315602D01*
X101758501Y-60255264D01*
X101758489Y-60255261D01*
X101603845Y-60224500D01*
X101603842Y-60224500D01*
X101446158Y-60224500D01*
X101446155Y-60224500D01*
X101291510Y-60255261D01*
X101291498Y-60255264D01*
X101145827Y-60315602D01*
X101145814Y-60315609D01*
X101014711Y-60403210D01*
X101014707Y-60403213D01*
X100903213Y-60514707D01*
X100903210Y-60514711D01*
X100815609Y-60645814D01*
X100815602Y-60645827D01*
X100755264Y-60791498D01*
X100755261Y-60791510D01*
X100724500Y-60946153D01*
X100724500Y-61103846D01*
X100755261Y-61258489D01*
X100755264Y-61258501D01*
X100815602Y-61404172D01*
X100815609Y-61404184D01*
X100849302Y-61454609D01*
X100870180Y-61521286D01*
X100851696Y-61588666D01*
X100799717Y-61635357D01*
X100746200Y-61647500D01*
X99578800Y-61647500D01*
X99511761Y-61627815D01*
X99466006Y-61575011D01*
X99456062Y-61505853D01*
X99475698Y-61454609D01*
X99488253Y-61435819D01*
X99509394Y-61404179D01*
X99512398Y-61396928D01*
X99540011Y-61330263D01*
X99569737Y-61258497D01*
X99600500Y-61103842D01*
X99600500Y-60946158D01*
X99600500Y-60946155D01*
X99600499Y-60946153D01*
X99569738Y-60791510D01*
X99569737Y-60791503D01*
X99565081Y-60780263D01*
X99509397Y-60645827D01*
X99509390Y-60645814D01*
X99421789Y-60514711D01*
X99421786Y-60514707D01*
X99310292Y-60403213D01*
X99310288Y-60403210D01*
X99179185Y-60315609D01*
X99179172Y-60315602D01*
X99033501Y-60255264D01*
X99033489Y-60255261D01*
X98878845Y-60224500D01*
X98878842Y-60224500D01*
X98721158Y-60224500D01*
X98612469Y-60246119D01*
X98542878Y-60239891D01*
X98487701Y-60197027D01*
X98464457Y-60131137D01*
X98480525Y-60063140D01*
X98500594Y-60036824D01*
X99176600Y-59360819D01*
X99237923Y-59327334D01*
X99264281Y-59324500D01*
X109778538Y-59324500D01*
X109845577Y-59344185D01*
X109884076Y-59383403D01*
X109927029Y-59453040D01*
X109927032Y-59453044D01*
X110046955Y-59572967D01*
X110046959Y-59572970D01*
X110191294Y-59661998D01*
X110191297Y-59661999D01*
X110191303Y-59662003D01*
X110352292Y-59715349D01*
X110451655Y-59725500D01*
X111048344Y-59725499D01*
X111048352Y-59725498D01*
X111048355Y-59725498D01*
X111102760Y-59719940D01*
X111147708Y-59715349D01*
X111308697Y-59662003D01*
X111453044Y-59572968D01*
X111572968Y-59453044D01*
X111572970Y-59453039D01*
X111575701Y-59449588D01*
X111632723Y-59409212D01*
X111672966Y-59402500D01*
X112263719Y-59402500D01*
X112330758Y-59422185D01*
X112351400Y-59438819D01*
X112536181Y-59623600D01*
X112569666Y-59684923D01*
X112572500Y-59711281D01*
X112572500Y-61110642D01*
X112552815Y-61177681D01*
X112551602Y-61179533D01*
X112490609Y-61270814D01*
X112490602Y-61270827D01*
X112430264Y-61416498D01*
X112430261Y-61416510D01*
X112399500Y-61571153D01*
X112399500Y-61728846D01*
X112430261Y-61883489D01*
X112430264Y-61883501D01*
X112490602Y-62029172D01*
X112490609Y-62029185D01*
X112578210Y-62160288D01*
X112578213Y-62160292D01*
X112689707Y-62271786D01*
X112689711Y-62271789D01*
X112820814Y-62359390D01*
X112820827Y-62359397D01*
X112966498Y-62419735D01*
X112966503Y-62419737D01*
X113121153Y-62450499D01*
X113121156Y-62450500D01*
X113121158Y-62450500D01*
X113278844Y-62450500D01*
X113278845Y-62450499D01*
X113433497Y-62419737D01*
X113551592Y-62370821D01*
X113579172Y-62359397D01*
X113579172Y-62359396D01*
X113579179Y-62359394D01*
X113710289Y-62271789D01*
X113821789Y-62160289D01*
X113909394Y-62029179D01*
X113912719Y-62021153D01*
X113948065Y-61935819D01*
X113969737Y-61883497D01*
X113969737Y-61883496D01*
X113972068Y-61877869D01*
X113973343Y-61878397D01*
X114007799Y-61825810D01*
X114063980Y-61798618D01*
X114083497Y-61794737D01*
X114229179Y-61734394D01*
X114360289Y-61646789D01*
X114471789Y-61535289D01*
X114559394Y-61404179D01*
X114562398Y-61396928D01*
X114590011Y-61330263D01*
X114619737Y-61258497D01*
X114650500Y-61103842D01*
X114650500Y-60946158D01*
X114650500Y-60946155D01*
X114650499Y-60946153D01*
X114619738Y-60791510D01*
X114619737Y-60791503D01*
X114615081Y-60780263D01*
X114559397Y-60645827D01*
X114559390Y-60645814D01*
X114498398Y-60554533D01*
X114477520Y-60487855D01*
X114477500Y-60485642D01*
X114477500Y-57488194D01*
X114453386Y-57366970D01*
X114453385Y-57366969D01*
X114453385Y-57366965D01*
X114440165Y-57335048D01*
X114406086Y-57252773D01*
X114406079Y-57252760D01*
X114337412Y-57149993D01*
X114337411Y-57149992D01*
X114250008Y-57062589D01*
X113217680Y-56030261D01*
X112175011Y-54987591D01*
X112175010Y-54987590D01*
X112167331Y-54982459D01*
X112155419Y-54974500D01*
X112072233Y-54918917D01*
X112038784Y-54905062D01*
X112030909Y-54901800D01*
X112030904Y-54901797D01*
X111958035Y-54871614D01*
X111958027Y-54871612D01*
X111836807Y-54847500D01*
X111836803Y-54847500D01*
X109411803Y-54847500D01*
X109288196Y-54847500D01*
X109288194Y-54847500D01*
X109166970Y-54871613D01*
X109166960Y-54871616D01*
X109052773Y-54918913D01*
X109052760Y-54918920D01*
X108949992Y-54987588D01*
X108949988Y-54987591D01*
X107419477Y-56518103D01*
X107358154Y-56551588D01*
X107288462Y-56546604D01*
X107244115Y-56518103D01*
X107203044Y-56477032D01*
X107203040Y-56477029D01*
X107058705Y-56388001D01*
X107058699Y-56387998D01*
X107058697Y-56387997D01*
X107058694Y-56387996D01*
X106897709Y-56334651D01*
X106798346Y-56324500D01*
X106201662Y-56324500D01*
X106201644Y-56324501D01*
X106102292Y-56334650D01*
X106102289Y-56334651D01*
X105941305Y-56387996D01*
X105941294Y-56388001D01*
X105796959Y-56477029D01*
X105796955Y-56477032D01*
X105677031Y-56596956D01*
X105674299Y-56600412D01*
X105617277Y-56640788D01*
X105577034Y-56647500D01*
X92338195Y-56647500D01*
X92216970Y-56671613D01*
X92216960Y-56671616D01*
X92102773Y-56718913D01*
X92102766Y-56718917D01*
X92070629Y-56740391D01*
X92038491Y-56761865D01*
X92038490Y-56761866D01*
X91999989Y-56787590D01*
X91999988Y-56787591D01*
X84549400Y-64238181D01*
X84488077Y-64271666D01*
X84461719Y-64274500D01*
X84168384Y-64274500D01*
X84149145Y-64276248D01*
X84097807Y-64280913D01*
X83935393Y-64331522D01*
X83789813Y-64419529D01*
X83764677Y-64444666D01*
X83698160Y-64511182D01*
X83671229Y-64525888D01*
X83645416Y-64542477D01*
X83639216Y-64543368D01*
X83636840Y-64544666D01*
X83610481Y-64547500D01*
X83389519Y-64547500D01*
X83322480Y-64527815D01*
X83301842Y-64511185D01*
X83210185Y-64419528D01*
X83064606Y-64331522D01*
X82902196Y-64280914D01*
X82902194Y-64280913D01*
X82902192Y-64280913D01*
X82852778Y-64276423D01*
X82831616Y-64274500D01*
X82168384Y-64274500D01*
X82149145Y-64276248D01*
X82097807Y-64280913D01*
X81935393Y-64331522D01*
X81789811Y-64419530D01*
X81669530Y-64539811D01*
X81581522Y-64685393D01*
X81530913Y-64847807D01*
X81524500Y-64918386D01*
X81524500Y-65376000D01*
X81504815Y-65443039D01*
X81452011Y-65488794D01*
X81400500Y-65500000D01*
X80000000Y-65500000D01*
X80000000Y-76124506D01*
X79980315Y-76191545D01*
X79927511Y-76237300D01*
X79876020Y-76248506D01*
X73745425Y-76249499D01*
X73734597Y-76249027D01*
X73578982Y-76235412D01*
X73557696Y-76231659D01*
X73412049Y-76192633D01*
X73391738Y-76185240D01*
X73255084Y-76121517D01*
X73236366Y-76110710D01*
X73112845Y-76024220D01*
X73096287Y-76010326D01*
X72989673Y-75903712D01*
X72975779Y-75887154D01*
X72889289Y-75763633D01*
X72878482Y-75744915D01*
X72814759Y-75608261D01*
X72807366Y-75587950D01*
X72783800Y-75500000D01*
X72768338Y-75442297D01*
X72764587Y-75421017D01*
X72761039Y-75380464D01*
X72750972Y-75265397D01*
X72750501Y-75254577D01*
X72751242Y-73272070D01*
X73989500Y-73272070D01*
X73989500Y-73527929D01*
X74029526Y-73780640D01*
X74108588Y-74023972D01*
X74108589Y-74023975D01*
X74224750Y-74251950D01*
X74375132Y-74458935D01*
X74375136Y-74458940D01*
X74556059Y-74639863D01*
X74556064Y-74639867D01*
X74721871Y-74760332D01*
X74763053Y-74790252D01*
X74912080Y-74866185D01*
X74991024Y-74906410D01*
X74991027Y-74906411D01*
X75112693Y-74945942D01*
X75234361Y-74985474D01*
X75487070Y-75025500D01*
X75487071Y-75025500D01*
X75742929Y-75025500D01*
X75742930Y-75025500D01*
X75995639Y-74985474D01*
X76238975Y-74906410D01*
X76466947Y-74790252D01*
X76673942Y-74639862D01*
X76854862Y-74458942D01*
X77005252Y-74251947D01*
X77121410Y-74023975D01*
X77200474Y-73780639D01*
X77240500Y-73527930D01*
X77240500Y-73272070D01*
X77200474Y-73019361D01*
X77160942Y-72897693D01*
X77121411Y-72776027D01*
X77121410Y-72776024D01*
X77081185Y-72697080D01*
X77005252Y-72548053D01*
X76986038Y-72521607D01*
X76854867Y-72341064D01*
X76854863Y-72341059D01*
X76673940Y-72160136D01*
X76673935Y-72160132D01*
X76466950Y-72009750D01*
X76466949Y-72009749D01*
X76466947Y-72009748D01*
X76387144Y-71969086D01*
X76238975Y-71893589D01*
X76238972Y-71893588D01*
X75995640Y-71814526D01*
X75869284Y-71794513D01*
X75742930Y-71774500D01*
X75487070Y-71774500D01*
X75402833Y-71787842D01*
X75234359Y-71814526D01*
X74991027Y-71893588D01*
X74991024Y-71893589D01*
X74763049Y-72009750D01*
X74556064Y-72160132D01*
X74556059Y-72160136D01*
X74375136Y-72341059D01*
X74375132Y-72341064D01*
X74224750Y-72548049D01*
X74108589Y-72776024D01*
X74108588Y-72776027D01*
X74029526Y-73019359D01*
X73989500Y-73272070D01*
X72751242Y-73272070D01*
X72753672Y-66771153D01*
X76949500Y-66771153D01*
X76949500Y-66928846D01*
X76980261Y-67083489D01*
X76980264Y-67083501D01*
X77040602Y-67229172D01*
X77040609Y-67229185D01*
X77128210Y-67360288D01*
X77128213Y-67360292D01*
X77239707Y-67471786D01*
X77239711Y-67471789D01*
X77370814Y-67559390D01*
X77370827Y-67559397D01*
X77468875Y-67600009D01*
X77516503Y-67619737D01*
X77671153Y-67650499D01*
X77671156Y-67650500D01*
X77671158Y-67650500D01*
X77828844Y-67650500D01*
X77828845Y-67650499D01*
X77983497Y-67619737D01*
X78129179Y-67559394D01*
X78260289Y-67471789D01*
X78371789Y-67360289D01*
X78459394Y-67229179D01*
X78519737Y-67083497D01*
X78550500Y-66928842D01*
X78550500Y-66771158D01*
X78550500Y-66771155D01*
X78550499Y-66771153D01*
X78541418Y-66725499D01*
X78519737Y-66616503D01*
X78511170Y-66595821D01*
X78459397Y-66470827D01*
X78459390Y-66470814D01*
X78371789Y-66339711D01*
X78371786Y-66339707D01*
X78260292Y-66228213D01*
X78260288Y-66228210D01*
X78129185Y-66140609D01*
X78129172Y-66140602D01*
X77983501Y-66080264D01*
X77983489Y-66080261D01*
X77828845Y-66049500D01*
X77828842Y-66049500D01*
X77671158Y-66049500D01*
X77671155Y-66049500D01*
X77516510Y-66080261D01*
X77516498Y-66080264D01*
X77370827Y-66140602D01*
X77370814Y-66140609D01*
X77239711Y-66228210D01*
X77239707Y-66228213D01*
X77128213Y-66339707D01*
X77128210Y-66339711D01*
X77040609Y-66470814D01*
X77040602Y-66470827D01*
X76980264Y-66616498D01*
X76980261Y-66616510D01*
X76949500Y-66771153D01*
X72753672Y-66771153D01*
X72755204Y-62671153D01*
X75699500Y-62671153D01*
X75699500Y-62828846D01*
X75730261Y-62983489D01*
X75730264Y-62983501D01*
X75790602Y-63129172D01*
X75790609Y-63129185D01*
X75878210Y-63260288D01*
X75878213Y-63260292D01*
X75989707Y-63371786D01*
X75989711Y-63371789D01*
X76120814Y-63459390D01*
X76120827Y-63459397D01*
X76265243Y-63519215D01*
X76266503Y-63519737D01*
X76421153Y-63550499D01*
X76421156Y-63550500D01*
X76421158Y-63550500D01*
X76578844Y-63550500D01*
X76578845Y-63550499D01*
X76733497Y-63519737D01*
X76879179Y-63459394D01*
X77010289Y-63371789D01*
X77121789Y-63260289D01*
X77209394Y-63129179D01*
X77269737Y-62983497D01*
X77300500Y-62828842D01*
X77300500Y-62671158D01*
X77300500Y-62671155D01*
X77300499Y-62671153D01*
X77280734Y-62571789D01*
X77269737Y-62516503D01*
X77265081Y-62505263D01*
X77209397Y-62370827D01*
X77209390Y-62370814D01*
X77121789Y-62239711D01*
X77121786Y-62239707D01*
X77010289Y-62128210D01*
X76995259Y-62118168D01*
X76879185Y-62040609D01*
X76879172Y-62040602D01*
X76832217Y-62021153D01*
X77799500Y-62021153D01*
X77799500Y-62178846D01*
X77830261Y-62333489D01*
X77830264Y-62333501D01*
X77890602Y-62479172D01*
X77890609Y-62479185D01*
X77978210Y-62610288D01*
X77978213Y-62610292D01*
X78089707Y-62721786D01*
X78089711Y-62721789D01*
X78220814Y-62809390D01*
X78220827Y-62809397D01*
X78272053Y-62830615D01*
X78366503Y-62869737D01*
X78520871Y-62900443D01*
X78521153Y-62900499D01*
X78521156Y-62900500D01*
X78521158Y-62900500D01*
X78678844Y-62900500D01*
X78678845Y-62900499D01*
X78833497Y-62869737D01*
X78979179Y-62809394D01*
X79110289Y-62721789D01*
X79221789Y-62610289D01*
X79309394Y-62479179D01*
X79369737Y-62333497D01*
X79400500Y-62178842D01*
X79400500Y-62021158D01*
X79400500Y-62021155D01*
X79400499Y-62021153D01*
X79389890Y-61967820D01*
X79369737Y-61866503D01*
X79352882Y-61825810D01*
X79309397Y-61720827D01*
X79309390Y-61720814D01*
X79221789Y-61589711D01*
X79221786Y-61589707D01*
X79110292Y-61478213D01*
X79110288Y-61478210D01*
X78979185Y-61390609D01*
X78979172Y-61390602D01*
X78833501Y-61330264D01*
X78833489Y-61330261D01*
X78678845Y-61299500D01*
X78678842Y-61299500D01*
X78521158Y-61299500D01*
X78521155Y-61299500D01*
X78366510Y-61330261D01*
X78366498Y-61330264D01*
X78220827Y-61390602D01*
X78220814Y-61390609D01*
X78089711Y-61478210D01*
X78089707Y-61478213D01*
X77978213Y-61589707D01*
X77978210Y-61589711D01*
X77890609Y-61720814D01*
X77890602Y-61720827D01*
X77830264Y-61866498D01*
X77830261Y-61866510D01*
X77799500Y-62021153D01*
X76832217Y-62021153D01*
X76733501Y-61980264D01*
X76733489Y-61980261D01*
X76578845Y-61949500D01*
X76578842Y-61949500D01*
X76421158Y-61949500D01*
X76421155Y-61949500D01*
X76266510Y-61980261D01*
X76266498Y-61980264D01*
X76120827Y-62040602D01*
X76120814Y-62040609D01*
X75989711Y-62128210D01*
X75989707Y-62128213D01*
X75878213Y-62239707D01*
X75878210Y-62239711D01*
X75790609Y-62370814D01*
X75790602Y-62370827D01*
X75730264Y-62516498D01*
X75730261Y-62516510D01*
X75699500Y-62671153D01*
X72755204Y-62671153D01*
X72755718Y-61296153D01*
X73724500Y-61296153D01*
X73724500Y-61453846D01*
X73755261Y-61608489D01*
X73755264Y-61608501D01*
X73815602Y-61754172D01*
X73815609Y-61754185D01*
X73903210Y-61885288D01*
X73903213Y-61885292D01*
X74014707Y-61996786D01*
X74014711Y-61996789D01*
X74145814Y-62084390D01*
X74145827Y-62084397D01*
X74291498Y-62144735D01*
X74291503Y-62144737D01*
X74426612Y-62171612D01*
X74446153Y-62175499D01*
X74446156Y-62175500D01*
X74446158Y-62175500D01*
X74603844Y-62175500D01*
X74603845Y-62175499D01*
X74758497Y-62144737D01*
X74904179Y-62084394D01*
X75035289Y-61996789D01*
X75146789Y-61885289D01*
X75234394Y-61754179D01*
X75294737Y-61608497D01*
X75325500Y-61453842D01*
X75325500Y-61296158D01*
X75325500Y-61296155D01*
X75325499Y-61296153D01*
X75319422Y-61265602D01*
X75294737Y-61141503D01*
X75294735Y-61141498D01*
X75234397Y-60995827D01*
X75234390Y-60995814D01*
X75146789Y-60864711D01*
X75146786Y-60864707D01*
X75035292Y-60753213D01*
X75035288Y-60753210D01*
X74904185Y-60665609D01*
X74904172Y-60665602D01*
X74758501Y-60605264D01*
X74758489Y-60605261D01*
X74603845Y-60574500D01*
X74603842Y-60574500D01*
X74446158Y-60574500D01*
X74446155Y-60574500D01*
X74291510Y-60605261D01*
X74291498Y-60605264D01*
X74145827Y-60665602D01*
X74145814Y-60665609D01*
X74014711Y-60753210D01*
X74014707Y-60753213D01*
X73903213Y-60864707D01*
X73903210Y-60864711D01*
X73815609Y-60995814D01*
X73815602Y-60995827D01*
X73755264Y-61141498D01*
X73755261Y-61141510D01*
X73724500Y-61296153D01*
X72755718Y-61296153D01*
X72756297Y-59746153D01*
X75699500Y-59746153D01*
X75699500Y-59903846D01*
X75730261Y-60058489D01*
X75730264Y-60058501D01*
X75790602Y-60204172D01*
X75790609Y-60204185D01*
X75878210Y-60335288D01*
X75878213Y-60335292D01*
X75989707Y-60446786D01*
X75989711Y-60446789D01*
X76120814Y-60534390D01*
X76120827Y-60534397D01*
X76217646Y-60574500D01*
X76266503Y-60594737D01*
X76421153Y-60625499D01*
X76421156Y-60625500D01*
X76421158Y-60625500D01*
X76578844Y-60625500D01*
X76578845Y-60625499D01*
X76733497Y-60594737D01*
X76871473Y-60537586D01*
X76879172Y-60534397D01*
X76879172Y-60534396D01*
X76879179Y-60534394D01*
X77010289Y-60446789D01*
X77121789Y-60335289D01*
X77209394Y-60204179D01*
X77212357Y-60197027D01*
X77250496Y-60104949D01*
X77269737Y-60058497D01*
X77300500Y-59903842D01*
X77300500Y-59746158D01*
X77300500Y-59746155D01*
X77284209Y-59664258D01*
X77284209Y-59664257D01*
X77280608Y-59646153D01*
X77824500Y-59646153D01*
X77824500Y-59803846D01*
X77855261Y-59958489D01*
X77855264Y-59958501D01*
X77915602Y-60104172D01*
X77915609Y-60104185D01*
X78003210Y-60235288D01*
X78003213Y-60235292D01*
X78114707Y-60346786D01*
X78114711Y-60346789D01*
X78245814Y-60434390D01*
X78245827Y-60434397D01*
X78383217Y-60491305D01*
X78391503Y-60494737D01*
X78534887Y-60523258D01*
X78546153Y-60525499D01*
X78546156Y-60525500D01*
X78546158Y-60525500D01*
X78703844Y-60525500D01*
X78703845Y-60525499D01*
X78858497Y-60494737D01*
X79004179Y-60434394D01*
X79135289Y-60346789D01*
X79246789Y-60235289D01*
X79334394Y-60104179D01*
X79394737Y-59958497D01*
X79425500Y-59803842D01*
X79425500Y-59646158D01*
X79425500Y-59646155D01*
X79425499Y-59646153D01*
X79410942Y-59572970D01*
X79394737Y-59491503D01*
X79378807Y-59453044D01*
X79334397Y-59345827D01*
X79334390Y-59345814D01*
X79246789Y-59214711D01*
X79246786Y-59214707D01*
X79135292Y-59103213D01*
X79135288Y-59103210D01*
X79004185Y-59015609D01*
X79004172Y-59015602D01*
X78858501Y-58955264D01*
X78858489Y-58955261D01*
X78703845Y-58924500D01*
X78703842Y-58924500D01*
X78546158Y-58924500D01*
X78546155Y-58924500D01*
X78391510Y-58955261D01*
X78391498Y-58955264D01*
X78245827Y-59015602D01*
X78245814Y-59015609D01*
X78114711Y-59103210D01*
X78114707Y-59103213D01*
X78003213Y-59214707D01*
X78003210Y-59214711D01*
X77915609Y-59345814D01*
X77915602Y-59345827D01*
X77855264Y-59491498D01*
X77855261Y-59491510D01*
X77824500Y-59646153D01*
X77280608Y-59646153D01*
X77278834Y-59637237D01*
X77269737Y-59591503D01*
X77269735Y-59591498D01*
X77209397Y-59445827D01*
X77209390Y-59445814D01*
X77121789Y-59314711D01*
X77121786Y-59314707D01*
X77010292Y-59203213D01*
X77010288Y-59203210D01*
X76879185Y-59115609D01*
X76879172Y-59115602D01*
X76733501Y-59055264D01*
X76733489Y-59055261D01*
X76578845Y-59024500D01*
X76578842Y-59024500D01*
X76421158Y-59024500D01*
X76421155Y-59024500D01*
X76266510Y-59055261D01*
X76266498Y-59055264D01*
X76120827Y-59115602D01*
X76120814Y-59115609D01*
X75989711Y-59203210D01*
X75989707Y-59203213D01*
X75878213Y-59314707D01*
X75878210Y-59314711D01*
X75790609Y-59445814D01*
X75790602Y-59445827D01*
X75730264Y-59591498D01*
X75730261Y-59591510D01*
X75699500Y-59746153D01*
X72756297Y-59746153D01*
X72756811Y-58371153D01*
X73674500Y-58371153D01*
X73674500Y-58528846D01*
X73705261Y-58683489D01*
X73705264Y-58683501D01*
X73765602Y-58829172D01*
X73765609Y-58829185D01*
X73853210Y-58960288D01*
X73853213Y-58960292D01*
X73964707Y-59071786D01*
X73964711Y-59071789D01*
X74095814Y-59159390D01*
X74095827Y-59159397D01*
X74201603Y-59203210D01*
X74241503Y-59219737D01*
X74396153Y-59250499D01*
X74396156Y-59250500D01*
X74396158Y-59250500D01*
X74553844Y-59250500D01*
X74553845Y-59250499D01*
X74708497Y-59219737D01*
X74854179Y-59159394D01*
X74985289Y-59071789D01*
X75096789Y-58960289D01*
X75184394Y-58829179D01*
X75244737Y-58683497D01*
X75275500Y-58528842D01*
X75275500Y-58371158D01*
X75275500Y-58371155D01*
X75275499Y-58371153D01*
X75272822Y-58357697D01*
X75244737Y-58216503D01*
X75221080Y-58159390D01*
X75184397Y-58070827D01*
X75184390Y-58070814D01*
X75096789Y-57939711D01*
X75096786Y-57939707D01*
X74985291Y-57828212D01*
X74985288Y-57828210D01*
X74854185Y-57740609D01*
X74854172Y-57740602D01*
X74708501Y-57680264D01*
X74708489Y-57680261D01*
X74553845Y-57649500D01*
X74553842Y-57649500D01*
X74396158Y-57649500D01*
X74396155Y-57649500D01*
X74241510Y-57680261D01*
X74241498Y-57680264D01*
X74095827Y-57740602D01*
X74095814Y-57740609D01*
X73964711Y-57828210D01*
X73964709Y-57828212D01*
X73853213Y-57939707D01*
X73853210Y-57939711D01*
X73765609Y-58070814D01*
X73765602Y-58070827D01*
X73705264Y-58216498D01*
X73705261Y-58216510D01*
X73674500Y-58371153D01*
X72756811Y-58371153D01*
X72757427Y-56721153D01*
X75699500Y-56721153D01*
X75699500Y-56878846D01*
X75730261Y-57033489D01*
X75730264Y-57033501D01*
X75790602Y-57179172D01*
X75790609Y-57179185D01*
X75878210Y-57310288D01*
X75878213Y-57310292D01*
X75989707Y-57421786D01*
X75989711Y-57421789D01*
X76120814Y-57509390D01*
X76120827Y-57509397D01*
X76266498Y-57569735D01*
X76266503Y-57569737D01*
X76421153Y-57600499D01*
X76421156Y-57600500D01*
X76421158Y-57600500D01*
X76578844Y-57600500D01*
X76578845Y-57600499D01*
X76733497Y-57569737D01*
X76879179Y-57509394D01*
X77010289Y-57421789D01*
X77060925Y-57371153D01*
X77774500Y-57371153D01*
X77774500Y-57528846D01*
X77805261Y-57683489D01*
X77805264Y-57683501D01*
X77865602Y-57829172D01*
X77865609Y-57829185D01*
X77953210Y-57960288D01*
X77953213Y-57960292D01*
X78064707Y-58071786D01*
X78064711Y-58071789D01*
X78195814Y-58159390D01*
X78195827Y-58159397D01*
X78339523Y-58218917D01*
X78341503Y-58219737D01*
X78481081Y-58247501D01*
X78496153Y-58250499D01*
X78496156Y-58250500D01*
X78496158Y-58250500D01*
X78653844Y-58250500D01*
X78653845Y-58250499D01*
X78808497Y-58219737D01*
X78954179Y-58159394D01*
X79085289Y-58071789D01*
X79196789Y-57960289D01*
X79284394Y-57829179D01*
X79344737Y-57683497D01*
X79375500Y-57528842D01*
X79375500Y-57371158D01*
X79375500Y-57371155D01*
X79375499Y-57371153D01*
X79360585Y-57296175D01*
X79344737Y-57216503D01*
X79342089Y-57210109D01*
X79284397Y-57070827D01*
X79284390Y-57070814D01*
X79196789Y-56939711D01*
X79196786Y-56939707D01*
X79085292Y-56828213D01*
X79085288Y-56828210D01*
X78954185Y-56740609D01*
X78954172Y-56740602D01*
X78808501Y-56680264D01*
X78808489Y-56680261D01*
X78653845Y-56649500D01*
X78653842Y-56649500D01*
X78496158Y-56649500D01*
X78496155Y-56649500D01*
X78341510Y-56680261D01*
X78341498Y-56680264D01*
X78195827Y-56740602D01*
X78195814Y-56740609D01*
X78064711Y-56828210D01*
X78064707Y-56828213D01*
X77953213Y-56939707D01*
X77953210Y-56939711D01*
X77865609Y-57070814D01*
X77865602Y-57070827D01*
X77805264Y-57216498D01*
X77805261Y-57216510D01*
X77774500Y-57371153D01*
X77060925Y-57371153D01*
X77121789Y-57310289D01*
X77209394Y-57179179D01*
X77269737Y-57033497D01*
X77300500Y-56878842D01*
X77300500Y-56721158D01*
X77300500Y-56721155D01*
X77300499Y-56721153D01*
X77295976Y-56698414D01*
X77269737Y-56566503D01*
X77240633Y-56496239D01*
X77209397Y-56420827D01*
X77209390Y-56420814D01*
X77121789Y-56289711D01*
X77121786Y-56289707D01*
X77010292Y-56178213D01*
X77010288Y-56178210D01*
X76879185Y-56090609D01*
X76879172Y-56090602D01*
X76733501Y-56030264D01*
X76733489Y-56030261D01*
X76578845Y-55999500D01*
X76578842Y-55999500D01*
X76421158Y-55999500D01*
X76421155Y-55999500D01*
X76266510Y-56030261D01*
X76266498Y-56030264D01*
X76120827Y-56090602D01*
X76120814Y-56090609D01*
X75989711Y-56178210D01*
X75989707Y-56178213D01*
X75878213Y-56289707D01*
X75878210Y-56289711D01*
X75790609Y-56420814D01*
X75790602Y-56420827D01*
X75730264Y-56566498D01*
X75730261Y-56566510D01*
X75699500Y-56721153D01*
X72757427Y-56721153D01*
X72758174Y-54721153D01*
X127874500Y-54721153D01*
X127874500Y-54878846D01*
X127905261Y-55033489D01*
X127905264Y-55033501D01*
X127959752Y-55165048D01*
X127967221Y-55234517D01*
X127959752Y-55259952D01*
X127905264Y-55391498D01*
X127905261Y-55391510D01*
X127874500Y-55546153D01*
X127874500Y-55703846D01*
X127905261Y-55858489D01*
X127905264Y-55858501D01*
X127965602Y-56004172D01*
X127965609Y-56004185D01*
X128053210Y-56135288D01*
X128053213Y-56135292D01*
X128164707Y-56246786D01*
X128164711Y-56246789D01*
X128295814Y-56334390D01*
X128295827Y-56334397D01*
X128363961Y-56362618D01*
X128441503Y-56394737D01*
X128549185Y-56416156D01*
X128611092Y-56448539D01*
X128612672Y-56450091D01*
X129786181Y-57623600D01*
X129819666Y-57684923D01*
X129822500Y-57711281D01*
X129822500Y-65036807D01*
X129846612Y-65158027D01*
X129846614Y-65158035D01*
X129860390Y-65191294D01*
X129872167Y-65219724D01*
X129893917Y-65272233D01*
X129943087Y-65345821D01*
X129947411Y-65352292D01*
X129962589Y-65375009D01*
X129962591Y-65375011D01*
X130374907Y-65787326D01*
X130408392Y-65848649D01*
X130408843Y-65850815D01*
X130430261Y-65958491D01*
X130430264Y-65958501D01*
X130490602Y-66104172D01*
X130490609Y-66104185D01*
X130578210Y-66235288D01*
X130578213Y-66235292D01*
X130689707Y-66346786D01*
X130689711Y-66346789D01*
X130820814Y-66434390D01*
X130820827Y-66434397D01*
X130966498Y-66494735D01*
X130966503Y-66494737D01*
X131121153Y-66525499D01*
X131121156Y-66525500D01*
X131121158Y-66525500D01*
X131278844Y-66525500D01*
X131424308Y-66496565D01*
X131493900Y-66502792D01*
X131549077Y-66545655D01*
X131572322Y-66611545D01*
X131572500Y-66618182D01*
X131572500Y-66888718D01*
X131552815Y-66955757D01*
X131536181Y-66976399D01*
X130137672Y-68374907D01*
X130076349Y-68408392D01*
X130074183Y-68408843D01*
X129966508Y-68430261D01*
X129966498Y-68430264D01*
X129820827Y-68490602D01*
X129820814Y-68490609D01*
X129689711Y-68578210D01*
X129689707Y-68578213D01*
X129578213Y-68689707D01*
X129578210Y-68689711D01*
X129490609Y-68820814D01*
X129490602Y-68820827D01*
X129430264Y-68966498D01*
X129430261Y-68966510D01*
X129399500Y-69121153D01*
X129399500Y-69278846D01*
X129430261Y-69433489D01*
X129430264Y-69433501D01*
X129490602Y-69579172D01*
X129490609Y-69579185D01*
X129578210Y-69710288D01*
X129578213Y-69710292D01*
X129689707Y-69821786D01*
X129689711Y-69821789D01*
X129820814Y-69909390D01*
X129820827Y-69909397D01*
X129904498Y-69944054D01*
X129966503Y-69969737D01*
X130121153Y-70000499D01*
X130121156Y-70000500D01*
X130121158Y-70000500D01*
X130278844Y-70000500D01*
X130278845Y-70000499D01*
X130433497Y-69969737D01*
X130579179Y-69909394D01*
X130681610Y-69840951D01*
X130748286Y-69820074D01*
X130815666Y-69838558D01*
X130862357Y-69890537D01*
X130874500Y-69944054D01*
X130874500Y-70397870D01*
X130874501Y-70397876D01*
X130880908Y-70457483D01*
X130931202Y-70592328D01*
X130931206Y-70592335D01*
X131017452Y-70707544D01*
X131017455Y-70707547D01*
X131132664Y-70793793D01*
X131132671Y-70793797D01*
X131267517Y-70844091D01*
X131267516Y-70844091D01*
X131274444Y-70844835D01*
X131327127Y-70850500D01*
X133122872Y-70850499D01*
X133182483Y-70844091D01*
X133317331Y-70793796D01*
X133432546Y-70707546D01*
X133518796Y-70592331D01*
X133567810Y-70460916D01*
X133609681Y-70404984D01*
X133675145Y-70380566D01*
X133743418Y-70395417D01*
X133771673Y-70416569D01*
X133885213Y-70530109D01*
X134057179Y-70655048D01*
X134057181Y-70655049D01*
X134057184Y-70655051D01*
X134246588Y-70751557D01*
X134448757Y-70817246D01*
X134658713Y-70850500D01*
X134658714Y-70850500D01*
X134871286Y-70850500D01*
X134871287Y-70850500D01*
X135081243Y-70817246D01*
X135283412Y-70751557D01*
X135472816Y-70655051D01*
X135551606Y-70597807D01*
X135644786Y-70530109D01*
X135644788Y-70530106D01*
X135644792Y-70530104D01*
X135795104Y-70379792D01*
X135795106Y-70379788D01*
X135795109Y-70379786D01*
X135920048Y-70207820D01*
X135920047Y-70207820D01*
X135920051Y-70207816D01*
X136016557Y-70018412D01*
X136082246Y-69816243D01*
X136115500Y-69606287D01*
X136115500Y-69393713D01*
X136082246Y-69183757D01*
X136016557Y-68981588D01*
X135920051Y-68792184D01*
X135920049Y-68792181D01*
X135920048Y-68792179D01*
X135795109Y-68620213D01*
X135644786Y-68469890D01*
X135472820Y-68344951D01*
X135283414Y-68248444D01*
X135283413Y-68248443D01*
X135283412Y-68248443D01*
X135081243Y-68182754D01*
X135081241Y-68182753D01*
X135081240Y-68182753D01*
X134919957Y-68157208D01*
X134871287Y-68149500D01*
X134658713Y-68149500D01*
X134610042Y-68157208D01*
X134448760Y-68182753D01*
X134246585Y-68248444D01*
X134057179Y-68344951D01*
X133885215Y-68469889D01*
X133771673Y-68583431D01*
X133710350Y-68616915D01*
X133640658Y-68611931D01*
X133584725Y-68570059D01*
X133567810Y-68539082D01*
X133518797Y-68407671D01*
X133518793Y-68407664D01*
X133432547Y-68292455D01*
X133432544Y-68292452D01*
X133317335Y-68206206D01*
X133317328Y-68206202D01*
X133182482Y-68155908D01*
X133182483Y-68155908D01*
X133122883Y-68149501D01*
X133122881Y-68149500D01*
X133122873Y-68149500D01*
X133122865Y-68149500D01*
X132437281Y-68149500D01*
X132370242Y-68129815D01*
X132324487Y-68077011D01*
X132314543Y-68007853D01*
X132343568Y-67944297D01*
X132349600Y-67937819D01*
X132687405Y-67600014D01*
X132687405Y-67600013D01*
X132687411Y-67600008D01*
X132695756Y-67587519D01*
X132756083Y-67497233D01*
X132803385Y-67383035D01*
X132819038Y-67304344D01*
X132827500Y-67261805D01*
X132827500Y-63921280D01*
X132836144Y-63891839D01*
X132842668Y-63861853D01*
X132846422Y-63856837D01*
X132847185Y-63854241D01*
X132863815Y-63833603D01*
X132987820Y-63709598D01*
X133049142Y-63676114D01*
X133118834Y-63681098D01*
X133174767Y-63722970D01*
X133199184Y-63788434D01*
X133199500Y-63797280D01*
X133199500Y-63906286D01*
X133231478Y-64108190D01*
X133232754Y-64116243D01*
X133295221Y-64308497D01*
X133298444Y-64318414D01*
X133394951Y-64507820D01*
X133519890Y-64679786D01*
X133633430Y-64793326D01*
X133666915Y-64854649D01*
X133661931Y-64924341D01*
X133620059Y-64980274D01*
X133589083Y-64997189D01*
X133457669Y-65046203D01*
X133457664Y-65046206D01*
X133342455Y-65132452D01*
X133342452Y-65132455D01*
X133256206Y-65247664D01*
X133256202Y-65247671D01*
X133205908Y-65382517D01*
X133201071Y-65427511D01*
X133199501Y-65442123D01*
X133199500Y-65442135D01*
X133199500Y-67237870D01*
X133199501Y-67237876D01*
X133205908Y-67297483D01*
X133256202Y-67432328D01*
X133256206Y-67432335D01*
X133342452Y-67547544D01*
X133342455Y-67547547D01*
X133457664Y-67633793D01*
X133457671Y-67633797D01*
X133592517Y-67684091D01*
X133592516Y-67684091D01*
X133595335Y-67684394D01*
X133652127Y-67690500D01*
X135447872Y-67690499D01*
X135507483Y-67684091D01*
X135642331Y-67633796D01*
X135757546Y-67547546D01*
X135843796Y-67432331D01*
X135894091Y-67297483D01*
X135900500Y-67237873D01*
X135900499Y-65442128D01*
X135894091Y-65382517D01*
X135891660Y-65376000D01*
X135843797Y-65247671D01*
X135843793Y-65247664D01*
X135757547Y-65132455D01*
X135757544Y-65132452D01*
X135642335Y-65046206D01*
X135642328Y-65046202D01*
X135510917Y-64997189D01*
X135454983Y-64955318D01*
X135430566Y-64889853D01*
X135445418Y-64821580D01*
X135466563Y-64793332D01*
X135580104Y-64679792D01*
X135630665Y-64610201D01*
X135679868Y-64542477D01*
X135705051Y-64507816D01*
X135801557Y-64318412D01*
X135867246Y-64116243D01*
X135900500Y-63906287D01*
X135900500Y-63693713D01*
X135867246Y-63483757D01*
X135801557Y-63281588D01*
X135705051Y-63092184D01*
X135705049Y-63092181D01*
X135705048Y-63092179D01*
X135580109Y-62920213D01*
X135429786Y-62769890D01*
X135257820Y-62644951D01*
X135257115Y-62644591D01*
X135249054Y-62640485D01*
X135198259Y-62592512D01*
X135181463Y-62524692D01*
X135203999Y-62458556D01*
X135249054Y-62419515D01*
X135257816Y-62415051D01*
X135318694Y-62370821D01*
X135429786Y-62290109D01*
X135429788Y-62290106D01*
X135429792Y-62290104D01*
X135580104Y-62139792D01*
X135580106Y-62139788D01*
X135580109Y-62139786D01*
X135705048Y-61967820D01*
X135705047Y-61967820D01*
X135705051Y-61967816D01*
X135801557Y-61778412D01*
X135867246Y-61576243D01*
X135900500Y-61366287D01*
X135900500Y-61153713D01*
X135867246Y-60943757D01*
X135801557Y-60741588D01*
X135705051Y-60552184D01*
X135705049Y-60552181D01*
X135705048Y-60552179D01*
X135580109Y-60380213D01*
X135429786Y-60229890D01*
X135257820Y-60104951D01*
X135068414Y-60008444D01*
X135068413Y-60008443D01*
X135068412Y-60008443D01*
X134866243Y-59942754D01*
X134866241Y-59942753D01*
X134866240Y-59942753D01*
X134704957Y-59917208D01*
X134656287Y-59909500D01*
X134443713Y-59909500D01*
X134395042Y-59917208D01*
X134233760Y-59942753D01*
X134031585Y-60008444D01*
X133842179Y-60104951D01*
X133670213Y-60229890D01*
X133519890Y-60380213D01*
X133394951Y-60552179D01*
X133298444Y-60741585D01*
X133232753Y-60943760D01*
X133207398Y-61103846D01*
X133199500Y-61153713D01*
X133199500Y-61366287D01*
X133207208Y-61414957D01*
X133232753Y-61576240D01*
X133232754Y-61576245D01*
X133237128Y-61589707D01*
X133239121Y-61659549D01*
X133206877Y-61715702D01*
X132252510Y-62670069D01*
X132191187Y-62703554D01*
X132121495Y-62698570D01*
X132077148Y-62670069D01*
X132060292Y-62653213D01*
X132060288Y-62653210D01*
X131929185Y-62565609D01*
X131929172Y-62565602D01*
X131804048Y-62513775D01*
X131749644Y-62469934D01*
X131727579Y-62403640D01*
X131727500Y-62399214D01*
X131727500Y-57100069D01*
X131727499Y-57100068D01*
X131720849Y-57066632D01*
X131703386Y-56978839D01*
X131665589Y-56887589D01*
X131656083Y-56864640D01*
X131587411Y-56761865D01*
X131500008Y-56674462D01*
X130899259Y-56073713D01*
X133199500Y-56073713D01*
X133199500Y-56286286D01*
X133229710Y-56477029D01*
X133232754Y-56496243D01*
X133292546Y-56680264D01*
X133298444Y-56698414D01*
X133394951Y-56887820D01*
X133519890Y-57059786D01*
X133670213Y-57210109D01*
X133842179Y-57335048D01*
X133842181Y-57335049D01*
X133842184Y-57335051D01*
X134031588Y-57431557D01*
X134233757Y-57497246D01*
X134443713Y-57530500D01*
X134443714Y-57530500D01*
X134656286Y-57530500D01*
X134656287Y-57530500D01*
X134866243Y-57497246D01*
X135068412Y-57431557D01*
X135257816Y-57335051D01*
X135371063Y-57252773D01*
X135429786Y-57210109D01*
X135429788Y-57210106D01*
X135429792Y-57210104D01*
X135580104Y-57059792D01*
X135580106Y-57059788D01*
X135580109Y-57059786D01*
X135705048Y-56887820D01*
X135705047Y-56887820D01*
X135705051Y-56887816D01*
X135801557Y-56698412D01*
X135867246Y-56496243D01*
X135900500Y-56286287D01*
X135900500Y-56073713D01*
X135867246Y-55863757D01*
X135801557Y-55661588D01*
X135705051Y-55472184D01*
X135705049Y-55472181D01*
X135705048Y-55472179D01*
X135580109Y-55300213D01*
X135429786Y-55149890D01*
X135257820Y-55024951D01*
X135068414Y-54928444D01*
X135068413Y-54928443D01*
X135068412Y-54928443D01*
X134866243Y-54862754D01*
X134866241Y-54862753D01*
X134866240Y-54862753D01*
X134704957Y-54837208D01*
X134656287Y-54829500D01*
X134443713Y-54829500D01*
X134395042Y-54837208D01*
X134233760Y-54862753D01*
X134031585Y-54928444D01*
X133842179Y-55024951D01*
X133670213Y-55149890D01*
X133519890Y-55300213D01*
X133394951Y-55472179D01*
X133298444Y-55661585D01*
X133232753Y-55863760D01*
X133199500Y-56073713D01*
X130899259Y-56073713D01*
X129484417Y-54658871D01*
X129450932Y-54597548D01*
X129450497Y-54595462D01*
X129444737Y-54566503D01*
X129420599Y-54508230D01*
X129384397Y-54420827D01*
X129384390Y-54420814D01*
X129296789Y-54289711D01*
X129296786Y-54289707D01*
X129185292Y-54178213D01*
X129185288Y-54178210D01*
X129054185Y-54090609D01*
X129054172Y-54090602D01*
X128908501Y-54030264D01*
X128908489Y-54030261D01*
X128753845Y-53999500D01*
X128753842Y-53999500D01*
X128596158Y-53999500D01*
X128596155Y-53999500D01*
X128441510Y-54030261D01*
X128441498Y-54030264D01*
X128295827Y-54090602D01*
X128295814Y-54090609D01*
X128164711Y-54178210D01*
X128164707Y-54178213D01*
X128053213Y-54289707D01*
X128053210Y-54289711D01*
X127965609Y-54420814D01*
X127965602Y-54420827D01*
X127905264Y-54566498D01*
X127905261Y-54566510D01*
X127874500Y-54721153D01*
X72758174Y-54721153D01*
X72759837Y-50272070D01*
X73989500Y-50272070D01*
X73989500Y-50527929D01*
X74029526Y-50780640D01*
X74108588Y-51023972D01*
X74108589Y-51023975D01*
X74187533Y-51178910D01*
X74215195Y-51233199D01*
X74224750Y-51251950D01*
X74375132Y-51458935D01*
X74375136Y-51458940D01*
X74556059Y-51639863D01*
X74556064Y-51639867D01*
X74733432Y-51768731D01*
X74763053Y-51790252D01*
X74912080Y-51866185D01*
X74991024Y-51906410D01*
X74991027Y-51906411D01*
X75112693Y-51945942D01*
X75234361Y-51985474D01*
X75487070Y-52025500D01*
X75487071Y-52025500D01*
X75742929Y-52025500D01*
X75742930Y-52025500D01*
X75995639Y-51985474D01*
X76238975Y-51906410D01*
X76466947Y-51790252D01*
X76673942Y-51639862D01*
X76854862Y-51458942D01*
X77005252Y-51251947D01*
X77121410Y-51023975D01*
X77200474Y-50780639D01*
X77240500Y-50527930D01*
X77240500Y-50272070D01*
X77200474Y-50019361D01*
X77121410Y-49776025D01*
X77121410Y-49776024D01*
X77037611Y-49611561D01*
X77005252Y-49548053D01*
X76986038Y-49521607D01*
X76854867Y-49341064D01*
X76854863Y-49341059D01*
X76673942Y-49160138D01*
X76627940Y-49126716D01*
X76627938Y-49126713D01*
X76496561Y-49031263D01*
X79230500Y-49031263D01*
X79230500Y-49228736D01*
X79261389Y-49423763D01*
X79301774Y-49548053D01*
X79322409Y-49611561D01*
X79406209Y-49776025D01*
X79412058Y-49787504D01*
X79528115Y-49947246D01*
X79528121Y-49947252D01*
X79667748Y-50086879D01*
X79811311Y-50191183D01*
X79853976Y-50246511D01*
X79859955Y-50316124D01*
X79827350Y-50377919D01*
X79766512Y-50412277D01*
X79738427Y-50415500D01*
X79683130Y-50415500D01*
X79683123Y-50415501D01*
X79623516Y-50421908D01*
X79488671Y-50472202D01*
X79488664Y-50472206D01*
X79373455Y-50558452D01*
X79373452Y-50558455D01*
X79287206Y-50673664D01*
X79287202Y-50673671D01*
X79236908Y-50808517D01*
X79230501Y-50868116D01*
X79230501Y-50868123D01*
X79230500Y-50868135D01*
X79230500Y-52471870D01*
X79230501Y-52471876D01*
X79236908Y-52531483D01*
X79287202Y-52666328D01*
X79287206Y-52666335D01*
X79373452Y-52781544D01*
X79373455Y-52781547D01*
X79488664Y-52867793D01*
X79488671Y-52867797D01*
X79623517Y-52918091D01*
X79623516Y-52918091D01*
X79630444Y-52918835D01*
X79683127Y-52924500D01*
X81286872Y-52924499D01*
X81346483Y-52918091D01*
X81481331Y-52867796D01*
X81596546Y-52781546D01*
X81682796Y-52666331D01*
X81733091Y-52531483D01*
X81739500Y-52471873D01*
X81739499Y-52416574D01*
X81759182Y-52349538D01*
X81811986Y-52303783D01*
X81881144Y-52293838D01*
X81944700Y-52322862D01*
X81963817Y-52343691D01*
X82068115Y-52487245D01*
X82068119Y-52487250D01*
X82207753Y-52626884D01*
X82357234Y-52735486D01*
X82367499Y-52742944D01*
X82543439Y-52832591D01*
X82668637Y-52873270D01*
X82731236Y-52893610D01*
X82926264Y-52924500D01*
X82926269Y-52924500D01*
X83123736Y-52924500D01*
X83318763Y-52893610D01*
X83506561Y-52832591D01*
X83682501Y-52742944D01*
X83787955Y-52666328D01*
X83842246Y-52626884D01*
X83842248Y-52626881D01*
X83842252Y-52626879D01*
X83981879Y-52487252D01*
X83981881Y-52487248D01*
X83981884Y-52487246D01*
X84097941Y-52327505D01*
X84097942Y-52327504D01*
X84097944Y-52327501D01*
X84184517Y-52157593D01*
X84232490Y-52106800D01*
X84300311Y-52090005D01*
X84366446Y-52112542D01*
X84405482Y-52157593D01*
X84474904Y-52293838D01*
X84492058Y-52327505D01*
X84608115Y-52487246D01*
X84747753Y-52626884D01*
X84897234Y-52735486D01*
X84907499Y-52742944D01*
X85083439Y-52832591D01*
X85208637Y-52873270D01*
X85271236Y-52893610D01*
X85466264Y-52924500D01*
X85466269Y-52924500D01*
X85663736Y-52924500D01*
X85858763Y-52893610D01*
X86046561Y-52832591D01*
X86222501Y-52742944D01*
X86327955Y-52666328D01*
X86382246Y-52626884D01*
X86382248Y-52626881D01*
X86382252Y-52626879D01*
X86521879Y-52487252D01*
X86521881Y-52487248D01*
X86521884Y-52487246D01*
X86637941Y-52327505D01*
X86637942Y-52327504D01*
X86637944Y-52327501D01*
X86724517Y-52157593D01*
X86772490Y-52106800D01*
X86840311Y-52090005D01*
X86906446Y-52112542D01*
X86945482Y-52157593D01*
X87014904Y-52293838D01*
X87032058Y-52327505D01*
X87148115Y-52487246D01*
X87287753Y-52626884D01*
X87437234Y-52735486D01*
X87447499Y-52742944D01*
X87623439Y-52832591D01*
X87748637Y-52873270D01*
X87811236Y-52893610D01*
X88006264Y-52924500D01*
X88006269Y-52924500D01*
X88203736Y-52924500D01*
X88398763Y-52893610D01*
X88586561Y-52832591D01*
X88762501Y-52742944D01*
X88867955Y-52666328D01*
X88922246Y-52626884D01*
X88922248Y-52626881D01*
X88922252Y-52626879D01*
X89061879Y-52487252D01*
X89061881Y-52487248D01*
X89061884Y-52487246D01*
X89166181Y-52343691D01*
X89177944Y-52327501D01*
X89267591Y-52151561D01*
X89328610Y-51963763D01*
X89337694Y-51906410D01*
X89359500Y-51768736D01*
X89359500Y-51571263D01*
X89328610Y-51376236D01*
X89280268Y-51227456D01*
X89267591Y-51188439D01*
X89177944Y-51012499D01*
X89133634Y-50951511D01*
X89061884Y-50852753D01*
X88922246Y-50713115D01*
X88762505Y-50597058D01*
X88756119Y-50593804D01*
X88592593Y-50510482D01*
X88541800Y-50462510D01*
X88525005Y-50394689D01*
X88547542Y-50328554D01*
X88592593Y-50289517D01*
X88762501Y-50202944D01*
X88812141Y-50166879D01*
X88922246Y-50086884D01*
X88922248Y-50086881D01*
X88922252Y-50086879D01*
X89061879Y-49947252D01*
X89061881Y-49947248D01*
X89061884Y-49947246D01*
X89177941Y-49787505D01*
X89177942Y-49787504D01*
X89177944Y-49787501D01*
X89264517Y-49617593D01*
X89312490Y-49566800D01*
X89380311Y-49550005D01*
X89446446Y-49572542D01*
X89485482Y-49617593D01*
X89566208Y-49776024D01*
X89572058Y-49787505D01*
X89688115Y-49947246D01*
X89827753Y-50086884D01*
X89971308Y-50191181D01*
X89987499Y-50202944D01*
X90163439Y-50292591D01*
X90274122Y-50328554D01*
X90351236Y-50353610D01*
X90546264Y-50384500D01*
X90546269Y-50384500D01*
X90743736Y-50384500D01*
X90938763Y-50353610D01*
X91126561Y-50292591D01*
X91302501Y-50202944D01*
X91392192Y-50137779D01*
X91462246Y-50086884D01*
X91462248Y-50086881D01*
X91462252Y-50086879D01*
X91601879Y-49947252D01*
X91601881Y-49947248D01*
X91601884Y-49947246D01*
X91717941Y-49787505D01*
X91717942Y-49787504D01*
X91717944Y-49787501D01*
X91804517Y-49617593D01*
X91852490Y-49566800D01*
X91920311Y-49550005D01*
X91986446Y-49572542D01*
X92025482Y-49617593D01*
X92106208Y-49776024D01*
X92112058Y-49787505D01*
X92228115Y-49947246D01*
X92367753Y-50086884D01*
X92511308Y-50191181D01*
X92527499Y-50202944D01*
X92697404Y-50289516D01*
X92748199Y-50337490D01*
X92764994Y-50405311D01*
X92742456Y-50471446D01*
X92697404Y-50510483D01*
X92663167Y-50527929D01*
X92527495Y-50597058D01*
X92367753Y-50713115D01*
X92228115Y-50852753D01*
X92112058Y-51012495D01*
X92022408Y-51188441D01*
X91961389Y-51376236D01*
X91930500Y-51571263D01*
X91930500Y-51768736D01*
X91961389Y-51963763D01*
X91981449Y-52025500D01*
X92022409Y-52151561D01*
X92112056Y-52327501D01*
X92112058Y-52327504D01*
X92228115Y-52487246D01*
X92367753Y-52626884D01*
X92517234Y-52735486D01*
X92527499Y-52742944D01*
X92703439Y-52832591D01*
X92828637Y-52873270D01*
X92891236Y-52893610D01*
X93086264Y-52924500D01*
X93086269Y-52924500D01*
X93283736Y-52924500D01*
X93478763Y-52893610D01*
X93666561Y-52832591D01*
X93842501Y-52742944D01*
X93947955Y-52666328D01*
X94002246Y-52626884D01*
X94002248Y-52626881D01*
X94002252Y-52626879D01*
X94141879Y-52487252D01*
X94141881Y-52487248D01*
X94141884Y-52487246D01*
X94257941Y-52327505D01*
X94257942Y-52327504D01*
X94257944Y-52327501D01*
X94344517Y-52157593D01*
X94392490Y-52106800D01*
X94460311Y-52090005D01*
X94526446Y-52112542D01*
X94565482Y-52157593D01*
X94634904Y-52293838D01*
X94652058Y-52327505D01*
X94768115Y-52487246D01*
X94907753Y-52626884D01*
X95057234Y-52735486D01*
X95067499Y-52742944D01*
X95243439Y-52832591D01*
X95368637Y-52873270D01*
X95431236Y-52893610D01*
X95626264Y-52924500D01*
X95626269Y-52924500D01*
X95823736Y-52924500D01*
X96018763Y-52893610D01*
X96206561Y-52832591D01*
X96382501Y-52742944D01*
X96487955Y-52666328D01*
X96542246Y-52626884D01*
X96542248Y-52626881D01*
X96542252Y-52626879D01*
X96681879Y-52487252D01*
X96681881Y-52487248D01*
X96681884Y-52487246D01*
X96797941Y-52327505D01*
X96797942Y-52327504D01*
X96797944Y-52327501D01*
X96884517Y-52157593D01*
X96932490Y-52106800D01*
X97000311Y-52090005D01*
X97066446Y-52112542D01*
X97105482Y-52157593D01*
X97174904Y-52293838D01*
X97192058Y-52327505D01*
X97308115Y-52487246D01*
X97447753Y-52626884D01*
X97597234Y-52735486D01*
X97607499Y-52742944D01*
X97783439Y-52832591D01*
X97908637Y-52873270D01*
X97971236Y-52893610D01*
X98166264Y-52924500D01*
X98166269Y-52924500D01*
X98363736Y-52924500D01*
X98558763Y-52893610D01*
X98746561Y-52832591D01*
X98922501Y-52742944D01*
X99027955Y-52666328D01*
X99082246Y-52626884D01*
X99082248Y-52626881D01*
X99082252Y-52626879D01*
X99221879Y-52487252D01*
X99221881Y-52487248D01*
X99221884Y-52487246D01*
X99337941Y-52327505D01*
X99337942Y-52327504D01*
X99337944Y-52327501D01*
X99424517Y-52157593D01*
X99472490Y-52106800D01*
X99540311Y-52090005D01*
X99606446Y-52112542D01*
X99645482Y-52157593D01*
X99714904Y-52293838D01*
X99732058Y-52327505D01*
X99848115Y-52487246D01*
X99987753Y-52626884D01*
X100137234Y-52735486D01*
X100147499Y-52742944D01*
X100323439Y-52832591D01*
X100448637Y-52873270D01*
X100511236Y-52893610D01*
X100706264Y-52924500D01*
X100706269Y-52924500D01*
X100903736Y-52924500D01*
X101098763Y-52893610D01*
X101286561Y-52832591D01*
X101462501Y-52742944D01*
X101567955Y-52666328D01*
X101622246Y-52626884D01*
X101622248Y-52626881D01*
X101622252Y-52626879D01*
X101761879Y-52487252D01*
X101761881Y-52487248D01*
X101761884Y-52487246D01*
X101877941Y-52327505D01*
X101877942Y-52327504D01*
X101877944Y-52327501D01*
X101964517Y-52157593D01*
X102012490Y-52106800D01*
X102080311Y-52090005D01*
X102146446Y-52112542D01*
X102185482Y-52157593D01*
X102254904Y-52293838D01*
X102272058Y-52327505D01*
X102388115Y-52487246D01*
X102527753Y-52626884D01*
X102677234Y-52735486D01*
X102687499Y-52742944D01*
X102863439Y-52832591D01*
X102988637Y-52873270D01*
X103051236Y-52893610D01*
X103246264Y-52924500D01*
X103246269Y-52924500D01*
X103443736Y-52924500D01*
X103638763Y-52893610D01*
X103826561Y-52832591D01*
X104002501Y-52742944D01*
X104107955Y-52666328D01*
X104162246Y-52626884D01*
X104162248Y-52626881D01*
X104162252Y-52626879D01*
X104301879Y-52487252D01*
X104301881Y-52487248D01*
X104301884Y-52487246D01*
X104417941Y-52327505D01*
X104417942Y-52327504D01*
X104417944Y-52327501D01*
X104504517Y-52157593D01*
X104552490Y-52106800D01*
X104620311Y-52090005D01*
X104686446Y-52112542D01*
X104725482Y-52157593D01*
X104794904Y-52293838D01*
X104812058Y-52327505D01*
X104928115Y-52487246D01*
X105067753Y-52626884D01*
X105217234Y-52735486D01*
X105227499Y-52742944D01*
X105403439Y-52832591D01*
X105528637Y-52873270D01*
X105591236Y-52893610D01*
X105786264Y-52924500D01*
X105786269Y-52924500D01*
X105983736Y-52924500D01*
X106178763Y-52893610D01*
X106366561Y-52832591D01*
X106542501Y-52742944D01*
X106647955Y-52666328D01*
X106702246Y-52626884D01*
X106702248Y-52626881D01*
X106702252Y-52626879D01*
X106841879Y-52487252D01*
X106841881Y-52487248D01*
X106841884Y-52487246D01*
X106957941Y-52327505D01*
X106957942Y-52327504D01*
X106957944Y-52327501D01*
X107044517Y-52157593D01*
X107092490Y-52106800D01*
X107160311Y-52090005D01*
X107226446Y-52112542D01*
X107265482Y-52157593D01*
X107334904Y-52293838D01*
X107352058Y-52327505D01*
X107468115Y-52487246D01*
X107607753Y-52626884D01*
X107757234Y-52735486D01*
X107767499Y-52742944D01*
X107943439Y-52832591D01*
X108068637Y-52873270D01*
X108131236Y-52893610D01*
X108326264Y-52924500D01*
X108326269Y-52924500D01*
X108523736Y-52924500D01*
X108718763Y-52893610D01*
X108906561Y-52832591D01*
X109082501Y-52742944D01*
X109187955Y-52666328D01*
X109242246Y-52626884D01*
X109242248Y-52626881D01*
X109242252Y-52626879D01*
X109381879Y-52487252D01*
X109381881Y-52487248D01*
X109381884Y-52487246D01*
X109486181Y-52343691D01*
X109497944Y-52327501D01*
X109587591Y-52151561D01*
X109648610Y-51963763D01*
X109657694Y-51906410D01*
X109679500Y-51768736D01*
X109679500Y-51571263D01*
X109648610Y-51376236D01*
X109600268Y-51227456D01*
X109587591Y-51188439D01*
X109497944Y-51012499D01*
X109453634Y-50951511D01*
X109381884Y-50852753D01*
X109242246Y-50713115D01*
X109082505Y-50597058D01*
X109076119Y-50593804D01*
X108912593Y-50510482D01*
X108861800Y-50462510D01*
X108845005Y-50394689D01*
X108867542Y-50328554D01*
X108912593Y-50289517D01*
X109082501Y-50202944D01*
X109132141Y-50166879D01*
X109242246Y-50086884D01*
X109242248Y-50086881D01*
X109242252Y-50086879D01*
X109381879Y-49947252D01*
X109381881Y-49947248D01*
X109381884Y-49947246D01*
X109497941Y-49787505D01*
X109497942Y-49787504D01*
X109497944Y-49787501D01*
X109584517Y-49617593D01*
X109632490Y-49566800D01*
X109700311Y-49550005D01*
X109766446Y-49572542D01*
X109805482Y-49617593D01*
X109886208Y-49776024D01*
X109892058Y-49787505D01*
X110008115Y-49947246D01*
X110147753Y-50086884D01*
X110291308Y-50191181D01*
X110307499Y-50202944D01*
X110483439Y-50292591D01*
X110594122Y-50328554D01*
X110671236Y-50353610D01*
X110866264Y-50384500D01*
X110866269Y-50384500D01*
X111063736Y-50384500D01*
X111258763Y-50353610D01*
X111446561Y-50292591D01*
X111622501Y-50202944D01*
X111712192Y-50137779D01*
X111782246Y-50086884D01*
X111782248Y-50086881D01*
X111782252Y-50086879D01*
X111921879Y-49947252D01*
X111921881Y-49947248D01*
X111921884Y-49947246D01*
X112037941Y-49787505D01*
X112037942Y-49787504D01*
X112037944Y-49787501D01*
X112124517Y-49617593D01*
X112172490Y-49566800D01*
X112240311Y-49550005D01*
X112306446Y-49572542D01*
X112345482Y-49617593D01*
X112426208Y-49776024D01*
X112432058Y-49787505D01*
X112548115Y-49947246D01*
X112687753Y-50086884D01*
X112831308Y-50191181D01*
X112847499Y-50202944D01*
X113017404Y-50289516D01*
X113068199Y-50337490D01*
X113084994Y-50405311D01*
X113062456Y-50471446D01*
X113017404Y-50510483D01*
X112983167Y-50527929D01*
X112847495Y-50597058D01*
X112687753Y-50713115D01*
X112548115Y-50852753D01*
X112432058Y-51012495D01*
X112342408Y-51188441D01*
X112281389Y-51376236D01*
X112250500Y-51571263D01*
X112250500Y-51768736D01*
X112281389Y-51963763D01*
X112301449Y-52025500D01*
X112342409Y-52151561D01*
X112432056Y-52327501D01*
X112432058Y-52327504D01*
X112548115Y-52487246D01*
X112687753Y-52626884D01*
X112837234Y-52735486D01*
X112847499Y-52742944D01*
X113023439Y-52832591D01*
X113148637Y-52873270D01*
X113211236Y-52893610D01*
X113406264Y-52924500D01*
X113406269Y-52924500D01*
X113603736Y-52924500D01*
X113798763Y-52893610D01*
X113986561Y-52832591D01*
X114162501Y-52742944D01*
X114267955Y-52666328D01*
X114322246Y-52626884D01*
X114322248Y-52626881D01*
X114322252Y-52626879D01*
X114461879Y-52487252D01*
X114461881Y-52487248D01*
X114461884Y-52487246D01*
X114577941Y-52327505D01*
X114577942Y-52327504D01*
X114577944Y-52327501D01*
X114664517Y-52157593D01*
X114712490Y-52106800D01*
X114780311Y-52090005D01*
X114846446Y-52112542D01*
X114885482Y-52157593D01*
X114954904Y-52293838D01*
X114972058Y-52327505D01*
X115088115Y-52487246D01*
X115227753Y-52626884D01*
X115377234Y-52735486D01*
X115387499Y-52742944D01*
X115563439Y-52832591D01*
X115688637Y-52873270D01*
X115751236Y-52893610D01*
X115946264Y-52924500D01*
X115946269Y-52924500D01*
X116143736Y-52924500D01*
X116338763Y-52893610D01*
X116526561Y-52832591D01*
X116702501Y-52742944D01*
X116807955Y-52666328D01*
X116862246Y-52626884D01*
X116862248Y-52626881D01*
X116862252Y-52626879D01*
X117001879Y-52487252D01*
X117001881Y-52487248D01*
X117001884Y-52487246D01*
X117117941Y-52327505D01*
X117117942Y-52327504D01*
X117117944Y-52327501D01*
X117204517Y-52157593D01*
X117252490Y-52106800D01*
X117320311Y-52090005D01*
X117386446Y-52112542D01*
X117425482Y-52157593D01*
X117494904Y-52293838D01*
X117512058Y-52327505D01*
X117628115Y-52487246D01*
X117767753Y-52626884D01*
X117917234Y-52735486D01*
X117927499Y-52742944D01*
X118103439Y-52832591D01*
X118228637Y-52873270D01*
X118291236Y-52893610D01*
X118486264Y-52924500D01*
X118486269Y-52924500D01*
X118683736Y-52924500D01*
X118878763Y-52893610D01*
X119066561Y-52832591D01*
X119242501Y-52742944D01*
X119347955Y-52666328D01*
X119402246Y-52626884D01*
X119402248Y-52626881D01*
X119402252Y-52626879D01*
X119541879Y-52487252D01*
X119541881Y-52487248D01*
X119541884Y-52487246D01*
X119657941Y-52327505D01*
X119657942Y-52327504D01*
X119657944Y-52327501D01*
X119744517Y-52157593D01*
X119792490Y-52106800D01*
X119860311Y-52090005D01*
X119926446Y-52112542D01*
X119965482Y-52157593D01*
X120034904Y-52293838D01*
X120052058Y-52327505D01*
X120168115Y-52487246D01*
X120307753Y-52626884D01*
X120457234Y-52735486D01*
X120467499Y-52742944D01*
X120643439Y-52832591D01*
X120768637Y-52873270D01*
X120831236Y-52893610D01*
X121026264Y-52924500D01*
X121026269Y-52924500D01*
X121223736Y-52924500D01*
X121418763Y-52893610D01*
X121606561Y-52832591D01*
X121782501Y-52742944D01*
X121887955Y-52666328D01*
X121942246Y-52626884D01*
X121942248Y-52626881D01*
X121942252Y-52626879D01*
X122081879Y-52487252D01*
X122081881Y-52487248D01*
X122081884Y-52487246D01*
X122197941Y-52327505D01*
X122197942Y-52327504D01*
X122197944Y-52327501D01*
X122284517Y-52157593D01*
X122332490Y-52106800D01*
X122400311Y-52090005D01*
X122466446Y-52112542D01*
X122505482Y-52157593D01*
X122574904Y-52293838D01*
X122592058Y-52327505D01*
X122708115Y-52487246D01*
X122847753Y-52626884D01*
X122997234Y-52735486D01*
X123007499Y-52742944D01*
X123183439Y-52832591D01*
X123308637Y-52873270D01*
X123371236Y-52893610D01*
X123566264Y-52924500D01*
X123566269Y-52924500D01*
X123763736Y-52924500D01*
X123958763Y-52893610D01*
X124146561Y-52832591D01*
X124322501Y-52742944D01*
X124427955Y-52666328D01*
X124482246Y-52626884D01*
X124482248Y-52626881D01*
X124482252Y-52626879D01*
X124621879Y-52487252D01*
X124621881Y-52487248D01*
X124621884Y-52487246D01*
X124737941Y-52327505D01*
X124737942Y-52327504D01*
X124737944Y-52327501D01*
X124824517Y-52157593D01*
X124872490Y-52106800D01*
X124940311Y-52090005D01*
X125006446Y-52112542D01*
X125045482Y-52157593D01*
X125114904Y-52293838D01*
X125132058Y-52327505D01*
X125248115Y-52487246D01*
X125387753Y-52626884D01*
X125537234Y-52735486D01*
X125547499Y-52742944D01*
X125723439Y-52832591D01*
X125848637Y-52873270D01*
X125911236Y-52893610D01*
X126106264Y-52924500D01*
X126106269Y-52924500D01*
X126303736Y-52924500D01*
X126498763Y-52893610D01*
X126686561Y-52832591D01*
X126862501Y-52742944D01*
X126967955Y-52666328D01*
X127022246Y-52626884D01*
X127022248Y-52626881D01*
X127022252Y-52626879D01*
X127161879Y-52487252D01*
X127161881Y-52487248D01*
X127161884Y-52487246D01*
X127266181Y-52343691D01*
X127277944Y-52327501D01*
X127367591Y-52151561D01*
X127428610Y-51963763D01*
X127437694Y-51906410D01*
X127459500Y-51768736D01*
X127459500Y-51571263D01*
X127428610Y-51376236D01*
X127380268Y-51227456D01*
X127367591Y-51188439D01*
X127277944Y-51012499D01*
X127233634Y-50951511D01*
X127161884Y-50852753D01*
X127022246Y-50713115D01*
X126862505Y-50597058D01*
X126856119Y-50593804D01*
X126692593Y-50510482D01*
X126641800Y-50462510D01*
X126625005Y-50394689D01*
X126647542Y-50328554D01*
X126692593Y-50289517D01*
X126862501Y-50202944D01*
X126912141Y-50166879D01*
X127022246Y-50086884D01*
X127022248Y-50086881D01*
X127022252Y-50086879D01*
X127161879Y-49947252D01*
X127161881Y-49947248D01*
X127161884Y-49947246D01*
X127277941Y-49787505D01*
X127277942Y-49787504D01*
X127277944Y-49787501D01*
X127364517Y-49617593D01*
X127412490Y-49566800D01*
X127480311Y-49550005D01*
X127546446Y-49572542D01*
X127585482Y-49617593D01*
X127666208Y-49776024D01*
X127672058Y-49787505D01*
X127788115Y-49947246D01*
X127927753Y-50086884D01*
X128071308Y-50191181D01*
X128087499Y-50202944D01*
X128263439Y-50292591D01*
X128374122Y-50328554D01*
X128451236Y-50353610D01*
X128646264Y-50384500D01*
X128646269Y-50384500D01*
X128843736Y-50384500D01*
X129038763Y-50353610D01*
X129226561Y-50292591D01*
X129266835Y-50272070D01*
X131989500Y-50272070D01*
X131989500Y-50527929D01*
X132029526Y-50780640D01*
X132108588Y-51023972D01*
X132108589Y-51023975D01*
X132187533Y-51178910D01*
X132215195Y-51233199D01*
X132224750Y-51251950D01*
X132375132Y-51458935D01*
X132375136Y-51458940D01*
X132556059Y-51639863D01*
X132556064Y-51639867D01*
X132733432Y-51768731D01*
X132763053Y-51790252D01*
X132912080Y-51866185D01*
X132991024Y-51906410D01*
X132991027Y-51906411D01*
X133112693Y-51945942D01*
X133234361Y-51985474D01*
X133487070Y-52025500D01*
X133487071Y-52025500D01*
X133742929Y-52025500D01*
X133742930Y-52025500D01*
X133995639Y-51985474D01*
X134238975Y-51906410D01*
X134466947Y-51790252D01*
X134673942Y-51639862D01*
X134854862Y-51458942D01*
X135005252Y-51251947D01*
X135121410Y-51023975D01*
X135200474Y-50780639D01*
X135240500Y-50527930D01*
X135240500Y-50272070D01*
X135200474Y-50019361D01*
X135121410Y-49776025D01*
X135121410Y-49776024D01*
X135037611Y-49611561D01*
X135005252Y-49548053D01*
X134986038Y-49521607D01*
X134854867Y-49341064D01*
X134854863Y-49341059D01*
X134673940Y-49160136D01*
X134673935Y-49160132D01*
X134466950Y-49009750D01*
X134466949Y-49009749D01*
X134466947Y-49009748D01*
X134393910Y-48972533D01*
X134238975Y-48893589D01*
X134238972Y-48893588D01*
X133995640Y-48814526D01*
X133869284Y-48794513D01*
X133742930Y-48774500D01*
X133487070Y-48774500D01*
X133402833Y-48787842D01*
X133234359Y-48814526D01*
X132991027Y-48893588D01*
X132991024Y-48893589D01*
X132763049Y-49009750D01*
X132556064Y-49160132D01*
X132556059Y-49160136D01*
X132375136Y-49341059D01*
X132375132Y-49341064D01*
X132224750Y-49548049D01*
X132108589Y-49776024D01*
X132108588Y-49776027D01*
X132029526Y-50019359D01*
X131989500Y-50272070D01*
X129266835Y-50272070D01*
X129402501Y-50202944D01*
X129562252Y-50086879D01*
X129701879Y-49947252D01*
X129701881Y-49947248D01*
X129701884Y-49947246D01*
X129752779Y-49877192D01*
X129817944Y-49787501D01*
X129907591Y-49611561D01*
X129968610Y-49423763D01*
X129999500Y-49228736D01*
X129999500Y-49031263D01*
X129968610Y-48836236D01*
X129920268Y-48687456D01*
X129907591Y-48648439D01*
X129817944Y-48472499D01*
X129743138Y-48369536D01*
X129701884Y-48312753D01*
X129562246Y-48173115D01*
X129402504Y-48057058D01*
X129402503Y-48057057D01*
X129402501Y-48057056D01*
X129226561Y-47967409D01*
X129226558Y-47967408D01*
X129038763Y-47906389D01*
X128843736Y-47875500D01*
X128843731Y-47875500D01*
X128646269Y-47875500D01*
X128646264Y-47875500D01*
X128451236Y-47906389D01*
X128263441Y-47967408D01*
X128087495Y-48057058D01*
X127927753Y-48173115D01*
X127788115Y-48312753D01*
X127672058Y-48472495D01*
X127672056Y-48472499D01*
X127624424Y-48565982D01*
X127585485Y-48642403D01*
X127537510Y-48693199D01*
X127469689Y-48709994D01*
X127403554Y-48687456D01*
X127364515Y-48642403D01*
X127329895Y-48574458D01*
X127277944Y-48472499D01*
X127203138Y-48369536D01*
X127161884Y-48312753D01*
X127022246Y-48173115D01*
X126862504Y-48057058D01*
X126862503Y-48057057D01*
X126862501Y-48057056D01*
X126686561Y-47967409D01*
X126686558Y-47967408D01*
X126498763Y-47906389D01*
X126303736Y-47875500D01*
X126303731Y-47875500D01*
X126106269Y-47875500D01*
X126106264Y-47875500D01*
X125911236Y-47906389D01*
X125723441Y-47967408D01*
X125547495Y-48057058D01*
X125387753Y-48173115D01*
X125248115Y-48312753D01*
X125132058Y-48472495D01*
X125132056Y-48472499D01*
X125084424Y-48565982D01*
X125045485Y-48642403D01*
X124997510Y-48693199D01*
X124929689Y-48709994D01*
X124863554Y-48687456D01*
X124824515Y-48642403D01*
X124789895Y-48574458D01*
X124737944Y-48472499D01*
X124663138Y-48369536D01*
X124621884Y-48312753D01*
X124482246Y-48173115D01*
X124322504Y-48057058D01*
X124322503Y-48057057D01*
X124322501Y-48057056D01*
X124146561Y-47967409D01*
X124146558Y-47967408D01*
X123958763Y-47906389D01*
X123763736Y-47875500D01*
X123763731Y-47875500D01*
X123566269Y-47875500D01*
X123566264Y-47875500D01*
X123371236Y-47906389D01*
X123183441Y-47967408D01*
X123007495Y-48057058D01*
X122847753Y-48173115D01*
X122708115Y-48312753D01*
X122592058Y-48472495D01*
X122502408Y-48648441D01*
X122441389Y-48836236D01*
X122410500Y-49031263D01*
X122410500Y-49228736D01*
X122441389Y-49423763D01*
X122481774Y-49548053D01*
X122502409Y-49611561D01*
X122586209Y-49776025D01*
X122592058Y-49787504D01*
X122708115Y-49947246D01*
X122847753Y-50086884D01*
X122991308Y-50191181D01*
X123007499Y-50202944D01*
X123177404Y-50289516D01*
X123228199Y-50337490D01*
X123244994Y-50405311D01*
X123222456Y-50471446D01*
X123177404Y-50510483D01*
X123143167Y-50527929D01*
X123007495Y-50597058D01*
X122847753Y-50713115D01*
X122708115Y-50852753D01*
X122592058Y-51012495D01*
X122505485Y-51182403D01*
X122457510Y-51233199D01*
X122389689Y-51249994D01*
X122323554Y-51227456D01*
X122284515Y-51182403D01*
X122197944Y-51012499D01*
X122153634Y-50951511D01*
X122081884Y-50852753D01*
X121942246Y-50713115D01*
X121782504Y-50597058D01*
X121782503Y-50597057D01*
X121782501Y-50597056D01*
X121606561Y-50507409D01*
X121606558Y-50507408D01*
X121418763Y-50446389D01*
X121223736Y-50415500D01*
X121223731Y-50415500D01*
X121026269Y-50415500D01*
X121026264Y-50415500D01*
X120831236Y-50446389D01*
X120643441Y-50507408D01*
X120467495Y-50597058D01*
X120307753Y-50713115D01*
X120168115Y-50852753D01*
X120052058Y-51012495D01*
X119965485Y-51182403D01*
X119917510Y-51233199D01*
X119849689Y-51249994D01*
X119783554Y-51227456D01*
X119744515Y-51182403D01*
X119657944Y-51012499D01*
X119613634Y-50951511D01*
X119541884Y-50852753D01*
X119402246Y-50713115D01*
X119242505Y-50597058D01*
X119236119Y-50593804D01*
X119072593Y-50510482D01*
X119021800Y-50462510D01*
X119005005Y-50394689D01*
X119027542Y-50328554D01*
X119072593Y-50289517D01*
X119242501Y-50202944D01*
X119292141Y-50166879D01*
X119402246Y-50086884D01*
X119402248Y-50086881D01*
X119402252Y-50086879D01*
X119541879Y-49947252D01*
X119541881Y-49947248D01*
X119541884Y-49947246D01*
X119592779Y-49877192D01*
X119657944Y-49787501D01*
X119747591Y-49611561D01*
X119808610Y-49423763D01*
X119839500Y-49228736D01*
X119839500Y-49031263D01*
X119808610Y-48836236D01*
X119760268Y-48687456D01*
X119747591Y-48648439D01*
X119657944Y-48472499D01*
X119583138Y-48369536D01*
X119541884Y-48312753D01*
X119402246Y-48173115D01*
X119242504Y-48057058D01*
X119242503Y-48057057D01*
X119242501Y-48057056D01*
X119066561Y-47967409D01*
X119066558Y-47967408D01*
X118878763Y-47906389D01*
X118683736Y-47875500D01*
X118683731Y-47875500D01*
X118486269Y-47875500D01*
X118486264Y-47875500D01*
X118291236Y-47906389D01*
X118103441Y-47967408D01*
X117927495Y-48057058D01*
X117767753Y-48173115D01*
X117628115Y-48312753D01*
X117512058Y-48472495D01*
X117422408Y-48648441D01*
X117361389Y-48836236D01*
X117330500Y-49031263D01*
X117330500Y-49228736D01*
X117361389Y-49423763D01*
X117401774Y-49548053D01*
X117422409Y-49611561D01*
X117506209Y-49776025D01*
X117512058Y-49787504D01*
X117628115Y-49947246D01*
X117767753Y-50086884D01*
X117911308Y-50191181D01*
X117927499Y-50202944D01*
X118097404Y-50289516D01*
X118148199Y-50337490D01*
X118164994Y-50405311D01*
X118142456Y-50471446D01*
X118097404Y-50510483D01*
X118063167Y-50527929D01*
X117927495Y-50597058D01*
X117767753Y-50713115D01*
X117628115Y-50852753D01*
X117512058Y-51012495D01*
X117425485Y-51182403D01*
X117377510Y-51233199D01*
X117309689Y-51249994D01*
X117243554Y-51227456D01*
X117204515Y-51182403D01*
X117117944Y-51012499D01*
X117073634Y-50951511D01*
X117001884Y-50852753D01*
X116862246Y-50713115D01*
X116702504Y-50597058D01*
X116702503Y-50597057D01*
X116702501Y-50597056D01*
X116526561Y-50507409D01*
X116526558Y-50507408D01*
X116338763Y-50446389D01*
X116143736Y-50415500D01*
X116143731Y-50415500D01*
X115946269Y-50415500D01*
X115946264Y-50415500D01*
X115751236Y-50446389D01*
X115563441Y-50507408D01*
X115387495Y-50597058D01*
X115227753Y-50713115D01*
X115088115Y-50852753D01*
X114972058Y-51012495D01*
X114885485Y-51182403D01*
X114837510Y-51233199D01*
X114769689Y-51249994D01*
X114703554Y-51227456D01*
X114664515Y-51182403D01*
X114577944Y-51012499D01*
X114533634Y-50951511D01*
X114461884Y-50852753D01*
X114322246Y-50713115D01*
X114162505Y-50597058D01*
X114156119Y-50593804D01*
X113992593Y-50510482D01*
X113941800Y-50462510D01*
X113925005Y-50394689D01*
X113947542Y-50328554D01*
X113992593Y-50289517D01*
X114162501Y-50202944D01*
X114212141Y-50166879D01*
X114322246Y-50086884D01*
X114322248Y-50086881D01*
X114322252Y-50086879D01*
X114461879Y-49947252D01*
X114461881Y-49947248D01*
X114461884Y-49947246D01*
X114512779Y-49877192D01*
X114577944Y-49787501D01*
X114667591Y-49611561D01*
X114728610Y-49423763D01*
X114759500Y-49228736D01*
X114759500Y-49031263D01*
X114728610Y-48836236D01*
X114680268Y-48687456D01*
X114667591Y-48648439D01*
X114577944Y-48472499D01*
X114503138Y-48369536D01*
X114461884Y-48312753D01*
X114322246Y-48173115D01*
X114162504Y-48057058D01*
X114162503Y-48057057D01*
X114162501Y-48057056D01*
X113986561Y-47967409D01*
X113986558Y-47967408D01*
X113798763Y-47906389D01*
X113603736Y-47875500D01*
X113603731Y-47875500D01*
X113406269Y-47875500D01*
X113406264Y-47875500D01*
X113211236Y-47906389D01*
X113023441Y-47967408D01*
X112847495Y-48057058D01*
X112687753Y-48173115D01*
X112548115Y-48312753D01*
X112432058Y-48472495D01*
X112432056Y-48472499D01*
X112384424Y-48565982D01*
X112345485Y-48642403D01*
X112297510Y-48693199D01*
X112229689Y-48709994D01*
X112163554Y-48687456D01*
X112124515Y-48642403D01*
X112089895Y-48574458D01*
X112037944Y-48472499D01*
X111963138Y-48369536D01*
X111921884Y-48312753D01*
X111782246Y-48173115D01*
X111622504Y-48057058D01*
X111622503Y-48057057D01*
X111622501Y-48057056D01*
X111446561Y-47967409D01*
X111446558Y-47967408D01*
X111258763Y-47906389D01*
X111063736Y-47875500D01*
X111063731Y-47875500D01*
X110866269Y-47875500D01*
X110866264Y-47875500D01*
X110671236Y-47906389D01*
X110483441Y-47967408D01*
X110307495Y-48057058D01*
X110147753Y-48173115D01*
X110008115Y-48312753D01*
X109892058Y-48472495D01*
X109892056Y-48472499D01*
X109844424Y-48565982D01*
X109805485Y-48642403D01*
X109757510Y-48693199D01*
X109689689Y-48709994D01*
X109623554Y-48687456D01*
X109584515Y-48642403D01*
X109549895Y-48574458D01*
X109497944Y-48472499D01*
X109423138Y-48369536D01*
X109381884Y-48312753D01*
X109242246Y-48173115D01*
X109082504Y-48057058D01*
X109082503Y-48057057D01*
X109082501Y-48057056D01*
X108906561Y-47967409D01*
X108906558Y-47967408D01*
X108718763Y-47906389D01*
X108523736Y-47875500D01*
X108523731Y-47875500D01*
X108326269Y-47875500D01*
X108326264Y-47875500D01*
X108131236Y-47906389D01*
X107943441Y-47967408D01*
X107767495Y-48057058D01*
X107607753Y-48173115D01*
X107468115Y-48312753D01*
X107352058Y-48472495D01*
X107352056Y-48472499D01*
X107304424Y-48565982D01*
X107265485Y-48642403D01*
X107217510Y-48693199D01*
X107149689Y-48709994D01*
X107083554Y-48687456D01*
X107044515Y-48642403D01*
X107009895Y-48574458D01*
X106957944Y-48472499D01*
X106883138Y-48369536D01*
X106841884Y-48312753D01*
X106702246Y-48173115D01*
X106542504Y-48057058D01*
X106542503Y-48057057D01*
X106542501Y-48057056D01*
X106366561Y-47967409D01*
X106366558Y-47967408D01*
X106178763Y-47906389D01*
X105983736Y-47875500D01*
X105983731Y-47875500D01*
X105786269Y-47875500D01*
X105786264Y-47875500D01*
X105591236Y-47906389D01*
X105403441Y-47967408D01*
X105227495Y-48057058D01*
X105067753Y-48173115D01*
X104928115Y-48312753D01*
X104812058Y-48472495D01*
X104722408Y-48648441D01*
X104661389Y-48836236D01*
X104630500Y-49031263D01*
X104630500Y-49228736D01*
X104661389Y-49423763D01*
X104701774Y-49548053D01*
X104722409Y-49611561D01*
X104806209Y-49776025D01*
X104812058Y-49787504D01*
X104928115Y-49947246D01*
X105067753Y-50086884D01*
X105211308Y-50191181D01*
X105227499Y-50202944D01*
X105397404Y-50289516D01*
X105448199Y-50337490D01*
X105464994Y-50405311D01*
X105442456Y-50471446D01*
X105397404Y-50510483D01*
X105363167Y-50527929D01*
X105227495Y-50597058D01*
X105067753Y-50713115D01*
X104928115Y-50852753D01*
X104812058Y-51012495D01*
X104725485Y-51182403D01*
X104677510Y-51233199D01*
X104609689Y-51249994D01*
X104543554Y-51227456D01*
X104504515Y-51182403D01*
X104417944Y-51012499D01*
X104373634Y-50951511D01*
X104301884Y-50852753D01*
X104162246Y-50713115D01*
X104002504Y-50597058D01*
X104002503Y-50597057D01*
X104002501Y-50597056D01*
X103826561Y-50507409D01*
X103826558Y-50507408D01*
X103638763Y-50446389D01*
X103443736Y-50415500D01*
X103443731Y-50415500D01*
X103246269Y-50415500D01*
X103246264Y-50415500D01*
X103051236Y-50446389D01*
X102863441Y-50507408D01*
X102687495Y-50597058D01*
X102527753Y-50713115D01*
X102388115Y-50852753D01*
X102272058Y-51012495D01*
X102185485Y-51182403D01*
X102137510Y-51233199D01*
X102069689Y-51249994D01*
X102003554Y-51227456D01*
X101964515Y-51182403D01*
X101877944Y-51012499D01*
X101833634Y-50951511D01*
X101761884Y-50852753D01*
X101622246Y-50713115D01*
X101462505Y-50597058D01*
X101456119Y-50593804D01*
X101292593Y-50510482D01*
X101241800Y-50462510D01*
X101225005Y-50394689D01*
X101247542Y-50328554D01*
X101292593Y-50289517D01*
X101462501Y-50202944D01*
X101512141Y-50166879D01*
X101622246Y-50086884D01*
X101622248Y-50086881D01*
X101622252Y-50086879D01*
X101761879Y-49947252D01*
X101761881Y-49947248D01*
X101761884Y-49947246D01*
X101812779Y-49877192D01*
X101877944Y-49787501D01*
X101967591Y-49611561D01*
X102028610Y-49423763D01*
X102059500Y-49228736D01*
X102059500Y-49031263D01*
X102028610Y-48836236D01*
X101980268Y-48687456D01*
X101967591Y-48648439D01*
X101877944Y-48472499D01*
X101803138Y-48369536D01*
X101761884Y-48312753D01*
X101622246Y-48173115D01*
X101462504Y-48057058D01*
X101462503Y-48057057D01*
X101462501Y-48057056D01*
X101286561Y-47967409D01*
X101286558Y-47967408D01*
X101098763Y-47906389D01*
X100903736Y-47875500D01*
X100903731Y-47875500D01*
X100706269Y-47875500D01*
X100706264Y-47875500D01*
X100511236Y-47906389D01*
X100323441Y-47967408D01*
X100147495Y-48057058D01*
X99987753Y-48173115D01*
X99848115Y-48312753D01*
X99732058Y-48472495D01*
X99732056Y-48472499D01*
X99684424Y-48565982D01*
X99645485Y-48642403D01*
X99597510Y-48693199D01*
X99529689Y-48709994D01*
X99463554Y-48687456D01*
X99424515Y-48642403D01*
X99389895Y-48574458D01*
X99337944Y-48472499D01*
X99263138Y-48369536D01*
X99221884Y-48312753D01*
X99082246Y-48173115D01*
X98922504Y-48057058D01*
X98922503Y-48057057D01*
X98922501Y-48057056D01*
X98746561Y-47967409D01*
X98746558Y-47967408D01*
X98558763Y-47906389D01*
X98363736Y-47875500D01*
X98363731Y-47875500D01*
X98166269Y-47875500D01*
X98166264Y-47875500D01*
X97971236Y-47906389D01*
X97783441Y-47967408D01*
X97607495Y-48057058D01*
X97447753Y-48173115D01*
X97308115Y-48312753D01*
X97192058Y-48472495D01*
X97102408Y-48648441D01*
X97041389Y-48836236D01*
X97010500Y-49031263D01*
X97010500Y-49228736D01*
X97041389Y-49423763D01*
X97081774Y-49548053D01*
X97102409Y-49611561D01*
X97186209Y-49776025D01*
X97192058Y-49787504D01*
X97308115Y-49947246D01*
X97447753Y-50086884D01*
X97591308Y-50191181D01*
X97607499Y-50202944D01*
X97777404Y-50289516D01*
X97828199Y-50337490D01*
X97844994Y-50405311D01*
X97822456Y-50471446D01*
X97777404Y-50510483D01*
X97743167Y-50527929D01*
X97607495Y-50597058D01*
X97447753Y-50713115D01*
X97308115Y-50852753D01*
X97192058Y-51012495D01*
X97105485Y-51182403D01*
X97057510Y-51233199D01*
X96989689Y-51249994D01*
X96923554Y-51227456D01*
X96884515Y-51182403D01*
X96797944Y-51012499D01*
X96753634Y-50951511D01*
X96681884Y-50852753D01*
X96542246Y-50713115D01*
X96382504Y-50597058D01*
X96382503Y-50597057D01*
X96382501Y-50597056D01*
X96206561Y-50507409D01*
X96206558Y-50507408D01*
X96018763Y-50446389D01*
X95823736Y-50415500D01*
X95823731Y-50415500D01*
X95626269Y-50415500D01*
X95626264Y-50415500D01*
X95431236Y-50446389D01*
X95243441Y-50507408D01*
X95067495Y-50597058D01*
X94907753Y-50713115D01*
X94768115Y-50852753D01*
X94652058Y-51012495D01*
X94565485Y-51182403D01*
X94517510Y-51233199D01*
X94449689Y-51249994D01*
X94383554Y-51227456D01*
X94344515Y-51182403D01*
X94257944Y-51012499D01*
X94213634Y-50951511D01*
X94141884Y-50852753D01*
X94002246Y-50713115D01*
X93842505Y-50597058D01*
X93836119Y-50593804D01*
X93672593Y-50510482D01*
X93621800Y-50462510D01*
X93605005Y-50394689D01*
X93627542Y-50328554D01*
X93672593Y-50289517D01*
X93842501Y-50202944D01*
X93892141Y-50166879D01*
X94002246Y-50086884D01*
X94002248Y-50086881D01*
X94002252Y-50086879D01*
X94141879Y-49947252D01*
X94141881Y-49947248D01*
X94141884Y-49947246D01*
X94192779Y-49877192D01*
X94257944Y-49787501D01*
X94347591Y-49611561D01*
X94408610Y-49423763D01*
X94439500Y-49228736D01*
X94439500Y-49031263D01*
X94408610Y-48836236D01*
X94360268Y-48687456D01*
X94347591Y-48648439D01*
X94257944Y-48472499D01*
X94183138Y-48369536D01*
X94141884Y-48312753D01*
X94002246Y-48173115D01*
X93842504Y-48057058D01*
X93842503Y-48057057D01*
X93842501Y-48057056D01*
X93666561Y-47967409D01*
X93666558Y-47967408D01*
X93478763Y-47906389D01*
X93283736Y-47875500D01*
X93283731Y-47875500D01*
X93086269Y-47875500D01*
X93086264Y-47875500D01*
X92891236Y-47906389D01*
X92703441Y-47967408D01*
X92527495Y-48057058D01*
X92367753Y-48173115D01*
X92228115Y-48312753D01*
X92112058Y-48472495D01*
X92112056Y-48472499D01*
X92064424Y-48565982D01*
X92025485Y-48642403D01*
X91977510Y-48693199D01*
X91909689Y-48709994D01*
X91843554Y-48687456D01*
X91804515Y-48642403D01*
X91769895Y-48574458D01*
X91717944Y-48472499D01*
X91643138Y-48369536D01*
X91601884Y-48312753D01*
X91462246Y-48173115D01*
X91302504Y-48057058D01*
X91302503Y-48057057D01*
X91302501Y-48057056D01*
X91126561Y-47967409D01*
X91126558Y-47967408D01*
X90938763Y-47906389D01*
X90743736Y-47875500D01*
X90743731Y-47875500D01*
X90546269Y-47875500D01*
X90546264Y-47875500D01*
X90351236Y-47906389D01*
X90163441Y-47967408D01*
X89987495Y-48057058D01*
X89827753Y-48173115D01*
X89688115Y-48312753D01*
X89572058Y-48472495D01*
X89572056Y-48472499D01*
X89524424Y-48565982D01*
X89485485Y-48642403D01*
X89437510Y-48693199D01*
X89369689Y-48709994D01*
X89303554Y-48687456D01*
X89264515Y-48642403D01*
X89229895Y-48574458D01*
X89177944Y-48472499D01*
X89103138Y-48369536D01*
X89061884Y-48312753D01*
X88922246Y-48173115D01*
X88762504Y-48057058D01*
X88762503Y-48057057D01*
X88762501Y-48057056D01*
X88586561Y-47967409D01*
X88586558Y-47967408D01*
X88398763Y-47906389D01*
X88203736Y-47875500D01*
X88203731Y-47875500D01*
X88006269Y-47875500D01*
X88006264Y-47875500D01*
X87811236Y-47906389D01*
X87623441Y-47967408D01*
X87447495Y-48057058D01*
X87287753Y-48173115D01*
X87148115Y-48312753D01*
X87032058Y-48472495D01*
X86942408Y-48648441D01*
X86881389Y-48836236D01*
X86850500Y-49031263D01*
X86850500Y-49228736D01*
X86881389Y-49423763D01*
X86921774Y-49548053D01*
X86942409Y-49611561D01*
X87026209Y-49776025D01*
X87032058Y-49787504D01*
X87148115Y-49947246D01*
X87287753Y-50086884D01*
X87431308Y-50191181D01*
X87447499Y-50202944D01*
X87617404Y-50289516D01*
X87668199Y-50337490D01*
X87684994Y-50405311D01*
X87662456Y-50471446D01*
X87617404Y-50510483D01*
X87583167Y-50527929D01*
X87447495Y-50597058D01*
X87287753Y-50713115D01*
X87148115Y-50852753D01*
X87032058Y-51012495D01*
X86945485Y-51182403D01*
X86897510Y-51233199D01*
X86829689Y-51249994D01*
X86763554Y-51227456D01*
X86724515Y-51182403D01*
X86637944Y-51012499D01*
X86593634Y-50951511D01*
X86521884Y-50852753D01*
X86382246Y-50713115D01*
X86222504Y-50597058D01*
X86222503Y-50597057D01*
X86222501Y-50597056D01*
X86046561Y-50507409D01*
X86046558Y-50507408D01*
X85858763Y-50446389D01*
X85663736Y-50415500D01*
X85663731Y-50415500D01*
X85466269Y-50415500D01*
X85466264Y-50415500D01*
X85271236Y-50446389D01*
X85083441Y-50507408D01*
X84907495Y-50597058D01*
X84747753Y-50713115D01*
X84608115Y-50852753D01*
X84492058Y-51012495D01*
X84405485Y-51182403D01*
X84357510Y-51233199D01*
X84289689Y-51249994D01*
X84223554Y-51227456D01*
X84184515Y-51182403D01*
X84097944Y-51012499D01*
X84053634Y-50951511D01*
X83981884Y-50852753D01*
X83842246Y-50713115D01*
X83682505Y-50597058D01*
X83676119Y-50593804D01*
X83512593Y-50510482D01*
X83461800Y-50462510D01*
X83445005Y-50394689D01*
X83467542Y-50328554D01*
X83512593Y-50289517D01*
X83682501Y-50202944D01*
X83732141Y-50166879D01*
X83842246Y-50086884D01*
X83842248Y-50086881D01*
X83842252Y-50086879D01*
X83981879Y-49947252D01*
X83981881Y-49947248D01*
X83981884Y-49947246D01*
X84032779Y-49877192D01*
X84097944Y-49787501D01*
X84187591Y-49611561D01*
X84248610Y-49423763D01*
X84279500Y-49228736D01*
X84279500Y-49031263D01*
X84248610Y-48836236D01*
X84200268Y-48687456D01*
X84187591Y-48648439D01*
X84097944Y-48472499D01*
X84023138Y-48369536D01*
X83981884Y-48312753D01*
X83842246Y-48173115D01*
X83682504Y-48057058D01*
X83682503Y-48057057D01*
X83682501Y-48057056D01*
X83506561Y-47967409D01*
X83506558Y-47967408D01*
X83318763Y-47906389D01*
X83123736Y-47875500D01*
X83123731Y-47875500D01*
X82926269Y-47875500D01*
X82926264Y-47875500D01*
X82731236Y-47906389D01*
X82543441Y-47967408D01*
X82367495Y-48057058D01*
X82207753Y-48173115D01*
X82068115Y-48312753D01*
X81952058Y-48472495D01*
X81952056Y-48472499D01*
X81904424Y-48565982D01*
X81865485Y-48642403D01*
X81817510Y-48693199D01*
X81749689Y-48709994D01*
X81683554Y-48687456D01*
X81644515Y-48642403D01*
X81609895Y-48574458D01*
X81557944Y-48472499D01*
X81483138Y-48369536D01*
X81441884Y-48312753D01*
X81302246Y-48173115D01*
X81142504Y-48057058D01*
X81142503Y-48057057D01*
X81142501Y-48057056D01*
X80966561Y-47967409D01*
X80966558Y-47967408D01*
X80778763Y-47906389D01*
X80583736Y-47875500D01*
X80583731Y-47875500D01*
X80386269Y-47875500D01*
X80386264Y-47875500D01*
X80191236Y-47906389D01*
X80003441Y-47967408D01*
X79827495Y-48057058D01*
X79667753Y-48173115D01*
X79528115Y-48312753D01*
X79412058Y-48472495D01*
X79322408Y-48648441D01*
X79261389Y-48836236D01*
X79230500Y-49031263D01*
X76496561Y-49031263D01*
X76466950Y-49009750D01*
X76466949Y-49009749D01*
X76466947Y-49009748D01*
X76393910Y-48972533D01*
X76238975Y-48893589D01*
X76238972Y-48893588D01*
X75995640Y-48814526D01*
X75869284Y-48794513D01*
X75742930Y-48774500D01*
X75487070Y-48774500D01*
X75402833Y-48787842D01*
X75234359Y-48814526D01*
X74991027Y-48893588D01*
X74991024Y-48893589D01*
X74763049Y-49009750D01*
X74556064Y-49160132D01*
X74556059Y-49160136D01*
X74375136Y-49341059D01*
X74375132Y-49341064D01*
X74224750Y-49548049D01*
X74108589Y-49776024D01*
X74108588Y-49776027D01*
X74029526Y-50019359D01*
X73989500Y-50272070D01*
X72759837Y-50272070D01*
X72760475Y-48565982D01*
X72760500Y-48565892D01*
X72760500Y-48505360D01*
X72760502Y-48505350D01*
X72760972Y-48494605D01*
X72774587Y-48338983D01*
X72778338Y-48317704D01*
X72817367Y-48172044D01*
X72824759Y-48151738D01*
X72888482Y-48015084D01*
X72899289Y-47996366D01*
X72985779Y-47872845D01*
X72999667Y-47856293D01*
X73106293Y-47749667D01*
X73122845Y-47735779D01*
X73246366Y-47649289D01*
X73265081Y-47638483D01*
X73401740Y-47574758D01*
X73422044Y-47567367D01*
X73567704Y-47528338D01*
X73588978Y-47524587D01*
X73721493Y-47512993D01*
X73744602Y-47510972D01*
X73755386Y-47510500D01*
X73815892Y-47510500D01*
X73815930Y-47510489D01*
X135494586Y-47500500D01*
X135505387Y-47500971D01*
G37*
%TD.AperFunction*%
%TA.AperFunction,Conductor*%
G36*
X111530758Y-56122185D02*
G01*
X111551400Y-56138819D01*
X113186181Y-57773600D01*
X113219666Y-57834923D01*
X113222500Y-57861281D01*
X113222500Y-58235718D01*
X113218128Y-58250604D01*
X113218718Y-58266111D01*
X113208484Y-58283447D01*
X113202815Y-58302757D01*
X113191090Y-58312916D01*
X113183202Y-58326281D01*
X113165220Y-58335332D01*
X113150011Y-58348512D01*
X113134653Y-58350720D01*
X113120794Y-58357697D01*
X113100777Y-58355591D01*
X113080853Y-58358456D01*
X113065762Y-58351907D01*
X113051308Y-58350387D01*
X113030879Y-58336770D01*
X113020914Y-58332446D01*
X113015613Y-58328194D01*
X112975008Y-58287589D01*
X112919500Y-58250500D01*
X112872233Y-58218917D01*
X112872232Y-58218916D01*
X112872230Y-58218915D01*
X112872228Y-58218914D01*
X112838785Y-58205062D01*
X112758035Y-58171614D01*
X112758027Y-58171612D01*
X112636807Y-58147500D01*
X112636803Y-58147500D01*
X111672966Y-58147500D01*
X111605927Y-58127815D01*
X111575701Y-58100412D01*
X111572968Y-58096956D01*
X111453044Y-57977032D01*
X111453040Y-57977029D01*
X111308705Y-57888001D01*
X111308699Y-57887998D01*
X111308697Y-57887997D01*
X111279693Y-57878386D01*
X111147709Y-57834651D01*
X111048346Y-57824500D01*
X110451662Y-57824500D01*
X110451644Y-57824501D01*
X110352292Y-57834650D01*
X110352289Y-57834651D01*
X110191305Y-57887996D01*
X110191294Y-57888001D01*
X110046959Y-57977029D01*
X110046955Y-57977032D01*
X109990807Y-58033181D01*
X109929484Y-58066666D01*
X109903126Y-58069500D01*
X107895034Y-58069500D01*
X107827995Y-58049815D01*
X107782240Y-57997011D01*
X107772296Y-57927853D01*
X107801321Y-57864297D01*
X107842286Y-57834757D01*
X107841858Y-57833956D01*
X107847222Y-57831087D01*
X107847233Y-57831083D01*
X107950008Y-57762411D01*
X108037411Y-57675008D01*
X109573600Y-56138819D01*
X109634923Y-56105334D01*
X109661281Y-56102500D01*
X111463719Y-56102500D01*
X111530758Y-56122185D01*
G37*
%TD.AperFunction*%
%TD*%
%TA.AperFunction,Conductor*%
%TO.N,GNDA*%
G36*
X81467539Y-66519685D02*
G01*
X81513294Y-66572489D01*
X81524500Y-66624000D01*
X81524500Y-67081613D01*
X81530913Y-67152192D01*
X81581522Y-67314606D01*
X81669530Y-67460188D01*
X81709180Y-67499837D01*
X81742666Y-67561160D01*
X81745500Y-67587519D01*
X81745500Y-69170552D01*
X81745499Y-69170578D01*
X81745499Y-69175688D01*
X81745499Y-69324312D01*
X81745499Y-69324314D01*
X81745498Y-69324314D01*
X81774493Y-69470073D01*
X81774496Y-69470083D01*
X81831366Y-69607381D01*
X81831372Y-69607392D01*
X81913942Y-69730968D01*
X81913943Y-69730969D01*
X84209181Y-72026205D01*
X84242666Y-72087528D01*
X84245500Y-72113886D01*
X84245500Y-72921796D01*
X84225815Y-72988835D01*
X84209181Y-73009477D01*
X84160588Y-73058069D01*
X84160588Y-73058070D01*
X84160586Y-73058072D01*
X84160582Y-73058078D01*
X84058768Y-73198211D01*
X83980128Y-73352552D01*
X83926597Y-73517302D01*
X83899500Y-73688389D01*
X83899500Y-74411611D01*
X83926598Y-74582701D01*
X83980127Y-74747445D01*
X84058768Y-74901788D01*
X84160586Y-75041928D01*
X84283072Y-75164414D01*
X84423212Y-75266232D01*
X84577555Y-75344873D01*
X84742299Y-75398402D01*
X84913389Y-75425500D01*
X84913390Y-75425500D01*
X85086610Y-75425500D01*
X85086611Y-75425500D01*
X85257701Y-75398402D01*
X85422445Y-75344873D01*
X85576788Y-75266232D01*
X85716928Y-75164414D01*
X85839414Y-75041928D01*
X85899682Y-74958975D01*
X85955012Y-74916311D01*
X86024626Y-74910332D01*
X86086421Y-74942938D01*
X86100315Y-74958973D01*
X86160586Y-75041928D01*
X86283072Y-75164414D01*
X86423212Y-75266232D01*
X86577555Y-75344873D01*
X86742299Y-75398402D01*
X86913389Y-75425500D01*
X86913390Y-75425500D01*
X87086610Y-75425500D01*
X87086611Y-75425500D01*
X87257701Y-75398402D01*
X87422445Y-75344873D01*
X87576788Y-75266232D01*
X87716928Y-75164414D01*
X87839414Y-75041928D01*
X87941232Y-74901788D01*
X88019873Y-74747445D01*
X88073402Y-74582701D01*
X88100500Y-74411611D01*
X88100500Y-73688389D01*
X88073402Y-73517299D01*
X88019873Y-73352555D01*
X87941232Y-73198212D01*
X87839414Y-73058072D01*
X87790819Y-73009477D01*
X87757334Y-72948154D01*
X87754500Y-72921796D01*
X87754500Y-67587519D01*
X87774185Y-67520480D01*
X87790820Y-67499837D01*
X87830472Y-67460185D01*
X87918478Y-67314606D01*
X87969086Y-67152196D01*
X87975500Y-67081616D01*
X87975500Y-66624000D01*
X87995185Y-66556961D01*
X88047989Y-66511206D01*
X88099500Y-66500000D01*
X90400500Y-66500000D01*
X90467539Y-66519685D01*
X90513294Y-66572489D01*
X90524500Y-66624000D01*
X90524500Y-67081613D01*
X90530913Y-67152192D01*
X90581522Y-67314606D01*
X90669530Y-67460188D01*
X90709180Y-67499837D01*
X90742666Y-67561160D01*
X90745500Y-67587519D01*
X90745500Y-71661112D01*
X90725815Y-71728151D01*
X90709181Y-71748793D01*
X90413943Y-72044030D01*
X90413942Y-72044031D01*
X90331372Y-72167607D01*
X90331366Y-72167618D01*
X90274496Y-72304916D01*
X90274493Y-72304926D01*
X90245499Y-72450685D01*
X90245499Y-72605425D01*
X90245500Y-72605446D01*
X90245500Y-72921796D01*
X90225815Y-72988835D01*
X90209181Y-73009477D01*
X90160588Y-73058069D01*
X90160588Y-73058070D01*
X90160586Y-73058072D01*
X90160582Y-73058078D01*
X90058768Y-73198211D01*
X89980128Y-73352552D01*
X89926597Y-73517302D01*
X89899500Y-73688389D01*
X89899500Y-74411611D01*
X89926598Y-74582701D01*
X89980127Y-74747445D01*
X90058768Y-74901788D01*
X90160586Y-75041928D01*
X90283072Y-75164414D01*
X90423212Y-75266232D01*
X90577555Y-75344873D01*
X90742299Y-75398402D01*
X90913389Y-75425500D01*
X90913390Y-75425500D01*
X91086610Y-75425500D01*
X91086611Y-75425500D01*
X91257701Y-75398402D01*
X91422445Y-75344873D01*
X91576788Y-75266232D01*
X91716928Y-75164414D01*
X91839414Y-75041928D01*
X91899682Y-74958975D01*
X91955012Y-74916311D01*
X92024626Y-74910332D01*
X92086421Y-74942938D01*
X92100315Y-74958973D01*
X92160586Y-75041928D01*
X92283072Y-75164414D01*
X92423212Y-75266232D01*
X92577555Y-75344873D01*
X92742299Y-75398402D01*
X92913389Y-75425500D01*
X92913390Y-75425500D01*
X93086610Y-75425500D01*
X93086611Y-75425500D01*
X93257701Y-75398402D01*
X93422445Y-75344873D01*
X93576788Y-75266232D01*
X93716928Y-75164414D01*
X93839414Y-75041928D01*
X93941232Y-74901788D01*
X94019873Y-74747445D01*
X94073402Y-74582701D01*
X94100500Y-74411611D01*
X94100500Y-73688389D01*
X94073402Y-73517299D01*
X94019873Y-73352555D01*
X94019871Y-73352552D01*
X94019871Y-73352550D01*
X94016758Y-73346441D01*
X94003860Y-73277772D01*
X94030134Y-73213031D01*
X94039551Y-73202471D01*
X95230205Y-72011819D01*
X95257132Y-71997115D01*
X95282951Y-71980523D01*
X95289151Y-71979631D01*
X95291528Y-71978334D01*
X95317886Y-71975500D01*
X95376000Y-71975500D01*
X95443039Y-71995185D01*
X95488794Y-72047989D01*
X95500000Y-72099500D01*
X95500000Y-76121997D01*
X95480315Y-76189036D01*
X95427511Y-76234791D01*
X95376020Y-76245997D01*
X81124020Y-76248304D01*
X81056977Y-76228630D01*
X81011214Y-76175834D01*
X81000000Y-76124304D01*
X81000000Y-66624000D01*
X81019685Y-66556961D01*
X81072489Y-66511206D01*
X81124000Y-66500000D01*
X81400500Y-66500000D01*
X81467539Y-66519685D01*
G37*
%TD.AperFunction*%
%TA.AperFunction,Conductor*%
G36*
X95443039Y-66519685D02*
G01*
X95488794Y-66572489D01*
X95500000Y-66624000D01*
X95500000Y-69900500D01*
X95480315Y-69967539D01*
X95427511Y-70013294D01*
X95376000Y-70024500D01*
X94918384Y-70024500D01*
X94899145Y-70026248D01*
X94847807Y-70030913D01*
X94685393Y-70081522D01*
X94539811Y-70169530D01*
X94419530Y-70289811D01*
X94331522Y-70435393D01*
X94280913Y-70597807D01*
X94274500Y-70668386D01*
X94274500Y-70782112D01*
X94254815Y-70849151D01*
X94238181Y-70869793D01*
X92413943Y-72694030D01*
X92413942Y-72694031D01*
X92331368Y-72817613D01*
X92298052Y-72898044D01*
X92298052Y-72898047D01*
X92291540Y-72913768D01*
X92264661Y-72953994D01*
X92160589Y-73058068D01*
X92160581Y-73058078D01*
X92100317Y-73141023D01*
X92081100Y-73155840D01*
X92064826Y-73173842D01*
X92053929Y-73176793D01*
X92044987Y-73183689D01*
X92020805Y-73185765D01*
X91997386Y-73192109D01*
X91986623Y-73188700D01*
X91975374Y-73189667D01*
X91953909Y-73178341D01*
X91930777Y-73171016D01*
X91919607Y-73160241D01*
X91913579Y-73157061D01*
X91904596Y-73147346D01*
X91902030Y-73144256D01*
X91839414Y-73058072D01*
X91786759Y-73005417D01*
X91783096Y-73001005D01*
X91771435Y-72973978D01*
X91757334Y-72948154D01*
X91756351Y-72939018D01*
X91755417Y-72936852D01*
X91755842Y-72934280D01*
X91754500Y-72921796D01*
X91754500Y-72888885D01*
X91774185Y-72821846D01*
X91790815Y-72801208D01*
X91980963Y-72611060D01*
X91980966Y-72611059D01*
X92086059Y-72505966D01*
X92168629Y-72382390D01*
X92168630Y-72382389D01*
X92168633Y-72382385D01*
X92225503Y-72245083D01*
X92225505Y-72245079D01*
X92254501Y-72099312D01*
X92254501Y-71950688D01*
X92254501Y-71945578D01*
X92254500Y-71945552D01*
X92254500Y-67587519D01*
X92274185Y-67520480D01*
X92290820Y-67499837D01*
X92330472Y-67460185D01*
X92418478Y-67314606D01*
X92469086Y-67152196D01*
X92475500Y-67081616D01*
X92475500Y-66624000D01*
X92495185Y-66556961D01*
X92547989Y-66511206D01*
X92599500Y-66500000D01*
X95376000Y-66500000D01*
X95443039Y-66519685D01*
G37*
%TD.AperFunction*%
%TA.AperFunction,Conductor*%
G36*
X85967539Y-66519685D02*
G01*
X86013294Y-66572489D01*
X86024500Y-66624000D01*
X86024500Y-67081613D01*
X86030913Y-67152192D01*
X86081522Y-67314606D01*
X86169530Y-67460188D01*
X86209180Y-67499837D01*
X86242666Y-67561160D01*
X86245500Y-67587519D01*
X86245500Y-72921796D01*
X86238410Y-72945939D01*
X86235355Y-72970918D01*
X86227813Y-72982027D01*
X86225815Y-72988835D01*
X86216904Y-73001005D01*
X86213240Y-73005417D01*
X86160586Y-73058072D01*
X86097969Y-73144256D01*
X86095404Y-73147346D01*
X86069610Y-73164701D01*
X86044987Y-73183689D01*
X86040865Y-73184042D01*
X86037435Y-73186351D01*
X86006357Y-73187006D01*
X85975374Y-73189667D01*
X85971715Y-73187736D01*
X85967581Y-73187824D01*
X85941081Y-73171572D01*
X85913579Y-73157061D01*
X85909225Y-73152036D01*
X85908020Y-73151297D01*
X85907310Y-73149826D01*
X85899683Y-73141023D01*
X85839418Y-73058078D01*
X85839414Y-73058072D01*
X85790819Y-73009477D01*
X85757334Y-72948154D01*
X85754500Y-72921796D01*
X85754500Y-71830446D01*
X85754501Y-71830425D01*
X85754501Y-71675685D01*
X85725506Y-71529926D01*
X85725505Y-71529925D01*
X85725505Y-71529921D01*
X85725503Y-71529916D01*
X85668632Y-71392615D01*
X85668630Y-71392612D01*
X85668630Y-71392611D01*
X85641230Y-71351605D01*
X85586059Y-71269034D01*
X85586057Y-71269032D01*
X85586055Y-71269029D01*
X85476647Y-71159621D01*
X85476624Y-71159600D01*
X83290819Y-68973794D01*
X83257334Y-68912471D01*
X83254500Y-68886113D01*
X83254500Y-67587519D01*
X83274185Y-67520480D01*
X83290820Y-67499837D01*
X83330472Y-67460185D01*
X83418478Y-67314606D01*
X83469086Y-67152196D01*
X83475500Y-67081616D01*
X83475500Y-66624000D01*
X83495185Y-66556961D01*
X83547989Y-66511206D01*
X83599500Y-66500000D01*
X85900500Y-66500000D01*
X85967539Y-66519685D01*
G37*
%TD.AperFunction*%
%TD*%
M02*
