%TF.GenerationSoftware,KiCad,Pcbnew,9.0.1*%
%TF.CreationDate,2025-04-15T21:25:17-04:00*%
%TF.ProjectId,psocpcb,70736f63-7063-4622-9e6b-696361645f70,rev?*%
%TF.SameCoordinates,Original*%
%TF.FileFunction,Paste,Top*%
%TF.FilePolarity,Positive*%
%FSLAX46Y46*%
G04 Gerber Fmt 4.6, Leading zero omitted, Abs format (unit mm)*
G04 Created by KiCad (PCBNEW 9.0.1) date 2025-04-15 21:25:17*
%MOMM*%
%LPD*%
G01*
G04 APERTURE LIST*
G04 Aperture macros list*
%AMRoundRect*
0 Rectangle with rounded corners*
0 $1 Rounding radius*
0 $2 $3 $4 $5 $6 $7 $8 $9 X,Y pos of 4 corners*
0 Add a 4 corners polygon primitive as box body*
4,1,4,$2,$3,$4,$5,$6,$7,$8,$9,$2,$3,0*
0 Add four circle primitives for the rounded corners*
1,1,$1+$1,$2,$3*
1,1,$1+$1,$4,$5*
1,1,$1+$1,$6,$7*
1,1,$1+$1,$8,$9*
0 Add four rect primitives between the rounded corners*
20,1,$1+$1,$2,$3,$4,$5,0*
20,1,$1+$1,$4,$5,$6,$7,0*
20,1,$1+$1,$6,$7,$8,$9,0*
20,1,$1+$1,$8,$9,$2,$3,0*%
G04 Aperture macros list end*
%ADD10C,0.010000*%
%ADD11RoundRect,0.200000X-0.275000X0.200000X-0.275000X-0.200000X0.275000X-0.200000X0.275000X0.200000X0*%
%ADD12RoundRect,0.150000X0.587500X0.150000X-0.587500X0.150000X-0.587500X-0.150000X0.587500X-0.150000X0*%
%ADD13RoundRect,0.225000X-0.225000X-0.250000X0.225000X-0.250000X0.225000X0.250000X-0.225000X0.250000X0*%
%ADD14RoundRect,0.225000X0.250000X-0.225000X0.250000X0.225000X-0.250000X0.225000X-0.250000X-0.225000X0*%
%ADD15RoundRect,0.200000X0.200000X0.275000X-0.200000X0.275000X-0.200000X-0.275000X0.200000X-0.275000X0*%
%ADD16RoundRect,0.225000X-0.250000X0.225000X-0.250000X-0.225000X0.250000X-0.225000X0.250000X0.225000X0*%
%ADD17RoundRect,0.033750X-0.321250X-0.101250X0.321250X-0.101250X0.321250X0.101250X-0.321250X0.101250X0*%
%ADD18RoundRect,0.044250X-0.250750X0.640750X-0.250750X-0.640750X0.250750X-0.640750X0.250750X0.640750X0*%
%ADD19RoundRect,0.086250X-0.383750X-0.258750X0.383750X-0.258750X0.383750X0.258750X-0.383750X0.258750X0*%
%ADD20RoundRect,0.044250X-0.640750X-0.250750X0.640750X-0.250750X0.640750X0.250750X-0.640750X0.250750X0*%
%ADD21RoundRect,0.200000X0.275000X-0.200000X0.275000X0.200000X-0.275000X0.200000X-0.275000X-0.200000X0*%
%ADD22R,1.270000X0.610000*%
%ADD23R,0.610000X1.270000*%
%ADD24RoundRect,0.033750X-0.526250X-0.101250X0.526250X-0.101250X0.526250X0.101250X-0.526250X0.101250X0*%
%ADD25RoundRect,0.045750X-0.544250X-0.259250X0.544250X-0.259250X0.544250X0.259250X-0.544250X0.259250X0*%
%ADD26RoundRect,0.086250X0.258750X-0.383750X0.258750X0.383750X-0.258750X0.383750X-0.258750X-0.383750X0*%
%ADD27RoundRect,0.200000X-0.200000X-0.275000X0.200000X-0.275000X0.200000X0.275000X-0.200000X0.275000X0*%
G04 APERTURE END LIST*
D10*
%TO.C,U4*%
X88260000Y-62920000D02*
X87940000Y-62920000D01*
X87940000Y-62380000D01*
X88260000Y-62380000D01*
X88260000Y-62920000D01*
G36*
X88260000Y-62920000D02*
G01*
X87940000Y-62920000D01*
X87940000Y-62380000D01*
X88260000Y-62380000D01*
X88260000Y-62920000D01*
G37*
%TD*%
D11*
%TO.C,R12*%
X131050000Y-55275000D03*
X131050000Y-56925000D03*
%TD*%
D12*
%TO.C,Q1*%
X85437500Y-56450000D03*
X85437500Y-54550000D03*
X83562500Y-55500000D03*
%TD*%
D13*
%TO.C,C10*%
X78625000Y-58600000D03*
X80175000Y-58600000D03*
%TD*%
D11*
%TO.C,R11*%
X74900000Y-67350000D03*
X74900000Y-69000000D03*
%TD*%
D14*
%TO.C,C18*%
X91050000Y-60575000D03*
X91050000Y-59025000D03*
%TD*%
D15*
%TO.C,R16*%
X93152500Y-66525000D03*
X91502500Y-66525000D03*
%TD*%
%TO.C,R17*%
X89825000Y-55500000D03*
X88175000Y-55500000D03*
%TD*%
D11*
%TO.C,R13*%
X84000000Y-64325000D03*
X84000000Y-65975000D03*
%TD*%
D14*
%TO.C,C9*%
X75250000Y-56125000D03*
X75250000Y-54575000D03*
%TD*%
D15*
%TO.C,R15*%
X97250000Y-66500000D03*
X95600000Y-66500000D03*
%TD*%
D16*
%TO.C,C19*%
X100177500Y-66475000D03*
X100177500Y-68025000D03*
%TD*%
D17*
%TO.C,U4*%
X87305000Y-62400000D03*
X87305000Y-62900000D03*
X88895000Y-62900000D03*
X88895000Y-62400000D03*
%TD*%
D14*
%TO.C,C12*%
X84000000Y-62525000D03*
X84000000Y-60975000D03*
%TD*%
D18*
%TO.C,U6*%
X97347500Y-62000000D03*
X96397500Y-62000000D03*
X95447500Y-62000000D03*
X95447500Y-64350000D03*
X97347500Y-64350000D03*
%TD*%
D19*
%TO.C,D1*%
X134495000Y-53500000D03*
X132805000Y-53500000D03*
%TD*%
D20*
%TO.C,U2*%
X78172906Y-64050000D03*
X78172906Y-65000000D03*
X78172906Y-65950000D03*
X80522906Y-65950000D03*
X80522906Y-64050000D03*
%TD*%
D21*
%TO.C,R2*%
X106450000Y-64150000D03*
X106450000Y-62500000D03*
%TD*%
D22*
%TO.C,U7*%
X115380000Y-70570000D03*
X115380000Y-69670000D03*
X115380000Y-68770000D03*
X115380000Y-67870000D03*
X115380000Y-66960000D03*
X115380000Y-66060000D03*
X115380000Y-65160000D03*
X115380000Y-64260000D03*
X115380000Y-63360000D03*
X115380000Y-62460000D03*
X115380000Y-61550000D03*
X115380000Y-60650000D03*
X115380000Y-59750000D03*
X115380000Y-58850000D03*
D23*
X115690000Y-57380000D03*
X116590000Y-57380000D03*
X117490000Y-57380000D03*
X118390000Y-57380000D03*
X119290000Y-57380000D03*
X120200000Y-57380000D03*
X121100000Y-57380000D03*
X122000000Y-57380000D03*
X122900000Y-57380000D03*
X123800000Y-57380000D03*
X124700000Y-57380000D03*
X125610000Y-57380000D03*
X126510000Y-57380000D03*
X127410000Y-57380000D03*
X128310000Y-57380000D03*
D22*
X128620000Y-58850000D03*
X128620000Y-59750000D03*
X128620000Y-60650000D03*
X128620000Y-61550000D03*
X128620000Y-62460000D03*
X128620000Y-63360000D03*
X128620000Y-64260000D03*
X128620000Y-65160000D03*
X128620000Y-66060000D03*
X128620000Y-66960000D03*
X128620000Y-67870000D03*
X128620000Y-68770000D03*
X128620000Y-69670000D03*
X128620000Y-70570000D03*
%TD*%
D16*
%TO.C,C4*%
X109450000Y-72075000D03*
X109450000Y-73625000D03*
%TD*%
D24*
%TO.C,U5*%
X103637500Y-65975000D03*
X103637500Y-66475000D03*
X103637500Y-66975000D03*
X103637500Y-67475000D03*
X106447500Y-67475000D03*
X106447500Y-66975000D03*
X106447500Y-66475000D03*
X106447500Y-65975000D03*
%TD*%
D14*
%TO.C,C17*%
X93450000Y-60575000D03*
X93450000Y-59025000D03*
%TD*%
D25*
%TO.C,U3*%
X78225000Y-54585000D03*
X78225000Y-56415000D03*
X80275000Y-55500000D03*
%TD*%
D13*
%TO.C,C11*%
X78625000Y-60800000D03*
X80175000Y-60800000D03*
%TD*%
%TO.C,C5*%
X107025000Y-60700000D03*
X108575000Y-60700000D03*
%TD*%
D16*
%TO.C,C3*%
X111350000Y-72050000D03*
X111350000Y-73600000D03*
%TD*%
D21*
%TO.C,R1*%
X103600000Y-64150000D03*
X103600000Y-62500000D03*
%TD*%
D26*
%TO.C,D2*%
X74900000Y-63550000D03*
X74900000Y-65240000D03*
%TD*%
D27*
%TO.C,R14*%
X85925000Y-65975000D03*
X87575000Y-65975000D03*
%TD*%
M02*
