%TF.GenerationSoftware,KiCad,Pcbnew,9.0.1*%
%TF.CreationDate,2025-04-15T21:25:17-04:00*%
%TF.ProjectId,psocpcb,70736f63-7063-4622-9e6b-696361645f70,rev?*%
%TF.SameCoordinates,Original*%
%TF.FileFunction,Copper,L3,Inr*%
%TF.FilePolarity,Positive*%
%FSLAX46Y46*%
G04 Gerber Fmt 4.6, Leading zero omitted, Abs format (unit mm)*
G04 Created by KiCad (PCBNEW 9.0.1) date 2025-04-15 21:25:17*
%MOMM*%
%LPD*%
G01*
G04 APERTURE LIST*
G04 Aperture macros list*
%AMRoundRect*
0 Rectangle with rounded corners*
0 $1 Rounding radius*
0 $2 $3 $4 $5 $6 $7 $8 $9 X,Y pos of 4 corners*
0 Add a 4 corners polygon primitive as box body*
4,1,4,$2,$3,$4,$5,$6,$7,$8,$9,$2,$3,0*
0 Add four circle primitives for the rounded corners*
1,1,$1+$1,$2,$3*
1,1,$1+$1,$4,$5*
1,1,$1+$1,$6,$7*
1,1,$1+$1,$8,$9*
0 Add four rect primitives between the rounded corners*
20,1,$1+$1,$2,$3,$4,$5,0*
20,1,$1+$1,$4,$5,$6,$7,0*
20,1,$1+$1,$6,$7,$8,$9,0*
20,1,$1+$1,$8,$9,$2,$3,0*%
G04 Aperture macros list end*
%TA.AperFunction,ComponentPad*%
%ADD10RoundRect,0.250000X-0.350000X-0.625000X0.350000X-0.625000X0.350000X0.625000X-0.350000X0.625000X0*%
%TD*%
%TA.AperFunction,ComponentPad*%
%ADD11O,1.200000X1.750000*%
%TD*%
%TA.AperFunction,ComponentPad*%
%ADD12R,1.700000X1.700000*%
%TD*%
%TA.AperFunction,ComponentPad*%
%ADD13C,1.700000*%
%TD*%
%TA.AperFunction,ComponentPad*%
%ADD14R,1.508000X1.508000*%
%TD*%
%TA.AperFunction,ComponentPad*%
%ADD15C,1.508000*%
%TD*%
%TA.AperFunction,ViaPad*%
%ADD16C,0.600000*%
%TD*%
G04 APERTURE END LIST*
D10*
%TO.N,GND*%
%TO.C,J5*%
X99450000Y-73900000D03*
D11*
%TO.N,/5V*%
X101450000Y-73900000D03*
%TO.N,/SCL1.8*%
X103450000Y-73900000D03*
%TO.N,/SDA1.8*%
X105450000Y-73900000D03*
%TD*%
D12*
%TO.N,/usbtx*%
%TO.C,J2*%
X132225000Y-69500000D03*
D13*
%TO.N,/usbrx*%
X134765000Y-69500000D03*
%TD*%
D12*
%TO.N,/SWDIO*%
%TO.C,J1*%
X134550000Y-66340000D03*
D13*
%TO.N,/SWDCLK*%
X134550000Y-63800000D03*
%TO.N,/XRES*%
X134550000Y-61260000D03*
%TO.N,GND*%
X134550000Y-58720000D03*
%TO.N,/VTAG*%
X134550000Y-56180000D03*
%TD*%
D14*
%TO.N,unconnected-(A1-3V3[1]-Pad1)*%
%TO.C,A1*%
X80485000Y-51670000D03*
D15*
%TO.N,Net-(A1-5V[1])*%
X80485000Y-49130000D03*
%TO.N,unconnected-(A1-GPIO2{slash}SDA-Pad3)*%
X83025000Y-51670000D03*
%TO.N,Net-(A1-5V[1])*%
X83025000Y-49130000D03*
%TO.N,unconnected-(A1-GPIO3{slash}SCL-Pad5)*%
X85565000Y-51670000D03*
%TO.N,GND*%
X85565000Y-49130000D03*
%TO.N,/reset*%
X88105000Y-51670000D03*
%TO.N,/MCURX*%
X88105000Y-49130000D03*
%TO.N,GND*%
X90645000Y-51670000D03*
%TO.N,/MCUTX*%
X90645000Y-49130000D03*
%TO.N,unconnected-(A1-GPIO17{slash}GEN0-Pad11)*%
X93185000Y-51670000D03*
%TO.N,unconnected-(A1-GPIO18-Pad12)*%
X93185000Y-49130000D03*
%TO.N,unconnected-(A1-GPIO27{slash}GEN2-Pad13)*%
X95725000Y-51670000D03*
%TO.N,GND*%
X95725000Y-49130000D03*
%TO.N,unconnected-(A1-GPIO22{slash}GEN3-Pad15)*%
X98265000Y-51670000D03*
%TO.N,unconnected-(A1-GEN4{slash}GPIO23-Pad16)*%
X98265000Y-49130000D03*
%TO.N,unconnected-(A1-3V3[2]-Pad17)*%
X100805000Y-51670000D03*
%TO.N,unconnected-(A1-GEN5{slash}GPIO24-Pad18)*%
X100805000Y-49130000D03*
%TO.N,unconnected-(A1-GPIO10{slash}MOSI-Pad19)*%
X103345000Y-51670000D03*
%TO.N,GND*%
X103345000Y-49130000D03*
%TO.N,unconnected-(A1-GPIO9{slash}MISO-Pad21)*%
X105885000Y-51670000D03*
%TO.N,unconnected-(A1-GEN{slash}6GPIO25-Pad22)*%
X105885000Y-49130000D03*
%TO.N,unconnected-(A1-GPIO11{slash}SCLK-Pad23)*%
X108425000Y-51670000D03*
%TO.N,unconnected-(A1-~{CE0}{slash}GPIO8-Pad24)*%
X108425000Y-49130000D03*
%TO.N,GND*%
X110965000Y-51670000D03*
%TO.N,unconnected-(A1-~{CE1}{slash}~{GPIO7}-Pad26)*%
X110965000Y-49130000D03*
%TO.N,unconnected-(A1-ID_SD-Pad27)*%
X113505000Y-51670000D03*
%TO.N,unconnected-(A1-ID_SC-Pad28)*%
X113505000Y-49130000D03*
%TO.N,unconnected-(A1-GPIO5-Pad29)*%
X116045000Y-51670000D03*
%TO.N,GND*%
X116045000Y-49130000D03*
%TO.N,unconnected-(A1-GPIO6-Pad31)*%
X118585000Y-51670000D03*
%TO.N,unconnected-(A1-GPIO12-Pad32)*%
X118585000Y-49130000D03*
%TO.N,unconnected-(A1-GPIO13-Pad33)*%
X121125000Y-51670000D03*
%TO.N,GND*%
X121125000Y-49130000D03*
%TO.N,unconnected-(A1-GPIO19-Pad35)*%
X123665000Y-51670000D03*
%TO.N,unconnected-(A1-GPIO16-Pad36)*%
X123665000Y-49130000D03*
%TO.N,unconnected-(A1-GPIO26-Pad37)*%
X126205000Y-51670000D03*
%TO.N,unconnected-(A1-GPIO20-Pad38)*%
X126205000Y-49130000D03*
%TO.N,GND*%
X128745000Y-51670000D03*
%TO.N,unconnected-(A1-GPIO21-Pad40)*%
X128745000Y-49130000D03*
%TD*%
D10*
%TO.N,GNDA*%
%TO.C,J7*%
X83000000Y-74050000D03*
D11*
%TO.N,/ADC2_raw*%
X85000000Y-74050000D03*
%TO.N,/ADC3_raw*%
X87000000Y-74050000D03*
%TO.N,GNDA*%
X89000000Y-74050000D03*
%TO.N,/ADC1_raw*%
X91000000Y-74050000D03*
%TO.N,/ADC0_raw*%
X93000000Y-74050000D03*
%TD*%
D16*
%TO.N,GND*%
X75250000Y-53100000D03*
X99275000Y-64975000D03*
X112175000Y-57525000D03*
X109325000Y-57375000D03*
X111800000Y-60075000D03*
X78250000Y-53050000D03*
X113875000Y-71900000D03*
X130000000Y-71350000D03*
X117325000Y-70125000D03*
X109675000Y-60350000D03*
X76250000Y-69025000D03*
X101350000Y-65000000D03*
X126800000Y-70200000D03*
X76225000Y-66225000D03*
%TO.N,/SDA*%
X125800000Y-61550000D03*
X113000000Y-65075000D03*
%TO.N,/ADC0*%
X112950000Y-64075000D03*
%TO.N,/ADC1*%
X109450000Y-62025000D03*
%TO.N,/ADC2*%
X113850000Y-61025000D03*
%TO.N,/ADC3*%
X113200000Y-61650000D03*
%TO.N,/SWDCLK*%
X131550000Y-63275000D03*
X128675000Y-54800000D03*
%TO.N,/SWDIO*%
X128675000Y-55625000D03*
X131200000Y-65725000D03*
%TO.N,/5V*%
X78625000Y-59725000D03*
X78575000Y-57450000D03*
X74475000Y-58450000D03*
X76500000Y-59825000D03*
X77750000Y-66850000D03*
X76500000Y-56800000D03*
X78600000Y-62100000D03*
X74525000Y-61375000D03*
X76500000Y-62750000D03*
%TO.N,GNDA*%
X89325000Y-70200000D03*
X81875000Y-71925000D03*
X85500000Y-70150000D03*
X89325000Y-72150000D03*
X93450000Y-70150000D03*
%TO.N,/VTAG*%
X91025000Y-61950000D03*
X108550000Y-70975000D03*
X101525000Y-61025000D03*
X98800000Y-61025000D03*
X112275000Y-70975000D03*
X93450000Y-61975000D03*
X104000000Y-61025000D03*
X110425000Y-70975000D03*
%TO.N,Net-(U7-P0.1)*%
X112975000Y-66050000D03*
%TO.N,Net-(U7-P0.0)*%
X113425000Y-66975000D03*
%TO.N,/XRES*%
X130200000Y-69200000D03*
%TD*%
%TA.AperFunction,Conductor*%
%TO.N,GND*%
G36*
X135505387Y-47500971D02*
G01*
X135661021Y-47514587D01*
X135682297Y-47518338D01*
X135827951Y-47557366D01*
X135848261Y-47564759D01*
X135984915Y-47628482D01*
X136003633Y-47639289D01*
X136127154Y-47725779D01*
X136143712Y-47739673D01*
X136250326Y-47846287D01*
X136264220Y-47862845D01*
X136350710Y-47986366D01*
X136361517Y-48005084D01*
X136425240Y-48141738D01*
X136432633Y-48162049D01*
X136471659Y-48307696D01*
X136475412Y-48328982D01*
X136486838Y-48459584D01*
X136487968Y-48472495D01*
X136489028Y-48484604D01*
X136489500Y-48495412D01*
X136489500Y-48563459D01*
X136489555Y-48564300D01*
X136509494Y-75244546D01*
X136509022Y-75255446D01*
X136495412Y-75411016D01*
X136491659Y-75432303D01*
X136452633Y-75577950D01*
X136445240Y-75598261D01*
X136381517Y-75734915D01*
X136370710Y-75753633D01*
X136284220Y-75877154D01*
X136270326Y-75893712D01*
X136163712Y-76000326D01*
X136147154Y-76014220D01*
X136023633Y-76100710D01*
X136004915Y-76111517D01*
X135868261Y-76175240D01*
X135847950Y-76182633D01*
X135702303Y-76221659D01*
X135681016Y-76225412D01*
X135525387Y-76239028D01*
X135514600Y-76239500D01*
X135454108Y-76239500D01*
X135454070Y-76239509D01*
X135446247Y-76239511D01*
X73745425Y-76249499D01*
X73734597Y-76249027D01*
X73578982Y-76235412D01*
X73557696Y-76231659D01*
X73412049Y-76192633D01*
X73391738Y-76185240D01*
X73255084Y-76121517D01*
X73236366Y-76110710D01*
X73112845Y-76024220D01*
X73096287Y-76010326D01*
X72989673Y-75903712D01*
X72975779Y-75887154D01*
X72889289Y-75763633D01*
X72878482Y-75744915D01*
X72814759Y-75608261D01*
X72807366Y-75587950D01*
X72804687Y-75577950D01*
X72768338Y-75442297D01*
X72764587Y-75421017D01*
X72750972Y-75265397D01*
X72750501Y-75254577D01*
X72751242Y-73272070D01*
X73989500Y-73272070D01*
X73989500Y-73527929D01*
X74029526Y-73780640D01*
X74108588Y-74023972D01*
X74108589Y-74023975D01*
X74224750Y-74251950D01*
X74375132Y-74458935D01*
X74375136Y-74458940D01*
X74556059Y-74639863D01*
X74556064Y-74639867D01*
X74721871Y-74760332D01*
X74763053Y-74790252D01*
X74912080Y-74866185D01*
X74991024Y-74906410D01*
X74991027Y-74906411D01*
X75112693Y-74945942D01*
X75234361Y-74985474D01*
X75487070Y-75025500D01*
X75487071Y-75025500D01*
X75742929Y-75025500D01*
X75742930Y-75025500D01*
X75995639Y-74985474D01*
X76238975Y-74906410D01*
X76466947Y-74790252D01*
X76673942Y-74639862D01*
X76854862Y-74458942D01*
X77005252Y-74251947D01*
X77121410Y-74023975D01*
X77200474Y-73780639D01*
X77240500Y-73527930D01*
X77240500Y-73272070D01*
X77200474Y-73019361D01*
X77148498Y-72859394D01*
X77121411Y-72776027D01*
X77121410Y-72776024D01*
X77079992Y-72694737D01*
X77005252Y-72548053D01*
X76958294Y-72483420D01*
X76854867Y-72341064D01*
X76854863Y-72341059D01*
X76673940Y-72160136D01*
X76673935Y-72160132D01*
X76466950Y-72009750D01*
X76466949Y-72009749D01*
X76466947Y-72009748D01*
X76350767Y-71950551D01*
X76238975Y-71893589D01*
X76238972Y-71893588D01*
X76092980Y-71846153D01*
X81074500Y-71846153D01*
X81074500Y-72003846D01*
X81105261Y-72158489D01*
X81105264Y-72158501D01*
X81165602Y-72304172D01*
X81165609Y-72304185D01*
X81253210Y-72435288D01*
X81253213Y-72435292D01*
X81364707Y-72546786D01*
X81364711Y-72546789D01*
X81495814Y-72634390D01*
X81495827Y-72634397D01*
X81617998Y-72685001D01*
X81641503Y-72694737D01*
X81779784Y-72722243D01*
X81796153Y-72725499D01*
X81796156Y-72725500D01*
X81796158Y-72725500D01*
X81953843Y-72725500D01*
X81970216Y-72722243D01*
X82039808Y-72728470D01*
X82094986Y-72771332D01*
X82118231Y-72837221D01*
X82102164Y-72905219D01*
X82082092Y-72931540D01*
X82057288Y-72956344D01*
X81965187Y-73105663D01*
X81965186Y-73105666D01*
X81910001Y-73272203D01*
X81910001Y-73272204D01*
X81910000Y-73272204D01*
X81899500Y-73374983D01*
X81899500Y-74725001D01*
X81899501Y-74725018D01*
X81910000Y-74827796D01*
X81910001Y-74827799D01*
X81965185Y-74994331D01*
X81965187Y-74994336D01*
X81984409Y-75025500D01*
X82057288Y-75143656D01*
X82181344Y-75267712D01*
X82330666Y-75359814D01*
X82497203Y-75414999D01*
X82599991Y-75425500D01*
X83400008Y-75425499D01*
X83400016Y-75425498D01*
X83400019Y-75425498D01*
X83456302Y-75419748D01*
X83502797Y-75414999D01*
X83669334Y-75359814D01*
X83818656Y-75267712D01*
X83942712Y-75143656D01*
X83982310Y-75079456D01*
X84034258Y-75032732D01*
X84103220Y-75021509D01*
X84167303Y-75049352D01*
X84175530Y-75056872D01*
X84283072Y-75164414D01*
X84423212Y-75266232D01*
X84577555Y-75344873D01*
X84742299Y-75398402D01*
X84913389Y-75425500D01*
X84913390Y-75425500D01*
X85086610Y-75425500D01*
X85086611Y-75425500D01*
X85257701Y-75398402D01*
X85422445Y-75344873D01*
X85576788Y-75266232D01*
X85716928Y-75164414D01*
X85839414Y-75041928D01*
X85899682Y-74958975D01*
X85955012Y-74916311D01*
X86024626Y-74910332D01*
X86086421Y-74942938D01*
X86100315Y-74958973D01*
X86160586Y-75041928D01*
X86283072Y-75164414D01*
X86423212Y-75266232D01*
X86577555Y-75344873D01*
X86742299Y-75398402D01*
X86913389Y-75425500D01*
X86913390Y-75425500D01*
X87086610Y-75425500D01*
X87086611Y-75425500D01*
X87257701Y-75398402D01*
X87422445Y-75344873D01*
X87576788Y-75266232D01*
X87716928Y-75164414D01*
X87839414Y-75041928D01*
X87899682Y-74958975D01*
X87955012Y-74916311D01*
X88024626Y-74910332D01*
X88086421Y-74942938D01*
X88100315Y-74958973D01*
X88160586Y-75041928D01*
X88283072Y-75164414D01*
X88423212Y-75266232D01*
X88577555Y-75344873D01*
X88742299Y-75398402D01*
X88913389Y-75425500D01*
X88913390Y-75425500D01*
X89086610Y-75425500D01*
X89086611Y-75425500D01*
X89257701Y-75398402D01*
X89422445Y-75344873D01*
X89576788Y-75266232D01*
X89716928Y-75164414D01*
X89839414Y-75041928D01*
X89899682Y-74958975D01*
X89955012Y-74916311D01*
X90024626Y-74910332D01*
X90086421Y-74942938D01*
X90100315Y-74958973D01*
X90160586Y-75041928D01*
X90283072Y-75164414D01*
X90423212Y-75266232D01*
X90577555Y-75344873D01*
X90742299Y-75398402D01*
X90913389Y-75425500D01*
X90913390Y-75425500D01*
X91086610Y-75425500D01*
X91086611Y-75425500D01*
X91257701Y-75398402D01*
X91422445Y-75344873D01*
X91576788Y-75266232D01*
X91716928Y-75164414D01*
X91839414Y-75041928D01*
X91899682Y-74958975D01*
X91955012Y-74916311D01*
X92024626Y-74910332D01*
X92086421Y-74942938D01*
X92100315Y-74958973D01*
X92160586Y-75041928D01*
X92283072Y-75164414D01*
X92423212Y-75266232D01*
X92577555Y-75344873D01*
X92742299Y-75398402D01*
X92913389Y-75425500D01*
X92913390Y-75425500D01*
X93086610Y-75425500D01*
X93086611Y-75425500D01*
X93257701Y-75398402D01*
X93422445Y-75344873D01*
X93576788Y-75266232D01*
X93716928Y-75164414D01*
X93839414Y-75041928D01*
X93941232Y-74901788D01*
X94019873Y-74747445D01*
X94073402Y-74582701D01*
X94100500Y-74411611D01*
X94100500Y-73688389D01*
X94079043Y-73552914D01*
X94076743Y-73538389D01*
X100349500Y-73538389D01*
X100349500Y-74261610D01*
X100373257Y-74411611D01*
X100376598Y-74432701D01*
X100430127Y-74597445D01*
X100508768Y-74751788D01*
X100610586Y-74891928D01*
X100733072Y-75014414D01*
X100873212Y-75116232D01*
X101027555Y-75194873D01*
X101192299Y-75248402D01*
X101363389Y-75275500D01*
X101363390Y-75275500D01*
X101536610Y-75275500D01*
X101536611Y-75275500D01*
X101707701Y-75248402D01*
X101872445Y-75194873D01*
X102026788Y-75116232D01*
X102166928Y-75014414D01*
X102289414Y-74891928D01*
X102349682Y-74808975D01*
X102405012Y-74766311D01*
X102474626Y-74760332D01*
X102536421Y-74792938D01*
X102550315Y-74808973D01*
X102610586Y-74891928D01*
X102733072Y-75014414D01*
X102873212Y-75116232D01*
X103027555Y-75194873D01*
X103192299Y-75248402D01*
X103363389Y-75275500D01*
X103363390Y-75275500D01*
X103536610Y-75275500D01*
X103536611Y-75275500D01*
X103707701Y-75248402D01*
X103872445Y-75194873D01*
X104026788Y-75116232D01*
X104166928Y-75014414D01*
X104289414Y-74891928D01*
X104349682Y-74808975D01*
X104405012Y-74766311D01*
X104474626Y-74760332D01*
X104536421Y-74792938D01*
X104550315Y-74808973D01*
X104610586Y-74891928D01*
X104733072Y-75014414D01*
X104873212Y-75116232D01*
X105027555Y-75194873D01*
X105192299Y-75248402D01*
X105363389Y-75275500D01*
X105363390Y-75275500D01*
X105536610Y-75275500D01*
X105536611Y-75275500D01*
X105707701Y-75248402D01*
X105872445Y-75194873D01*
X106026788Y-75116232D01*
X106166928Y-75014414D01*
X106289414Y-74891928D01*
X106391232Y-74751788D01*
X106469873Y-74597445D01*
X106523402Y-74432701D01*
X106550500Y-74261611D01*
X106550500Y-73538389D01*
X106523402Y-73367299D01*
X106492460Y-73272070D01*
X131989500Y-73272070D01*
X131989500Y-73527929D01*
X132029526Y-73780640D01*
X132108588Y-74023972D01*
X132108589Y-74023975D01*
X132224750Y-74251950D01*
X132375132Y-74458935D01*
X132375136Y-74458940D01*
X132556059Y-74639863D01*
X132556064Y-74639867D01*
X132721871Y-74760332D01*
X132763053Y-74790252D01*
X132912080Y-74866185D01*
X132991024Y-74906410D01*
X132991027Y-74906411D01*
X133112693Y-74945942D01*
X133234361Y-74985474D01*
X133487070Y-75025500D01*
X133487071Y-75025500D01*
X133742929Y-75025500D01*
X133742930Y-75025500D01*
X133995639Y-74985474D01*
X134238975Y-74906410D01*
X134466947Y-74790252D01*
X134673942Y-74639862D01*
X134854862Y-74458942D01*
X135005252Y-74251947D01*
X135121410Y-74023975D01*
X135200474Y-73780639D01*
X135240500Y-73527930D01*
X135240500Y-73272070D01*
X135200474Y-73019361D01*
X135148498Y-72859394D01*
X135121411Y-72776027D01*
X135121410Y-72776024D01*
X135079992Y-72694737D01*
X135005252Y-72548053D01*
X134958294Y-72483420D01*
X134854867Y-72341064D01*
X134854863Y-72341059D01*
X134673940Y-72160136D01*
X134673935Y-72160132D01*
X134466950Y-72009750D01*
X134466949Y-72009749D01*
X134466947Y-72009748D01*
X134350767Y-71950551D01*
X134238975Y-71893589D01*
X134238972Y-71893588D01*
X133995640Y-71814526D01*
X133869284Y-71794513D01*
X133742930Y-71774500D01*
X133487070Y-71774500D01*
X133402833Y-71787842D01*
X133234359Y-71814526D01*
X132991027Y-71893588D01*
X132991024Y-71893589D01*
X132763049Y-72009750D01*
X132556064Y-72160132D01*
X132556059Y-72160136D01*
X132375136Y-72341059D01*
X132375132Y-72341064D01*
X132224750Y-72548049D01*
X132108589Y-72776024D01*
X132108588Y-72776027D01*
X132029526Y-73019359D01*
X131989500Y-73272070D01*
X106492460Y-73272070D01*
X106469873Y-73202555D01*
X106391232Y-73048212D01*
X106289414Y-72908072D01*
X106166928Y-72785586D01*
X106026788Y-72683768D01*
X105872445Y-72605127D01*
X105707701Y-72551598D01*
X105707699Y-72551597D01*
X105707698Y-72551597D01*
X105566109Y-72529172D01*
X105536611Y-72524500D01*
X105363389Y-72524500D01*
X105333891Y-72529172D01*
X105192302Y-72551597D01*
X105027552Y-72605128D01*
X104873211Y-72683768D01*
X104820256Y-72722243D01*
X104733072Y-72785586D01*
X104733070Y-72785588D01*
X104733069Y-72785588D01*
X104610588Y-72908069D01*
X104610581Y-72908078D01*
X104550317Y-72991023D01*
X104494987Y-73033689D01*
X104425374Y-73039667D01*
X104363579Y-73007061D01*
X104349683Y-72991023D01*
X104301799Y-72925119D01*
X104289414Y-72908072D01*
X104166928Y-72785586D01*
X104026788Y-72683768D01*
X103872445Y-72605127D01*
X103707701Y-72551598D01*
X103707699Y-72551597D01*
X103707698Y-72551597D01*
X103566109Y-72529172D01*
X103536611Y-72524500D01*
X103363389Y-72524500D01*
X103333891Y-72529172D01*
X103192302Y-72551597D01*
X103027552Y-72605128D01*
X102873211Y-72683768D01*
X102820256Y-72722243D01*
X102733072Y-72785586D01*
X102733070Y-72785588D01*
X102733069Y-72785588D01*
X102610588Y-72908069D01*
X102610581Y-72908078D01*
X102550317Y-72991023D01*
X102494987Y-73033689D01*
X102425374Y-73039667D01*
X102363579Y-73007061D01*
X102349683Y-72991023D01*
X102301799Y-72925119D01*
X102289414Y-72908072D01*
X102166928Y-72785586D01*
X102026788Y-72683768D01*
X101872445Y-72605127D01*
X101707701Y-72551598D01*
X101707699Y-72551597D01*
X101707698Y-72551597D01*
X101566109Y-72529172D01*
X101536611Y-72524500D01*
X101363389Y-72524500D01*
X101333891Y-72529172D01*
X101192302Y-72551597D01*
X101027552Y-72605128D01*
X100873211Y-72683768D01*
X100820256Y-72722243D01*
X100733072Y-72785586D01*
X100733070Y-72785588D01*
X100733069Y-72785588D01*
X100610588Y-72908069D01*
X100610588Y-72908070D01*
X100610586Y-72908072D01*
X100575516Y-72956342D01*
X100508768Y-73048211D01*
X100430128Y-73202552D01*
X100376597Y-73367302D01*
X100349500Y-73538389D01*
X94076743Y-73538389D01*
X94073403Y-73517303D01*
X94073402Y-73517302D01*
X94073402Y-73517299D01*
X94019873Y-73352555D01*
X93941232Y-73198212D01*
X93839414Y-73058072D01*
X93716928Y-72935586D01*
X93576788Y-72833768D01*
X93422445Y-72755127D01*
X93257701Y-72701598D01*
X93257699Y-72701597D01*
X93257698Y-72701597D01*
X93108949Y-72678038D01*
X93086611Y-72674500D01*
X92913389Y-72674500D01*
X92891051Y-72678038D01*
X92742302Y-72701597D01*
X92577552Y-72755128D01*
X92423211Y-72833768D01*
X92354492Y-72883696D01*
X92283072Y-72935586D01*
X92283070Y-72935588D01*
X92283069Y-72935588D01*
X92160588Y-73058069D01*
X92160581Y-73058078D01*
X92100317Y-73141023D01*
X92044987Y-73183689D01*
X91975374Y-73189667D01*
X91913579Y-73157061D01*
X91899683Y-73141023D01*
X91839418Y-73058078D01*
X91839414Y-73058072D01*
X91716928Y-72935586D01*
X91576788Y-72833768D01*
X91422445Y-72755127D01*
X91257701Y-72701598D01*
X91257699Y-72701597D01*
X91257698Y-72701597D01*
X91108949Y-72678038D01*
X91086611Y-72674500D01*
X90913389Y-72674500D01*
X90891051Y-72678038D01*
X90742302Y-72701597D01*
X90577552Y-72755128D01*
X90423211Y-72833768D01*
X90354492Y-72883696D01*
X90283072Y-72935586D01*
X90283070Y-72935588D01*
X90283069Y-72935588D01*
X90160588Y-73058069D01*
X90160581Y-73058078D01*
X90100317Y-73141023D01*
X90081615Y-73155444D01*
X90065965Y-73173135D01*
X90054457Y-73176385D01*
X90044987Y-73183689D01*
X90021452Y-73185710D01*
X89998727Y-73192130D01*
X89987289Y-73188643D01*
X89975374Y-73189667D01*
X89954485Y-73178645D01*
X89931893Y-73171759D01*
X89920090Y-73160496D01*
X89913579Y-73157061D01*
X89905458Y-73148373D01*
X89902426Y-73144801D01*
X89839414Y-73058072D01*
X89769401Y-72988059D01*
X89766126Y-72984200D01*
X89753911Y-72956711D01*
X89739502Y-72930322D01*
X89739874Y-72925119D01*
X89737755Y-72920350D01*
X89742341Y-72890623D01*
X89744486Y-72860630D01*
X89747612Y-72856453D01*
X89748408Y-72851297D01*
X89768336Y-72828769D01*
X89786358Y-72804697D01*
X89791766Y-72800869D01*
X89835289Y-72771789D01*
X89946789Y-72660289D01*
X90034394Y-72529179D01*
X90094737Y-72383497D01*
X90125500Y-72228842D01*
X90125500Y-72071158D01*
X90125500Y-72071155D01*
X90125499Y-72071153D01*
X90112110Y-72003842D01*
X90094737Y-71916503D01*
X90085246Y-71893589D01*
X90034397Y-71770827D01*
X90034390Y-71770814D01*
X89946789Y-71639711D01*
X89946786Y-71639707D01*
X89835292Y-71528213D01*
X89835288Y-71528210D01*
X89704185Y-71440609D01*
X89704172Y-71440602D01*
X89558501Y-71380264D01*
X89558489Y-71380261D01*
X89403845Y-71349500D01*
X89403842Y-71349500D01*
X89246158Y-71349500D01*
X89246155Y-71349500D01*
X89091510Y-71380261D01*
X89091498Y-71380264D01*
X88945827Y-71440602D01*
X88945814Y-71440609D01*
X88814711Y-71528210D01*
X88814707Y-71528213D01*
X88703213Y-71639707D01*
X88703210Y-71639711D01*
X88615609Y-71770814D01*
X88615602Y-71770827D01*
X88555264Y-71916498D01*
X88555261Y-71916510D01*
X88524500Y-72071153D01*
X88524500Y-72228846D01*
X88555261Y-72383489D01*
X88555264Y-72383501D01*
X88615602Y-72529172D01*
X88615606Y-72529179D01*
X88641854Y-72568462D01*
X88662732Y-72635139D01*
X88644248Y-72702519D01*
X88592270Y-72749209D01*
X88580014Y-72754108D01*
X88577556Y-72755126D01*
X88423211Y-72833768D01*
X88354492Y-72883696D01*
X88283072Y-72935586D01*
X88283070Y-72935588D01*
X88283069Y-72935588D01*
X88160588Y-73058069D01*
X88160581Y-73058078D01*
X88100317Y-73141023D01*
X88044987Y-73183689D01*
X87975374Y-73189667D01*
X87913579Y-73157061D01*
X87899683Y-73141023D01*
X87839418Y-73058078D01*
X87839414Y-73058072D01*
X87716928Y-72935586D01*
X87576788Y-72833768D01*
X87422445Y-72755127D01*
X87257701Y-72701598D01*
X87257699Y-72701597D01*
X87257698Y-72701597D01*
X87108949Y-72678038D01*
X87086611Y-72674500D01*
X86913389Y-72674500D01*
X86891051Y-72678038D01*
X86742302Y-72701597D01*
X86577552Y-72755128D01*
X86423211Y-72833768D01*
X86354492Y-72883696D01*
X86283072Y-72935586D01*
X86283070Y-72935588D01*
X86283069Y-72935588D01*
X86160588Y-73058069D01*
X86160581Y-73058078D01*
X86100317Y-73141023D01*
X86044987Y-73183689D01*
X85975374Y-73189667D01*
X85913579Y-73157061D01*
X85899683Y-73141023D01*
X85839418Y-73058078D01*
X85839414Y-73058072D01*
X85716928Y-72935586D01*
X85576788Y-72833768D01*
X85422445Y-72755127D01*
X85257701Y-72701598D01*
X85257699Y-72701597D01*
X85257698Y-72701597D01*
X85108949Y-72678038D01*
X85086611Y-72674500D01*
X84913389Y-72674500D01*
X84891051Y-72678038D01*
X84742302Y-72701597D01*
X84577552Y-72755128D01*
X84423211Y-72833768D01*
X84283073Y-72935585D01*
X84175530Y-73043128D01*
X84114207Y-73076612D01*
X84044515Y-73071628D01*
X83988582Y-73029756D01*
X83982310Y-73020543D01*
X83964102Y-72991023D01*
X83942712Y-72956344D01*
X83818656Y-72832288D01*
X83693559Y-72755128D01*
X83669336Y-72740187D01*
X83669331Y-72740185D01*
X83667862Y-72739698D01*
X83502797Y-72685001D01*
X83502795Y-72685000D01*
X83400010Y-72674500D01*
X82599998Y-72674500D01*
X82599977Y-72674502D01*
X82565360Y-72678038D01*
X82496667Y-72665268D01*
X82445784Y-72617386D01*
X82428864Y-72549596D01*
X82451281Y-72483420D01*
X82465080Y-72466998D01*
X82496786Y-72435292D01*
X82496789Y-72435289D01*
X82584394Y-72304179D01*
X82644737Y-72158497D01*
X82675500Y-72003842D01*
X82675500Y-71846158D01*
X82675500Y-71846155D01*
X82675499Y-71846153D01*
X82661246Y-71774500D01*
X82644737Y-71691503D01*
X82623283Y-71639707D01*
X82584397Y-71545827D01*
X82584390Y-71545814D01*
X82496789Y-71414711D01*
X82496786Y-71414707D01*
X82385292Y-71303213D01*
X82385288Y-71303210D01*
X82254185Y-71215609D01*
X82254172Y-71215602D01*
X82108501Y-71155264D01*
X82108489Y-71155261D01*
X81953845Y-71124500D01*
X81953842Y-71124500D01*
X81796158Y-71124500D01*
X81796155Y-71124500D01*
X81641510Y-71155261D01*
X81641498Y-71155264D01*
X81495827Y-71215602D01*
X81495814Y-71215609D01*
X81364711Y-71303210D01*
X81364707Y-71303213D01*
X81253213Y-71414707D01*
X81253210Y-71414711D01*
X81165609Y-71545814D01*
X81165602Y-71545827D01*
X81105264Y-71691498D01*
X81105261Y-71691510D01*
X81074500Y-71846153D01*
X76092980Y-71846153D01*
X75995640Y-71814526D01*
X75869284Y-71794513D01*
X75742930Y-71774500D01*
X75487070Y-71774500D01*
X75402833Y-71787842D01*
X75234359Y-71814526D01*
X74991027Y-71893588D01*
X74991024Y-71893589D01*
X74763049Y-72009750D01*
X74556064Y-72160132D01*
X74556059Y-72160136D01*
X74375136Y-72341059D01*
X74375132Y-72341064D01*
X74224750Y-72548049D01*
X74108589Y-72776024D01*
X74108588Y-72776027D01*
X74029526Y-73019359D01*
X73989500Y-73272070D01*
X72751242Y-73272070D01*
X72752438Y-70071153D01*
X84699500Y-70071153D01*
X84699500Y-70228846D01*
X84730261Y-70383488D01*
X84730264Y-70383501D01*
X84790602Y-70529172D01*
X84790609Y-70529185D01*
X84878210Y-70660288D01*
X84878213Y-70660292D01*
X84989707Y-70771786D01*
X84989711Y-70771789D01*
X85120814Y-70859390D01*
X85120827Y-70859397D01*
X85266498Y-70919735D01*
X85266503Y-70919737D01*
X85421153Y-70950499D01*
X85421156Y-70950500D01*
X85421158Y-70950500D01*
X85578844Y-70950500D01*
X85578845Y-70950499D01*
X85733497Y-70919737D01*
X85879179Y-70859394D01*
X86010289Y-70771789D01*
X86121789Y-70660289D01*
X86209394Y-70529179D01*
X86269737Y-70383497D01*
X86275762Y-70353210D01*
X86285320Y-70305152D01*
X86300500Y-70228842D01*
X86300500Y-70121153D01*
X88524500Y-70121153D01*
X88524500Y-70278846D01*
X88555261Y-70433489D01*
X88555264Y-70433501D01*
X88615602Y-70579172D01*
X88615609Y-70579185D01*
X88703210Y-70710288D01*
X88703213Y-70710292D01*
X88814707Y-70821786D01*
X88814711Y-70821789D01*
X88945814Y-70909390D01*
X88945827Y-70909397D01*
X89045060Y-70950500D01*
X89091503Y-70969737D01*
X89246153Y-71000499D01*
X89246156Y-71000500D01*
X89246158Y-71000500D01*
X89403844Y-71000500D01*
X89403845Y-71000499D01*
X89558497Y-70969737D01*
X89704179Y-70909394D01*
X89835289Y-70821789D01*
X89946789Y-70710289D01*
X90034394Y-70579179D01*
X90094737Y-70433497D01*
X90125500Y-70278842D01*
X90125500Y-70121158D01*
X90125500Y-70121155D01*
X90119155Y-70089258D01*
X90119155Y-70089257D01*
X90115554Y-70071153D01*
X92649500Y-70071153D01*
X92649500Y-70228846D01*
X92680261Y-70383488D01*
X92680264Y-70383501D01*
X92740602Y-70529172D01*
X92740609Y-70529185D01*
X92828210Y-70660288D01*
X92828213Y-70660292D01*
X92939707Y-70771786D01*
X92939711Y-70771789D01*
X93070814Y-70859390D01*
X93070827Y-70859397D01*
X93216498Y-70919735D01*
X93216503Y-70919737D01*
X93371153Y-70950499D01*
X93371156Y-70950500D01*
X93371158Y-70950500D01*
X93528844Y-70950500D01*
X93528845Y-70950499D01*
X93683497Y-70919737D01*
X93740434Y-70896153D01*
X107749500Y-70896153D01*
X107749500Y-71053846D01*
X107780261Y-71208489D01*
X107780264Y-71208501D01*
X107840602Y-71354172D01*
X107840609Y-71354185D01*
X107928210Y-71485288D01*
X107928213Y-71485292D01*
X108039707Y-71596786D01*
X108039711Y-71596789D01*
X108170814Y-71684390D01*
X108170827Y-71684397D01*
X108316498Y-71744735D01*
X108316503Y-71744737D01*
X108466131Y-71774500D01*
X108471153Y-71775499D01*
X108471156Y-71775500D01*
X108471158Y-71775500D01*
X108628844Y-71775500D01*
X108628845Y-71775499D01*
X108783497Y-71744737D01*
X108929179Y-71684394D01*
X109060289Y-71596789D01*
X109171789Y-71485289D01*
X109259394Y-71354179D01*
X109319737Y-71208497D01*
X109350500Y-71053842D01*
X109350500Y-70896158D01*
X109350500Y-70896155D01*
X109350499Y-70896153D01*
X109624500Y-70896153D01*
X109624500Y-71053846D01*
X109655261Y-71208489D01*
X109655264Y-71208501D01*
X109715602Y-71354172D01*
X109715609Y-71354185D01*
X109803210Y-71485288D01*
X109803213Y-71485292D01*
X109914707Y-71596786D01*
X109914711Y-71596789D01*
X110045814Y-71684390D01*
X110045827Y-71684397D01*
X110191498Y-71744735D01*
X110191503Y-71744737D01*
X110341131Y-71774500D01*
X110346153Y-71775499D01*
X110346156Y-71775500D01*
X110346158Y-71775500D01*
X110503844Y-71775500D01*
X110503845Y-71775499D01*
X110658497Y-71744737D01*
X110804179Y-71684394D01*
X110935289Y-71596789D01*
X111046789Y-71485289D01*
X111134394Y-71354179D01*
X111194737Y-71208497D01*
X111225500Y-71053842D01*
X111225500Y-70896158D01*
X111225500Y-70896155D01*
X111225499Y-70896153D01*
X111474500Y-70896153D01*
X111474500Y-71053846D01*
X111505261Y-71208489D01*
X111505264Y-71208501D01*
X111565602Y-71354172D01*
X111565609Y-71354185D01*
X111653210Y-71485288D01*
X111653213Y-71485292D01*
X111764707Y-71596786D01*
X111764711Y-71596789D01*
X111895814Y-71684390D01*
X111895827Y-71684397D01*
X112041498Y-71744735D01*
X112041503Y-71744737D01*
X112191131Y-71774500D01*
X112196153Y-71775499D01*
X112196156Y-71775500D01*
X112196158Y-71775500D01*
X112353844Y-71775500D01*
X112353845Y-71775499D01*
X112508497Y-71744737D01*
X112654179Y-71684394D01*
X112785289Y-71596789D01*
X112896789Y-71485289D01*
X112984394Y-71354179D01*
X113044737Y-71208497D01*
X113075500Y-71053842D01*
X113075500Y-70896158D01*
X113075500Y-70896155D01*
X113075499Y-70896153D01*
X113066418Y-70850499D01*
X113044737Y-70741503D01*
X113031808Y-70710289D01*
X112984397Y-70595827D01*
X112984390Y-70595814D01*
X112896789Y-70464711D01*
X112896786Y-70464707D01*
X112785292Y-70353213D01*
X112785288Y-70353210D01*
X112654185Y-70265609D01*
X112654172Y-70265602D01*
X112508501Y-70205264D01*
X112508489Y-70205261D01*
X112353845Y-70174500D01*
X112353842Y-70174500D01*
X112196158Y-70174500D01*
X112196155Y-70174500D01*
X112041510Y-70205261D01*
X112041498Y-70205264D01*
X111895827Y-70265602D01*
X111895814Y-70265609D01*
X111764711Y-70353210D01*
X111764707Y-70353213D01*
X111653213Y-70464707D01*
X111653210Y-70464711D01*
X111565609Y-70595814D01*
X111565602Y-70595827D01*
X111505264Y-70741498D01*
X111505261Y-70741510D01*
X111474500Y-70896153D01*
X111225499Y-70896153D01*
X111216418Y-70850499D01*
X111194737Y-70741503D01*
X111181808Y-70710289D01*
X111134397Y-70595827D01*
X111134390Y-70595814D01*
X111046789Y-70464711D01*
X111046786Y-70464707D01*
X110935292Y-70353213D01*
X110935288Y-70353210D01*
X110804185Y-70265609D01*
X110804172Y-70265602D01*
X110658501Y-70205264D01*
X110658489Y-70205261D01*
X110503845Y-70174500D01*
X110503842Y-70174500D01*
X110346158Y-70174500D01*
X110346155Y-70174500D01*
X110191510Y-70205261D01*
X110191498Y-70205264D01*
X110045827Y-70265602D01*
X110045814Y-70265609D01*
X109914711Y-70353210D01*
X109914707Y-70353213D01*
X109803213Y-70464707D01*
X109803210Y-70464711D01*
X109715609Y-70595814D01*
X109715602Y-70595827D01*
X109655264Y-70741498D01*
X109655261Y-70741510D01*
X109624500Y-70896153D01*
X109350499Y-70896153D01*
X109341418Y-70850499D01*
X109319737Y-70741503D01*
X109306808Y-70710289D01*
X109259397Y-70595827D01*
X109259390Y-70595814D01*
X109171789Y-70464711D01*
X109171786Y-70464707D01*
X109060292Y-70353213D01*
X109060288Y-70353210D01*
X108929185Y-70265609D01*
X108929172Y-70265602D01*
X108783501Y-70205264D01*
X108783489Y-70205261D01*
X108628845Y-70174500D01*
X108628842Y-70174500D01*
X108471158Y-70174500D01*
X108471155Y-70174500D01*
X108316510Y-70205261D01*
X108316498Y-70205264D01*
X108170827Y-70265602D01*
X108170814Y-70265609D01*
X108039711Y-70353210D01*
X108039707Y-70353213D01*
X107928213Y-70464707D01*
X107928210Y-70464711D01*
X107840609Y-70595814D01*
X107840602Y-70595827D01*
X107780264Y-70741498D01*
X107780261Y-70741510D01*
X107749500Y-70896153D01*
X93740434Y-70896153D01*
X93829179Y-70859394D01*
X93960289Y-70771789D01*
X94071789Y-70660289D01*
X94159394Y-70529179D01*
X94219737Y-70383497D01*
X94225762Y-70353210D01*
X94235320Y-70305152D01*
X94250500Y-70228842D01*
X94250500Y-70071158D01*
X94250500Y-70071155D01*
X94250499Y-70071153D01*
X94230326Y-69969737D01*
X94219737Y-69916503D01*
X94188443Y-69840952D01*
X94159397Y-69770827D01*
X94159390Y-69770814D01*
X94071789Y-69639711D01*
X94071786Y-69639707D01*
X93960292Y-69528213D01*
X93960288Y-69528210D01*
X93829185Y-69440609D01*
X93829172Y-69440602D01*
X93683501Y-69380264D01*
X93683489Y-69380261D01*
X93528845Y-69349500D01*
X93528842Y-69349500D01*
X93371158Y-69349500D01*
X93371155Y-69349500D01*
X93216510Y-69380261D01*
X93216498Y-69380264D01*
X93070827Y-69440602D01*
X93070814Y-69440609D01*
X92939711Y-69528210D01*
X92939707Y-69528213D01*
X92828213Y-69639707D01*
X92828210Y-69639711D01*
X92740609Y-69770814D01*
X92740602Y-69770827D01*
X92680264Y-69916498D01*
X92680261Y-69916510D01*
X92649500Y-70071153D01*
X90115554Y-70071153D01*
X90094738Y-69966510D01*
X90094737Y-69966503D01*
X90094735Y-69966498D01*
X90034397Y-69820827D01*
X90034390Y-69820814D01*
X89946789Y-69689711D01*
X89946786Y-69689707D01*
X89835292Y-69578213D01*
X89835288Y-69578210D01*
X89704185Y-69490609D01*
X89704172Y-69490602D01*
X89558501Y-69430264D01*
X89558489Y-69430261D01*
X89403845Y-69399500D01*
X89403842Y-69399500D01*
X89246158Y-69399500D01*
X89246155Y-69399500D01*
X89091510Y-69430261D01*
X89091498Y-69430264D01*
X88945827Y-69490602D01*
X88945814Y-69490609D01*
X88814711Y-69578210D01*
X88814707Y-69578213D01*
X88703213Y-69689707D01*
X88703210Y-69689711D01*
X88615609Y-69820814D01*
X88615602Y-69820827D01*
X88555264Y-69966498D01*
X88555261Y-69966510D01*
X88524500Y-70121153D01*
X86300500Y-70121153D01*
X86300500Y-70071158D01*
X86300500Y-70071155D01*
X86300499Y-70071153D01*
X86280326Y-69969737D01*
X86269737Y-69916503D01*
X86238443Y-69840952D01*
X86209397Y-69770827D01*
X86209390Y-69770814D01*
X86121789Y-69639711D01*
X86121786Y-69639707D01*
X86010292Y-69528213D01*
X86010288Y-69528210D01*
X85879185Y-69440609D01*
X85879172Y-69440602D01*
X85733501Y-69380264D01*
X85733489Y-69380261D01*
X85578845Y-69349500D01*
X85578842Y-69349500D01*
X85421158Y-69349500D01*
X85421155Y-69349500D01*
X85266510Y-69380261D01*
X85266498Y-69380264D01*
X85120827Y-69440602D01*
X85120814Y-69440609D01*
X84989711Y-69528210D01*
X84989707Y-69528213D01*
X84878213Y-69639707D01*
X84878210Y-69639711D01*
X84790609Y-69770814D01*
X84790602Y-69770827D01*
X84730264Y-69916498D01*
X84730261Y-69916510D01*
X84699500Y-70071153D01*
X72752438Y-70071153D01*
X72752793Y-69121153D01*
X129399500Y-69121153D01*
X129399500Y-69278846D01*
X129430261Y-69433489D01*
X129430264Y-69433501D01*
X129490602Y-69579172D01*
X129490609Y-69579185D01*
X129578210Y-69710288D01*
X129578213Y-69710292D01*
X129689707Y-69821786D01*
X129689711Y-69821789D01*
X129820814Y-69909390D01*
X129820827Y-69909397D01*
X129904498Y-69944054D01*
X129966503Y-69969737D01*
X130121153Y-70000499D01*
X130121156Y-70000500D01*
X130121158Y-70000500D01*
X130278844Y-70000500D01*
X130278845Y-70000499D01*
X130433497Y-69969737D01*
X130579179Y-69909394D01*
X130681610Y-69840951D01*
X130748286Y-69820074D01*
X130815666Y-69838558D01*
X130862357Y-69890537D01*
X130874500Y-69944054D01*
X130874500Y-70397870D01*
X130874501Y-70397876D01*
X130880908Y-70457483D01*
X130931202Y-70592328D01*
X130931206Y-70592335D01*
X131017452Y-70707544D01*
X131017455Y-70707547D01*
X131132664Y-70793793D01*
X131132671Y-70793797D01*
X131267517Y-70844091D01*
X131267516Y-70844091D01*
X131274444Y-70844835D01*
X131327127Y-70850500D01*
X133122872Y-70850499D01*
X133182483Y-70844091D01*
X133317331Y-70793796D01*
X133432546Y-70707546D01*
X133518796Y-70592331D01*
X133567810Y-70460916D01*
X133609681Y-70404984D01*
X133675145Y-70380566D01*
X133743418Y-70395417D01*
X133771673Y-70416569D01*
X133885213Y-70530109D01*
X134057179Y-70655048D01*
X134057181Y-70655049D01*
X134057184Y-70655051D01*
X134246588Y-70751557D01*
X134448757Y-70817246D01*
X134658713Y-70850500D01*
X134658714Y-70850500D01*
X134871286Y-70850500D01*
X134871287Y-70850500D01*
X135081243Y-70817246D01*
X135283412Y-70751557D01*
X135472816Y-70655051D01*
X135494789Y-70639086D01*
X135644786Y-70530109D01*
X135644788Y-70530106D01*
X135644792Y-70530104D01*
X135795104Y-70379792D01*
X135795106Y-70379788D01*
X135795109Y-70379786D01*
X135920048Y-70207820D01*
X135920047Y-70207820D01*
X135920051Y-70207816D01*
X136016557Y-70018412D01*
X136082246Y-69816243D01*
X136115500Y-69606287D01*
X136115500Y-69393713D01*
X136082246Y-69183757D01*
X136016557Y-68981588D01*
X135920051Y-68792184D01*
X135920049Y-68792181D01*
X135920048Y-68792179D01*
X135795109Y-68620213D01*
X135644786Y-68469890D01*
X135472820Y-68344951D01*
X135283414Y-68248444D01*
X135283413Y-68248443D01*
X135283412Y-68248443D01*
X135081243Y-68182754D01*
X135081241Y-68182753D01*
X135081240Y-68182753D01*
X134919957Y-68157208D01*
X134871287Y-68149500D01*
X134658713Y-68149500D01*
X134610042Y-68157208D01*
X134448760Y-68182753D01*
X134246585Y-68248444D01*
X134057179Y-68344951D01*
X133885215Y-68469889D01*
X133771673Y-68583431D01*
X133710350Y-68616915D01*
X133640658Y-68611931D01*
X133584725Y-68570059D01*
X133567810Y-68539082D01*
X133518797Y-68407671D01*
X133518793Y-68407664D01*
X133432547Y-68292455D01*
X133432544Y-68292452D01*
X133317335Y-68206206D01*
X133317328Y-68206202D01*
X133182482Y-68155908D01*
X133182483Y-68155908D01*
X133122883Y-68149501D01*
X133122881Y-68149500D01*
X133122873Y-68149500D01*
X133122864Y-68149500D01*
X131327129Y-68149500D01*
X131327123Y-68149501D01*
X131267516Y-68155908D01*
X131132671Y-68206202D01*
X131132664Y-68206206D01*
X131017455Y-68292452D01*
X131017452Y-68292455D01*
X130931206Y-68407664D01*
X130931202Y-68407671D01*
X130890980Y-68515513D01*
X130849109Y-68571447D01*
X130783644Y-68595864D01*
X130715371Y-68581012D01*
X130705907Y-68575282D01*
X130579185Y-68490609D01*
X130579172Y-68490602D01*
X130433501Y-68430264D01*
X130433489Y-68430261D01*
X130278845Y-68399500D01*
X130278842Y-68399500D01*
X130121158Y-68399500D01*
X130121155Y-68399500D01*
X129966510Y-68430261D01*
X129966498Y-68430264D01*
X129820827Y-68490602D01*
X129820814Y-68490609D01*
X129689711Y-68578210D01*
X129689707Y-68578213D01*
X129578213Y-68689707D01*
X129578210Y-68689711D01*
X129490609Y-68820814D01*
X129490602Y-68820827D01*
X129430264Y-68966498D01*
X129430261Y-68966510D01*
X129399500Y-69121153D01*
X72752793Y-69121153D01*
X72752801Y-69100000D01*
X109250000Y-69100000D01*
X111750000Y-69100000D01*
X111750000Y-64900000D01*
X109250000Y-64900000D01*
X109250000Y-69100000D01*
X72752801Y-69100000D01*
X72753672Y-66771153D01*
X76949500Y-66771153D01*
X76949500Y-66928846D01*
X76980261Y-67083489D01*
X76980264Y-67083501D01*
X77040602Y-67229172D01*
X77040609Y-67229185D01*
X77128210Y-67360288D01*
X77128213Y-67360292D01*
X77239707Y-67471786D01*
X77239711Y-67471789D01*
X77370814Y-67559390D01*
X77370827Y-67559397D01*
X77461101Y-67596789D01*
X77516503Y-67619737D01*
X77671153Y-67650499D01*
X77671156Y-67650500D01*
X77671158Y-67650500D01*
X77828844Y-67650500D01*
X77828845Y-67650499D01*
X77983497Y-67619737D01*
X78129179Y-67559394D01*
X78260289Y-67471789D01*
X78371789Y-67360289D01*
X78459394Y-67229179D01*
X78519737Y-67083497D01*
X78550500Y-66928842D01*
X78550500Y-66771158D01*
X78550500Y-66771155D01*
X78550499Y-66771153D01*
X78530734Y-66671789D01*
X78519737Y-66616503D01*
X78511170Y-66595821D01*
X78459397Y-66470827D01*
X78459390Y-66470814D01*
X78371789Y-66339711D01*
X78371786Y-66339707D01*
X78260292Y-66228213D01*
X78260288Y-66228210D01*
X78129185Y-66140609D01*
X78129172Y-66140602D01*
X77983501Y-66080264D01*
X77983489Y-66080261D01*
X77828845Y-66049500D01*
X77828842Y-66049500D01*
X77671158Y-66049500D01*
X77671155Y-66049500D01*
X77516510Y-66080261D01*
X77516498Y-66080264D01*
X77370827Y-66140602D01*
X77370814Y-66140609D01*
X77239711Y-66228210D01*
X77239707Y-66228213D01*
X77128213Y-66339707D01*
X77128210Y-66339711D01*
X77040609Y-66470814D01*
X77040602Y-66470827D01*
X76980264Y-66616498D01*
X76980261Y-66616510D01*
X76949500Y-66771153D01*
X72753672Y-66771153D01*
X72754709Y-63996153D01*
X112149500Y-63996153D01*
X112149500Y-64153846D01*
X112180261Y-64308489D01*
X112180264Y-64308501D01*
X112240602Y-64454172D01*
X112240609Y-64454185D01*
X112300304Y-64543524D01*
X112321182Y-64610201D01*
X112302698Y-64677582D01*
X112300306Y-64681304D01*
X112290607Y-64695819D01*
X112290602Y-64695828D01*
X112230264Y-64841498D01*
X112230261Y-64841510D01*
X112199500Y-64996153D01*
X112199500Y-65153846D01*
X112230261Y-65308489D01*
X112230264Y-65308501D01*
X112290602Y-65454171D01*
X112290608Y-65454182D01*
X112304452Y-65474901D01*
X112325329Y-65541579D01*
X112306844Y-65608959D01*
X112304453Y-65612679D01*
X112265610Y-65670814D01*
X112265602Y-65670828D01*
X112205264Y-65816498D01*
X112205261Y-65816510D01*
X112174500Y-65971153D01*
X112174500Y-66128846D01*
X112205261Y-66283489D01*
X112205264Y-66283501D01*
X112265602Y-66429172D01*
X112265609Y-66429185D01*
X112353210Y-66560288D01*
X112353213Y-66560292D01*
X112464707Y-66671786D01*
X112464711Y-66671789D01*
X112576257Y-66746322D01*
X112621062Y-66799934D01*
X112629769Y-66869259D01*
X112628984Y-66873613D01*
X112624500Y-66896157D01*
X112624500Y-67053846D01*
X112655261Y-67208489D01*
X112655264Y-67208501D01*
X112715602Y-67354172D01*
X112715609Y-67354185D01*
X112803210Y-67485288D01*
X112803213Y-67485292D01*
X112914707Y-67596786D01*
X112914711Y-67596789D01*
X113045814Y-67684390D01*
X113045827Y-67684397D01*
X113191498Y-67744735D01*
X113191503Y-67744737D01*
X113346153Y-67775499D01*
X113346156Y-67775500D01*
X113346158Y-67775500D01*
X113503844Y-67775500D01*
X113503845Y-67775499D01*
X113658497Y-67744737D01*
X113804179Y-67684394D01*
X113935289Y-67596789D01*
X114046789Y-67485289D01*
X114134394Y-67354179D01*
X114194737Y-67208497D01*
X114225500Y-67053842D01*
X114225500Y-66896158D01*
X114225500Y-66896157D01*
X114225500Y-66896155D01*
X114225499Y-66896153D01*
X114220149Y-66869259D01*
X114194737Y-66741503D01*
X114165861Y-66671789D01*
X114134397Y-66595827D01*
X114134390Y-66595814D01*
X114046789Y-66464711D01*
X114046786Y-66464707D01*
X113935292Y-66353213D01*
X113935288Y-66353210D01*
X113823742Y-66278677D01*
X113778937Y-66225065D01*
X113770230Y-66155740D01*
X113771008Y-66151419D01*
X113775500Y-66128842D01*
X113775500Y-65971158D01*
X113775500Y-65971155D01*
X113775499Y-65971153D01*
X113744738Y-65816510D01*
X113744737Y-65816503D01*
X113684394Y-65670821D01*
X113667912Y-65646153D01*
X130399500Y-65646153D01*
X130399500Y-65803846D01*
X130430261Y-65958489D01*
X130430264Y-65958501D01*
X130490602Y-66104172D01*
X130490609Y-66104185D01*
X130578210Y-66235288D01*
X130578213Y-66235292D01*
X130689707Y-66346786D01*
X130689711Y-66346789D01*
X130820814Y-66434390D01*
X130820827Y-66434397D01*
X130966498Y-66494735D01*
X130966503Y-66494737D01*
X131121153Y-66525499D01*
X131121156Y-66525500D01*
X131121158Y-66525500D01*
X131278844Y-66525500D01*
X131278845Y-66525499D01*
X131433497Y-66494737D01*
X131579179Y-66434394D01*
X131710289Y-66346789D01*
X131821789Y-66235289D01*
X131909394Y-66104179D01*
X131969737Y-65958497D01*
X132000500Y-65803842D01*
X132000500Y-65646158D01*
X132000500Y-65646155D01*
X132000499Y-65646153D01*
X131999425Y-65640753D01*
X131969737Y-65491503D01*
X131949286Y-65442129D01*
X131909397Y-65345827D01*
X131909390Y-65345814D01*
X131821789Y-65214711D01*
X131821786Y-65214707D01*
X131710292Y-65103213D01*
X131710288Y-65103210D01*
X131579185Y-65015609D01*
X131579172Y-65015602D01*
X131433501Y-64955264D01*
X131433489Y-64955261D01*
X131278845Y-64924500D01*
X131278842Y-64924500D01*
X131121158Y-64924500D01*
X131121155Y-64924500D01*
X130966510Y-64955261D01*
X130966498Y-64955264D01*
X130820827Y-65015602D01*
X130820814Y-65015609D01*
X130689711Y-65103210D01*
X130689707Y-65103213D01*
X130578213Y-65214707D01*
X130578210Y-65214711D01*
X130490609Y-65345814D01*
X130490602Y-65345827D01*
X130430264Y-65491498D01*
X130430261Y-65491510D01*
X130399500Y-65646153D01*
X113667912Y-65646153D01*
X113667506Y-65645546D01*
X113664882Y-65640753D01*
X113658539Y-65611751D01*
X113649669Y-65583421D01*
X113651157Y-65577994D01*
X113649955Y-65572496D01*
X113660299Y-65544668D01*
X113668153Y-65516041D01*
X113670518Y-65512359D01*
X113709394Y-65454179D01*
X113769737Y-65308497D01*
X113800500Y-65153842D01*
X113800500Y-64996158D01*
X113800500Y-64996155D01*
X113800499Y-64996153D01*
X113786246Y-64924500D01*
X113769737Y-64841503D01*
X113769735Y-64841498D01*
X113709397Y-64695827D01*
X113709390Y-64695814D01*
X113649695Y-64606475D01*
X113628817Y-64539798D01*
X113647301Y-64472418D01*
X113649697Y-64468691D01*
X113659394Y-64454179D01*
X113719737Y-64308497D01*
X113750500Y-64153842D01*
X113750500Y-63996158D01*
X113750500Y-63996155D01*
X113750499Y-63996153D01*
X113730734Y-63896789D01*
X113719737Y-63841503D01*
X113696452Y-63785288D01*
X113659397Y-63695827D01*
X113659390Y-63695814D01*
X113571789Y-63564711D01*
X113571786Y-63564707D01*
X113460292Y-63453213D01*
X113460288Y-63453210D01*
X113329185Y-63365609D01*
X113329172Y-63365602D01*
X113183501Y-63305264D01*
X113183489Y-63305261D01*
X113028845Y-63274500D01*
X113028842Y-63274500D01*
X112871158Y-63274500D01*
X112871155Y-63274500D01*
X112716510Y-63305261D01*
X112716498Y-63305264D01*
X112570827Y-63365602D01*
X112570814Y-63365609D01*
X112439711Y-63453210D01*
X112439707Y-63453213D01*
X112328213Y-63564707D01*
X112328210Y-63564711D01*
X112240609Y-63695814D01*
X112240602Y-63695827D01*
X112180264Y-63841498D01*
X112180261Y-63841510D01*
X112149500Y-63996153D01*
X72754709Y-63996153D01*
X72755204Y-62671153D01*
X75699500Y-62671153D01*
X75699500Y-62828846D01*
X75730261Y-62983489D01*
X75730264Y-62983501D01*
X75790602Y-63129172D01*
X75790609Y-63129185D01*
X75878210Y-63260288D01*
X75878213Y-63260292D01*
X75989707Y-63371786D01*
X75989711Y-63371789D01*
X76120814Y-63459390D01*
X76120827Y-63459397D01*
X76266498Y-63519735D01*
X76266503Y-63519737D01*
X76421153Y-63550499D01*
X76421156Y-63550500D01*
X76421158Y-63550500D01*
X76578844Y-63550500D01*
X76578845Y-63550499D01*
X76733497Y-63519737D01*
X76879179Y-63459394D01*
X77010289Y-63371789D01*
X77121789Y-63260289D01*
X77164643Y-63196153D01*
X130749500Y-63196153D01*
X130749500Y-63353846D01*
X130780261Y-63508489D01*
X130780264Y-63508501D01*
X130840602Y-63654172D01*
X130840609Y-63654185D01*
X130928210Y-63785288D01*
X130928213Y-63785292D01*
X131039707Y-63896786D01*
X131039711Y-63896789D01*
X131170814Y-63984390D01*
X131170827Y-63984397D01*
X131316498Y-64044735D01*
X131316503Y-64044737D01*
X131471153Y-64075499D01*
X131471156Y-64075500D01*
X131471158Y-64075500D01*
X131628844Y-64075500D01*
X131628845Y-64075499D01*
X131783497Y-64044737D01*
X131929179Y-63984394D01*
X132060289Y-63896789D01*
X132171789Y-63785289D01*
X132259394Y-63654179D01*
X132319737Y-63508497D01*
X132350500Y-63353842D01*
X132350500Y-63196158D01*
X132350500Y-63196155D01*
X132350499Y-63196153D01*
X132337177Y-63129179D01*
X132319737Y-63041503D01*
X132295712Y-62983501D01*
X132259397Y-62895827D01*
X132259390Y-62895814D01*
X132171789Y-62764711D01*
X132171786Y-62764707D01*
X132060292Y-62653213D01*
X132060288Y-62653210D01*
X131929185Y-62565609D01*
X131929172Y-62565602D01*
X131783501Y-62505264D01*
X131783489Y-62505261D01*
X131628845Y-62474500D01*
X131628842Y-62474500D01*
X131471158Y-62474500D01*
X131471155Y-62474500D01*
X131316510Y-62505261D01*
X131316498Y-62505264D01*
X131170827Y-62565602D01*
X131170814Y-62565609D01*
X131039711Y-62653210D01*
X131039707Y-62653213D01*
X130928213Y-62764707D01*
X130928210Y-62764711D01*
X130840609Y-62895814D01*
X130840602Y-62895827D01*
X130780264Y-63041498D01*
X130780261Y-63041510D01*
X130749500Y-63196153D01*
X77164643Y-63196153D01*
X77209394Y-63129179D01*
X77269737Y-62983497D01*
X77300500Y-62828842D01*
X77300500Y-62671158D01*
X77300500Y-62671155D01*
X77300499Y-62671153D01*
X77294399Y-62640486D01*
X77269737Y-62516503D01*
X77265081Y-62505263D01*
X77209397Y-62370827D01*
X77209390Y-62370814D01*
X77121789Y-62239711D01*
X77121786Y-62239707D01*
X77010289Y-62128210D01*
X76995259Y-62118168D01*
X76879185Y-62040609D01*
X76879172Y-62040602D01*
X76832217Y-62021153D01*
X77799500Y-62021153D01*
X77799500Y-62178846D01*
X77830261Y-62333489D01*
X77830264Y-62333501D01*
X77890602Y-62479172D01*
X77890609Y-62479185D01*
X77978210Y-62610288D01*
X77978213Y-62610292D01*
X78089707Y-62721786D01*
X78089711Y-62721789D01*
X78220814Y-62809390D01*
X78220827Y-62809397D01*
X78366498Y-62869735D01*
X78366503Y-62869737D01*
X78521153Y-62900499D01*
X78521156Y-62900500D01*
X78521158Y-62900500D01*
X78678844Y-62900500D01*
X78678845Y-62900499D01*
X78833497Y-62869737D01*
X78979179Y-62809394D01*
X79110289Y-62721789D01*
X79221789Y-62610289D01*
X79309394Y-62479179D01*
X79369737Y-62333497D01*
X79400500Y-62178842D01*
X79400500Y-62021158D01*
X79400500Y-62021155D01*
X79400499Y-62021153D01*
X79374264Y-61889257D01*
X79370662Y-61871153D01*
X90224500Y-61871153D01*
X90224500Y-62028846D01*
X90255261Y-62183489D01*
X90255264Y-62183501D01*
X90315602Y-62329172D01*
X90315609Y-62329185D01*
X90403210Y-62460288D01*
X90403213Y-62460292D01*
X90514707Y-62571786D01*
X90514711Y-62571789D01*
X90645814Y-62659390D01*
X90645827Y-62659397D01*
X90791498Y-62719735D01*
X90791503Y-62719737D01*
X90917176Y-62744735D01*
X90946153Y-62750499D01*
X90946156Y-62750500D01*
X90946158Y-62750500D01*
X91103844Y-62750500D01*
X91103845Y-62750499D01*
X91258497Y-62719737D01*
X91404179Y-62659394D01*
X91535289Y-62571789D01*
X91646789Y-62460289D01*
X91734394Y-62329179D01*
X91794737Y-62183497D01*
X91825500Y-62028842D01*
X91825500Y-61896153D01*
X92649500Y-61896153D01*
X92649500Y-62053846D01*
X92680261Y-62208489D01*
X92680264Y-62208501D01*
X92740602Y-62354172D01*
X92740609Y-62354185D01*
X92828210Y-62485288D01*
X92828213Y-62485292D01*
X92939707Y-62596786D01*
X92939711Y-62596789D01*
X93070814Y-62684390D01*
X93070827Y-62684397D01*
X93216498Y-62744735D01*
X93216503Y-62744737D01*
X93342955Y-62769890D01*
X93371153Y-62775499D01*
X93371156Y-62775500D01*
X93371158Y-62775500D01*
X93528844Y-62775500D01*
X93528845Y-62775499D01*
X93683497Y-62744737D01*
X93829179Y-62684394D01*
X93960289Y-62596789D01*
X94071789Y-62485289D01*
X94159394Y-62354179D01*
X94219737Y-62208497D01*
X94250500Y-62053842D01*
X94250500Y-61946153D01*
X108649500Y-61946153D01*
X108649500Y-62103846D01*
X108680261Y-62258489D01*
X108680264Y-62258501D01*
X108740602Y-62404172D01*
X108740609Y-62404185D01*
X108828210Y-62535288D01*
X108828213Y-62535292D01*
X108939707Y-62646786D01*
X108939711Y-62646789D01*
X109070814Y-62734390D01*
X109070827Y-62734397D01*
X109170060Y-62775500D01*
X109216503Y-62794737D01*
X109371153Y-62825499D01*
X109371156Y-62825500D01*
X109371158Y-62825500D01*
X109528844Y-62825500D01*
X109528845Y-62825499D01*
X109683497Y-62794737D01*
X109829179Y-62734394D01*
X109960289Y-62646789D01*
X110071789Y-62535289D01*
X110159394Y-62404179D01*
X110219737Y-62258497D01*
X110250500Y-62103842D01*
X110250500Y-61946158D01*
X110250500Y-61946155D01*
X110250499Y-61946153D01*
X110240553Y-61896153D01*
X110219737Y-61791503D01*
X110219735Y-61791498D01*
X110159397Y-61645827D01*
X110159389Y-61645813D01*
X110151468Y-61633958D01*
X110151467Y-61633957D01*
X110109503Y-61571153D01*
X112399500Y-61571153D01*
X112399500Y-61728846D01*
X112430261Y-61883489D01*
X112430264Y-61883501D01*
X112490602Y-62029172D01*
X112490609Y-62029185D01*
X112578210Y-62160288D01*
X112578213Y-62160292D01*
X112689707Y-62271786D01*
X112689711Y-62271789D01*
X112820814Y-62359390D01*
X112820827Y-62359397D01*
X112965969Y-62419516D01*
X112966503Y-62419737D01*
X113121153Y-62450499D01*
X113121156Y-62450500D01*
X113121158Y-62450500D01*
X113278844Y-62450500D01*
X113278845Y-62450499D01*
X113433497Y-62419737D01*
X113551592Y-62370821D01*
X113579172Y-62359397D01*
X113579172Y-62359396D01*
X113579179Y-62359394D01*
X113710289Y-62271789D01*
X113821789Y-62160289D01*
X113909394Y-62029179D01*
X113912719Y-62021153D01*
X113943784Y-61946153D01*
X113969737Y-61883497D01*
X113969737Y-61883496D01*
X113972068Y-61877869D01*
X113973343Y-61878397D01*
X114007799Y-61825810D01*
X114063980Y-61798618D01*
X114083497Y-61794737D01*
X114229179Y-61734394D01*
X114360289Y-61646789D01*
X114471789Y-61535289D01*
X114514643Y-61471153D01*
X124999500Y-61471153D01*
X124999500Y-61628846D01*
X125030261Y-61783489D01*
X125030264Y-61783501D01*
X125090602Y-61929172D01*
X125090609Y-61929185D01*
X125178210Y-62060288D01*
X125178213Y-62060292D01*
X125289707Y-62171786D01*
X125289711Y-62171789D01*
X125420814Y-62259390D01*
X125420827Y-62259397D01*
X125566498Y-62319735D01*
X125566503Y-62319737D01*
X125721153Y-62350499D01*
X125721156Y-62350500D01*
X125721158Y-62350500D01*
X125878844Y-62350500D01*
X125878845Y-62350499D01*
X126033497Y-62319737D01*
X126179179Y-62259394D01*
X126310289Y-62171789D01*
X126421789Y-62060289D01*
X126509394Y-61929179D01*
X126569737Y-61783497D01*
X126600500Y-61628842D01*
X126600500Y-61471158D01*
X126600500Y-61471155D01*
X126600499Y-61471153D01*
X126587176Y-61404174D01*
X126569737Y-61316503D01*
X126569367Y-61315609D01*
X126519956Y-61196319D01*
X126519944Y-61196292D01*
X126509394Y-61170821D01*
X126509390Y-61170814D01*
X126497963Y-61153713D01*
X133199500Y-61153713D01*
X133199500Y-61366287D01*
X133207455Y-61416510D01*
X133231948Y-61571158D01*
X133232754Y-61576243D01*
X133290569Y-61754179D01*
X133298444Y-61778414D01*
X133394951Y-61967820D01*
X133519890Y-62139786D01*
X133670213Y-62290109D01*
X133842182Y-62415050D01*
X133850946Y-62419516D01*
X133901742Y-62467491D01*
X133918536Y-62535312D01*
X133895998Y-62601447D01*
X133850946Y-62640484D01*
X133842182Y-62644949D01*
X133670213Y-62769890D01*
X133519890Y-62920213D01*
X133394951Y-63092179D01*
X133298444Y-63281585D01*
X133298443Y-63281587D01*
X133298443Y-63281588D01*
X133290750Y-63305264D01*
X133232753Y-63483760D01*
X133199500Y-63693713D01*
X133199500Y-63906286D01*
X133226300Y-64075499D01*
X133232754Y-64116243D01*
X133295221Y-64308497D01*
X133298444Y-64318414D01*
X133394951Y-64507820D01*
X133519890Y-64679786D01*
X133633430Y-64793326D01*
X133666915Y-64854649D01*
X133661931Y-64924341D01*
X133620059Y-64980274D01*
X133589083Y-64997189D01*
X133457669Y-65046203D01*
X133457664Y-65046206D01*
X133342455Y-65132452D01*
X133342452Y-65132455D01*
X133256206Y-65247664D01*
X133256202Y-65247671D01*
X133205908Y-65382517D01*
X133199501Y-65442116D01*
X133199501Y-65442123D01*
X133199500Y-65442135D01*
X133199500Y-67237870D01*
X133199501Y-67237876D01*
X133205908Y-67297483D01*
X133256202Y-67432328D01*
X133256206Y-67432335D01*
X133342452Y-67547544D01*
X133342455Y-67547547D01*
X133457664Y-67633793D01*
X133457671Y-67633797D01*
X133592517Y-67684091D01*
X133592516Y-67684091D01*
X133595335Y-67684394D01*
X133652127Y-67690500D01*
X135447872Y-67690499D01*
X135507483Y-67684091D01*
X135642331Y-67633796D01*
X135757546Y-67547546D01*
X135843796Y-67432331D01*
X135894091Y-67297483D01*
X135900500Y-67237873D01*
X135900499Y-65442128D01*
X135894091Y-65382517D01*
X135880404Y-65345821D01*
X135843797Y-65247671D01*
X135843793Y-65247664D01*
X135757547Y-65132455D01*
X135757544Y-65132452D01*
X135642335Y-65046206D01*
X135642328Y-65046202D01*
X135510917Y-64997189D01*
X135454983Y-64955318D01*
X135430566Y-64889853D01*
X135445418Y-64821580D01*
X135466563Y-64793332D01*
X135580104Y-64679792D01*
X135630665Y-64610201D01*
X135705048Y-64507820D01*
X135705047Y-64507820D01*
X135705051Y-64507816D01*
X135801557Y-64318412D01*
X135867246Y-64116243D01*
X135900500Y-63906287D01*
X135900500Y-63693713D01*
X135867246Y-63483757D01*
X135801557Y-63281588D01*
X135705051Y-63092184D01*
X135705049Y-63092181D01*
X135705048Y-63092179D01*
X135580109Y-62920213D01*
X135429786Y-62769890D01*
X135257820Y-62644951D01*
X135257115Y-62644591D01*
X135249054Y-62640485D01*
X135198259Y-62592512D01*
X135181463Y-62524692D01*
X135203999Y-62458556D01*
X135249054Y-62419515D01*
X135257816Y-62415051D01*
X135318694Y-62370821D01*
X135429786Y-62290109D01*
X135429788Y-62290106D01*
X135429792Y-62290104D01*
X135580104Y-62139792D01*
X135580106Y-62139788D01*
X135580109Y-62139786D01*
X135705048Y-61967820D01*
X135705047Y-61967820D01*
X135705051Y-61967816D01*
X135801557Y-61778412D01*
X135867246Y-61576243D01*
X135900500Y-61366287D01*
X135900500Y-61153713D01*
X135867246Y-60943757D01*
X135801557Y-60741588D01*
X135705051Y-60552184D01*
X135705049Y-60552181D01*
X135705048Y-60552179D01*
X135580109Y-60380213D01*
X135429786Y-60229890D01*
X135257820Y-60104951D01*
X135068414Y-60008444D01*
X135068413Y-60008443D01*
X135068412Y-60008443D01*
X134866243Y-59942754D01*
X134866241Y-59942753D01*
X134866240Y-59942753D01*
X134704957Y-59917208D01*
X134656287Y-59909500D01*
X134443713Y-59909500D01*
X134395042Y-59917208D01*
X134233760Y-59942753D01*
X134031585Y-60008444D01*
X133842179Y-60104951D01*
X133670213Y-60229890D01*
X133519890Y-60380213D01*
X133394951Y-60552179D01*
X133298444Y-60741585D01*
X133232753Y-60943760D01*
X133207398Y-61103846D01*
X133199500Y-61153713D01*
X126497963Y-61153713D01*
X126421789Y-61039711D01*
X126421786Y-61039707D01*
X126310292Y-60928213D01*
X126310288Y-60928210D01*
X126179185Y-60840609D01*
X126179172Y-60840602D01*
X126033501Y-60780264D01*
X126033489Y-60780261D01*
X125878845Y-60749500D01*
X125878842Y-60749500D01*
X125721158Y-60749500D01*
X125721155Y-60749500D01*
X125566510Y-60780261D01*
X125566498Y-60780264D01*
X125420827Y-60840602D01*
X125420814Y-60840609D01*
X125289711Y-60928210D01*
X125289707Y-60928213D01*
X125178213Y-61039707D01*
X125178210Y-61039711D01*
X125090609Y-61170814D01*
X125090602Y-61170827D01*
X125030264Y-61316498D01*
X125030261Y-61316510D01*
X124999500Y-61471153D01*
X114514643Y-61471153D01*
X114559394Y-61404179D01*
X114619737Y-61258497D01*
X114650500Y-61103842D01*
X114650500Y-60946158D01*
X114650500Y-60946155D01*
X114650499Y-60946153D01*
X114646930Y-60928210D01*
X114619737Y-60791503D01*
X114615081Y-60780263D01*
X114559397Y-60645827D01*
X114559390Y-60645814D01*
X114471789Y-60514711D01*
X114471786Y-60514707D01*
X114360292Y-60403213D01*
X114360288Y-60403210D01*
X114229185Y-60315609D01*
X114229172Y-60315602D01*
X114083501Y-60255264D01*
X114083489Y-60255261D01*
X113928845Y-60224500D01*
X113928842Y-60224500D01*
X113771158Y-60224500D01*
X113771155Y-60224500D01*
X113616510Y-60255261D01*
X113616498Y-60255264D01*
X113470827Y-60315602D01*
X113470814Y-60315609D01*
X113339711Y-60403210D01*
X113339707Y-60403213D01*
X113228213Y-60514707D01*
X113228210Y-60514711D01*
X113140609Y-60645814D01*
X113140602Y-60645827D01*
X113077932Y-60797130D01*
X113076660Y-60796603D01*
X113042183Y-60849204D01*
X112986021Y-60876380D01*
X112966506Y-60880261D01*
X112966500Y-60880263D01*
X112820827Y-60940602D01*
X112820814Y-60940609D01*
X112689711Y-61028210D01*
X112689707Y-61028213D01*
X112578213Y-61139707D01*
X112578210Y-61139711D01*
X112490609Y-61270814D01*
X112490602Y-61270827D01*
X112430264Y-61416498D01*
X112430261Y-61416510D01*
X112399500Y-61571153D01*
X110109503Y-61571153D01*
X110071789Y-61514711D01*
X110071786Y-61514707D01*
X109960292Y-61403213D01*
X109960288Y-61403210D01*
X109829185Y-61315609D01*
X109829172Y-61315602D01*
X109683501Y-61255264D01*
X109683489Y-61255261D01*
X109528845Y-61224500D01*
X109528842Y-61224500D01*
X109371158Y-61224500D01*
X109371155Y-61224500D01*
X109216510Y-61255261D01*
X109216498Y-61255264D01*
X109070827Y-61315602D01*
X109070814Y-61315609D01*
X108939711Y-61403210D01*
X108939707Y-61403213D01*
X108828213Y-61514707D01*
X108828210Y-61514711D01*
X108740609Y-61645814D01*
X108740602Y-61645827D01*
X108680264Y-61791498D01*
X108680261Y-61791510D01*
X108649500Y-61946153D01*
X94250500Y-61946153D01*
X94250500Y-61896158D01*
X94250500Y-61896155D01*
X94250499Y-61896153D01*
X94245527Y-61871158D01*
X94219737Y-61741503D01*
X94211170Y-61720821D01*
X94159397Y-61595827D01*
X94159390Y-61595814D01*
X94071789Y-61464711D01*
X94071786Y-61464707D01*
X93960292Y-61353213D01*
X93960288Y-61353210D01*
X93829185Y-61265609D01*
X93829172Y-61265602D01*
X93683501Y-61205264D01*
X93683489Y-61205261D01*
X93528845Y-61174500D01*
X93528842Y-61174500D01*
X93371158Y-61174500D01*
X93371155Y-61174500D01*
X93216510Y-61205261D01*
X93216498Y-61205264D01*
X93070827Y-61265602D01*
X93070814Y-61265609D01*
X92939711Y-61353210D01*
X92939707Y-61353213D01*
X92828213Y-61464707D01*
X92828210Y-61464711D01*
X92740609Y-61595814D01*
X92740602Y-61595827D01*
X92680264Y-61741498D01*
X92680261Y-61741510D01*
X92649500Y-61896153D01*
X91825500Y-61896153D01*
X91825500Y-61871158D01*
X91825500Y-61871155D01*
X91825499Y-61871153D01*
X91810299Y-61794737D01*
X91794737Y-61716503D01*
X91765861Y-61646789D01*
X91734397Y-61570827D01*
X91734390Y-61570814D01*
X91646789Y-61439711D01*
X91646786Y-61439707D01*
X91535292Y-61328213D01*
X91535288Y-61328210D01*
X91404185Y-61240609D01*
X91404172Y-61240602D01*
X91258501Y-61180264D01*
X91258489Y-61180261D01*
X91103845Y-61149500D01*
X91103842Y-61149500D01*
X90946158Y-61149500D01*
X90946155Y-61149500D01*
X90791510Y-61180261D01*
X90791498Y-61180264D01*
X90645827Y-61240602D01*
X90645814Y-61240609D01*
X90514711Y-61328210D01*
X90514707Y-61328213D01*
X90403213Y-61439707D01*
X90403210Y-61439711D01*
X90315609Y-61570814D01*
X90315602Y-61570827D01*
X90255264Y-61716498D01*
X90255261Y-61716510D01*
X90224500Y-61871153D01*
X79370662Y-61871153D01*
X79369738Y-61866507D01*
X79369735Y-61866498D01*
X79309397Y-61720827D01*
X79309390Y-61720814D01*
X79221789Y-61589711D01*
X79221786Y-61589707D01*
X79110292Y-61478213D01*
X79110288Y-61478210D01*
X78979185Y-61390609D01*
X78979172Y-61390602D01*
X78833501Y-61330264D01*
X78833489Y-61330261D01*
X78678845Y-61299500D01*
X78678842Y-61299500D01*
X78521158Y-61299500D01*
X78521155Y-61299500D01*
X78366510Y-61330261D01*
X78366498Y-61330264D01*
X78220827Y-61390602D01*
X78220814Y-61390609D01*
X78089711Y-61478210D01*
X78089707Y-61478213D01*
X77978213Y-61589707D01*
X77978210Y-61589711D01*
X77890609Y-61720814D01*
X77890602Y-61720827D01*
X77830264Y-61866498D01*
X77830261Y-61866510D01*
X77799500Y-62021153D01*
X76832217Y-62021153D01*
X76733501Y-61980264D01*
X76733489Y-61980261D01*
X76578845Y-61949500D01*
X76578842Y-61949500D01*
X76421158Y-61949500D01*
X76421155Y-61949500D01*
X76266510Y-61980261D01*
X76266498Y-61980264D01*
X76120827Y-62040602D01*
X76120814Y-62040609D01*
X75989711Y-62128210D01*
X75989707Y-62128213D01*
X75878213Y-62239707D01*
X75878210Y-62239711D01*
X75790609Y-62370814D01*
X75790602Y-62370827D01*
X75730264Y-62516498D01*
X75730261Y-62516510D01*
X75699500Y-62671153D01*
X72755204Y-62671153D01*
X72755718Y-61296153D01*
X73724500Y-61296153D01*
X73724500Y-61453846D01*
X73755261Y-61608489D01*
X73755264Y-61608501D01*
X73815602Y-61754172D01*
X73815609Y-61754185D01*
X73903210Y-61885288D01*
X73903213Y-61885292D01*
X74014707Y-61996786D01*
X74014711Y-61996789D01*
X74145814Y-62084390D01*
X74145827Y-62084397D01*
X74291498Y-62144735D01*
X74291503Y-62144737D01*
X74427487Y-62171786D01*
X74446153Y-62175499D01*
X74446156Y-62175500D01*
X74446158Y-62175500D01*
X74603844Y-62175500D01*
X74603845Y-62175499D01*
X74758497Y-62144737D01*
X74904179Y-62084394D01*
X75035289Y-61996789D01*
X75146789Y-61885289D01*
X75234394Y-61754179D01*
X75294737Y-61608497D01*
X75325500Y-61453842D01*
X75325500Y-61296158D01*
X75325500Y-61296155D01*
X75325499Y-61296153D01*
X75319422Y-61265602D01*
X75294737Y-61141503D01*
X75279138Y-61103844D01*
X75234394Y-60995820D01*
X75201207Y-60946153D01*
X97999500Y-60946153D01*
X97999500Y-61103846D01*
X98030261Y-61258489D01*
X98030264Y-61258501D01*
X98090602Y-61404172D01*
X98090609Y-61404185D01*
X98178210Y-61535288D01*
X98178213Y-61535292D01*
X98289707Y-61646786D01*
X98289711Y-61646789D01*
X98420814Y-61734390D01*
X98420827Y-61734397D01*
X98558683Y-61791498D01*
X98566503Y-61794737D01*
X98721153Y-61825499D01*
X98721156Y-61825500D01*
X98721158Y-61825500D01*
X98878844Y-61825500D01*
X98878845Y-61825499D01*
X99033497Y-61794737D01*
X99179179Y-61734394D01*
X99310289Y-61646789D01*
X99421789Y-61535289D01*
X99509394Y-61404179D01*
X99569737Y-61258497D01*
X99600500Y-61103842D01*
X99600500Y-60946158D01*
X99600500Y-60946155D01*
X99600499Y-60946153D01*
X100724500Y-60946153D01*
X100724500Y-61103846D01*
X100755261Y-61258489D01*
X100755264Y-61258501D01*
X100815602Y-61404172D01*
X100815609Y-61404185D01*
X100903210Y-61535288D01*
X100903213Y-61535292D01*
X101014707Y-61646786D01*
X101014711Y-61646789D01*
X101145814Y-61734390D01*
X101145827Y-61734397D01*
X101283683Y-61791498D01*
X101291503Y-61794737D01*
X101446153Y-61825499D01*
X101446156Y-61825500D01*
X101446158Y-61825500D01*
X101603844Y-61825500D01*
X101603845Y-61825499D01*
X101758497Y-61794737D01*
X101904179Y-61734394D01*
X102035289Y-61646789D01*
X102146789Y-61535289D01*
X102234394Y-61404179D01*
X102294737Y-61258497D01*
X102325500Y-61103842D01*
X102325500Y-60946158D01*
X102325500Y-60946155D01*
X102325499Y-60946153D01*
X103199500Y-60946153D01*
X103199500Y-61103846D01*
X103230261Y-61258489D01*
X103230264Y-61258501D01*
X103290602Y-61404172D01*
X103290609Y-61404185D01*
X103378210Y-61535288D01*
X103378213Y-61535292D01*
X103489707Y-61646786D01*
X103489711Y-61646789D01*
X103620814Y-61734390D01*
X103620827Y-61734397D01*
X103758683Y-61791498D01*
X103766503Y-61794737D01*
X103921153Y-61825499D01*
X103921156Y-61825500D01*
X103921158Y-61825500D01*
X104078844Y-61825500D01*
X104078845Y-61825499D01*
X104089179Y-61823443D01*
X104114287Y-61818450D01*
X104114292Y-61818449D01*
X104213986Y-61798618D01*
X104233497Y-61794737D01*
X104379179Y-61734394D01*
X104510289Y-61646789D01*
X104621789Y-61535289D01*
X104709394Y-61404179D01*
X104769737Y-61258497D01*
X104800500Y-61103842D01*
X104800500Y-60946158D01*
X104800500Y-60946155D01*
X104800499Y-60946153D01*
X104796930Y-60928210D01*
X104769737Y-60791503D01*
X104765081Y-60780263D01*
X104709397Y-60645827D01*
X104709390Y-60645814D01*
X104621789Y-60514711D01*
X104621786Y-60514707D01*
X104510292Y-60403213D01*
X104510288Y-60403210D01*
X104379185Y-60315609D01*
X104379172Y-60315602D01*
X104233501Y-60255264D01*
X104233489Y-60255261D01*
X104078845Y-60224500D01*
X104078842Y-60224500D01*
X103921158Y-60224500D01*
X103921155Y-60224500D01*
X103766510Y-60255261D01*
X103766498Y-60255264D01*
X103620827Y-60315602D01*
X103620814Y-60315609D01*
X103489711Y-60403210D01*
X103489707Y-60403213D01*
X103378213Y-60514707D01*
X103378210Y-60514711D01*
X103290609Y-60645814D01*
X103290602Y-60645827D01*
X103230264Y-60791498D01*
X103230261Y-60791510D01*
X103199500Y-60946153D01*
X102325499Y-60946153D01*
X102321930Y-60928210D01*
X102294737Y-60791503D01*
X102290081Y-60780263D01*
X102234397Y-60645827D01*
X102234390Y-60645814D01*
X102146789Y-60514711D01*
X102146786Y-60514707D01*
X102035292Y-60403213D01*
X102035288Y-60403210D01*
X101904185Y-60315609D01*
X101904172Y-60315602D01*
X101758501Y-60255264D01*
X101758489Y-60255261D01*
X101603845Y-60224500D01*
X101603842Y-60224500D01*
X101446158Y-60224500D01*
X101446155Y-60224500D01*
X101291510Y-60255261D01*
X101291498Y-60255264D01*
X101145827Y-60315602D01*
X101145814Y-60315609D01*
X101014711Y-60403210D01*
X101014707Y-60403213D01*
X100903213Y-60514707D01*
X100903210Y-60514711D01*
X100815609Y-60645814D01*
X100815602Y-60645827D01*
X100755264Y-60791498D01*
X100755261Y-60791510D01*
X100724500Y-60946153D01*
X99600499Y-60946153D01*
X99596930Y-60928210D01*
X99569737Y-60791503D01*
X99565081Y-60780263D01*
X99509397Y-60645827D01*
X99509390Y-60645814D01*
X99421789Y-60514711D01*
X99421786Y-60514707D01*
X99310292Y-60403213D01*
X99310288Y-60403210D01*
X99179185Y-60315609D01*
X99179172Y-60315602D01*
X99033501Y-60255264D01*
X99033489Y-60255261D01*
X98878845Y-60224500D01*
X98878842Y-60224500D01*
X98721158Y-60224500D01*
X98721155Y-60224500D01*
X98566510Y-60255261D01*
X98566498Y-60255264D01*
X98420827Y-60315602D01*
X98420814Y-60315609D01*
X98289711Y-60403210D01*
X98289707Y-60403213D01*
X98178213Y-60514707D01*
X98178210Y-60514711D01*
X98090609Y-60645814D01*
X98090602Y-60645827D01*
X98030264Y-60791498D01*
X98030261Y-60791510D01*
X97999500Y-60946153D01*
X75201207Y-60946153D01*
X75146789Y-60864711D01*
X75146786Y-60864707D01*
X75035292Y-60753213D01*
X75035288Y-60753210D01*
X74904185Y-60665609D01*
X74904172Y-60665602D01*
X74758501Y-60605264D01*
X74758489Y-60605261D01*
X74603845Y-60574500D01*
X74603842Y-60574500D01*
X74446158Y-60574500D01*
X74446155Y-60574500D01*
X74291510Y-60605261D01*
X74291498Y-60605264D01*
X74145827Y-60665602D01*
X74145814Y-60665609D01*
X74014711Y-60753210D01*
X74014707Y-60753213D01*
X73903213Y-60864707D01*
X73903210Y-60864711D01*
X73815609Y-60995814D01*
X73815602Y-60995827D01*
X73755264Y-61141498D01*
X73755261Y-61141510D01*
X73724500Y-61296153D01*
X72755718Y-61296153D01*
X72756297Y-59746153D01*
X75699500Y-59746153D01*
X75699500Y-59903846D01*
X75730261Y-60058489D01*
X75730264Y-60058501D01*
X75790602Y-60204172D01*
X75790609Y-60204185D01*
X75878210Y-60335288D01*
X75878213Y-60335292D01*
X75989707Y-60446786D01*
X75989711Y-60446789D01*
X76120814Y-60534390D01*
X76120827Y-60534397D01*
X76217646Y-60574500D01*
X76266503Y-60594737D01*
X76421153Y-60625499D01*
X76421156Y-60625500D01*
X76421158Y-60625500D01*
X76578844Y-60625500D01*
X76578845Y-60625499D01*
X76733497Y-60594737D01*
X76879179Y-60534394D01*
X77010289Y-60446789D01*
X77121789Y-60335289D01*
X77209394Y-60204179D01*
X77269737Y-60058497D01*
X77300500Y-59903842D01*
X77300500Y-59746158D01*
X77300500Y-59746155D01*
X77284209Y-59664258D01*
X77284209Y-59664257D01*
X77280608Y-59646153D01*
X77824500Y-59646153D01*
X77824500Y-59803846D01*
X77855261Y-59958489D01*
X77855264Y-59958501D01*
X77915602Y-60104172D01*
X77915609Y-60104185D01*
X78003210Y-60235288D01*
X78003213Y-60235292D01*
X78114707Y-60346786D01*
X78114711Y-60346789D01*
X78245814Y-60434390D01*
X78245827Y-60434397D01*
X78391498Y-60494735D01*
X78391503Y-60494737D01*
X78546153Y-60525499D01*
X78546156Y-60525500D01*
X78546158Y-60525500D01*
X78703844Y-60525500D01*
X78703845Y-60525499D01*
X78858497Y-60494737D01*
X79004179Y-60434394D01*
X79135289Y-60346789D01*
X79246789Y-60235289D01*
X79334394Y-60104179D01*
X79394737Y-59958497D01*
X79425500Y-59803842D01*
X79425500Y-59646158D01*
X79425500Y-59646155D01*
X79425499Y-59646153D01*
X79394738Y-59491510D01*
X79394737Y-59491503D01*
X79375812Y-59445814D01*
X79334397Y-59345827D01*
X79334390Y-59345814D01*
X79246789Y-59214711D01*
X79246786Y-59214707D01*
X79135292Y-59103213D01*
X79135288Y-59103210D01*
X79004185Y-59015609D01*
X79004172Y-59015602D01*
X78858501Y-58955264D01*
X78858489Y-58955261D01*
X78703845Y-58924500D01*
X78703842Y-58924500D01*
X78546158Y-58924500D01*
X78546155Y-58924500D01*
X78391510Y-58955261D01*
X78391498Y-58955264D01*
X78245827Y-59015602D01*
X78245814Y-59015609D01*
X78114711Y-59103210D01*
X78114707Y-59103213D01*
X78003213Y-59214707D01*
X78003210Y-59214711D01*
X77915609Y-59345814D01*
X77915602Y-59345827D01*
X77855264Y-59491498D01*
X77855261Y-59491510D01*
X77824500Y-59646153D01*
X77280608Y-59646153D01*
X77269738Y-59591510D01*
X77269737Y-59591503D01*
X77228314Y-59491498D01*
X77209397Y-59445827D01*
X77209390Y-59445814D01*
X77121789Y-59314711D01*
X77121786Y-59314707D01*
X77010292Y-59203213D01*
X77010288Y-59203210D01*
X76879185Y-59115609D01*
X76879172Y-59115602D01*
X76733501Y-59055264D01*
X76733489Y-59055261D01*
X76578845Y-59024500D01*
X76578842Y-59024500D01*
X76421158Y-59024500D01*
X76421155Y-59024500D01*
X76266510Y-59055261D01*
X76266498Y-59055264D01*
X76120827Y-59115602D01*
X76120814Y-59115609D01*
X75989711Y-59203210D01*
X75989707Y-59203213D01*
X75878213Y-59314707D01*
X75878210Y-59314711D01*
X75790609Y-59445814D01*
X75790602Y-59445827D01*
X75730264Y-59591498D01*
X75730261Y-59591510D01*
X75699500Y-59746153D01*
X72756297Y-59746153D01*
X72756811Y-58371153D01*
X73674500Y-58371153D01*
X73674500Y-58528846D01*
X73705261Y-58683489D01*
X73705264Y-58683501D01*
X73765602Y-58829172D01*
X73765609Y-58829185D01*
X73853210Y-58960288D01*
X73853213Y-58960292D01*
X73964707Y-59071786D01*
X73964711Y-59071789D01*
X74095814Y-59159390D01*
X74095827Y-59159397D01*
X74201603Y-59203210D01*
X74241503Y-59219737D01*
X74396153Y-59250499D01*
X74396156Y-59250500D01*
X74396158Y-59250500D01*
X74553844Y-59250500D01*
X74553845Y-59250499D01*
X74708497Y-59219737D01*
X74854179Y-59159394D01*
X74985289Y-59071789D01*
X75096789Y-58960289D01*
X75184394Y-58829179D01*
X75244737Y-58683497D01*
X75275500Y-58528842D01*
X75275500Y-58371158D01*
X75275500Y-58371155D01*
X75275499Y-58371153D01*
X75244738Y-58216510D01*
X75244737Y-58216503D01*
X75184794Y-58071786D01*
X75184397Y-58070827D01*
X75184390Y-58070814D01*
X75096789Y-57939711D01*
X75096786Y-57939707D01*
X74985292Y-57828213D01*
X74985288Y-57828210D01*
X74854185Y-57740609D01*
X74854172Y-57740602D01*
X74708501Y-57680264D01*
X74708489Y-57680261D01*
X74553845Y-57649500D01*
X74553842Y-57649500D01*
X74396158Y-57649500D01*
X74396155Y-57649500D01*
X74241510Y-57680261D01*
X74241498Y-57680264D01*
X74095827Y-57740602D01*
X74095814Y-57740609D01*
X73964711Y-57828210D01*
X73964707Y-57828213D01*
X73853213Y-57939707D01*
X73853210Y-57939711D01*
X73765609Y-58070814D01*
X73765602Y-58070827D01*
X73705264Y-58216498D01*
X73705261Y-58216510D01*
X73674500Y-58371153D01*
X72756811Y-58371153D01*
X72757427Y-56721153D01*
X75699500Y-56721153D01*
X75699500Y-56878846D01*
X75730261Y-57033489D01*
X75730264Y-57033501D01*
X75790602Y-57179172D01*
X75790609Y-57179185D01*
X75878210Y-57310288D01*
X75878213Y-57310292D01*
X75989707Y-57421786D01*
X75989711Y-57421789D01*
X76120814Y-57509390D01*
X76120827Y-57509397D01*
X76266498Y-57569735D01*
X76266503Y-57569737D01*
X76421153Y-57600499D01*
X76421156Y-57600500D01*
X76421158Y-57600500D01*
X76578844Y-57600500D01*
X76578845Y-57600499D01*
X76733497Y-57569737D01*
X76879179Y-57509394D01*
X77010289Y-57421789D01*
X77060925Y-57371153D01*
X77774500Y-57371153D01*
X77774500Y-57528846D01*
X77805261Y-57683489D01*
X77805264Y-57683501D01*
X77865602Y-57829172D01*
X77865609Y-57829185D01*
X77953210Y-57960288D01*
X77953213Y-57960292D01*
X78064707Y-58071786D01*
X78064711Y-58071789D01*
X78195814Y-58159390D01*
X78195827Y-58159397D01*
X78333683Y-58216498D01*
X78341503Y-58219737D01*
X78496153Y-58250499D01*
X78496156Y-58250500D01*
X78496158Y-58250500D01*
X78653844Y-58250500D01*
X78653845Y-58250499D01*
X78808497Y-58219737D01*
X78954179Y-58159394D01*
X79085289Y-58071789D01*
X79196789Y-57960289D01*
X79284394Y-57829179D01*
X79344737Y-57683497D01*
X79375500Y-57528842D01*
X79375500Y-57371158D01*
X79375500Y-57371155D01*
X79375499Y-57371153D01*
X79344738Y-57216510D01*
X79344737Y-57216503D01*
X79342089Y-57210109D01*
X79284397Y-57070827D01*
X79284390Y-57070814D01*
X79196789Y-56939711D01*
X79196786Y-56939707D01*
X79085292Y-56828213D01*
X79085288Y-56828210D01*
X78954185Y-56740609D01*
X78954172Y-56740602D01*
X78808501Y-56680264D01*
X78808489Y-56680261D01*
X78653845Y-56649500D01*
X78653842Y-56649500D01*
X78496158Y-56649500D01*
X78496155Y-56649500D01*
X78341510Y-56680261D01*
X78341498Y-56680264D01*
X78195827Y-56740602D01*
X78195814Y-56740609D01*
X78064711Y-56828210D01*
X78064707Y-56828213D01*
X77953213Y-56939707D01*
X77953210Y-56939711D01*
X77865609Y-57070814D01*
X77865602Y-57070827D01*
X77805264Y-57216498D01*
X77805261Y-57216510D01*
X77774500Y-57371153D01*
X77060925Y-57371153D01*
X77121789Y-57310289D01*
X77209394Y-57179179D01*
X77269737Y-57033497D01*
X77300500Y-56878842D01*
X77300500Y-56721158D01*
X77300500Y-56721155D01*
X77300499Y-56721153D01*
X77295976Y-56698414D01*
X77269737Y-56566503D01*
X77240633Y-56496239D01*
X77209397Y-56420827D01*
X77209390Y-56420814D01*
X77121789Y-56289711D01*
X77121786Y-56289707D01*
X77010292Y-56178213D01*
X77010288Y-56178210D01*
X76879185Y-56090609D01*
X76879172Y-56090602D01*
X76733501Y-56030264D01*
X76733489Y-56030261D01*
X76578845Y-55999500D01*
X76578842Y-55999500D01*
X76421158Y-55999500D01*
X76421155Y-55999500D01*
X76266510Y-56030261D01*
X76266498Y-56030264D01*
X76120827Y-56090602D01*
X76120814Y-56090609D01*
X75989711Y-56178210D01*
X75989707Y-56178213D01*
X75878213Y-56289707D01*
X75878210Y-56289711D01*
X75790609Y-56420814D01*
X75790602Y-56420827D01*
X75730264Y-56566498D01*
X75730261Y-56566510D01*
X75699500Y-56721153D01*
X72757427Y-56721153D01*
X72758174Y-54721153D01*
X127874500Y-54721153D01*
X127874500Y-54878846D01*
X127905261Y-55033489D01*
X127905264Y-55033501D01*
X127959752Y-55165048D01*
X127967221Y-55234517D01*
X127959752Y-55259952D01*
X127905264Y-55391498D01*
X127905261Y-55391510D01*
X127874500Y-55546153D01*
X127874500Y-55703846D01*
X127905261Y-55858489D01*
X127905264Y-55858501D01*
X127965602Y-56004172D01*
X127965609Y-56004185D01*
X128053210Y-56135288D01*
X128053213Y-56135292D01*
X128164707Y-56246786D01*
X128164711Y-56246789D01*
X128295814Y-56334390D01*
X128295827Y-56334397D01*
X128441498Y-56394735D01*
X128441503Y-56394737D01*
X128596153Y-56425499D01*
X128596156Y-56425500D01*
X128596158Y-56425500D01*
X128753844Y-56425500D01*
X128753845Y-56425499D01*
X128908497Y-56394737D01*
X129054179Y-56334394D01*
X129185289Y-56246789D01*
X129296789Y-56135289D01*
X129337933Y-56073713D01*
X133199500Y-56073713D01*
X133199500Y-56286286D01*
X133216676Y-56394735D01*
X133232754Y-56496243D01*
X133292546Y-56680264D01*
X133298444Y-56698414D01*
X133394951Y-56887820D01*
X133519890Y-57059786D01*
X133670213Y-57210109D01*
X133842179Y-57335048D01*
X133842181Y-57335049D01*
X133842184Y-57335051D01*
X134031588Y-57431557D01*
X134233757Y-57497246D01*
X134443713Y-57530500D01*
X134443714Y-57530500D01*
X134656286Y-57530500D01*
X134656287Y-57530500D01*
X134866243Y-57497246D01*
X135068412Y-57431557D01*
X135257816Y-57335051D01*
X135311325Y-57296175D01*
X135429786Y-57210109D01*
X135429788Y-57210106D01*
X135429792Y-57210104D01*
X135580104Y-57059792D01*
X135580106Y-57059788D01*
X135580109Y-57059786D01*
X135705048Y-56887820D01*
X135705047Y-56887820D01*
X135705051Y-56887816D01*
X135801557Y-56698412D01*
X135867246Y-56496243D01*
X135900500Y-56286287D01*
X135900500Y-56073713D01*
X135867246Y-55863757D01*
X135801557Y-55661588D01*
X135705051Y-55472184D01*
X135705049Y-55472181D01*
X135705048Y-55472179D01*
X135580109Y-55300213D01*
X135429786Y-55149890D01*
X135257820Y-55024951D01*
X135068414Y-54928444D01*
X135068413Y-54928443D01*
X135068412Y-54928443D01*
X134866243Y-54862754D01*
X134866241Y-54862753D01*
X134866240Y-54862753D01*
X134704957Y-54837208D01*
X134656287Y-54829500D01*
X134443713Y-54829500D01*
X134395042Y-54837208D01*
X134233760Y-54862753D01*
X134031585Y-54928444D01*
X133842179Y-55024951D01*
X133670213Y-55149890D01*
X133519890Y-55300213D01*
X133394951Y-55472179D01*
X133298444Y-55661585D01*
X133232753Y-55863760D01*
X133199500Y-56073713D01*
X129337933Y-56073713D01*
X129384394Y-56004179D01*
X129444737Y-55858497D01*
X129475500Y-55703842D01*
X129475500Y-55546158D01*
X129475500Y-55546155D01*
X129475499Y-55546153D01*
X129444737Y-55391503D01*
X129390246Y-55259950D01*
X129382778Y-55190483D01*
X129390247Y-55165048D01*
X129444737Y-55033497D01*
X129475500Y-54878842D01*
X129475500Y-54721158D01*
X129475500Y-54721155D01*
X129475499Y-54721153D01*
X129444738Y-54566510D01*
X129444737Y-54566503D01*
X129444735Y-54566498D01*
X129384397Y-54420827D01*
X129384390Y-54420814D01*
X129296789Y-54289711D01*
X129296786Y-54289707D01*
X129185292Y-54178213D01*
X129185288Y-54178210D01*
X129054185Y-54090609D01*
X129054172Y-54090602D01*
X128908501Y-54030264D01*
X128908489Y-54030261D01*
X128753845Y-53999500D01*
X128753842Y-53999500D01*
X128596158Y-53999500D01*
X128596155Y-53999500D01*
X128441510Y-54030261D01*
X128441498Y-54030264D01*
X128295827Y-54090602D01*
X128295814Y-54090609D01*
X128164711Y-54178210D01*
X128164707Y-54178213D01*
X128053213Y-54289707D01*
X128053210Y-54289711D01*
X127965609Y-54420814D01*
X127965602Y-54420827D01*
X127905264Y-54566498D01*
X127905261Y-54566510D01*
X127874500Y-54721153D01*
X72758174Y-54721153D01*
X72759837Y-50272070D01*
X73989500Y-50272070D01*
X73989500Y-50527929D01*
X74029526Y-50780640D01*
X74108588Y-51023972D01*
X74108589Y-51023975D01*
X74187533Y-51178910D01*
X74215195Y-51233199D01*
X74224750Y-51251950D01*
X74375132Y-51458935D01*
X74375136Y-51458940D01*
X74556059Y-51639863D01*
X74556064Y-51639867D01*
X74733432Y-51768731D01*
X74763053Y-51790252D01*
X74912080Y-51866185D01*
X74991024Y-51906410D01*
X74991027Y-51906411D01*
X75112693Y-51945942D01*
X75234361Y-51985474D01*
X75487070Y-52025500D01*
X75487071Y-52025500D01*
X75742929Y-52025500D01*
X75742930Y-52025500D01*
X75995639Y-51985474D01*
X76238975Y-51906410D01*
X76466947Y-51790252D01*
X76673942Y-51639862D01*
X76854862Y-51458942D01*
X77005252Y-51251947D01*
X77121410Y-51023975D01*
X77200474Y-50780639D01*
X77240500Y-50527930D01*
X77240500Y-50272070D01*
X77200474Y-50019361D01*
X77121410Y-49776025D01*
X77121410Y-49776024D01*
X77037611Y-49611561D01*
X77005252Y-49548053D01*
X76986038Y-49521607D01*
X76854867Y-49341064D01*
X76854863Y-49341059D01*
X76673942Y-49160138D01*
X76627940Y-49126716D01*
X76627938Y-49126713D01*
X76496561Y-49031263D01*
X79230500Y-49031263D01*
X79230500Y-49228736D01*
X79261389Y-49423763D01*
X79301774Y-49548053D01*
X79322409Y-49611561D01*
X79406209Y-49776025D01*
X79412058Y-49787504D01*
X79528115Y-49947246D01*
X79528121Y-49947252D01*
X79667748Y-50086879D01*
X79811311Y-50191183D01*
X79853976Y-50246511D01*
X79859955Y-50316124D01*
X79827350Y-50377919D01*
X79766512Y-50412277D01*
X79738427Y-50415500D01*
X79683130Y-50415500D01*
X79683123Y-50415501D01*
X79623516Y-50421908D01*
X79488671Y-50472202D01*
X79488664Y-50472206D01*
X79373455Y-50558452D01*
X79373452Y-50558455D01*
X79287206Y-50673664D01*
X79287202Y-50673671D01*
X79236908Y-50808517D01*
X79230501Y-50868116D01*
X79230501Y-50868123D01*
X79230500Y-50868135D01*
X79230500Y-52471870D01*
X79230501Y-52471876D01*
X79236908Y-52531483D01*
X79287202Y-52666328D01*
X79287206Y-52666335D01*
X79373452Y-52781544D01*
X79373455Y-52781547D01*
X79488664Y-52867793D01*
X79488671Y-52867797D01*
X79623517Y-52918091D01*
X79623516Y-52918091D01*
X79630444Y-52918835D01*
X79683127Y-52924500D01*
X81286872Y-52924499D01*
X81346483Y-52918091D01*
X81481331Y-52867796D01*
X81596546Y-52781546D01*
X81682796Y-52666331D01*
X81733091Y-52531483D01*
X81739500Y-52471873D01*
X81739499Y-52416574D01*
X81759182Y-52349538D01*
X81811986Y-52303783D01*
X81881144Y-52293838D01*
X81944700Y-52322862D01*
X81963817Y-52343691D01*
X82068115Y-52487245D01*
X82068119Y-52487250D01*
X82207753Y-52626884D01*
X82357234Y-52735486D01*
X82367499Y-52742944D01*
X82543439Y-52832591D01*
X82668637Y-52873270D01*
X82731236Y-52893610D01*
X82926264Y-52924500D01*
X82926269Y-52924500D01*
X83123736Y-52924500D01*
X83318763Y-52893610D01*
X83506561Y-52832591D01*
X83682501Y-52742944D01*
X83787955Y-52666328D01*
X83842246Y-52626884D01*
X83842248Y-52626881D01*
X83842252Y-52626879D01*
X83981879Y-52487252D01*
X83981881Y-52487248D01*
X83981884Y-52487246D01*
X84097941Y-52327505D01*
X84097942Y-52327504D01*
X84097944Y-52327501D01*
X84184517Y-52157593D01*
X84232490Y-52106800D01*
X84300311Y-52090005D01*
X84366446Y-52112542D01*
X84405482Y-52157593D01*
X84474904Y-52293838D01*
X84492058Y-52327505D01*
X84608115Y-52487246D01*
X84747753Y-52626884D01*
X84897234Y-52735486D01*
X84907499Y-52742944D01*
X85083439Y-52832591D01*
X85208637Y-52873270D01*
X85271236Y-52893610D01*
X85466264Y-52924500D01*
X85466269Y-52924500D01*
X85663736Y-52924500D01*
X85858763Y-52893610D01*
X86046561Y-52832591D01*
X86222501Y-52742944D01*
X86327955Y-52666328D01*
X86382246Y-52626884D01*
X86382248Y-52626881D01*
X86382252Y-52626879D01*
X86521879Y-52487252D01*
X86521881Y-52487248D01*
X86521884Y-52487246D01*
X86637941Y-52327505D01*
X86637942Y-52327504D01*
X86637944Y-52327501D01*
X86724517Y-52157593D01*
X86772490Y-52106800D01*
X86840311Y-52090005D01*
X86906446Y-52112542D01*
X86945482Y-52157593D01*
X87014904Y-52293838D01*
X87032058Y-52327505D01*
X87148115Y-52487246D01*
X87287753Y-52626884D01*
X87437234Y-52735486D01*
X87447499Y-52742944D01*
X87623439Y-52832591D01*
X87748637Y-52873270D01*
X87811236Y-52893610D01*
X88006264Y-52924500D01*
X88006269Y-52924500D01*
X88203736Y-52924500D01*
X88398763Y-52893610D01*
X88586561Y-52832591D01*
X88762501Y-52742944D01*
X88867955Y-52666328D01*
X88922246Y-52626884D01*
X88922248Y-52626881D01*
X88922252Y-52626879D01*
X89061879Y-52487252D01*
X89061881Y-52487248D01*
X89061884Y-52487246D01*
X89166181Y-52343691D01*
X89177944Y-52327501D01*
X89267591Y-52151561D01*
X89328610Y-51963763D01*
X89337694Y-51906410D01*
X89359500Y-51768736D01*
X89359500Y-51571263D01*
X89328610Y-51376236D01*
X89280268Y-51227456D01*
X89267591Y-51188439D01*
X89177944Y-51012499D01*
X89133634Y-50951511D01*
X89061884Y-50852753D01*
X88922246Y-50713115D01*
X88762505Y-50597058D01*
X88756119Y-50593804D01*
X88592593Y-50510482D01*
X88541800Y-50462510D01*
X88525005Y-50394689D01*
X88547542Y-50328554D01*
X88592593Y-50289517D01*
X88762501Y-50202944D01*
X88812141Y-50166879D01*
X88922246Y-50086884D01*
X88922248Y-50086881D01*
X88922252Y-50086879D01*
X89061879Y-49947252D01*
X89061881Y-49947248D01*
X89061884Y-49947246D01*
X89177941Y-49787505D01*
X89177942Y-49787504D01*
X89177944Y-49787501D01*
X89264517Y-49617593D01*
X89312490Y-49566800D01*
X89380311Y-49550005D01*
X89446446Y-49572542D01*
X89485482Y-49617593D01*
X89566208Y-49776024D01*
X89572058Y-49787505D01*
X89688115Y-49947246D01*
X89827753Y-50086884D01*
X89971308Y-50191181D01*
X89987499Y-50202944D01*
X90163439Y-50292591D01*
X90274122Y-50328554D01*
X90351236Y-50353610D01*
X90546264Y-50384500D01*
X90546269Y-50384500D01*
X90743736Y-50384500D01*
X90938763Y-50353610D01*
X91126561Y-50292591D01*
X91302501Y-50202944D01*
X91392192Y-50137779D01*
X91462246Y-50086884D01*
X91462248Y-50086881D01*
X91462252Y-50086879D01*
X91601879Y-49947252D01*
X91601881Y-49947248D01*
X91601884Y-49947246D01*
X91717941Y-49787505D01*
X91717942Y-49787504D01*
X91717944Y-49787501D01*
X91804517Y-49617593D01*
X91852490Y-49566800D01*
X91920311Y-49550005D01*
X91986446Y-49572542D01*
X92025482Y-49617593D01*
X92106208Y-49776024D01*
X92112058Y-49787505D01*
X92228115Y-49947246D01*
X92367753Y-50086884D01*
X92511308Y-50191181D01*
X92527499Y-50202944D01*
X92697404Y-50289516D01*
X92748199Y-50337490D01*
X92764994Y-50405311D01*
X92742456Y-50471446D01*
X92697404Y-50510483D01*
X92663167Y-50527929D01*
X92527495Y-50597058D01*
X92367753Y-50713115D01*
X92228115Y-50852753D01*
X92112058Y-51012495D01*
X92022408Y-51188441D01*
X91961389Y-51376236D01*
X91930500Y-51571263D01*
X91930500Y-51768736D01*
X91961389Y-51963763D01*
X91981449Y-52025500D01*
X92022409Y-52151561D01*
X92112056Y-52327501D01*
X92112058Y-52327504D01*
X92228115Y-52487246D01*
X92367753Y-52626884D01*
X92517234Y-52735486D01*
X92527499Y-52742944D01*
X92703439Y-52832591D01*
X92828637Y-52873270D01*
X92891236Y-52893610D01*
X93086264Y-52924500D01*
X93086269Y-52924500D01*
X93283736Y-52924500D01*
X93478763Y-52893610D01*
X93666561Y-52832591D01*
X93842501Y-52742944D01*
X93947955Y-52666328D01*
X94002246Y-52626884D01*
X94002248Y-52626881D01*
X94002252Y-52626879D01*
X94141879Y-52487252D01*
X94141881Y-52487248D01*
X94141884Y-52487246D01*
X94257941Y-52327505D01*
X94257942Y-52327504D01*
X94257944Y-52327501D01*
X94344517Y-52157593D01*
X94392490Y-52106800D01*
X94460311Y-52090005D01*
X94526446Y-52112542D01*
X94565482Y-52157593D01*
X94634904Y-52293838D01*
X94652058Y-52327505D01*
X94768115Y-52487246D01*
X94907753Y-52626884D01*
X95057234Y-52735486D01*
X95067499Y-52742944D01*
X95243439Y-52832591D01*
X95368637Y-52873270D01*
X95431236Y-52893610D01*
X95626264Y-52924500D01*
X95626269Y-52924500D01*
X95823736Y-52924500D01*
X96018763Y-52893610D01*
X96206561Y-52832591D01*
X96382501Y-52742944D01*
X96487955Y-52666328D01*
X96542246Y-52626884D01*
X96542248Y-52626881D01*
X96542252Y-52626879D01*
X96681879Y-52487252D01*
X96681881Y-52487248D01*
X96681884Y-52487246D01*
X96797941Y-52327505D01*
X96797942Y-52327504D01*
X96797944Y-52327501D01*
X96884517Y-52157593D01*
X96932490Y-52106800D01*
X97000311Y-52090005D01*
X97066446Y-52112542D01*
X97105482Y-52157593D01*
X97174904Y-52293838D01*
X97192058Y-52327505D01*
X97308115Y-52487246D01*
X97447753Y-52626884D01*
X97597234Y-52735486D01*
X97607499Y-52742944D01*
X97783439Y-52832591D01*
X97908637Y-52873270D01*
X97971236Y-52893610D01*
X98166264Y-52924500D01*
X98166269Y-52924500D01*
X98363736Y-52924500D01*
X98558763Y-52893610D01*
X98746561Y-52832591D01*
X98922501Y-52742944D01*
X99027955Y-52666328D01*
X99082246Y-52626884D01*
X99082248Y-52626881D01*
X99082252Y-52626879D01*
X99221879Y-52487252D01*
X99221881Y-52487248D01*
X99221884Y-52487246D01*
X99337941Y-52327505D01*
X99337942Y-52327504D01*
X99337944Y-52327501D01*
X99424517Y-52157593D01*
X99472490Y-52106800D01*
X99540311Y-52090005D01*
X99606446Y-52112542D01*
X99645482Y-52157593D01*
X99714904Y-52293838D01*
X99732058Y-52327505D01*
X99848115Y-52487246D01*
X99987753Y-52626884D01*
X100137234Y-52735486D01*
X100147499Y-52742944D01*
X100323439Y-52832591D01*
X100448637Y-52873270D01*
X100511236Y-52893610D01*
X100706264Y-52924500D01*
X100706269Y-52924500D01*
X100903736Y-52924500D01*
X101098763Y-52893610D01*
X101286561Y-52832591D01*
X101462501Y-52742944D01*
X101567955Y-52666328D01*
X101622246Y-52626884D01*
X101622248Y-52626881D01*
X101622252Y-52626879D01*
X101761879Y-52487252D01*
X101761881Y-52487248D01*
X101761884Y-52487246D01*
X101877941Y-52327505D01*
X101877942Y-52327504D01*
X101877944Y-52327501D01*
X101964517Y-52157593D01*
X102012490Y-52106800D01*
X102080311Y-52090005D01*
X102146446Y-52112542D01*
X102185482Y-52157593D01*
X102254904Y-52293838D01*
X102272058Y-52327505D01*
X102388115Y-52487246D01*
X102527753Y-52626884D01*
X102677234Y-52735486D01*
X102687499Y-52742944D01*
X102863439Y-52832591D01*
X102988637Y-52873270D01*
X103051236Y-52893610D01*
X103246264Y-52924500D01*
X103246269Y-52924500D01*
X103443736Y-52924500D01*
X103638763Y-52893610D01*
X103826561Y-52832591D01*
X104002501Y-52742944D01*
X104107955Y-52666328D01*
X104162246Y-52626884D01*
X104162248Y-52626881D01*
X104162252Y-52626879D01*
X104301879Y-52487252D01*
X104301881Y-52487248D01*
X104301884Y-52487246D01*
X104417941Y-52327505D01*
X104417942Y-52327504D01*
X104417944Y-52327501D01*
X104504517Y-52157593D01*
X104552490Y-52106800D01*
X104620311Y-52090005D01*
X104686446Y-52112542D01*
X104725482Y-52157593D01*
X104794904Y-52293838D01*
X104812058Y-52327505D01*
X104928115Y-52487246D01*
X105067753Y-52626884D01*
X105217234Y-52735486D01*
X105227499Y-52742944D01*
X105403439Y-52832591D01*
X105528637Y-52873270D01*
X105591236Y-52893610D01*
X105786264Y-52924500D01*
X105786269Y-52924500D01*
X105983736Y-52924500D01*
X106178763Y-52893610D01*
X106366561Y-52832591D01*
X106542501Y-52742944D01*
X106647955Y-52666328D01*
X106702246Y-52626884D01*
X106702248Y-52626881D01*
X106702252Y-52626879D01*
X106841879Y-52487252D01*
X106841881Y-52487248D01*
X106841884Y-52487246D01*
X106957941Y-52327505D01*
X106957942Y-52327504D01*
X106957944Y-52327501D01*
X107044517Y-52157593D01*
X107092490Y-52106800D01*
X107160311Y-52090005D01*
X107226446Y-52112542D01*
X107265482Y-52157593D01*
X107334904Y-52293838D01*
X107352058Y-52327505D01*
X107468115Y-52487246D01*
X107607753Y-52626884D01*
X107757234Y-52735486D01*
X107767499Y-52742944D01*
X107943439Y-52832591D01*
X108068637Y-52873270D01*
X108131236Y-52893610D01*
X108326264Y-52924500D01*
X108326269Y-52924500D01*
X108523736Y-52924500D01*
X108718763Y-52893610D01*
X108906561Y-52832591D01*
X109082501Y-52742944D01*
X109187955Y-52666328D01*
X109242246Y-52626884D01*
X109242248Y-52626881D01*
X109242252Y-52626879D01*
X109381879Y-52487252D01*
X109381881Y-52487248D01*
X109381884Y-52487246D01*
X109486181Y-52343691D01*
X109497944Y-52327501D01*
X109587591Y-52151561D01*
X109648610Y-51963763D01*
X109657694Y-51906410D01*
X109679500Y-51768736D01*
X109679500Y-51571263D01*
X109648610Y-51376236D01*
X109600268Y-51227456D01*
X109587591Y-51188439D01*
X109497944Y-51012499D01*
X109453634Y-50951511D01*
X109381884Y-50852753D01*
X109242246Y-50713115D01*
X109082505Y-50597058D01*
X109076119Y-50593804D01*
X108912593Y-50510482D01*
X108861800Y-50462510D01*
X108845005Y-50394689D01*
X108867542Y-50328554D01*
X108912593Y-50289517D01*
X109082501Y-50202944D01*
X109132141Y-50166879D01*
X109242246Y-50086884D01*
X109242248Y-50086881D01*
X109242252Y-50086879D01*
X109381879Y-49947252D01*
X109381881Y-49947248D01*
X109381884Y-49947246D01*
X109497941Y-49787505D01*
X109497942Y-49787504D01*
X109497944Y-49787501D01*
X109584517Y-49617593D01*
X109632490Y-49566800D01*
X109700311Y-49550005D01*
X109766446Y-49572542D01*
X109805482Y-49617593D01*
X109886208Y-49776024D01*
X109892058Y-49787505D01*
X110008115Y-49947246D01*
X110147753Y-50086884D01*
X110291308Y-50191181D01*
X110307499Y-50202944D01*
X110483439Y-50292591D01*
X110594122Y-50328554D01*
X110671236Y-50353610D01*
X110866264Y-50384500D01*
X110866269Y-50384500D01*
X111063736Y-50384500D01*
X111258763Y-50353610D01*
X111446561Y-50292591D01*
X111622501Y-50202944D01*
X111712192Y-50137779D01*
X111782246Y-50086884D01*
X111782248Y-50086881D01*
X111782252Y-50086879D01*
X111921879Y-49947252D01*
X111921881Y-49947248D01*
X111921884Y-49947246D01*
X112037941Y-49787505D01*
X112037942Y-49787504D01*
X112037944Y-49787501D01*
X112124517Y-49617593D01*
X112172490Y-49566800D01*
X112240311Y-49550005D01*
X112306446Y-49572542D01*
X112345482Y-49617593D01*
X112426208Y-49776024D01*
X112432058Y-49787505D01*
X112548115Y-49947246D01*
X112687753Y-50086884D01*
X112831308Y-50191181D01*
X112847499Y-50202944D01*
X113017404Y-50289516D01*
X113068199Y-50337490D01*
X113084994Y-50405311D01*
X113062456Y-50471446D01*
X113017404Y-50510483D01*
X112983167Y-50527929D01*
X112847495Y-50597058D01*
X112687753Y-50713115D01*
X112548115Y-50852753D01*
X112432058Y-51012495D01*
X112342408Y-51188441D01*
X112281389Y-51376236D01*
X112250500Y-51571263D01*
X112250500Y-51768736D01*
X112281389Y-51963763D01*
X112301449Y-52025500D01*
X112342409Y-52151561D01*
X112432056Y-52327501D01*
X112432058Y-52327504D01*
X112548115Y-52487246D01*
X112687753Y-52626884D01*
X112837234Y-52735486D01*
X112847499Y-52742944D01*
X113023439Y-52832591D01*
X113148637Y-52873270D01*
X113211236Y-52893610D01*
X113406264Y-52924500D01*
X113406269Y-52924500D01*
X113603736Y-52924500D01*
X113798763Y-52893610D01*
X113986561Y-52832591D01*
X114162501Y-52742944D01*
X114267955Y-52666328D01*
X114322246Y-52626884D01*
X114322248Y-52626881D01*
X114322252Y-52626879D01*
X114461879Y-52487252D01*
X114461881Y-52487248D01*
X114461884Y-52487246D01*
X114577941Y-52327505D01*
X114577942Y-52327504D01*
X114577944Y-52327501D01*
X114664517Y-52157593D01*
X114712490Y-52106800D01*
X114780311Y-52090005D01*
X114846446Y-52112542D01*
X114885482Y-52157593D01*
X114954904Y-52293838D01*
X114972058Y-52327505D01*
X115088115Y-52487246D01*
X115227753Y-52626884D01*
X115377234Y-52735486D01*
X115387499Y-52742944D01*
X115563439Y-52832591D01*
X115688637Y-52873270D01*
X115751236Y-52893610D01*
X115946264Y-52924500D01*
X115946269Y-52924500D01*
X116143736Y-52924500D01*
X116338763Y-52893610D01*
X116526561Y-52832591D01*
X116702501Y-52742944D01*
X116807955Y-52666328D01*
X116862246Y-52626884D01*
X116862248Y-52626881D01*
X116862252Y-52626879D01*
X117001879Y-52487252D01*
X117001881Y-52487248D01*
X117001884Y-52487246D01*
X117117941Y-52327505D01*
X117117942Y-52327504D01*
X117117944Y-52327501D01*
X117204517Y-52157593D01*
X117252490Y-52106800D01*
X117320311Y-52090005D01*
X117386446Y-52112542D01*
X117425482Y-52157593D01*
X117494904Y-52293838D01*
X117512058Y-52327505D01*
X117628115Y-52487246D01*
X117767753Y-52626884D01*
X117917234Y-52735486D01*
X117927499Y-52742944D01*
X118103439Y-52832591D01*
X118228637Y-52873270D01*
X118291236Y-52893610D01*
X118486264Y-52924500D01*
X118486269Y-52924500D01*
X118683736Y-52924500D01*
X118878763Y-52893610D01*
X119066561Y-52832591D01*
X119242501Y-52742944D01*
X119347955Y-52666328D01*
X119402246Y-52626884D01*
X119402248Y-52626881D01*
X119402252Y-52626879D01*
X119541879Y-52487252D01*
X119541881Y-52487248D01*
X119541884Y-52487246D01*
X119657941Y-52327505D01*
X119657942Y-52327504D01*
X119657944Y-52327501D01*
X119744517Y-52157593D01*
X119792490Y-52106800D01*
X119860311Y-52090005D01*
X119926446Y-52112542D01*
X119965482Y-52157593D01*
X120034904Y-52293838D01*
X120052058Y-52327505D01*
X120168115Y-52487246D01*
X120307753Y-52626884D01*
X120457234Y-52735486D01*
X120467499Y-52742944D01*
X120643439Y-52832591D01*
X120768637Y-52873270D01*
X120831236Y-52893610D01*
X121026264Y-52924500D01*
X121026269Y-52924500D01*
X121223736Y-52924500D01*
X121418763Y-52893610D01*
X121606561Y-52832591D01*
X121782501Y-52742944D01*
X121887955Y-52666328D01*
X121942246Y-52626884D01*
X121942248Y-52626881D01*
X121942252Y-52626879D01*
X122081879Y-52487252D01*
X122081881Y-52487248D01*
X122081884Y-52487246D01*
X122197941Y-52327505D01*
X122197942Y-52327504D01*
X122197944Y-52327501D01*
X122284517Y-52157593D01*
X122332490Y-52106800D01*
X122400311Y-52090005D01*
X122466446Y-52112542D01*
X122505482Y-52157593D01*
X122574904Y-52293838D01*
X122592058Y-52327505D01*
X122708115Y-52487246D01*
X122847753Y-52626884D01*
X122997234Y-52735486D01*
X123007499Y-52742944D01*
X123183439Y-52832591D01*
X123308637Y-52873270D01*
X123371236Y-52893610D01*
X123566264Y-52924500D01*
X123566269Y-52924500D01*
X123763736Y-52924500D01*
X123958763Y-52893610D01*
X124146561Y-52832591D01*
X124322501Y-52742944D01*
X124427955Y-52666328D01*
X124482246Y-52626884D01*
X124482248Y-52626881D01*
X124482252Y-52626879D01*
X124621879Y-52487252D01*
X124621881Y-52487248D01*
X124621884Y-52487246D01*
X124737941Y-52327505D01*
X124737942Y-52327504D01*
X124737944Y-52327501D01*
X124824517Y-52157593D01*
X124872490Y-52106800D01*
X124940311Y-52090005D01*
X125006446Y-52112542D01*
X125045482Y-52157593D01*
X125114904Y-52293838D01*
X125132058Y-52327505D01*
X125248115Y-52487246D01*
X125387753Y-52626884D01*
X125537234Y-52735486D01*
X125547499Y-52742944D01*
X125723439Y-52832591D01*
X125848637Y-52873270D01*
X125911236Y-52893610D01*
X126106264Y-52924500D01*
X126106269Y-52924500D01*
X126303736Y-52924500D01*
X126498763Y-52893610D01*
X126686561Y-52832591D01*
X126862501Y-52742944D01*
X126967955Y-52666328D01*
X127022246Y-52626884D01*
X127022248Y-52626881D01*
X127022252Y-52626879D01*
X127161879Y-52487252D01*
X127161881Y-52487248D01*
X127161884Y-52487246D01*
X127266181Y-52343691D01*
X127277944Y-52327501D01*
X127367591Y-52151561D01*
X127428610Y-51963763D01*
X127437694Y-51906410D01*
X127459500Y-51768736D01*
X127459500Y-51571263D01*
X127428610Y-51376236D01*
X127380268Y-51227456D01*
X127367591Y-51188439D01*
X127277944Y-51012499D01*
X127233634Y-50951511D01*
X127161884Y-50852753D01*
X127022246Y-50713115D01*
X126862505Y-50597058D01*
X126856119Y-50593804D01*
X126692593Y-50510482D01*
X126641800Y-50462510D01*
X126625005Y-50394689D01*
X126647542Y-50328554D01*
X126692593Y-50289517D01*
X126862501Y-50202944D01*
X126912141Y-50166879D01*
X127022246Y-50086884D01*
X127022248Y-50086881D01*
X127022252Y-50086879D01*
X127161879Y-49947252D01*
X127161881Y-49947248D01*
X127161884Y-49947246D01*
X127277941Y-49787505D01*
X127277942Y-49787504D01*
X127277944Y-49787501D01*
X127364517Y-49617593D01*
X127412490Y-49566800D01*
X127480311Y-49550005D01*
X127546446Y-49572542D01*
X127585482Y-49617593D01*
X127666208Y-49776024D01*
X127672058Y-49787505D01*
X127788115Y-49947246D01*
X127927753Y-50086884D01*
X128071308Y-50191181D01*
X128087499Y-50202944D01*
X128263439Y-50292591D01*
X128374122Y-50328554D01*
X128451236Y-50353610D01*
X128646264Y-50384500D01*
X128646269Y-50384500D01*
X128843736Y-50384500D01*
X129038763Y-50353610D01*
X129226561Y-50292591D01*
X129266835Y-50272070D01*
X131989500Y-50272070D01*
X131989500Y-50527929D01*
X132029526Y-50780640D01*
X132108588Y-51023972D01*
X132108589Y-51023975D01*
X132187533Y-51178910D01*
X132215195Y-51233199D01*
X132224750Y-51251950D01*
X132375132Y-51458935D01*
X132375136Y-51458940D01*
X132556059Y-51639863D01*
X132556064Y-51639867D01*
X132733432Y-51768731D01*
X132763053Y-51790252D01*
X132912080Y-51866185D01*
X132991024Y-51906410D01*
X132991027Y-51906411D01*
X133112693Y-51945942D01*
X133234361Y-51985474D01*
X133487070Y-52025500D01*
X133487071Y-52025500D01*
X133742929Y-52025500D01*
X133742930Y-52025500D01*
X133995639Y-51985474D01*
X134238975Y-51906410D01*
X134466947Y-51790252D01*
X134673942Y-51639862D01*
X134854862Y-51458942D01*
X135005252Y-51251947D01*
X135121410Y-51023975D01*
X135200474Y-50780639D01*
X135240500Y-50527930D01*
X135240500Y-50272070D01*
X135200474Y-50019361D01*
X135121410Y-49776025D01*
X135121410Y-49776024D01*
X135037611Y-49611561D01*
X135005252Y-49548053D01*
X134986038Y-49521607D01*
X134854867Y-49341064D01*
X134854863Y-49341059D01*
X134673940Y-49160136D01*
X134673935Y-49160132D01*
X134466950Y-49009750D01*
X134466949Y-49009749D01*
X134466947Y-49009748D01*
X134393910Y-48972533D01*
X134238975Y-48893589D01*
X134238972Y-48893588D01*
X133995640Y-48814526D01*
X133869284Y-48794513D01*
X133742930Y-48774500D01*
X133487070Y-48774500D01*
X133402833Y-48787842D01*
X133234359Y-48814526D01*
X132991027Y-48893588D01*
X132991024Y-48893589D01*
X132763049Y-49009750D01*
X132556064Y-49160132D01*
X132556059Y-49160136D01*
X132375136Y-49341059D01*
X132375132Y-49341064D01*
X132224750Y-49548049D01*
X132108589Y-49776024D01*
X132108588Y-49776027D01*
X132029526Y-50019359D01*
X131989500Y-50272070D01*
X129266835Y-50272070D01*
X129402501Y-50202944D01*
X129562252Y-50086879D01*
X129701879Y-49947252D01*
X129701881Y-49947248D01*
X129701884Y-49947246D01*
X129752779Y-49877192D01*
X129817944Y-49787501D01*
X129907591Y-49611561D01*
X129968610Y-49423763D01*
X129999500Y-49228736D01*
X129999500Y-49031263D01*
X129968610Y-48836236D01*
X129920268Y-48687456D01*
X129907591Y-48648439D01*
X129817944Y-48472499D01*
X129743138Y-48369536D01*
X129701884Y-48312753D01*
X129562246Y-48173115D01*
X129402504Y-48057058D01*
X129402503Y-48057057D01*
X129402501Y-48057056D01*
X129226561Y-47967409D01*
X129226558Y-47967408D01*
X129038763Y-47906389D01*
X128843736Y-47875500D01*
X128843731Y-47875500D01*
X128646269Y-47875500D01*
X128646264Y-47875500D01*
X128451236Y-47906389D01*
X128263441Y-47967408D01*
X128087495Y-48057058D01*
X127927753Y-48173115D01*
X127788115Y-48312753D01*
X127672058Y-48472495D01*
X127672056Y-48472499D01*
X127624424Y-48565982D01*
X127585485Y-48642403D01*
X127537510Y-48693199D01*
X127469689Y-48709994D01*
X127403554Y-48687456D01*
X127364515Y-48642403D01*
X127329895Y-48574458D01*
X127277944Y-48472499D01*
X127203138Y-48369536D01*
X127161884Y-48312753D01*
X127022246Y-48173115D01*
X126862504Y-48057058D01*
X126862503Y-48057057D01*
X126862501Y-48057056D01*
X126686561Y-47967409D01*
X126686558Y-47967408D01*
X126498763Y-47906389D01*
X126303736Y-47875500D01*
X126303731Y-47875500D01*
X126106269Y-47875500D01*
X126106264Y-47875500D01*
X125911236Y-47906389D01*
X125723441Y-47967408D01*
X125547495Y-48057058D01*
X125387753Y-48173115D01*
X125248115Y-48312753D01*
X125132058Y-48472495D01*
X125132056Y-48472499D01*
X125084424Y-48565982D01*
X125045485Y-48642403D01*
X124997510Y-48693199D01*
X124929689Y-48709994D01*
X124863554Y-48687456D01*
X124824515Y-48642403D01*
X124789895Y-48574458D01*
X124737944Y-48472499D01*
X124663138Y-48369536D01*
X124621884Y-48312753D01*
X124482246Y-48173115D01*
X124322504Y-48057058D01*
X124322503Y-48057057D01*
X124322501Y-48057056D01*
X124146561Y-47967409D01*
X124146558Y-47967408D01*
X123958763Y-47906389D01*
X123763736Y-47875500D01*
X123763731Y-47875500D01*
X123566269Y-47875500D01*
X123566264Y-47875500D01*
X123371236Y-47906389D01*
X123183441Y-47967408D01*
X123007495Y-48057058D01*
X122847753Y-48173115D01*
X122708115Y-48312753D01*
X122592058Y-48472495D01*
X122502408Y-48648441D01*
X122441389Y-48836236D01*
X122410500Y-49031263D01*
X122410500Y-49228736D01*
X122441389Y-49423763D01*
X122481774Y-49548053D01*
X122502409Y-49611561D01*
X122586209Y-49776025D01*
X122592058Y-49787504D01*
X122708115Y-49947246D01*
X122847753Y-50086884D01*
X122991308Y-50191181D01*
X123007499Y-50202944D01*
X123177404Y-50289516D01*
X123228199Y-50337490D01*
X123244994Y-50405311D01*
X123222456Y-50471446D01*
X123177404Y-50510483D01*
X123143167Y-50527929D01*
X123007495Y-50597058D01*
X122847753Y-50713115D01*
X122708115Y-50852753D01*
X122592058Y-51012495D01*
X122505485Y-51182403D01*
X122457510Y-51233199D01*
X122389689Y-51249994D01*
X122323554Y-51227456D01*
X122284515Y-51182403D01*
X122197944Y-51012499D01*
X122153634Y-50951511D01*
X122081884Y-50852753D01*
X121942246Y-50713115D01*
X121782504Y-50597058D01*
X121782503Y-50597057D01*
X121782501Y-50597056D01*
X121606561Y-50507409D01*
X121606558Y-50507408D01*
X121418763Y-50446389D01*
X121223736Y-50415500D01*
X121223731Y-50415500D01*
X121026269Y-50415500D01*
X121026264Y-50415500D01*
X120831236Y-50446389D01*
X120643441Y-50507408D01*
X120467495Y-50597058D01*
X120307753Y-50713115D01*
X120168115Y-50852753D01*
X120052058Y-51012495D01*
X119965485Y-51182403D01*
X119917510Y-51233199D01*
X119849689Y-51249994D01*
X119783554Y-51227456D01*
X119744515Y-51182403D01*
X119657944Y-51012499D01*
X119613634Y-50951511D01*
X119541884Y-50852753D01*
X119402246Y-50713115D01*
X119242505Y-50597058D01*
X119236119Y-50593804D01*
X119072593Y-50510482D01*
X119021800Y-50462510D01*
X119005005Y-50394689D01*
X119027542Y-50328554D01*
X119072593Y-50289517D01*
X119242501Y-50202944D01*
X119292141Y-50166879D01*
X119402246Y-50086884D01*
X119402248Y-50086881D01*
X119402252Y-50086879D01*
X119541879Y-49947252D01*
X119541881Y-49947248D01*
X119541884Y-49947246D01*
X119592779Y-49877192D01*
X119657944Y-49787501D01*
X119747591Y-49611561D01*
X119808610Y-49423763D01*
X119839500Y-49228736D01*
X119839500Y-49031263D01*
X119808610Y-48836236D01*
X119760268Y-48687456D01*
X119747591Y-48648439D01*
X119657944Y-48472499D01*
X119583138Y-48369536D01*
X119541884Y-48312753D01*
X119402246Y-48173115D01*
X119242504Y-48057058D01*
X119242503Y-48057057D01*
X119242501Y-48057056D01*
X119066561Y-47967409D01*
X119066558Y-47967408D01*
X118878763Y-47906389D01*
X118683736Y-47875500D01*
X118683731Y-47875500D01*
X118486269Y-47875500D01*
X118486264Y-47875500D01*
X118291236Y-47906389D01*
X118103441Y-47967408D01*
X117927495Y-48057058D01*
X117767753Y-48173115D01*
X117628115Y-48312753D01*
X117512058Y-48472495D01*
X117422408Y-48648441D01*
X117361389Y-48836236D01*
X117330500Y-49031263D01*
X117330500Y-49228736D01*
X117361389Y-49423763D01*
X117401774Y-49548053D01*
X117422409Y-49611561D01*
X117506209Y-49776025D01*
X117512058Y-49787504D01*
X117628115Y-49947246D01*
X117767753Y-50086884D01*
X117911308Y-50191181D01*
X117927499Y-50202944D01*
X118097404Y-50289516D01*
X118148199Y-50337490D01*
X118164994Y-50405311D01*
X118142456Y-50471446D01*
X118097404Y-50510483D01*
X118063167Y-50527929D01*
X117927495Y-50597058D01*
X117767753Y-50713115D01*
X117628115Y-50852753D01*
X117512058Y-51012495D01*
X117425485Y-51182403D01*
X117377510Y-51233199D01*
X117309689Y-51249994D01*
X117243554Y-51227456D01*
X117204515Y-51182403D01*
X117117944Y-51012499D01*
X117073634Y-50951511D01*
X117001884Y-50852753D01*
X116862246Y-50713115D01*
X116702504Y-50597058D01*
X116702503Y-50597057D01*
X116702501Y-50597056D01*
X116526561Y-50507409D01*
X116526558Y-50507408D01*
X116338763Y-50446389D01*
X116143736Y-50415500D01*
X116143731Y-50415500D01*
X115946269Y-50415500D01*
X115946264Y-50415500D01*
X115751236Y-50446389D01*
X115563441Y-50507408D01*
X115387495Y-50597058D01*
X115227753Y-50713115D01*
X115088115Y-50852753D01*
X114972058Y-51012495D01*
X114885485Y-51182403D01*
X114837510Y-51233199D01*
X114769689Y-51249994D01*
X114703554Y-51227456D01*
X114664515Y-51182403D01*
X114577944Y-51012499D01*
X114533634Y-50951511D01*
X114461884Y-50852753D01*
X114322246Y-50713115D01*
X114162505Y-50597058D01*
X114156119Y-50593804D01*
X113992593Y-50510482D01*
X113941800Y-50462510D01*
X113925005Y-50394689D01*
X113947542Y-50328554D01*
X113992593Y-50289517D01*
X114162501Y-50202944D01*
X114212141Y-50166879D01*
X114322246Y-50086884D01*
X114322248Y-50086881D01*
X114322252Y-50086879D01*
X114461879Y-49947252D01*
X114461881Y-49947248D01*
X114461884Y-49947246D01*
X114512779Y-49877192D01*
X114577944Y-49787501D01*
X114667591Y-49611561D01*
X114728610Y-49423763D01*
X114759500Y-49228736D01*
X114759500Y-49031263D01*
X114728610Y-48836236D01*
X114680268Y-48687456D01*
X114667591Y-48648439D01*
X114577944Y-48472499D01*
X114503138Y-48369536D01*
X114461884Y-48312753D01*
X114322246Y-48173115D01*
X114162504Y-48057058D01*
X114162503Y-48057057D01*
X114162501Y-48057056D01*
X113986561Y-47967409D01*
X113986558Y-47967408D01*
X113798763Y-47906389D01*
X113603736Y-47875500D01*
X113603731Y-47875500D01*
X113406269Y-47875500D01*
X113406264Y-47875500D01*
X113211236Y-47906389D01*
X113023441Y-47967408D01*
X112847495Y-48057058D01*
X112687753Y-48173115D01*
X112548115Y-48312753D01*
X112432058Y-48472495D01*
X112432056Y-48472499D01*
X112384424Y-48565982D01*
X112345485Y-48642403D01*
X112297510Y-48693199D01*
X112229689Y-48709994D01*
X112163554Y-48687456D01*
X112124515Y-48642403D01*
X112089895Y-48574458D01*
X112037944Y-48472499D01*
X111963138Y-48369536D01*
X111921884Y-48312753D01*
X111782246Y-48173115D01*
X111622504Y-48057058D01*
X111622503Y-48057057D01*
X111622501Y-48057056D01*
X111446561Y-47967409D01*
X111446558Y-47967408D01*
X111258763Y-47906389D01*
X111063736Y-47875500D01*
X111063731Y-47875500D01*
X110866269Y-47875500D01*
X110866264Y-47875500D01*
X110671236Y-47906389D01*
X110483441Y-47967408D01*
X110307495Y-48057058D01*
X110147753Y-48173115D01*
X110008115Y-48312753D01*
X109892058Y-48472495D01*
X109892056Y-48472499D01*
X109844424Y-48565982D01*
X109805485Y-48642403D01*
X109757510Y-48693199D01*
X109689689Y-48709994D01*
X109623554Y-48687456D01*
X109584515Y-48642403D01*
X109549895Y-48574458D01*
X109497944Y-48472499D01*
X109423138Y-48369536D01*
X109381884Y-48312753D01*
X109242246Y-48173115D01*
X109082504Y-48057058D01*
X109082503Y-48057057D01*
X109082501Y-48057056D01*
X108906561Y-47967409D01*
X108906558Y-47967408D01*
X108718763Y-47906389D01*
X108523736Y-47875500D01*
X108523731Y-47875500D01*
X108326269Y-47875500D01*
X108326264Y-47875500D01*
X108131236Y-47906389D01*
X107943441Y-47967408D01*
X107767495Y-48057058D01*
X107607753Y-48173115D01*
X107468115Y-48312753D01*
X107352058Y-48472495D01*
X107352056Y-48472499D01*
X107304424Y-48565982D01*
X107265485Y-48642403D01*
X107217510Y-48693199D01*
X107149689Y-48709994D01*
X107083554Y-48687456D01*
X107044515Y-48642403D01*
X107009895Y-48574458D01*
X106957944Y-48472499D01*
X106883138Y-48369536D01*
X106841884Y-48312753D01*
X106702246Y-48173115D01*
X106542504Y-48057058D01*
X106542503Y-48057057D01*
X106542501Y-48057056D01*
X106366561Y-47967409D01*
X106366558Y-47967408D01*
X106178763Y-47906389D01*
X105983736Y-47875500D01*
X105983731Y-47875500D01*
X105786269Y-47875500D01*
X105786264Y-47875500D01*
X105591236Y-47906389D01*
X105403441Y-47967408D01*
X105227495Y-48057058D01*
X105067753Y-48173115D01*
X104928115Y-48312753D01*
X104812058Y-48472495D01*
X104722408Y-48648441D01*
X104661389Y-48836236D01*
X104630500Y-49031263D01*
X104630500Y-49228736D01*
X104661389Y-49423763D01*
X104701774Y-49548053D01*
X104722409Y-49611561D01*
X104806209Y-49776025D01*
X104812058Y-49787504D01*
X104928115Y-49947246D01*
X105067753Y-50086884D01*
X105211308Y-50191181D01*
X105227499Y-50202944D01*
X105397404Y-50289516D01*
X105448199Y-50337490D01*
X105464994Y-50405311D01*
X105442456Y-50471446D01*
X105397404Y-50510483D01*
X105363167Y-50527929D01*
X105227495Y-50597058D01*
X105067753Y-50713115D01*
X104928115Y-50852753D01*
X104812058Y-51012495D01*
X104725485Y-51182403D01*
X104677510Y-51233199D01*
X104609689Y-51249994D01*
X104543554Y-51227456D01*
X104504515Y-51182403D01*
X104417944Y-51012499D01*
X104373634Y-50951511D01*
X104301884Y-50852753D01*
X104162246Y-50713115D01*
X104002504Y-50597058D01*
X104002503Y-50597057D01*
X104002501Y-50597056D01*
X103826561Y-50507409D01*
X103826558Y-50507408D01*
X103638763Y-50446389D01*
X103443736Y-50415500D01*
X103443731Y-50415500D01*
X103246269Y-50415500D01*
X103246264Y-50415500D01*
X103051236Y-50446389D01*
X102863441Y-50507408D01*
X102687495Y-50597058D01*
X102527753Y-50713115D01*
X102388115Y-50852753D01*
X102272058Y-51012495D01*
X102185485Y-51182403D01*
X102137510Y-51233199D01*
X102069689Y-51249994D01*
X102003554Y-51227456D01*
X101964515Y-51182403D01*
X101877944Y-51012499D01*
X101833634Y-50951511D01*
X101761884Y-50852753D01*
X101622246Y-50713115D01*
X101462505Y-50597058D01*
X101456119Y-50593804D01*
X101292593Y-50510482D01*
X101241800Y-50462510D01*
X101225005Y-50394689D01*
X101247542Y-50328554D01*
X101292593Y-50289517D01*
X101462501Y-50202944D01*
X101512141Y-50166879D01*
X101622246Y-50086884D01*
X101622248Y-50086881D01*
X101622252Y-50086879D01*
X101761879Y-49947252D01*
X101761881Y-49947248D01*
X101761884Y-49947246D01*
X101812779Y-49877192D01*
X101877944Y-49787501D01*
X101967591Y-49611561D01*
X102028610Y-49423763D01*
X102059500Y-49228736D01*
X102059500Y-49031263D01*
X102028610Y-48836236D01*
X101980268Y-48687456D01*
X101967591Y-48648439D01*
X101877944Y-48472499D01*
X101803138Y-48369536D01*
X101761884Y-48312753D01*
X101622246Y-48173115D01*
X101462504Y-48057058D01*
X101462503Y-48057057D01*
X101462501Y-48057056D01*
X101286561Y-47967409D01*
X101286558Y-47967408D01*
X101098763Y-47906389D01*
X100903736Y-47875500D01*
X100903731Y-47875500D01*
X100706269Y-47875500D01*
X100706264Y-47875500D01*
X100511236Y-47906389D01*
X100323441Y-47967408D01*
X100147495Y-48057058D01*
X99987753Y-48173115D01*
X99848115Y-48312753D01*
X99732058Y-48472495D01*
X99732056Y-48472499D01*
X99684424Y-48565982D01*
X99645485Y-48642403D01*
X99597510Y-48693199D01*
X99529689Y-48709994D01*
X99463554Y-48687456D01*
X99424515Y-48642403D01*
X99389895Y-48574458D01*
X99337944Y-48472499D01*
X99263138Y-48369536D01*
X99221884Y-48312753D01*
X99082246Y-48173115D01*
X98922504Y-48057058D01*
X98922503Y-48057057D01*
X98922501Y-48057056D01*
X98746561Y-47967409D01*
X98746558Y-47967408D01*
X98558763Y-47906389D01*
X98363736Y-47875500D01*
X98363731Y-47875500D01*
X98166269Y-47875500D01*
X98166264Y-47875500D01*
X97971236Y-47906389D01*
X97783441Y-47967408D01*
X97607495Y-48057058D01*
X97447753Y-48173115D01*
X97308115Y-48312753D01*
X97192058Y-48472495D01*
X97102408Y-48648441D01*
X97041389Y-48836236D01*
X97010500Y-49031263D01*
X97010500Y-49228736D01*
X97041389Y-49423763D01*
X97081774Y-49548053D01*
X97102409Y-49611561D01*
X97186209Y-49776025D01*
X97192058Y-49787504D01*
X97308115Y-49947246D01*
X97447753Y-50086884D01*
X97591308Y-50191181D01*
X97607499Y-50202944D01*
X97777404Y-50289516D01*
X97828199Y-50337490D01*
X97844994Y-50405311D01*
X97822456Y-50471446D01*
X97777404Y-50510483D01*
X97743167Y-50527929D01*
X97607495Y-50597058D01*
X97447753Y-50713115D01*
X97308115Y-50852753D01*
X97192058Y-51012495D01*
X97105485Y-51182403D01*
X97057510Y-51233199D01*
X96989689Y-51249994D01*
X96923554Y-51227456D01*
X96884515Y-51182403D01*
X96797944Y-51012499D01*
X96753634Y-50951511D01*
X96681884Y-50852753D01*
X96542246Y-50713115D01*
X96382504Y-50597058D01*
X96382503Y-50597057D01*
X96382501Y-50597056D01*
X96206561Y-50507409D01*
X96206558Y-50507408D01*
X96018763Y-50446389D01*
X95823736Y-50415500D01*
X95823731Y-50415500D01*
X95626269Y-50415500D01*
X95626264Y-50415500D01*
X95431236Y-50446389D01*
X95243441Y-50507408D01*
X95067495Y-50597058D01*
X94907753Y-50713115D01*
X94768115Y-50852753D01*
X94652058Y-51012495D01*
X94565485Y-51182403D01*
X94517510Y-51233199D01*
X94449689Y-51249994D01*
X94383554Y-51227456D01*
X94344515Y-51182403D01*
X94257944Y-51012499D01*
X94213634Y-50951511D01*
X94141884Y-50852753D01*
X94002246Y-50713115D01*
X93842505Y-50597058D01*
X93836119Y-50593804D01*
X93672593Y-50510482D01*
X93621800Y-50462510D01*
X93605005Y-50394689D01*
X93627542Y-50328554D01*
X93672593Y-50289517D01*
X93842501Y-50202944D01*
X93892141Y-50166879D01*
X94002246Y-50086884D01*
X94002248Y-50086881D01*
X94002252Y-50086879D01*
X94141879Y-49947252D01*
X94141881Y-49947248D01*
X94141884Y-49947246D01*
X94192779Y-49877192D01*
X94257944Y-49787501D01*
X94347591Y-49611561D01*
X94408610Y-49423763D01*
X94439500Y-49228736D01*
X94439500Y-49031263D01*
X94408610Y-48836236D01*
X94360268Y-48687456D01*
X94347591Y-48648439D01*
X94257944Y-48472499D01*
X94183138Y-48369536D01*
X94141884Y-48312753D01*
X94002246Y-48173115D01*
X93842504Y-48057058D01*
X93842503Y-48057057D01*
X93842501Y-48057056D01*
X93666561Y-47967409D01*
X93666558Y-47967408D01*
X93478763Y-47906389D01*
X93283736Y-47875500D01*
X93283731Y-47875500D01*
X93086269Y-47875500D01*
X93086264Y-47875500D01*
X92891236Y-47906389D01*
X92703441Y-47967408D01*
X92527495Y-48057058D01*
X92367753Y-48173115D01*
X92228115Y-48312753D01*
X92112058Y-48472495D01*
X92112056Y-48472499D01*
X92064424Y-48565982D01*
X92025485Y-48642403D01*
X91977510Y-48693199D01*
X91909689Y-48709994D01*
X91843554Y-48687456D01*
X91804515Y-48642403D01*
X91769895Y-48574458D01*
X91717944Y-48472499D01*
X91643138Y-48369536D01*
X91601884Y-48312753D01*
X91462246Y-48173115D01*
X91302504Y-48057058D01*
X91302503Y-48057057D01*
X91302501Y-48057056D01*
X91126561Y-47967409D01*
X91126558Y-47967408D01*
X90938763Y-47906389D01*
X90743736Y-47875500D01*
X90743731Y-47875500D01*
X90546269Y-47875500D01*
X90546264Y-47875500D01*
X90351236Y-47906389D01*
X90163441Y-47967408D01*
X89987495Y-48057058D01*
X89827753Y-48173115D01*
X89688115Y-48312753D01*
X89572058Y-48472495D01*
X89572056Y-48472499D01*
X89524424Y-48565982D01*
X89485485Y-48642403D01*
X89437510Y-48693199D01*
X89369689Y-48709994D01*
X89303554Y-48687456D01*
X89264515Y-48642403D01*
X89229895Y-48574458D01*
X89177944Y-48472499D01*
X89103138Y-48369536D01*
X89061884Y-48312753D01*
X88922246Y-48173115D01*
X88762504Y-48057058D01*
X88762503Y-48057057D01*
X88762501Y-48057056D01*
X88586561Y-47967409D01*
X88586558Y-47967408D01*
X88398763Y-47906389D01*
X88203736Y-47875500D01*
X88203731Y-47875500D01*
X88006269Y-47875500D01*
X88006264Y-47875500D01*
X87811236Y-47906389D01*
X87623441Y-47967408D01*
X87447495Y-48057058D01*
X87287753Y-48173115D01*
X87148115Y-48312753D01*
X87032058Y-48472495D01*
X86942408Y-48648441D01*
X86881389Y-48836236D01*
X86850500Y-49031263D01*
X86850500Y-49228736D01*
X86881389Y-49423763D01*
X86921774Y-49548053D01*
X86942409Y-49611561D01*
X87026209Y-49776025D01*
X87032058Y-49787504D01*
X87148115Y-49947246D01*
X87287753Y-50086884D01*
X87431308Y-50191181D01*
X87447499Y-50202944D01*
X87617404Y-50289516D01*
X87668199Y-50337490D01*
X87684994Y-50405311D01*
X87662456Y-50471446D01*
X87617404Y-50510483D01*
X87583167Y-50527929D01*
X87447495Y-50597058D01*
X87287753Y-50713115D01*
X87148115Y-50852753D01*
X87032058Y-51012495D01*
X86945485Y-51182403D01*
X86897510Y-51233199D01*
X86829689Y-51249994D01*
X86763554Y-51227456D01*
X86724515Y-51182403D01*
X86637944Y-51012499D01*
X86593634Y-50951511D01*
X86521884Y-50852753D01*
X86382246Y-50713115D01*
X86222504Y-50597058D01*
X86222503Y-50597057D01*
X86222501Y-50597056D01*
X86046561Y-50507409D01*
X86046558Y-50507408D01*
X85858763Y-50446389D01*
X85663736Y-50415500D01*
X85663731Y-50415500D01*
X85466269Y-50415500D01*
X85466264Y-50415500D01*
X85271236Y-50446389D01*
X85083441Y-50507408D01*
X84907495Y-50597058D01*
X84747753Y-50713115D01*
X84608115Y-50852753D01*
X84492058Y-51012495D01*
X84405485Y-51182403D01*
X84357510Y-51233199D01*
X84289689Y-51249994D01*
X84223554Y-51227456D01*
X84184515Y-51182403D01*
X84097944Y-51012499D01*
X84053634Y-50951511D01*
X83981884Y-50852753D01*
X83842246Y-50713115D01*
X83682505Y-50597058D01*
X83676119Y-50593804D01*
X83512593Y-50510482D01*
X83461800Y-50462510D01*
X83445005Y-50394689D01*
X83467542Y-50328554D01*
X83512593Y-50289517D01*
X83682501Y-50202944D01*
X83732141Y-50166879D01*
X83842246Y-50086884D01*
X83842248Y-50086881D01*
X83842252Y-50086879D01*
X83981879Y-49947252D01*
X83981881Y-49947248D01*
X83981884Y-49947246D01*
X84032779Y-49877192D01*
X84097944Y-49787501D01*
X84187591Y-49611561D01*
X84248610Y-49423763D01*
X84279500Y-49228736D01*
X84279500Y-49031263D01*
X84248610Y-48836236D01*
X84200268Y-48687456D01*
X84187591Y-48648439D01*
X84097944Y-48472499D01*
X84023138Y-48369536D01*
X83981884Y-48312753D01*
X83842246Y-48173115D01*
X83682504Y-48057058D01*
X83682503Y-48057057D01*
X83682501Y-48057056D01*
X83506561Y-47967409D01*
X83506558Y-47967408D01*
X83318763Y-47906389D01*
X83123736Y-47875500D01*
X83123731Y-47875500D01*
X82926269Y-47875500D01*
X82926264Y-47875500D01*
X82731236Y-47906389D01*
X82543441Y-47967408D01*
X82367495Y-48057058D01*
X82207753Y-48173115D01*
X82068115Y-48312753D01*
X81952058Y-48472495D01*
X81952056Y-48472499D01*
X81904424Y-48565982D01*
X81865485Y-48642403D01*
X81817510Y-48693199D01*
X81749689Y-48709994D01*
X81683554Y-48687456D01*
X81644515Y-48642403D01*
X81609895Y-48574458D01*
X81557944Y-48472499D01*
X81483138Y-48369536D01*
X81441884Y-48312753D01*
X81302246Y-48173115D01*
X81142504Y-48057058D01*
X81142503Y-48057057D01*
X81142501Y-48057056D01*
X80966561Y-47967409D01*
X80966558Y-47967408D01*
X80778763Y-47906389D01*
X80583736Y-47875500D01*
X80583731Y-47875500D01*
X80386269Y-47875500D01*
X80386264Y-47875500D01*
X80191236Y-47906389D01*
X80003441Y-47967408D01*
X79827495Y-48057058D01*
X79667753Y-48173115D01*
X79528115Y-48312753D01*
X79412058Y-48472495D01*
X79322408Y-48648441D01*
X79261389Y-48836236D01*
X79230500Y-49031263D01*
X76496561Y-49031263D01*
X76466950Y-49009750D01*
X76466949Y-49009749D01*
X76466947Y-49009748D01*
X76393910Y-48972533D01*
X76238975Y-48893589D01*
X76238972Y-48893588D01*
X75995640Y-48814526D01*
X75869284Y-48794513D01*
X75742930Y-48774500D01*
X75487070Y-48774500D01*
X75402833Y-48787842D01*
X75234359Y-48814526D01*
X74991027Y-48893588D01*
X74991024Y-48893589D01*
X74763049Y-49009750D01*
X74556064Y-49160132D01*
X74556059Y-49160136D01*
X74375136Y-49341059D01*
X74375132Y-49341064D01*
X74224750Y-49548049D01*
X74108589Y-49776024D01*
X74108588Y-49776027D01*
X74029526Y-50019359D01*
X73989500Y-50272070D01*
X72759837Y-50272070D01*
X72760475Y-48565982D01*
X72760500Y-48565892D01*
X72760500Y-48505360D01*
X72760502Y-48505350D01*
X72760972Y-48494605D01*
X72774587Y-48338983D01*
X72778338Y-48317704D01*
X72817367Y-48172044D01*
X72824759Y-48151738D01*
X72888482Y-48015084D01*
X72899289Y-47996366D01*
X72985779Y-47872845D01*
X72999667Y-47856293D01*
X73106293Y-47749667D01*
X73122845Y-47735779D01*
X73246366Y-47649289D01*
X73265081Y-47638483D01*
X73401740Y-47574758D01*
X73422044Y-47567367D01*
X73567704Y-47528338D01*
X73588978Y-47524587D01*
X73721493Y-47512993D01*
X73744602Y-47510972D01*
X73755386Y-47510500D01*
X73815892Y-47510500D01*
X73815930Y-47510489D01*
X135494586Y-47500500D01*
X135505387Y-47500971D01*
G37*
%TD.AperFunction*%
%TD*%
M02*
