%TF.GenerationSoftware,KiCad,Pcbnew,9.0.1*%
%TF.CreationDate,2025-04-15T21:25:17-04:00*%
%TF.ProjectId,psocpcb,70736f63-7063-4622-9e6b-696361645f70,rev?*%
%TF.SameCoordinates,Original*%
%TF.FileFunction,Soldermask,Top*%
%TF.FilePolarity,Negative*%
%FSLAX46Y46*%
G04 Gerber Fmt 4.6, Leading zero omitted, Abs format (unit mm)*
G04 Created by KiCad (PCBNEW 9.0.1) date 2025-04-15 21:25:17*
%MOMM*%
%LPD*%
G01*
G04 APERTURE LIST*
G04 Aperture macros list*
%AMRoundRect*
0 Rectangle with rounded corners*
0 $1 Rounding radius*
0 $2 $3 $4 $5 $6 $7 $8 $9 X,Y pos of 4 corners*
0 Add a 4 corners polygon primitive as box body*
4,1,4,$2,$3,$4,$5,$6,$7,$8,$9,$2,$3,0*
0 Add four circle primitives for the rounded corners*
1,1,$1+$1,$2,$3*
1,1,$1+$1,$4,$5*
1,1,$1+$1,$6,$7*
1,1,$1+$1,$8,$9*
0 Add four rect primitives between the rounded corners*
20,1,$1+$1,$2,$3,$4,$5,0*
20,1,$1+$1,$4,$5,$6,$7,0*
20,1,$1+$1,$6,$7,$8,$9,0*
20,1,$1+$1,$8,$9,$2,$3,0*%
G04 Aperture macros list end*
%ADD10C,0.010000*%
%ADD11RoundRect,0.250000X-0.350000X-0.625000X0.350000X-0.625000X0.350000X0.625000X-0.350000X0.625000X0*%
%ADD12O,1.200000X1.750000*%
%ADD13RoundRect,0.200000X-0.275000X0.200000X-0.275000X-0.200000X0.275000X-0.200000X0.275000X0.200000X0*%
%ADD14RoundRect,0.150000X0.587500X0.150000X-0.587500X0.150000X-0.587500X-0.150000X0.587500X-0.150000X0*%
%ADD15RoundRect,0.225000X-0.225000X-0.250000X0.225000X-0.250000X0.225000X0.250000X-0.225000X0.250000X0*%
%ADD16RoundRect,0.225000X0.250000X-0.225000X0.250000X0.225000X-0.250000X0.225000X-0.250000X-0.225000X0*%
%ADD17RoundRect,0.200000X0.200000X0.275000X-0.200000X0.275000X-0.200000X-0.275000X0.200000X-0.275000X0*%
%ADD18R,1.700000X1.700000*%
%ADD19C,1.700000*%
%ADD20RoundRect,0.225000X-0.250000X0.225000X-0.250000X-0.225000X0.250000X-0.225000X0.250000X0.225000X0*%
%ADD21RoundRect,0.059550X-0.337450X0.727450X-0.337450X-0.727450X0.337450X-0.727450X0.337450X0.727450X0*%
%ADD22RoundRect,0.111750X-0.460250X-0.335250X0.460250X-0.335250X0.460250X0.335250X-0.460250X0.335250X0*%
%ADD23RoundRect,0.059550X-0.727450X-0.337450X0.727450X-0.337450X0.727450X0.337450X-0.727450X0.337450X0*%
%ADD24RoundRect,0.200000X0.275000X-0.200000X0.275000X0.200000X-0.275000X0.200000X-0.275000X-0.200000X0*%
%ADD25RoundRect,0.102000X0.635000X0.305000X-0.635000X0.305000X-0.635000X-0.305000X0.635000X-0.305000X0*%
%ADD26RoundRect,0.102000X0.305000X0.635000X-0.305000X0.635000X-0.305000X-0.635000X0.305000X-0.635000X0*%
%ADD27C,2.750000*%
%ADD28RoundRect,0.102000X-0.754000X-0.754000X0.754000X-0.754000X0.754000X0.754000X-0.754000X0.754000X0*%
%ADD29C,1.712000*%
%ADD30RoundRect,0.059250X-0.602750X-0.177750X0.602750X-0.177750X0.602750X0.177750X-0.602750X0.177750X0*%
%ADD31RoundRect,0.061050X-0.630950X-0.345950X0.630950X-0.345950X0.630950X0.345950X-0.630950X0.345950X0*%
%ADD32RoundRect,0.111750X0.335250X-0.460250X0.335250X0.460250X-0.335250X0.460250X-0.335250X-0.460250X0*%
%ADD33RoundRect,0.200000X-0.200000X-0.275000X0.200000X-0.275000X0.200000X0.275000X-0.200000X0.275000X0*%
G04 APERTURE END LIST*
D10*
%TO.C,U4*%
X87710000Y-62585000D02*
X86900000Y-62585000D01*
X86900000Y-62215000D01*
X87710000Y-62215000D01*
X87710000Y-62585000D01*
G36*
X87710000Y-62585000D02*
G01*
X86900000Y-62585000D01*
X86900000Y-62215000D01*
X87710000Y-62215000D01*
X87710000Y-62585000D01*
G37*
X87710000Y-63085000D02*
X86900000Y-63085000D01*
X86900000Y-62715000D01*
X87710000Y-62715000D01*
X87710000Y-63085000D01*
G36*
X87710000Y-63085000D02*
G01*
X86900000Y-63085000D01*
X86900000Y-62715000D01*
X87710000Y-62715000D01*
X87710000Y-63085000D01*
G37*
X88400000Y-63130000D02*
X87800000Y-63130000D01*
X87800000Y-62170000D01*
X88400000Y-62170000D01*
X88400000Y-63130000D01*
G36*
X88400000Y-63130000D02*
G01*
X87800000Y-63130000D01*
X87800000Y-62170000D01*
X88400000Y-62170000D01*
X88400000Y-63130000D01*
G37*
X89300000Y-62585000D02*
X88490000Y-62585000D01*
X88490000Y-62215000D01*
X89300000Y-62215000D01*
X89300000Y-62585000D01*
G36*
X89300000Y-62585000D02*
G01*
X88490000Y-62585000D01*
X88490000Y-62215000D01*
X89300000Y-62215000D01*
X89300000Y-62585000D01*
G37*
X89300000Y-63085000D02*
X88490000Y-63085000D01*
X88490000Y-62715000D01*
X89300000Y-62715000D01*
X89300000Y-63085000D01*
G36*
X89300000Y-63085000D02*
G01*
X88490000Y-63085000D01*
X88490000Y-62715000D01*
X89300000Y-62715000D01*
X89300000Y-63085000D01*
G37*
%TD*%
D11*
%TO.C,J5*%
X99450000Y-73900000D03*
D12*
X101450000Y-73900000D03*
X103450000Y-73900000D03*
X105450000Y-73900000D03*
%TD*%
D13*
%TO.C,R12*%
X131050000Y-55275000D03*
X131050000Y-56925000D03*
%TD*%
D14*
%TO.C,Q1*%
X85437500Y-56450000D03*
X85437500Y-54550000D03*
X83562500Y-55500000D03*
%TD*%
D15*
%TO.C,C10*%
X78625000Y-58600000D03*
X80175000Y-58600000D03*
%TD*%
D13*
%TO.C,R11*%
X74900000Y-67350000D03*
X74900000Y-69000000D03*
%TD*%
D16*
%TO.C,C18*%
X91050000Y-60575000D03*
X91050000Y-59025000D03*
%TD*%
D17*
%TO.C,R16*%
X93152500Y-66525000D03*
X91502500Y-66525000D03*
%TD*%
%TO.C,R17*%
X89825000Y-55500000D03*
X88175000Y-55500000D03*
%TD*%
D18*
%TO.C,J2*%
X132225000Y-69500000D03*
D19*
X134765000Y-69500000D03*
%TD*%
D13*
%TO.C,R13*%
X84000000Y-64325000D03*
X84000000Y-65975000D03*
%TD*%
D16*
%TO.C,C9*%
X75250000Y-56125000D03*
X75250000Y-54575000D03*
%TD*%
D17*
%TO.C,R15*%
X97250000Y-66500000D03*
X95600000Y-66500000D03*
%TD*%
D20*
%TO.C,C19*%
X100177500Y-66475000D03*
X100177500Y-68025000D03*
%TD*%
D16*
%TO.C,C12*%
X84000000Y-62525000D03*
X84000000Y-60975000D03*
%TD*%
D21*
%TO.C,U6*%
X97347500Y-62000000D03*
X96397500Y-62000000D03*
X95447500Y-62000000D03*
X95447500Y-64350000D03*
X97347500Y-64350000D03*
%TD*%
D22*
%TO.C,D1*%
X134495000Y-53500000D03*
X132805000Y-53500000D03*
%TD*%
D18*
%TO.C,J1*%
X134550000Y-66340000D03*
D19*
X134550000Y-63800000D03*
X134550000Y-61260000D03*
X134550000Y-58720000D03*
X134550000Y-56180000D03*
%TD*%
D23*
%TO.C,U2*%
X78172906Y-64050000D03*
X78172906Y-65000000D03*
X78172906Y-65950000D03*
X80522906Y-65950000D03*
X80522906Y-64050000D03*
%TD*%
D24*
%TO.C,R2*%
X106450000Y-64150000D03*
X106450000Y-62500000D03*
%TD*%
D25*
%TO.C,U7*%
X115380000Y-70570000D03*
X115380000Y-69670000D03*
X115380000Y-68770000D03*
X115380000Y-67870000D03*
X115380000Y-66960000D03*
X115380000Y-66060000D03*
X115380000Y-65160000D03*
X115380000Y-64260000D03*
X115380000Y-63360000D03*
X115380000Y-62460000D03*
X115380000Y-61550000D03*
X115380000Y-60650000D03*
X115380000Y-59750000D03*
X115380000Y-58850000D03*
D26*
X115690000Y-57380000D03*
X116590000Y-57380000D03*
X117490000Y-57380000D03*
X118390000Y-57380000D03*
X119290000Y-57380000D03*
X120200000Y-57380000D03*
X121100000Y-57380000D03*
X122000000Y-57380000D03*
X122900000Y-57380000D03*
X123800000Y-57380000D03*
X124700000Y-57380000D03*
X125610000Y-57380000D03*
X126510000Y-57380000D03*
X127410000Y-57380000D03*
X128310000Y-57380000D03*
D25*
X128620000Y-58850000D03*
X128620000Y-59750000D03*
X128620000Y-60650000D03*
X128620000Y-61550000D03*
X128620000Y-62460000D03*
X128620000Y-63360000D03*
X128620000Y-64260000D03*
X128620000Y-65160000D03*
X128620000Y-66060000D03*
X128620000Y-66960000D03*
X128620000Y-67870000D03*
X128620000Y-68770000D03*
X128620000Y-69670000D03*
X128620000Y-70570000D03*
%TD*%
D20*
%TO.C,C4*%
X109450000Y-72075000D03*
X109450000Y-73625000D03*
%TD*%
D27*
%TO.C,A1*%
X75615000Y-50400000D03*
X75615000Y-73400000D03*
X133615000Y-50400000D03*
X133615000Y-73400000D03*
D28*
X80485000Y-51670000D03*
D29*
X80485000Y-49130000D03*
X83025000Y-51670000D03*
X83025000Y-49130000D03*
X85565000Y-51670000D03*
X85565000Y-49130000D03*
X88105000Y-51670000D03*
X88105000Y-49130000D03*
X90645000Y-51670000D03*
X90645000Y-49130000D03*
X93185000Y-51670000D03*
X93185000Y-49130000D03*
X95725000Y-51670000D03*
X95725000Y-49130000D03*
X98265000Y-51670000D03*
X98265000Y-49130000D03*
X100805000Y-51670000D03*
X100805000Y-49130000D03*
X103345000Y-51670000D03*
X103345000Y-49130000D03*
X105885000Y-51670000D03*
X105885000Y-49130000D03*
X108425000Y-51670000D03*
X108425000Y-49130000D03*
X110965000Y-51670000D03*
X110965000Y-49130000D03*
X113505000Y-51670000D03*
X113505000Y-49130000D03*
X116045000Y-51670000D03*
X116045000Y-49130000D03*
X118585000Y-51670000D03*
X118585000Y-49130000D03*
X121125000Y-51670000D03*
X121125000Y-49130000D03*
X123665000Y-51670000D03*
X123665000Y-49130000D03*
X126205000Y-51670000D03*
X126205000Y-49130000D03*
X128745000Y-51670000D03*
X128745000Y-49130000D03*
%TD*%
D30*
%TO.C,U5*%
X103637500Y-65975000D03*
X103637500Y-66475000D03*
X103637500Y-66975000D03*
X103637500Y-67475000D03*
X106447500Y-67475000D03*
X106447500Y-66975000D03*
X106447500Y-66475000D03*
X106447500Y-65975000D03*
%TD*%
D16*
%TO.C,C17*%
X93450000Y-60575000D03*
X93450000Y-59025000D03*
%TD*%
D31*
%TO.C,U3*%
X78225000Y-54585000D03*
X78225000Y-56415000D03*
X80275000Y-55500000D03*
%TD*%
D15*
%TO.C,C11*%
X78625000Y-60800000D03*
X80175000Y-60800000D03*
%TD*%
%TO.C,C5*%
X107025000Y-60700000D03*
X108575000Y-60700000D03*
%TD*%
D11*
%TO.C,J7*%
X83000000Y-74050000D03*
D12*
X85000000Y-74050000D03*
X87000000Y-74050000D03*
X89000000Y-74050000D03*
X91000000Y-74050000D03*
X93000000Y-74050000D03*
%TD*%
D20*
%TO.C,C3*%
X111350000Y-72050000D03*
X111350000Y-73600000D03*
%TD*%
D24*
%TO.C,R1*%
X103600000Y-64150000D03*
X103600000Y-62500000D03*
%TD*%
D32*
%TO.C,D2*%
X74900000Y-63550000D03*
X74900000Y-65240000D03*
%TD*%
D33*
%TO.C,R14*%
X85925000Y-65975000D03*
X87575000Y-65975000D03*
%TD*%
M02*
