%TF.GenerationSoftware,KiCad,Pcbnew,9.0.1*%
%TF.CreationDate,2025-04-15T21:25:17-04:00*%
%TF.ProjectId,psocpcb,70736f63-7063-4622-9e6b-696361645f70,rev?*%
%TF.SameCoordinates,Original*%
%TF.FileFunction,Copper,L1,Top*%
%TF.FilePolarity,Positive*%
%FSLAX46Y46*%
G04 Gerber Fmt 4.6, Leading zero omitted, Abs format (unit mm)*
G04 Created by KiCad (PCBNEW 9.0.1) date 2025-04-15 21:25:17*
%MOMM*%
%LPD*%
G01*
G04 APERTURE LIST*
G04 Aperture macros list*
%AMRoundRect*
0 Rectangle with rounded corners*
0 $1 Rounding radius*
0 $2 $3 $4 $5 $6 $7 $8 $9 X,Y pos of 4 corners*
0 Add a 4 corners polygon primitive as box body*
4,1,4,$2,$3,$4,$5,$6,$7,$8,$9,$2,$3,0*
0 Add four circle primitives for the rounded corners*
1,1,$1+$1,$2,$3*
1,1,$1+$1,$4,$5*
1,1,$1+$1,$6,$7*
1,1,$1+$1,$8,$9*
0 Add four rect primitives between the rounded corners*
20,1,$1+$1,$2,$3,$4,$5,0*
20,1,$1+$1,$4,$5,$6,$7,0*
20,1,$1+$1,$6,$7,$8,$9,0*
20,1,$1+$1,$8,$9,$2,$3,0*%
G04 Aperture macros list end*
%TA.AperFunction,ComponentPad*%
%ADD10RoundRect,0.250000X-0.350000X-0.625000X0.350000X-0.625000X0.350000X0.625000X-0.350000X0.625000X0*%
%TD*%
%TA.AperFunction,ComponentPad*%
%ADD11O,1.200000X1.750000*%
%TD*%
%TA.AperFunction,SMDPad,CuDef*%
%ADD12RoundRect,0.200000X-0.275000X0.200000X-0.275000X-0.200000X0.275000X-0.200000X0.275000X0.200000X0*%
%TD*%
%TA.AperFunction,SMDPad,CuDef*%
%ADD13RoundRect,0.150000X0.587500X0.150000X-0.587500X0.150000X-0.587500X-0.150000X0.587500X-0.150000X0*%
%TD*%
%TA.AperFunction,SMDPad,CuDef*%
%ADD14RoundRect,0.225000X-0.225000X-0.250000X0.225000X-0.250000X0.225000X0.250000X-0.225000X0.250000X0*%
%TD*%
%TA.AperFunction,SMDPad,CuDef*%
%ADD15RoundRect,0.225000X0.250000X-0.225000X0.250000X0.225000X-0.250000X0.225000X-0.250000X-0.225000X0*%
%TD*%
%TA.AperFunction,SMDPad,CuDef*%
%ADD16RoundRect,0.200000X0.200000X0.275000X-0.200000X0.275000X-0.200000X-0.275000X0.200000X-0.275000X0*%
%TD*%
%TA.AperFunction,ComponentPad*%
%ADD17R,1.700000X1.700000*%
%TD*%
%TA.AperFunction,ComponentPad*%
%ADD18C,1.700000*%
%TD*%
%TA.AperFunction,SMDPad,CuDef*%
%ADD19RoundRect,0.225000X-0.250000X0.225000X-0.250000X-0.225000X0.250000X-0.225000X0.250000X0.225000X0*%
%TD*%
%TA.AperFunction,SMDPad,CuDef*%
%ADD20RoundRect,0.033750X-0.321250X-0.101250X0.321250X-0.101250X0.321250X0.101250X-0.321250X0.101250X0*%
%TD*%
%TA.AperFunction,SMDPad,CuDef*%
%ADD21R,0.500000X0.860000*%
%TD*%
%TA.AperFunction,SMDPad,CuDef*%
%ADD22RoundRect,0.044250X-0.250750X0.640750X-0.250750X-0.640750X0.250750X-0.640750X0.250750X0.640750X0*%
%TD*%
%TA.AperFunction,SMDPad,CuDef*%
%ADD23RoundRect,0.086250X-0.383750X-0.258750X0.383750X-0.258750X0.383750X0.258750X-0.383750X0.258750X0*%
%TD*%
%TA.AperFunction,SMDPad,CuDef*%
%ADD24RoundRect,0.044250X-0.640750X-0.250750X0.640750X-0.250750X0.640750X0.250750X-0.640750X0.250750X0*%
%TD*%
%TA.AperFunction,SMDPad,CuDef*%
%ADD25RoundRect,0.200000X0.275000X-0.200000X0.275000X0.200000X-0.275000X0.200000X-0.275000X-0.200000X0*%
%TD*%
%TA.AperFunction,SMDPad,CuDef*%
%ADD26R,1.270000X0.610000*%
%TD*%
%TA.AperFunction,SMDPad,CuDef*%
%ADD27R,0.610000X1.270000*%
%TD*%
%TA.AperFunction,ComponentPad*%
%ADD28R,1.508000X1.508000*%
%TD*%
%TA.AperFunction,ComponentPad*%
%ADD29C,1.508000*%
%TD*%
%TA.AperFunction,SMDPad,CuDef*%
%ADD30RoundRect,0.033750X-0.526250X-0.101250X0.526250X-0.101250X0.526250X0.101250X-0.526250X0.101250X0*%
%TD*%
%TA.AperFunction,SMDPad,CuDef*%
%ADD31RoundRect,0.045750X-0.544250X-0.259250X0.544250X-0.259250X0.544250X0.259250X-0.544250X0.259250X0*%
%TD*%
%TA.AperFunction,SMDPad,CuDef*%
%ADD32RoundRect,0.086250X0.258750X-0.383750X0.258750X0.383750X-0.258750X0.383750X-0.258750X-0.383750X0*%
%TD*%
%TA.AperFunction,SMDPad,CuDef*%
%ADD33RoundRect,0.200000X-0.200000X-0.275000X0.200000X-0.275000X0.200000X0.275000X-0.200000X0.275000X0*%
%TD*%
%TA.AperFunction,ViaPad*%
%ADD34C,0.600000*%
%TD*%
%TA.AperFunction,Conductor*%
%ADD35C,0.254000*%
%TD*%
%TA.AperFunction,Conductor*%
%ADD36C,0.200000*%
%TD*%
%TA.AperFunction,Conductor*%
%ADD37C,0.508000*%
%TD*%
%TA.AperFunction,Conductor*%
%ADD38C,0.500000*%
%TD*%
G04 APERTURE END LIST*
D10*
%TO.P,J5,1,Pin_1*%
%TO.N,GND*%
X99450000Y-73900000D03*
D11*
%TO.P,J5,2,Pin_2*%
%TO.N,/5V*%
X101450000Y-73900000D03*
%TO.P,J5,3,Pin_3*%
%TO.N,/SCL1.8*%
X103450000Y-73900000D03*
%TO.P,J5,4,Pin_4*%
%TO.N,/SDA1.8*%
X105450000Y-73900000D03*
%TD*%
D12*
%TO.P,R12,1*%
%TO.N,Net-(D1-PadC)*%
X131050000Y-55275000D03*
%TO.P,R12,2*%
%TO.N,/LED1*%
X131050000Y-56925000D03*
%TD*%
D13*
%TO.P,Q1,1,G*%
%TO.N,/reset*%
X85437500Y-56450000D03*
%TO.P,Q1,2,S*%
%TO.N,Net-(A1-5V[1])*%
X85437500Y-54550000D03*
%TO.P,Q1,3,D*%
%TO.N,/5V_IN*%
X83562500Y-55500000D03*
%TD*%
D14*
%TO.P,C10,1*%
%TO.N,/5V*%
X78625000Y-58600000D03*
%TO.P,C10,2*%
%TO.N,GND*%
X80175000Y-58600000D03*
%TD*%
D12*
%TO.P,R11,1*%
%TO.N,Net-(D2-PadC)*%
X74900000Y-67350000D03*
%TO.P,R11,2*%
%TO.N,GND*%
X74900000Y-69000000D03*
%TD*%
D15*
%TO.P,C18,1*%
%TO.N,/VTAG*%
X91050000Y-60575000D03*
%TO.P,C18,2*%
%TO.N,GND*%
X91050000Y-59025000D03*
%TD*%
D16*
%TO.P,R16,1*%
%TO.N,Net-(U6-ADJ)*%
X93152500Y-66525000D03*
%TO.P,R16,2*%
%TO.N,GND*%
X91502500Y-66525000D03*
%TD*%
%TO.P,R17,1*%
%TO.N,GND*%
X89825000Y-55500000D03*
%TO.P,R17,2*%
%TO.N,/reset*%
X88175000Y-55500000D03*
%TD*%
D17*
%TO.P,J2,1,Pin_1*%
%TO.N,/usbtx*%
X132225000Y-69500000D03*
D18*
%TO.P,J2,2,Pin_2*%
%TO.N,/usbrx*%
X134765000Y-69500000D03*
%TD*%
D12*
%TO.P,R13,1*%
%TO.N,/VOUT*%
X84000000Y-64325000D03*
%TO.P,R13,2*%
%TO.N,Net-(U2-ADJ)*%
X84000000Y-65975000D03*
%TD*%
D15*
%TO.P,C9,1*%
%TO.N,/5V*%
X75250000Y-56125000D03*
%TO.P,C9,2*%
%TO.N,GND*%
X75250000Y-54575000D03*
%TD*%
D16*
%TO.P,R15,1*%
%TO.N,/1.8V*%
X97250000Y-66500000D03*
%TO.P,R15,2*%
%TO.N,Net-(U6-ADJ)*%
X95600000Y-66500000D03*
%TD*%
D19*
%TO.P,C19,1*%
%TO.N,/1.8V*%
X100177500Y-66475000D03*
%TO.P,C19,2*%
%TO.N,GND*%
X100177500Y-68025000D03*
%TD*%
D20*
%TO.P,U4,1,IN*%
%TO.N,/VOUT*%
X87305000Y-62400000D03*
%TO.P,U4,2,GND*%
%TO.N,GND*%
X87305000Y-62900000D03*
%TO.P,U4,3,EN*%
%TO.N,/VOUT*%
X88895000Y-62900000D03*
%TO.P,U4,4,OUT*%
%TO.N,/VTAG*%
X88895000Y-62400000D03*
D21*
%TO.P,U4,5,GND*%
%TO.N,GND*%
X88100000Y-62650000D03*
%TD*%
D15*
%TO.P,C12,1*%
%TO.N,/VOUT*%
X84000000Y-62525000D03*
%TO.P,C12,2*%
%TO.N,GND*%
X84000000Y-60975000D03*
%TD*%
D22*
%TO.P,U6,1,IN*%
%TO.N,/VTAG*%
X97347500Y-62000000D03*
%TO.P,U6,2,GND*%
%TO.N,GND*%
X96397500Y-62000000D03*
%TO.P,U6,3,EN*%
%TO.N,/VTAG*%
X95447500Y-62000000D03*
%TO.P,U6,4,ADJ*%
%TO.N,Net-(U6-ADJ)*%
X95447500Y-64350000D03*
%TO.P,U6,5,OUT*%
%TO.N,/1.8V*%
X97347500Y-64350000D03*
%TD*%
D23*
%TO.P,D1,A*%
%TO.N,/VTAG*%
X134495000Y-53500000D03*
%TO.P,D1,C*%
%TO.N,Net-(D1-PadC)*%
X132805000Y-53500000D03*
%TD*%
D17*
%TO.P,J1,1,Pin_1*%
%TO.N,/SWDIO*%
X134550000Y-66340000D03*
D18*
%TO.P,J1,2,Pin_2*%
%TO.N,/SWDCLK*%
X134550000Y-63800000D03*
%TO.P,J1,3,Pin_3*%
%TO.N,/XRES*%
X134550000Y-61260000D03*
%TO.P,J1,4,Pin_4*%
%TO.N,GND*%
X134550000Y-58720000D03*
%TO.P,J1,5,Pin_5*%
%TO.N,/VTAG*%
X134550000Y-56180000D03*
%TD*%
D24*
%TO.P,U2,1,IN*%
%TO.N,/5V*%
X78172906Y-64050000D03*
%TO.P,U2,2,GND*%
%TO.N,GND*%
X78172906Y-65000000D03*
%TO.P,U2,3,EN*%
%TO.N,/5V*%
X78172906Y-65950000D03*
%TO.P,U2,4,ADJ*%
%TO.N,Net-(U2-ADJ)*%
X80522906Y-65950000D03*
%TO.P,U2,5,OUT*%
%TO.N,/VOUT*%
X80522906Y-64050000D03*
%TD*%
D25*
%TO.P,R2,1*%
%TO.N,/SDA*%
X106450000Y-64150000D03*
%TO.P,R2,2*%
%TO.N,/VTAG*%
X106450000Y-62500000D03*
%TD*%
D26*
%TO.P,U7,1,GND*%
%TO.N,GND*%
X115380000Y-70570000D03*
%TO.P,U7,2,P0.5*%
%TO.N,unconnected-(U7-P0.5-Pad2)*%
X115380000Y-69670000D03*
%TO.P,U7,3,VBACKUP*%
%TO.N,/VTAG*%
X115380000Y-68770000D03*
%TO.P,U7,4,VDD*%
X115380000Y-67870000D03*
%TO.P,U7,5,P0.0*%
%TO.N,Net-(U7-P0.0)*%
X115380000Y-66960000D03*
%TO.P,U7,6,P0.1*%
%TO.N,Net-(U7-P0.1)*%
X115380000Y-66060000D03*
%TO.P,U7,7,P10.3*%
%TO.N,/ADC0*%
X115380000Y-65160000D03*
%TO.P,U7,8,P10.4*%
%TO.N,/ADC1*%
X115380000Y-64260000D03*
%TO.P,U7,9,P9.3*%
%TO.N,unconnected-(U7-P9.3-Pad9)*%
X115380000Y-63360000D03*
%TO.P,U7,10,P10.6*%
%TO.N,/ADC3*%
X115380000Y-62460000D03*
%TO.P,U7,11,P10.5*%
%TO.N,/ADC2*%
X115380000Y-61550000D03*
%TO.P,U7,12,P10.1*%
%TO.N,/SCL*%
X115380000Y-60650000D03*
%TO.P,U7,13,P10.0*%
%TO.N,unconnected-(U7-P10.0-Pad13)*%
X115380000Y-59750000D03*
%TO.P,U7,14,P9.4*%
%TO.N,unconnected-(U7-P9.4-Pad14)*%
X115380000Y-58850000D03*
D27*
%TO.P,U7,15,GND*%
%TO.N,GND*%
X115690000Y-57380000D03*
%TO.P,U7,16,VREF*%
%TO.N,unconnected-(U7-VREF-Pad16)*%
X116590000Y-57380000D03*
%TO.P,U7,17,P9.0*%
%TO.N,/MCURX*%
X117490000Y-57380000D03*
%TO.P,U7,18,P9.1*%
%TO.N,/MCUTX*%
X118390000Y-57380000D03*
%TO.P,U7,19,P9.5*%
%TO.N,unconnected-(U7-P9.5-Pad19)*%
X119290000Y-57380000D03*
%TO.P,U7,20,P9.6*%
%TO.N,unconnected-(U7-P9.6-Pad20)*%
X120200000Y-57380000D03*
%TO.P,U7,21,P9.2*%
%TO.N,unconnected-(U7-P9.2-Pad21)*%
X121100000Y-57380000D03*
%TO.P,U7,22,P7.2*%
%TO.N,unconnected-(U7-P7.2-Pad22)*%
X122000000Y-57380000D03*
%TO.P,U7,23,P7.1*%
%TO.N,unconnected-(U7-P7.1-Pad23)*%
X122900000Y-57380000D03*
%TO.P,U7,24,P6.4*%
%TO.N,unconnected-(U7-P6.4-Pad24)*%
X123800000Y-57380000D03*
%TO.P,U7,25,P5.4*%
%TO.N,unconnected-(U7-P5.4-Pad25)*%
X124700000Y-57380000D03*
%TO.P,U7,26,P6.7*%
%TO.N,/SWDCLK*%
X125610000Y-57380000D03*
%TO.P,U7,27,P6.6*%
%TO.N,/SWDIO*%
X126510000Y-57380000D03*
%TO.P,U7,28,P6.2*%
%TO.N,unconnected-(U7-P6.2-Pad28)*%
X127410000Y-57380000D03*
%TO.P,U7,29,P6.5*%
%TO.N,unconnected-(U7-P6.5-Pad29)*%
X128310000Y-57380000D03*
D26*
%TO.P,U7,30,P6.3*%
%TO.N,/LED1*%
X128620000Y-58850000D03*
%TO.P,U7,31,P7.7*%
%TO.N,unconnected-(U7-P7.7-Pad31)*%
X128620000Y-59750000D03*
%TO.P,U7,32,P5.6*%
%TO.N,unconnected-(U7-P5.6-Pad32)*%
X128620000Y-60650000D03*
%TO.P,U7,33,P10.2*%
%TO.N,/SDA*%
X128620000Y-61550000D03*
%TO.P,U7,34,P12.6*%
%TO.N,unconnected-(U7-P12.6-Pad34)*%
X128620000Y-62460000D03*
%TO.P,U7,35,P12.7*%
%TO.N,unconnected-(U7-P12.7-Pad35)*%
X128620000Y-63360000D03*
%TO.P,U7,36,P5.5*%
%TO.N,unconnected-(U7-P5.5-Pad36)*%
X128620000Y-64260000D03*
%TO.P,U7,37,P5.3*%
%TO.N,unconnected-(U7-P5.3-Pad37)*%
X128620000Y-65160000D03*
%TO.P,U7,38,P5.2*%
%TO.N,unconnected-(U7-P5.2-Pad38)*%
X128620000Y-66060000D03*
%TO.P,U7,39,P5.0*%
%TO.N,/usbrx*%
X128620000Y-66960000D03*
%TO.P,U7,40,P5.1*%
%TO.N,/usbtx*%
X128620000Y-67870000D03*
%TO.P,U7,41,P0.4*%
%TO.N,unconnected-(U7-P0.4-Pad41)*%
X128620000Y-68770000D03*
%TO.P,U7,42,XRES*%
%TO.N,/XRES*%
X128620000Y-69670000D03*
%TO.P,U7,43,GND*%
%TO.N,GND*%
X128620000Y-70570000D03*
%TD*%
D19*
%TO.P,C4,1*%
%TO.N,/VTAG*%
X109450000Y-72075000D03*
%TO.P,C4,2*%
%TO.N,GND*%
X109450000Y-73625000D03*
%TD*%
D28*
%TO.P,A1,1,3V3[1]*%
%TO.N,unconnected-(A1-3V3[1]-Pad1)*%
X80485000Y-51670000D03*
D29*
%TO.P,A1,2,5V[1]*%
%TO.N,Net-(A1-5V[1])*%
X80485000Y-49130000D03*
%TO.P,A1,3,GPIO2/SDA*%
%TO.N,unconnected-(A1-GPIO2{slash}SDA-Pad3)*%
X83025000Y-51670000D03*
%TO.P,A1,4,5V[2]*%
%TO.N,Net-(A1-5V[1])*%
X83025000Y-49130000D03*
%TO.P,A1,5,GPIO3/SCL*%
%TO.N,unconnected-(A1-GPIO3{slash}SCL-Pad5)*%
X85565000Y-51670000D03*
%TO.P,A1,6,GND[8]*%
%TO.N,GND*%
X85565000Y-49130000D03*
%TO.P,A1,7,GPIO4/GPCKL0*%
%TO.N,/reset*%
X88105000Y-51670000D03*
%TO.P,A1,8,TXD0/GPIO14*%
%TO.N,/MCURX*%
X88105000Y-49130000D03*
%TO.P,A1,9,GND[1]*%
%TO.N,GND*%
X90645000Y-51670000D03*
%TO.P,A1,10,RXD0/GPIO15*%
%TO.N,/MCUTX*%
X90645000Y-49130000D03*
%TO.P,A1,11,GPIO17/GEN0*%
%TO.N,unconnected-(A1-GPIO17{slash}GEN0-Pad11)*%
X93185000Y-51670000D03*
%TO.P,A1,12,GPIO18*%
%TO.N,unconnected-(A1-GPIO18-Pad12)*%
X93185000Y-49130000D03*
%TO.P,A1,13,GPIO27/GEN2*%
%TO.N,unconnected-(A1-GPIO27{slash}GEN2-Pad13)*%
X95725000Y-51670000D03*
%TO.P,A1,14,GND[4]*%
%TO.N,GND*%
X95725000Y-49130000D03*
%TO.P,A1,15,GPIO22/GEN3*%
%TO.N,unconnected-(A1-GPIO22{slash}GEN3-Pad15)*%
X98265000Y-51670000D03*
%TO.P,A1,16,GEN4/GPIO23*%
%TO.N,unconnected-(A1-GEN4{slash}GPIO23-Pad16)*%
X98265000Y-49130000D03*
%TO.P,A1,17,3V3[2]*%
%TO.N,unconnected-(A1-3V3[2]-Pad17)*%
X100805000Y-51670000D03*
%TO.P,A1,18,GEN5/GPIO24*%
%TO.N,unconnected-(A1-GEN5{slash}GPIO24-Pad18)*%
X100805000Y-49130000D03*
%TO.P,A1,19,GPIO10/MOSI*%
%TO.N,unconnected-(A1-GPIO10{slash}MOSI-Pad19)*%
X103345000Y-51670000D03*
%TO.P,A1,20,GND[5]*%
%TO.N,GND*%
X103345000Y-49130000D03*
%TO.P,A1,21,GPIO9/MISO*%
%TO.N,unconnected-(A1-GPIO9{slash}MISO-Pad21)*%
X105885000Y-51670000D03*
%TO.P,A1,22,GEN/6GPIO25*%
%TO.N,unconnected-(A1-GEN{slash}6GPIO25-Pad22)*%
X105885000Y-49130000D03*
%TO.P,A1,23,GPIO11/SCLK*%
%TO.N,unconnected-(A1-GPIO11{slash}SCLK-Pad23)*%
X108425000Y-51670000D03*
%TO.P,A1,24,~{CE0}/GPIO8*%
%TO.N,unconnected-(A1-~{CE0}{slash}GPIO8-Pad24)*%
X108425000Y-49130000D03*
%TO.P,A1,25,GND[2]*%
%TO.N,GND*%
X110965000Y-51670000D03*
%TO.P,A1,26,~{CE1}/~{GPIO7}*%
%TO.N,unconnected-(A1-~{CE1}{slash}~{GPIO7}-Pad26)*%
X110965000Y-49130000D03*
%TO.P,A1,27,ID_SD*%
%TO.N,unconnected-(A1-ID_SD-Pad27)*%
X113505000Y-51670000D03*
%TO.P,A1,28,ID_SC*%
%TO.N,unconnected-(A1-ID_SC-Pad28)*%
X113505000Y-49130000D03*
%TO.P,A1,29,GPIO5*%
%TO.N,unconnected-(A1-GPIO5-Pad29)*%
X116045000Y-51670000D03*
%TO.P,A1,30,GND[6]*%
%TO.N,GND*%
X116045000Y-49130000D03*
%TO.P,A1,31,GPIO6*%
%TO.N,unconnected-(A1-GPIO6-Pad31)*%
X118585000Y-51670000D03*
%TO.P,A1,32,GPIO12*%
%TO.N,unconnected-(A1-GPIO12-Pad32)*%
X118585000Y-49130000D03*
%TO.P,A1,33,GPIO13*%
%TO.N,unconnected-(A1-GPIO13-Pad33)*%
X121125000Y-51670000D03*
%TO.P,A1,34,GND[7]*%
%TO.N,GND*%
X121125000Y-49130000D03*
%TO.P,A1,35,GPIO19*%
%TO.N,unconnected-(A1-GPIO19-Pad35)*%
X123665000Y-51670000D03*
%TO.P,A1,36,GPIO16*%
%TO.N,unconnected-(A1-GPIO16-Pad36)*%
X123665000Y-49130000D03*
%TO.P,A1,37,GPIO26*%
%TO.N,unconnected-(A1-GPIO26-Pad37)*%
X126205000Y-51670000D03*
%TO.P,A1,38,GPIO20*%
%TO.N,unconnected-(A1-GPIO20-Pad38)*%
X126205000Y-49130000D03*
%TO.P,A1,39,GND[3]*%
%TO.N,GND*%
X128745000Y-51670000D03*
%TO.P,A1,40,GPIO21*%
%TO.N,unconnected-(A1-GPIO21-Pad40)*%
X128745000Y-49130000D03*
%TD*%
D30*
%TO.P,U5,1,B2*%
%TO.N,/SCL*%
X103637500Y-65975000D03*
%TO.P,U5,2,GND*%
%TO.N,GND*%
X103637500Y-66475000D03*
%TO.P,U5,3,VCCA*%
%TO.N,/1.8V*%
X103637500Y-66975000D03*
%TO.P,U5,4,A2*%
%TO.N,/SCL1.8*%
X103637500Y-67475000D03*
%TO.P,U5,5,A1*%
%TO.N,/SDA1.8*%
X106447500Y-67475000D03*
%TO.P,U5,6,OE*%
%TO.N,/1.8V*%
X106447500Y-66975000D03*
%TO.P,U5,7,VCCB*%
%TO.N,/VTAG*%
X106447500Y-66475000D03*
%TO.P,U5,8,B1*%
%TO.N,/SDA*%
X106447500Y-65975000D03*
%TD*%
D15*
%TO.P,C17,1*%
%TO.N,/VTAG*%
X93450000Y-60575000D03*
%TO.P,C17,2*%
%TO.N,GND*%
X93450000Y-59025000D03*
%TD*%
D31*
%TO.P,U3,1,GND*%
%TO.N,GND*%
X78225000Y-54585000D03*
%TO.P,U3,2,OUT*%
%TO.N,/5V*%
X78225000Y-56415000D03*
%TO.P,U3,3,IN*%
%TO.N,/5V_IN*%
X80275000Y-55500000D03*
%TD*%
D14*
%TO.P,C11,1*%
%TO.N,/5V*%
X78625000Y-60800000D03*
%TO.P,C11,2*%
%TO.N,GND*%
X80175000Y-60800000D03*
%TD*%
%TO.P,C5,1*%
%TO.N,/VTAG*%
X107025000Y-60700000D03*
%TO.P,C5,2*%
%TO.N,GND*%
X108575000Y-60700000D03*
%TD*%
D10*
%TO.P,J7,1,Pin_1*%
%TO.N,GNDA*%
X83000000Y-74050000D03*
D11*
%TO.P,J7,2,Pin_2*%
%TO.N,/ADC2_raw*%
X85000000Y-74050000D03*
%TO.P,J7,3,Pin_3*%
%TO.N,/ADC3_raw*%
X87000000Y-74050000D03*
%TO.P,J7,4,Pin_4*%
%TO.N,GNDA*%
X89000000Y-74050000D03*
%TO.P,J7,5,Pin_5*%
%TO.N,/ADC1_raw*%
X91000000Y-74050000D03*
%TO.P,J7,6,Pin_6*%
%TO.N,/ADC0_raw*%
X93000000Y-74050000D03*
%TD*%
D19*
%TO.P,C3,1*%
%TO.N,/VTAG*%
X111350000Y-72050000D03*
%TO.P,C3,2*%
%TO.N,GND*%
X111350000Y-73600000D03*
%TD*%
D25*
%TO.P,R1,1*%
%TO.N,/SCL*%
X103600000Y-64150000D03*
%TO.P,R1,2*%
%TO.N,/VTAG*%
X103600000Y-62500000D03*
%TD*%
D32*
%TO.P,D2,A*%
%TO.N,/5V*%
X74900000Y-63550000D03*
%TO.P,D2,C*%
%TO.N,Net-(D2-PadC)*%
X74900000Y-65240000D03*
%TD*%
D33*
%TO.P,R14,1*%
%TO.N,Net-(U2-ADJ)*%
X85925000Y-65975000D03*
%TO.P,R14,2*%
%TO.N,GND*%
X87575000Y-65975000D03*
%TD*%
D34*
%TO.N,GND*%
X75250000Y-53100000D03*
X99275000Y-64975000D03*
X112175000Y-57525000D03*
X109325000Y-57375000D03*
X111800000Y-60075000D03*
X78250000Y-53050000D03*
X113875000Y-71900000D03*
X130000000Y-71350000D03*
X117325000Y-70125000D03*
X109675000Y-60350000D03*
X76250000Y-69025000D03*
X101350000Y-65000000D03*
X126800000Y-70200000D03*
X76225000Y-66225000D03*
%TO.N,/SDA*%
X125800000Y-61550000D03*
X113000000Y-65075000D03*
%TO.N,/ADC0*%
X112950000Y-64075000D03*
%TO.N,/ADC1*%
X109450000Y-62025000D03*
%TO.N,/ADC2*%
X113850000Y-61025000D03*
%TO.N,/ADC3*%
X113200000Y-61650000D03*
%TO.N,/SWDCLK*%
X131550000Y-63275000D03*
X128675000Y-54800000D03*
%TO.N,/SWDIO*%
X128675000Y-55625000D03*
X131200000Y-65725000D03*
%TO.N,/5V*%
X78625000Y-59725000D03*
X78575000Y-57450000D03*
X74475000Y-58450000D03*
X76500000Y-59825000D03*
X77750000Y-66850000D03*
X76500000Y-56800000D03*
X78600000Y-62100000D03*
X74525000Y-61375000D03*
X76500000Y-62750000D03*
%TO.N,GNDA*%
X89325000Y-70200000D03*
X81875000Y-71925000D03*
X85500000Y-70150000D03*
X89325000Y-72150000D03*
X93450000Y-70150000D03*
%TO.N,/VTAG*%
X91025000Y-61950000D03*
X108550000Y-70975000D03*
X101525000Y-61025000D03*
X98800000Y-61025000D03*
X112275000Y-70975000D03*
X93450000Y-61975000D03*
X104000000Y-61025000D03*
X110425000Y-70975000D03*
%TO.N,Net-(U7-P0.1)*%
X112975000Y-66050000D03*
%TO.N,Net-(U7-P0.0)*%
X113425000Y-66975000D03*
%TO.N,/XRES*%
X130200000Y-69200000D03*
%TD*%
D35*
%TO.N,GND*%
X87305000Y-62900000D02*
X87850000Y-62900000D01*
D36*
X103637500Y-66475000D02*
X101950000Y-66475000D01*
D35*
X88100000Y-62650000D02*
X88100000Y-61350000D01*
D36*
X101350000Y-65875000D02*
X101350000Y-65000000D01*
X101950000Y-66475000D02*
X101350000Y-65875000D01*
D35*
X87850000Y-62900000D02*
X88100000Y-62650000D01*
%TO.N,/SDA*%
X125800000Y-61550000D02*
X128620000Y-61550000D01*
X106450000Y-64150000D02*
X112075000Y-64150000D01*
X106450000Y-64150000D02*
X106450000Y-65972500D01*
X106450000Y-65972500D02*
X106447500Y-65975000D01*
X112200000Y-64275000D02*
X113000000Y-65075000D01*
X112075000Y-64150000D02*
X112200000Y-64275000D01*
%TO.N,/SCL*%
X115127000Y-60397000D02*
X112953000Y-60397000D01*
X112953000Y-60397000D02*
X111953000Y-61397000D01*
X104328000Y-63422000D02*
X103600000Y-64150000D01*
X107116294Y-63422000D02*
X104328000Y-63422000D01*
X103600000Y-64150000D02*
X103600000Y-65937500D01*
X115380000Y-60650000D02*
X115127000Y-60397000D01*
X103600000Y-65937500D02*
X103637500Y-65975000D01*
X111953000Y-61397000D02*
X109141294Y-61397000D01*
X109141294Y-61397000D02*
X107116294Y-63422000D01*
%TO.N,/ADC0*%
X114035000Y-65160000D02*
X115380000Y-65160000D01*
X112950000Y-64075000D02*
X114035000Y-65160000D01*
%TO.N,/ADC1*%
X111825000Y-62025000D02*
X114060000Y-64260000D01*
X109450000Y-62025000D02*
X111825000Y-62025000D01*
X114060000Y-64260000D02*
X115380000Y-64260000D01*
%TO.N,/ADC2*%
X114375000Y-61550000D02*
X115380000Y-61550000D01*
X113850000Y-61025000D02*
X114375000Y-61550000D01*
%TO.N,/ADC3*%
X113200000Y-61650000D02*
X113200000Y-62125000D01*
X113200000Y-62125000D02*
X113535000Y-62460000D01*
X113535000Y-62460000D02*
X115380000Y-62460000D01*
%TO.N,/SWDCLK*%
X125610000Y-57380000D02*
X125610000Y-56465000D01*
X125610000Y-56465000D02*
X127275000Y-54800000D01*
X131550000Y-63275000D02*
X132075000Y-63800000D01*
X127275000Y-54800000D02*
X128675000Y-54800000D01*
X132075000Y-63800000D02*
X134550000Y-63800000D01*
%TO.N,/LED1*%
X131050000Y-56925000D02*
X130545000Y-56925000D01*
X130545000Y-56925000D02*
X128620000Y-58850000D01*
%TO.N,/SWDIO*%
X127569000Y-55625000D02*
X128675000Y-55625000D01*
X126510000Y-56684000D02*
X127569000Y-55625000D01*
X131200000Y-65725000D02*
X131815000Y-66340000D01*
X126510000Y-57380000D02*
X126510000Y-56684000D01*
X131815000Y-66340000D02*
X134550000Y-66340000D01*
%TO.N,/usbtx*%
X128620000Y-67870000D02*
X130595000Y-67870000D01*
X130595000Y-67870000D02*
X132225000Y-69500000D01*
%TO.N,/usbrx*%
X128620000Y-66960000D02*
X132225000Y-66960000D01*
X132225000Y-66960000D02*
X134765000Y-69500000D01*
D37*
%TO.N,/reset*%
X87225000Y-56450000D02*
X88175000Y-55500000D01*
X88175000Y-55500000D02*
X88175000Y-51740000D01*
X88175000Y-51740000D02*
X88105000Y-51670000D01*
X85437500Y-56450000D02*
X87225000Y-56450000D01*
%TO.N,Net-(A1-5V[1])*%
X84234000Y-50339000D02*
X84234000Y-53346500D01*
X83025000Y-49130000D02*
X84234000Y-50339000D01*
X84234000Y-53346500D02*
X85437500Y-54550000D01*
X80485000Y-49130000D02*
X83025000Y-49130000D01*
D35*
%TO.N,/MCUTX*%
X94516000Y-53116000D02*
X96025000Y-54625000D01*
X96025000Y-54625000D02*
X116975000Y-54625000D01*
X116975000Y-54625000D02*
X118390000Y-56040000D01*
X92806215Y-50461000D02*
X93807785Y-50461000D01*
X91475215Y-49130000D02*
X92806215Y-50461000D01*
X90645000Y-49130000D02*
X91475215Y-49130000D01*
X94516000Y-51169215D02*
X94516000Y-53116000D01*
X118390000Y-56040000D02*
X118390000Y-57380000D01*
X93807785Y-50461000D02*
X94516000Y-51169215D01*
%TO.N,/MCURX*%
X88105000Y-49130000D02*
X89436000Y-50461000D01*
X89436000Y-50461000D02*
X91145785Y-50461000D01*
X116635000Y-55575000D02*
X117490000Y-56430000D01*
X117490000Y-56430000D02*
X117490000Y-57380000D01*
X91976000Y-51291215D02*
X91976000Y-52170785D01*
X91976000Y-52170785D02*
X95380215Y-55575000D01*
X91145785Y-50461000D02*
X91976000Y-51291215D01*
X95380215Y-55575000D02*
X116635000Y-55575000D01*
D37*
%TO.N,/VTAG*%
X113105000Y-68770000D02*
X112275000Y-69600000D01*
X134495000Y-53500000D02*
X134495000Y-56125000D01*
D35*
X108550000Y-70975000D02*
X108550000Y-67937474D01*
D37*
X112275000Y-69600000D02*
X112275000Y-70975000D01*
X115380000Y-68770000D02*
X113105000Y-68770000D01*
D35*
X107087526Y-66475000D02*
X106447500Y-66475000D01*
D37*
X115380000Y-67870000D02*
X115380000Y-68770000D01*
D35*
X89300000Y-62400000D02*
X90100000Y-61600000D01*
D37*
X134495000Y-56125000D02*
X134550000Y-56180000D01*
D35*
X88895000Y-62400000D02*
X89300000Y-62400000D01*
X108550000Y-67937474D02*
X107087526Y-66475000D01*
%TO.N,/VOUT*%
X87305000Y-62400000D02*
X86400000Y-62400000D01*
X88895000Y-62900000D02*
X88895000Y-63595000D01*
D36*
%TO.N,/1.8V*%
X103637500Y-66975000D02*
X106447500Y-66975000D01*
D35*
X100152500Y-66500000D02*
X100177500Y-66475000D01*
X100677500Y-66975000D02*
X103637500Y-66975000D01*
X97250000Y-66500000D02*
X100152500Y-66500000D01*
X97347500Y-66402500D02*
X97250000Y-66500000D01*
X100177500Y-66475000D02*
X100677500Y-66975000D01*
X97347500Y-64350000D02*
X97347500Y-66402500D01*
%TO.N,/SDA1.8*%
X105450000Y-68472500D02*
X105450000Y-73900000D01*
X106447500Y-67475000D02*
X105450000Y-68472500D01*
%TO.N,/SCL1.8*%
X103450000Y-67662500D02*
X103450000Y-73900000D01*
X103637500Y-67475000D02*
X103450000Y-67662500D01*
D37*
%TO.N,/5V_IN*%
X83562500Y-55500000D02*
X80275000Y-55500000D01*
%TO.N,Net-(U2-ADJ)*%
X83975000Y-65950000D02*
X84000000Y-65975000D01*
X84000000Y-65975000D02*
X85925000Y-65975000D01*
X80522906Y-65950000D02*
X83975000Y-65950000D01*
D35*
%TO.N,Net-(U6-ADJ)*%
X95575000Y-66525000D02*
X95600000Y-66500000D01*
X93152500Y-66525000D02*
X95575000Y-66525000D01*
X95447500Y-64350000D02*
X95447500Y-66347500D01*
X95447500Y-66347500D02*
X95600000Y-66500000D01*
%TO.N,Net-(U7-P0.1)*%
X112985000Y-66060000D02*
X112975000Y-66050000D01*
X115380000Y-66060000D02*
X112985000Y-66060000D01*
%TO.N,Net-(U7-P0.0)*%
X113440000Y-66960000D02*
X115380000Y-66960000D01*
X113425000Y-66975000D02*
X113440000Y-66960000D01*
%TO.N,Net-(D1-PadC)*%
X132805000Y-53520000D02*
X131050000Y-55275000D01*
X132805000Y-53500000D02*
X132805000Y-53520000D01*
D38*
%TO.N,Net-(D2-PadC)*%
X74900000Y-65240000D02*
X74900000Y-67350000D01*
D35*
%TO.N,/XRES*%
X128620000Y-69670000D02*
X129730000Y-69670000D01*
X129730000Y-69670000D02*
X130200000Y-69200000D01*
%TD*%
%TA.AperFunction,Conductor*%
%TO.N,/VOUT*%
G36*
X83290702Y-61769349D02*
G01*
X83290809Y-61769177D01*
X83291437Y-61769564D01*
X83291847Y-61769685D01*
X83293206Y-61770655D01*
X83441294Y-61861998D01*
X83441297Y-61861999D01*
X83441303Y-61862003D01*
X83602292Y-61915349D01*
X83701655Y-61925500D01*
X84298344Y-61925499D01*
X84298352Y-61925498D01*
X84298355Y-61925498D01*
X84352760Y-61919940D01*
X84397708Y-61915349D01*
X84558697Y-61862003D01*
X84622759Y-61822489D01*
X84709191Y-61769177D01*
X84710750Y-61771705D01*
X84763061Y-61750595D01*
X84775192Y-61750000D01*
X87328914Y-61750000D01*
X87395953Y-61769685D01*
X87441708Y-61822489D01*
X87451652Y-61891647D01*
X87428181Y-61948310D01*
X87406206Y-61977664D01*
X87406202Y-61977671D01*
X87355908Y-62112516D01*
X87351475Y-62153756D01*
X87324737Y-62218307D01*
X87267345Y-62258155D01*
X87228186Y-62264500D01*
X86941922Y-62264500D01*
X86877532Y-62272232D01*
X86856067Y-62274810D01*
X86719450Y-62328685D01*
X86719444Y-62328688D01*
X86602426Y-62417426D01*
X86513688Y-62534444D01*
X86513685Y-62534450D01*
X86459810Y-62671067D01*
X86459810Y-62671069D01*
X86449500Y-62756922D01*
X86449500Y-63043078D01*
X86455993Y-63097145D01*
X86459810Y-63128932D01*
X86513685Y-63265549D01*
X86513688Y-63265555D01*
X86549646Y-63312972D01*
X86602426Y-63382574D01*
X86719447Y-63471313D01*
X86856069Y-63525190D01*
X86941922Y-63535500D01*
X87616677Y-63535500D01*
X87660010Y-63543318D01*
X87742517Y-63574091D01*
X87802127Y-63580500D01*
X88397872Y-63580499D01*
X88457483Y-63574091D01*
X88592331Y-63523796D01*
X88707546Y-63437546D01*
X88793796Y-63322331D01*
X88844091Y-63187483D01*
X88848525Y-63146244D01*
X88875263Y-63081693D01*
X88932655Y-63041845D01*
X88971814Y-63035500D01*
X89258079Y-63035500D01*
X89317326Y-63028385D01*
X89329854Y-63027521D01*
X89331008Y-63027500D01*
X89361803Y-63027500D01*
X89364905Y-63026882D01*
X89373743Y-63026722D01*
X89402836Y-63034692D01*
X89432482Y-63040312D01*
X89436195Y-63043831D01*
X89441130Y-63045183D01*
X89461296Y-63067618D01*
X89483197Y-63088372D01*
X89484587Y-63093528D01*
X89487838Y-63097145D01*
X89491287Y-63118381D01*
X89500000Y-63150701D01*
X89500000Y-64676000D01*
X89480315Y-64743039D01*
X89427511Y-64788794D01*
X89376000Y-64800000D01*
X82300000Y-64800000D01*
X79724000Y-64800000D01*
X79656961Y-64780315D01*
X79611206Y-64727511D01*
X79600000Y-64676000D01*
X79600000Y-63124000D01*
X79619685Y-63056961D01*
X79672489Y-63011206D01*
X79724000Y-63000000D01*
X82250000Y-63000000D01*
X82250000Y-61874000D01*
X82269685Y-61806961D01*
X82322489Y-61761206D01*
X82374000Y-61750000D01*
X83224808Y-61750000D01*
X83290702Y-61769349D01*
G37*
%TD.AperFunction*%
%TD*%
%TA.AperFunction,Conductor*%
%TO.N,/VTAG*%
G36*
X90484278Y-59910243D02*
G01*
X90484448Y-59909731D01*
X90489459Y-59911391D01*
X90490476Y-59911617D01*
X90491299Y-59912000D01*
X90491303Y-59912003D01*
X90652292Y-59965349D01*
X90751655Y-59975500D01*
X91348344Y-59975499D01*
X91348352Y-59975498D01*
X91348355Y-59975498D01*
X91402760Y-59969940D01*
X91447708Y-59965349D01*
X91608697Y-59912003D01*
X91608703Y-59911998D01*
X91609524Y-59911617D01*
X91610540Y-59911391D01*
X91615552Y-59909731D01*
X91615721Y-59910243D01*
X91661927Y-59900000D01*
X92838073Y-59900000D01*
X92884278Y-59910243D01*
X92884448Y-59909731D01*
X92889459Y-59911391D01*
X92890476Y-59911617D01*
X92891299Y-59912000D01*
X92891303Y-59912003D01*
X93052292Y-59965349D01*
X93151655Y-59975500D01*
X93748344Y-59975499D01*
X93748352Y-59975498D01*
X93748355Y-59975498D01*
X93802760Y-59969940D01*
X93847708Y-59965349D01*
X94008697Y-59912003D01*
X94008703Y-59911998D01*
X94009524Y-59911617D01*
X94010540Y-59911391D01*
X94015552Y-59909731D01*
X94015721Y-59910243D01*
X94061927Y-59900000D01*
X94601766Y-59900000D01*
X94668805Y-59919685D01*
X94685556Y-59932593D01*
X95249997Y-60449997D01*
X95700340Y-60859400D01*
X95736704Y-60919061D01*
X95735040Y-60988911D01*
X95715733Y-61026078D01*
X95667448Y-61089750D01*
X95612511Y-61229061D01*
X95606732Y-61277191D01*
X95602000Y-61316597D01*
X95602000Y-61316602D01*
X95602000Y-61316603D01*
X95602001Y-62526000D01*
X95582316Y-62593039D01*
X95529513Y-62638794D01*
X95478001Y-62650000D01*
X89816275Y-62650000D01*
X89749236Y-62630315D01*
X89703481Y-62577511D01*
X89700927Y-62571506D01*
X89686313Y-62534447D01*
X89679907Y-62526000D01*
X89667174Y-62509208D01*
X89597574Y-62417426D01*
X89527972Y-62364646D01*
X89480555Y-62328688D01*
X89480549Y-62328685D01*
X89343932Y-62274810D01*
X89331666Y-62273337D01*
X89258078Y-62264500D01*
X89024000Y-62264500D01*
X88956961Y-62244815D01*
X88911206Y-62192011D01*
X88900000Y-62140500D01*
X88900000Y-60024000D01*
X88919685Y-59956961D01*
X88972489Y-59911206D01*
X89024000Y-59900000D01*
X90438073Y-59900000D01*
X90484278Y-59910243D01*
G37*
%TD.AperFunction*%
%TD*%
%TA.AperFunction,Conductor*%
%TO.N,/VTAG*%
G36*
X107540539Y-59744685D02*
G01*
X107586294Y-59797489D01*
X107597500Y-59849000D01*
X107597500Y-62002013D01*
X107577815Y-62069052D01*
X107561181Y-62089694D01*
X106892694Y-62758181D01*
X106831371Y-62791666D01*
X106805013Y-62794500D01*
X104266194Y-62794500D01*
X104144970Y-62818613D01*
X104144960Y-62818616D01*
X104030773Y-62865913D01*
X104030760Y-62865920D01*
X103927991Y-62934589D01*
X103927987Y-62934592D01*
X103649400Y-63213181D01*
X103588077Y-63246666D01*
X103561719Y-63249500D01*
X103268384Y-63249500D01*
X103238135Y-63252248D01*
X103197800Y-63255914D01*
X103074098Y-63294460D01*
X103036690Y-63300073D01*
X98599868Y-63281502D01*
X97973454Y-63278879D01*
X97906497Y-63258914D01*
X97899047Y-63253683D01*
X97867748Y-63229948D01*
X97867749Y-63229948D01*
X97728438Y-63175011D01*
X97683505Y-63169615D01*
X97640903Y-63164500D01*
X97640897Y-63164500D01*
X97224067Y-63164500D01*
X97215364Y-63161944D01*
X97206387Y-63163233D01*
X97182365Y-63152255D01*
X97157028Y-63144815D01*
X97151089Y-63137961D01*
X97142839Y-63134191D01*
X97128565Y-63111967D01*
X97111273Y-63092011D01*
X97108983Y-63081478D01*
X97105081Y-63075403D01*
X97100067Y-63040470D01*
X97100082Y-62988133D01*
X97119784Y-62921105D01*
X97125285Y-62913237D01*
X97127552Y-62910248D01*
X97182488Y-62770940D01*
X97193000Y-62683403D01*
X97192999Y-61316598D01*
X97182488Y-61229060D01*
X97127552Y-61089752D01*
X97127551Y-61089751D01*
X97127551Y-61089750D01*
X97125846Y-61087502D01*
X97124925Y-61085080D01*
X97123396Y-61082360D01*
X97123804Y-61082130D01*
X97117840Y-61066438D01*
X97105663Y-61047478D01*
X97102648Y-61026467D01*
X97101023Y-61022191D01*
X97100650Y-61012541D01*
X97100682Y-60901298D01*
X97120386Y-60834265D01*
X97136946Y-60813708D01*
X97698999Y-60251001D01*
X97701009Y-60249036D01*
X98214063Y-59759303D01*
X98276147Y-59727254D01*
X98299681Y-59725000D01*
X107473500Y-59725000D01*
X107540539Y-59744685D01*
G37*
%TD.AperFunction*%
%TD*%
%TA.AperFunction,Conductor*%
%TO.N,/5V*%
G36*
X74749519Y-55481293D02*
G01*
X74852292Y-55515349D01*
X74951655Y-55525500D01*
X75548344Y-55525499D01*
X75548352Y-55525498D01*
X75548355Y-55525498D01*
X75602760Y-55519940D01*
X75647708Y-55515349D01*
X75750480Y-55481293D01*
X75789484Y-55475000D01*
X79042500Y-55475000D01*
X79109539Y-55494685D01*
X79155294Y-55547489D01*
X79166500Y-55599000D01*
X79166500Y-62817851D01*
X79155294Y-62869363D01*
X79134664Y-62914534D01*
X79114976Y-62981582D01*
X79094500Y-63124001D01*
X79094500Y-64093849D01*
X79074815Y-64160888D01*
X79022011Y-64206643D01*
X78952853Y-64216587D01*
X78946499Y-64215330D01*
X78909333Y-64210867D01*
X78856309Y-64204500D01*
X78856302Y-64204500D01*
X77489509Y-64204500D01*
X77401966Y-64215012D01*
X77401962Y-64215013D01*
X77335167Y-64241354D01*
X77289677Y-64250000D01*
X74149000Y-64250000D01*
X74081961Y-64230315D01*
X74036206Y-64177511D01*
X74025000Y-64126000D01*
X74025000Y-55599000D01*
X74044685Y-55531961D01*
X74097489Y-55486206D01*
X74149000Y-55475000D01*
X74710516Y-55475000D01*
X74749519Y-55481293D01*
G37*
%TD.AperFunction*%
%TD*%
%TA.AperFunction,Conductor*%
%TO.N,GNDA*%
G36*
X95443039Y-69569685D02*
G01*
X95488794Y-69622489D01*
X95500000Y-69674000D01*
X95500000Y-76121997D01*
X95480315Y-76189036D01*
X95427511Y-76234791D01*
X95376020Y-76245997D01*
X81124020Y-76248304D01*
X81056977Y-76228630D01*
X81011214Y-76175834D01*
X81000000Y-76124304D01*
X81000000Y-73688389D01*
X83899500Y-73688389D01*
X83899500Y-74411611D01*
X83926598Y-74582701D01*
X83980127Y-74747445D01*
X84058768Y-74901788D01*
X84160586Y-75041928D01*
X84283072Y-75164414D01*
X84423212Y-75266232D01*
X84577555Y-75344873D01*
X84742299Y-75398402D01*
X84913389Y-75425500D01*
X84913390Y-75425500D01*
X85086610Y-75425500D01*
X85086611Y-75425500D01*
X85257701Y-75398402D01*
X85422445Y-75344873D01*
X85576788Y-75266232D01*
X85716928Y-75164414D01*
X85839414Y-75041928D01*
X85899682Y-74958975D01*
X85955012Y-74916311D01*
X86024626Y-74910332D01*
X86086421Y-74942938D01*
X86100315Y-74958973D01*
X86160586Y-75041928D01*
X86283072Y-75164414D01*
X86423212Y-75266232D01*
X86577555Y-75344873D01*
X86742299Y-75398402D01*
X86913389Y-75425500D01*
X86913390Y-75425500D01*
X87086610Y-75425500D01*
X87086611Y-75425500D01*
X87257701Y-75398402D01*
X87422445Y-75344873D01*
X87576788Y-75266232D01*
X87716928Y-75164414D01*
X87839414Y-75041928D01*
X87941232Y-74901788D01*
X88019873Y-74747445D01*
X88073402Y-74582701D01*
X88100500Y-74411611D01*
X88100500Y-73688389D01*
X89899500Y-73688389D01*
X89899500Y-74411611D01*
X89926598Y-74582701D01*
X89980127Y-74747445D01*
X90058768Y-74901788D01*
X90160586Y-75041928D01*
X90283072Y-75164414D01*
X90423212Y-75266232D01*
X90577555Y-75344873D01*
X90742299Y-75398402D01*
X90913389Y-75425500D01*
X90913390Y-75425500D01*
X91086610Y-75425500D01*
X91086611Y-75425500D01*
X91257701Y-75398402D01*
X91422445Y-75344873D01*
X91576788Y-75266232D01*
X91716928Y-75164414D01*
X91839414Y-75041928D01*
X91899682Y-74958975D01*
X91955012Y-74916311D01*
X92024626Y-74910332D01*
X92086421Y-74942938D01*
X92100315Y-74958973D01*
X92160586Y-75041928D01*
X92283072Y-75164414D01*
X92423212Y-75266232D01*
X92577555Y-75344873D01*
X92742299Y-75398402D01*
X92913389Y-75425500D01*
X92913390Y-75425500D01*
X93086610Y-75425500D01*
X93086611Y-75425500D01*
X93257701Y-75398402D01*
X93422445Y-75344873D01*
X93576788Y-75266232D01*
X93716928Y-75164414D01*
X93839414Y-75041928D01*
X93941232Y-74901788D01*
X94019873Y-74747445D01*
X94073402Y-74582701D01*
X94100500Y-74411611D01*
X94100500Y-73688389D01*
X94073402Y-73517299D01*
X94019873Y-73352555D01*
X93941232Y-73198212D01*
X93839414Y-73058072D01*
X93716928Y-72935586D01*
X93576788Y-72833768D01*
X93422445Y-72755127D01*
X93257701Y-72701598D01*
X93257699Y-72701597D01*
X93257698Y-72701597D01*
X93126271Y-72680781D01*
X93086611Y-72674500D01*
X92913389Y-72674500D01*
X92873728Y-72680781D01*
X92742302Y-72701597D01*
X92577552Y-72755128D01*
X92423211Y-72833768D01*
X92343256Y-72891859D01*
X92283072Y-72935586D01*
X92283070Y-72935588D01*
X92283069Y-72935588D01*
X92160588Y-73058069D01*
X92160581Y-73058078D01*
X92100317Y-73141023D01*
X92044987Y-73183689D01*
X91975374Y-73189667D01*
X91913579Y-73157061D01*
X91899683Y-73141023D01*
X91839418Y-73058078D01*
X91839414Y-73058072D01*
X91716928Y-72935586D01*
X91576788Y-72833768D01*
X91422445Y-72755127D01*
X91257701Y-72701598D01*
X91257699Y-72701597D01*
X91257698Y-72701597D01*
X91126271Y-72680781D01*
X91086611Y-72674500D01*
X90913389Y-72674500D01*
X90873728Y-72680781D01*
X90742302Y-72701597D01*
X90577552Y-72755128D01*
X90423211Y-72833768D01*
X90343256Y-72891859D01*
X90283072Y-72935586D01*
X90283070Y-72935588D01*
X90283069Y-72935588D01*
X90160588Y-73058069D01*
X90160588Y-73058070D01*
X90160586Y-73058072D01*
X90160582Y-73058078D01*
X90058768Y-73198211D01*
X89980128Y-73352552D01*
X89926597Y-73517302D01*
X89899500Y-73688389D01*
X88100500Y-73688389D01*
X88073402Y-73517299D01*
X88019873Y-73352555D01*
X87941232Y-73198212D01*
X87839414Y-73058072D01*
X87716928Y-72935586D01*
X87576788Y-72833768D01*
X87422445Y-72755127D01*
X87257701Y-72701598D01*
X87257699Y-72701597D01*
X87257698Y-72701597D01*
X87126271Y-72680781D01*
X87086611Y-72674500D01*
X86913389Y-72674500D01*
X86873728Y-72680781D01*
X86742302Y-72701597D01*
X86577552Y-72755128D01*
X86423211Y-72833768D01*
X86343256Y-72891859D01*
X86283072Y-72935586D01*
X86283070Y-72935588D01*
X86283069Y-72935588D01*
X86160588Y-73058069D01*
X86160581Y-73058078D01*
X86100317Y-73141023D01*
X86044987Y-73183689D01*
X85975374Y-73189667D01*
X85913579Y-73157061D01*
X85899683Y-73141023D01*
X85839418Y-73058078D01*
X85839414Y-73058072D01*
X85716928Y-72935586D01*
X85576788Y-72833768D01*
X85422445Y-72755127D01*
X85257701Y-72701598D01*
X85257699Y-72701597D01*
X85257698Y-72701597D01*
X85126271Y-72680781D01*
X85086611Y-72674500D01*
X84913389Y-72674500D01*
X84873728Y-72680781D01*
X84742302Y-72701597D01*
X84577552Y-72755128D01*
X84423211Y-72833768D01*
X84343256Y-72891859D01*
X84283072Y-72935586D01*
X84283070Y-72935588D01*
X84283069Y-72935588D01*
X84160588Y-73058069D01*
X84160588Y-73058070D01*
X84160586Y-73058072D01*
X84160582Y-73058078D01*
X84058768Y-73198211D01*
X83980128Y-73352552D01*
X83926597Y-73517302D01*
X83899500Y-73688389D01*
X81000000Y-73688389D01*
X81000000Y-69674000D01*
X81019685Y-69606961D01*
X81072489Y-69561206D01*
X81124000Y-69550000D01*
X95376000Y-69550000D01*
X95443039Y-69569685D01*
G37*
%TD.AperFunction*%
%TD*%
%TA.AperFunction,Conductor*%
%TO.N,GND*%
G36*
X98597751Y-63786998D02*
G01*
X98597752Y-63786998D01*
X102501021Y-63803335D01*
X102567975Y-63823300D01*
X102613509Y-63876295D01*
X102624500Y-63927334D01*
X102624500Y-64406613D01*
X102630913Y-64477192D01*
X102630913Y-64477194D01*
X102630914Y-64477196D01*
X102681522Y-64639606D01*
X102766595Y-64780334D01*
X102769530Y-64785188D01*
X102889811Y-64905469D01*
X102889813Y-64905470D01*
X102889815Y-64905472D01*
X102912650Y-64919276D01*
X102919914Y-64927208D01*
X102929703Y-64931679D01*
X102943100Y-64952525D01*
X102959837Y-64970801D01*
X102962656Y-64982956D01*
X102967477Y-64990457D01*
X102972500Y-65025392D01*
X102972500Y-65269781D01*
X102952815Y-65336820D01*
X102900011Y-65382575D01*
X102893990Y-65385135D01*
X102846950Y-65403685D01*
X102846944Y-65403688D01*
X102729926Y-65492426D01*
X102641188Y-65609444D01*
X102641185Y-65609450D01*
X102587310Y-65746067D01*
X102585716Y-65759343D01*
X102577000Y-65831922D01*
X102577000Y-65831928D01*
X102577000Y-66118079D01*
X102587884Y-66208716D01*
X102576333Y-66277624D01*
X102529361Y-66329348D01*
X102464769Y-66347500D01*
X101276999Y-66347500D01*
X101209960Y-66327815D01*
X101164205Y-66275011D01*
X101152999Y-66223500D01*
X101152999Y-66201662D01*
X101152998Y-66201644D01*
X101142849Y-66102292D01*
X101142848Y-66102289D01*
X101105249Y-65988823D01*
X101089503Y-65941303D01*
X101089499Y-65941297D01*
X101089498Y-65941294D01*
X101000470Y-65796959D01*
X101000467Y-65796955D01*
X100880544Y-65677032D01*
X100880540Y-65677029D01*
X100736205Y-65588001D01*
X100736199Y-65587998D01*
X100736197Y-65587997D01*
X100712148Y-65580028D01*
X100575209Y-65534651D01*
X100475846Y-65524500D01*
X99879162Y-65524500D01*
X99879144Y-65524501D01*
X99779792Y-65534650D01*
X99779789Y-65534651D01*
X99618805Y-65587996D01*
X99618794Y-65588001D01*
X99474459Y-65677029D01*
X99474455Y-65677032D01*
X99354531Y-65796956D01*
X99344267Y-65813598D01*
X99292319Y-65860322D01*
X99238729Y-65872500D01*
X98125393Y-65872500D01*
X98117174Y-65870086D01*
X98108707Y-65871372D01*
X98084154Y-65860390D01*
X98058354Y-65852815D01*
X98051081Y-65845598D01*
X98044926Y-65842846D01*
X98026800Y-65821507D01*
X98021606Y-65816354D01*
X98020403Y-65814515D01*
X98005472Y-65789815D01*
X98001958Y-65786301D01*
X97995213Y-65775984D01*
X97986580Y-65747413D01*
X97975540Y-65719685D01*
X97975052Y-65709262D01*
X97975004Y-65709101D01*
X97975039Y-65708976D01*
X97975000Y-65708130D01*
X97975000Y-65437181D01*
X97994685Y-65370142D01*
X98000197Y-65362255D01*
X98019485Y-65336820D01*
X98077552Y-65260248D01*
X98132488Y-65120940D01*
X98143000Y-65033403D01*
X98142999Y-63909612D01*
X98162684Y-63842574D01*
X98215487Y-63796819D01*
X98267515Y-63785614D01*
X98597751Y-63786998D01*
G37*
%TD.AperFunction*%
%TA.AperFunction,Conductor*%
G36*
X90901543Y-51108185D02*
G01*
X90922185Y-51124819D01*
X91312181Y-51514815D01*
X91345666Y-51576138D01*
X91348500Y-51602496D01*
X91348500Y-52232592D01*
X91372612Y-52353813D01*
X91372613Y-52353817D01*
X91372614Y-52353820D01*
X91395318Y-52408630D01*
X91419917Y-52468018D01*
X91449715Y-52512614D01*
X91453354Y-52518060D01*
X91453355Y-52518062D01*
X91488585Y-52570788D01*
X91488591Y-52570796D01*
X94892804Y-55975008D01*
X94948268Y-56030472D01*
X94980209Y-56062413D01*
X94980211Y-56062414D01*
X95082976Y-56131079D01*
X95082982Y-56131083D01*
X95116430Y-56144937D01*
X95197180Y-56178386D01*
X95288695Y-56196589D01*
X95318407Y-56202499D01*
X95318411Y-56202500D01*
X95318412Y-56202500D01*
X115818189Y-56202500D01*
X115885228Y-56222185D01*
X115930983Y-56274989D01*
X115940927Y-56344147D01*
X115917455Y-56400809D01*
X115877952Y-56453579D01*
X115841204Y-56502668D01*
X115841202Y-56502671D01*
X115790908Y-56637517D01*
X115787590Y-56668384D01*
X115784501Y-56697123D01*
X115784500Y-56697135D01*
X115784500Y-57920500D01*
X115764815Y-57987539D01*
X115712011Y-58033294D01*
X115660500Y-58044500D01*
X114697129Y-58044500D01*
X114697123Y-58044501D01*
X114637516Y-58050908D01*
X114502671Y-58101202D01*
X114502664Y-58101206D01*
X114387455Y-58187452D01*
X114387452Y-58187455D01*
X114301206Y-58302664D01*
X114301202Y-58302671D01*
X114250910Y-58437513D01*
X114250909Y-58437517D01*
X114244500Y-58497127D01*
X114244500Y-58497134D01*
X114244500Y-58497135D01*
X114244500Y-59202870D01*
X114244501Y-59202874D01*
X114250909Y-59262484D01*
X114252692Y-59270028D01*
X114249749Y-59270723D01*
X114253719Y-59326381D01*
X114252667Y-59329961D01*
X114252693Y-59329968D01*
X114250908Y-59337520D01*
X114244875Y-59393641D01*
X114244500Y-59397127D01*
X114244500Y-59574930D01*
X114244501Y-59645500D01*
X114224817Y-59712539D01*
X114172013Y-59758294D01*
X114120501Y-59769500D01*
X112891192Y-59769500D01*
X112769973Y-59793611D01*
X112769973Y-59793612D01*
X112769970Y-59793613D01*
X112769966Y-59793614D01*
X112703070Y-59821323D01*
X112703068Y-59821323D01*
X112655768Y-59840916D01*
X112655764Y-59840918D01*
X112583004Y-59889535D01*
X112583004Y-59889536D01*
X112552989Y-59909590D01*
X112552988Y-59909591D01*
X111729400Y-60733181D01*
X111668077Y-60766666D01*
X111641719Y-60769500D01*
X109079488Y-60769500D01*
X108958264Y-60793613D01*
X108958254Y-60793616D01*
X108844067Y-60840913D01*
X108844055Y-60840920D01*
X108753914Y-60901150D01*
X108753915Y-60901151D01*
X108741281Y-60909592D01*
X108741279Y-60909594D01*
X108314681Y-61336193D01*
X108253358Y-61369678D01*
X108183666Y-61364694D01*
X108127733Y-61322822D01*
X108103316Y-61257358D01*
X108103000Y-61248512D01*
X108103000Y-59849010D01*
X108103000Y-59849000D01*
X108091447Y-59741544D01*
X108080241Y-59690033D01*
X108080137Y-59689722D01*
X108046116Y-59587502D01*
X108046113Y-59587496D01*
X107986304Y-59494433D01*
X107968325Y-59466457D01*
X107968320Y-59466451D01*
X107922576Y-59413659D01*
X107922572Y-59413656D01*
X107922570Y-59413653D01*
X107813836Y-59319433D01*
X107813833Y-59319431D01*
X107813831Y-59319430D01*
X107682965Y-59259664D01*
X107682960Y-59259662D01*
X107682959Y-59259662D01*
X107615920Y-59239977D01*
X107615922Y-59239977D01*
X107615917Y-59239976D01*
X107553075Y-59230941D01*
X107473500Y-59219500D01*
X98299681Y-59219500D01*
X98269846Y-59220925D01*
X98251479Y-59221803D01*
X98227978Y-59224054D01*
X98227945Y-59224058D01*
X98203328Y-59227607D01*
X98180212Y-59230941D01*
X98044271Y-59278073D01*
X98044267Y-59278074D01*
X98044262Y-59278077D01*
X97982862Y-59309772D01*
X97982263Y-59310076D01*
X97982187Y-59310122D01*
X97982183Y-59310124D01*
X97982179Y-59310126D01*
X97982177Y-59310128D01*
X97865034Y-59393641D01*
X97865021Y-59393652D01*
X97351970Y-59883382D01*
X97347606Y-59887597D01*
X97345693Y-59889468D01*
X97341300Y-59893814D01*
X96779302Y-60456466D01*
X96779301Y-60456467D01*
X96743279Y-60496601D01*
X96726734Y-60517139D01*
X96726725Y-60517150D01*
X96695214Y-60560843D01*
X96695211Y-60560847D01*
X96679003Y-60596311D01*
X96635404Y-60691707D01*
X96635402Y-60691710D01*
X96635400Y-60691717D01*
X96616323Y-60756615D01*
X96615832Y-60758181D01*
X96615699Y-60758741D01*
X96595181Y-60901157D01*
X96595150Y-61012409D01*
X96595526Y-61032031D01*
X96595900Y-61041725D01*
X96596553Y-61052946D01*
X96597043Y-61061364D01*
X96598214Y-61066594D01*
X96601105Y-61090335D01*
X96598879Y-61103746D01*
X96593369Y-61150808D01*
X96562512Y-61229058D01*
X96560295Y-61247518D01*
X96552000Y-61316597D01*
X96552000Y-61316602D01*
X96552000Y-61316603D01*
X96552000Y-62683396D01*
X96552001Y-62683402D01*
X96562512Y-62770940D01*
X96571896Y-62794737D01*
X96596833Y-62857975D01*
X96604211Y-62921142D01*
X96594582Y-62987986D01*
X96594581Y-62987993D01*
X96594566Y-63040324D01*
X96594566Y-63040331D01*
X96599694Y-63112281D01*
X96599695Y-63112297D01*
X96604708Y-63147217D01*
X96620020Y-63217695D01*
X96629740Y-63238993D01*
X96634587Y-63251320D01*
X96652306Y-63304566D01*
X96654797Y-63374391D01*
X96633456Y-63418642D01*
X96617448Y-63439752D01*
X96562511Y-63579061D01*
X96556732Y-63627191D01*
X96552000Y-63666597D01*
X96552000Y-63666602D01*
X96552000Y-63666603D01*
X96552000Y-65033396D01*
X96562511Y-65120938D01*
X96617448Y-65260249D01*
X96694803Y-65362255D01*
X96702803Y-65383302D01*
X96714977Y-65402246D01*
X96718003Y-65423294D01*
X96719627Y-65427566D01*
X96720000Y-65437181D01*
X96720000Y-65536005D01*
X96700315Y-65603044D01*
X96660151Y-65642121D01*
X96614814Y-65669528D01*
X96614810Y-65669531D01*
X96512681Y-65771661D01*
X96451358Y-65805146D01*
X96381666Y-65800162D01*
X96337319Y-65771661D01*
X96235189Y-65669531D01*
X96235185Y-65669528D01*
X96134849Y-65608872D01*
X96127583Y-65600938D01*
X96117797Y-65596469D01*
X96104398Y-65575619D01*
X96087662Y-65557344D01*
X96084843Y-65545191D01*
X96080023Y-65537691D01*
X96075000Y-65502756D01*
X96075000Y-65437181D01*
X96094685Y-65370142D01*
X96100197Y-65362255D01*
X96119485Y-65336820D01*
X96177552Y-65260248D01*
X96232488Y-65120940D01*
X96243000Y-65033403D01*
X96242999Y-63666598D01*
X96232488Y-63579060D01*
X96177552Y-63439752D01*
X96087068Y-63320432D01*
X96087066Y-63320431D01*
X96087066Y-63320430D01*
X96035841Y-63281585D01*
X96025579Y-63273803D01*
X95984057Y-63217612D01*
X95979505Y-63147891D01*
X96013370Y-63086776D01*
X96025580Y-63076196D01*
X96087068Y-63029568D01*
X96177552Y-62910248D01*
X96232488Y-62770940D01*
X96243000Y-62683403D01*
X96242999Y-61316598D01*
X96232488Y-61229060D01*
X96223782Y-61206985D01*
X96216854Y-61140933D01*
X96240397Y-61000950D01*
X96242061Y-60931100D01*
X96242061Y-60931099D01*
X96231280Y-60840917D01*
X96224983Y-60788238D01*
X96201407Y-60733181D01*
X96168345Y-60655971D01*
X96131981Y-60596310D01*
X96131974Y-60596301D01*
X96040379Y-60485363D01*
X96040376Y-60485360D01*
X95591066Y-60076896D01*
X95590687Y-60076550D01*
X95516388Y-60008443D01*
X95027135Y-59559961D01*
X95027122Y-59559950D01*
X94994122Y-59532197D01*
X94994104Y-59532183D01*
X94977353Y-59519275D01*
X94977344Y-59519269D01*
X94977338Y-59519264D01*
X94942109Y-59494437D01*
X94942100Y-59494432D01*
X94811228Y-59434663D01*
X94802707Y-59432161D01*
X94766268Y-59421461D01*
X94744183Y-59414976D01*
X94687622Y-59406844D01*
X94601766Y-59394500D01*
X94061927Y-59394500D01*
X94043693Y-59396496D01*
X93952518Y-59406481D01*
X93950878Y-59406844D01*
X93950879Y-59406845D01*
X93900779Y-59417951D01*
X93899763Y-59418177D01*
X93899524Y-59418230D01*
X93899522Y-59418229D01*
X93899522Y-59418230D01*
X93888772Y-59420613D01*
X93885260Y-59420375D01*
X93881988Y-59421460D01*
X93881984Y-59421461D01*
X93867142Y-59426378D01*
X93867143Y-59426378D01*
X93860853Y-59428463D01*
X93860852Y-59428462D01*
X93860822Y-59428473D01*
X93802976Y-59447632D01*
X93802868Y-59447677D01*
X93791675Y-59451386D01*
X93754496Y-59463705D01*
X93715495Y-59469999D01*
X93184504Y-59469999D01*
X93145501Y-59463705D01*
X93097184Y-59447694D01*
X93097169Y-59447684D01*
X93041320Y-59429183D01*
X93041307Y-59429179D01*
X93032930Y-59426403D01*
X93030853Y-59424965D01*
X93030175Y-59424815D01*
X93020361Y-59422108D01*
X93011229Y-59420614D01*
X93000187Y-59418166D01*
X93000127Y-59418152D01*
X92979233Y-59413509D01*
X92975643Y-59412655D01*
X92973842Y-59412198D01*
X92973839Y-59412197D01*
X92972025Y-59411737D01*
X92967769Y-59410961D01*
X92949286Y-59406854D01*
X92949032Y-59406825D01*
X92947478Y-59406480D01*
X92850053Y-59395811D01*
X92838073Y-59394500D01*
X91661927Y-59394500D01*
X91643693Y-59396496D01*
X91552518Y-59406481D01*
X91550878Y-59406844D01*
X91550879Y-59406845D01*
X91500779Y-59417951D01*
X91499763Y-59418177D01*
X91499524Y-59418230D01*
X91499522Y-59418229D01*
X91499522Y-59418230D01*
X91488772Y-59420613D01*
X91485260Y-59420375D01*
X91481988Y-59421460D01*
X91481984Y-59421461D01*
X91467142Y-59426378D01*
X91467143Y-59426378D01*
X91460853Y-59428463D01*
X91460852Y-59428462D01*
X91460822Y-59428473D01*
X91402976Y-59447632D01*
X91402868Y-59447677D01*
X91391675Y-59451386D01*
X91354496Y-59463705D01*
X91315495Y-59469999D01*
X90784504Y-59469999D01*
X90745501Y-59463705D01*
X90697184Y-59447694D01*
X90697169Y-59447684D01*
X90641320Y-59429183D01*
X90641307Y-59429179D01*
X90632930Y-59426403D01*
X90630853Y-59424965D01*
X90630175Y-59424815D01*
X90620361Y-59422108D01*
X90611229Y-59420614D01*
X90600187Y-59418166D01*
X90600127Y-59418152D01*
X90579233Y-59413509D01*
X90575643Y-59412655D01*
X90573842Y-59412198D01*
X90573839Y-59412197D01*
X90572025Y-59411737D01*
X90567769Y-59410961D01*
X90549286Y-59406854D01*
X90549032Y-59406825D01*
X90547478Y-59406480D01*
X90450053Y-59395811D01*
X90438073Y-59394500D01*
X89024000Y-59394500D01*
X89023991Y-59394500D01*
X89023990Y-59394501D01*
X88916549Y-59406052D01*
X88916537Y-59406054D01*
X88865027Y-59417260D01*
X88762502Y-59451383D01*
X88762496Y-59451386D01*
X88641462Y-59529171D01*
X88641451Y-59529179D01*
X88588659Y-59574923D01*
X88494433Y-59683664D01*
X88494430Y-59683668D01*
X88434664Y-59814534D01*
X88414976Y-59881582D01*
X88394500Y-60024001D01*
X88394500Y-61710752D01*
X88374815Y-61777791D01*
X88343332Y-61811109D01*
X88330611Y-61820340D01*
X88309447Y-61828687D01*
X88192426Y-61917426D01*
X88187029Y-61924542D01*
X88172832Y-61934846D01*
X88148766Y-61943418D01*
X88126352Y-61955656D01*
X88116408Y-61954944D01*
X88107013Y-61958291D01*
X88082136Y-61952491D01*
X88056661Y-61950669D01*
X88046612Y-61944210D01*
X88038968Y-61942429D01*
X88030886Y-61934104D01*
X88012323Y-61922174D01*
X88007580Y-61917431D01*
X88007574Y-61917427D01*
X88007574Y-61917426D01*
X88000960Y-61912411D01*
X87959439Y-61856222D01*
X87952201Y-61822441D01*
X87952006Y-61819715D01*
X87952006Y-61819703D01*
X87942062Y-61750545D01*
X87901527Y-61612496D01*
X87823739Y-61491457D01*
X87806150Y-61471158D01*
X87777990Y-61438659D01*
X87777986Y-61438656D01*
X87777984Y-61438653D01*
X87669250Y-61344433D01*
X87669247Y-61344431D01*
X87669245Y-61344430D01*
X87538379Y-61284664D01*
X87538374Y-61284662D01*
X87538373Y-61284662D01*
X87479106Y-61267259D01*
X87471331Y-61264976D01*
X87409261Y-61256052D01*
X87328914Y-61244500D01*
X84775192Y-61244500D01*
X84772533Y-61244565D01*
X84750419Y-61245106D01*
X84738298Y-61245701D01*
X84713621Y-61247518D01*
X84713608Y-61247521D01*
X84573896Y-61281824D01*
X84573891Y-61281825D01*
X84573890Y-61281826D01*
X84566377Y-61284858D01*
X84496208Y-61313174D01*
X84495407Y-61314150D01*
X84486536Y-61319654D01*
X84480947Y-61322803D01*
X84443816Y-61338937D01*
X84353865Y-61394418D01*
X84351724Y-61395625D01*
X84349502Y-61396139D01*
X84329854Y-61405302D01*
X84304501Y-61413704D01*
X84265494Y-61419999D01*
X83734504Y-61419999D01*
X83695501Y-61413705D01*
X83670148Y-61405304D01*
X83644056Y-61393138D01*
X83600347Y-61366177D01*
X83600339Y-61366172D01*
X83568173Y-61346326D01*
X83568169Y-61346322D01*
X83566124Y-61344997D01*
X83563555Y-61343480D01*
X83557752Y-61339904D01*
X83557709Y-61339877D01*
X83535206Y-61325997D01*
X83534203Y-61325944D01*
X83517850Y-61318817D01*
X83494025Y-61306323D01*
X83494024Y-61306322D01*
X83494023Y-61306322D01*
X83486904Y-61304344D01*
X83476318Y-61300885D01*
X83439950Y-61287159D01*
X83434930Y-61284858D01*
X83434520Y-61284737D01*
X83434421Y-61285072D01*
X83433055Y-61284556D01*
X83433123Y-61284327D01*
X83430075Y-61283432D01*
X83429993Y-61283401D01*
X83385995Y-61270416D01*
X83385335Y-61270294D01*
X83372874Y-61266635D01*
X83371001Y-61265987D01*
X83367226Y-61264976D01*
X83296016Y-61254738D01*
X83224808Y-61244500D01*
X82374000Y-61244500D01*
X82373991Y-61244500D01*
X82373990Y-61244501D01*
X82266549Y-61256052D01*
X82266537Y-61256054D01*
X82215027Y-61267260D01*
X82112502Y-61301383D01*
X82112496Y-61301386D01*
X81991462Y-61379171D01*
X81991451Y-61379179D01*
X81938659Y-61424923D01*
X81844433Y-61533664D01*
X81844430Y-61533668D01*
X81784664Y-61664534D01*
X81764976Y-61731582D01*
X81744500Y-61874001D01*
X81744500Y-62370500D01*
X81724815Y-62437539D01*
X81672011Y-62483294D01*
X81620500Y-62494500D01*
X79796000Y-62494500D01*
X79728961Y-62474815D01*
X79683206Y-62422011D01*
X79672000Y-62370500D01*
X79672000Y-56429499D01*
X79691685Y-56362460D01*
X79744489Y-56316705D01*
X79795995Y-56305499D01*
X80862016Y-56305499D01*
X80949799Y-56294958D01*
X81021289Y-56266766D01*
X81030469Y-56263146D01*
X81075959Y-56254500D01*
X82706441Y-56254500D01*
X82741036Y-56259424D01*
X82872426Y-56297597D01*
X82872429Y-56297597D01*
X82872431Y-56297598D01*
X82909306Y-56300500D01*
X84075500Y-56300500D01*
X84142539Y-56320185D01*
X84188294Y-56372989D01*
X84199500Y-56424500D01*
X84199500Y-56665701D01*
X84202401Y-56702567D01*
X84202402Y-56702573D01*
X84248254Y-56860393D01*
X84248255Y-56860396D01*
X84331917Y-57001862D01*
X84331923Y-57001870D01*
X84448129Y-57118076D01*
X84448133Y-57118079D01*
X84448135Y-57118081D01*
X84589602Y-57201744D01*
X84618377Y-57210104D01*
X84747426Y-57247597D01*
X84747429Y-57247597D01*
X84747431Y-57247598D01*
X84784306Y-57250500D01*
X84784314Y-57250500D01*
X86090686Y-57250500D01*
X86090694Y-57250500D01*
X86127569Y-57247598D01*
X86127571Y-57247597D01*
X86127573Y-57247597D01*
X86258964Y-57209424D01*
X86293559Y-57204500D01*
X87144554Y-57204500D01*
X87144574Y-57204501D01*
X87150688Y-57204501D01*
X87299314Y-57204501D01*
X87343386Y-57195733D01*
X87420894Y-57180315D01*
X87445080Y-57175505D01*
X87525845Y-57142051D01*
X87582389Y-57118630D01*
X87705966Y-57036059D01*
X88230205Y-56511818D01*
X88291528Y-56478334D01*
X88317886Y-56475500D01*
X88431613Y-56475500D01*
X88431616Y-56475500D01*
X88502196Y-56469086D01*
X88664606Y-56418478D01*
X88810185Y-56330472D01*
X88930472Y-56210185D01*
X89018478Y-56064606D01*
X89069086Y-55902196D01*
X89075500Y-55831616D01*
X89075500Y-55168384D01*
X89069086Y-55097804D01*
X89018478Y-54935394D01*
X88947383Y-54817789D01*
X88929500Y-54753639D01*
X88929500Y-52670993D01*
X88949185Y-52603954D01*
X88965819Y-52583312D01*
X88978343Y-52570788D01*
X89061879Y-52487252D01*
X89061881Y-52487248D01*
X89061884Y-52487246D01*
X89158822Y-52353820D01*
X89177944Y-52327501D01*
X89267591Y-52151561D01*
X89328610Y-51963763D01*
X89337694Y-51906410D01*
X89359500Y-51768736D01*
X89359500Y-51571263D01*
X89328610Y-51376236D01*
X89287859Y-51250818D01*
X89285864Y-51180977D01*
X89321944Y-51121144D01*
X89384645Y-51090316D01*
X89405790Y-51088500D01*
X90834504Y-51088500D01*
X90901543Y-51108185D01*
G37*
%TD.AperFunction*%
%TA.AperFunction,Conductor*%
G36*
X135505387Y-47500971D02*
G01*
X135661021Y-47514587D01*
X135682297Y-47518338D01*
X135827951Y-47557366D01*
X135848261Y-47564759D01*
X135984915Y-47628482D01*
X136003633Y-47639289D01*
X136127154Y-47725779D01*
X136143712Y-47739673D01*
X136250326Y-47846287D01*
X136264220Y-47862845D01*
X136350710Y-47986366D01*
X136361517Y-48005084D01*
X136425240Y-48141738D01*
X136432633Y-48162049D01*
X136471659Y-48307696D01*
X136475412Y-48328982D01*
X136479482Y-48375500D01*
X136487968Y-48472495D01*
X136489028Y-48484604D01*
X136489500Y-48495412D01*
X136489500Y-48563459D01*
X136489555Y-48564300D01*
X136509494Y-75244546D01*
X136509022Y-75255446D01*
X136495412Y-75411016D01*
X136491659Y-75432303D01*
X136452633Y-75577950D01*
X136445240Y-75598261D01*
X136381517Y-75734915D01*
X136370710Y-75753633D01*
X136284220Y-75877154D01*
X136270326Y-75893712D01*
X136163712Y-76000326D01*
X136147154Y-76014220D01*
X136023633Y-76100710D01*
X136004915Y-76111517D01*
X135868261Y-76175240D01*
X135847950Y-76182633D01*
X135702303Y-76221659D01*
X135681016Y-76225412D01*
X135525387Y-76239028D01*
X135514600Y-76239500D01*
X135454108Y-76239500D01*
X135454070Y-76239509D01*
X135446247Y-76239511D01*
X96624020Y-76245794D01*
X96556977Y-76226120D01*
X96511214Y-76173324D01*
X96500000Y-76121794D01*
X96500000Y-75500000D01*
X115000000Y-75500000D01*
X129000000Y-75500000D01*
X129000000Y-73272070D01*
X131989500Y-73272070D01*
X131989500Y-73527929D01*
X132029526Y-73780640D01*
X132108588Y-74023972D01*
X132108589Y-74023975D01*
X132224750Y-74251950D01*
X132375132Y-74458935D01*
X132375136Y-74458940D01*
X132556059Y-74639863D01*
X132556064Y-74639867D01*
X132721871Y-74760332D01*
X132763053Y-74790252D01*
X132912080Y-74866185D01*
X132991024Y-74906410D01*
X132991027Y-74906411D01*
X133112693Y-74945942D01*
X133234361Y-74985474D01*
X133487070Y-75025500D01*
X133487071Y-75025500D01*
X133742929Y-75025500D01*
X133742930Y-75025500D01*
X133995639Y-74985474D01*
X134238975Y-74906410D01*
X134466947Y-74790252D01*
X134673942Y-74639862D01*
X134854862Y-74458942D01*
X135005252Y-74251947D01*
X135121410Y-74023975D01*
X135200474Y-73780639D01*
X135240500Y-73527930D01*
X135240500Y-73272070D01*
X135200474Y-73019361D01*
X135132440Y-72809972D01*
X135121411Y-72776027D01*
X135121410Y-72776024D01*
X135081185Y-72697080D01*
X135005252Y-72548053D01*
X134986038Y-72521607D01*
X134854867Y-72341064D01*
X134854863Y-72341059D01*
X134673940Y-72160136D01*
X134673935Y-72160132D01*
X134466950Y-72009750D01*
X134466949Y-72009749D01*
X134466947Y-72009748D01*
X134393910Y-71972533D01*
X134238975Y-71893589D01*
X134238972Y-71893588D01*
X133995640Y-71814526D01*
X133869284Y-71794513D01*
X133742930Y-71774500D01*
X133487070Y-71774500D01*
X133402833Y-71787842D01*
X133234359Y-71814526D01*
X132991027Y-71893588D01*
X132991024Y-71893589D01*
X132763049Y-72009750D01*
X132556064Y-72160132D01*
X132556059Y-72160136D01*
X132375136Y-72341059D01*
X132375132Y-72341064D01*
X132224750Y-72548049D01*
X132108589Y-72776024D01*
X132108588Y-72776027D01*
X132029526Y-73019359D01*
X131989500Y-73272070D01*
X129000000Y-73272070D01*
X129000000Y-70900000D01*
X115000000Y-70900000D01*
X115000000Y-75500000D01*
X96500000Y-75500000D01*
X96500000Y-68725000D01*
X80000000Y-68725000D01*
X80000000Y-76124506D01*
X79980315Y-76191545D01*
X79927511Y-76237300D01*
X79876020Y-76248506D01*
X73745425Y-76249499D01*
X73734597Y-76249027D01*
X73578982Y-76235412D01*
X73557696Y-76231659D01*
X73412049Y-76192633D01*
X73391738Y-76185240D01*
X73255084Y-76121517D01*
X73236366Y-76110710D01*
X73112845Y-76024220D01*
X73096287Y-76010326D01*
X72989673Y-75903712D01*
X72975779Y-75887154D01*
X72889289Y-75763633D01*
X72878482Y-75744915D01*
X72814759Y-75608261D01*
X72807366Y-75587950D01*
X72783800Y-75500000D01*
X72768338Y-75442297D01*
X72764587Y-75421017D01*
X72761039Y-75380464D01*
X72750972Y-75265397D01*
X72750501Y-75254577D01*
X72751242Y-73272070D01*
X73989500Y-73272070D01*
X73989500Y-73527929D01*
X74029526Y-73780640D01*
X74108588Y-74023972D01*
X74108589Y-74023975D01*
X74224750Y-74251950D01*
X74375132Y-74458935D01*
X74375136Y-74458940D01*
X74556059Y-74639863D01*
X74556064Y-74639867D01*
X74721871Y-74760332D01*
X74763053Y-74790252D01*
X74912080Y-74866185D01*
X74991024Y-74906410D01*
X74991027Y-74906411D01*
X75112693Y-74945942D01*
X75234361Y-74985474D01*
X75487070Y-75025500D01*
X75487071Y-75025500D01*
X75742929Y-75025500D01*
X75742930Y-75025500D01*
X75995639Y-74985474D01*
X76238975Y-74906410D01*
X76466947Y-74790252D01*
X76673942Y-74639862D01*
X76854862Y-74458942D01*
X77005252Y-74251947D01*
X77121410Y-74023975D01*
X77200474Y-73780639D01*
X77240500Y-73527930D01*
X77240500Y-73272070D01*
X77200474Y-73019361D01*
X77132440Y-72809972D01*
X77121411Y-72776027D01*
X77121410Y-72776024D01*
X77081185Y-72697080D01*
X77005252Y-72548053D01*
X76986038Y-72521607D01*
X76854867Y-72341064D01*
X76854863Y-72341059D01*
X76673940Y-72160136D01*
X76673935Y-72160132D01*
X76466950Y-72009750D01*
X76466949Y-72009749D01*
X76466947Y-72009748D01*
X76393910Y-71972533D01*
X76238975Y-71893589D01*
X76238972Y-71893588D01*
X75995640Y-71814526D01*
X75869284Y-71794513D01*
X75742930Y-71774500D01*
X75487070Y-71774500D01*
X75402833Y-71787842D01*
X75234359Y-71814526D01*
X74991027Y-71893588D01*
X74991024Y-71893589D01*
X74763049Y-72009750D01*
X74556064Y-72160132D01*
X74556059Y-72160136D01*
X74375136Y-72341059D01*
X74375132Y-72341064D01*
X74224750Y-72548049D01*
X74108589Y-72776024D01*
X74108588Y-72776027D01*
X74029526Y-73019359D01*
X73989500Y-73272070D01*
X72751242Y-73272070D01*
X72757847Y-55599000D01*
X73519500Y-55599000D01*
X73519500Y-64126000D01*
X73519501Y-64126009D01*
X73531052Y-64233450D01*
X73531054Y-64233462D01*
X73542260Y-64284972D01*
X73576383Y-64387497D01*
X73576386Y-64387503D01*
X73654171Y-64508537D01*
X73654179Y-64508548D01*
X73699923Y-64561340D01*
X73699926Y-64561343D01*
X73699930Y-64561347D01*
X73808664Y-64655567D01*
X73808667Y-64655568D01*
X73808668Y-64655569D01*
X73861695Y-64679786D01*
X73939541Y-64715338D01*
X73965436Y-64722941D01*
X74024213Y-64760715D01*
X74053238Y-64824271D01*
X74054500Y-64841918D01*
X74054500Y-65662213D01*
X74060674Y-65709101D01*
X74069152Y-65773500D01*
X74069603Y-65776920D01*
X74069604Y-65776925D01*
X74128724Y-65919655D01*
X74132789Y-65926696D01*
X74129680Y-65928490D01*
X74149042Y-65978170D01*
X74149500Y-65988823D01*
X74149500Y-66583480D01*
X74129815Y-66650519D01*
X74113181Y-66671161D01*
X74069531Y-66714810D01*
X74069530Y-66714811D01*
X73981522Y-66860393D01*
X73930913Y-67022807D01*
X73928093Y-67053842D01*
X73924500Y-67093384D01*
X73924500Y-67606616D01*
X73925515Y-67617787D01*
X73930913Y-67677192D01*
X73930913Y-67677194D01*
X73930914Y-67677196D01*
X73981522Y-67839606D01*
X74052836Y-67957574D01*
X74069530Y-67985188D01*
X74189811Y-68105469D01*
X74189813Y-68105470D01*
X74189815Y-68105472D01*
X74335394Y-68193478D01*
X74497804Y-68244086D01*
X74568384Y-68250500D01*
X74568387Y-68250500D01*
X75231613Y-68250500D01*
X75231616Y-68250500D01*
X75302196Y-68244086D01*
X75464606Y-68193478D01*
X75610185Y-68105472D01*
X75730472Y-67985185D01*
X75818478Y-67839606D01*
X75869086Y-67677196D01*
X75875500Y-67606616D01*
X75875500Y-67093384D01*
X75869086Y-67022804D01*
X75818478Y-66860394D01*
X75730472Y-66714815D01*
X75730470Y-66714813D01*
X75730469Y-66714811D01*
X75686819Y-66671161D01*
X75653334Y-66609838D01*
X75650500Y-66583480D01*
X75650500Y-65988823D01*
X75668520Y-65927452D01*
X75667211Y-65926696D01*
X75671270Y-65919663D01*
X75671275Y-65919657D01*
X75730397Y-65776922D01*
X75745500Y-65662206D01*
X75745500Y-64879500D01*
X75765185Y-64812461D01*
X75817989Y-64766706D01*
X75869500Y-64755500D01*
X77188582Y-64755500D01*
X77255621Y-64775185D01*
X77262284Y-64779842D01*
X77262656Y-64780051D01*
X77262657Y-64780051D01*
X77262658Y-64780052D01*
X77401966Y-64834988D01*
X77489503Y-64845500D01*
X78856308Y-64845499D01*
X78943846Y-64834988D01*
X78975348Y-64822564D01*
X79044934Y-64816284D01*
X79106870Y-64848621D01*
X79130063Y-64879220D01*
X79135119Y-64888629D01*
X79151387Y-64937504D01*
X79212439Y-65032503D01*
X79214732Y-65036768D01*
X79220972Y-65066403D01*
X79229506Y-65095467D01*
X79228099Y-65100256D01*
X79229128Y-65105139D01*
X79218355Y-65133442D01*
X79209822Y-65162507D01*
X79206049Y-65165775D01*
X79204275Y-65170439D01*
X79179908Y-65188427D01*
X79157018Y-65208262D01*
X79152078Y-65208972D01*
X79148064Y-65211936D01*
X79117838Y-65213895D01*
X79087860Y-65218206D01*
X79080686Y-65216303D01*
X79078341Y-65216456D01*
X79075667Y-65214972D01*
X79060017Y-65210823D01*
X78958594Y-65170828D01*
X78943846Y-65165012D01*
X78856309Y-65154500D01*
X78856302Y-65154500D01*
X77489509Y-65154500D01*
X77401967Y-65165011D01*
X77262656Y-65219948D01*
X77143330Y-65310437D01*
X77143149Y-65310619D01*
X77142464Y-65311094D01*
X77136581Y-65315556D01*
X77136394Y-65315309D01*
X77119206Y-65327246D01*
X77119956Y-65328412D01*
X77112496Y-65333205D01*
X77112496Y-65333206D01*
X77105972Y-65337399D01*
X76991462Y-65410990D01*
X76991451Y-65410998D01*
X76938659Y-65456742D01*
X76844433Y-65565483D01*
X76844430Y-65565487D01*
X76784664Y-65696353D01*
X76764976Y-65763401D01*
X76760152Y-65796955D01*
X76744500Y-65905819D01*
X76744500Y-67126000D01*
X76744501Y-67126009D01*
X76756052Y-67233450D01*
X76756054Y-67233462D01*
X76767260Y-67284972D01*
X76801383Y-67387497D01*
X76801386Y-67387503D01*
X76879171Y-67508537D01*
X76879179Y-67508548D01*
X76924923Y-67561340D01*
X76924926Y-67561343D01*
X76924930Y-67561347D01*
X77033664Y-67655567D01*
X77033667Y-67655568D01*
X77033668Y-67655569D01*
X77164308Y-67715232D01*
X77164541Y-67715338D01*
X77231580Y-67735023D01*
X77231584Y-67735024D01*
X77374000Y-67755500D01*
X77374003Y-67755500D01*
X78975990Y-67755500D01*
X78976000Y-67755500D01*
X79083456Y-67743947D01*
X79134967Y-67732741D01*
X79181819Y-67717147D01*
X79237497Y-67698616D01*
X79237501Y-67698613D01*
X79237504Y-67698613D01*
X79358543Y-67620825D01*
X79411347Y-67575070D01*
X79505567Y-67466336D01*
X79565338Y-67335459D01*
X79585023Y-67268420D01*
X79585024Y-67268416D01*
X79605500Y-67126000D01*
X79605500Y-66857181D01*
X79625185Y-66790142D01*
X79677989Y-66744387D01*
X79744284Y-66734065D01*
X79751963Y-66734987D01*
X79751966Y-66734988D01*
X79839503Y-66745500D01*
X81206308Y-66745499D01*
X81293846Y-66734988D01*
X81335592Y-66718525D01*
X81349234Y-66713146D01*
X81394724Y-66704500D01*
X83213874Y-66704500D01*
X83280913Y-66724185D01*
X83289445Y-66730247D01*
X83289811Y-66730468D01*
X83289815Y-66730472D01*
X83435394Y-66818478D01*
X83597804Y-66869086D01*
X83668384Y-66875500D01*
X83668387Y-66875500D01*
X84331613Y-66875500D01*
X84331616Y-66875500D01*
X84402196Y-66869086D01*
X84564606Y-66818478D01*
X84682211Y-66747382D01*
X84746360Y-66729500D01*
X85162481Y-66729500D01*
X85229520Y-66749185D01*
X85250163Y-66765820D01*
X85289811Y-66805468D01*
X85289811Y-66805469D01*
X85289813Y-66805470D01*
X85289815Y-66805472D01*
X85435394Y-66893478D01*
X85597804Y-66944086D01*
X85668384Y-66950500D01*
X85668387Y-66950500D01*
X86181613Y-66950500D01*
X86181616Y-66950500D01*
X86252196Y-66944086D01*
X86414606Y-66893478D01*
X86560185Y-66805472D01*
X86680472Y-66685185D01*
X86768478Y-66539606D01*
X86819086Y-66377196D01*
X86825500Y-66306616D01*
X86825500Y-65643384D01*
X86819086Y-65572804D01*
X86785925Y-65466387D01*
X86784776Y-65396529D01*
X86821577Y-65337137D01*
X86884646Y-65307069D01*
X86904312Y-65305500D01*
X89375990Y-65305500D01*
X89376000Y-65305500D01*
X89483456Y-65293947D01*
X89534967Y-65282741D01*
X89573905Y-65269781D01*
X89637497Y-65248616D01*
X89637501Y-65248613D01*
X89637504Y-65248613D01*
X89758543Y-65170825D01*
X89811347Y-65125070D01*
X89905567Y-65016336D01*
X89965338Y-64885459D01*
X89985023Y-64818420D01*
X89985024Y-64818416D01*
X90005500Y-64676000D01*
X90005500Y-63279500D01*
X90025185Y-63212461D01*
X90077989Y-63166706D01*
X90129500Y-63155500D01*
X94683350Y-63155500D01*
X94750389Y-63175185D01*
X94796144Y-63227989D01*
X94806088Y-63297147D01*
X94782153Y-63354426D01*
X94717448Y-63439750D01*
X94662511Y-63579061D01*
X94656732Y-63627191D01*
X94652000Y-63666597D01*
X94652000Y-63666602D01*
X94652000Y-63666603D01*
X94652000Y-65033396D01*
X94662511Y-65120938D01*
X94717448Y-65260249D01*
X94794803Y-65362255D01*
X94819627Y-65427566D01*
X94820000Y-65437181D01*
X94820000Y-65773500D01*
X94800315Y-65840539D01*
X94747511Y-65886294D01*
X94696000Y-65897500D01*
X94027893Y-65897500D01*
X93960854Y-65877815D01*
X93921777Y-65837651D01*
X93912017Y-65821507D01*
X93907972Y-65814815D01*
X93907971Y-65814814D01*
X93907968Y-65814810D01*
X93787688Y-65694530D01*
X93757335Y-65676181D01*
X93642106Y-65606522D01*
X93479696Y-65555914D01*
X93479694Y-65555913D01*
X93479692Y-65555913D01*
X93430278Y-65551423D01*
X93409116Y-65549500D01*
X92895884Y-65549500D01*
X92876645Y-65551248D01*
X92825307Y-65555913D01*
X92662893Y-65606522D01*
X92517311Y-65694530D01*
X92397030Y-65814811D01*
X92309022Y-65960393D01*
X92258413Y-66122807D01*
X92253282Y-66179275D01*
X92252000Y-66193384D01*
X92252000Y-66856616D01*
X92253133Y-66869086D01*
X92258413Y-66927192D01*
X92258413Y-66927194D01*
X92258414Y-66927196D01*
X92309022Y-67089606D01*
X92395986Y-67233462D01*
X92397030Y-67235188D01*
X92517311Y-67355469D01*
X92517313Y-67355470D01*
X92517315Y-67355472D01*
X92662894Y-67443478D01*
X92825304Y-67494086D01*
X92895884Y-67500500D01*
X92895887Y-67500500D01*
X93409113Y-67500500D01*
X93409116Y-67500500D01*
X93479696Y-67494086D01*
X93642106Y-67443478D01*
X93787685Y-67355472D01*
X93907972Y-67235185D01*
X93921777Y-67212349D01*
X93973305Y-67165162D01*
X94027893Y-67152500D01*
X94739720Y-67152500D01*
X94806759Y-67172185D01*
X94838820Y-67205135D01*
X94839906Y-67204285D01*
X94844531Y-67210189D01*
X94964811Y-67330469D01*
X94964813Y-67330470D01*
X94964815Y-67330472D01*
X95110394Y-67418478D01*
X95272804Y-67469086D01*
X95343384Y-67475500D01*
X95343387Y-67475500D01*
X95856613Y-67475500D01*
X95856616Y-67475500D01*
X95927196Y-67469086D01*
X96089606Y-67418478D01*
X96235185Y-67330472D01*
X96280690Y-67284967D01*
X96337319Y-67228339D01*
X96398642Y-67194854D01*
X96468334Y-67199838D01*
X96512681Y-67228339D01*
X96614811Y-67330469D01*
X96614813Y-67330470D01*
X96614815Y-67330472D01*
X96760394Y-67418478D01*
X96922804Y-67469086D01*
X96993384Y-67475500D01*
X96993387Y-67475500D01*
X97506613Y-67475500D01*
X97506616Y-67475500D01*
X97577196Y-67469086D01*
X97739606Y-67418478D01*
X97885185Y-67330472D01*
X98005472Y-67210185D01*
X98019277Y-67187349D01*
X98070805Y-67140162D01*
X98125393Y-67127500D01*
X99277625Y-67127500D01*
X99344664Y-67147185D01*
X99365306Y-67163818D01*
X99474456Y-67272968D01*
X99474458Y-67272969D01*
X99474459Y-67272970D01*
X99618794Y-67361998D01*
X99618797Y-67361999D01*
X99618803Y-67362003D01*
X99779792Y-67415349D01*
X99879155Y-67425500D01*
X100189217Y-67425499D01*
X100254366Y-67443993D01*
X100266674Y-67451593D01*
X100277492Y-67462411D01*
X100380267Y-67531083D01*
X100417036Y-67546313D01*
X100494466Y-67578386D01*
X100615692Y-67602499D01*
X100615696Y-67602500D01*
X100615697Y-67602500D01*
X100739303Y-67602500D01*
X102465129Y-67602500D01*
X102532168Y-67622185D01*
X102577923Y-67674989D01*
X102583977Y-67696568D01*
X102585360Y-67696219D01*
X102587309Y-67703930D01*
X102641185Y-67840549D01*
X102641188Y-67840555D01*
X102729922Y-67957570D01*
X102729923Y-67957571D01*
X102729926Y-67957574D01*
X102773425Y-67990560D01*
X102814948Y-68046750D01*
X102822500Y-68089363D01*
X102822500Y-72657431D01*
X102802815Y-72724470D01*
X102771387Y-72757748D01*
X102733072Y-72785585D01*
X102610588Y-72908069D01*
X102610581Y-72908078D01*
X102550317Y-72991023D01*
X102494987Y-73033689D01*
X102425374Y-73039667D01*
X102363579Y-73007061D01*
X102349683Y-72991023D01*
X102289418Y-72908078D01*
X102289414Y-72908072D01*
X102166928Y-72785586D01*
X102026788Y-72683768D01*
X101872445Y-72605127D01*
X101707701Y-72551598D01*
X101707699Y-72551597D01*
X101707698Y-72551597D01*
X101576271Y-72530781D01*
X101536611Y-72524500D01*
X101363389Y-72524500D01*
X101323728Y-72530781D01*
X101192302Y-72551597D01*
X101027552Y-72605128D01*
X100873211Y-72683768D01*
X100793256Y-72741859D01*
X100733072Y-72785586D01*
X100733070Y-72785588D01*
X100733069Y-72785588D01*
X100610588Y-72908069D01*
X100610588Y-72908070D01*
X100610586Y-72908072D01*
X100607367Y-72912503D01*
X100508768Y-73048211D01*
X100430128Y-73202552D01*
X100430127Y-73202554D01*
X100430127Y-73202555D01*
X100427655Y-73210164D01*
X100376597Y-73367302D01*
X100351157Y-73527929D01*
X100349500Y-73538389D01*
X100349500Y-74261611D01*
X100376598Y-74432701D01*
X100430127Y-74597445D01*
X100508768Y-74751788D01*
X100610586Y-74891928D01*
X100733072Y-75014414D01*
X100873212Y-75116232D01*
X101027555Y-75194873D01*
X101192299Y-75248402D01*
X101363389Y-75275500D01*
X101363390Y-75275500D01*
X101536610Y-75275500D01*
X101536611Y-75275500D01*
X101707701Y-75248402D01*
X101872445Y-75194873D01*
X102026788Y-75116232D01*
X102166928Y-75014414D01*
X102289414Y-74891928D01*
X102349682Y-74808975D01*
X102405012Y-74766311D01*
X102474626Y-74760332D01*
X102536421Y-74792938D01*
X102550315Y-74808973D01*
X102610586Y-74891928D01*
X102733072Y-75014414D01*
X102873212Y-75116232D01*
X103027555Y-75194873D01*
X103192299Y-75248402D01*
X103363389Y-75275500D01*
X103363390Y-75275500D01*
X103536610Y-75275500D01*
X103536611Y-75275500D01*
X103707701Y-75248402D01*
X103872445Y-75194873D01*
X104026788Y-75116232D01*
X104166928Y-75014414D01*
X104289414Y-74891928D01*
X104349682Y-74808975D01*
X104405012Y-74766311D01*
X104474626Y-74760332D01*
X104536421Y-74792938D01*
X104550315Y-74808973D01*
X104610586Y-74891928D01*
X104733072Y-75014414D01*
X104873212Y-75116232D01*
X105027555Y-75194873D01*
X105192299Y-75248402D01*
X105363389Y-75275500D01*
X105363390Y-75275500D01*
X105536610Y-75275500D01*
X105536611Y-75275500D01*
X105707701Y-75248402D01*
X105872445Y-75194873D01*
X106026788Y-75116232D01*
X106166928Y-75014414D01*
X106289414Y-74891928D01*
X106391232Y-74751788D01*
X106469873Y-74597445D01*
X106523402Y-74432701D01*
X106550500Y-74261611D01*
X106550500Y-73538389D01*
X106523402Y-73367299D01*
X106469873Y-73202555D01*
X106391232Y-73048212D01*
X106289414Y-72908072D01*
X106166928Y-72785586D01*
X106153771Y-72776027D01*
X106128613Y-72757748D01*
X106085948Y-72702417D01*
X106077500Y-72657431D01*
X106077500Y-68783781D01*
X106097185Y-68716742D01*
X106113819Y-68696100D01*
X106663100Y-68146819D01*
X106724423Y-68113334D01*
X106750781Y-68110500D01*
X107015572Y-68110500D01*
X107015578Y-68110500D01*
X107101431Y-68100190D01*
X107238053Y-68046313D01*
X107355074Y-67957574D01*
X107410437Y-67884565D01*
X107466625Y-67843045D01*
X107536346Y-67838492D01*
X107596919Y-67871812D01*
X107886181Y-68161074D01*
X107919666Y-68222397D01*
X107922500Y-68248755D01*
X107922500Y-69927249D01*
X107902815Y-69994288D01*
X107865540Y-70031564D01*
X107791462Y-70079171D01*
X107791451Y-70079179D01*
X107738659Y-70124923D01*
X107644433Y-70233664D01*
X107644430Y-70233668D01*
X107584664Y-70364534D01*
X107564976Y-70431582D01*
X107559949Y-70466549D01*
X107544500Y-70574000D01*
X107544500Y-72651000D01*
X107544501Y-72651009D01*
X107556052Y-72758450D01*
X107556054Y-72758462D01*
X107567260Y-72809972D01*
X107601383Y-72912497D01*
X107601386Y-72912503D01*
X107679171Y-73033537D01*
X107679179Y-73033548D01*
X107724923Y-73086340D01*
X107724926Y-73086343D01*
X107724930Y-73086347D01*
X107833664Y-73180567D01*
X107833667Y-73180568D01*
X107833668Y-73180569D01*
X107927925Y-73223616D01*
X107964541Y-73240338D01*
X108031580Y-73260023D01*
X108031584Y-73260024D01*
X108174000Y-73280500D01*
X108174003Y-73280500D01*
X108796141Y-73280500D01*
X108796146Y-73280500D01*
X108934070Y-73261320D01*
X108988642Y-73245842D01*
X108999157Y-73242861D01*
X108999158Y-73242860D01*
X108999167Y-73242858D01*
X109068093Y-73212527D01*
X109079028Y-73208321D01*
X109145502Y-73186294D01*
X109184505Y-73180000D01*
X109715492Y-73180000D01*
X109754495Y-73186294D01*
X109790454Y-73198209D01*
X109820964Y-73208319D01*
X109831880Y-73212518D01*
X109900833Y-73242858D01*
X109965930Y-73261320D01*
X110103854Y-73280500D01*
X110103859Y-73280500D01*
X110655610Y-73280500D01*
X110655615Y-73280500D01*
X110793539Y-73261320D01*
X110858636Y-73242858D01*
X110986094Y-73186774D01*
X110994055Y-73181863D01*
X111020148Y-73169695D01*
X111038690Y-73163551D01*
X111045505Y-73161293D01*
X111084505Y-73155000D01*
X111615495Y-73155000D01*
X111654490Y-73161291D01*
X111679857Y-73169697D01*
X111705944Y-73181862D01*
X111713912Y-73186777D01*
X111713916Y-73186778D01*
X111713918Y-73186780D01*
X111762867Y-73208318D01*
X111841364Y-73242858D01*
X111906461Y-73261320D01*
X112044385Y-73280500D01*
X112044390Y-73280500D01*
X112625990Y-73280500D01*
X112626000Y-73280500D01*
X112733456Y-73268947D01*
X112784967Y-73257741D01*
X112829695Y-73242854D01*
X112887497Y-73223616D01*
X112887501Y-73223613D01*
X112887504Y-73223613D01*
X113008543Y-73145825D01*
X113061347Y-73100070D01*
X113155567Y-72991336D01*
X113215338Y-72860459D01*
X113235023Y-72793420D01*
X113235024Y-72793416D01*
X113255500Y-72651000D01*
X113255500Y-70574000D01*
X113243947Y-70466544D01*
X113232741Y-70415033D01*
X113221010Y-70379786D01*
X113198616Y-70312502D01*
X113198613Y-70312496D01*
X113173477Y-70273384D01*
X113120825Y-70191457D01*
X113075070Y-70138653D01*
X113075066Y-70138649D01*
X113075063Y-70138646D01*
X113072287Y-70136240D01*
X113053707Y-70107323D01*
X113034523Y-70077471D01*
X113034521Y-70077462D01*
X113034519Y-70077458D01*
X113029500Y-70042536D01*
X113029500Y-69963886D01*
X113049185Y-69896847D01*
X113065819Y-69876205D01*
X113381205Y-69560819D01*
X113442528Y-69527334D01*
X113468886Y-69524500D01*
X114120500Y-69524500D01*
X114187539Y-69544185D01*
X114233294Y-69596989D01*
X114244500Y-69648500D01*
X114244500Y-70022869D01*
X114244501Y-70022876D01*
X114250908Y-70082483D01*
X114301202Y-70217328D01*
X114301206Y-70217335D01*
X114387452Y-70332544D01*
X114387455Y-70332547D01*
X114502664Y-70418793D01*
X114502671Y-70418797D01*
X114637517Y-70469091D01*
X114637516Y-70469091D01*
X114644444Y-70469835D01*
X114697127Y-70475500D01*
X116062872Y-70475499D01*
X116122483Y-70469091D01*
X116257331Y-70418796D01*
X116372546Y-70332546D01*
X116458796Y-70217331D01*
X116509091Y-70082483D01*
X116515500Y-70022873D01*
X116515499Y-69317128D01*
X116509091Y-69257517D01*
X116509090Y-69257515D01*
X116509090Y-69257512D01*
X116507308Y-69249969D01*
X116510260Y-69249271D01*
X116506269Y-69193674D01*
X116507334Y-69190044D01*
X116507306Y-69190038D01*
X116509089Y-69182488D01*
X116509088Y-69182488D01*
X116509091Y-69182483D01*
X116515500Y-69122873D01*
X116515499Y-68417128D01*
X116509091Y-68357517D01*
X116509090Y-68357515D01*
X116509090Y-68357512D01*
X116507308Y-68349969D01*
X116510260Y-68349271D01*
X116506269Y-68293674D01*
X116507334Y-68290044D01*
X116507306Y-68290038D01*
X116509089Y-68282488D01*
X116509088Y-68282488D01*
X116509091Y-68282483D01*
X116515500Y-68222873D01*
X116515499Y-67517128D01*
X116509091Y-67457517D01*
X116509090Y-67457515D01*
X116509090Y-67457512D01*
X116507308Y-67449969D01*
X116508773Y-67449622D01*
X116504409Y-67388651D01*
X116508819Y-67373633D01*
X116509089Y-67372488D01*
X116509088Y-67372488D01*
X116509091Y-67372483D01*
X116515500Y-67312873D01*
X116515499Y-66607128D01*
X116509091Y-66547517D01*
X116509090Y-66547515D01*
X116509090Y-66547512D01*
X116507308Y-66539969D01*
X116510260Y-66539271D01*
X116506269Y-66483674D01*
X116507334Y-66480044D01*
X116507306Y-66480038D01*
X116509089Y-66472488D01*
X116509088Y-66472488D01*
X116509091Y-66472483D01*
X116515500Y-66412873D01*
X116515499Y-65707128D01*
X116509091Y-65647517D01*
X116509090Y-65647515D01*
X116509090Y-65647512D01*
X116507308Y-65639969D01*
X116510260Y-65639271D01*
X116506269Y-65583674D01*
X116507334Y-65580044D01*
X116507306Y-65580038D01*
X116509089Y-65572488D01*
X116509088Y-65572488D01*
X116509091Y-65572483D01*
X116515500Y-65512873D01*
X116515499Y-64807128D01*
X116509091Y-64747517D01*
X116509090Y-64747515D01*
X116509090Y-64747512D01*
X116507308Y-64739969D01*
X116510260Y-64739271D01*
X116506269Y-64683674D01*
X116507334Y-64680044D01*
X116507306Y-64680038D01*
X116509089Y-64672488D01*
X116509088Y-64672488D01*
X116509091Y-64672483D01*
X116515500Y-64612873D01*
X116515499Y-63907128D01*
X116509091Y-63847517D01*
X116509090Y-63847515D01*
X116509090Y-63847512D01*
X116507308Y-63839969D01*
X116510260Y-63839271D01*
X116506269Y-63783674D01*
X116507334Y-63780044D01*
X116507306Y-63780038D01*
X116509089Y-63772488D01*
X116509088Y-63772488D01*
X116509091Y-63772483D01*
X116515500Y-63712873D01*
X116515499Y-63007128D01*
X116509091Y-62947517D01*
X116509090Y-62947515D01*
X116509090Y-62947512D01*
X116507308Y-62939969D01*
X116510260Y-62939271D01*
X116506269Y-62883674D01*
X116507334Y-62880044D01*
X116507306Y-62880038D01*
X116509089Y-62872488D01*
X116509088Y-62872488D01*
X116509091Y-62872483D01*
X116515500Y-62812873D01*
X116515499Y-62107128D01*
X116509091Y-62047517D01*
X116509090Y-62047515D01*
X116509090Y-62047512D01*
X116507308Y-62039969D01*
X116508773Y-62039622D01*
X116504409Y-61978651D01*
X116508819Y-61963633D01*
X116509089Y-61962488D01*
X116509088Y-61962488D01*
X116509091Y-61962483D01*
X116515500Y-61902873D01*
X116515499Y-61197128D01*
X116509091Y-61137517D01*
X116509090Y-61137515D01*
X116509090Y-61137512D01*
X116507308Y-61129969D01*
X116510260Y-61129271D01*
X116506269Y-61073674D01*
X116507334Y-61070044D01*
X116507306Y-61070038D01*
X116509089Y-61062488D01*
X116509088Y-61062488D01*
X116509091Y-61062483D01*
X116515500Y-61002873D01*
X116515499Y-60297128D01*
X116509091Y-60237517D01*
X116509090Y-60237515D01*
X116509090Y-60237512D01*
X116507308Y-60229969D01*
X116510260Y-60229271D01*
X116506269Y-60173674D01*
X116507334Y-60170044D01*
X116507306Y-60170038D01*
X116509089Y-60162488D01*
X116509088Y-60162488D01*
X116509091Y-60162483D01*
X116515500Y-60102873D01*
X116515499Y-59397128D01*
X116509091Y-59337517D01*
X116509090Y-59337515D01*
X116509090Y-59337512D01*
X116507308Y-59329969D01*
X116510260Y-59329271D01*
X116506269Y-59273674D01*
X116507334Y-59270044D01*
X116507306Y-59270038D01*
X116509089Y-59262488D01*
X116509088Y-59262488D01*
X116509091Y-59262483D01*
X116515500Y-59202873D01*
X116515499Y-58639498D01*
X116535183Y-58572460D01*
X116587987Y-58526705D01*
X116639499Y-58515499D01*
X116942871Y-58515499D01*
X116942872Y-58515499D01*
X117002483Y-58509091D01*
X117002485Y-58509090D01*
X117002487Y-58509090D01*
X117010031Y-58507308D01*
X117010729Y-58510264D01*
X117066298Y-58506263D01*
X117069954Y-58507336D01*
X117069962Y-58507306D01*
X117077511Y-58509089D01*
X117077517Y-58509091D01*
X117137127Y-58515500D01*
X117842872Y-58515499D01*
X117902483Y-58509091D01*
X117902485Y-58509090D01*
X117902487Y-58509090D01*
X117910031Y-58507308D01*
X117910729Y-58510264D01*
X117966298Y-58506263D01*
X117969954Y-58507336D01*
X117969962Y-58507306D01*
X117977511Y-58509089D01*
X117977517Y-58509091D01*
X118037127Y-58515500D01*
X118742872Y-58515499D01*
X118802483Y-58509091D01*
X118802485Y-58509090D01*
X118802487Y-58509090D01*
X118810031Y-58507308D01*
X118810729Y-58510264D01*
X118866298Y-58506263D01*
X118869954Y-58507336D01*
X118869962Y-58507306D01*
X118877511Y-58509089D01*
X118877517Y-58509091D01*
X118937127Y-58515500D01*
X119642872Y-58515499D01*
X119702483Y-58509091D01*
X119702485Y-58509090D01*
X119702487Y-58509090D01*
X119710031Y-58507308D01*
X119710377Y-58508775D01*
X119771342Y-58504408D01*
X119786378Y-58508822D01*
X119787511Y-58509089D01*
X119787517Y-58509091D01*
X119847127Y-58515500D01*
X120552872Y-58515499D01*
X120612483Y-58509091D01*
X120612485Y-58509090D01*
X120612487Y-58509090D01*
X120620031Y-58507308D01*
X120620729Y-58510264D01*
X120676298Y-58506263D01*
X120679954Y-58507336D01*
X120679962Y-58507306D01*
X120687511Y-58509089D01*
X120687517Y-58509091D01*
X120747127Y-58515500D01*
X121452872Y-58515499D01*
X121512483Y-58509091D01*
X121512485Y-58509090D01*
X121512487Y-58509090D01*
X121520031Y-58507308D01*
X121520729Y-58510264D01*
X121576298Y-58506263D01*
X121579954Y-58507336D01*
X121579962Y-58507306D01*
X121587511Y-58509089D01*
X121587517Y-58509091D01*
X121647127Y-58515500D01*
X122352872Y-58515499D01*
X122412483Y-58509091D01*
X122412485Y-58509090D01*
X122412487Y-58509090D01*
X122420031Y-58507308D01*
X122420729Y-58510264D01*
X122476298Y-58506263D01*
X122479954Y-58507336D01*
X122479962Y-58507306D01*
X122487511Y-58509089D01*
X122487517Y-58509091D01*
X122547127Y-58515500D01*
X123252872Y-58515499D01*
X123312483Y-58509091D01*
X123312485Y-58509090D01*
X123312487Y-58509090D01*
X123320031Y-58507308D01*
X123320729Y-58510264D01*
X123376298Y-58506263D01*
X123379954Y-58507336D01*
X123379962Y-58507306D01*
X123387511Y-58509089D01*
X123387517Y-58509091D01*
X123447127Y-58515500D01*
X124152872Y-58515499D01*
X124212483Y-58509091D01*
X124212485Y-58509090D01*
X124212487Y-58509090D01*
X124220031Y-58507308D01*
X124220729Y-58510264D01*
X124276298Y-58506263D01*
X124279954Y-58507336D01*
X124279962Y-58507306D01*
X124287511Y-58509089D01*
X124287517Y-58509091D01*
X124347127Y-58515500D01*
X125052872Y-58515499D01*
X125112483Y-58509091D01*
X125112485Y-58509090D01*
X125112487Y-58509090D01*
X125120031Y-58507308D01*
X125120377Y-58508775D01*
X125181342Y-58504408D01*
X125196378Y-58508822D01*
X125197511Y-58509089D01*
X125197517Y-58509091D01*
X125257127Y-58515500D01*
X125962872Y-58515499D01*
X126022483Y-58509091D01*
X126022485Y-58509090D01*
X126022487Y-58509090D01*
X126030031Y-58507308D01*
X126030729Y-58510264D01*
X126086298Y-58506263D01*
X126089954Y-58507336D01*
X126089962Y-58507306D01*
X126097511Y-58509089D01*
X126097517Y-58509091D01*
X126157127Y-58515500D01*
X126862872Y-58515499D01*
X126922483Y-58509091D01*
X126922485Y-58509090D01*
X126922487Y-58509090D01*
X126930031Y-58507308D01*
X126930729Y-58510264D01*
X126986298Y-58506263D01*
X126989954Y-58507336D01*
X126989962Y-58507306D01*
X126997511Y-58509089D01*
X126997517Y-58509091D01*
X127057127Y-58515500D01*
X127360500Y-58515499D01*
X127427539Y-58535183D01*
X127473294Y-58587987D01*
X127484500Y-58639499D01*
X127484500Y-59202870D01*
X127484501Y-59202874D01*
X127490909Y-59262484D01*
X127492692Y-59270028D01*
X127489749Y-59270723D01*
X127493719Y-59326381D01*
X127492667Y-59329961D01*
X127492693Y-59329968D01*
X127490908Y-59337520D01*
X127484875Y-59393641D01*
X127484501Y-59397123D01*
X127484500Y-59397136D01*
X127484500Y-60102870D01*
X127484501Y-60102874D01*
X127490909Y-60162484D01*
X127492692Y-60170028D01*
X127489749Y-60170723D01*
X127493719Y-60226381D01*
X127492667Y-60229961D01*
X127492693Y-60229968D01*
X127490908Y-60237520D01*
X127484501Y-60297117D01*
X127484500Y-60297127D01*
X127484500Y-60596311D01*
X127484501Y-60798500D01*
X127464817Y-60865539D01*
X127412013Y-60911294D01*
X127360501Y-60922500D01*
X126339357Y-60922500D01*
X126272318Y-60902815D01*
X126270466Y-60901602D01*
X126179185Y-60840609D01*
X126179172Y-60840602D01*
X126033501Y-60780264D01*
X126033489Y-60780261D01*
X125878845Y-60749500D01*
X125878842Y-60749500D01*
X125721158Y-60749500D01*
X125721155Y-60749500D01*
X125566510Y-60780261D01*
X125566498Y-60780264D01*
X125420827Y-60840602D01*
X125420814Y-60840609D01*
X125289711Y-60928210D01*
X125289707Y-60928213D01*
X125178213Y-61039707D01*
X125178210Y-61039711D01*
X125090609Y-61170814D01*
X125090602Y-61170827D01*
X125030264Y-61316498D01*
X125030261Y-61316510D01*
X124999500Y-61471153D01*
X124999500Y-61628846D01*
X125030261Y-61783489D01*
X125030264Y-61783501D01*
X125090602Y-61929172D01*
X125090609Y-61929185D01*
X125178210Y-62060288D01*
X125178213Y-62060292D01*
X125289707Y-62171786D01*
X125289711Y-62171789D01*
X125420814Y-62259390D01*
X125420827Y-62259397D01*
X125566498Y-62319735D01*
X125566503Y-62319737D01*
X125721153Y-62350499D01*
X125721156Y-62350500D01*
X125721158Y-62350500D01*
X125878844Y-62350500D01*
X125878845Y-62350499D01*
X126033497Y-62319737D01*
X126179179Y-62259394D01*
X126270466Y-62198398D01*
X126337143Y-62177520D01*
X126339357Y-62177500D01*
X127360500Y-62177500D01*
X127427539Y-62197185D01*
X127473294Y-62249989D01*
X127484500Y-62301500D01*
X127484500Y-62812870D01*
X127484501Y-62812874D01*
X127490909Y-62872484D01*
X127492692Y-62880028D01*
X127489749Y-62880723D01*
X127493719Y-62936381D01*
X127492667Y-62939961D01*
X127492693Y-62939968D01*
X127490908Y-62947520D01*
X127486557Y-62987993D01*
X127484501Y-63007123D01*
X127484500Y-63007136D01*
X127484500Y-63712870D01*
X127484501Y-63712874D01*
X127490909Y-63772484D01*
X127492692Y-63780028D01*
X127489749Y-63780723D01*
X127493719Y-63836381D01*
X127492667Y-63839961D01*
X127492693Y-63839968D01*
X127490908Y-63847520D01*
X127485612Y-63896786D01*
X127484501Y-63907123D01*
X127484500Y-63907136D01*
X127484500Y-64612870D01*
X127484501Y-64612874D01*
X127490909Y-64672484D01*
X127492692Y-64680028D01*
X127489749Y-64680723D01*
X127493719Y-64736381D01*
X127492667Y-64739961D01*
X127492693Y-64739968D01*
X127490908Y-64747520D01*
X127485984Y-64793325D01*
X127484501Y-64807123D01*
X127484500Y-64807136D01*
X127484500Y-65512870D01*
X127484501Y-65512874D01*
X127490909Y-65572484D01*
X127492692Y-65580028D01*
X127489749Y-65580723D01*
X127493719Y-65636381D01*
X127492667Y-65639961D01*
X127492693Y-65639968D01*
X127490908Y-65647520D01*
X127485553Y-65697332D01*
X127484501Y-65707123D01*
X127484500Y-65707136D01*
X127484500Y-66412870D01*
X127484501Y-66412874D01*
X127490909Y-66472484D01*
X127492692Y-66480028D01*
X127489749Y-66480723D01*
X127493719Y-66536381D01*
X127492667Y-66539961D01*
X127492693Y-66539968D01*
X127490908Y-66547520D01*
X127489535Y-66560292D01*
X127484501Y-66607123D01*
X127484500Y-66607136D01*
X127484500Y-67312870D01*
X127484501Y-67312876D01*
X127490908Y-67372479D01*
X127492692Y-67380026D01*
X127491229Y-67380371D01*
X127495585Y-67441371D01*
X127491173Y-67456396D01*
X127490908Y-67457517D01*
X127485423Y-67508543D01*
X127484501Y-67517123D01*
X127484500Y-67517136D01*
X127484500Y-68222870D01*
X127484501Y-68222874D01*
X127490909Y-68282484D01*
X127492692Y-68290028D01*
X127489749Y-68290723D01*
X127493719Y-68346381D01*
X127492667Y-68349961D01*
X127492693Y-68349968D01*
X127490908Y-68357520D01*
X127485191Y-68410697D01*
X127484501Y-68417123D01*
X127484500Y-68417136D01*
X127484500Y-69122870D01*
X127484501Y-69122874D01*
X127490909Y-69182484D01*
X127492692Y-69190028D01*
X127489749Y-69190723D01*
X127493719Y-69246381D01*
X127492667Y-69249961D01*
X127492693Y-69249968D01*
X127490908Y-69257520D01*
X127487260Y-69291457D01*
X127484501Y-69317123D01*
X127484500Y-69317136D01*
X127484500Y-70022870D01*
X127484501Y-70022876D01*
X127490908Y-70082483D01*
X127541202Y-70217328D01*
X127541206Y-70217335D01*
X127627452Y-70332544D01*
X127627455Y-70332547D01*
X127742664Y-70418793D01*
X127742671Y-70418797D01*
X127877517Y-70469091D01*
X127877516Y-70469091D01*
X127884444Y-70469835D01*
X127937127Y-70475500D01*
X129302872Y-70475499D01*
X129362483Y-70469091D01*
X129497331Y-70418796D01*
X129612546Y-70332546D01*
X129612546Y-70332545D01*
X129619646Y-70327231D01*
X129620717Y-70328662D01*
X129672597Y-70300334D01*
X129698955Y-70297500D01*
X129791804Y-70297500D01*
X129791805Y-70297499D01*
X129913035Y-70273386D01*
X129993784Y-70239937D01*
X130027233Y-70226083D01*
X130130008Y-70157411D01*
X130162496Y-70124923D01*
X130217412Y-70070008D01*
X130262325Y-70025093D01*
X130323647Y-69991606D01*
X130325665Y-69991185D01*
X130433497Y-69969737D01*
X130557834Y-69918235D01*
X130579172Y-69909397D01*
X130579172Y-69909396D01*
X130579179Y-69909394D01*
X130681610Y-69840951D01*
X130748286Y-69820074D01*
X130815666Y-69838558D01*
X130862357Y-69890537D01*
X130874500Y-69944054D01*
X130874500Y-70397870D01*
X130874501Y-70397876D01*
X130880908Y-70457483D01*
X130931202Y-70592328D01*
X130931206Y-70592335D01*
X131017452Y-70707544D01*
X131017455Y-70707547D01*
X131132664Y-70793793D01*
X131132671Y-70793797D01*
X131267517Y-70844091D01*
X131267516Y-70844091D01*
X131274444Y-70844835D01*
X131327127Y-70850500D01*
X133122872Y-70850499D01*
X133182483Y-70844091D01*
X133317331Y-70793796D01*
X133432546Y-70707546D01*
X133518796Y-70592331D01*
X133567810Y-70460916D01*
X133609681Y-70404984D01*
X133675145Y-70380566D01*
X133743418Y-70395417D01*
X133771673Y-70416569D01*
X133885213Y-70530109D01*
X134057179Y-70655048D01*
X134057181Y-70655049D01*
X134057184Y-70655051D01*
X134246588Y-70751557D01*
X134448757Y-70817246D01*
X134658713Y-70850500D01*
X134658714Y-70850500D01*
X134871286Y-70850500D01*
X134871287Y-70850500D01*
X135081243Y-70817246D01*
X135283412Y-70751557D01*
X135472816Y-70655051D01*
X135559138Y-70592335D01*
X135644786Y-70530109D01*
X135644788Y-70530106D01*
X135644792Y-70530104D01*
X135795104Y-70379792D01*
X135795106Y-70379788D01*
X135795109Y-70379786D01*
X135920048Y-70207820D01*
X135920047Y-70207820D01*
X135920051Y-70207816D01*
X136016557Y-70018412D01*
X136082246Y-69816243D01*
X136115500Y-69606287D01*
X136115500Y-69393713D01*
X136082246Y-69183757D01*
X136016557Y-68981588D01*
X135920051Y-68792184D01*
X135920049Y-68792181D01*
X135920048Y-68792179D01*
X135795109Y-68620213D01*
X135644786Y-68469890D01*
X135472818Y-68344950D01*
X135283414Y-68248444D01*
X135283413Y-68248443D01*
X135283412Y-68248443D01*
X135081243Y-68182754D01*
X135081241Y-68182753D01*
X135081240Y-68182753D01*
X134917863Y-68156877D01*
X134871287Y-68149500D01*
X134658713Y-68149500D01*
X134630006Y-68154046D01*
X134448757Y-68182753D01*
X134435294Y-68187128D01*
X134365452Y-68189122D01*
X134309297Y-68156877D01*
X134054600Y-67902180D01*
X134021115Y-67840857D01*
X134026099Y-67771165D01*
X134067971Y-67715232D01*
X134133435Y-67690815D01*
X134142281Y-67690499D01*
X135447871Y-67690499D01*
X135447872Y-67690499D01*
X135507483Y-67684091D01*
X135642331Y-67633796D01*
X135757546Y-67547546D01*
X135843796Y-67432331D01*
X135894091Y-67297483D01*
X135900500Y-67237873D01*
X135900499Y-65442128D01*
X135894758Y-65388719D01*
X135894091Y-65382516D01*
X135843797Y-65247671D01*
X135843793Y-65247664D01*
X135757547Y-65132455D01*
X135757544Y-65132452D01*
X135642335Y-65046206D01*
X135642328Y-65046202D01*
X135510917Y-64997189D01*
X135454983Y-64955318D01*
X135430566Y-64889853D01*
X135445418Y-64821580D01*
X135466563Y-64793332D01*
X135580104Y-64679792D01*
X135582861Y-64675998D01*
X135705048Y-64507820D01*
X135705047Y-64507820D01*
X135705051Y-64507816D01*
X135801557Y-64318412D01*
X135867246Y-64116243D01*
X135900500Y-63906287D01*
X135900500Y-63693713D01*
X135867246Y-63483757D01*
X135801557Y-63281588D01*
X135705051Y-63092184D01*
X135705049Y-63092181D01*
X135705048Y-63092179D01*
X135580109Y-62920213D01*
X135429786Y-62769890D01*
X135257820Y-62644951D01*
X135254960Y-62643494D01*
X135249054Y-62640485D01*
X135198259Y-62592512D01*
X135181463Y-62524692D01*
X135203999Y-62458556D01*
X135249054Y-62419515D01*
X135257816Y-62415051D01*
X135319136Y-62370500D01*
X135429786Y-62290109D01*
X135429788Y-62290106D01*
X135429792Y-62290104D01*
X135580104Y-62139792D01*
X135580106Y-62139788D01*
X135580109Y-62139786D01*
X135705048Y-61967820D01*
X135705047Y-61967820D01*
X135705051Y-61967816D01*
X135801557Y-61778412D01*
X135867246Y-61576243D01*
X135900500Y-61366287D01*
X135900500Y-61153713D01*
X135867246Y-60943757D01*
X135801557Y-60741588D01*
X135705051Y-60552184D01*
X135705049Y-60552181D01*
X135705048Y-60552179D01*
X135580109Y-60380213D01*
X135429786Y-60229890D01*
X135257820Y-60104951D01*
X135068414Y-60008444D01*
X135068413Y-60008443D01*
X135068412Y-60008443D01*
X134866243Y-59942754D01*
X134866241Y-59942753D01*
X134866240Y-59942753D01*
X134704957Y-59917208D01*
X134656287Y-59909500D01*
X134443713Y-59909500D01*
X134395042Y-59917208D01*
X134233760Y-59942753D01*
X134031585Y-60008444D01*
X133842179Y-60104951D01*
X133670213Y-60229890D01*
X133519890Y-60380213D01*
X133394951Y-60552179D01*
X133298444Y-60741585D01*
X133232753Y-60943760D01*
X133208007Y-61100000D01*
X133199500Y-61153713D01*
X133199500Y-61366287D01*
X133204147Y-61395625D01*
X133226010Y-61533668D01*
X133232754Y-61576243D01*
X133298241Y-61777791D01*
X133298444Y-61778414D01*
X133394951Y-61967820D01*
X133519890Y-62139786D01*
X133670213Y-62290109D01*
X133842182Y-62415050D01*
X133850946Y-62419516D01*
X133901742Y-62467491D01*
X133918536Y-62535312D01*
X133895998Y-62601447D01*
X133850946Y-62640484D01*
X133842182Y-62644949D01*
X133670213Y-62769890D01*
X133519890Y-62920213D01*
X133394949Y-63092181D01*
X133388525Y-63104792D01*
X133340552Y-63155589D01*
X133278039Y-63172500D01*
X132447558Y-63172500D01*
X132380519Y-63152815D01*
X132334764Y-63100011D01*
X132325941Y-63072691D01*
X132323238Y-63059108D01*
X132319737Y-63041503D01*
X132290664Y-62971313D01*
X132259397Y-62895827D01*
X132259390Y-62895814D01*
X132171789Y-62764711D01*
X132171786Y-62764707D01*
X132060292Y-62653213D01*
X132060288Y-62653210D01*
X131929185Y-62565609D01*
X131929172Y-62565602D01*
X131783501Y-62505264D01*
X131783489Y-62505261D01*
X131628845Y-62474500D01*
X131628842Y-62474500D01*
X131471158Y-62474500D01*
X131471155Y-62474500D01*
X131316510Y-62505261D01*
X131316498Y-62505264D01*
X131170827Y-62565602D01*
X131170814Y-62565609D01*
X131039711Y-62653210D01*
X131039707Y-62653213D01*
X130928213Y-62764707D01*
X130928210Y-62764711D01*
X130840609Y-62895814D01*
X130840602Y-62895827D01*
X130780264Y-63041498D01*
X130780261Y-63041510D01*
X130749500Y-63196153D01*
X130749500Y-63353846D01*
X130780261Y-63508489D01*
X130780264Y-63508501D01*
X130840602Y-63654172D01*
X130840609Y-63654185D01*
X130928210Y-63785288D01*
X130928213Y-63785292D01*
X131039707Y-63896786D01*
X131039711Y-63896789D01*
X131170814Y-63984390D01*
X131170827Y-63984397D01*
X131238961Y-64012618D01*
X131316503Y-64044737D01*
X131424185Y-64066156D01*
X131440939Y-64074920D01*
X131459418Y-64078940D01*
X131484454Y-64097682D01*
X131486092Y-64098539D01*
X131487672Y-64100091D01*
X131587589Y-64200008D01*
X131672548Y-64284967D01*
X131674993Y-64287412D01*
X131777760Y-64356079D01*
X131777773Y-64356086D01*
X131891960Y-64403383D01*
X131891965Y-64403385D01*
X131891969Y-64403385D01*
X131891970Y-64403386D01*
X132013194Y-64427500D01*
X132013197Y-64427500D01*
X133278039Y-64427500D01*
X133345078Y-64447185D01*
X133388525Y-64495208D01*
X133394949Y-64507818D01*
X133519890Y-64679786D01*
X133633430Y-64793326D01*
X133666915Y-64854649D01*
X133661931Y-64924341D01*
X133620059Y-64980274D01*
X133589083Y-64997189D01*
X133457669Y-65046203D01*
X133457664Y-65046206D01*
X133342455Y-65132452D01*
X133342452Y-65132455D01*
X133256206Y-65247664D01*
X133256202Y-65247671D01*
X133205908Y-65382517D01*
X133200032Y-65437181D01*
X133199501Y-65442123D01*
X133199500Y-65442135D01*
X133199500Y-65588500D01*
X133179815Y-65655539D01*
X133127011Y-65701294D01*
X133075500Y-65712500D01*
X132126281Y-65712500D01*
X132096840Y-65703855D01*
X132066854Y-65697332D01*
X132061838Y-65693577D01*
X132059242Y-65692815D01*
X132038600Y-65676181D01*
X132025091Y-65662672D01*
X131991606Y-65601349D01*
X131991183Y-65599323D01*
X131969737Y-65491503D01*
X131936391Y-65410998D01*
X131909397Y-65345827D01*
X131909390Y-65345814D01*
X131821789Y-65214711D01*
X131821786Y-65214707D01*
X131710292Y-65103213D01*
X131710288Y-65103210D01*
X131579185Y-65015609D01*
X131579172Y-65015602D01*
X131433501Y-64955264D01*
X131433489Y-64955261D01*
X131278845Y-64924500D01*
X131278842Y-64924500D01*
X131121158Y-64924500D01*
X131121155Y-64924500D01*
X130966510Y-64955261D01*
X130966498Y-64955264D01*
X130820827Y-65015602D01*
X130820814Y-65015609D01*
X130689711Y-65103210D01*
X130689707Y-65103213D01*
X130578213Y-65214707D01*
X130578210Y-65214711D01*
X130490609Y-65345814D01*
X130490602Y-65345827D01*
X130430264Y-65491498D01*
X130430261Y-65491510D01*
X130399500Y-65646153D01*
X130399500Y-65803846D01*
X130430261Y-65958489D01*
X130430264Y-65958501D01*
X130490602Y-66104172D01*
X130490609Y-66104185D01*
X130514279Y-66139609D01*
X130535157Y-66206286D01*
X130516673Y-66273667D01*
X130464694Y-66320357D01*
X130411177Y-66332500D01*
X129879500Y-66332500D01*
X129812461Y-66312815D01*
X129766706Y-66260011D01*
X129755500Y-66208500D01*
X129755499Y-65707129D01*
X129755498Y-65707123D01*
X129755498Y-65707117D01*
X129749091Y-65647517D01*
X129749090Y-65647515D01*
X129749090Y-65647512D01*
X129747308Y-65639969D01*
X129750260Y-65639271D01*
X129746269Y-65583674D01*
X129747334Y-65580044D01*
X129747306Y-65580038D01*
X129749089Y-65572488D01*
X129749088Y-65572488D01*
X129749091Y-65572483D01*
X129755500Y-65512873D01*
X129755499Y-64807128D01*
X129749091Y-64747517D01*
X129749090Y-64747515D01*
X129749090Y-64747512D01*
X129747308Y-64739969D01*
X129750260Y-64739271D01*
X129746269Y-64683674D01*
X129747334Y-64680044D01*
X129747306Y-64680038D01*
X129749089Y-64672488D01*
X129749088Y-64672488D01*
X129749091Y-64672483D01*
X129755500Y-64612873D01*
X129755499Y-63907128D01*
X129749091Y-63847517D01*
X129749090Y-63847515D01*
X129749090Y-63847512D01*
X129747308Y-63839969D01*
X129750260Y-63839271D01*
X129746269Y-63783674D01*
X129747334Y-63780044D01*
X129747306Y-63780038D01*
X129749089Y-63772488D01*
X129749088Y-63772488D01*
X129749091Y-63772483D01*
X129755500Y-63712873D01*
X129755499Y-63007128D01*
X129749091Y-62947517D01*
X129749090Y-62947515D01*
X129749090Y-62947512D01*
X129747308Y-62939969D01*
X129750260Y-62939271D01*
X129746269Y-62883674D01*
X129747334Y-62880044D01*
X129747306Y-62880038D01*
X129749089Y-62872488D01*
X129749088Y-62872488D01*
X129749091Y-62872483D01*
X129755500Y-62812873D01*
X129755499Y-62107128D01*
X129749091Y-62047517D01*
X129749090Y-62047515D01*
X129749090Y-62047512D01*
X129747308Y-62039969D01*
X129748773Y-62039622D01*
X129744409Y-61978651D01*
X129748819Y-61963633D01*
X129749089Y-61962488D01*
X129749088Y-61962488D01*
X129749091Y-61962483D01*
X129755500Y-61902873D01*
X129755499Y-61197128D01*
X129749091Y-61137517D01*
X129749090Y-61137515D01*
X129749090Y-61137512D01*
X129747308Y-61129969D01*
X129750260Y-61129271D01*
X129746269Y-61073674D01*
X129747334Y-61070044D01*
X129747306Y-61070038D01*
X129749089Y-61062488D01*
X129749088Y-61062488D01*
X129749091Y-61062483D01*
X129755500Y-61002873D01*
X129755499Y-60297128D01*
X129749091Y-60237517D01*
X129749090Y-60237515D01*
X129749090Y-60237512D01*
X129747308Y-60229969D01*
X129750260Y-60229271D01*
X129746269Y-60173674D01*
X129747334Y-60170044D01*
X129747306Y-60170038D01*
X129749089Y-60162488D01*
X129749088Y-60162488D01*
X129749091Y-60162483D01*
X129755500Y-60102873D01*
X129755499Y-59397128D01*
X129749091Y-59337517D01*
X129749090Y-59337515D01*
X129749090Y-59337512D01*
X129747308Y-59329969D01*
X129750260Y-59329271D01*
X129746269Y-59273674D01*
X129747334Y-59270044D01*
X129747306Y-59270038D01*
X129749089Y-59262488D01*
X129749088Y-59262488D01*
X129749091Y-59262483D01*
X129755500Y-59202873D01*
X129755499Y-58653279D01*
X129775183Y-58586241D01*
X129791813Y-58565604D01*
X130511337Y-57846080D01*
X130572658Y-57812597D01*
X130635907Y-57815378D01*
X130647804Y-57819086D01*
X130718384Y-57825500D01*
X130718387Y-57825500D01*
X131381613Y-57825500D01*
X131381616Y-57825500D01*
X131452196Y-57819086D01*
X131614606Y-57768478D01*
X131760185Y-57680472D01*
X131880472Y-57560185D01*
X131968478Y-57414606D01*
X132019086Y-57252196D01*
X132025500Y-57181616D01*
X132025500Y-56668384D01*
X132019086Y-56597804D01*
X131968478Y-56435394D01*
X131880472Y-56289815D01*
X131880470Y-56289813D01*
X131880469Y-56289811D01*
X131778339Y-56187681D01*
X131744854Y-56126358D01*
X131749838Y-56056666D01*
X131778339Y-56012319D01*
X131880468Y-55910189D01*
X131880469Y-55910188D01*
X131880472Y-55910185D01*
X131968478Y-55764606D01*
X132019086Y-55602196D01*
X132025500Y-55531616D01*
X132025500Y-55238281D01*
X132045185Y-55171242D01*
X132061819Y-55150600D01*
X132830600Y-54381819D01*
X132891923Y-54348334D01*
X132918281Y-54345500D01*
X133227199Y-54345500D01*
X133227206Y-54345500D01*
X133341922Y-54330397D01*
X133484657Y-54271275D01*
X133541014Y-54228030D01*
X133606182Y-54202836D01*
X133674627Y-54216874D01*
X133724617Y-54265687D01*
X133740500Y-54326406D01*
X133740500Y-55035644D01*
X133720815Y-55102683D01*
X133689386Y-55135962D01*
X133670209Y-55149894D01*
X133519890Y-55300213D01*
X133394951Y-55472179D01*
X133298444Y-55661585D01*
X133232753Y-55863760D01*
X133214724Y-55977590D01*
X133199500Y-56073713D01*
X133199500Y-56286287D01*
X133201751Y-56300499D01*
X133229468Y-56475500D01*
X133232754Y-56496243D01*
X133298025Y-56697127D01*
X133298444Y-56698414D01*
X133394951Y-56887820D01*
X133519890Y-57059786D01*
X133670213Y-57210109D01*
X133842179Y-57335048D01*
X133842181Y-57335049D01*
X133842184Y-57335051D01*
X134031588Y-57431557D01*
X134233757Y-57497246D01*
X134443713Y-57530500D01*
X134443714Y-57530500D01*
X134656286Y-57530500D01*
X134656287Y-57530500D01*
X134866243Y-57497246D01*
X135068412Y-57431557D01*
X135257816Y-57335051D01*
X135279789Y-57319086D01*
X135429786Y-57210109D01*
X135429788Y-57210106D01*
X135429792Y-57210104D01*
X135580104Y-57059792D01*
X135580106Y-57059788D01*
X135580109Y-57059786D01*
X135705048Y-56887820D01*
X135705047Y-56887820D01*
X135705051Y-56887816D01*
X135801557Y-56698412D01*
X135867246Y-56496243D01*
X135900500Y-56286287D01*
X135900500Y-56073713D01*
X135867246Y-55863757D01*
X135801557Y-55661588D01*
X135705051Y-55472184D01*
X135705049Y-55472181D01*
X135705048Y-55472179D01*
X135580109Y-55300213D01*
X135429790Y-55149894D01*
X135429785Y-55149890D01*
X135300615Y-55056043D01*
X135257949Y-55000714D01*
X135249500Y-54955725D01*
X135249500Y-54274996D01*
X135269185Y-54207957D01*
X135291838Y-54183333D01*
X135291478Y-54182973D01*
X135297223Y-54177227D01*
X135297225Y-54177225D01*
X135391275Y-54054657D01*
X135450397Y-53911922D01*
X135465500Y-53797206D01*
X135465500Y-53202794D01*
X135450397Y-53088078D01*
X135391275Y-52945343D01*
X135297225Y-52822775D01*
X135174657Y-52728725D01*
X135174656Y-52728724D01*
X135174654Y-52728723D01*
X135031925Y-52669604D01*
X135031923Y-52669603D01*
X135031922Y-52669603D01*
X135006429Y-52666246D01*
X134917213Y-52654500D01*
X134917206Y-52654500D01*
X134072794Y-52654500D01*
X134072786Y-52654500D01*
X133970824Y-52667924D01*
X133958078Y-52669603D01*
X133958077Y-52669603D01*
X133958074Y-52669604D01*
X133815345Y-52728723D01*
X133796816Y-52742941D01*
X133725484Y-52797675D01*
X133660318Y-52822869D01*
X133591873Y-52808831D01*
X133574519Y-52797679D01*
X133484657Y-52728725D01*
X133484656Y-52728724D01*
X133484654Y-52728723D01*
X133341925Y-52669604D01*
X133341923Y-52669603D01*
X133341922Y-52669603D01*
X133316429Y-52666246D01*
X133227213Y-52654500D01*
X133227206Y-52654500D01*
X132382794Y-52654500D01*
X132382786Y-52654500D01*
X132280824Y-52667924D01*
X132268078Y-52669603D01*
X132268077Y-52669603D01*
X132268074Y-52669604D01*
X132125345Y-52728723D01*
X132002775Y-52822775D01*
X131908723Y-52945345D01*
X131849604Y-53088074D01*
X131849603Y-53088079D01*
X131834500Y-53202786D01*
X131834500Y-53551719D01*
X131814815Y-53618758D01*
X131798181Y-53639400D01*
X131099400Y-54338181D01*
X131038077Y-54371666D01*
X131011719Y-54374500D01*
X130718384Y-54374500D01*
X130699145Y-54376248D01*
X130647807Y-54380913D01*
X130485393Y-54431522D01*
X130339811Y-54519530D01*
X130219530Y-54639811D01*
X130131522Y-54785393D01*
X130080913Y-54947807D01*
X130074500Y-55018386D01*
X130074500Y-55531613D01*
X130080913Y-55602192D01*
X130080913Y-55602194D01*
X130080914Y-55602196D01*
X130131522Y-55764606D01*
X130214698Y-55902196D01*
X130219530Y-55910188D01*
X130321661Y-56012319D01*
X130355146Y-56073642D01*
X130350162Y-56143334D01*
X130321661Y-56187681D01*
X130219531Y-56289810D01*
X130219530Y-56289811D01*
X130131520Y-56435396D01*
X130128442Y-56442237D01*
X130126140Y-56441200D01*
X130102819Y-56479760D01*
X129327180Y-57255400D01*
X129265857Y-57288885D01*
X129196166Y-57283901D01*
X129140232Y-57242029D01*
X129115815Y-57176565D01*
X129115499Y-57167719D01*
X129115499Y-56697129D01*
X129115498Y-56697123D01*
X129115497Y-56697116D01*
X129109091Y-56637517D01*
X129058796Y-56502669D01*
X129051687Y-56493173D01*
X129027271Y-56427710D01*
X129042122Y-56359437D01*
X129082062Y-56315762D01*
X129185289Y-56246789D01*
X129296789Y-56135289D01*
X129384394Y-56004179D01*
X129444737Y-55858497D01*
X129475500Y-55703842D01*
X129475500Y-55546158D01*
X129475500Y-55546155D01*
X129475499Y-55546153D01*
X129461246Y-55474500D01*
X129444737Y-55391503D01*
X129390246Y-55259950D01*
X129382778Y-55190483D01*
X129390245Y-55165052D01*
X129444737Y-55033497D01*
X129475500Y-54878842D01*
X129475500Y-54721158D01*
X129475500Y-54721155D01*
X129475499Y-54721153D01*
X129444737Y-54566503D01*
X129444735Y-54566498D01*
X129384397Y-54420827D01*
X129384390Y-54420814D01*
X129296789Y-54289711D01*
X129296786Y-54289707D01*
X129185292Y-54178213D01*
X129185288Y-54178210D01*
X129054185Y-54090609D01*
X129054172Y-54090602D01*
X128908501Y-54030264D01*
X128908489Y-54030261D01*
X128753845Y-53999500D01*
X128753842Y-53999500D01*
X128596158Y-53999500D01*
X128596155Y-53999500D01*
X128441510Y-54030261D01*
X128441498Y-54030264D01*
X128295827Y-54090602D01*
X128295814Y-54090609D01*
X128204534Y-54151602D01*
X128137857Y-54172480D01*
X128135643Y-54172500D01*
X127213192Y-54172500D01*
X127091973Y-54196612D01*
X127091965Y-54196614D01*
X127033881Y-54220673D01*
X127033874Y-54220676D01*
X127026974Y-54223535D01*
X126977767Y-54243917D01*
X126901729Y-54294724D01*
X126897811Y-54297342D01*
X126874989Y-54312590D01*
X126874988Y-54312591D01*
X125621085Y-55566496D01*
X125209992Y-55977589D01*
X125183409Y-56004172D01*
X125122586Y-56064994D01*
X125122585Y-56064996D01*
X125053923Y-56167756D01*
X125053915Y-56167770D01*
X125053839Y-56167956D01*
X125053772Y-56168038D01*
X125051047Y-56173138D01*
X125050079Y-56172620D01*
X125009996Y-56222358D01*
X124943702Y-56244421D01*
X124939279Y-56244500D01*
X124347129Y-56244500D01*
X124347125Y-56244501D01*
X124287515Y-56250909D01*
X124279972Y-56252692D01*
X124279276Y-56249749D01*
X124223619Y-56253719D01*
X124220038Y-56252667D01*
X124220032Y-56252693D01*
X124212479Y-56250908D01*
X124152882Y-56244501D01*
X124152873Y-56244500D01*
X124152863Y-56244500D01*
X123447129Y-56244500D01*
X123447125Y-56244501D01*
X123387515Y-56250909D01*
X123379972Y-56252692D01*
X123379276Y-56249749D01*
X123323619Y-56253719D01*
X123320038Y-56252667D01*
X123320032Y-56252693D01*
X123312479Y-56250908D01*
X123252882Y-56244501D01*
X123252873Y-56244500D01*
X123252863Y-56244500D01*
X122547129Y-56244500D01*
X122547125Y-56244501D01*
X122487515Y-56250909D01*
X122479972Y-56252692D01*
X122479276Y-56249749D01*
X122423619Y-56253719D01*
X122420038Y-56252667D01*
X122420032Y-56252693D01*
X122412479Y-56250908D01*
X122352882Y-56244501D01*
X122352873Y-56244500D01*
X122352863Y-56244500D01*
X121647129Y-56244500D01*
X121647125Y-56244501D01*
X121587515Y-56250909D01*
X121579972Y-56252692D01*
X121579276Y-56249749D01*
X121523619Y-56253719D01*
X121520038Y-56252667D01*
X121520032Y-56252693D01*
X121512479Y-56250908D01*
X121452882Y-56244501D01*
X121452873Y-56244500D01*
X121452863Y-56244500D01*
X120747129Y-56244500D01*
X120747125Y-56244501D01*
X120687515Y-56250909D01*
X120679972Y-56252692D01*
X120679276Y-56249749D01*
X120623619Y-56253719D01*
X120620038Y-56252667D01*
X120620032Y-56252693D01*
X120612479Y-56250908D01*
X120552882Y-56244501D01*
X120552873Y-56244500D01*
X120552863Y-56244500D01*
X119847129Y-56244500D01*
X119847123Y-56244501D01*
X119787520Y-56250908D01*
X119779974Y-56252692D01*
X119779628Y-56251230D01*
X119718622Y-56255584D01*
X119703600Y-56251172D01*
X119702482Y-56250908D01*
X119642883Y-56244501D01*
X119642881Y-56244500D01*
X119642873Y-56244500D01*
X119642865Y-56244500D01*
X119141500Y-56244500D01*
X119074461Y-56224815D01*
X119028706Y-56172011D01*
X119017500Y-56120500D01*
X119017500Y-55978194D01*
X118993386Y-55856970D01*
X118993385Y-55856969D01*
X118993385Y-55856965D01*
X118955129Y-55764606D01*
X118946086Y-55742773D01*
X118946079Y-55742760D01*
X118877412Y-55639993D01*
X118834397Y-55596978D01*
X118790008Y-55552589D01*
X118088279Y-54850860D01*
X117375013Y-54137593D01*
X117375007Y-54137588D01*
X117353749Y-54123384D01*
X117272239Y-54068920D01*
X117272226Y-54068913D01*
X117237807Y-54054657D01*
X117158035Y-54021614D01*
X117158027Y-54021612D01*
X117036807Y-53997500D01*
X117036803Y-53997500D01*
X96336281Y-53997500D01*
X96269242Y-53977815D01*
X96248600Y-53961181D01*
X95403797Y-53116378D01*
X95370312Y-53055055D01*
X95375296Y-52985363D01*
X95417168Y-52929430D01*
X95482632Y-52905013D01*
X95510876Y-52906224D01*
X95626264Y-52924500D01*
X95626269Y-52924500D01*
X95823736Y-52924500D01*
X96018763Y-52893610D01*
X96065205Y-52878520D01*
X96206561Y-52832591D01*
X96382501Y-52742944D01*
X96504235Y-52654500D01*
X96542246Y-52626884D01*
X96542248Y-52626881D01*
X96542252Y-52626879D01*
X96681879Y-52487252D01*
X96681881Y-52487248D01*
X96681884Y-52487246D01*
X96797941Y-52327505D01*
X96797942Y-52327504D01*
X96797944Y-52327501D01*
X96884517Y-52157593D01*
X96932490Y-52106800D01*
X97000311Y-52090005D01*
X97066446Y-52112542D01*
X97105482Y-52157593D01*
X97143695Y-52232588D01*
X97192058Y-52327505D01*
X97308115Y-52487246D01*
X97447753Y-52626884D01*
X97587925Y-52728723D01*
X97607499Y-52742944D01*
X97783439Y-52832591D01*
X97908637Y-52873270D01*
X97971236Y-52893610D01*
X98166264Y-52924500D01*
X98166269Y-52924500D01*
X98363736Y-52924500D01*
X98558763Y-52893610D01*
X98605205Y-52878520D01*
X98746561Y-52832591D01*
X98922501Y-52742944D01*
X99044235Y-52654500D01*
X99082246Y-52626884D01*
X99082248Y-52626881D01*
X99082252Y-52626879D01*
X99221879Y-52487252D01*
X99221881Y-52487248D01*
X99221884Y-52487246D01*
X99337941Y-52327505D01*
X99337942Y-52327504D01*
X99337944Y-52327501D01*
X99424517Y-52157593D01*
X99472490Y-52106800D01*
X99540311Y-52090005D01*
X99606446Y-52112542D01*
X99645482Y-52157593D01*
X99683695Y-52232588D01*
X99732058Y-52327505D01*
X99848115Y-52487246D01*
X99987753Y-52626884D01*
X100127925Y-52728723D01*
X100147499Y-52742944D01*
X100323439Y-52832591D01*
X100448637Y-52873270D01*
X100511236Y-52893610D01*
X100706264Y-52924500D01*
X100706269Y-52924500D01*
X100903736Y-52924500D01*
X101098763Y-52893610D01*
X101145205Y-52878520D01*
X101286561Y-52832591D01*
X101462501Y-52742944D01*
X101584235Y-52654500D01*
X101622246Y-52626884D01*
X101622248Y-52626881D01*
X101622252Y-52626879D01*
X101761879Y-52487252D01*
X101761881Y-52487248D01*
X101761884Y-52487246D01*
X101877941Y-52327505D01*
X101877942Y-52327504D01*
X101877944Y-52327501D01*
X101964517Y-52157593D01*
X102012490Y-52106800D01*
X102080311Y-52090005D01*
X102146446Y-52112542D01*
X102185482Y-52157593D01*
X102223695Y-52232588D01*
X102272058Y-52327505D01*
X102388115Y-52487246D01*
X102527753Y-52626884D01*
X102667925Y-52728723D01*
X102687499Y-52742944D01*
X102863439Y-52832591D01*
X102988637Y-52873270D01*
X103051236Y-52893610D01*
X103246264Y-52924500D01*
X103246269Y-52924500D01*
X103443736Y-52924500D01*
X103638763Y-52893610D01*
X103685205Y-52878520D01*
X103826561Y-52832591D01*
X104002501Y-52742944D01*
X104124235Y-52654500D01*
X104162246Y-52626884D01*
X104162248Y-52626881D01*
X104162252Y-52626879D01*
X104301879Y-52487252D01*
X104301881Y-52487248D01*
X104301884Y-52487246D01*
X104417941Y-52327505D01*
X104417942Y-52327504D01*
X104417944Y-52327501D01*
X104504517Y-52157593D01*
X104552490Y-52106800D01*
X104620311Y-52090005D01*
X104686446Y-52112542D01*
X104725482Y-52157593D01*
X104763695Y-52232588D01*
X104812058Y-52327505D01*
X104928115Y-52487246D01*
X105067753Y-52626884D01*
X105207925Y-52728723D01*
X105227499Y-52742944D01*
X105403439Y-52832591D01*
X105528637Y-52873270D01*
X105591236Y-52893610D01*
X105786264Y-52924500D01*
X105786269Y-52924500D01*
X105983736Y-52924500D01*
X106178763Y-52893610D01*
X106225205Y-52878520D01*
X106366561Y-52832591D01*
X106542501Y-52742944D01*
X106664235Y-52654500D01*
X106702246Y-52626884D01*
X106702248Y-52626881D01*
X106702252Y-52626879D01*
X106841879Y-52487252D01*
X106841881Y-52487248D01*
X106841884Y-52487246D01*
X106957941Y-52327505D01*
X106957942Y-52327504D01*
X106957944Y-52327501D01*
X107044517Y-52157593D01*
X107092490Y-52106800D01*
X107160311Y-52090005D01*
X107226446Y-52112542D01*
X107265482Y-52157593D01*
X107303695Y-52232588D01*
X107352058Y-52327505D01*
X107468115Y-52487246D01*
X107607753Y-52626884D01*
X107747925Y-52728723D01*
X107767499Y-52742944D01*
X107943439Y-52832591D01*
X108068637Y-52873270D01*
X108131236Y-52893610D01*
X108326264Y-52924500D01*
X108326269Y-52924500D01*
X108523736Y-52924500D01*
X108718763Y-52893610D01*
X108765205Y-52878520D01*
X108906561Y-52832591D01*
X109082501Y-52742944D01*
X109204235Y-52654500D01*
X109242246Y-52626884D01*
X109242248Y-52626881D01*
X109242252Y-52626879D01*
X109381879Y-52487252D01*
X109381881Y-52487248D01*
X109381884Y-52487246D01*
X109478822Y-52353820D01*
X109497944Y-52327501D01*
X109587591Y-52151561D01*
X109648610Y-51963763D01*
X109657694Y-51906410D01*
X109679500Y-51768736D01*
X109679500Y-51571263D01*
X109648610Y-51376236D01*
X109600268Y-51227456D01*
X109587591Y-51188439D01*
X109497944Y-51012499D01*
X109453634Y-50951511D01*
X109381884Y-50852753D01*
X109242246Y-50713115D01*
X109082505Y-50597058D01*
X109076119Y-50593804D01*
X108912593Y-50510482D01*
X108861800Y-50462510D01*
X108845005Y-50394689D01*
X108867542Y-50328554D01*
X108912593Y-50289517D01*
X109082501Y-50202944D01*
X109132141Y-50166879D01*
X109242246Y-50086884D01*
X109242248Y-50086881D01*
X109242252Y-50086879D01*
X109381879Y-49947252D01*
X109381881Y-49947248D01*
X109381884Y-49947246D01*
X109497941Y-49787505D01*
X109497942Y-49787504D01*
X109497944Y-49787501D01*
X109584517Y-49617593D01*
X109632490Y-49566800D01*
X109700311Y-49550005D01*
X109766446Y-49572542D01*
X109805482Y-49617593D01*
X109874446Y-49752939D01*
X109892058Y-49787505D01*
X110008115Y-49947246D01*
X110147753Y-50086884D01*
X110291308Y-50191181D01*
X110307499Y-50202944D01*
X110483439Y-50292591D01*
X110594122Y-50328554D01*
X110671236Y-50353610D01*
X110866264Y-50384500D01*
X110866269Y-50384500D01*
X111063736Y-50384500D01*
X111258763Y-50353610D01*
X111290786Y-50343205D01*
X111446561Y-50292591D01*
X111622501Y-50202944D01*
X111712192Y-50137779D01*
X111782246Y-50086884D01*
X111782248Y-50086881D01*
X111782252Y-50086879D01*
X111921879Y-49947252D01*
X111921881Y-49947248D01*
X111921884Y-49947246D01*
X112037941Y-49787505D01*
X112037942Y-49787504D01*
X112037944Y-49787501D01*
X112124517Y-49617593D01*
X112172490Y-49566800D01*
X112240311Y-49550005D01*
X112306446Y-49572542D01*
X112345482Y-49617593D01*
X112414446Y-49752939D01*
X112432058Y-49787505D01*
X112548115Y-49947246D01*
X112687753Y-50086884D01*
X112831308Y-50191181D01*
X112847499Y-50202944D01*
X113017404Y-50289516D01*
X113068199Y-50337490D01*
X113084994Y-50405311D01*
X113062456Y-50471446D01*
X113017404Y-50510483D01*
X113006255Y-50516165D01*
X112847495Y-50597058D01*
X112687753Y-50713115D01*
X112548115Y-50852753D01*
X112432058Y-51012495D01*
X112342408Y-51188441D01*
X112281389Y-51376236D01*
X112250500Y-51571263D01*
X112250500Y-51768736D01*
X112281389Y-51963763D01*
X112301449Y-52025500D01*
X112342409Y-52151561D01*
X112432056Y-52327501D01*
X112432058Y-52327504D01*
X112548115Y-52487246D01*
X112687753Y-52626884D01*
X112827925Y-52728723D01*
X112847499Y-52742944D01*
X113023439Y-52832591D01*
X113148637Y-52873270D01*
X113211236Y-52893610D01*
X113406264Y-52924500D01*
X113406269Y-52924500D01*
X113603736Y-52924500D01*
X113798763Y-52893610D01*
X113845205Y-52878520D01*
X113986561Y-52832591D01*
X114162501Y-52742944D01*
X114284235Y-52654500D01*
X114322246Y-52626884D01*
X114322248Y-52626881D01*
X114322252Y-52626879D01*
X114461879Y-52487252D01*
X114461881Y-52487248D01*
X114461884Y-52487246D01*
X114577941Y-52327505D01*
X114577942Y-52327504D01*
X114577944Y-52327501D01*
X114664517Y-52157593D01*
X114712490Y-52106800D01*
X114780311Y-52090005D01*
X114846446Y-52112542D01*
X114885482Y-52157593D01*
X114923695Y-52232588D01*
X114972058Y-52327505D01*
X115088115Y-52487246D01*
X115227753Y-52626884D01*
X115367925Y-52728723D01*
X115387499Y-52742944D01*
X115563439Y-52832591D01*
X115688637Y-52873270D01*
X115751236Y-52893610D01*
X115946264Y-52924500D01*
X115946269Y-52924500D01*
X116143736Y-52924500D01*
X116338763Y-52893610D01*
X116385205Y-52878520D01*
X116526561Y-52832591D01*
X116702501Y-52742944D01*
X116824235Y-52654500D01*
X116862246Y-52626884D01*
X116862248Y-52626881D01*
X116862252Y-52626879D01*
X117001879Y-52487252D01*
X117001881Y-52487248D01*
X117001884Y-52487246D01*
X117117941Y-52327505D01*
X117117942Y-52327504D01*
X117117944Y-52327501D01*
X117204517Y-52157593D01*
X117252490Y-52106800D01*
X117320311Y-52090005D01*
X117386446Y-52112542D01*
X117425482Y-52157593D01*
X117463695Y-52232588D01*
X117512058Y-52327505D01*
X117628115Y-52487246D01*
X117767753Y-52626884D01*
X117907925Y-52728723D01*
X117927499Y-52742944D01*
X118103439Y-52832591D01*
X118228637Y-52873270D01*
X118291236Y-52893610D01*
X118486264Y-52924500D01*
X118486269Y-52924500D01*
X118683736Y-52924500D01*
X118878763Y-52893610D01*
X118925205Y-52878520D01*
X119066561Y-52832591D01*
X119242501Y-52742944D01*
X119364235Y-52654500D01*
X119402246Y-52626884D01*
X119402248Y-52626881D01*
X119402252Y-52626879D01*
X119541879Y-52487252D01*
X119541881Y-52487248D01*
X119541884Y-52487246D01*
X119657941Y-52327505D01*
X119657942Y-52327504D01*
X119657944Y-52327501D01*
X119744517Y-52157593D01*
X119792490Y-52106800D01*
X119860311Y-52090005D01*
X119926446Y-52112542D01*
X119965482Y-52157593D01*
X120003695Y-52232588D01*
X120052058Y-52327505D01*
X120168115Y-52487246D01*
X120307753Y-52626884D01*
X120447925Y-52728723D01*
X120467499Y-52742944D01*
X120643439Y-52832591D01*
X120768637Y-52873270D01*
X120831236Y-52893610D01*
X121026264Y-52924500D01*
X121026269Y-52924500D01*
X121223736Y-52924500D01*
X121418763Y-52893610D01*
X121465205Y-52878520D01*
X121606561Y-52832591D01*
X121782501Y-52742944D01*
X121904235Y-52654500D01*
X121942246Y-52626884D01*
X121942248Y-52626881D01*
X121942252Y-52626879D01*
X122081879Y-52487252D01*
X122081881Y-52487248D01*
X122081884Y-52487246D01*
X122197941Y-52327505D01*
X122197942Y-52327504D01*
X122197944Y-52327501D01*
X122284517Y-52157593D01*
X122332490Y-52106800D01*
X122400311Y-52090005D01*
X122466446Y-52112542D01*
X122505482Y-52157593D01*
X122543695Y-52232588D01*
X122592058Y-52327505D01*
X122708115Y-52487246D01*
X122847753Y-52626884D01*
X122987925Y-52728723D01*
X123007499Y-52742944D01*
X123183439Y-52832591D01*
X123308637Y-52873270D01*
X123371236Y-52893610D01*
X123566264Y-52924500D01*
X123566269Y-52924500D01*
X123763736Y-52924500D01*
X123958763Y-52893610D01*
X124005205Y-52878520D01*
X124146561Y-52832591D01*
X124322501Y-52742944D01*
X124444235Y-52654500D01*
X124482246Y-52626884D01*
X124482248Y-52626881D01*
X124482252Y-52626879D01*
X124621879Y-52487252D01*
X124621881Y-52487248D01*
X124621884Y-52487246D01*
X124737941Y-52327505D01*
X124737942Y-52327504D01*
X124737944Y-52327501D01*
X124824517Y-52157593D01*
X124872490Y-52106800D01*
X124940311Y-52090005D01*
X125006446Y-52112542D01*
X125045482Y-52157593D01*
X125083695Y-52232588D01*
X125132058Y-52327505D01*
X125248115Y-52487246D01*
X125387753Y-52626884D01*
X125527925Y-52728723D01*
X125547499Y-52742944D01*
X125723439Y-52832591D01*
X125848637Y-52873270D01*
X125911236Y-52893610D01*
X126106264Y-52924500D01*
X126106269Y-52924500D01*
X126303736Y-52924500D01*
X126498763Y-52893610D01*
X126545205Y-52878520D01*
X126686561Y-52832591D01*
X126862501Y-52742944D01*
X126984235Y-52654500D01*
X127022246Y-52626884D01*
X127022248Y-52626881D01*
X127022252Y-52626879D01*
X127161879Y-52487252D01*
X127161881Y-52487248D01*
X127161884Y-52487246D01*
X127258822Y-52353820D01*
X127277944Y-52327501D01*
X127367591Y-52151561D01*
X127428610Y-51963763D01*
X127437694Y-51906410D01*
X127459500Y-51768736D01*
X127459500Y-51571263D01*
X127428610Y-51376236D01*
X127380268Y-51227456D01*
X127367591Y-51188439D01*
X127277944Y-51012499D01*
X127233634Y-50951511D01*
X127161884Y-50852753D01*
X127022246Y-50713115D01*
X126862505Y-50597058D01*
X126856119Y-50593804D01*
X126692593Y-50510482D01*
X126641800Y-50462510D01*
X126625005Y-50394689D01*
X126647542Y-50328554D01*
X126692593Y-50289517D01*
X126862501Y-50202944D01*
X126912141Y-50166879D01*
X127022246Y-50086884D01*
X127022248Y-50086881D01*
X127022252Y-50086879D01*
X127161879Y-49947252D01*
X127161881Y-49947248D01*
X127161884Y-49947246D01*
X127277941Y-49787505D01*
X127277942Y-49787504D01*
X127277944Y-49787501D01*
X127364517Y-49617593D01*
X127412490Y-49566800D01*
X127480311Y-49550005D01*
X127546446Y-49572542D01*
X127585482Y-49617593D01*
X127654446Y-49752939D01*
X127672058Y-49787505D01*
X127788115Y-49947246D01*
X127927753Y-50086884D01*
X128071308Y-50191181D01*
X128087499Y-50202944D01*
X128263439Y-50292591D01*
X128374122Y-50328554D01*
X128451236Y-50353610D01*
X128646264Y-50384500D01*
X128646269Y-50384500D01*
X128843736Y-50384500D01*
X129038763Y-50353610D01*
X129070786Y-50343205D01*
X129226561Y-50292591D01*
X129266835Y-50272070D01*
X131989500Y-50272070D01*
X131989500Y-50527929D01*
X132029526Y-50780640D01*
X132108588Y-51023972D01*
X132108589Y-51023975D01*
X132187533Y-51178910D01*
X132215195Y-51233199D01*
X132224750Y-51251950D01*
X132375132Y-51458935D01*
X132375136Y-51458940D01*
X132556059Y-51639863D01*
X132556064Y-51639867D01*
X132733432Y-51768731D01*
X132763053Y-51790252D01*
X132912080Y-51866185D01*
X132991024Y-51906410D01*
X132991027Y-51906411D01*
X133112693Y-51945942D01*
X133234361Y-51985474D01*
X133487070Y-52025500D01*
X133487071Y-52025500D01*
X133742929Y-52025500D01*
X133742930Y-52025500D01*
X133995639Y-51985474D01*
X134238975Y-51906410D01*
X134466947Y-51790252D01*
X134673942Y-51639862D01*
X134854862Y-51458942D01*
X135005252Y-51251947D01*
X135121410Y-51023975D01*
X135200474Y-50780639D01*
X135240500Y-50527930D01*
X135240500Y-50272070D01*
X135200474Y-50019361D01*
X135151359Y-49868200D01*
X135121411Y-49776027D01*
X135121410Y-49776024D01*
X135037611Y-49611561D01*
X135005252Y-49548053D01*
X134986038Y-49521607D01*
X134854867Y-49341064D01*
X134854863Y-49341059D01*
X134673940Y-49160136D01*
X134673935Y-49160132D01*
X134466950Y-49009750D01*
X134466949Y-49009749D01*
X134466947Y-49009748D01*
X134393910Y-48972533D01*
X134238975Y-48893589D01*
X134238972Y-48893588D01*
X133995640Y-48814526D01*
X133869284Y-48794513D01*
X133742930Y-48774500D01*
X133487070Y-48774500D01*
X133402833Y-48787842D01*
X133234359Y-48814526D01*
X132991027Y-48893588D01*
X132991024Y-48893589D01*
X132763049Y-49009750D01*
X132556064Y-49160132D01*
X132556059Y-49160136D01*
X132375136Y-49341059D01*
X132375132Y-49341064D01*
X132224750Y-49548049D01*
X132108589Y-49776024D01*
X132108588Y-49776027D01*
X132029526Y-50019359D01*
X131989500Y-50272070D01*
X129266835Y-50272070D01*
X129402501Y-50202944D01*
X129562252Y-50086879D01*
X129701879Y-49947252D01*
X129701881Y-49947248D01*
X129701884Y-49947246D01*
X129766699Y-49858034D01*
X129817944Y-49787501D01*
X129907591Y-49611561D01*
X129968610Y-49423763D01*
X129999500Y-49228736D01*
X129999500Y-49031263D01*
X129968610Y-48836236D01*
X129910064Y-48656051D01*
X129907591Y-48648439D01*
X129817944Y-48472499D01*
X129743138Y-48369536D01*
X129701884Y-48312753D01*
X129562246Y-48173115D01*
X129402504Y-48057058D01*
X129402503Y-48057057D01*
X129402501Y-48057056D01*
X129226561Y-47967409D01*
X129226558Y-47967408D01*
X129038763Y-47906389D01*
X128843736Y-47875500D01*
X128843731Y-47875500D01*
X128646269Y-47875500D01*
X128646264Y-47875500D01*
X128451236Y-47906389D01*
X128263441Y-47967408D01*
X128087495Y-48057058D01*
X127927753Y-48173115D01*
X127788115Y-48312753D01*
X127672058Y-48472495D01*
X127672056Y-48472499D01*
X127597065Y-48619677D01*
X127585485Y-48642403D01*
X127537510Y-48693199D01*
X127469689Y-48709994D01*
X127403554Y-48687456D01*
X127364515Y-48642403D01*
X127358115Y-48629842D01*
X127277944Y-48472499D01*
X127203138Y-48369536D01*
X127161884Y-48312753D01*
X127022246Y-48173115D01*
X126862504Y-48057058D01*
X126862503Y-48057057D01*
X126862501Y-48057056D01*
X126686561Y-47967409D01*
X126686558Y-47967408D01*
X126498763Y-47906389D01*
X126303736Y-47875500D01*
X126303731Y-47875500D01*
X126106269Y-47875500D01*
X126106264Y-47875500D01*
X125911236Y-47906389D01*
X125723441Y-47967408D01*
X125547495Y-48057058D01*
X125387753Y-48173115D01*
X125248115Y-48312753D01*
X125132058Y-48472495D01*
X125132056Y-48472499D01*
X125057065Y-48619677D01*
X125045485Y-48642403D01*
X124997510Y-48693199D01*
X124929689Y-48709994D01*
X124863554Y-48687456D01*
X124824515Y-48642403D01*
X124818115Y-48629842D01*
X124737944Y-48472499D01*
X124663138Y-48369536D01*
X124621884Y-48312753D01*
X124482246Y-48173115D01*
X124322504Y-48057058D01*
X124322503Y-48057057D01*
X124322501Y-48057056D01*
X124146561Y-47967409D01*
X124146558Y-47967408D01*
X123958763Y-47906389D01*
X123763736Y-47875500D01*
X123763731Y-47875500D01*
X123566269Y-47875500D01*
X123566264Y-47875500D01*
X123371236Y-47906389D01*
X123183441Y-47967408D01*
X123007495Y-48057058D01*
X122847753Y-48173115D01*
X122708115Y-48312753D01*
X122592058Y-48472495D01*
X122502408Y-48648441D01*
X122441389Y-48836236D01*
X122410500Y-49031263D01*
X122410500Y-49228736D01*
X122441389Y-49423763D01*
X122493298Y-49583521D01*
X122502409Y-49611561D01*
X122586209Y-49776025D01*
X122592058Y-49787504D01*
X122708115Y-49947246D01*
X122847753Y-50086884D01*
X122991308Y-50191181D01*
X123007499Y-50202944D01*
X123177404Y-50289516D01*
X123228199Y-50337490D01*
X123244994Y-50405311D01*
X123222456Y-50471446D01*
X123177404Y-50510483D01*
X123166255Y-50516165D01*
X123007495Y-50597058D01*
X122847753Y-50713115D01*
X122708115Y-50852753D01*
X122592058Y-51012495D01*
X122592056Y-51012499D01*
X122506212Y-51180977D01*
X122505485Y-51182403D01*
X122457510Y-51233199D01*
X122389689Y-51249994D01*
X122323554Y-51227456D01*
X122284515Y-51182403D01*
X122197944Y-51012499D01*
X122153634Y-50951511D01*
X122081884Y-50852753D01*
X121942246Y-50713115D01*
X121782504Y-50597058D01*
X121782503Y-50597057D01*
X121782501Y-50597056D01*
X121606561Y-50507409D01*
X121606558Y-50507408D01*
X121418763Y-50446389D01*
X121223736Y-50415500D01*
X121223731Y-50415500D01*
X121026269Y-50415500D01*
X121026264Y-50415500D01*
X120831236Y-50446389D01*
X120643441Y-50507408D01*
X120467495Y-50597058D01*
X120307753Y-50713115D01*
X120168115Y-50852753D01*
X120052058Y-51012495D01*
X120052056Y-51012499D01*
X119966212Y-51180977D01*
X119965485Y-51182403D01*
X119917510Y-51233199D01*
X119849689Y-51249994D01*
X119783554Y-51227456D01*
X119744515Y-51182403D01*
X119657944Y-51012499D01*
X119613634Y-50951511D01*
X119541884Y-50852753D01*
X119402246Y-50713115D01*
X119242505Y-50597058D01*
X119236119Y-50593804D01*
X119072593Y-50510482D01*
X119021800Y-50462510D01*
X119005005Y-50394689D01*
X119027542Y-50328554D01*
X119072593Y-50289517D01*
X119242501Y-50202944D01*
X119292141Y-50166879D01*
X119402246Y-50086884D01*
X119402248Y-50086881D01*
X119402252Y-50086879D01*
X119541879Y-49947252D01*
X119541881Y-49947248D01*
X119541884Y-49947246D01*
X119606699Y-49858034D01*
X119657944Y-49787501D01*
X119747591Y-49611561D01*
X119808610Y-49423763D01*
X119839500Y-49228736D01*
X119839500Y-49031263D01*
X119808610Y-48836236D01*
X119750064Y-48656051D01*
X119747591Y-48648439D01*
X119657944Y-48472499D01*
X119583138Y-48369536D01*
X119541884Y-48312753D01*
X119402246Y-48173115D01*
X119242504Y-48057058D01*
X119242503Y-48057057D01*
X119242501Y-48057056D01*
X119066561Y-47967409D01*
X119066558Y-47967408D01*
X118878763Y-47906389D01*
X118683736Y-47875500D01*
X118683731Y-47875500D01*
X118486269Y-47875500D01*
X118486264Y-47875500D01*
X118291236Y-47906389D01*
X118103441Y-47967408D01*
X117927495Y-48057058D01*
X117767753Y-48173115D01*
X117628115Y-48312753D01*
X117512058Y-48472495D01*
X117422408Y-48648441D01*
X117361389Y-48836236D01*
X117330500Y-49031263D01*
X117330500Y-49228736D01*
X117361389Y-49423763D01*
X117413298Y-49583521D01*
X117422409Y-49611561D01*
X117506209Y-49776025D01*
X117512058Y-49787504D01*
X117628115Y-49947246D01*
X117767753Y-50086884D01*
X117911308Y-50191181D01*
X117927499Y-50202944D01*
X118097404Y-50289516D01*
X118148199Y-50337490D01*
X118164994Y-50405311D01*
X118142456Y-50471446D01*
X118097404Y-50510483D01*
X118086255Y-50516165D01*
X117927495Y-50597058D01*
X117767753Y-50713115D01*
X117628115Y-50852753D01*
X117512058Y-51012495D01*
X117512056Y-51012499D01*
X117426212Y-51180977D01*
X117425485Y-51182403D01*
X117377510Y-51233199D01*
X117309689Y-51249994D01*
X117243554Y-51227456D01*
X117204515Y-51182403D01*
X117117944Y-51012499D01*
X117073634Y-50951511D01*
X117001884Y-50852753D01*
X116862246Y-50713115D01*
X116702504Y-50597058D01*
X116702503Y-50597057D01*
X116702501Y-50597056D01*
X116526561Y-50507409D01*
X116526558Y-50507408D01*
X116338763Y-50446389D01*
X116143736Y-50415500D01*
X116143731Y-50415500D01*
X115946269Y-50415500D01*
X115946264Y-50415500D01*
X115751236Y-50446389D01*
X115563441Y-50507408D01*
X115387495Y-50597058D01*
X115227753Y-50713115D01*
X115088115Y-50852753D01*
X114972058Y-51012495D01*
X114972056Y-51012499D01*
X114886212Y-51180977D01*
X114885485Y-51182403D01*
X114837510Y-51233199D01*
X114769689Y-51249994D01*
X114703554Y-51227456D01*
X114664515Y-51182403D01*
X114577944Y-51012499D01*
X114533634Y-50951511D01*
X114461884Y-50852753D01*
X114322246Y-50713115D01*
X114162505Y-50597058D01*
X114156119Y-50593804D01*
X113992593Y-50510482D01*
X113941800Y-50462510D01*
X113925005Y-50394689D01*
X113947542Y-50328554D01*
X113992593Y-50289517D01*
X114162501Y-50202944D01*
X114212141Y-50166879D01*
X114322246Y-50086884D01*
X114322248Y-50086881D01*
X114322252Y-50086879D01*
X114461879Y-49947252D01*
X114461881Y-49947248D01*
X114461884Y-49947246D01*
X114526699Y-49858034D01*
X114577944Y-49787501D01*
X114667591Y-49611561D01*
X114728610Y-49423763D01*
X114759500Y-49228736D01*
X114759500Y-49031263D01*
X114728610Y-48836236D01*
X114670064Y-48656051D01*
X114667591Y-48648439D01*
X114577944Y-48472499D01*
X114503138Y-48369536D01*
X114461884Y-48312753D01*
X114322246Y-48173115D01*
X114162504Y-48057058D01*
X114162503Y-48057057D01*
X114162501Y-48057056D01*
X113986561Y-47967409D01*
X113986558Y-47967408D01*
X113798763Y-47906389D01*
X113603736Y-47875500D01*
X113603731Y-47875500D01*
X113406269Y-47875500D01*
X113406264Y-47875500D01*
X113211236Y-47906389D01*
X113023441Y-47967408D01*
X112847495Y-48057058D01*
X112687753Y-48173115D01*
X112548115Y-48312753D01*
X112432058Y-48472495D01*
X112432056Y-48472499D01*
X112357065Y-48619677D01*
X112345485Y-48642403D01*
X112297510Y-48693199D01*
X112229689Y-48709994D01*
X112163554Y-48687456D01*
X112124515Y-48642403D01*
X112118115Y-48629842D01*
X112037944Y-48472499D01*
X111963138Y-48369536D01*
X111921884Y-48312753D01*
X111782246Y-48173115D01*
X111622504Y-48057058D01*
X111622503Y-48057057D01*
X111622501Y-48057056D01*
X111446561Y-47967409D01*
X111446558Y-47967408D01*
X111258763Y-47906389D01*
X111063736Y-47875500D01*
X111063731Y-47875500D01*
X110866269Y-47875500D01*
X110866264Y-47875500D01*
X110671236Y-47906389D01*
X110483441Y-47967408D01*
X110307495Y-48057058D01*
X110147753Y-48173115D01*
X110008115Y-48312753D01*
X109892058Y-48472495D01*
X109892056Y-48472499D01*
X109817065Y-48619677D01*
X109805485Y-48642403D01*
X109757510Y-48693199D01*
X109689689Y-48709994D01*
X109623554Y-48687456D01*
X109584515Y-48642403D01*
X109578115Y-48629842D01*
X109497944Y-48472499D01*
X109423138Y-48369536D01*
X109381884Y-48312753D01*
X109242246Y-48173115D01*
X109082504Y-48057058D01*
X109082503Y-48057057D01*
X109082501Y-48057056D01*
X108906561Y-47967409D01*
X108906558Y-47967408D01*
X108718763Y-47906389D01*
X108523736Y-47875500D01*
X108523731Y-47875500D01*
X108326269Y-47875500D01*
X108326264Y-47875500D01*
X108131236Y-47906389D01*
X107943441Y-47967408D01*
X107767495Y-48057058D01*
X107607753Y-48173115D01*
X107468115Y-48312753D01*
X107352058Y-48472495D01*
X107352056Y-48472499D01*
X107277065Y-48619677D01*
X107265485Y-48642403D01*
X107217510Y-48693199D01*
X107149689Y-48709994D01*
X107083554Y-48687456D01*
X107044515Y-48642403D01*
X107038115Y-48629842D01*
X106957944Y-48472499D01*
X106883138Y-48369536D01*
X106841884Y-48312753D01*
X106702246Y-48173115D01*
X106542504Y-48057058D01*
X106542503Y-48057057D01*
X106542501Y-48057056D01*
X106366561Y-47967409D01*
X106366558Y-47967408D01*
X106178763Y-47906389D01*
X105983736Y-47875500D01*
X105983731Y-47875500D01*
X105786269Y-47875500D01*
X105786264Y-47875500D01*
X105591236Y-47906389D01*
X105403441Y-47967408D01*
X105227495Y-48057058D01*
X105067753Y-48173115D01*
X104928115Y-48312753D01*
X104812058Y-48472495D01*
X104722408Y-48648441D01*
X104661389Y-48836236D01*
X104630500Y-49031263D01*
X104630500Y-49228736D01*
X104661389Y-49423763D01*
X104713298Y-49583521D01*
X104722409Y-49611561D01*
X104806209Y-49776025D01*
X104812058Y-49787504D01*
X104928115Y-49947246D01*
X105067753Y-50086884D01*
X105211308Y-50191181D01*
X105227499Y-50202944D01*
X105397404Y-50289516D01*
X105448199Y-50337490D01*
X105464994Y-50405311D01*
X105442456Y-50471446D01*
X105397404Y-50510483D01*
X105386255Y-50516165D01*
X105227495Y-50597058D01*
X105067753Y-50713115D01*
X104928115Y-50852753D01*
X104812058Y-51012495D01*
X104812056Y-51012499D01*
X104726212Y-51180977D01*
X104725485Y-51182403D01*
X104677510Y-51233199D01*
X104609689Y-51249994D01*
X104543554Y-51227456D01*
X104504515Y-51182403D01*
X104417944Y-51012499D01*
X104373634Y-50951511D01*
X104301884Y-50852753D01*
X104162246Y-50713115D01*
X104002504Y-50597058D01*
X104002503Y-50597057D01*
X104002501Y-50597056D01*
X103826561Y-50507409D01*
X103826558Y-50507408D01*
X103638763Y-50446389D01*
X103443736Y-50415500D01*
X103443731Y-50415500D01*
X103246269Y-50415500D01*
X103246264Y-50415500D01*
X103051236Y-50446389D01*
X102863441Y-50507408D01*
X102687495Y-50597058D01*
X102527753Y-50713115D01*
X102388115Y-50852753D01*
X102272058Y-51012495D01*
X102272056Y-51012499D01*
X102186212Y-51180977D01*
X102185485Y-51182403D01*
X102137510Y-51233199D01*
X102069689Y-51249994D01*
X102003554Y-51227456D01*
X101964515Y-51182403D01*
X101877944Y-51012499D01*
X101833634Y-50951511D01*
X101761884Y-50852753D01*
X101622246Y-50713115D01*
X101462505Y-50597058D01*
X101456119Y-50593804D01*
X101292593Y-50510482D01*
X101241800Y-50462510D01*
X101225005Y-50394689D01*
X101247542Y-50328554D01*
X101292593Y-50289517D01*
X101462501Y-50202944D01*
X101512141Y-50166879D01*
X101622246Y-50086884D01*
X101622248Y-50086881D01*
X101622252Y-50086879D01*
X101761879Y-49947252D01*
X101761881Y-49947248D01*
X101761884Y-49947246D01*
X101826699Y-49858034D01*
X101877944Y-49787501D01*
X101967591Y-49611561D01*
X102028610Y-49423763D01*
X102059500Y-49228736D01*
X102059500Y-49031263D01*
X102028610Y-48836236D01*
X101970064Y-48656051D01*
X101967591Y-48648439D01*
X101877944Y-48472499D01*
X101803138Y-48369536D01*
X101761884Y-48312753D01*
X101622246Y-48173115D01*
X101462504Y-48057058D01*
X101462503Y-48057057D01*
X101462501Y-48057056D01*
X101286561Y-47967409D01*
X101286558Y-47967408D01*
X101098763Y-47906389D01*
X100903736Y-47875500D01*
X100903731Y-47875500D01*
X100706269Y-47875500D01*
X100706264Y-47875500D01*
X100511236Y-47906389D01*
X100323441Y-47967408D01*
X100147495Y-48057058D01*
X99987753Y-48173115D01*
X99848115Y-48312753D01*
X99732058Y-48472495D01*
X99732056Y-48472499D01*
X99657065Y-48619677D01*
X99645485Y-48642403D01*
X99597510Y-48693199D01*
X99529689Y-48709994D01*
X99463554Y-48687456D01*
X99424515Y-48642403D01*
X99418115Y-48629842D01*
X99337944Y-48472499D01*
X99263138Y-48369536D01*
X99221884Y-48312753D01*
X99082246Y-48173115D01*
X98922504Y-48057058D01*
X98922503Y-48057057D01*
X98922501Y-48057056D01*
X98746561Y-47967409D01*
X98746558Y-47967408D01*
X98558763Y-47906389D01*
X98363736Y-47875500D01*
X98363731Y-47875500D01*
X98166269Y-47875500D01*
X98166264Y-47875500D01*
X97971236Y-47906389D01*
X97783441Y-47967408D01*
X97607495Y-48057058D01*
X97447753Y-48173115D01*
X97308115Y-48312753D01*
X97192058Y-48472495D01*
X97102408Y-48648441D01*
X97041389Y-48836236D01*
X97010500Y-49031263D01*
X97010500Y-49228736D01*
X97041389Y-49423763D01*
X97093298Y-49583521D01*
X97102409Y-49611561D01*
X97186209Y-49776025D01*
X97192058Y-49787504D01*
X97308115Y-49947246D01*
X97447753Y-50086884D01*
X97591308Y-50191181D01*
X97607499Y-50202944D01*
X97777404Y-50289516D01*
X97828199Y-50337490D01*
X97844994Y-50405311D01*
X97822456Y-50471446D01*
X97777404Y-50510483D01*
X97766255Y-50516165D01*
X97607495Y-50597058D01*
X97447753Y-50713115D01*
X97308115Y-50852753D01*
X97192058Y-51012495D01*
X97192056Y-51012499D01*
X97106212Y-51180977D01*
X97105485Y-51182403D01*
X97057510Y-51233199D01*
X96989689Y-51249994D01*
X96923554Y-51227456D01*
X96884515Y-51182403D01*
X96797944Y-51012499D01*
X96753634Y-50951511D01*
X96681884Y-50852753D01*
X96542246Y-50713115D01*
X96382504Y-50597058D01*
X96382503Y-50597057D01*
X96382501Y-50597056D01*
X96206561Y-50507409D01*
X96206558Y-50507408D01*
X96018763Y-50446389D01*
X95823736Y-50415500D01*
X95823731Y-50415500D01*
X95626269Y-50415500D01*
X95626264Y-50415500D01*
X95431236Y-50446389D01*
X95243441Y-50507408D01*
X95067500Y-50597055D01*
X95016348Y-50634218D01*
X94950541Y-50657696D01*
X94882488Y-50641869D01*
X94855784Y-50621579D01*
X94233420Y-49999215D01*
X94199935Y-49937892D01*
X94204919Y-49868200D01*
X94220783Y-49838648D01*
X94257944Y-49787501D01*
X94347591Y-49611561D01*
X94408610Y-49423763D01*
X94439500Y-49228736D01*
X94439500Y-49031263D01*
X94408610Y-48836236D01*
X94350064Y-48656051D01*
X94347591Y-48648439D01*
X94257944Y-48472499D01*
X94183138Y-48369536D01*
X94141884Y-48312753D01*
X94002246Y-48173115D01*
X93842504Y-48057058D01*
X93842503Y-48057057D01*
X93842501Y-48057056D01*
X93666561Y-47967409D01*
X93666558Y-47967408D01*
X93478763Y-47906389D01*
X93283736Y-47875500D01*
X93283731Y-47875500D01*
X93086269Y-47875500D01*
X93086264Y-47875500D01*
X92891236Y-47906389D01*
X92703441Y-47967408D01*
X92527495Y-48057058D01*
X92367753Y-48173115D01*
X92228115Y-48312753D01*
X92112058Y-48472495D01*
X92112056Y-48472499D01*
X92064424Y-48565982D01*
X92050601Y-48593110D01*
X92039402Y-48604966D01*
X92032365Y-48619677D01*
X92015908Y-48629842D01*
X92002626Y-48643906D01*
X91986796Y-48647825D01*
X91972923Y-48656396D01*
X91953582Y-48656051D01*
X91934805Y-48660701D01*
X91918675Y-48655428D01*
X91903064Y-48655150D01*
X91871226Y-48639918D01*
X91801172Y-48593110D01*
X91795062Y-48589027D01*
X91753470Y-48542222D01*
X91717944Y-48472499D01*
X91717942Y-48472496D01*
X91717941Y-48472494D01*
X91601884Y-48312753D01*
X91462246Y-48173115D01*
X91302504Y-48057058D01*
X91302503Y-48057057D01*
X91302501Y-48057056D01*
X91126561Y-47967409D01*
X91126558Y-47967408D01*
X90938763Y-47906389D01*
X90743736Y-47875500D01*
X90743731Y-47875500D01*
X90546269Y-47875500D01*
X90546264Y-47875500D01*
X90351236Y-47906389D01*
X90163441Y-47967408D01*
X89987495Y-48057058D01*
X89827753Y-48173115D01*
X89688115Y-48312753D01*
X89572058Y-48472495D01*
X89572056Y-48472499D01*
X89497065Y-48619677D01*
X89485485Y-48642403D01*
X89437510Y-48693199D01*
X89369689Y-48709994D01*
X89303554Y-48687456D01*
X89264515Y-48642403D01*
X89258115Y-48629842D01*
X89177944Y-48472499D01*
X89103138Y-48369536D01*
X89061884Y-48312753D01*
X88922246Y-48173115D01*
X88762504Y-48057058D01*
X88762503Y-48057057D01*
X88762501Y-48057056D01*
X88586561Y-47967409D01*
X88586558Y-47967408D01*
X88398763Y-47906389D01*
X88203736Y-47875500D01*
X88203731Y-47875500D01*
X88006269Y-47875500D01*
X88006264Y-47875500D01*
X87811236Y-47906389D01*
X87623441Y-47967408D01*
X87447495Y-48057058D01*
X87287753Y-48173115D01*
X87148115Y-48312753D01*
X87032058Y-48472495D01*
X86942408Y-48648441D01*
X86881389Y-48836236D01*
X86850500Y-49031263D01*
X86850500Y-49228736D01*
X86881389Y-49423763D01*
X86933298Y-49583521D01*
X86942409Y-49611561D01*
X87026209Y-49776025D01*
X87032058Y-49787504D01*
X87148115Y-49947246D01*
X87287753Y-50086884D01*
X87431308Y-50191181D01*
X87447499Y-50202944D01*
X87617404Y-50289516D01*
X87668199Y-50337490D01*
X87684994Y-50405311D01*
X87662456Y-50471446D01*
X87617404Y-50510483D01*
X87606255Y-50516165D01*
X87447495Y-50597058D01*
X87287753Y-50713115D01*
X87148115Y-50852753D01*
X87032058Y-51012495D01*
X87032056Y-51012499D01*
X86946212Y-51180977D01*
X86945485Y-51182403D01*
X86897510Y-51233199D01*
X86829689Y-51249994D01*
X86763554Y-51227456D01*
X86724515Y-51182403D01*
X86637944Y-51012499D01*
X86593634Y-50951511D01*
X86521884Y-50852753D01*
X86382246Y-50713115D01*
X86222504Y-50597058D01*
X86222503Y-50597057D01*
X86222501Y-50597056D01*
X86046561Y-50507409D01*
X86046558Y-50507408D01*
X85858763Y-50446389D01*
X85663736Y-50415500D01*
X85663731Y-50415500D01*
X85466269Y-50415500D01*
X85466264Y-50415500D01*
X85271233Y-50446390D01*
X85150817Y-50485515D01*
X85080976Y-50487510D01*
X85021143Y-50451429D01*
X84990316Y-50388728D01*
X84988500Y-50367584D01*
X84988500Y-50264687D01*
X84988499Y-50264683D01*
X84973879Y-50191182D01*
X84959505Y-50118920D01*
X84902629Y-49981610D01*
X84871707Y-49935332D01*
X84820060Y-49858035D01*
X84820054Y-49858028D01*
X84710647Y-49748621D01*
X84710624Y-49748600D01*
X84312041Y-49350016D01*
X84278556Y-49288693D01*
X84277249Y-49242941D01*
X84279500Y-49228731D01*
X84279500Y-49031269D01*
X84279500Y-49031263D01*
X84248610Y-48836236D01*
X84190064Y-48656051D01*
X84187591Y-48648439D01*
X84097944Y-48472499D01*
X84023138Y-48369536D01*
X83981884Y-48312753D01*
X83842246Y-48173115D01*
X83682504Y-48057058D01*
X83682503Y-48057057D01*
X83682501Y-48057056D01*
X83506561Y-47967409D01*
X83506558Y-47967408D01*
X83318763Y-47906389D01*
X83123736Y-47875500D01*
X83123731Y-47875500D01*
X82926269Y-47875500D01*
X82926264Y-47875500D01*
X82731236Y-47906389D01*
X82543441Y-47967408D01*
X82367495Y-48057058D01*
X82207753Y-48173115D01*
X82068122Y-48312746D01*
X82068121Y-48312748D01*
X82059664Y-48324386D01*
X82004335Y-48367052D01*
X81959348Y-48375500D01*
X81550652Y-48375500D01*
X81483613Y-48355815D01*
X81450335Y-48324387D01*
X81441879Y-48312748D01*
X81302252Y-48173121D01*
X81302246Y-48173115D01*
X81142504Y-48057058D01*
X81142503Y-48057057D01*
X81142501Y-48057056D01*
X80966561Y-47967409D01*
X80966558Y-47967408D01*
X80778763Y-47906389D01*
X80583736Y-47875500D01*
X80583731Y-47875500D01*
X80386269Y-47875500D01*
X80386264Y-47875500D01*
X80191236Y-47906389D01*
X80003441Y-47967408D01*
X79827495Y-48057058D01*
X79667753Y-48173115D01*
X79528115Y-48312753D01*
X79412058Y-48472495D01*
X79322408Y-48648441D01*
X79261389Y-48836236D01*
X79230500Y-49031263D01*
X79230500Y-49228736D01*
X79261389Y-49423763D01*
X79313298Y-49583521D01*
X79322409Y-49611561D01*
X79406209Y-49776025D01*
X79412058Y-49787504D01*
X79528115Y-49947246D01*
X79528121Y-49947252D01*
X79667748Y-50086879D01*
X79811311Y-50191183D01*
X79853976Y-50246511D01*
X79859955Y-50316124D01*
X79827350Y-50377919D01*
X79766512Y-50412277D01*
X79738427Y-50415500D01*
X79683130Y-50415500D01*
X79683123Y-50415501D01*
X79623516Y-50421908D01*
X79488671Y-50472202D01*
X79488664Y-50472206D01*
X79373455Y-50558452D01*
X79373452Y-50558455D01*
X79287206Y-50673664D01*
X79287202Y-50673671D01*
X79236908Y-50808517D01*
X79230501Y-50868116D01*
X79230501Y-50868123D01*
X79230500Y-50868135D01*
X79230500Y-52471870D01*
X79230501Y-52471876D01*
X79236908Y-52531483D01*
X79287202Y-52666328D01*
X79287206Y-52666335D01*
X79373452Y-52781544D01*
X79373455Y-52781547D01*
X79488664Y-52867793D01*
X79488671Y-52867797D01*
X79623517Y-52918091D01*
X79623516Y-52918091D01*
X79630444Y-52918835D01*
X79683127Y-52924500D01*
X81286872Y-52924499D01*
X81346483Y-52918091D01*
X81481331Y-52867796D01*
X81596546Y-52781546D01*
X81682796Y-52666331D01*
X81733091Y-52531483D01*
X81739500Y-52471873D01*
X81739499Y-52416574D01*
X81759182Y-52349538D01*
X81811986Y-52303783D01*
X81881144Y-52293838D01*
X81944700Y-52322862D01*
X81963817Y-52343691D01*
X82068115Y-52487245D01*
X82068119Y-52487250D01*
X82207753Y-52626884D01*
X82347925Y-52728723D01*
X82367499Y-52742944D01*
X82543439Y-52832591D01*
X82668637Y-52873270D01*
X82731236Y-52893610D01*
X82926264Y-52924500D01*
X82926269Y-52924500D01*
X83123736Y-52924500D01*
X83239121Y-52906224D01*
X83318763Y-52893610D01*
X83318774Y-52893606D01*
X83323498Y-52892473D01*
X83323849Y-52893935D01*
X83387011Y-52892125D01*
X83446847Y-52928199D01*
X83477682Y-52990897D01*
X83479500Y-53012054D01*
X83479500Y-53267052D01*
X83479499Y-53267078D01*
X83479499Y-53272188D01*
X83479499Y-53420812D01*
X83479499Y-53420814D01*
X83479498Y-53420814D01*
X83508493Y-53566573D01*
X83508496Y-53566583D01*
X83565366Y-53703881D01*
X83565372Y-53703892D01*
X83647942Y-53827468D01*
X83647943Y-53827469D01*
X84163181Y-54342706D01*
X84177884Y-54369633D01*
X84194477Y-54395452D01*
X84195368Y-54401652D01*
X84196666Y-54404029D01*
X84199500Y-54430387D01*
X84199500Y-54575500D01*
X84179815Y-54642539D01*
X84127011Y-54688294D01*
X84075500Y-54699500D01*
X82909298Y-54699500D01*
X82872432Y-54702401D01*
X82872426Y-54702402D01*
X82741036Y-54740576D01*
X82706441Y-54745500D01*
X81075959Y-54745500D01*
X81030469Y-54736854D01*
X80949804Y-54705043D01*
X80949796Y-54705041D01*
X80862017Y-54694500D01*
X79687990Y-54694500D01*
X79600203Y-54705041D01*
X79460507Y-54760130D01*
X79340860Y-54850860D01*
X79274548Y-54938307D01*
X79218355Y-54979831D01*
X79158098Y-54986120D01*
X79042500Y-54969500D01*
X75789484Y-54969500D01*
X75789473Y-54969500D01*
X75708966Y-54975954D01*
X75669969Y-54982245D01*
X75591465Y-55001454D01*
X75591460Y-55001455D01*
X75554495Y-55013705D01*
X75515491Y-55019999D01*
X74984505Y-55019999D01*
X74945501Y-55013705D01*
X74944170Y-55013264D01*
X74908524Y-55001452D01*
X74830038Y-54982247D01*
X74830035Y-54982246D01*
X74830029Y-54982245D01*
X74791035Y-54975954D01*
X74710526Y-54969500D01*
X74710516Y-54969500D01*
X74149000Y-54969500D01*
X74148991Y-54969500D01*
X74148990Y-54969501D01*
X74041549Y-54981052D01*
X74041537Y-54981054D01*
X73990027Y-54992260D01*
X73887502Y-55026383D01*
X73887496Y-55026386D01*
X73766462Y-55104171D01*
X73766451Y-55104179D01*
X73713659Y-55149923D01*
X73619433Y-55258664D01*
X73619430Y-55258668D01*
X73559664Y-55389534D01*
X73539976Y-55456582D01*
X73529189Y-55531613D01*
X73519500Y-55599000D01*
X72757847Y-55599000D01*
X72759837Y-50272070D01*
X73989500Y-50272070D01*
X73989500Y-50527929D01*
X74029526Y-50780640D01*
X74108588Y-51023972D01*
X74108589Y-51023975D01*
X74187533Y-51178910D01*
X74215195Y-51233199D01*
X74224750Y-51251950D01*
X74375132Y-51458935D01*
X74375136Y-51458940D01*
X74556059Y-51639863D01*
X74556064Y-51639867D01*
X74733432Y-51768731D01*
X74763053Y-51790252D01*
X74912080Y-51866185D01*
X74991024Y-51906410D01*
X74991027Y-51906411D01*
X75112693Y-51945942D01*
X75234361Y-51985474D01*
X75487070Y-52025500D01*
X75487071Y-52025500D01*
X75742929Y-52025500D01*
X75742930Y-52025500D01*
X75995639Y-51985474D01*
X76238975Y-51906410D01*
X76466947Y-51790252D01*
X76673942Y-51639862D01*
X76854862Y-51458942D01*
X77005252Y-51251947D01*
X77121410Y-51023975D01*
X77200474Y-50780639D01*
X77240500Y-50527930D01*
X77240500Y-50272070D01*
X77200474Y-50019361D01*
X77151359Y-49868200D01*
X77121411Y-49776027D01*
X77121410Y-49776024D01*
X77037611Y-49611561D01*
X77005252Y-49548053D01*
X76986038Y-49521607D01*
X76854867Y-49341064D01*
X76854863Y-49341059D01*
X76673940Y-49160136D01*
X76673935Y-49160132D01*
X76466950Y-49009750D01*
X76466949Y-49009749D01*
X76466947Y-49009748D01*
X76393910Y-48972533D01*
X76238975Y-48893589D01*
X76238972Y-48893588D01*
X75995640Y-48814526D01*
X75869284Y-48794513D01*
X75742930Y-48774500D01*
X75487070Y-48774500D01*
X75402833Y-48787842D01*
X75234359Y-48814526D01*
X74991027Y-48893588D01*
X74991024Y-48893589D01*
X74763049Y-49009750D01*
X74556064Y-49160132D01*
X74556059Y-49160136D01*
X74375136Y-49341059D01*
X74375132Y-49341064D01*
X74224750Y-49548049D01*
X74108589Y-49776024D01*
X74108588Y-49776027D01*
X74029526Y-50019359D01*
X73989500Y-50272070D01*
X72759837Y-50272070D01*
X72760475Y-48565982D01*
X72760500Y-48565892D01*
X72760500Y-48505360D01*
X72760502Y-48505350D01*
X72760972Y-48494605D01*
X72762906Y-48472495D01*
X72774587Y-48338978D01*
X72778338Y-48317704D01*
X72817367Y-48172044D01*
X72824759Y-48151738D01*
X72888482Y-48015084D01*
X72899289Y-47996366D01*
X72985779Y-47872845D01*
X72999667Y-47856293D01*
X73106293Y-47749667D01*
X73122845Y-47735779D01*
X73246366Y-47649289D01*
X73265081Y-47638483D01*
X73401740Y-47574758D01*
X73422044Y-47567367D01*
X73567704Y-47528338D01*
X73588978Y-47524587D01*
X73721493Y-47512993D01*
X73744602Y-47510972D01*
X73755409Y-47510500D01*
X73824533Y-47510500D01*
X73824700Y-47510487D01*
X135494586Y-47500500D01*
X135505387Y-47500971D01*
G37*
%TD.AperFunction*%
%TD*%
%TA.AperFunction,Conductor*%
%TO.N,/5V*%
G36*
X77400244Y-65784781D02*
G01*
X77401965Y-65784987D01*
X77401966Y-65784988D01*
X77489503Y-65795500D01*
X78856308Y-65795499D01*
X78943846Y-65784988D01*
X78943853Y-65784985D01*
X78945606Y-65784543D01*
X78947084Y-65784599D01*
X78951741Y-65784040D01*
X78951829Y-65784779D01*
X79015426Y-65787195D01*
X79072728Y-65827173D01*
X79099319Y-65891784D01*
X79100000Y-65904760D01*
X79100000Y-67126000D01*
X79080315Y-67193039D01*
X79027511Y-67238794D01*
X78976000Y-67250000D01*
X77374000Y-67250000D01*
X77306961Y-67230315D01*
X77261206Y-67177511D01*
X77250000Y-67126000D01*
X77250000Y-65905819D01*
X77269685Y-65838780D01*
X77322489Y-65793025D01*
X77391647Y-65783081D01*
X77400244Y-65784781D01*
G37*
%TD.AperFunction*%
%TD*%
%TA.AperFunction,Conductor*%
%TO.N,/VTAG*%
G36*
X112693039Y-70469685D02*
G01*
X112738794Y-70522489D01*
X112750000Y-70574000D01*
X112750000Y-72651000D01*
X112730315Y-72718039D01*
X112677511Y-72763794D01*
X112626000Y-72775000D01*
X112044385Y-72775000D01*
X111979288Y-72756538D01*
X111908705Y-72713001D01*
X111908699Y-72712998D01*
X111908697Y-72712997D01*
X111792520Y-72674500D01*
X111747709Y-72659651D01*
X111648346Y-72649500D01*
X111051662Y-72649500D01*
X111051644Y-72649501D01*
X110952292Y-72659650D01*
X110952289Y-72659651D01*
X110791305Y-72712996D01*
X110791294Y-72713001D01*
X110720712Y-72756538D01*
X110655615Y-72775000D01*
X110103854Y-72775000D01*
X110038757Y-72756538D01*
X110008705Y-72738001D01*
X110008699Y-72737998D01*
X110008697Y-72737997D01*
X110008694Y-72737996D01*
X109847709Y-72684651D01*
X109748346Y-72674500D01*
X109151662Y-72674500D01*
X109151644Y-72674501D01*
X109052292Y-72684650D01*
X109052289Y-72684651D01*
X108891305Y-72737996D01*
X108891294Y-72738001D01*
X108861243Y-72756538D01*
X108796146Y-72775000D01*
X108174000Y-72775000D01*
X108106961Y-72755315D01*
X108061206Y-72702511D01*
X108050000Y-72651000D01*
X108050000Y-70574000D01*
X108069685Y-70506961D01*
X108122489Y-70461206D01*
X108174000Y-70450000D01*
X112626000Y-70450000D01*
X112693039Y-70469685D01*
G37*
%TD.AperFunction*%
%TD*%
M02*
