M48
; DRILL file {KiCad 9.0.1} date 2025-04-15T21:27:25-0400
; FORMAT={-:-/ absolute / metric / decimal}
; #@! TF.CreationDate,2025-04-15T21:27:25-04:00
; #@! TF.GenerationSoftware,Kicad,Pcbnew,9.0.1
; #@! TF.FileFunction,Plated,1,4,PTH
FMAT,2
METRIC
; #@! TA.AperFunction,Plated,PTH,ViaDrill
T1C0.300
; #@! TA.AperFunction,Plated,PTH,ComponentDrill
T2C0.750
; #@! TA.AperFunction,Plated,PTH,ComponentDrill
T3C1.000
%
G90
G05
T1
X74.475Y-58.45
X74.525Y-61.375
X75.25Y-53.1
X76.225Y-66.225
X76.25Y-69.025
X76.5Y-56.8
X76.5Y-59.825
X76.5Y-62.75
X77.75Y-66.85
X78.25Y-53.05
X78.575Y-57.45
X78.6Y-62.1
X78.625Y-59.725
X81.875Y-71.925
X85.5Y-70.15
X89.325Y-70.2
X89.325Y-72.15
X91.025Y-61.95
X93.45Y-61.975
X93.45Y-70.15
X98.8Y-61.025
X99.275Y-64.975
X101.35Y-65.0
X101.525Y-61.025
X104.0Y-61.025
X108.55Y-70.975
X109.325Y-57.375
X109.45Y-62.025
X109.675Y-60.35
X110.425Y-70.975
X111.8Y-60.075
X112.175Y-57.525
X112.275Y-70.975
X112.95Y-64.075
X112.975Y-66.05
X113.0Y-65.075
X113.2Y-61.65
X113.425Y-66.975
X113.85Y-61.025
X113.875Y-71.9
X117.325Y-70.125
X125.8Y-61.55
X126.8Y-70.2
X128.675Y-54.8
X128.675Y-55.625
X130.0Y-71.35
X130.2Y-69.2
X131.2Y-65.725
X131.55Y-63.275
T2
X83.0Y-74.05
X85.0Y-74.05
X87.0Y-74.05
X89.0Y-74.05
X91.0Y-74.05
X93.0Y-74.05
X99.45Y-73.9
X101.45Y-73.9
X103.45Y-73.9
X105.45Y-73.9
T3
X80.485Y-49.13
X80.485Y-51.67
X83.025Y-49.13
X83.025Y-51.67
X85.565Y-49.13
X85.565Y-51.67
X88.105Y-49.13
X88.105Y-51.67
X90.645Y-49.13
X90.645Y-51.67
X93.185Y-49.13
X93.185Y-51.67
X95.725Y-49.13
X95.725Y-51.67
X98.265Y-49.13
X98.265Y-51.67
X100.805Y-49.13
X100.805Y-51.67
X103.345Y-49.13
X103.345Y-51.67
X105.885Y-49.13
X105.885Y-51.67
X108.425Y-49.13
X108.425Y-51.67
X110.965Y-49.13
X110.965Y-51.67
X113.505Y-49.13
X113.505Y-51.67
X116.045Y-49.13
X116.045Y-51.67
X118.585Y-49.13
X118.585Y-51.67
X121.125Y-49.13
X121.125Y-51.67
X123.665Y-49.13
X123.665Y-51.67
X126.205Y-49.13
X126.205Y-51.67
X128.745Y-49.13
X128.745Y-51.67
X132.225Y-69.5
X134.55Y-56.18
X134.55Y-58.72
X134.55Y-61.26
X134.55Y-63.8
X134.55Y-66.34
X134.765Y-69.5
M30
