%TF.GenerationSoftware,KiCad,Pcbnew,9.0.1*%
%TF.CreationDate,2025-04-15T21:25:17-04:00*%
%TF.ProjectId,psocpcb,70736f63-7063-4622-9e6b-696361645f70,rev?*%
%TF.SameCoordinates,Original*%
%TF.FileFunction,Soldermask,Bot*%
%TF.FilePolarity,Negative*%
%FSLAX46Y46*%
G04 Gerber Fmt 4.6, Leading zero omitted, Abs format (unit mm)*
G04 Created by KiCad (PCBNEW 9.0.1) date 2025-04-15 21:25:17*
%MOMM*%
%LPD*%
G01*
G04 APERTURE LIST*
G04 Aperture macros list*
%AMRoundRect*
0 Rectangle with rounded corners*
0 $1 Rounding radius*
0 $2 $3 $4 $5 $6 $7 $8 $9 X,Y pos of 4 corners*
0 Add a 4 corners polygon primitive as box body*
4,1,4,$2,$3,$4,$5,$6,$7,$8,$9,$2,$3,0*
0 Add four circle primitives for the rounded corners*
1,1,$1+$1,$2,$3*
1,1,$1+$1,$4,$5*
1,1,$1+$1,$6,$7*
1,1,$1+$1,$8,$9*
0 Add four rect primitives between the rounded corners*
20,1,$1+$1,$2,$3,$4,$5,0*
20,1,$1+$1,$4,$5,$6,$7,0*
20,1,$1+$1,$6,$7,$8,$9,0*
20,1,$1+$1,$8,$9,$2,$3,0*%
G04 Aperture macros list end*
%ADD10RoundRect,0.250000X-0.350000X-0.625000X0.350000X-0.625000X0.350000X0.625000X-0.350000X0.625000X0*%
%ADD11O,1.200000X1.750000*%
%ADD12R,1.700000X1.700000*%
%ADD13C,1.700000*%
%ADD14C,2.750000*%
%ADD15RoundRect,0.102000X-0.754000X-0.754000X0.754000X-0.754000X0.754000X0.754000X-0.754000X0.754000X0*%
%ADD16C,1.712000*%
%ADD17RoundRect,0.200000X-0.275000X0.200000X-0.275000X-0.200000X0.275000X-0.200000X0.275000X0.200000X0*%
%ADD18RoundRect,0.102000X-0.950000X0.550000X-0.950000X-0.550000X0.950000X-0.550000X0.950000X0.550000X0*%
%ADD19RoundRect,0.200000X0.275000X-0.200000X0.275000X0.200000X-0.275000X0.200000X-0.275000X-0.200000X0*%
%ADD20RoundRect,0.225000X-0.250000X0.225000X-0.250000X-0.225000X0.250000X-0.225000X0.250000X0.225000X0*%
%ADD21RoundRect,0.200000X-0.200000X-0.275000X0.200000X-0.275000X0.200000X0.275000X-0.200000X0.275000X0*%
%ADD22RoundRect,0.218750X-0.218750X-0.256250X0.218750X-0.256250X0.218750X0.256250X-0.218750X0.256250X0*%
%ADD23RoundRect,0.225000X0.225000X0.250000X-0.225000X0.250000X-0.225000X-0.250000X0.225000X-0.250000X0*%
%ADD24RoundRect,0.200000X0.200000X0.275000X-0.200000X0.275000X-0.200000X-0.275000X0.200000X-0.275000X0*%
G04 APERTURE END LIST*
D10*
%TO.C,J5*%
X99450000Y-73900000D03*
D11*
X101450000Y-73900000D03*
X103450000Y-73900000D03*
X105450000Y-73900000D03*
%TD*%
D12*
%TO.C,J2*%
X132225000Y-69500000D03*
D13*
X134765000Y-69500000D03*
%TD*%
D12*
%TO.C,J1*%
X134550000Y-66340000D03*
D13*
X134550000Y-63800000D03*
X134550000Y-61260000D03*
X134550000Y-58720000D03*
X134550000Y-56180000D03*
%TD*%
D14*
%TO.C,A1*%
X75615000Y-50400000D03*
X75615000Y-73400000D03*
X133615000Y-50400000D03*
X133615000Y-73400000D03*
D15*
X80485000Y-51670000D03*
D16*
X80485000Y-49130000D03*
X83025000Y-51670000D03*
X83025000Y-49130000D03*
X85565000Y-51670000D03*
X85565000Y-49130000D03*
X88105000Y-51670000D03*
X88105000Y-49130000D03*
X90645000Y-51670000D03*
X90645000Y-49130000D03*
X93185000Y-51670000D03*
X93185000Y-49130000D03*
X95725000Y-51670000D03*
X95725000Y-49130000D03*
X98265000Y-51670000D03*
X98265000Y-49130000D03*
X100805000Y-51670000D03*
X100805000Y-49130000D03*
X103345000Y-51670000D03*
X103345000Y-49130000D03*
X105885000Y-51670000D03*
X105885000Y-49130000D03*
X108425000Y-51670000D03*
X108425000Y-49130000D03*
X110965000Y-51670000D03*
X110965000Y-49130000D03*
X113505000Y-51670000D03*
X113505000Y-49130000D03*
X116045000Y-51670000D03*
X116045000Y-49130000D03*
X118585000Y-51670000D03*
X118585000Y-49130000D03*
X121125000Y-51670000D03*
X121125000Y-49130000D03*
X123665000Y-51670000D03*
X123665000Y-49130000D03*
X126205000Y-51670000D03*
X126205000Y-49130000D03*
X128745000Y-51670000D03*
X128745000Y-49130000D03*
%TD*%
D10*
%TO.C,J7*%
X83000000Y-74050000D03*
D11*
X85000000Y-74050000D03*
X87000000Y-74050000D03*
X89000000Y-74050000D03*
X91000000Y-74050000D03*
X93000000Y-74050000D03*
%TD*%
D17*
%TO.C,R10*%
X87000000Y-65175000D03*
X87000000Y-66825000D03*
%TD*%
D18*
%TO.C,Y1*%
X110500000Y-65750000D03*
X110500000Y-68250000D03*
%TD*%
D19*
%TO.C,R5*%
X84500000Y-66825000D03*
X84500000Y-65175000D03*
%TD*%
D20*
%TO.C,C8*%
X106500000Y-59475000D03*
X106500000Y-61025000D03*
%TD*%
D19*
%TO.C,R6*%
X89000000Y-66825000D03*
X89000000Y-65175000D03*
%TD*%
D17*
%TO.C,R8*%
X91500000Y-65175000D03*
X91500000Y-66825000D03*
%TD*%
D20*
%TO.C,C14*%
X110750000Y-57225000D03*
X110750000Y-58775000D03*
%TD*%
D21*
%TO.C,R3*%
X95175000Y-69000000D03*
X96825000Y-69000000D03*
%TD*%
D20*
%TO.C,C13*%
X106500000Y-55725000D03*
X106500000Y-57275000D03*
%TD*%
D19*
%TO.C,R4*%
X93500000Y-66825000D03*
X93500000Y-65175000D03*
%TD*%
D22*
%TO.C,FB1*%
X79712500Y-70500000D03*
X81287500Y-70500000D03*
%TD*%
D23*
%TO.C,C2*%
X106775000Y-68500000D03*
X105225000Y-68500000D03*
%TD*%
%TO.C,C1*%
X106775000Y-65750000D03*
X105225000Y-65750000D03*
%TD*%
D17*
%TO.C,R9*%
X82500000Y-65175000D03*
X82500000Y-66825000D03*
%TD*%
D20*
%TO.C,C7*%
X110750000Y-61225000D03*
X110750000Y-62775000D03*
%TD*%
D24*
%TO.C,R7*%
X96825000Y-71000000D03*
X95175000Y-71000000D03*
%TD*%
M02*
